<?xml version="1.0" encoding="UTF-8" standalone="no"?>
<!DOCTYPE svg PUBLIC "-//W3C//DTD SVG 1.1//EN"
 "http://www.w3.org/Graphics/SVG/1.1/DTD/svg11.dtd">
<!-- Generated by graphviz version 2.43.0 (0)
 -->
<!-- Title: %3 Pages: 1 -->
<svg width="1682pt" height="943pt"
 viewBox="0.00 0.00 1682.00 943.00" xmlns="http://www.w3.org/2000/svg" xmlns:xlink="http://www.w3.org/1999/xlink">
<g id="graph0" class="graph" transform="scale(1 1) rotate(0) translate(4 939)">
<title>%3</title>
<g id="clust1" class="cluster">
<title>cluster_0</title>
<polygon fill="BurlyWood" stroke="black" points="8,-206 8,-859 664,-859 664,-206 8,-206"/>
<text text-anchor="middle" x="336" y="-843.8" font-family="Times,serif" font-size="14.00">Bartlett\Sarif\Converter</text>
</g>
<g id="clust2" class="cluster">
<title>cluster_1</title>
<polygon fill="LightSkyBlue" stroke="black" points="417,-8 417,-198 1535,-198 1535,-8 417,-8"/>
<text text-anchor="middle" x="976" y="-182.8" font-family="Times,serif" font-size="14.00">Bartlett\Sarif\Contract</text>
</g>
<g id="clust3" class="cluster">
<title>cluster_2</title>
<polygon fill="Bisque" stroke="black" points="672,-355.5 672,-927 1336,-927 1336,-355.5 672,-355.5"/>
<text text-anchor="middle" x="1004" y="-911.8" font-family="Times,serif" font-size="14.00">Bartlett\Sarif\Converter\Source</text>
</g>
<g id="clust4" class="cluster">
<title>cluster_3</title>
<polygon fill="Bisque" stroke="black" points="1344,-365.5 1344,-853.5 1666,-853.5 1666,-365.5 1344,-365.5"/>
<text text-anchor="middle" x="1505" y="-838.3" font-family="Times,serif" font-size="14.00">Bartlett\Sarif\Converter\Normalizer</text>
</g>
<!-- Bartlett\\Sarif\\Converter\\EcsConverter -->
<g id="node1" class="node">
<title>Bartlett\\Sarif\\Converter\\EcsConverter</title>
<polygon fill="#fefece" stroke="transparent" points="419,-828 253,-828 253,-781 419,-781 419,-828"/>
<polygon fill="#eeeeee" stroke="transparent" points="253,-805.5 253,-827.5 419,-827.5 419,-805.5 253,-805.5"/>
<polygon fill="none" stroke="black" points="253,-805.5 253,-827.5 419,-827.5 419,-805.5 253,-805.5"/>
<text text-anchor="start" x="306.5" y="-811.1" font-family="Verdana" font-weight="bold" font-size="8.00">EcsConverter</text>
<polygon fill="none" stroke="black" points="253,-799.5 253,-805.5 419,-805.5 419,-799.5 253,-799.5"/>
<polygon fill="none" stroke="black" points="253,-780.5 253,-799.5 419,-799.5 419,-780.5 253,-780.5"/>
<text text-anchor="start" x="258" y="-788.1" font-family="Verdana" font-size="8.00">+ configure(options : array = []) : void</text>
</g>
<!-- Bartlett\\Sarif\\Converter\\AbstractConverter -->
<g id="node2" class="node">
<title>Bartlett\\Sarif\\Converter\\AbstractConverter</title>
<polygon fill="#fefece" stroke="transparent" points="655.5,-677 16.5,-677 16.5,-214 655.5,-214 655.5,-677"/>
<polygon fill="#eeeeee" stroke="transparent" points="17,-654.5 17,-676.5 656,-676.5 656,-654.5 17,-654.5"/>
<polygon fill="none" stroke="black" points="17,-654.5 17,-676.5 656,-676.5 656,-654.5 17,-654.5"/>
<text text-anchor="start" x="312.5" y="-668.1" font-family="Verdana" font-weight="bold" font-size="8.00">«abstract»</text>
<text text-anchor="start" x="295.5" y="-660.1" font-family="Verdana" font-weight="bold" font-size="8.00">AbstractConverter</text>
<polygon fill="none" stroke="black" points="17,-440.5 17,-654.5 656,-654.5 656,-440.5 17,-440.5"/>
<text text-anchor="start" x="22" y="-643.1" font-family="Verdana" font-size="8.00"># toolName</text>
<text text-anchor="start" x="22" y="-630.1" font-family="Verdana" font-size="8.00"># toolFullName</text>
<text text-anchor="start" x="22" y="-617.1" font-family="Verdana" font-size="8.00"># toolShortDescription</text>
<text text-anchor="start" x="22" y="-604.1" font-family="Verdana" font-size="8.00"># toolFullDescription</text>
<text text-anchor="start" x="22" y="-591.1" font-family="Verdana" font-size="8.00"># toolInformationUri</text>
<text text-anchor="start" x="22" y="-578.1" font-family="Verdana" font-size="8.00"># toolComposerPackage</text>
<text text-anchor="start" x="22" y="-565.1" font-family="Verdana" font-size="8.00"># toolSemanticVersion</text>
<text text-anchor="start" x="22" y="-552.1" font-family="Verdana" font-size="8.00"># converterComposerPackage</text>
<text text-anchor="start" x="22" y="-539.1" font-family="Verdana" font-size="8.00"># results : mixed = []</text>
<text text-anchor="start" x="22" y="-526.1" font-family="Verdana" font-size="8.00"># errors : mixed = []</text>
<text text-anchor="start" x="22" y="-513.1" font-family="Verdana" font-size="8.00"># serializer</text>
<text text-anchor="start" x="22" y="-500.1" font-family="Verdana" font-size="8.00"># startTime</text>
<text text-anchor="start" x="22" y="-487.1" font-family="Verdana" font-size="8.00"># endTime</text>
<text text-anchor="start" x="22" y="-474.1" font-family="Verdana" font-size="8.00"># includeCodeSnippets</text>
<text text-anchor="start" x="22" y="-461.1" font-family="Verdana" font-size="8.00"># includeContextRegion</text>
<text text-anchor="start" x="22" y="-448.1" font-family="Verdana" font-size="8.00"># defaultResultLevelIfEmpty</text>
<polygon fill="none" stroke="black" points="17,-213.5 17,-440.5 656,-440.5 656,-213.5 17,-213.5"/>
<text text-anchor="start" x="22" y="-429.1" font-family="Verdana" font-size="8.00">+ __construct(options : array = [], factory : Bartlett\Sarif\Factory\SerializerFactory = «unknown»)</text>
<text text-anchor="start" x="22" y="-416.1" font-family="Verdana" font-size="8.00">+ getName() : string</text>
<text text-anchor="start" x="22" y="-403.1" font-family="Verdana" font-size="8.00">+ configure(options : array) : void</text>
<text text-anchor="start" x="22" y="-390.1" font-family="Verdana" font-size="8.00">+ toolDriver() : Bartlett\Sarif\Definition\ToolComponent</text>
<text text-anchor="start" x="22" y="-377.1" font-family="Verdana" font-size="8.00">+ toolExtensions() : array</text>
<text text-anchor="start" x="22" y="-364.1" font-family="Verdana" font-size="8.00">+ rules(defined : iterable) : array</text>
<text text-anchor="start" x="22" y="-351.1" font-family="Verdana" font-size="8.00">+ results(normalized : iterable) : void</text>
<text text-anchor="start" x="22" y="-338.1" font-family="Verdana" font-size="8.00">+ sarifLog(runs : array = [], version : string = &#39;2\.1\.0&#39;) : ?string</text>
<text text-anchor="start" x="22" y="-325.1" font-family="Verdana" font-size="8.00">+ invocations(properties : Bartlett\Sarif\Definition\PropertyBag = «unknown») : array</text>
<text text-anchor="start" x="22" y="-312.1" font-family="Verdana" font-size="8.00">+ automationDetails() : Bartlett\Sarif\Definition\RunAutomationDetails</text>
<text text-anchor="start" x="22" y="-299.1" font-family="Verdana" font-size="8.00">+ run(invocations : iterable, rules : iterable) : Bartlett\Sarif\Definition\Run</text>
<text text-anchor="start" x="22" y="-286.1" font-family="Verdana" font-size="8.00"># getToolVersion(package : string) : string</text>
<text text-anchor="start" x="22" y="-273.1" font-family="Verdana" font-size="8.00"># pathToArtifactLocation(path : string) : string</text>
<text text-anchor="start" x="22" y="-260.1" font-family="Verdana" font-size="8.00"># pathToUri(path : string) : string</text>
<text text-anchor="start" x="22" y="-247.1" font-family="Verdana" font-size="8.00"># getCodeSnippet(filePath : string, lineNumber : int, linesBefore : int, linesAfter : int) : ?string</text>
<text text-anchor="start" x="22" y="-234.1" font-family="Verdana" font-size="8.00"># getSnippetRegion(filePath : string, lineNumber : int, column : int = «unknown», linesBefore : int = 2, linesAfter : int = 2) : Bartlett\Sarif\Definition\Region</text>
<text text-anchor="start" x="22" y="-221.1" font-family="Verdana" font-size="8.00"># getErrors() : Iterator</text>
</g>
<!-- Bartlett\\Sarif\\Converter\\EcsConverter&#45;&gt;Bartlett\\Sarif\\Converter\\AbstractConverter -->
<g id="edge2" class="edge">
<title>Bartlett\\Sarif\\Converter\\EcsConverter&#45;&gt;Bartlett\\Sarif\\Converter\\AbstractConverter</title>
<path fill="none" stroke="black" d="M336,-780.9C336,-759.79 336,-725.85 336,-687.51"/>
<polygon fill="none" stroke="black" points="339.5,-687.13 336,-677.13 332.5,-687.13 339.5,-687.13"/>
</g>
<!-- Bartlett\\Sarif\\Contract\\ConverterInterface -->
<g id="node3" class="node">
<title>Bartlett\\Sarif\\Contract\\ConverterInterface</title>
<polygon fill="#fefece" stroke="transparent" points="829,-167 425,-167 425,-16 829,-16 829,-167"/>
<polygon fill="#eeeeee" stroke="transparent" points="425,-144.5 425,-166.5 829,-166.5 829,-144.5 425,-144.5"/>
<polygon fill="none" stroke="black" points="425,-144.5 425,-166.5 829,-166.5 829,-144.5 425,-144.5"/>
<text text-anchor="start" x="601" y="-158.1" font-family="Verdana" font-weight="bold" font-size="8.00">«interface»</text>
<text text-anchor="start" x="584.5" y="-150.1" font-family="Verdana" font-weight="bold" font-size="8.00">ConverterInterface</text>
<polygon fill="none" stroke="black" points="425,-138.5 425,-144.5 829,-144.5 829,-138.5 425,-138.5"/>
<polygon fill="none" stroke="black" points="425,-15.5 425,-138.5 829,-138.5 829,-15.5 425,-15.5"/>
<text text-anchor="start" x="430" y="-127.1" font-family="Verdana" font-size="8.00">+ «abstract» getName() : string</text>
<text text-anchor="start" x="430" y="-114.1" font-family="Verdana" font-size="8.00">+ «abstract» toolDriver() : Bartlett\Sarif\Definition\ToolComponent</text>
<text text-anchor="start" x="430" y="-101.1" font-family="Verdana" font-size="8.00">+ «abstract» toolExtensions() : array</text>
<text text-anchor="start" x="430" y="-88.1" font-family="Verdana" font-size="8.00">+ «abstract» rules(defined : iterable) : array</text>
<text text-anchor="start" x="430" y="-75.1" font-family="Verdana" font-size="8.00">+ «abstract» results(normalized : iterable) : void</text>
<text text-anchor="start" x="430" y="-62.1" font-family="Verdana" font-size="8.00">+ «abstract» invocations(properties : Bartlett\Sarif\Definition\PropertyBag = «unknown») : array</text>
<text text-anchor="start" x="430" y="-49.1" font-family="Verdana" font-size="8.00">+ «abstract» automationDetails() : Bartlett\Sarif\Definition\RunAutomationDetails</text>
<text text-anchor="start" x="430" y="-36.1" font-family="Verdana" font-size="8.00">+ «abstract» run(invocations : iterable, rules : iterable) : Bartlett\Sarif\Definition\Run</text>
<text text-anchor="start" x="430" y="-23.1" font-family="Verdana" font-size="8.00">+ «abstract» sarifLog(runs : array = [], version : string = &#39;2\.1\.0&#39;) : ?string</text>
</g>
<!-- Bartlett\\Sarif\\Converter\\AbstractConverter&#45;&gt;Bartlett\\Sarif\\Contract\\ConverterInterface -->
<g id="edge1" class="edge">
<title>Bartlett\\Sarif\\Converter\\AbstractConverter&#45;&gt;Bartlett\\Sarif\\Contract\\ConverterInterface</title>
<path fill="none" stroke="black" stroke-dasharray="5,2" d="M526.85,-213.64C538.01,-200.14 548.78,-187.12 558.85,-174.94"/>
<polygon fill="none" stroke="black" points="561.69,-177 565.36,-167.06 556.29,-172.54 561.69,-177"/>
</g>
<!-- Bartlett\\Sarif\\Contract\\SourceInterface -->
<g id="node4" class="node">
<title>Bartlett\\Sarif\\Contract\\SourceInterface</title>
<polygon fill="#fefece" stroke="transparent" points="1161,-147.5 847,-147.5 847,-35.5 1161,-35.5 1161,-147.5"/>
<polygon fill="#eeeeee" stroke="transparent" points="847,-125.5 847,-147.5 1161,-147.5 1161,-125.5 847,-125.5"/>
<polygon fill="none" stroke="black" points="847,-125.5 847,-147.5 1161,-147.5 1161,-125.5 847,-125.5"/>
<text text-anchor="start" x="978" y="-139.1" font-family="Verdana" font-weight="bold" font-size="8.00">«interface»</text>
<text text-anchor="start" x="968" y="-131.1" font-family="Verdana" font-weight="bold" font-size="8.00">SourceInterface</text>
<polygon fill="none" stroke="black" points="847,-119.5 847,-125.5 1161,-125.5 1161,-119.5 847,-119.5"/>
<polygon fill="none" stroke="black" points="847,-35.5 847,-119.5 1161,-119.5 1161,-35.5 847,-35.5"/>
<text text-anchor="start" x="852" y="-108.1" font-family="Verdana" font-size="8.00">+ «abstract» getName() : string</text>
<text text-anchor="start" x="852" y="-95.1" font-family="Verdana" font-size="8.00">+ «abstract» getFiles() : Iterator</text>
<text text-anchor="start" x="852" y="-82.1" font-family="Verdana" font-size="8.00">+ «abstract» getErrors() : Iterator</text>
<text text-anchor="start" x="852" y="-69.1" font-family="Verdana" font-size="8.00">+ «abstract» getRules() : Iterator</text>
<text text-anchor="start" x="852" y="-56.1" font-family="Verdana" font-size="8.00">+ «abstract» getAttribute(name : string) : Iterator</text>
<text text-anchor="start" x="852" y="-43.1" font-family="Verdana" font-size="8.00">+ «abstract» normalize(data : mixed, format : string, context : array) : bool</text>
</g>
<!-- Bartlett\\Sarif\\Contract\\NormalizerInterface -->
<g id="node5" class="node">
<title>Bartlett\\Sarif\\Contract\\NormalizerInterface</title>
<polygon fill="#fefece" stroke="transparent" points="1527,-157 1179,-157 1179,-26 1527,-26 1527,-157"/>
<polygon fill="#eeeeee" stroke="transparent" points="1179,-134.5 1179,-156.5 1527,-156.5 1527,-134.5 1179,-134.5"/>
<polygon fill="none" stroke="black" points="1179,-134.5 1179,-156.5 1527,-156.5 1527,-134.5 1179,-134.5"/>
<text text-anchor="start" x="1327" y="-148.1" font-family="Verdana" font-weight="bold" font-size="8.00">«interface»</text>
<text text-anchor="start" x="1308" y="-140.1" font-family="Verdana" font-weight="bold" font-size="8.00">NormalizerInterface</text>
<polygon fill="none" stroke="black" points="1179,-63.5 1179,-134.5 1527,-134.5 1527,-63.5 1179,-63.5"/>
<text text-anchor="start" x="1184" y="-123.1" font-family="Verdana" font-size="8.00">+ «static» FORMAT_SARIF : string = &quot;sarif&quot; {readOnly}</text>
<text text-anchor="start" x="1184" y="-110.1" font-family="Verdana" font-size="8.00">+ «static» FORMAT_JSON : string = &quot;json&quot; {readOnly}</text>
<text text-anchor="start" x="1184" y="-97.1" font-family="Verdana" font-size="8.00">+ «static» FORMAT_XML : string = &quot;xml&quot; {readOnly}</text>
<text text-anchor="start" x="1184" y="-84.1" font-family="Verdana" font-size="8.00">+ «static» FORMAT_CHECKSTYLE : string = &quot;checkstyle&quot; {readOnly}</text>
<text text-anchor="start" x="1184" y="-71.1" font-family="Verdana" font-size="8.00">+ «static» FORMAT_INTERNAL : string = &quot;internal&quot; {readOnly}</text>
<polygon fill="none" stroke="black" points="1179,-57.5 1179,-63.5 1527,-63.5 1527,-57.5 1179,-57.5"/>
<polygon fill="none" stroke="black" points="1179,-25.5 1179,-57.5 1527,-57.5 1527,-25.5 1179,-25.5"/>
<text text-anchor="start" x="1184" y="-46.1" font-family="Verdana" font-size="8.00">+ «abstract» getSupportedFormats() : array</text>
<text text-anchor="start" x="1184" y="-33.1" font-family="Verdana" font-size="8.00">+ «abstract» normalize(data : mixed, format : string, context : array) : ?ArrayObject</text>
</g>
<!-- Bartlett\\Sarif\\Converter\\Source\\EcsSource -->
<g id="node6" class="node">
<title>Bartlett\\Sarif\\Converter\\Source\\EcsSource</title>
<polygon fill="#fefece" stroke="transparent" points="1328,-896 680,-896 680,-713 1328,-713 1328,-896"/>
<polygon fill="#eeeeee" stroke="transparent" points="680,-873.5 680,-895.5 1328,-895.5 1328,-873.5 680,-873.5"/>
<polygon fill="none" stroke="black" points="680,-873.5 680,-895.5 1328,-895.5 1328,-873.5 680,-873.5"/>
<text text-anchor="start" x="981" y="-879.1" font-family="Verdana" font-weight="bold" font-size="8.00">EcsSource</text>
<polygon fill="none" stroke="black" points="680,-815.5 680,-873.5 1328,-873.5 1328,-815.5 680,-815.5"/>
<text text-anchor="start" x="685" y="-862.1" font-family="Verdana" font-size="8.00">+ «static» URI_PATTERN_PHPCS : string = &quot;https\:\/\/github\.com\/PHPCSStandards\/PHP_CodeSniffer\/wiki\/Customisable\&#45;Sniff\&#45;Properties\#\%s&quot; {readOnly}</text>
<text text-anchor="start" x="685" y="-849.1" font-family="Verdana" font-size="8.00">+ «static» URI_PATTERN_PHPCS_FIXER : string = &quot;https\:\/\/cs\.symfony\.com\/doc\/rules\/\%s\/\%s\.html&quot; {readOnly}</text>
<text text-anchor="start" x="685" y="-836.1" font-family="Verdana" font-size="8.00">+ «static» URI_PATTERN_SYMPLIFY : string = &quot;https\:\/\/github\.com\/symplify\/coding\&#45;standard\/blob\/main\/docs\/rules_overview\.md\#\%s&quot; {readOnly}</text>
<text text-anchor="start" x="685" y="-823.1" font-family="Verdana" font-size="8.00">+ «static» URI_PATTERN_SLEVOMAT : string = &quot;https\:\/\/github\.com\/slevomat\/coding\&#45;standard\/blob\/master\/doc\/\%s\.md\#\%s\&#45;&quot; {readOnly}</text>
<polygon fill="none" stroke="black" points="680,-809.5 680,-815.5 1328,-815.5 1328,-809.5 680,-809.5"/>
<polygon fill="none" stroke="black" points="680,-712.5 680,-809.5 1328,-809.5 1328,-712.5 680,-712.5"/>
<text text-anchor="start" x="685" y="-798.1" font-family="Verdana" font-size="8.00">+ __construct(normalizers : iterable = [])</text>
<text text-anchor="start" x="685" y="-785.1" font-family="Verdana" font-size="8.00">+ getRules() : Iterator</text>
<text text-anchor="start" x="685" y="-772.1" font-family="Verdana" font-size="8.00">– phpCodeSnifferChecker(nameParts : array) : string</text>
<text text-anchor="start" x="685" y="-759.1" font-family="Verdana" font-size="8.00">– phpCsFixerChecker(nameParts : array) : string</text>
<text text-anchor="start" x="685" y="-746.1" font-family="Verdana" font-size="8.00">– symplifyChecker(nameParts : array) : string</text>
<text text-anchor="start" x="685" y="-733.1" font-family="Verdana" font-size="8.00">– slevomatCodingStandardChecker(nameParts : array) : string</text>
<text text-anchor="start" x="685" y="-720.1" font-family="Verdana" font-size="8.00">– «static» camelCaseToUnderscore(string : string) : string</text>
</g>
<!-- Bartlett\\Sarif\\Converter\\Source\\AbstractSource -->
<g id="node7" class="node">
<title>Bartlett\\Sarif\\Converter\\Source\\AbstractSource</title>
<polygon fill="#fefece" stroke="transparent" points="1167,-527.5 841,-527.5 841,-363.5 1167,-363.5 1167,-527.5"/>
<polygon fill="#eeeeee" stroke="transparent" points="841,-505.5 841,-527.5 1167,-527.5 1167,-505.5 841,-505.5"/>
<polygon fill="none" stroke="black" points="841,-505.5 841,-527.5 1167,-527.5 1167,-505.5 841,-505.5"/>
<text text-anchor="start" x="980" y="-519.1" font-family="Verdana" font-weight="bold" font-size="8.00">«abstract»</text>
<text text-anchor="start" x="969.5" y="-511.1" font-family="Verdana" font-weight="bold" font-size="8.00">AbstractSource</text>
<polygon fill="none" stroke="black" points="841,-473.5 841,-505.5 1167,-505.5 1167,-473.5 841,-473.5"/>
<text text-anchor="start" x="846" y="-494.1" font-family="Verdana" font-size="8.00">– normalizers : mixed</text>
<text text-anchor="start" x="846" y="-481.1" font-family="Verdana" font-size="8.00">– normalized</text>
<polygon fill="none" stroke="black" points="841,-363.5 841,-473.5 1167,-473.5 1167,-363.5 841,-363.5"/>
<text text-anchor="start" x="846" y="-462.1" font-family="Verdana" font-size="8.00">+ __construct(normalizers : iterable = [])</text>
<text text-anchor="start" x="846" y="-449.1" font-family="Verdana" font-size="8.00">+ getName() : string</text>
<text text-anchor="start" x="846" y="-436.1" font-family="Verdana" font-size="8.00">+ getFiles() : Iterator</text>
<text text-anchor="start" x="846" y="-423.1" font-family="Verdana" font-size="8.00">+ getErrors() : Iterator</text>
<text text-anchor="start" x="846" y="-410.1" font-family="Verdana" font-size="8.00">+ getRules() : Iterator</text>
<text text-anchor="start" x="846" y="-397.1" font-family="Verdana" font-size="8.00">+ getAttribute(name : string) : Iterator</text>
<text text-anchor="start" x="846" y="-384.1" font-family="Verdana" font-size="8.00">+ normalize(data, format : string, context : array) : bool</text>
<text text-anchor="start" x="846" y="-371.1" font-family="Verdana" font-size="8.00"># getNormalizer(format : string) : ?Bartlett\Sarif\Contract\NormalizerInterface</text>
</g>
<!-- Bartlett\\Sarif\\Converter\\Source\\EcsSource&#45;&gt;Bartlett\\Sarif\\Converter\\Source\\AbstractSource -->
<g id="edge4" class="edge">
<title>Bartlett\\Sarif\\Converter\\Source\\EcsSource&#45;&gt;Bartlett\\Sarif\\Converter\\Source\\AbstractSource</title>
<path fill="none" stroke="black" d="M1004,-712.95C1004,-659.29 1004,-591.5 1004,-537.72"/>
<polygon fill="none" stroke="black" points="1007.5,-537.51 1004,-527.51 1000.5,-537.51 1007.5,-537.51"/>
</g>
<!-- Bartlett\\Sarif\\Converter\\Source\\AbstractSource&#45;&gt;Bartlett\\Sarif\\Contract\\SourceInterface -->
<g id="edge3" class="edge">
<title>Bartlett\\Sarif\\Converter\\Source\\AbstractSource&#45;&gt;Bartlett\\Sarif\\Contract\\SourceInterface</title>
<path fill="none" stroke="black" stroke-dasharray="5,2" d="M1004,-363.3C1004,-300.86 1004,-215.73 1004,-157.69"/>
<polygon fill="none" stroke="black" points="1007.5,-157.54 1004,-147.54 1000.5,-157.54 1007.5,-157.54"/>
</g>
<!-- Bartlett\\Sarif\\Converter\\Normalizer\\EcsNormalizer -->
<g id="node8" class="node">
<title>Bartlett\\Sarif\\Converter\\Normalizer\\EcsNormalizer</title>
<polygon fill="#fefece" stroke="transparent" points="1540,-822.5 1470,-822.5 1470,-786.5 1540,-786.5 1540,-822.5"/>
<polygon fill="#eeeeee" stroke="transparent" points="1470,-799.5 1470,-821.5 1540,-821.5 1540,-799.5 1470,-799.5"/>
<polygon fill="none" stroke="black" points="1470,-799.5 1470,-821.5 1540,-821.5 1540,-799.5 1470,-799.5"/>
<text text-anchor="start" x="1473" y="-805.1" font-family="Verdana" font-weight="bold" font-size="8.00">EcsNormalizer</text>
<polygon fill="none" stroke="black" points="1470,-793.5 1470,-799.5 1540,-799.5 1540,-793.5 1470,-793.5"/>
<polygon fill="none" stroke="black" points="1470,-787.5 1470,-793.5 1540,-793.5 1540,-787.5 1470,-787.5"/>
</g>
<!-- Bartlett\\Sarif\\Converter\\Normalizer\\AbstractNormalizer -->
<g id="node9" class="node">
<title>Bartlett\\Sarif\\Converter\\Normalizer\\AbstractNormalizer</title>
<polygon fill="#fefece" stroke="transparent" points="1657.5,-517.5 1352.5,-517.5 1352.5,-373.5 1657.5,-373.5 1657.5,-517.5"/>
<polygon fill="#eeeeee" stroke="transparent" points="1353,-495.5 1353,-517.5 1658,-517.5 1658,-495.5 1353,-495.5"/>
<polygon fill="none" stroke="black" points="1353,-495.5 1353,-517.5 1658,-517.5 1658,-495.5 1353,-495.5"/>
<text text-anchor="start" x="1481.5" y="-509.1" font-family="Verdana" font-weight="bold" font-size="8.00">«abstract»</text>
<text text-anchor="start" x="1462" y="-501.1" font-family="Verdana" font-weight="bold" font-size="8.00">AbstractNormalizer</text>
<polygon fill="none" stroke="black" points="1353,-424.5 1353,-495.5 1658,-495.5 1658,-424.5 1353,-424.5"/>
<text text-anchor="start" x="1358" y="-484.1" font-family="Verdana" font-size="8.00">+ «static» FORMAT_SARIF : string = &quot;sarif&quot; {readOnly}</text>
<text text-anchor="start" x="1358" y="-471.1" font-family="Verdana" font-size="8.00">+ «static» FORMAT_JSON : string = &quot;json&quot; {readOnly}</text>
<text text-anchor="start" x="1358" y="-458.1" font-family="Verdana" font-size="8.00">+ «static» FORMAT_XML : string = &quot;xml&quot; {readOnly}</text>
<text text-anchor="start" x="1358" y="-445.1" font-family="Verdana" font-size="8.00">+ «static» FORMAT_CHECKSTYLE : string = &quot;checkstyle&quot; {readOnly}</text>
<text text-anchor="start" x="1358" y="-432.1" font-family="Verdana" font-size="8.00">+ «static» FORMAT_INTERNAL : string = &quot;internal&quot; {readOnly}</text>
<polygon fill="none" stroke="black" points="1353,-418.5 1353,-424.5 1658,-424.5 1658,-418.5 1353,-418.5"/>
<polygon fill="none" stroke="black" points="1353,-373.5 1353,-418.5 1658,-418.5 1658,-373.5 1353,-373.5"/>
<text text-anchor="start" x="1358" y="-407.1" font-family="Verdana" font-size="8.00">+ getSupportedFormats() : array</text>
<text text-anchor="start" x="1358" y="-394.1" font-family="Verdana" font-size="8.00">+ normalize(data, format : string, context : array) : ?ArrayObject</text>
<text text-anchor="start" x="1358" y="-381.1" font-family="Verdana" font-size="8.00"># fromInternal(data : mixed, context : array, mapping : array = []) : array</text>
</g>
<!-- Bartlett\\Sarif\\Converter\\Normalizer\\EcsNormalizer&#45;&gt;Bartlett\\Sarif\\Converter\\Normalizer\\AbstractNormalizer -->
<g id="edge6" class="edge">
<title>Bartlett\\Sarif\\Converter\\Normalizer\\EcsNormalizer&#45;&gt;Bartlett\\Sarif\\Converter\\Normalizer\\AbstractNormalizer</title>
<path fill="none" stroke="black" d="M1505,-786.28C1505,-740.37 1505,-612.76 1505,-527.66"/>
<polygon fill="none" stroke="black" points="1508.5,-527.51 1505,-517.51 1501.5,-527.51 1508.5,-527.51"/>
</g>
<!-- Bartlett\\Sarif\\Converter\\Normalizer\\AbstractNormalizer&#45;&gt;Bartlett\\Sarif\\Contract\\NormalizerInterface -->
<g id="edge5" class="edge">
<title>Bartlett\\Sarif\\Converter\\Normalizer\\AbstractNormalizer&#45;&gt;Bartlett\\Sarif\\Contract\\NormalizerInterface</title>
<path fill="none" stroke="black" stroke-dasharray="5,2" d="M1474.24,-373.27C1448.3,-313.2 1411.31,-227.54 1385.02,-166.66"/>
<polygon fill="none" stroke="black" points="1388.08,-164.9 1380.9,-157.11 1381.65,-167.68 1388.08,-164.9"/>
</g>
</g>
</svg>
