<?xml version="1.0" encoding="UTF-8" standalone="no"?>
<!DOCTYPE svg PUBLIC "-//W3C//DTD SVG 1.1//EN"
 "http://www.w3.org/Graphics/SVG/1.1/DTD/svg11.dtd">
<!-- Generated by graphviz version 2.43.0 (0)
 -->
<!-- Title: %3 Pages: 1 -->
<svg width="1638pt" height="852pt"
 viewBox="0.00 0.00 1638.00 852.00" xmlns="http://www.w3.org/2000/svg" xmlns:xlink="http://www.w3.org/1999/xlink">
<g id="graph0" class="graph" transform="scale(1 1) rotate(0) translate(4 848)">
<title>%3</title>
<g id="clust1" class="cluster">
<title>cluster_0</title>
<polygon fill="BurlyWood" stroke="black" points="8,-206 8,-813.5 664,-813.5 664,-206 8,-206"/>
<text text-anchor="middle" x="336" y="-798.3" font-family="Times,serif" font-size="14.00">Bartlett\Sarif\Converter</text>
</g>
<g id="clust2" class="cluster">
<title>cluster_1</title>
<polygon fill="LightSkyBlue" stroke="black" points="256,-8 256,-198 1374,-198 1374,-8 256,-8"/>
<text text-anchor="middle" x="815" y="-182.8" font-family="Times,serif" font-size="14.00">Bartlett\Sarif\Contract</text>
</g>
<g id="clust3" class="cluster">
<title>cluster_2</title>
<polygon fill="Bisque" stroke="black" points="672,-355.5 672,-813.5 1014,-813.5 1014,-355.5 672,-355.5"/>
<text text-anchor="middle" x="843" y="-798.3" font-family="Times,serif" font-size="14.00">Bartlett\Sarif\Converter\Source</text>
</g>
<g id="clust4" class="cluster">
<title>cluster_3</title>
<polygon fill="Bisque" stroke="black" points="1022,-365.5 1022,-836 1622,-836 1622,-365.5 1022,-365.5"/>
<text text-anchor="middle" x="1322" y="-820.8" font-family="Times,serif" font-size="14.00">Bartlett\Sarif\Converter\Normalizer</text>
</g>
<!-- Bartlett\\Sarif\\Converter\\RectorConverter -->
<g id="node1" class="node">
<title>Bartlett\\Sarif\\Converter\\RectorConverter</title>
<polygon fill="#fefece" stroke="transparent" points="410.5,-782.5 261.5,-782.5 261.5,-735.5 410.5,-735.5 410.5,-782.5"/>
<polygon fill="#eeeeee" stroke="transparent" points="262,-760 262,-782 411,-782 411,-760 262,-760"/>
<polygon fill="none" stroke="black" points="262,-760 262,-782 411,-782 411,-760 262,-760"/>
<text text-anchor="start" x="300" y="-765.6" font-family="Verdana" font-weight="bold" font-size="8.00">RectorConverter</text>
<polygon fill="none" stroke="black" points="262,-754 262,-760 411,-760 411,-754 262,-754"/>
<polygon fill="none" stroke="black" points="262,-735 262,-754 411,-754 411,-735 262,-735"/>
<text text-anchor="start" x="267" y="-742.6" font-family="Verdana" font-size="8.00">+ configure(options : array) : void</text>
</g>
<!-- Bartlett\\Sarif\\Converter\\AbstractConverter -->
<g id="node2" class="node">
<title>Bartlett\\Sarif\\Converter\\AbstractConverter</title>
<polygon fill="#fefece" stroke="transparent" points="655.5,-677 16.5,-677 16.5,-214 655.5,-214 655.5,-677"/>
<polygon fill="#eeeeee" stroke="transparent" points="17,-654.5 17,-676.5 656,-676.5 656,-654.5 17,-654.5"/>
<polygon fill="none" stroke="black" points="17,-654.5 17,-676.5 656,-676.5 656,-654.5 17,-654.5"/>
<text text-anchor="start" x="312.5" y="-668.1" font-family="Verdana" font-weight="bold" font-size="8.00">«abstract»</text>
<text text-anchor="start" x="295.5" y="-660.1" font-family="Verdana" font-weight="bold" font-size="8.00">AbstractConverter</text>
<polygon fill="none" stroke="black" points="17,-440.5 17,-654.5 656,-654.5 656,-440.5 17,-440.5"/>
<text text-anchor="start" x="22" y="-643.1" font-family="Verdana" font-size="8.00"># toolName</text>
<text text-anchor="start" x="22" y="-630.1" font-family="Verdana" font-size="8.00"># toolFullName</text>
<text text-anchor="start" x="22" y="-617.1" font-family="Verdana" font-size="8.00"># toolShortDescription</text>
<text text-anchor="start" x="22" y="-604.1" font-family="Verdana" font-size="8.00"># toolFullDescription</text>
<text text-anchor="start" x="22" y="-591.1" font-family="Verdana" font-size="8.00"># toolInformationUri</text>
<text text-anchor="start" x="22" y="-578.1" font-family="Verdana" font-size="8.00"># toolComposerPackage</text>
<text text-anchor="start" x="22" y="-565.1" font-family="Verdana" font-size="8.00"># toolSemanticVersion</text>
<text text-anchor="start" x="22" y="-552.1" font-family="Verdana" font-size="8.00"># converterComposerPackage</text>
<text text-anchor="start" x="22" y="-539.1" font-family="Verdana" font-size="8.00"># results : mixed = []</text>
<text text-anchor="start" x="22" y="-526.1" font-family="Verdana" font-size="8.00"># errors : mixed = []</text>
<text text-anchor="start" x="22" y="-513.1" font-family="Verdana" font-size="8.00"># serializer</text>
<text text-anchor="start" x="22" y="-500.1" font-family="Verdana" font-size="8.00"># startTime</text>
<text text-anchor="start" x="22" y="-487.1" font-family="Verdana" font-size="8.00"># endTime</text>
<text text-anchor="start" x="22" y="-474.1" font-family="Verdana" font-size="8.00"># includeCodeSnippets</text>
<text text-anchor="start" x="22" y="-461.1" font-family="Verdana" font-size="8.00"># includeContextRegion</text>
<text text-anchor="start" x="22" y="-448.1" font-family="Verdana" font-size="8.00"># defaultResultLevelIfEmpty</text>
<polygon fill="none" stroke="black" points="17,-213.5 17,-440.5 656,-440.5 656,-213.5 17,-213.5"/>
<text text-anchor="start" x="22" y="-429.1" font-family="Verdana" font-size="8.00">+ __construct(options : array = [], factory : Bartlett\Sarif\Factory\SerializerFactory = «unknown»)</text>
<text text-anchor="start" x="22" y="-416.1" font-family="Verdana" font-size="8.00">+ getName() : string</text>
<text text-anchor="start" x="22" y="-403.1" font-family="Verdana" font-size="8.00">+ configure(options : array) : void</text>
<text text-anchor="start" x="22" y="-390.1" font-family="Verdana" font-size="8.00">+ toolDriver() : Bartlett\Sarif\Definition\ToolComponent</text>
<text text-anchor="start" x="22" y="-377.1" font-family="Verdana" font-size="8.00">+ toolExtensions() : array</text>
<text text-anchor="start" x="22" y="-364.1" font-family="Verdana" font-size="8.00">+ rules(defined : iterable) : array</text>
<text text-anchor="start" x="22" y="-351.1" font-family="Verdana" font-size="8.00">+ results(normalized : iterable) : void</text>
<text text-anchor="start" x="22" y="-338.1" font-family="Verdana" font-size="8.00">+ sarifLog(runs : array = [], version : string = &#39;2\.1\.0&#39;) : ?string</text>
<text text-anchor="start" x="22" y="-325.1" font-family="Verdana" font-size="8.00">+ invocations(properties : Bartlett\Sarif\Definition\PropertyBag = «unknown») : array</text>
<text text-anchor="start" x="22" y="-312.1" font-family="Verdana" font-size="8.00">+ automationDetails() : Bartlett\Sarif\Definition\RunAutomationDetails</text>
<text text-anchor="start" x="22" y="-299.1" font-family="Verdana" font-size="8.00">+ run(invocations : iterable, rules : iterable) : Bartlett\Sarif\Definition\Run</text>
<text text-anchor="start" x="22" y="-286.1" font-family="Verdana" font-size="8.00"># getToolVersion(package : string) : string</text>
<text text-anchor="start" x="22" y="-273.1" font-family="Verdana" font-size="8.00"># pathToArtifactLocation(path : string) : string</text>
<text text-anchor="start" x="22" y="-260.1" font-family="Verdana" font-size="8.00"># pathToUri(path : string) : string</text>
<text text-anchor="start" x="22" y="-247.1" font-family="Verdana" font-size="8.00"># getCodeSnippet(filePath : string, lineNumber : int, linesBefore : int, linesAfter : int) : ?string</text>
<text text-anchor="start" x="22" y="-234.1" font-family="Verdana" font-size="8.00"># getSnippetRegion(filePath : string, lineNumber : int, column : int = «unknown», linesBefore : int = 2, linesAfter : int = 2) : Bartlett\Sarif\Definition\Region</text>
<text text-anchor="start" x="22" y="-221.1" font-family="Verdana" font-size="8.00"># getErrors() : Iterator</text>
</g>
<!-- Bartlett\\Sarif\\Converter\\RectorConverter&#45;&gt;Bartlett\\Sarif\\Converter\\AbstractConverter -->
<g id="edge2" class="edge">
<title>Bartlett\\Sarif\\Converter\\RectorConverter&#45;&gt;Bartlett\\Sarif\\Converter\\AbstractConverter</title>
<path fill="none" stroke="black" d="M336,-735.35C336,-723.01 336,-706.36 336,-687.25"/>
<polygon fill="none" stroke="black" points="339.5,-687.04 336,-677.04 332.5,-687.04 339.5,-687.04"/>
</g>
<!-- Bartlett\\Sarif\\Contract\\ConverterInterface -->
<g id="node3" class="node">
<title>Bartlett\\Sarif\\Contract\\ConverterInterface</title>
<polygon fill="#fefece" stroke="transparent" points="668,-167 264,-167 264,-16 668,-16 668,-167"/>
<polygon fill="#eeeeee" stroke="transparent" points="264,-144.5 264,-166.5 668,-166.5 668,-144.5 264,-144.5"/>
<polygon fill="none" stroke="black" points="264,-144.5 264,-166.5 668,-166.5 668,-144.5 264,-144.5"/>
<text text-anchor="start" x="440" y="-158.1" font-family="Verdana" font-weight="bold" font-size="8.00">«interface»</text>
<text text-anchor="start" x="423.5" y="-150.1" font-family="Verdana" font-weight="bold" font-size="8.00">ConverterInterface</text>
<polygon fill="none" stroke="black" points="264,-138.5 264,-144.5 668,-144.5 668,-138.5 264,-138.5"/>
<polygon fill="none" stroke="black" points="264,-15.5 264,-138.5 668,-138.5 668,-15.5 264,-15.5"/>
<text text-anchor="start" x="269" y="-127.1" font-family="Verdana" font-size="8.00">+ «abstract» getName() : string</text>
<text text-anchor="start" x="269" y="-114.1" font-family="Verdana" font-size="8.00">+ «abstract» toolDriver() : Bartlett\Sarif\Definition\ToolComponent</text>
<text text-anchor="start" x="269" y="-101.1" font-family="Verdana" font-size="8.00">+ «abstract» toolExtensions() : array</text>
<text text-anchor="start" x="269" y="-88.1" font-family="Verdana" font-size="8.00">+ «abstract» rules(defined : iterable) : array</text>
<text text-anchor="start" x="269" y="-75.1" font-family="Verdana" font-size="8.00">+ «abstract» results(normalized : iterable) : void</text>
<text text-anchor="start" x="269" y="-62.1" font-family="Verdana" font-size="8.00">+ «abstract» invocations(properties : Bartlett\Sarif\Definition\PropertyBag = «unknown») : array</text>
<text text-anchor="start" x="269" y="-49.1" font-family="Verdana" font-size="8.00">+ «abstract» automationDetails() : Bartlett\Sarif\Definition\RunAutomationDetails</text>
<text text-anchor="start" x="269" y="-36.1" font-family="Verdana" font-size="8.00">+ «abstract» run(invocations : iterable, rules : iterable) : Bartlett\Sarif\Definition\Run</text>
<text text-anchor="start" x="269" y="-23.1" font-family="Verdana" font-size="8.00">+ «abstract» sarifLog(runs : array = [], version : string = &#39;2\.1\.0&#39;) : ?string</text>
</g>
<!-- Bartlett\\Sarif\\Converter\\AbstractConverter&#45;&gt;Bartlett\\Sarif\\Contract\\ConverterInterface -->
<g id="edge1" class="edge">
<title>Bartlett\\Sarif\\Converter\\AbstractConverter&#45;&gt;Bartlett\\Sarif\\Contract\\ConverterInterface</title>
<path fill="none" stroke="black" stroke-dasharray="5,2" d="M421.26,-213.64C426.01,-200.78 430.6,-188.36 434.91,-176.68"/>
<polygon fill="none" stroke="black" points="438.28,-177.65 438.46,-167.06 431.72,-175.23 438.28,-177.65"/>
</g>
<!-- Bartlett\\Sarif\\Contract\\SourceInterface -->
<g id="node4" class="node">
<title>Bartlett\\Sarif\\Contract\\SourceInterface</title>
<polygon fill="#fefece" stroke="transparent" points="1000,-147.5 686,-147.5 686,-35.5 1000,-35.5 1000,-147.5"/>
<polygon fill="#eeeeee" stroke="transparent" points="686,-125.5 686,-147.5 1000,-147.5 1000,-125.5 686,-125.5"/>
<polygon fill="none" stroke="black" points="686,-125.5 686,-147.5 1000,-147.5 1000,-125.5 686,-125.5"/>
<text text-anchor="start" x="817" y="-139.1" font-family="Verdana" font-weight="bold" font-size="8.00">«interface»</text>
<text text-anchor="start" x="807" y="-131.1" font-family="Verdana" font-weight="bold" font-size="8.00">SourceInterface</text>
<polygon fill="none" stroke="black" points="686,-119.5 686,-125.5 1000,-125.5 1000,-119.5 686,-119.5"/>
<polygon fill="none" stroke="black" points="686,-35.5 686,-119.5 1000,-119.5 1000,-35.5 686,-35.5"/>
<text text-anchor="start" x="691" y="-108.1" font-family="Verdana" font-size="8.00">+ «abstract» getName() : string</text>
<text text-anchor="start" x="691" y="-95.1" font-family="Verdana" font-size="8.00">+ «abstract» getFiles() : Iterator</text>
<text text-anchor="start" x="691" y="-82.1" font-family="Verdana" font-size="8.00">+ «abstract» getErrors() : Iterator</text>
<text text-anchor="start" x="691" y="-69.1" font-family="Verdana" font-size="8.00">+ «abstract» getRules() : Iterator</text>
<text text-anchor="start" x="691" y="-56.1" font-family="Verdana" font-size="8.00">+ «abstract» getAttribute(name : string) : Iterator</text>
<text text-anchor="start" x="691" y="-43.1" font-family="Verdana" font-size="8.00">+ «abstract» normalize(data : mixed, format : string, context : array) : bool</text>
</g>
<!-- Bartlett\\Sarif\\Contract\\NormalizerInterface -->
<g id="node5" class="node">
<title>Bartlett\\Sarif\\Contract\\NormalizerInterface</title>
<polygon fill="#fefece" stroke="transparent" points="1366,-157 1018,-157 1018,-26 1366,-26 1366,-157"/>
<polygon fill="#eeeeee" stroke="transparent" points="1018,-134.5 1018,-156.5 1366,-156.5 1366,-134.5 1018,-134.5"/>
<polygon fill="none" stroke="black" points="1018,-134.5 1018,-156.5 1366,-156.5 1366,-134.5 1018,-134.5"/>
<text text-anchor="start" x="1166" y="-148.1" font-family="Verdana" font-weight="bold" font-size="8.00">«interface»</text>
<text text-anchor="start" x="1147" y="-140.1" font-family="Verdana" font-weight="bold" font-size="8.00">NormalizerInterface</text>
<polygon fill="none" stroke="black" points="1018,-63.5 1018,-134.5 1366,-134.5 1366,-63.5 1018,-63.5"/>
<text text-anchor="start" x="1023" y="-123.1" font-family="Verdana" font-size="8.00">+ «static» FORMAT_SARIF : string = &quot;sarif&quot; {readOnly}</text>
<text text-anchor="start" x="1023" y="-110.1" font-family="Verdana" font-size="8.00">+ «static» FORMAT_JSON : string = &quot;json&quot; {readOnly}</text>
<text text-anchor="start" x="1023" y="-97.1" font-family="Verdana" font-size="8.00">+ «static» FORMAT_XML : string = &quot;xml&quot; {readOnly}</text>
<text text-anchor="start" x="1023" y="-84.1" font-family="Verdana" font-size="8.00">+ «static» FORMAT_CHECKSTYLE : string = &quot;checkstyle&quot; {readOnly}</text>
<text text-anchor="start" x="1023" y="-71.1" font-family="Verdana" font-size="8.00">+ «static» FORMAT_INTERNAL : string = &quot;internal&quot; {readOnly}</text>
<polygon fill="none" stroke="black" points="1018,-57.5 1018,-63.5 1366,-63.5 1366,-57.5 1018,-57.5"/>
<polygon fill="none" stroke="black" points="1018,-25.5 1018,-57.5 1366,-57.5 1366,-25.5 1018,-25.5"/>
<text text-anchor="start" x="1023" y="-46.1" font-family="Verdana" font-size="8.00">+ «abstract» getSupportedFormats() : array</text>
<text text-anchor="start" x="1023" y="-33.1" font-family="Verdana" font-size="8.00">+ «abstract» normalize(data : mixed, format : string, context : array) : ?ArrayObject</text>
</g>
<!-- Bartlett\\Sarif\\Converter\\Source\\RectorSource -->
<g id="node6" class="node">
<title>Bartlett\\Sarif\\Converter\\Source\\RectorSource</title>
<polygon fill="#fefece" stroke="transparent" points="931,-782.5 755,-782.5 755,-735.5 931,-735.5 931,-782.5"/>
<polygon fill="#eeeeee" stroke="transparent" points="755,-760 755,-782 931,-782 931,-760 755,-760"/>
<polygon fill="none" stroke="black" points="755,-760 755,-782 931,-782 931,-760 755,-760"/>
<text text-anchor="start" x="813" y="-765.6" font-family="Verdana" font-weight="bold" font-size="8.00">RectorSource</text>
<polygon fill="none" stroke="black" points="755,-754 755,-760 931,-760 931,-754 755,-754"/>
<polygon fill="none" stroke="black" points="755,-735 755,-754 931,-754 931,-735 755,-735"/>
<text text-anchor="start" x="760" y="-742.6" font-family="Verdana" font-size="8.00">+ __construct(normalizers : iterable = [])</text>
</g>
<!-- Bartlett\\Sarif\\Converter\\Source\\AbstractSource -->
<g id="node7" class="node">
<title>Bartlett\\Sarif\\Converter\\Source\\AbstractSource</title>
<polygon fill="#fefece" stroke="transparent" points="1006,-527.5 680,-527.5 680,-363.5 1006,-363.5 1006,-527.5"/>
<polygon fill="#eeeeee" stroke="transparent" points="680,-505.5 680,-527.5 1006,-527.5 1006,-505.5 680,-505.5"/>
<polygon fill="none" stroke="black" points="680,-505.5 680,-527.5 1006,-527.5 1006,-505.5 680,-505.5"/>
<text text-anchor="start" x="819" y="-519.1" font-family="Verdana" font-weight="bold" font-size="8.00">«abstract»</text>
<text text-anchor="start" x="808.5" y="-511.1" font-family="Verdana" font-weight="bold" font-size="8.00">AbstractSource</text>
<polygon fill="none" stroke="black" points="680,-473.5 680,-505.5 1006,-505.5 1006,-473.5 680,-473.5"/>
<text text-anchor="start" x="685" y="-494.1" font-family="Verdana" font-size="8.00">– normalizers : mixed</text>
<text text-anchor="start" x="685" y="-481.1" font-family="Verdana" font-size="8.00">– normalized</text>
<polygon fill="none" stroke="black" points="680,-363.5 680,-473.5 1006,-473.5 1006,-363.5 680,-363.5"/>
<text text-anchor="start" x="685" y="-462.1" font-family="Verdana" font-size="8.00">+ __construct(normalizers : iterable = [])</text>
<text text-anchor="start" x="685" y="-449.1" font-family="Verdana" font-size="8.00">+ getName() : string</text>
<text text-anchor="start" x="685" y="-436.1" font-family="Verdana" font-size="8.00">+ getFiles() : Iterator</text>
<text text-anchor="start" x="685" y="-423.1" font-family="Verdana" font-size="8.00">+ getErrors() : Iterator</text>
<text text-anchor="start" x="685" y="-410.1" font-family="Verdana" font-size="8.00">+ getRules() : Iterator</text>
<text text-anchor="start" x="685" y="-397.1" font-family="Verdana" font-size="8.00">+ getAttribute(name : string) : Iterator</text>
<text text-anchor="start" x="685" y="-384.1" font-family="Verdana" font-size="8.00">+ normalize(data, format : string, context : array) : bool</text>
<text text-anchor="start" x="685" y="-371.1" font-family="Verdana" font-size="8.00"># getNormalizer(format : string) : ?Bartlett\Sarif\Contract\NormalizerInterface</text>
</g>
<!-- Bartlett\\Sarif\\Converter\\Source\\RectorSource&#45;&gt;Bartlett\\Sarif\\Converter\\Source\\AbstractSource -->
<g id="edge4" class="edge">
<title>Bartlett\\Sarif\\Converter\\Source\\RectorSource&#45;&gt;Bartlett\\Sarif\\Converter\\Source\\AbstractSource</title>
<path fill="none" stroke="black" d="M843,-735.35C843,-694.46 843,-606.26 843,-538.01"/>
<polygon fill="none" stroke="black" points="846.5,-537.67 843,-527.67 839.5,-537.67 846.5,-537.67"/>
</g>
<!-- Bartlett\\Sarif\\Converter\\Source\\AbstractSource&#45;&gt;Bartlett\\Sarif\\Contract\\SourceInterface -->
<g id="edge3" class="edge">
<title>Bartlett\\Sarif\\Converter\\Source\\AbstractSource&#45;&gt;Bartlett\\Sarif\\Contract\\SourceInterface</title>
<path fill="none" stroke="black" stroke-dasharray="5,2" d="M843,-363.3C843,-300.86 843,-215.73 843,-157.69"/>
<polygon fill="none" stroke="black" points="846.5,-157.54 843,-147.54 839.5,-157.54 846.5,-157.54"/>
</g>
<!-- Bartlett\\Sarif\\Converter\\Normalizer\\RectorNormalizer -->
<g id="node8" class="node">
<title>Bartlett\\Sarif\\Converter\\Normalizer\\RectorNormalizer</title>
<polygon fill="#fefece" stroke="transparent" points="1613.5,-805 1030.5,-805 1030.5,-713 1613.5,-713 1613.5,-805"/>
<polygon fill="#eeeeee" stroke="transparent" points="1031,-783 1031,-805 1614,-805 1614,-783 1031,-783"/>
<polygon fill="none" stroke="black" points="1031,-783 1031,-805 1614,-805 1614,-783 1031,-783"/>
<text text-anchor="start" x="1283.5" y="-788.6" font-family="Verdana" font-weight="bold" font-size="8.00">RectorNormalizer</text>
<polygon fill="none" stroke="black" points="1031,-764 1031,-783 1614,-783 1614,-764 1031,-764"/>
<text text-anchor="start" x="1036" y="-771.6" font-family="Verdana" font-size="8.00">+ «static» URI_PATTERN : string = &quot;https\:\/\/github\.com\/rectorphp\/rector\/blob\/main\/docs\/rector_rules_overview\.md\#\%s&quot; {readOnly}</text>
<polygon fill="none" stroke="black" points="1031,-758 1031,-764 1614,-764 1614,-758 1031,-758"/>
<polygon fill="none" stroke="black" points="1031,-713 1031,-758 1614,-758 1614,-713 1031,-713"/>
<text text-anchor="start" x="1036" y="-746.6" font-family="Verdana" font-size="8.00">+ normalize(data, format : string, context : array) : ?ArrayObject</text>
<text text-anchor="start" x="1036" y="-733.6" font-family="Verdana" font-size="8.00"># fromInternal(data, context : array, mapping : array = []) : array</text>
<text text-anchor="start" x="1036" y="-720.6" font-family="Verdana" font-size="8.00">– resolveFromClassName(className : string) : ?Symplify\RuleDocGenerator\ValueObject\RuleDefinition</text>
</g>
<!-- Bartlett\\Sarif\\Converter\\Normalizer\\AbstractNormalizer -->
<g id="node9" class="node">
<title>Bartlett\\Sarif\\Converter\\Normalizer\\AbstractNormalizer</title>
<polygon fill="#fefece" stroke="transparent" points="1409.5,-517.5 1104.5,-517.5 1104.5,-373.5 1409.5,-373.5 1409.5,-517.5"/>
<polygon fill="#eeeeee" stroke="transparent" points="1105,-495.5 1105,-517.5 1410,-517.5 1410,-495.5 1105,-495.5"/>
<polygon fill="none" stroke="black" points="1105,-495.5 1105,-517.5 1410,-517.5 1410,-495.5 1105,-495.5"/>
<text text-anchor="start" x="1233.5" y="-509.1" font-family="Verdana" font-weight="bold" font-size="8.00">«abstract»</text>
<text text-anchor="start" x="1214" y="-501.1" font-family="Verdana" font-weight="bold" font-size="8.00">AbstractNormalizer</text>
<polygon fill="none" stroke="black" points="1105,-424.5 1105,-495.5 1410,-495.5 1410,-424.5 1105,-424.5"/>
<text text-anchor="start" x="1110" y="-484.1" font-family="Verdana" font-size="8.00">+ «static» FORMAT_SARIF : string = &quot;sarif&quot; {readOnly}</text>
<text text-anchor="start" x="1110" y="-471.1" font-family="Verdana" font-size="8.00">+ «static» FORMAT_JSON : string = &quot;json&quot; {readOnly}</text>
<text text-anchor="start" x="1110" y="-458.1" font-family="Verdana" font-size="8.00">+ «static» FORMAT_XML : string = &quot;xml&quot; {readOnly}</text>
<text text-anchor="start" x="1110" y="-445.1" font-family="Verdana" font-size="8.00">+ «static» FORMAT_CHECKSTYLE : string = &quot;checkstyle&quot; {readOnly}</text>
<text text-anchor="start" x="1110" y="-432.1" font-family="Verdana" font-size="8.00">+ «static» FORMAT_INTERNAL : string = &quot;internal&quot; {readOnly}</text>
<polygon fill="none" stroke="black" points="1105,-418.5 1105,-424.5 1410,-424.5 1410,-418.5 1105,-418.5"/>
<polygon fill="none" stroke="black" points="1105,-373.5 1105,-418.5 1410,-418.5 1410,-373.5 1105,-373.5"/>
<text text-anchor="start" x="1110" y="-407.1" font-family="Verdana" font-size="8.00">+ getSupportedFormats() : array</text>
<text text-anchor="start" x="1110" y="-394.1" font-family="Verdana" font-size="8.00">+ normalize(data, format : string, context : array) : ?ArrayObject</text>
<text text-anchor="start" x="1110" y="-381.1" font-family="Verdana" font-size="8.00"># fromInternal(data : mixed, context : array, mapping : array = []) : array</text>
</g>
<!-- Bartlett\\Sarif\\Converter\\Normalizer\\RectorNormalizer&#45;&gt;Bartlett\\Sarif\\Converter\\Normalizer\\AbstractNormalizer -->
<g id="edge6" class="edge">
<title>Bartlett\\Sarif\\Converter\\Normalizer\\RectorNormalizer&#45;&gt;Bartlett\\Sarif\\Converter\\Normalizer\\AbstractNormalizer</title>
<path fill="none" stroke="black" d="M1312.55,-712.71C1302.45,-664.29 1286.22,-586.55 1273.91,-527.55"/>
<polygon fill="none" stroke="black" points="1277.29,-526.58 1271.82,-517.5 1270.43,-528.01 1277.29,-526.58"/>
</g>
<!-- Bartlett\\Sarif\\Converter\\Normalizer\\AbstractNormalizer&#45;&gt;Bartlett\\Sarif\\Contract\\NormalizerInterface -->
<g id="edge5" class="edge">
<title>Bartlett\\Sarif\\Converter\\Normalizer\\AbstractNormalizer&#45;&gt;Bartlett\\Sarif\\Contract\\NormalizerInterface</title>
<path fill="none" stroke="black" stroke-dasharray="5,2" d="M1243.85,-373.27C1232.78,-313.32 1217,-227.89 1205.76,-167.03"/>
<polygon fill="none" stroke="black" points="1209.19,-166.31 1203.93,-157.11 1202.3,-167.58 1209.19,-166.31"/>
</g>
</g>
</svg>
