<?xml version="1.0" encoding="UTF-8" standalone="no"?>
<!DOCTYPE svg PUBLIC "-//W3C//DTD SVG 1.1//EN"
 "http://www.w3.org/Graphics/SVG/1.1/DTD/svg11.dtd">
<!-- Generated by graphviz version 2.43.0 (0)
 -->
<!-- Title: %3 Pages: 1 -->
<svg width="1682pt" height="930pt"
 viewBox="0.00 0.00 1682.00 930.00" xmlns="http://www.w3.org/2000/svg" xmlns:xlink="http://www.w3.org/1999/xlink">
<g id="graph0" class="graph" transform="scale(1 1) rotate(0) translate(4 926)">
<title>%3</title>
<g id="clust1" class="cluster">
<title>cluster_0</title>
<polygon fill="BurlyWood" stroke="black" points="8,-206 8,-846 664,-846 664,-206 8,-206"/>
<text text-anchor="middle" x="336" y="-830.8" font-family="Times,serif" font-size="14.00">Bartlett\Sarif\Converter</text>
</g>
<g id="clust2" class="cluster">
<title>cluster_1</title>
<polygon fill="LightSkyBlue" stroke="black" points="417,-8 417,-198 1535,-198 1535,-8 417,-8"/>
<text text-anchor="middle" x="976" y="-182.8" font-family="Times,serif" font-size="14.00">Bartlett\Sarif\Contract</text>
</g>
<g id="clust3" class="cluster">
<title>cluster_2</title>
<polygon fill="Bisque" stroke="black" points="672,-349 672,-914 1336,-914 1336,-349 672,-349"/>
<text text-anchor="middle" x="1004" y="-898.8" font-family="Times,serif" font-size="14.00">Bartlett\Sarif\Converter\Source</text>
</g>
<g id="clust4" class="cluster">
<title>cluster_3</title>
<polygon fill="Bisque" stroke="black" points="1344,-359 1344,-840.5 1666,-840.5 1666,-359 1344,-359"/>
<text text-anchor="middle" x="1505" y="-825.3" font-family="Times,serif" font-size="14.00">Bartlett\Sarif\Converter\Normalizer</text>
</g>
<!-- Bartlett\\Sarif\\Converter\\EcsConverter -->
<g id="node1" class="node">
<title>Bartlett\\Sarif\\Converter\\EcsConverter</title>
<polygon fill="#fefece" stroke="transparent" points="419,-815 253,-815 253,-768 419,-768 419,-815"/>
<polygon fill="#eeeeee" stroke="transparent" points="253,-792.5 253,-814.5 419,-814.5 419,-792.5 253,-792.5"/>
<polygon fill="none" stroke="black" points="253,-792.5 253,-814.5 419,-814.5 419,-792.5 253,-792.5"/>
<text text-anchor="start" x="306.5" y="-798.1" font-family="Verdana" font-weight="bold" font-size="8.00">EcsConverter</text>
<polygon fill="none" stroke="black" points="253,-786.5 253,-792.5 419,-792.5 419,-786.5 253,-786.5"/>
<polygon fill="none" stroke="black" points="253,-767.5 253,-786.5 419,-786.5 419,-767.5 253,-767.5"/>
<text text-anchor="start" x="258" y="-775.1" font-family="Verdana" font-size="8.00">+ configure(options : array = []) : void</text>
</g>
<!-- Bartlett\\Sarif\\Converter\\AbstractConverter -->
<g id="node2" class="node">
<title>Bartlett\\Sarif\\Converter\\AbstractConverter</title>
<polygon fill="#fefece" stroke="transparent" points="655.5,-664 16.5,-664 16.5,-214 655.5,-214 655.5,-664"/>
<polygon fill="#eeeeee" stroke="transparent" points="17,-642 17,-664 656,-664 656,-642 17,-642"/>
<polygon fill="none" stroke="black" points="17,-642 17,-664 656,-664 656,-642 17,-642"/>
<text text-anchor="start" x="312.5" y="-655.6" font-family="Verdana" font-weight="bold" font-size="8.00">«abstract»</text>
<text text-anchor="start" x="295.5" y="-647.6" font-family="Verdana" font-weight="bold" font-size="8.00">AbstractConverter</text>
<polygon fill="none" stroke="black" points="17,-441 17,-642 656,-642 656,-441 17,-441"/>
<text text-anchor="start" x="22" y="-630.6" font-family="Verdana" font-size="8.00"># toolName</text>
<text text-anchor="start" x="22" y="-617.6" font-family="Verdana" font-size="8.00"># toolFullName</text>
<text text-anchor="start" x="22" y="-604.6" font-family="Verdana" font-size="8.00"># toolShortDescription</text>
<text text-anchor="start" x="22" y="-591.6" font-family="Verdana" font-size="8.00"># toolFullDescription</text>
<text text-anchor="start" x="22" y="-578.6" font-family="Verdana" font-size="8.00"># toolInformationUri</text>
<text text-anchor="start" x="22" y="-565.6" font-family="Verdana" font-size="8.00"># toolComposerPackage</text>
<text text-anchor="start" x="22" y="-552.6" font-family="Verdana" font-size="8.00"># toolSemanticVersion</text>
<text text-anchor="start" x="22" y="-539.6" font-family="Verdana" font-size="8.00"># converterComposerPackage</text>
<text text-anchor="start" x="22" y="-526.6" font-family="Verdana" font-size="8.00"># results : mixed = []</text>
<text text-anchor="start" x="22" y="-513.6" font-family="Verdana" font-size="8.00"># errors : mixed = []</text>
<text text-anchor="start" x="22" y="-500.6" font-family="Verdana" font-size="8.00"># serializer</text>
<text text-anchor="start" x="22" y="-487.6" font-family="Verdana" font-size="8.00"># startTime</text>
<text text-anchor="start" x="22" y="-474.6" font-family="Verdana" font-size="8.00"># endTime</text>
<text text-anchor="start" x="22" y="-461.6" font-family="Verdana" font-size="8.00"># includeCodeSnippets</text>
<text text-anchor="start" x="22" y="-448.6" font-family="Verdana" font-size="8.00"># includeContextRegion</text>
<polygon fill="none" stroke="black" points="17,-214 17,-441 656,-441 656,-214 17,-214"/>
<text text-anchor="start" x="22" y="-429.6" font-family="Verdana" font-size="8.00">+ __construct(options : array = [], factory : Bartlett\Sarif\Factory\SerializerFactory = «unknown»)</text>
<text text-anchor="start" x="22" y="-416.6" font-family="Verdana" font-size="8.00">+ getName() : string</text>
<text text-anchor="start" x="22" y="-403.6" font-family="Verdana" font-size="8.00">+ configure(options : array) : void</text>
<text text-anchor="start" x="22" y="-390.6" font-family="Verdana" font-size="8.00">+ toolDriver() : Bartlett\Sarif\Definition\ToolComponent</text>
<text text-anchor="start" x="22" y="-377.6" font-family="Verdana" font-size="8.00">+ toolExtensions() : array</text>
<text text-anchor="start" x="22" y="-364.6" font-family="Verdana" font-size="8.00">+ rules(defined : iterable) : array</text>
<text text-anchor="start" x="22" y="-351.6" font-family="Verdana" font-size="8.00">+ results(normalized : iterable) : void</text>
<text text-anchor="start" x="22" y="-338.6" font-family="Verdana" font-size="8.00">+ sarifLog(runs : array = [], version : string = &#39;2\.1\.0&#39;) : ?string</text>
<text text-anchor="start" x="22" y="-325.6" font-family="Verdana" font-size="8.00">+ invocations(properties : Bartlett\Sarif\Definition\PropertyBag = «unknown») : array</text>
<text text-anchor="start" x="22" y="-312.6" font-family="Verdana" font-size="8.00">+ automationDetails() : Bartlett\Sarif\Definition\RunAutomationDetails</text>
<text text-anchor="start" x="22" y="-299.6" font-family="Verdana" font-size="8.00">+ run(invocations : iterable, rules : iterable) : Bartlett\Sarif\Definition\Run</text>
<text text-anchor="start" x="22" y="-286.6" font-family="Verdana" font-size="8.00"># getToolVersion(package : string) : string</text>
<text text-anchor="start" x="22" y="-273.6" font-family="Verdana" font-size="8.00"># pathToArtifactLocation(path : string) : string</text>
<text text-anchor="start" x="22" y="-260.6" font-family="Verdana" font-size="8.00"># pathToUri(path : string) : string</text>
<text text-anchor="start" x="22" y="-247.6" font-family="Verdana" font-size="8.00"># getCodeSnippet(filePath : string, lineNumber : int, linesBefore : int, linesAfter : int) : ?string</text>
<text text-anchor="start" x="22" y="-234.6" font-family="Verdana" font-size="8.00"># getSnippetRegion(filePath : string, lineNumber : int, column : int = «unknown», linesBefore : int = 2, linesAfter : int = 2) : Bartlett\Sarif\Definition\Region</text>
<text text-anchor="start" x="22" y="-221.6" font-family="Verdana" font-size="8.00"># getErrors() : Iterator</text>
</g>
<!-- Bartlett\\Sarif\\Converter\\EcsConverter&#45;&gt;Bartlett\\Sarif\\Converter\\AbstractConverter -->
<g id="edge2" class="edge">
<title>Bartlett\\Sarif\\Converter\\EcsConverter&#45;&gt;Bartlett\\Sarif\\Converter\\AbstractConverter</title>
<path fill="none" stroke="black" d="M336,-767.77C336,-746.61 336,-712.63 336,-674.41"/>
<polygon fill="none" stroke="black" points="339.5,-674.06 336,-664.06 332.5,-674.06 339.5,-674.06"/>
</g>
<!-- Bartlett\\Sarif\\Contract\\ConverterInterface -->
<g id="node3" class="node">
<title>Bartlett\\Sarif\\Contract\\ConverterInterface</title>
<polygon fill="#fefece" stroke="transparent" points="829,-167 425,-167 425,-16 829,-16 829,-167"/>
<polygon fill="#eeeeee" stroke="transparent" points="425,-144.5 425,-166.5 829,-166.5 829,-144.5 425,-144.5"/>
<polygon fill="none" stroke="black" points="425,-144.5 425,-166.5 829,-166.5 829,-144.5 425,-144.5"/>
<text text-anchor="start" x="601" y="-158.1" font-family="Verdana" font-weight="bold" font-size="8.00">«interface»</text>
<text text-anchor="start" x="584.5" y="-150.1" font-family="Verdana" font-weight="bold" font-size="8.00">ConverterInterface</text>
<polygon fill="none" stroke="black" points="425,-138.5 425,-144.5 829,-144.5 829,-138.5 425,-138.5"/>
<polygon fill="none" stroke="black" points="425,-15.5 425,-138.5 829,-138.5 829,-15.5 425,-15.5"/>
<text text-anchor="start" x="430" y="-127.1" font-family="Verdana" font-size="8.00">+ «abstract» getName() : string</text>
<text text-anchor="start" x="430" y="-114.1" font-family="Verdana" font-size="8.00">+ «abstract» toolDriver() : Bartlett\Sarif\Definition\ToolComponent</text>
<text text-anchor="start" x="430" y="-101.1" font-family="Verdana" font-size="8.00">+ «abstract» toolExtensions() : array</text>
<text text-anchor="start" x="430" y="-88.1" font-family="Verdana" font-size="8.00">+ «abstract» rules(defined : iterable) : array</text>
<text text-anchor="start" x="430" y="-75.1" font-family="Verdana" font-size="8.00">+ «abstract» results(normalized : iterable) : void</text>
<text text-anchor="start" x="430" y="-62.1" font-family="Verdana" font-size="8.00">+ «abstract» invocations(properties : Bartlett\Sarif\Definition\PropertyBag = «unknown») : array</text>
<text text-anchor="start" x="430" y="-49.1" font-family="Verdana" font-size="8.00">+ «abstract» automationDetails() : Bartlett\Sarif\Definition\RunAutomationDetails</text>
<text text-anchor="start" x="430" y="-36.1" font-family="Verdana" font-size="8.00">+ «abstract» run(invocations : iterable, rules : iterable) : Bartlett\Sarif\Definition\Run</text>
<text text-anchor="start" x="430" y="-23.1" font-family="Verdana" font-size="8.00">+ «abstract» sarifLog(runs : array = [], version : string = &#39;2\.1\.0&#39;) : ?string</text>
</g>
<!-- Bartlett\\Sarif\\Converter\\AbstractConverter&#45;&gt;Bartlett\\Sarif\\Contract\\ConverterInterface -->
<g id="edge1" class="edge">
<title>Bartlett\\Sarif\\Converter\\AbstractConverter&#45;&gt;Bartlett\\Sarif\\Contract\\ConverterInterface</title>
<path fill="none" stroke="black" stroke-dasharray="5,2" d="M524.81,-213.82C536.16,-200.35 547.12,-187.34 557.38,-175.16"/>
<polygon fill="none" stroke="black" points="560.25,-177.18 564.02,-167.28 554.9,-172.67 560.25,-177.18"/>
</g>
<!-- Bartlett\\Sarif\\Contract\\SourceInterface -->
<g id="node4" class="node">
<title>Bartlett\\Sarif\\Contract\\SourceInterface</title>
<polygon fill="#fefece" stroke="transparent" points="1161,-147.5 847,-147.5 847,-35.5 1161,-35.5 1161,-147.5"/>
<polygon fill="#eeeeee" stroke="transparent" points="847,-125.5 847,-147.5 1161,-147.5 1161,-125.5 847,-125.5"/>
<polygon fill="none" stroke="black" points="847,-125.5 847,-147.5 1161,-147.5 1161,-125.5 847,-125.5"/>
<text text-anchor="start" x="978" y="-139.1" font-family="Verdana" font-weight="bold" font-size="8.00">«interface»</text>
<text text-anchor="start" x="968" y="-131.1" font-family="Verdana" font-weight="bold" font-size="8.00">SourceInterface</text>
<polygon fill="none" stroke="black" points="847,-119.5 847,-125.5 1161,-125.5 1161,-119.5 847,-119.5"/>
<polygon fill="none" stroke="black" points="847,-35.5 847,-119.5 1161,-119.5 1161,-35.5 847,-35.5"/>
<text text-anchor="start" x="852" y="-108.1" font-family="Verdana" font-size="8.00">+ «abstract» getName() : string</text>
<text text-anchor="start" x="852" y="-95.1" font-family="Verdana" font-size="8.00">+ «abstract» getFiles() : Iterator</text>
<text text-anchor="start" x="852" y="-82.1" font-family="Verdana" font-size="8.00">+ «abstract» getErrors() : Iterator</text>
<text text-anchor="start" x="852" y="-69.1" font-family="Verdana" font-size="8.00">+ «abstract» getRules() : Iterator</text>
<text text-anchor="start" x="852" y="-56.1" font-family="Verdana" font-size="8.00">+ «abstract» getAttribute(name : string) : Iterator</text>
<text text-anchor="start" x="852" y="-43.1" font-family="Verdana" font-size="8.00">+ «abstract» normalize(data : mixed, format : string, context : array) : bool</text>
</g>
<!-- Bartlett\\Sarif\\Contract\\NormalizerInterface -->
<g id="node5" class="node">
<title>Bartlett\\Sarif\\Contract\\NormalizerInterface</title>
<polygon fill="#fefece" stroke="transparent" points="1527,-157 1179,-157 1179,-26 1527,-26 1527,-157"/>
<polygon fill="#eeeeee" stroke="transparent" points="1179,-134.5 1179,-156.5 1527,-156.5 1527,-134.5 1179,-134.5"/>
<polygon fill="none" stroke="black" points="1179,-134.5 1179,-156.5 1527,-156.5 1527,-134.5 1179,-134.5"/>
<text text-anchor="start" x="1327" y="-148.1" font-family="Verdana" font-weight="bold" font-size="8.00">«interface»</text>
<text text-anchor="start" x="1308" y="-140.1" font-family="Verdana" font-weight="bold" font-size="8.00">NormalizerInterface</text>
<polygon fill="none" stroke="black" points="1179,-63.5 1179,-134.5 1527,-134.5 1527,-63.5 1179,-63.5"/>
<text text-anchor="start" x="1184" y="-123.1" font-family="Verdana" font-size="8.00">+ «static» FORMAT_SARIF : string = &quot;sarif&quot; {readOnly}</text>
<text text-anchor="start" x="1184" y="-110.1" font-family="Verdana" font-size="8.00">+ «static» FORMAT_JSON : string = &quot;json&quot; {readOnly}</text>
<text text-anchor="start" x="1184" y="-97.1" font-family="Verdana" font-size="8.00">+ «static» FORMAT_XML : string = &quot;xml&quot; {readOnly}</text>
<text text-anchor="start" x="1184" y="-84.1" font-family="Verdana" font-size="8.00">+ «static» FORMAT_CHECKSTYLE : string = &quot;checkstyle&quot; {readOnly}</text>
<text text-anchor="start" x="1184" y="-71.1" font-family="Verdana" font-size="8.00">+ «static» FORMAT_INTERNAL : string = &quot;internal&quot; {readOnly}</text>
<polygon fill="none" stroke="black" points="1179,-57.5 1179,-63.5 1527,-63.5 1527,-57.5 1179,-57.5"/>
<polygon fill="none" stroke="black" points="1179,-25.5 1179,-57.5 1527,-57.5 1527,-25.5 1179,-25.5"/>
<text text-anchor="start" x="1184" y="-46.1" font-family="Verdana" font-size="8.00">+ «abstract» getSupportedFormats() : array</text>
<text text-anchor="start" x="1184" y="-33.1" font-family="Verdana" font-size="8.00">+ «abstract» normalize(data : mixed, format : string, context : array) : ?ArrayObject</text>
</g>
<!-- Bartlett\\Sarif\\Converter\\Source\\EcsSource -->
<g id="node6" class="node">
<title>Bartlett\\Sarif\\Converter\\Source\\EcsSource</title>
<polygon fill="#fefece" stroke="transparent" points="1328,-883 680,-883 680,-700 1328,-700 1328,-883"/>
<polygon fill="#eeeeee" stroke="transparent" points="680,-860.5 680,-882.5 1328,-882.5 1328,-860.5 680,-860.5"/>
<polygon fill="none" stroke="black" points="680,-860.5 680,-882.5 1328,-882.5 1328,-860.5 680,-860.5"/>
<text text-anchor="start" x="981" y="-866.1" font-family="Verdana" font-weight="bold" font-size="8.00">EcsSource</text>
<polygon fill="none" stroke="black" points="680,-802.5 680,-860.5 1328,-860.5 1328,-802.5 680,-802.5"/>
<text text-anchor="start" x="685" y="-849.1" font-family="Verdana" font-size="8.00">+ «static» URI_PATTERN_PHPCS : string = &quot;https\:\/\/github\.com\/PHPCSStandards\/PHP_CodeSniffer\/wiki\/Customisable\&#45;Sniff\&#45;Properties\#\%s&quot; {readOnly}</text>
<text text-anchor="start" x="685" y="-836.1" font-family="Verdana" font-size="8.00">+ «static» URI_PATTERN_PHPCS_FIXER : string = &quot;https\:\/\/cs\.symfony\.com\/doc\/rules\/\%s\/\%s\.html&quot; {readOnly}</text>
<text text-anchor="start" x="685" y="-823.1" font-family="Verdana" font-size="8.00">+ «static» URI_PATTERN_SYMPLIFY : string = &quot;https\:\/\/github\.com\/symplify\/coding\&#45;standard\/blob\/main\/docs\/rules_overview\.md\#\%s&quot; {readOnly}</text>
<text text-anchor="start" x="685" y="-810.1" font-family="Verdana" font-size="8.00">+ «static» URI_PATTERN_SLEVOMAT : string = &quot;https\:\/\/github\.com\/slevomat\/coding\&#45;standard\/blob\/master\/doc\/\%s\.md\#\%s\&#45;&quot; {readOnly}</text>
<polygon fill="none" stroke="black" points="680,-796.5 680,-802.5 1328,-802.5 1328,-796.5 680,-796.5"/>
<polygon fill="none" stroke="black" points="680,-699.5 680,-796.5 1328,-796.5 1328,-699.5 680,-699.5"/>
<text text-anchor="start" x="685" y="-785.1" font-family="Verdana" font-size="8.00">+ __construct(normalizers : iterable = [])</text>
<text text-anchor="start" x="685" y="-772.1" font-family="Verdana" font-size="8.00">+ getRules() : Iterator</text>
<text text-anchor="start" x="685" y="-759.1" font-family="Verdana" font-size="8.00">– phpCodeSnifferChecker(nameParts : array) : string</text>
<text text-anchor="start" x="685" y="-746.1" font-family="Verdana" font-size="8.00">– phpCsFixerChecker(nameParts : array) : string</text>
<text text-anchor="start" x="685" y="-733.1" font-family="Verdana" font-size="8.00">– symplifyChecker(nameParts : array) : string</text>
<text text-anchor="start" x="685" y="-720.1" font-family="Verdana" font-size="8.00">– slevomatCodingStandardChecker(nameParts : array) : string</text>
<text text-anchor="start" x="685" y="-707.1" font-family="Verdana" font-size="8.00">– «static» camelCaseToUnderscore(string : string) : string</text>
</g>
<!-- Bartlett\\Sarif\\Converter\\Source\\AbstractSource -->
<g id="node7" class="node">
<title>Bartlett\\Sarif\\Converter\\Source\\AbstractSource</title>
<polygon fill="#fefece" stroke="transparent" points="1167,-521 841,-521 841,-357 1167,-357 1167,-521"/>
<polygon fill="#eeeeee" stroke="transparent" points="841,-499 841,-521 1167,-521 1167,-499 841,-499"/>
<polygon fill="none" stroke="black" points="841,-499 841,-521 1167,-521 1167,-499 841,-499"/>
<text text-anchor="start" x="980" y="-512.6" font-family="Verdana" font-weight="bold" font-size="8.00">«abstract»</text>
<text text-anchor="start" x="969.5" y="-504.6" font-family="Verdana" font-weight="bold" font-size="8.00">AbstractSource</text>
<polygon fill="none" stroke="black" points="841,-467 841,-499 1167,-499 1167,-467 841,-467"/>
<text text-anchor="start" x="846" y="-487.6" font-family="Verdana" font-size="8.00">– normalizers : mixed</text>
<text text-anchor="start" x="846" y="-474.6" font-family="Verdana" font-size="8.00">– normalized</text>
<polygon fill="none" stroke="black" points="841,-357 841,-467 1167,-467 1167,-357 841,-357"/>
<text text-anchor="start" x="846" y="-455.6" font-family="Verdana" font-size="8.00">+ __construct(normalizers : iterable = [])</text>
<text text-anchor="start" x="846" y="-442.6" font-family="Verdana" font-size="8.00">+ getName() : string</text>
<text text-anchor="start" x="846" y="-429.6" font-family="Verdana" font-size="8.00">+ getFiles() : Iterator</text>
<text text-anchor="start" x="846" y="-416.6" font-family="Verdana" font-size="8.00">+ getErrors() : Iterator</text>
<text text-anchor="start" x="846" y="-403.6" font-family="Verdana" font-size="8.00">+ getRules() : Iterator</text>
<text text-anchor="start" x="846" y="-390.6" font-family="Verdana" font-size="8.00">+ getAttribute(name : string) : Iterator</text>
<text text-anchor="start" x="846" y="-377.6" font-family="Verdana" font-size="8.00">+ normalize(data, format : string, context : array) : bool</text>
<text text-anchor="start" x="846" y="-364.6" font-family="Verdana" font-size="8.00"># getNormalizer(format : string) : ?Bartlett\Sarif\Contract\NormalizerInterface</text>
</g>
<!-- Bartlett\\Sarif\\Converter\\Source\\EcsSource&#45;&gt;Bartlett\\Sarif\\Converter\\Source\\AbstractSource -->
<g id="edge4" class="edge">
<title>Bartlett\\Sarif\\Converter\\Source\\EcsSource&#45;&gt;Bartlett\\Sarif\\Converter\\Source\\AbstractSource</title>
<path fill="none" stroke="black" d="M1004,-699.78C1004,-647.96 1004,-583.18 1004,-531.27"/>
<polygon fill="none" stroke="black" points="1007.5,-531.07 1004,-521.07 1000.5,-531.07 1007.5,-531.07"/>
</g>
<!-- Bartlett\\Sarif\\Converter\\Source\\AbstractSource&#45;&gt;Bartlett\\Sarif\\Contract\\SourceInterface -->
<g id="edge3" class="edge">
<title>Bartlett\\Sarif\\Converter\\Source\\AbstractSource&#45;&gt;Bartlett\\Sarif\\Contract\\SourceInterface</title>
<path fill="none" stroke="black" stroke-dasharray="5,2" d="M1004,-357C1004,-296.35 1004,-214.45 1004,-157.93"/>
<polygon fill="none" stroke="black" points="1007.5,-157.68 1004,-147.68 1000.5,-157.68 1007.5,-157.68"/>
</g>
<!-- Bartlett\\Sarif\\Converter\\Normalizer\\EcsNormalizer -->
<g id="node8" class="node">
<title>Bartlett\\Sarif\\Converter\\Normalizer\\EcsNormalizer</title>
<polygon fill="#fefece" stroke="transparent" points="1540,-809.5 1470,-809.5 1470,-773.5 1540,-773.5 1540,-809.5"/>
<polygon fill="#eeeeee" stroke="transparent" points="1470,-786.5 1470,-808.5 1540,-808.5 1540,-786.5 1470,-786.5"/>
<polygon fill="none" stroke="black" points="1470,-786.5 1470,-808.5 1540,-808.5 1540,-786.5 1470,-786.5"/>
<text text-anchor="start" x="1473" y="-792.1" font-family="Verdana" font-weight="bold" font-size="8.00">EcsNormalizer</text>
<polygon fill="none" stroke="black" points="1470,-780.5 1470,-786.5 1540,-786.5 1540,-780.5 1470,-780.5"/>
<polygon fill="none" stroke="black" points="1470,-774.5 1470,-780.5 1540,-780.5 1540,-774.5 1470,-774.5"/>
</g>
<!-- Bartlett\\Sarif\\Converter\\Normalizer\\AbstractNormalizer -->
<g id="node9" class="node">
<title>Bartlett\\Sarif\\Converter\\Normalizer\\AbstractNormalizer</title>
<polygon fill="#fefece" stroke="transparent" points="1657.5,-511 1352.5,-511 1352.5,-367 1657.5,-367 1657.5,-511"/>
<polygon fill="#eeeeee" stroke="transparent" points="1353,-489 1353,-511 1658,-511 1658,-489 1353,-489"/>
<polygon fill="none" stroke="black" points="1353,-489 1353,-511 1658,-511 1658,-489 1353,-489"/>
<text text-anchor="start" x="1481.5" y="-502.6" font-family="Verdana" font-weight="bold" font-size="8.00">«abstract»</text>
<text text-anchor="start" x="1462" y="-494.6" font-family="Verdana" font-weight="bold" font-size="8.00">AbstractNormalizer</text>
<polygon fill="none" stroke="black" points="1353,-418 1353,-489 1658,-489 1658,-418 1353,-418"/>
<text text-anchor="start" x="1358" y="-477.6" font-family="Verdana" font-size="8.00">+ «static» FORMAT_SARIF : string = &quot;sarif&quot; {readOnly}</text>
<text text-anchor="start" x="1358" y="-464.6" font-family="Verdana" font-size="8.00">+ «static» FORMAT_JSON : string = &quot;json&quot; {readOnly}</text>
<text text-anchor="start" x="1358" y="-451.6" font-family="Verdana" font-size="8.00">+ «static» FORMAT_XML : string = &quot;xml&quot; {readOnly}</text>
<text text-anchor="start" x="1358" y="-438.6" font-family="Verdana" font-size="8.00">+ «static» FORMAT_CHECKSTYLE : string = &quot;checkstyle&quot; {readOnly}</text>
<text text-anchor="start" x="1358" y="-425.6" font-family="Verdana" font-size="8.00">+ «static» FORMAT_INTERNAL : string = &quot;internal&quot; {readOnly}</text>
<polygon fill="none" stroke="black" points="1353,-412 1353,-418 1658,-418 1658,-412 1353,-412"/>
<polygon fill="none" stroke="black" points="1353,-367 1353,-412 1658,-412 1658,-367 1353,-367"/>
<text text-anchor="start" x="1358" y="-400.6" font-family="Verdana" font-size="8.00">+ getSupportedFormats() : array</text>
<text text-anchor="start" x="1358" y="-387.6" font-family="Verdana" font-size="8.00">+ normalize(data, format : string, context : array) : ?ArrayObject</text>
<text text-anchor="start" x="1358" y="-374.6" font-family="Verdana" font-size="8.00"># fromInternal(data : mixed, context : array, mapping : array = []) : array</text>
</g>
<!-- Bartlett\\Sarif\\Converter\\Normalizer\\EcsNormalizer&#45;&gt;Bartlett\\Sarif\\Converter\\Normalizer\\AbstractNormalizer -->
<g id="edge6" class="edge">
<title>Bartlett\\Sarif\\Converter\\Normalizer\\EcsNormalizer&#45;&gt;Bartlett\\Sarif\\Converter\\Normalizer\\AbstractNormalizer</title>
<path fill="none" stroke="black" d="M1505,-773.12C1505,-727.97 1505,-604.7 1505,-521.45"/>
<polygon fill="none" stroke="black" points="1508.5,-521.26 1505,-511.26 1501.5,-521.26 1508.5,-521.26"/>
</g>
<!-- Bartlett\\Sarif\\Converter\\Normalizer\\AbstractNormalizer&#45;&gt;Bartlett\\Sarif\\Contract\\NormalizerInterface -->
<g id="edge5" class="edge">
<title>Bartlett\\Sarif\\Converter\\Normalizer\\AbstractNormalizer&#45;&gt;Bartlett\\Sarif\\Contract\\NormalizerInterface</title>
<path fill="none" stroke="black" stroke-dasharray="5,2" d="M1473.69,-366.83C1447.95,-308.33 1411.61,-225.72 1385.54,-166.46"/>
<polygon fill="none" stroke="black" points="1388.68,-164.91 1381.45,-157.16 1382.27,-167.73 1388.68,-164.91"/>
</g>
</g>
</svg>
