<?xml version="1.0" encoding="UTF-8" standalone="no"?>
<!DOCTYPE svg PUBLIC "-//W3C//DTD SVG 1.1//EN"
 "http://www.w3.org/Graphics/SVG/1.1/DTD/svg11.dtd">
<!-- Generated by graphviz version 2.43.0 (0)
 -->
<!-- Title: %3 Pages: 1 -->
<svg width="1171pt" height="673pt"
 viewBox="0.00 0.00 1170.97 673.00" xmlns="http://www.w3.org/2000/svg" xmlns:xlink="http://www.w3.org/1999/xlink">
<g id="graph0" class="graph" transform="scale(1 1) rotate(0) translate(4 669)">
<title>%3</title>
<polygon fill="white" stroke="transparent" points="-4,4 -4,-669 1166.97,-669 1166.97,4 -4,4"/>
<!-- bartlett/sarif&#45;php&#45;converters -->
<g id="node1" class="node">
<title>bartlett/sarif&#45;php&#45;converters</title>
<ellipse fill="lightgrey" stroke="black" stroke-width="2" cx="142.99" cy="-436" rx="142.97" ry="18"/>
<text text-anchor="middle" x="142.99" y="-432.3" font-family="Times,serif" font-size="14.00">bartlett/sarif&#45;php&#45;converters</text>
</g>
<!-- php -->
<g id="node2" class="node">
<title>php</title>
<path fill="#eeeeee" stroke="black" d="M1021.47,-360C1021.47,-360 991.47,-360 991.47,-360 985.47,-360 979.47,-354 979.47,-348 979.47,-348 979.47,-336 979.47,-336 979.47,-330 985.47,-324 991.47,-324 991.47,-324 1021.47,-324 1021.47,-324 1027.47,-324 1033.47,-330 1033.47,-336 1033.47,-336 1033.47,-348 1033.47,-348 1033.47,-354 1027.47,-360 1021.47,-360"/>
<text text-anchor="middle" x="1006.47" y="-338.3" font-family="Times,serif" font-size="14.00" fill="#314b5f">php</text>
</g>
<!-- bartlett/sarif&#45;php&#45;converters&#45;&gt;php -->
<g id="edge1" class="edge">
<title>bartlett/sarif&#45;php&#45;converters&#45;&gt;php</title>
<path fill="none" stroke="#1a2833" d="M177.36,-418.5C222.2,-396.07 305.08,-358.34 380.97,-344 600.98,-302.43 872.42,-326.63 969.15,-337.53"/>
<polygon fill="#1a2833" stroke="#1a2833" points="968.94,-341.03 979.28,-338.7 969.74,-334.08 968.94,-341.03"/>
<text text-anchor="middle" x="559.47" y="-347" font-family="Times,serif" font-size="10.00" fill="#767676">^8.1</text>
</g>
<!-- ext&#45;json -->
<g id="node3" class="node">
<title>ext&#45;json</title>
<path fill="#eeeeee" stroke="black" d="M1030.97,-598C1030.97,-598 981.97,-598 981.97,-598 975.97,-598 969.97,-592 969.97,-586 969.97,-586 969.97,-574 969.97,-574 969.97,-568 975.97,-562 981.97,-562 981.97,-562 1030.97,-562 1030.97,-562 1036.97,-562 1042.97,-568 1042.97,-574 1042.97,-574 1042.97,-586 1042.97,-586 1042.97,-592 1036.97,-598 1030.97,-598"/>
<text text-anchor="middle" x="1006.47" y="-576.3" font-family="Times,serif" font-size="14.00" fill="#314b5f">ext&#45;json</text>
</g>
<!-- bartlett/sarif&#45;php&#45;converters&#45;&gt;ext&#45;json -->
<g id="edge2" class="edge">
<title>bartlett/sarif&#45;php&#45;converters&#45;&gt;ext&#45;json</title>
<path fill="none" stroke="#1a2833" d="M166.78,-454C207.12,-484.47 294.95,-544.78 380.97,-564 592.8,-611.32 855.09,-594.43 959.49,-584.81"/>
<polygon fill="#1a2833" stroke="#1a2833" points="960.05,-588.27 969.68,-583.85 959.39,-581.3 960.05,-588.27"/>
<text text-anchor="middle" x="559.47" y="-598" font-family="Times,serif" font-size="10.00" fill="#767676">*</text>
</g>
<!-- ext&#45;pcre -->
<g id="node4" class="node">
<title>ext&#45;pcre</title>
<path fill="#eeeeee" stroke="black" d="M1031.97,-523C1031.97,-523 980.97,-523 980.97,-523 974.97,-523 968.97,-517 968.97,-511 968.97,-511 968.97,-499 968.97,-499 968.97,-493 974.97,-487 980.97,-487 980.97,-487 1031.97,-487 1031.97,-487 1037.97,-487 1043.97,-493 1043.97,-499 1043.97,-499 1043.97,-511 1043.97,-511 1043.97,-517 1037.97,-523 1031.97,-523"/>
<text text-anchor="middle" x="1006.47" y="-501.3" font-family="Times,serif" font-size="14.00" fill="#314b5f">ext&#45;pcre</text>
</g>
<!-- bartlett/sarif&#45;php&#45;converters&#45;&gt;ext&#45;pcre -->
<g id="edge3" class="edge">
<title>bartlett/sarif&#45;php&#45;converters&#45;&gt;ext&#45;pcre</title>
<path fill="none" stroke="#1a2833" d="M245.37,-448.59C287.3,-453.53 336.43,-458.97 380.97,-463 596.51,-482.52 854.66,-497.09 958.66,-502.59"/>
<polygon fill="#1a2833" stroke="#1a2833" points="958.65,-506.1 968.83,-503.13 959.02,-499.11 958.65,-506.1"/>
<text text-anchor="middle" x="559.47" y="-492" font-family="Times,serif" font-size="10.00" fill="#767676">*</text>
</g>
<!-- ext&#45;spl -->
<g id="node5" class="node">
<title>ext&#45;spl</title>
<path fill="#eeeeee" stroke="black" d="M1026.97,-654C1026.97,-654 985.97,-654 985.97,-654 979.97,-654 973.97,-648 973.97,-642 973.97,-642 973.97,-630 973.97,-630 973.97,-624 979.97,-618 985.97,-618 985.97,-618 1026.97,-618 1026.97,-618 1032.97,-618 1038.97,-624 1038.97,-630 1038.97,-630 1038.97,-642 1038.97,-642 1038.97,-648 1032.97,-654 1026.97,-654"/>
<text text-anchor="middle" x="1006.47" y="-632.3" font-family="Times,serif" font-size="14.00" fill="#314b5f">ext&#45;spl</text>
</g>
<!-- bartlett/sarif&#45;php&#45;converters&#45;&gt;ext&#45;spl -->
<g id="edge4" class="edge">
<title>bartlett/sarif&#45;php&#45;converters&#45;&gt;ext&#45;spl</title>
<path fill="none" stroke="#1a2833" d="M160.1,-454.16C195.45,-492.4 284.41,-580.18 380.97,-610 591.52,-675.02 860.98,-653.25 963.42,-641.46"/>
<polygon fill="#1a2833" stroke="#1a2833" points="964.13,-644.9 973.65,-640.26 963.31,-637.95 964.13,-644.9"/>
<text text-anchor="middle" x="559.47" y="-657" font-family="Times,serif" font-size="10.00" fill="#767676">*</text>
</g>
<!-- composer&#45;runtime&#45;api -->
<g id="node6" class="node">
<title>composer&#45;runtime&#45;api</title>
<path fill="#eeeeee" stroke="black" d="M633.97,-454C633.97,-454 484.97,-454 484.97,-454 478.97,-454 472.97,-448 472.97,-442 472.97,-442 472.97,-430 472.97,-430 472.97,-424 478.97,-418 484.97,-418 484.97,-418 633.97,-418 633.97,-418 639.97,-418 645.97,-424 645.97,-430 645.97,-430 645.97,-442 645.97,-442 645.97,-448 639.97,-454 633.97,-454"/>
<text text-anchor="middle" x="559.47" y="-432.3" font-family="Times,serif" font-size="14.00" fill="#314b5f">composer&#45;runtime&#45;api</text>
</g>
<!-- bartlett/sarif&#45;php&#45;converters&#45;&gt;composer&#45;runtime&#45;api -->
<g id="edge5" class="edge">
<title>bartlett/sarif&#45;php&#45;converters&#45;&gt;composer&#45;runtime&#45;api</title>
<path fill="none" stroke="#1a2833" d="M286.05,-436C344.27,-436 410.13,-436 462.51,-436"/>
<polygon fill="#1a2833" stroke="#1a2833" points="462.8,-439.5 472.8,-436 462.8,-432.5 462.8,-439.5"/>
<text text-anchor="middle" x="333.47" y="-439" font-family="Times,serif" font-size="10.00" fill="#767676">^2.0</text>
</g>
<!-- bartlett/sarif&#45;php&#45;sdk -->
<g id="node7" class="node">
<title>bartlett/sarif&#45;php&#45;sdk</title>
<path fill="#eeeeee" stroke="black" d="M653.97,-555C653.97,-555 464.97,-555 464.97,-555 458.97,-555 452.97,-549 452.97,-543 452.97,-543 452.97,-531 452.97,-531 452.97,-525 458.97,-519 464.97,-519 464.97,-519 653.97,-519 653.97,-519 659.97,-519 665.97,-525 665.97,-531 665.97,-531 665.97,-543 665.97,-543 665.97,-549 659.97,-555 653.97,-555"/>
<text text-anchor="middle" x="559.47" y="-533.3" font-family="Times,serif" font-size="14.00" fill="#314b5f">bartlett/sarif&#45;php&#45;sdk: 2.1.0</text>
</g>
<!-- bartlett/sarif&#45;php&#45;converters&#45;&gt;bartlett/sarif&#45;php&#45;sdk -->
<g id="edge10" class="edge">
<title>bartlett/sarif&#45;php&#45;converters&#45;&gt;bartlett/sarif&#45;php&#45;sdk</title>
<path fill="none" stroke="#1a2833" d="M177.66,-453.52C209.39,-469.24 258.69,-491.69 303.97,-504 348.55,-516.12 398.76,-523.83 442.73,-528.72"/>
<polygon fill="#1a2833" stroke="#1a2833" points="442.57,-532.23 452.89,-529.82 443.32,-525.27 442.57,-532.23"/>
<text text-anchor="middle" x="333.47" y="-519" font-family="Times,serif" font-size="10.00" fill="#767676">^2.0</text>
</g>
<!-- bamarni/composer&#45;bin&#45;plugin -->
<g id="node8" class="node">
<title>bamarni/composer&#45;bin&#45;plugin</title>
<path fill="#eeeeee" stroke="black" d="M682.97,-400C682.97,-400 435.97,-400 435.97,-400 429.97,-400 423.97,-394 423.97,-388 423.97,-388 423.97,-376 423.97,-376 423.97,-370 429.97,-364 435.97,-364 435.97,-364 682.97,-364 682.97,-364 688.97,-364 694.97,-370 694.97,-376 694.97,-376 694.97,-388 694.97,-388 694.97,-394 688.97,-400 682.97,-400"/>
<text text-anchor="middle" x="559.47" y="-378.3" font-family="Times,serif" font-size="14.00" fill="#314b5f">bamarni/composer&#45;bin&#45;plugin: 1.8.2</text>
</g>
<!-- bartlett/sarif&#45;php&#45;converters&#45;&gt;bamarni/composer&#45;bin&#45;plugin -->
<g id="edge13" class="edge">
<title>bartlett/sarif&#45;php&#45;converters&#45;&gt;bamarni/composer&#45;bin&#45;plugin</title>
<path fill="none" stroke="#1a2833" stroke-dasharray="5,2" d="M243,-423.1C294.06,-416.45 357.3,-408.21 413.72,-400.86"/>
<polygon fill="#1a2833" stroke="#1a2833" points="414.34,-404.31 423.8,-399.55 413.43,-397.37 414.34,-404.31"/>
<text text-anchor="middle" x="333.47" y="-416" font-family="Times,serif" font-size="10.00" fill="#767676">^1.8</text>
</g>
<!-- php&#45;parallel&#45;lint/php&#45;console&#45;highlighter -->
<g id="node10" class="node">
<title>php&#45;parallel&#45;lint/php&#45;console&#45;highlighter</title>
<path fill="#eeeeee" stroke="black" d="M725.97,-296C725.97,-296 392.97,-296 392.97,-296 386.97,-296 380.97,-290 380.97,-284 380.97,-284 380.97,-272 380.97,-272 380.97,-266 386.97,-260 392.97,-260 392.97,-260 725.97,-260 725.97,-260 731.97,-260 737.97,-266 737.97,-272 737.97,-272 737.97,-284 737.97,-284 737.97,-290 731.97,-296 725.97,-296"/>
<text text-anchor="middle" x="559.47" y="-274.3" font-family="Times,serif" font-size="14.00" fill="#314b5f">php&#45;parallel&#45;lint/php&#45;console&#45;highlighter: v1.0.0</text>
</g>
<!-- bartlett/sarif&#45;php&#45;converters&#45;&gt;php&#45;parallel&#45;lint/php&#45;console&#45;highlighter -->
<g id="edge17" class="edge">
<title>bartlett/sarif&#45;php&#45;converters&#45;&gt;php&#45;parallel&#45;lint/php&#45;console&#45;highlighter</title>
<path fill="none" stroke="#1a2833" stroke-dasharray="5,2" d="M160.16,-418.12C186.95,-389.8 243.63,-335.24 303.97,-310 325,-301.21 347.8,-294.65 370.81,-289.79"/>
<polygon fill="#1a2833" stroke="#1a2833" points="371.57,-293.2 380.68,-287.8 370.19,-286.34 371.57,-293.2"/>
<text text-anchor="middle" x="333.47" y="-313" font-family="Times,serif" font-size="10.00" fill="#767676">^1.0</text>
</g>
<!-- symfony/console -->
<g id="node13" class="node">
<title>symfony/console</title>
<path fill="#eeeeee" stroke="black" d="M645.97,-166C645.97,-166 472.97,-166 472.97,-166 466.97,-166 460.97,-160 460.97,-154 460.97,-154 460.97,-142 460.97,-142 460.97,-136 466.97,-130 472.97,-130 472.97,-130 645.97,-130 645.97,-130 651.97,-130 657.97,-136 657.97,-142 657.97,-142 657.97,-154 657.97,-154 657.97,-160 651.97,-166 645.97,-166"/>
<text text-anchor="middle" x="559.47" y="-144.3" font-family="Times,serif" font-size="14.00" fill="#314b5f">symfony/console: v6.4.17</text>
</g>
<!-- bartlett/sarif&#45;php&#45;converters&#45;&gt;symfony/console -->
<g id="edge23" class="edge">
<title>bartlett/sarif&#45;php&#45;converters&#45;&gt;symfony/console</title>
<path fill="none" stroke="#1a2833" stroke-dasharray="5,2" d="M158.84,-418.08C185.47,-386.74 244.17,-321.21 303.97,-278 367.9,-231.81 450.56,-192.86 504.04,-169.97"/>
<polygon fill="#1a2833" stroke="#1a2833" points="505.51,-173.15 513.35,-166.02 502.78,-166.7 505.51,-173.15"/>
<text text-anchor="middle" x="333.47" y="-281" font-family="Times,serif" font-size="10.00" fill="#767676">^6.4 || ^7.0</text>
</g>
<!-- bartlett/sarif&#45;php&#45;sdk&#45;&gt;php -->
<g id="edge9" class="edge">
<title>bartlett/sarif&#45;php&#45;sdk&#45;&gt;php</title>
<path fill="none" stroke="#1a2833" d="M666.39,-528.95C690.89,-524.14 716.15,-516.64 737.97,-505 790.95,-476.76 796.39,-456.35 831.97,-408 841.88,-394.55 836.58,-384.98 849.97,-375 884.62,-349.19 935.05,-342.6 969,-341.39"/>
<polygon fill="#1a2833" stroke="#1a2833" points="969.48,-344.88 979.4,-341.16 969.33,-337.88 969.48,-344.88"/>
<text text-anchor="middle" x="793.97" y="-496" font-family="Times,serif" font-size="10.00" fill="#767676">^8.1</text>
</g>
<!-- bartlett/sarif&#45;php&#45;sdk&#45;&gt;ext&#45;json -->
<g id="edge6" class="edge">
<title>bartlett/sarif&#45;php&#45;sdk&#45;&gt;ext&#45;json</title>
<path fill="none" stroke="#1a2833" d="M666.22,-547.22C759.61,-556.24 891.31,-568.97 959.91,-575.6"/>
<polygon fill="#1a2833" stroke="#1a2833" points="959.67,-579.09 969.96,-576.57 960.34,-572.12 959.67,-579.09"/>
<text text-anchor="middle" x="793.97" y="-565" font-family="Times,serif" font-size="10.00" fill="#767676">*</text>
</g>
<!-- bartlett/sarif&#45;php&#45;sdk&#45;&gt;ext&#45;pcre -->
<g id="edge7" class="edge">
<title>bartlett/sarif&#45;php&#45;sdk&#45;&gt;ext&#45;pcre</title>
<path fill="none" stroke="#1a2833" d="M666.22,-529.4C759.12,-522.72 889.93,-513.31 958.82,-508.35"/>
<polygon fill="#1a2833" stroke="#1a2833" points="959.21,-511.84 968.93,-507.63 958.7,-504.85 959.21,-511.84"/>
<text text-anchor="middle" x="793.97" y="-525" font-family="Times,serif" font-size="10.00" fill="#767676">*</text>
</g>
<!-- bartlett/sarif&#45;php&#45;sdk&#45;&gt;ext&#45;spl -->
<g id="edge8" class="edge">
<title>bartlett/sarif&#45;php&#45;sdk&#45;&gt;ext&#45;spl</title>
<path fill="none" stroke="#1a2833" d="M666.13,-551.75C690.02,-556.27 715.08,-561.96 737.97,-569 746.34,-571.57 747.79,-573.89 755.97,-577 796.96,-592.6 807.45,-596.29 849.97,-607 888.14,-616.61 932.3,-624.55 963.79,-629.67"/>
<polygon fill="#1a2833" stroke="#1a2833" points="963.52,-633.18 973.95,-631.3 964.63,-626.26 963.52,-633.18"/>
<text text-anchor="middle" x="793.97" y="-605" font-family="Times,serif" font-size="10.00" fill="#767676">*</text>
</g>
<!-- bamarni/composer&#45;bin&#45;plugin&#45;&gt;php -->
<g id="edge12" class="edge">
<title>bamarni/composer&#45;bin&#45;plugin&#45;&gt;php</title>
<path fill="none" stroke="#1a2833" d="M695.2,-369.89C790.04,-361.37 910.21,-350.56 969.31,-345.25"/>
<polygon fill="#1a2833" stroke="#1a2833" points="969.63,-348.74 979.27,-344.36 969,-341.76 969.63,-348.74"/>
<text text-anchor="middle" x="793.97" y="-367" font-family="Times,serif" font-size="10.00" fill="#767676">^7.2.5 || ^8.0</text>
</g>
<!-- composer&#45;plugin&#45;api -->
<g id="node9" class="node">
<title>composer&#45;plugin&#45;api</title>
<path fill="#eeeeee" stroke="black" d="M1074.97,-420C1074.97,-420 937.97,-420 937.97,-420 931.97,-420 925.97,-414 925.97,-408 925.97,-408 925.97,-396 925.97,-396 925.97,-390 931.97,-384 937.97,-384 937.97,-384 1074.97,-384 1074.97,-384 1080.97,-384 1086.97,-390 1086.97,-396 1086.97,-396 1086.97,-408 1086.97,-408 1086.97,-414 1080.97,-420 1074.97,-420"/>
<text text-anchor="middle" x="1006.47" y="-398.3" font-family="Times,serif" font-size="14.00" fill="#314b5f">composer&#45;plugin&#45;api</text>
</g>
<!-- bamarni/composer&#45;bin&#45;plugin&#45;&gt;composer&#45;plugin&#45;api -->
<g id="edge11" class="edge">
<title>bamarni/composer&#45;bin&#45;plugin&#45;&gt;composer&#45;plugin&#45;api</title>
<path fill="none" stroke="#1a2833" d="M695.2,-388.05C766.56,-391.26 852.27,-395.11 915.51,-397.96"/>
<polygon fill="#1a2833" stroke="#1a2833" points="915.71,-401.47 925.85,-398.42 916.02,-394.48 915.71,-401.47"/>
<text text-anchor="middle" x="793.97" y="-396" font-family="Times,serif" font-size="10.00" fill="#767676">^2.0</text>
</g>
<!-- php&#45;parallel&#45;lint/php&#45;console&#45;highlighter&#45;&gt;php -->
<g id="edge15" class="edge">
<title>php&#45;parallel&#45;lint/php&#45;console&#45;highlighter&#45;&gt;php</title>
<path fill="none" stroke="#1a2833" d="M738.17,-294.97C769.55,-299.09 801.82,-304.07 831.97,-310 840.12,-311.6 841.87,-313.18 849.97,-315 890.56,-324.14 937.71,-331.93 969.35,-336.77"/>
<polygon fill="#1a2833" stroke="#1a2833" points="969.05,-340.26 979.46,-338.29 970.09,-333.34 969.05,-340.26"/>
<text text-anchor="middle" x="793.97" y="-313" font-family="Times,serif" font-size="10.00" fill="#767676">&gt;=5.3.2</text>
</g>
<!-- ext&#45;tokenizer -->
<g id="node11" class="node">
<title>ext&#45;tokenizer</title>
<path fill="#eeeeee" stroke="black" d="M1049.47,-306C1049.47,-306 963.47,-306 963.47,-306 957.47,-306 951.47,-300 951.47,-294 951.47,-294 951.47,-282 951.47,-282 951.47,-276 957.47,-270 963.47,-270 963.47,-270 1049.47,-270 1049.47,-270 1055.47,-270 1061.47,-276 1061.47,-282 1061.47,-282 1061.47,-294 1061.47,-294 1061.47,-300 1055.47,-306 1049.47,-306"/>
<text text-anchor="middle" x="1006.47" y="-284.3" font-family="Times,serif" font-size="14.00" fill="#314b5f">ext&#45;tokenizer</text>
</g>
<!-- php&#45;parallel&#45;lint/php&#45;console&#45;highlighter&#45;&gt;ext&#45;tokenizer -->
<g id="edge14" class="edge">
<title>php&#45;parallel&#45;lint/php&#45;console&#45;highlighter&#45;&gt;ext&#45;tokenizer</title>
<path fill="none" stroke="#1a2833" d="M738.31,-274.56C769.53,-274.56 801.71,-274.95 831.97,-276 868.05,-277.25 908.28,-279.95 940.9,-282.47"/>
<polygon fill="#1a2833" stroke="#1a2833" points="940.97,-285.99 951.21,-283.28 941.52,-279.01 940.97,-285.99"/>
<text text-anchor="middle" x="793.97" y="-279" font-family="Times,serif" font-size="10.00" fill="#767676">*</text>
</g>
<!-- php&#45;parallel&#45;lint/php&#45;console&#45;color -->
<g id="node12" class="node">
<title>php&#45;parallel&#45;lint/php&#45;console&#45;color</title>
<path fill="#eeeeee" stroke="black" d="M1150.97,-252C1150.97,-252 861.97,-252 861.97,-252 855.97,-252 849.97,-246 849.97,-240 849.97,-240 849.97,-228 849.97,-228 849.97,-222 855.97,-216 861.97,-216 861.97,-216 1150.97,-216 1150.97,-216 1156.97,-216 1162.97,-222 1162.97,-228 1162.97,-228 1162.97,-240 1162.97,-240 1162.97,-246 1156.97,-252 1150.97,-252"/>
<text text-anchor="middle" x="1006.47" y="-230.3" font-family="Times,serif" font-size="14.00" fill="#314b5f">php&#45;parallel&#45;lint/php&#45;console&#45;color: v1.0.1</text>
</g>
<!-- php&#45;parallel&#45;lint/php&#45;console&#45;highlighter&#45;&gt;php&#45;parallel&#45;lint/php&#45;console&#45;color -->
<g id="edge16" class="edge">
<title>php&#45;parallel&#45;lint/php&#45;console&#45;highlighter&#45;&gt;php&#45;parallel&#45;lint/php&#45;console&#45;color</title>
<path fill="none" stroke="#1a2833" d="M738.27,-260.42C771.73,-257.11 806.59,-253.66 839.66,-250.39"/>
<polygon fill="#1a2833" stroke="#1a2833" points="840.26,-253.85 849.87,-249.39 839.57,-246.89 840.26,-253.85"/>
<text text-anchor="middle" x="793.97" y="-262" font-family="Times,serif" font-size="10.00" fill="#767676">^1.0.1</text>
</g>
<!-- symfony/console&#45;&gt;php -->
<g id="edge18" class="edge">
<title>symfony/console&#45;&gt;php</title>
<path fill="none" stroke="#1a2833" d="M658.09,-156.71C716.43,-167.02 787.6,-189.42 831.97,-238 855.68,-263.95 824.42,-290.88 849.97,-315 881.67,-344.91 934,-348.08 969.09,-346.19"/>
<polygon fill="#1a2833" stroke="#1a2833" points="969.66,-349.66 979.39,-345.46 969.17,-342.67 969.66,-349.66"/>
<text text-anchor="middle" x="793.97" y="-241" font-family="Times,serif" font-size="10.00" fill="#767676">&gt;=8.1</text>
</g>
<!-- symfony/deprecation&#45;contracts -->
<g id="node14" class="node">
<title>symfony/deprecation&#45;contracts</title>
<path fill="#eeeeee" stroke="black" d="M1139.47,-36C1139.47,-36 873.47,-36 873.47,-36 867.47,-36 861.47,-30 861.47,-24 861.47,-24 861.47,-12 861.47,-12 861.47,-6 867.47,0 873.47,0 873.47,0 1139.47,0 1139.47,0 1145.47,0 1151.47,-6 1151.47,-12 1151.47,-12 1151.47,-24 1151.47,-24 1151.47,-30 1145.47,-36 1139.47,-36"/>
<text text-anchor="middle" x="1006.47" y="-14.3" font-family="Times,serif" font-size="14.00" fill="#314b5f">symfony/deprecation&#45;contracts: v3.5.1</text>
</g>
<!-- symfony/console&#45;&gt;symfony/deprecation&#45;contracts -->
<g id="edge19" class="edge">
<title>symfony/console&#45;&gt;symfony/deprecation&#45;contracts</title>
<path fill="none" stroke="#1a2833" d="M603.89,-129.93C659.88,-107.24 760.71,-68.45 849.97,-45 859.32,-42.55 869.03,-40.26 878.85,-38.13"/>
<polygon fill="#1a2833" stroke="#1a2833" points="879.62,-41.55 888.68,-36.06 878.17,-34.7 879.62,-41.55"/>
<text text-anchor="middle" x="793.97" y="-75" font-family="Times,serif" font-size="10.00" fill="#767676">^2.5|^3</text>
</g>
<!-- symfony/polyfill&#45;mbstring -->
<g id="node15" class="node">
<title>symfony/polyfill&#45;mbstring</title>
<path fill="#eeeeee" stroke="black" d="M1124.97,-198C1124.97,-198 887.97,-198 887.97,-198 881.97,-198 875.97,-192 875.97,-186 875.97,-186 875.97,-174 875.97,-174 875.97,-168 881.97,-162 887.97,-162 887.97,-162 1124.97,-162 1124.97,-162 1130.97,-162 1136.97,-168 1136.97,-174 1136.97,-174 1136.97,-186 1136.97,-186 1136.97,-192 1130.97,-198 1124.97,-198"/>
<text text-anchor="middle" x="1006.47" y="-176.3" font-family="Times,serif" font-size="14.00" fill="#314b5f">symfony/polyfill&#45;mbstring: v1.31.0</text>
</g>
<!-- symfony/console&#45;&gt;symfony/polyfill&#45;mbstring -->
<g id="edge20" class="edge">
<title>symfony/console&#45;&gt;symfony/polyfill&#45;mbstring</title>
<path fill="none" stroke="#1a2833" d="M658.13,-155.02C718.97,-159.4 798.22,-165.1 865.66,-169.95"/>
<polygon fill="#1a2833" stroke="#1a2833" points="865.72,-173.46 875.94,-170.69 866.22,-166.48 865.72,-173.46"/>
<text text-anchor="middle" x="793.97" y="-170" font-family="Times,serif" font-size="10.00" fill="#767676">~1.0</text>
</g>
<!-- symfony/service&#45;contracts -->
<g id="node16" class="node">
<title>symfony/service&#45;contracts</title>
<path fill="#eeeeee" stroke="black" d="M1122.97,-144C1122.97,-144 889.97,-144 889.97,-144 883.97,-144 877.97,-138 877.97,-132 877.97,-132 877.97,-120 877.97,-120 877.97,-114 883.97,-108 889.97,-108 889.97,-108 1122.97,-108 1122.97,-108 1128.97,-108 1134.97,-114 1134.97,-120 1134.97,-120 1134.97,-132 1134.97,-132 1134.97,-138 1128.97,-144 1122.97,-144"/>
<text text-anchor="middle" x="1006.47" y="-122.3" font-family="Times,serif" font-size="14.00" fill="#314b5f">symfony/service&#45;contracts: v3.5.1</text>
</g>
<!-- symfony/console&#45;&gt;symfony/service&#45;contracts -->
<g id="edge21" class="edge">
<title>symfony/console&#45;&gt;symfony/service&#45;contracts</title>
<path fill="none" stroke="#1a2833" d="M658.16,-142.27C689.41,-140.5 724.14,-138.6 755.97,-137 792.19,-135.18 831.38,-133.38 867.72,-131.77"/>
<polygon fill="#1a2833" stroke="#1a2833" points="868.06,-135.26 877.89,-131.33 867.75,-128.27 868.06,-135.26"/>
<text text-anchor="middle" x="793.97" y="-140" font-family="Times,serif" font-size="10.00" fill="#767676">^2.5|^3</text>
</g>
<!-- symfony/string -->
<g id="node17" class="node">
<title>symfony/string</title>
<path fill="#eeeeee" stroke="black" d="M1087.47,-90C1087.47,-90 925.47,-90 925.47,-90 919.47,-90 913.47,-84 913.47,-78 913.47,-78 913.47,-66 913.47,-66 913.47,-60 919.47,-54 925.47,-54 925.47,-54 1087.47,-54 1087.47,-54 1093.47,-54 1099.47,-60 1099.47,-66 1099.47,-66 1099.47,-78 1099.47,-78 1099.47,-84 1093.47,-90 1087.47,-90"/>
<text text-anchor="middle" x="1006.47" y="-68.3" font-family="Times,serif" font-size="14.00" fill="#314b5f">symfony/string: v6.4.15</text>
</g>
<!-- symfony/console&#45;&gt;symfony/string -->
<g id="edge22" class="edge">
<title>symfony/console&#45;&gt;symfony/string</title>
<path fill="none" stroke="#1a2833" d="M658.13,-131.32C730.7,-118.93 829.48,-102.06 903.14,-89.48"/>
<polygon fill="#1a2833" stroke="#1a2833" points="904.1,-92.86 913.37,-87.73 902.92,-85.96 904.1,-92.86"/>
<text text-anchor="middle" x="793.97" y="-118" font-family="Times,serif" font-size="10.00" fill="#767676">^5.4|^6.0|^7.0</text>
</g>
</g>
</svg>
