<?xml version="1.0" encoding="UTF-8" standalone="no"?>
<!DOCTYPE svg PUBLIC "-//W3C//DTD SVG 1.1//EN"
 "http://www.w3.org/Graphics/SVG/1.1/DTD/svg11.dtd">
<!-- Generated by graphviz version 2.43.0 (0)
 -->
<!-- Title: %3 Pages: 1 -->
<svg width="1654pt" height="904pt"
 viewBox="0.00 0.00 1654.00 904.00" xmlns="http://www.w3.org/2000/svg" xmlns:xlink="http://www.w3.org/1999/xlink">
<g id="graph0" class="graph" transform="scale(1 1) rotate(0) translate(4 900)">
<title>%3</title>
<g id="clust1" class="cluster">
<title>cluster_0</title>
<polygon fill="BurlyWood" stroke="black" points="8,-219 8,-872 664,-872 664,-219 8,-219"/>
<text text-anchor="middle" x="336" y="-856.8" font-family="Times,serif" font-size="14.00">Bartlett\Sarif\Converter</text>
</g>
<g id="clust2" class="cluster">
<title>cluster_1</title>
<polygon fill="LightSkyBlue" stroke="black" points="403,-8 403,-211 1521,-211 1521,-8 403,-8"/>
<text text-anchor="middle" x="962" y="-195.8" font-family="Times,serif" font-size="14.00">Bartlett\Sarif\Contract</text>
</g>
<g id="clust3" class="cluster">
<title>cluster_2</title>
<polygon fill="Bisque" stroke="black" points="672,-388 672,-888 1308,-888 1308,-388 672,-388"/>
<text text-anchor="middle" x="990" y="-872.8" font-family="Times,serif" font-size="14.00">Bartlett\Sarif\Converter\Source</text>
</g>
<g id="clust4" class="cluster">
<title>cluster_3</title>
<polygon fill="Bisque" stroke="black" points="1316,-391.5 1316,-885 1638,-885 1638,-391.5 1316,-391.5"/>
<text text-anchor="middle" x="1477" y="-869.8" font-family="Times,serif" font-size="14.00">Bartlett\Sarif\Converter\Normalizer</text>
</g>
<!-- Bartlett\\Sarif\\Converter\\PhpCsConverter -->
<g id="node1" class="node">
<title>Bartlett\\Sarif\\Converter\\PhpCsConverter</title>
<polygon fill="#fefece" stroke="transparent" points="514.5,-841 157.5,-841 157.5,-781 514.5,-781 514.5,-841"/>
<polygon fill="#eeeeee" stroke="transparent" points="158,-819 158,-841 515,-841 515,-819 158,-819"/>
<polygon fill="none" stroke="black" points="158,-819 158,-841 515,-841 515,-819 158,-819"/>
<text text-anchor="start" x="300" y="-824.6" font-family="Verdana" font-weight="bold" font-size="8.00">PhpCsConverter</text>
<polygon fill="none" stroke="black" points="158,-813 158,-819 515,-819 515,-813 158,-813"/>
<polygon fill="none" stroke="black" points="158,-781 158,-813 515,-813 515,-781 158,-781"/>
<text text-anchor="start" x="163" y="-801.6" font-family="Verdana" font-size="8.00">+ configure(options : array = []) : void</text>
<text text-anchor="start" x="163" y="-788.6" font-family="Verdana" font-size="8.00">+ invocations(properties : Bartlett\Sarif\Definition\PropertyBag = «unknown») : array</text>
</g>
<!-- Bartlett\\Sarif\\Converter\\AbstractConverter -->
<g id="node2" class="node">
<title>Bartlett\\Sarif\\Converter\\AbstractConverter</title>
<polygon fill="#fefece" stroke="transparent" points="655.5,-729 16.5,-729 16.5,-227 655.5,-227 655.5,-729"/>
<polygon fill="#eeeeee" stroke="transparent" points="17,-707 17,-729 656,-729 656,-707 17,-707"/>
<polygon fill="none" stroke="black" points="17,-707 17,-729 656,-729 656,-707 17,-707"/>
<text text-anchor="start" x="312.5" y="-720.6" font-family="Verdana" font-weight="bold" font-size="8.00">«abstract»</text>
<text text-anchor="start" x="295.5" y="-712.6" font-family="Verdana" font-weight="bold" font-size="8.00">AbstractConverter</text>
<polygon fill="none" stroke="black" points="17,-480 17,-707 656,-707 656,-480 17,-480"/>
<text text-anchor="start" x="22" y="-695.6" font-family="Verdana" font-size="8.00"># toolName</text>
<text text-anchor="start" x="22" y="-682.6" font-family="Verdana" font-size="8.00"># toolFullName</text>
<text text-anchor="start" x="22" y="-669.6" font-family="Verdana" font-size="8.00"># toolShortDescription</text>
<text text-anchor="start" x="22" y="-656.6" font-family="Verdana" font-size="8.00"># toolFullDescription</text>
<text text-anchor="start" x="22" y="-643.6" font-family="Verdana" font-size="8.00"># toolInformationUri</text>
<text text-anchor="start" x="22" y="-630.6" font-family="Verdana" font-size="8.00"># toolComposerPackage</text>
<text text-anchor="start" x="22" y="-617.6" font-family="Verdana" font-size="8.00"># toolSemanticVersion</text>
<text text-anchor="start" x="22" y="-604.6" font-family="Verdana" font-size="8.00"># converterComposerPackage</text>
<text text-anchor="start" x="22" y="-591.6" font-family="Verdana" font-size="8.00"># results : mixed = []</text>
<text text-anchor="start" x="22" y="-578.6" font-family="Verdana" font-size="8.00"># errors : mixed = []</text>
<text text-anchor="start" x="22" y="-565.6" font-family="Verdana" font-size="8.00"># serializer</text>
<text text-anchor="start" x="22" y="-552.6" font-family="Verdana" font-size="8.00"># startTime</text>
<text text-anchor="start" x="22" y="-539.6" font-family="Verdana" font-size="8.00"># endTime</text>
<text text-anchor="start" x="22" y="-526.6" font-family="Verdana" font-size="8.00"># includeCodeSnippets</text>
<text text-anchor="start" x="22" y="-513.6" font-family="Verdana" font-size="8.00"># includeContextRegion</text>
<text text-anchor="start" x="22" y="-500.6" font-family="Verdana" font-size="8.00"># defaultResultLevelIfEmpty</text>
<text text-anchor="start" x="22" y="-487.6" font-family="Verdana" font-size="8.00"># projectDirectory</text>
<polygon fill="none" stroke="black" points="17,-227 17,-480 656,-480 656,-227 17,-227"/>
<text text-anchor="start" x="22" y="-468.6" font-family="Verdana" font-size="8.00">+ __construct(options : array = [], factory : Bartlett\Sarif\Factory\SerializerFactory = «unknown»)</text>
<text text-anchor="start" x="22" y="-455.6" font-family="Verdana" font-size="8.00">+ getName() : string</text>
<text text-anchor="start" x="22" y="-442.6" font-family="Verdana" font-size="8.00">+ configure(options : array) : void</text>
<text text-anchor="start" x="22" y="-429.6" font-family="Verdana" font-size="8.00">+ toolDriver() : Bartlett\Sarif\Definition\ToolComponent</text>
<text text-anchor="start" x="22" y="-416.6" font-family="Verdana" font-size="8.00">+ toolExtensions() : array</text>
<text text-anchor="start" x="22" y="-403.6" font-family="Verdana" font-size="8.00">+ rules(defined : iterable) : array</text>
<text text-anchor="start" x="22" y="-390.6" font-family="Verdana" font-size="8.00">+ results(normalized : iterable) : void</text>
<text text-anchor="start" x="22" y="-377.6" font-family="Verdana" font-size="8.00">+ sarifLog(runs : array = [], version : string = &#39;2\.1\.0&#39;) : ?string</text>
<text text-anchor="start" x="22" y="-364.6" font-family="Verdana" font-size="8.00">+ invocations(properties : Bartlett\Sarif\Definition\PropertyBag = «unknown») : array</text>
<text text-anchor="start" x="22" y="-351.6" font-family="Verdana" font-size="8.00">+ versionControlDetails() : array</text>
<text text-anchor="start" x="22" y="-338.6" font-family="Verdana" font-size="8.00">+ automationDetails() : Bartlett\Sarif\Definition\RunAutomationDetails</text>
<text text-anchor="start" x="22" y="-325.6" font-family="Verdana" font-size="8.00">+ run(invocations : iterable, rules : iterable) : Bartlett\Sarif\Definition\Run</text>
<text text-anchor="start" x="22" y="-312.6" font-family="Verdana" font-size="8.00"># originalUriBaseIdentifiers() : array</text>
<text text-anchor="start" x="22" y="-299.6" font-family="Verdana" font-size="8.00"># getToolVersion(package : string) : string</text>
<text text-anchor="start" x="22" y="-286.6" font-family="Verdana" font-size="8.00"># pathToArtifactLocation(path : string) : string</text>
<text text-anchor="start" x="22" y="-273.6" font-family="Verdana" font-size="8.00"># pathToUri(path : string) : string</text>
<text text-anchor="start" x="22" y="-260.6" font-family="Verdana" font-size="8.00"># getCodeSnippet(filePath : string, lineNumber : int, linesBefore : int, linesAfter : int) : ?string</text>
<text text-anchor="start" x="22" y="-247.6" font-family="Verdana" font-size="8.00"># getSnippetRegion(filePath : string, lineNumber : int, column : int = «unknown», linesBefore : int = 2, linesAfter : int = 2) : Bartlett\Sarif\Definition\Region</text>
<text text-anchor="start" x="22" y="-234.6" font-family="Verdana" font-size="8.00"># getErrors() : Iterator</text>
</g>
<!-- Bartlett\\Sarif\\Converter\\PhpCsConverter&#45;&gt;Bartlett\\Sarif\\Converter\\AbstractConverter -->
<g id="edge2" class="edge">
<title>Bartlett\\Sarif\\Converter\\PhpCsConverter&#45;&gt;Bartlett\\Sarif\\Converter\\AbstractConverter</title>
<path fill="none" stroke="black" d="M336,-780.92C336,-769.49 336,-755.24 336,-739.21"/>
<polygon fill="none" stroke="black" points="339.5,-739.01 336,-729.01 332.5,-739.01 339.5,-739.01"/>
</g>
<!-- Bartlett\\Sarif\\Contract\\ConverterInterface -->
<g id="node3" class="node">
<title>Bartlett\\Sarif\\Contract\\ConverterInterface</title>
<polygon fill="#fefece" stroke="transparent" points="815,-180 411,-180 411,-16 815,-16 815,-180"/>
<polygon fill="#eeeeee" stroke="transparent" points="411,-158 411,-180 815,-180 815,-158 411,-158"/>
<polygon fill="none" stroke="black" points="411,-158 411,-180 815,-180 815,-158 411,-158"/>
<text text-anchor="start" x="587" y="-171.6" font-family="Verdana" font-weight="bold" font-size="8.00">«interface»</text>
<text text-anchor="start" x="570.5" y="-163.6" font-family="Verdana" font-weight="bold" font-size="8.00">ConverterInterface</text>
<polygon fill="none" stroke="black" points="411,-152 411,-158 815,-158 815,-152 411,-152"/>
<polygon fill="none" stroke="black" points="411,-16 411,-152 815,-152 815,-16 411,-16"/>
<text text-anchor="start" x="416" y="-140.6" font-family="Verdana" font-size="8.00">+ «abstract» getName() : string</text>
<text text-anchor="start" x="416" y="-127.6" font-family="Verdana" font-size="8.00">+ «abstract» toolDriver() : Bartlett\Sarif\Definition\ToolComponent</text>
<text text-anchor="start" x="416" y="-114.6" font-family="Verdana" font-size="8.00">+ «abstract» toolExtensions() : array</text>
<text text-anchor="start" x="416" y="-101.6" font-family="Verdana" font-size="8.00">+ «abstract» rules(defined : iterable) : array</text>
<text text-anchor="start" x="416" y="-88.6" font-family="Verdana" font-size="8.00">+ «abstract» results(normalized : iterable) : void</text>
<text text-anchor="start" x="416" y="-75.6" font-family="Verdana" font-size="8.00">+ «abstract» invocations(properties : Bartlett\Sarif\Definition\PropertyBag = «unknown») : array</text>
<text text-anchor="start" x="416" y="-62.6" font-family="Verdana" font-size="8.00">+ «abstract» versionControlDetails() : array</text>
<text text-anchor="start" x="416" y="-49.6" font-family="Verdana" font-size="8.00">+ «abstract» automationDetails() : Bartlett\Sarif\Definition\RunAutomationDetails</text>
<text text-anchor="start" x="416" y="-36.6" font-family="Verdana" font-size="8.00">+ «abstract» run(invocations : iterable, rules : iterable) : Bartlett\Sarif\Definition\Run</text>
<text text-anchor="start" x="416" y="-23.6" font-family="Verdana" font-size="8.00">+ «abstract» sarifLog(runs : array = [], version : string = &#39;2\.1\.0&#39;) : ?string</text>
</g>
<!-- Bartlett\\Sarif\\Converter\\AbstractConverter&#45;&gt;Bartlett\\Sarif\\Contract\\ConverterInterface -->
<g id="edge1" class="edge">
<title>Bartlett\\Sarif\\Converter\\AbstractConverter&#45;&gt;Bartlett\\Sarif\\Contract\\ConverterInterface</title>
<path fill="none" stroke="black" stroke-dasharray="5,2" d="M519.22,-226.97C529.03,-213.59 538.5,-200.66 547.42,-188.5"/>
<polygon fill="none" stroke="black" points="550.4,-190.34 553.49,-180.21 544.76,-186.2 550.4,-190.34"/>
</g>
<!-- Bartlett\\Sarif\\Contract\\SourceInterface -->
<g id="node4" class="node">
<title>Bartlett\\Sarif\\Contract\\SourceInterface</title>
<polygon fill="#fefece" stroke="transparent" points="1147,-154 833,-154 833,-42 1147,-42 1147,-154"/>
<polygon fill="#eeeeee" stroke="transparent" points="833,-132 833,-154 1147,-154 1147,-132 833,-132"/>
<polygon fill="none" stroke="black" points="833,-132 833,-154 1147,-154 1147,-132 833,-132"/>
<text text-anchor="start" x="964" y="-145.6" font-family="Verdana" font-weight="bold" font-size="8.00">«interface»</text>
<text text-anchor="start" x="954" y="-137.6" font-family="Verdana" font-weight="bold" font-size="8.00">SourceInterface</text>
<polygon fill="none" stroke="black" points="833,-126 833,-132 1147,-132 1147,-126 833,-126"/>
<polygon fill="none" stroke="black" points="833,-42 833,-126 1147,-126 1147,-42 833,-42"/>
<text text-anchor="start" x="838" y="-114.6" font-family="Verdana" font-size="8.00">+ «abstract» getName() : string</text>
<text text-anchor="start" x="838" y="-101.6" font-family="Verdana" font-size="8.00">+ «abstract» getFiles() : Iterator</text>
<text text-anchor="start" x="838" y="-88.6" font-family="Verdana" font-size="8.00">+ «abstract» getErrors() : Iterator</text>
<text text-anchor="start" x="838" y="-75.6" font-family="Verdana" font-size="8.00">+ «abstract» getRules() : Iterator</text>
<text text-anchor="start" x="838" y="-62.6" font-family="Verdana" font-size="8.00">+ «abstract» getAttribute(name : string) : Iterator</text>
<text text-anchor="start" x="838" y="-49.6" font-family="Verdana" font-size="8.00">+ «abstract» normalize(data : mixed, format : string, context : array) : bool</text>
</g>
<!-- Bartlett\\Sarif\\Contract\\NormalizerInterface -->
<g id="node5" class="node">
<title>Bartlett\\Sarif\\Contract\\NormalizerInterface</title>
<polygon fill="#fefece" stroke="transparent" points="1513,-170 1165,-170 1165,-26 1513,-26 1513,-170"/>
<polygon fill="#eeeeee" stroke="transparent" points="1165,-148 1165,-170 1513,-170 1513,-148 1165,-148"/>
<polygon fill="none" stroke="black" points="1165,-148 1165,-170 1513,-170 1513,-148 1165,-148"/>
<text text-anchor="start" x="1313" y="-161.6" font-family="Verdana" font-weight="bold" font-size="8.00">«interface»</text>
<text text-anchor="start" x="1294" y="-153.6" font-family="Verdana" font-weight="bold" font-size="8.00">NormalizerInterface</text>
<polygon fill="none" stroke="black" points="1165,-77 1165,-148 1513,-148 1513,-77 1165,-77"/>
<text text-anchor="start" x="1170" y="-136.6" font-family="Verdana" font-size="8.00">+ «static» FORMAT_SARIF : string = &quot;sarif&quot; {readOnly}</text>
<text text-anchor="start" x="1170" y="-123.6" font-family="Verdana" font-size="8.00">+ «static» FORMAT_JSON : string = &quot;json&quot; {readOnly}</text>
<text text-anchor="start" x="1170" y="-110.6" font-family="Verdana" font-size="8.00">+ «static» FORMAT_XML : string = &quot;xml&quot; {readOnly}</text>
<text text-anchor="start" x="1170" y="-97.6" font-family="Verdana" font-size="8.00">+ «static» FORMAT_CHECKSTYLE : string = &quot;checkstyle&quot; {readOnly}</text>
<text text-anchor="start" x="1170" y="-84.6" font-family="Verdana" font-size="8.00">+ «static» FORMAT_INTERNAL : string = &quot;internal&quot; {readOnly}</text>
<polygon fill="none" stroke="black" points="1165,-71 1165,-77 1513,-77 1513,-71 1165,-71"/>
<polygon fill="none" stroke="black" points="1165,-26 1165,-71 1513,-71 1513,-26 1165,-26"/>
<text text-anchor="start" x="1170" y="-59.6" font-family="Verdana" font-size="8.00">+ «abstract» getSupportedFormats() : array</text>
<text text-anchor="start" x="1170" y="-46.6" font-family="Verdana" font-size="8.00">+ «abstract» isSupportedFormat(format : string) : bool</text>
<text text-anchor="start" x="1170" y="-33.6" font-family="Verdana" font-size="8.00">+ «abstract» normalize(data : mixed, format : string, context : array) : ?ArrayObject</text>
</g>
<!-- Bartlett\\Sarif\\Converter\\Source\\PhpCsSource -->
<g id="node6" class="node">
<title>Bartlett\\Sarif\\Converter\\Source\\PhpCsSource</title>
<polygon fill="#fefece" stroke="transparent" points="1299.5,-857 680.5,-857 680.5,-765 1299.5,-765 1299.5,-857"/>
<polygon fill="#eeeeee" stroke="transparent" points="681,-835 681,-857 1300,-857 1300,-835 681,-835"/>
<polygon fill="none" stroke="black" points="681,-835 681,-857 1300,-857 1300,-835 681,-835"/>
<text text-anchor="start" x="960.5" y="-840.6" font-family="Verdana" font-weight="bold" font-size="8.00">PhpCsSource</text>
<polygon fill="none" stroke="black" points="681,-816 681,-835 1300,-835 1300,-816 681,-816"/>
<text text-anchor="start" x="686" y="-823.6" font-family="Verdana" font-size="8.00">+ «static» URI_PATTERN : string = &quot;https\:\/\/github\.com\/PHPCSStandards\/PHP_CodeSniffer\/wiki\/Customisable\&#45;Sniff\&#45;Properties\#\%s&quot; {readOnly}</text>
<polygon fill="none" stroke="black" points="681,-810 681,-816 1300,-816 1300,-810 681,-810"/>
<polygon fill="none" stroke="black" points="681,-765 681,-810 1300,-810 1300,-765 681,-765"/>
<text text-anchor="start" x="686" y="-798.6" font-family="Verdana" font-size="8.00">+ __construct(normalizers : iterable = [])</text>
<text text-anchor="start" x="686" y="-785.6" font-family="Verdana" font-size="8.00">+ getRules() : Iterator</text>
<text text-anchor="start" x="686" y="-772.6" font-family="Verdana" font-size="8.00">+ «static» fromFile(filename : string, format : string) : self</text>
</g>
<!-- Bartlett\\Sarif\\Converter\\Source\\AbstractSource -->
<g id="node7" class="node">
<title>Bartlett\\Sarif\\Converter\\Source\\AbstractSource</title>
<polygon fill="#fefece" stroke="transparent" points="1153,-560 827,-560 827,-396 1153,-396 1153,-560"/>
<polygon fill="#eeeeee" stroke="transparent" points="827,-538 827,-560 1153,-560 1153,-538 827,-538"/>
<polygon fill="none" stroke="black" points="827,-538 827,-560 1153,-560 1153,-538 827,-538"/>
<text text-anchor="start" x="966" y="-551.6" font-family="Verdana" font-weight="bold" font-size="8.00">«abstract»</text>
<text text-anchor="start" x="955.5" y="-543.6" font-family="Verdana" font-weight="bold" font-size="8.00">AbstractSource</text>
<polygon fill="none" stroke="black" points="827,-506 827,-538 1153,-538 1153,-506 827,-506"/>
<text text-anchor="start" x="832" y="-526.6" font-family="Verdana" font-size="8.00">– normalizers : mixed</text>
<text text-anchor="start" x="832" y="-513.6" font-family="Verdana" font-size="8.00">– normalized</text>
<polygon fill="none" stroke="black" points="827,-396 827,-506 1153,-506 1153,-396 827,-396"/>
<text text-anchor="start" x="832" y="-494.6" font-family="Verdana" font-size="8.00">+ __construct(normalizers : iterable = [])</text>
<text text-anchor="start" x="832" y="-481.6" font-family="Verdana" font-size="8.00">+ getName() : string</text>
<text text-anchor="start" x="832" y="-468.6" font-family="Verdana" font-size="8.00">+ getFiles() : Iterator</text>
<text text-anchor="start" x="832" y="-455.6" font-family="Verdana" font-size="8.00">+ getErrors() : Iterator</text>
<text text-anchor="start" x="832" y="-442.6" font-family="Verdana" font-size="8.00">+ getRules() : Iterator</text>
<text text-anchor="start" x="832" y="-429.6" font-family="Verdana" font-size="8.00">+ getAttribute(name : string) : Iterator</text>
<text text-anchor="start" x="832" y="-416.6" font-family="Verdana" font-size="8.00">+ normalize(data : mixed, format : string, context : array) : bool</text>
<text text-anchor="start" x="832" y="-403.6" font-family="Verdana" font-size="8.00"># getNormalizer(format : string) : ?Bartlett\Sarif\Contract\NormalizerInterface</text>
</g>
<!-- Bartlett\\Sarif\\Converter\\Source\\PhpCsSource&#45;&gt;Bartlett\\Sarif\\Converter\\Source\\AbstractSource -->
<g id="edge4" class="edge">
<title>Bartlett\\Sarif\\Converter\\Source\\PhpCsSource&#45;&gt;Bartlett\\Sarif\\Converter\\Source\\AbstractSource</title>
<path fill="none" stroke="black" d="M990,-764.67C990,-714.94 990,-633.81 990,-570.69"/>
<polygon fill="none" stroke="black" points="993.5,-570.32 990,-560.32 986.5,-570.32 993.5,-570.32"/>
</g>
<!-- Bartlett\\Sarif\\Converter\\Source\\AbstractSource&#45;&gt;Bartlett\\Sarif\\Contract\\SourceInterface -->
<g id="edge3" class="edge">
<title>Bartlett\\Sarif\\Converter\\Source\\AbstractSource&#45;&gt;Bartlett\\Sarif\\Contract\\SourceInterface</title>
<path fill="none" stroke="black" stroke-dasharray="5,2" d="M990,-395.91C990,-326.62 990,-228.23 990,-164.01"/>
<polygon fill="none" stroke="black" points="993.5,-164.01 990,-154.01 986.5,-164.01 993.5,-164.01"/>
</g>
<!-- Bartlett\\Sarif\\Converter\\Normalizer\\PhpCsNormalizer -->
<g id="node8" class="node">
<title>Bartlett\\Sarif\\Converter\\Normalizer\\PhpCsNormalizer</title>
<polygon fill="#fefece" stroke="transparent" points="1613,-854 1341,-854 1341,-768 1613,-768 1613,-854"/>
<polygon fill="#eeeeee" stroke="transparent" points="1341,-832 1341,-854 1613,-854 1613,-832 1341,-832"/>
<polygon fill="none" stroke="black" points="1341,-832 1341,-854 1613,-854 1613,-832 1341,-832"/>
<text text-anchor="start" x="1438" y="-837.6" font-family="Verdana" font-weight="bold" font-size="8.00">PhpCsNormalizer</text>
<polygon fill="none" stroke="black" points="1341,-826 1341,-832 1613,-832 1613,-826 1341,-826"/>
<polygon fill="none" stroke="black" points="1341,-768 1341,-826 1613,-826 1613,-768 1341,-768"/>
<text text-anchor="start" x="1346" y="-814.6" font-family="Verdana" font-size="8.00">+ getSupportedFormats() : array</text>
<text text-anchor="start" x="1346" y="-801.6" font-family="Verdana" font-size="8.00">+ normalize(data, format : string, context : array) : ?ArrayObject</text>
<text text-anchor="start" x="1346" y="-788.6" font-family="Verdana" font-size="8.00"># fromInternal(data, context : array, mapping : array = []) : array</text>
<text text-anchor="start" x="1346" y="-775.6" font-family="Verdana" font-size="8.00">– fromJson(data : string, mapping : array) : array</text>
</g>
<!-- Bartlett\\Sarif\\Converter\\Normalizer\\AbstractNormalizer -->
<g id="node9" class="node">
<title>Bartlett\\Sarif\\Converter\\Normalizer\\AbstractNormalizer</title>
<polygon fill="#fefece" stroke="transparent" points="1629.5,-556.5 1324.5,-556.5 1324.5,-399.5 1629.5,-399.5 1629.5,-556.5"/>
<polygon fill="#eeeeee" stroke="transparent" points="1325,-534 1325,-556 1630,-556 1630,-534 1325,-534"/>
<polygon fill="none" stroke="black" points="1325,-534 1325,-556 1630,-556 1630,-534 1325,-534"/>
<text text-anchor="start" x="1453.5" y="-547.6" font-family="Verdana" font-weight="bold" font-size="8.00">«abstract»</text>
<text text-anchor="start" x="1434" y="-539.6" font-family="Verdana" font-weight="bold" font-size="8.00">AbstractNormalizer</text>
<polygon fill="none" stroke="black" points="1325,-463 1325,-534 1630,-534 1630,-463 1325,-463"/>
<text text-anchor="start" x="1330" y="-522.6" font-family="Verdana" font-size="8.00">+ «static» FORMAT_SARIF : string = &quot;sarif&quot; {readOnly}</text>
<text text-anchor="start" x="1330" y="-509.6" font-family="Verdana" font-size="8.00">+ «static» FORMAT_JSON : string = &quot;json&quot; {readOnly}</text>
<text text-anchor="start" x="1330" y="-496.6" font-family="Verdana" font-size="8.00">+ «static» FORMAT_XML : string = &quot;xml&quot; {readOnly}</text>
<text text-anchor="start" x="1330" y="-483.6" font-family="Verdana" font-size="8.00">+ «static» FORMAT_CHECKSTYLE : string = &quot;checkstyle&quot; {readOnly}</text>
<text text-anchor="start" x="1330" y="-470.6" font-family="Verdana" font-size="8.00">+ «static» FORMAT_INTERNAL : string = &quot;internal&quot; {readOnly}</text>
<polygon fill="none" stroke="black" points="1325,-457 1325,-463 1630,-463 1630,-457 1325,-457"/>
<polygon fill="none" stroke="black" points="1325,-399 1325,-457 1630,-457 1630,-399 1325,-399"/>
<text text-anchor="start" x="1330" y="-445.6" font-family="Verdana" font-size="8.00">+ getSupportedFormats() : array</text>
<text text-anchor="start" x="1330" y="-432.6" font-family="Verdana" font-size="8.00">+ isSupportedFormat(format : string) : bool</text>
<text text-anchor="start" x="1330" y="-419.6" font-family="Verdana" font-size="8.00">+ normalize(data, format : string, context : array) : ?ArrayObject</text>
<text text-anchor="start" x="1330" y="-406.6" font-family="Verdana" font-size="8.00"># fromInternal(data : TData, context : array, mapping : array = []) : array</text>
</g>
<!-- Bartlett\\Sarif\\Converter\\Normalizer\\PhpCsNormalizer&#45;&gt;Bartlett\\Sarif\\Converter\\Normalizer\\AbstractNormalizer -->
<g id="edge6" class="edge">
<title>Bartlett\\Sarif\\Converter\\Normalizer\\PhpCsNormalizer&#45;&gt;Bartlett\\Sarif\\Converter\\Normalizer\\AbstractNormalizer</title>
<path fill="none" stroke="black" d="M1477,-767.74C1477,-717.37 1477,-631.85 1477,-566.92"/>
<polygon fill="none" stroke="black" points="1480.5,-566.69 1477,-556.69 1473.5,-566.69 1480.5,-566.69"/>
</g>
<!-- Bartlett\\Sarif\\Converter\\Normalizer\\AbstractNormalizer&#45;&gt;Bartlett\\Sarif\\Contract\\NormalizerInterface -->
<g id="edge5" class="edge">
<title>Bartlett\\Sarif\\Converter\\Normalizer\\AbstractNormalizer&#45;&gt;Bartlett\\Sarif\\Contract\\NormalizerInterface</title>
<path fill="none" stroke="black" stroke-dasharray="5,2" d="M1448.57,-399.14C1425.2,-335.1 1392.18,-244.67 1368.51,-179.83"/>
<polygon fill="none" stroke="black" points="1371.66,-178.25 1364.94,-170.06 1365.08,-180.65 1371.66,-178.25"/>
</g>
</g>
</svg>
