<?xml version="1.0" encoding="UTF-8" standalone="no"?>
<!DOCTYPE svg PUBLIC "-//W3C//DTD SVG 1.1//EN"
 "http://www.w3.org/Graphics/SVG/1.1/DTD/svg11.dtd">
<!-- Generated by graphviz version 2.43.0 (0)
 -->
<!-- Title: %3 Pages: 1 -->
<svg width="1385pt" height="859pt"
 viewBox="0.00 0.00 1385.00 859.00" xmlns="http://www.w3.org/2000/svg" xmlns:xlink="http://www.w3.org/1999/xlink">
<g id="graph0" class="graph" transform="scale(1 1) rotate(0) translate(4 855)">
<title>%3</title>
<g id="clust1" class="cluster">
<title>cluster_0</title>
<polygon fill="BurlyWood" stroke="black" points="8,-219 8,-843 664,-843 664,-219 8,-219"/>
<text text-anchor="middle" x="336" y="-827.8" font-family="Times,serif" font-size="14.00">Bartlett\Sarif\Converter</text>
</g>
<g id="clust2" class="cluster">
<title>cluster_1</title>
<polygon fill="LightSkyBlue" stroke="black" points="251,-8 251,-211 1369,-211 1369,-8 251,-8"/>
<text text-anchor="middle" x="810" y="-195.8" font-family="Times,serif" font-size="14.00">Bartlett\Sarif\Contract</text>
</g>
<g id="clust3" class="cluster">
<title>cluster_2</title>
<polygon fill="Bisque" stroke="black" points="672,-388 672,-843 1014,-843 1014,-388 672,-388"/>
<text text-anchor="middle" x="843" y="-827.8" font-family="Times,serif" font-size="14.00">Bartlett\Sarif\Converter\Source</text>
</g>
<g id="clust4" class="cluster">
<title>cluster_3</title>
<polygon fill="Bisque" stroke="black" points="1026,-391.5 1026,-837.5 1348,-837.5 1348,-391.5 1026,-391.5"/>
<text text-anchor="middle" x="1187" y="-822.3" font-family="Times,serif" font-size="14.00">Bartlett\Sarif\Converter\Normalizer</text>
</g>
<!-- Bartlett\\Sarif\\Converter\\PhanConverter -->
<g id="node1" class="node">
<title>Bartlett\\Sarif\\Converter\\PhanConverter</title>
<polygon fill="#fefece" stroke="transparent" points="419,-812 253,-812 253,-765 419,-765 419,-812"/>
<polygon fill="#eeeeee" stroke="transparent" points="253,-789.5 253,-811.5 419,-811.5 419,-789.5 253,-789.5"/>
<polygon fill="none" stroke="black" points="253,-789.5 253,-811.5 419,-811.5 419,-789.5 253,-789.5"/>
<text text-anchor="start" x="302" y="-795.1" font-family="Verdana" font-weight="bold" font-size="8.00">PhanConverter</text>
<polygon fill="none" stroke="black" points="253,-783.5 253,-789.5 419,-789.5 419,-783.5 253,-783.5"/>
<polygon fill="none" stroke="black" points="253,-764.5 253,-783.5 419,-783.5 419,-764.5 253,-764.5"/>
<text text-anchor="start" x="258" y="-772.1" font-family="Verdana" font-size="8.00">+ configure(options : array = []) : void</text>
</g>
<!-- Bartlett\\Sarif\\Converter\\AbstractConverter -->
<g id="node2" class="node">
<title>Bartlett\\Sarif\\Converter\\AbstractConverter</title>
<polygon fill="#fefece" stroke="transparent" points="655.5,-729 16.5,-729 16.5,-227 655.5,-227 655.5,-729"/>
<polygon fill="#eeeeee" stroke="transparent" points="17,-707 17,-729 656,-729 656,-707 17,-707"/>
<polygon fill="none" stroke="black" points="17,-707 17,-729 656,-729 656,-707 17,-707"/>
<text text-anchor="start" x="312.5" y="-720.6" font-family="Verdana" font-weight="bold" font-size="8.00">«abstract»</text>
<text text-anchor="start" x="295.5" y="-712.6" font-family="Verdana" font-weight="bold" font-size="8.00">AbstractConverter</text>
<polygon fill="none" stroke="black" points="17,-480 17,-707 656,-707 656,-480 17,-480"/>
<text text-anchor="start" x="22" y="-695.6" font-family="Verdana" font-size="8.00"># toolName</text>
<text text-anchor="start" x="22" y="-682.6" font-family="Verdana" font-size="8.00"># toolFullName</text>
<text text-anchor="start" x="22" y="-669.6" font-family="Verdana" font-size="8.00"># toolShortDescription</text>
<text text-anchor="start" x="22" y="-656.6" font-family="Verdana" font-size="8.00"># toolFullDescription</text>
<text text-anchor="start" x="22" y="-643.6" font-family="Verdana" font-size="8.00"># toolInformationUri</text>
<text text-anchor="start" x="22" y="-630.6" font-family="Verdana" font-size="8.00"># toolComposerPackage</text>
<text text-anchor="start" x="22" y="-617.6" font-family="Verdana" font-size="8.00"># toolSemanticVersion</text>
<text text-anchor="start" x="22" y="-604.6" font-family="Verdana" font-size="8.00"># converterComposerPackage</text>
<text text-anchor="start" x="22" y="-591.6" font-family="Verdana" font-size="8.00"># results : mixed = []</text>
<text text-anchor="start" x="22" y="-578.6" font-family="Verdana" font-size="8.00"># errors : mixed = []</text>
<text text-anchor="start" x="22" y="-565.6" font-family="Verdana" font-size="8.00"># serializer</text>
<text text-anchor="start" x="22" y="-552.6" font-family="Verdana" font-size="8.00"># startTime</text>
<text text-anchor="start" x="22" y="-539.6" font-family="Verdana" font-size="8.00"># endTime</text>
<text text-anchor="start" x="22" y="-526.6" font-family="Verdana" font-size="8.00"># includeCodeSnippets</text>
<text text-anchor="start" x="22" y="-513.6" font-family="Verdana" font-size="8.00"># includeContextRegion</text>
<text text-anchor="start" x="22" y="-500.6" font-family="Verdana" font-size="8.00"># defaultResultLevelIfEmpty</text>
<text text-anchor="start" x="22" y="-487.6" font-family="Verdana" font-size="8.00"># projectDirectory</text>
<polygon fill="none" stroke="black" points="17,-227 17,-480 656,-480 656,-227 17,-227"/>
<text text-anchor="start" x="22" y="-468.6" font-family="Verdana" font-size="8.00">+ __construct(options : array = [], factory : Bartlett\Sarif\Factory\SerializerFactory = «unknown»)</text>
<text text-anchor="start" x="22" y="-455.6" font-family="Verdana" font-size="8.00">+ getName() : string</text>
<text text-anchor="start" x="22" y="-442.6" font-family="Verdana" font-size="8.00">+ configure(options : array) : void</text>
<text text-anchor="start" x="22" y="-429.6" font-family="Verdana" font-size="8.00">+ toolDriver() : Bartlett\Sarif\Definition\ToolComponent</text>
<text text-anchor="start" x="22" y="-416.6" font-family="Verdana" font-size="8.00">+ toolExtensions() : array</text>
<text text-anchor="start" x="22" y="-403.6" font-family="Verdana" font-size="8.00">+ rules(defined : iterable) : array</text>
<text text-anchor="start" x="22" y="-390.6" font-family="Verdana" font-size="8.00">+ results(normalized : iterable) : void</text>
<text text-anchor="start" x="22" y="-377.6" font-family="Verdana" font-size="8.00">+ sarifLog(runs : array = [], version : string = &#39;2\.1\.0&#39;) : ?string</text>
<text text-anchor="start" x="22" y="-364.6" font-family="Verdana" font-size="8.00">+ invocations(properties : Bartlett\Sarif\Definition\PropertyBag = «unknown») : array</text>
<text text-anchor="start" x="22" y="-351.6" font-family="Verdana" font-size="8.00">+ versionControlDetails() : array</text>
<text text-anchor="start" x="22" y="-338.6" font-family="Verdana" font-size="8.00">+ automationDetails() : Bartlett\Sarif\Definition\RunAutomationDetails</text>
<text text-anchor="start" x="22" y="-325.6" font-family="Verdana" font-size="8.00">+ run(invocations : iterable, rules : iterable) : Bartlett\Sarif\Definition\Run</text>
<text text-anchor="start" x="22" y="-312.6" font-family="Verdana" font-size="8.00"># originalUriBaseIdentifiers() : array</text>
<text text-anchor="start" x="22" y="-299.6" font-family="Verdana" font-size="8.00"># getToolVersion(package : string) : string</text>
<text text-anchor="start" x="22" y="-286.6" font-family="Verdana" font-size="8.00"># pathToArtifactLocation(path : string) : string</text>
<text text-anchor="start" x="22" y="-273.6" font-family="Verdana" font-size="8.00"># pathToUri(path : string) : string</text>
<text text-anchor="start" x="22" y="-260.6" font-family="Verdana" font-size="8.00"># getCodeSnippet(filePath : string, lineNumber : int, linesBefore : int, linesAfter : int) : ?string</text>
<text text-anchor="start" x="22" y="-247.6" font-family="Verdana" font-size="8.00"># getSnippetRegion(filePath : string, lineNumber : int, column : int = «unknown», linesBefore : int = 2, linesAfter : int = 2) : Bartlett\Sarif\Definition\Region</text>
<text text-anchor="start" x="22" y="-234.6" font-family="Verdana" font-size="8.00"># getErrors() : Iterator</text>
</g>
<!-- Bartlett\\Sarif\\Converter\\PhanConverter&#45;&gt;Bartlett\\Sarif\\Converter\\AbstractConverter -->
<g id="edge2" class="edge">
<title>Bartlett\\Sarif\\Converter\\PhanConverter&#45;&gt;Bartlett\\Sarif\\Converter\\AbstractConverter</title>
<path fill="none" stroke="black" d="M336,-764.82C336,-757.61 336,-748.95 336,-739.19"/>
<polygon fill="none" stroke="black" points="339.5,-739.08 336,-729.08 332.5,-739.08 339.5,-739.08"/>
</g>
<!-- Bartlett\\Sarif\\Contract\\ConverterInterface -->
<g id="node3" class="node">
<title>Bartlett\\Sarif\\Contract\\ConverterInterface</title>
<polygon fill="#fefece" stroke="transparent" points="663,-180 259,-180 259,-16 663,-16 663,-180"/>
<polygon fill="#eeeeee" stroke="transparent" points="259,-158 259,-180 663,-180 663,-158 259,-158"/>
<polygon fill="none" stroke="black" points="259,-158 259,-180 663,-180 663,-158 259,-158"/>
<text text-anchor="start" x="435" y="-171.6" font-family="Verdana" font-weight="bold" font-size="8.00">«interface»</text>
<text text-anchor="start" x="418.5" y="-163.6" font-family="Verdana" font-weight="bold" font-size="8.00">ConverterInterface</text>
<polygon fill="none" stroke="black" points="259,-152 259,-158 663,-158 663,-152 259,-152"/>
<polygon fill="none" stroke="black" points="259,-16 259,-152 663,-152 663,-16 259,-16"/>
<text text-anchor="start" x="264" y="-140.6" font-family="Verdana" font-size="8.00">+ «abstract» getName() : string</text>
<text text-anchor="start" x="264" y="-127.6" font-family="Verdana" font-size="8.00">+ «abstract» toolDriver() : Bartlett\Sarif\Definition\ToolComponent</text>
<text text-anchor="start" x="264" y="-114.6" font-family="Verdana" font-size="8.00">+ «abstract» toolExtensions() : array</text>
<text text-anchor="start" x="264" y="-101.6" font-family="Verdana" font-size="8.00">+ «abstract» rules(defined : iterable) : array</text>
<text text-anchor="start" x="264" y="-88.6" font-family="Verdana" font-size="8.00">+ «abstract» results(normalized : iterable) : void</text>
<text text-anchor="start" x="264" y="-75.6" font-family="Verdana" font-size="8.00">+ «abstract» invocations(properties : Bartlett\Sarif\Definition\PropertyBag = «unknown») : array</text>
<text text-anchor="start" x="264" y="-62.6" font-family="Verdana" font-size="8.00">+ «abstract» versionControlDetails() : array</text>
<text text-anchor="start" x="264" y="-49.6" font-family="Verdana" font-size="8.00">+ «abstract» automationDetails() : Bartlett\Sarif\Definition\RunAutomationDetails</text>
<text text-anchor="start" x="264" y="-36.6" font-family="Verdana" font-size="8.00">+ «abstract» run(invocations : iterable, rules : iterable) : Bartlett\Sarif\Definition\Run</text>
<text text-anchor="start" x="264" y="-23.6" font-family="Verdana" font-size="8.00">+ «abstract» sarifLog(runs : array = [], version : string = &#39;2\.1\.0&#39;) : ?string</text>
</g>
<!-- Bartlett\\Sarif\\Converter\\AbstractConverter&#45;&gt;Bartlett\\Sarif\\Contract\\ConverterInterface -->
<g id="edge1" class="edge">
<title>Bartlett\\Sarif\\Converter\\AbstractConverter&#45;&gt;Bartlett\\Sarif\\Contract\\ConverterInterface</title>
<path fill="none" stroke="black" stroke-dasharray="5,2" d="M418.68,-226.97C422.94,-214.1 427.05,-201.65 430.94,-189.9"/>
<polygon fill="none" stroke="black" points="434.33,-190.8 434.15,-180.21 427.68,-188.6 434.33,-190.8"/>
</g>
<!-- Bartlett\\Sarif\\Contract\\SourceInterface -->
<g id="node4" class="node">
<title>Bartlett\\Sarif\\Contract\\SourceInterface</title>
<polygon fill="#fefece" stroke="transparent" points="995,-154 681,-154 681,-42 995,-42 995,-154"/>
<polygon fill="#eeeeee" stroke="transparent" points="681,-132 681,-154 995,-154 995,-132 681,-132"/>
<polygon fill="none" stroke="black" points="681,-132 681,-154 995,-154 995,-132 681,-132"/>
<text text-anchor="start" x="812" y="-145.6" font-family="Verdana" font-weight="bold" font-size="8.00">«interface»</text>
<text text-anchor="start" x="802" y="-137.6" font-family="Verdana" font-weight="bold" font-size="8.00">SourceInterface</text>
<polygon fill="none" stroke="black" points="681,-126 681,-132 995,-132 995,-126 681,-126"/>
<polygon fill="none" stroke="black" points="681,-42 681,-126 995,-126 995,-42 681,-42"/>
<text text-anchor="start" x="686" y="-114.6" font-family="Verdana" font-size="8.00">+ «abstract» getName() : string</text>
<text text-anchor="start" x="686" y="-101.6" font-family="Verdana" font-size="8.00">+ «abstract» getFiles() : Iterator</text>
<text text-anchor="start" x="686" y="-88.6" font-family="Verdana" font-size="8.00">+ «abstract» getErrors() : Iterator</text>
<text text-anchor="start" x="686" y="-75.6" font-family="Verdana" font-size="8.00">+ «abstract» getRules() : Iterator</text>
<text text-anchor="start" x="686" y="-62.6" font-family="Verdana" font-size="8.00">+ «abstract» getAttribute(name : string) : Iterator</text>
<text text-anchor="start" x="686" y="-49.6" font-family="Verdana" font-size="8.00">+ «abstract» normalize(data : mixed, format : string, context : array) : bool</text>
</g>
<!-- Bartlett\\Sarif\\Contract\\NormalizerInterface -->
<g id="node5" class="node">
<title>Bartlett\\Sarif\\Contract\\NormalizerInterface</title>
<polygon fill="#fefece" stroke="transparent" points="1361,-170 1013,-170 1013,-26 1361,-26 1361,-170"/>
<polygon fill="#eeeeee" stroke="transparent" points="1013,-148 1013,-170 1361,-170 1361,-148 1013,-148"/>
<polygon fill="none" stroke="black" points="1013,-148 1013,-170 1361,-170 1361,-148 1013,-148"/>
<text text-anchor="start" x="1161" y="-161.6" font-family="Verdana" font-weight="bold" font-size="8.00">«interface»</text>
<text text-anchor="start" x="1142" y="-153.6" font-family="Verdana" font-weight="bold" font-size="8.00">NormalizerInterface</text>
<polygon fill="none" stroke="black" points="1013,-77 1013,-148 1361,-148 1361,-77 1013,-77"/>
<text text-anchor="start" x="1018" y="-136.6" font-family="Verdana" font-size="8.00">+ «static» FORMAT_SARIF : string = &quot;sarif&quot; {readOnly}</text>
<text text-anchor="start" x="1018" y="-123.6" font-family="Verdana" font-size="8.00">+ «static» FORMAT_JSON : string = &quot;json&quot; {readOnly}</text>
<text text-anchor="start" x="1018" y="-110.6" font-family="Verdana" font-size="8.00">+ «static» FORMAT_XML : string = &quot;xml&quot; {readOnly}</text>
<text text-anchor="start" x="1018" y="-97.6" font-family="Verdana" font-size="8.00">+ «static» FORMAT_CHECKSTYLE : string = &quot;checkstyle&quot; {readOnly}</text>
<text text-anchor="start" x="1018" y="-84.6" font-family="Verdana" font-size="8.00">+ «static» FORMAT_INTERNAL : string = &quot;internal&quot; {readOnly}</text>
<polygon fill="none" stroke="black" points="1013,-71 1013,-77 1361,-77 1361,-71 1013,-71"/>
<polygon fill="none" stroke="black" points="1013,-26 1013,-71 1361,-71 1361,-26 1013,-26"/>
<text text-anchor="start" x="1018" y="-59.6" font-family="Verdana" font-size="8.00">+ «abstract» getSupportedFormats() : array</text>
<text text-anchor="start" x="1018" y="-46.6" font-family="Verdana" font-size="8.00">+ «abstract» isSupportedFormat(format : string) : bool</text>
<text text-anchor="start" x="1018" y="-33.6" font-family="Verdana" font-size="8.00">+ «abstract» normalize(data : mixed, format : string, context : array) : ?ArrayObject</text>
</g>
<!-- Bartlett\\Sarif\\Converter\\Source\\PhanSource -->
<g id="node6" class="node">
<title>Bartlett\\Sarif\\Converter\\Source\\PhanSource</title>
<polygon fill="#fefece" stroke="transparent" points="931,-812 755,-812 755,-765 931,-765 931,-812"/>
<polygon fill="#eeeeee" stroke="transparent" points="755,-789.5 755,-811.5 931,-811.5 931,-789.5 755,-789.5"/>
<polygon fill="none" stroke="black" points="755,-789.5 755,-811.5 931,-811.5 931,-789.5 755,-789.5"/>
<text text-anchor="start" x="815.5" y="-795.1" font-family="Verdana" font-weight="bold" font-size="8.00">PhanSource</text>
<polygon fill="none" stroke="black" points="755,-783.5 755,-789.5 931,-789.5 931,-783.5 755,-783.5"/>
<polygon fill="none" stroke="black" points="755,-764.5 755,-783.5 931,-783.5 931,-764.5 755,-764.5"/>
<text text-anchor="start" x="760" y="-772.1" font-family="Verdana" font-size="8.00">+ __construct(normalizers : iterable = [])</text>
</g>
<!-- Bartlett\\Sarif\\Converter\\Source\\AbstractSource -->
<g id="node7" class="node">
<title>Bartlett\\Sarif\\Converter\\Source\\AbstractSource</title>
<polygon fill="#fefece" stroke="transparent" points="1006,-560 680,-560 680,-396 1006,-396 1006,-560"/>
<polygon fill="#eeeeee" stroke="transparent" points="680,-538 680,-560 1006,-560 1006,-538 680,-538"/>
<polygon fill="none" stroke="black" points="680,-538 680,-560 1006,-560 1006,-538 680,-538"/>
<text text-anchor="start" x="819" y="-551.6" font-family="Verdana" font-weight="bold" font-size="8.00">«abstract»</text>
<text text-anchor="start" x="808.5" y="-543.6" font-family="Verdana" font-weight="bold" font-size="8.00">AbstractSource</text>
<polygon fill="none" stroke="black" points="680,-506 680,-538 1006,-538 1006,-506 680,-506"/>
<text text-anchor="start" x="685" y="-526.6" font-family="Verdana" font-size="8.00">– normalizers : mixed</text>
<text text-anchor="start" x="685" y="-513.6" font-family="Verdana" font-size="8.00">– normalized</text>
<polygon fill="none" stroke="black" points="680,-396 680,-506 1006,-506 1006,-396 680,-396"/>
<text text-anchor="start" x="685" y="-494.6" font-family="Verdana" font-size="8.00">+ __construct(normalizers : iterable = [])</text>
<text text-anchor="start" x="685" y="-481.6" font-family="Verdana" font-size="8.00">+ getName() : string</text>
<text text-anchor="start" x="685" y="-468.6" font-family="Verdana" font-size="8.00">+ getFiles() : Iterator</text>
<text text-anchor="start" x="685" y="-455.6" font-family="Verdana" font-size="8.00">+ getErrors() : Iterator</text>
<text text-anchor="start" x="685" y="-442.6" font-family="Verdana" font-size="8.00">+ getRules() : Iterator</text>
<text text-anchor="start" x="685" y="-429.6" font-family="Verdana" font-size="8.00">+ getAttribute(name : string) : Iterator</text>
<text text-anchor="start" x="685" y="-416.6" font-family="Verdana" font-size="8.00">+ normalize(data : mixed, format : string, context : array) : bool</text>
<text text-anchor="start" x="685" y="-403.6" font-family="Verdana" font-size="8.00"># getNormalizer(format : string) : ?Bartlett\Sarif\Contract\NormalizerInterface</text>
</g>
<!-- Bartlett\\Sarif\\Converter\\Source\\PhanSource&#45;&gt;Bartlett\\Sarif\\Converter\\Source\\AbstractSource -->
<g id="edge4" class="edge">
<title>Bartlett\\Sarif\\Converter\\Source\\PhanSource&#45;&gt;Bartlett\\Sarif\\Converter\\Source\\AbstractSource</title>
<path fill="none" stroke="black" d="M843,-764.82C843,-724.38 843,-637.78 843,-570.44"/>
<polygon fill="none" stroke="black" points="846.5,-570.23 843,-560.23 839.5,-570.23 846.5,-570.23"/>
</g>
<!-- Bartlett\\Sarif\\Converter\\Source\\AbstractSource&#45;&gt;Bartlett\\Sarif\\Contract\\SourceInterface -->
<g id="edge3" class="edge">
<title>Bartlett\\Sarif\\Converter\\Source\\AbstractSource&#45;&gt;Bartlett\\Sarif\\Contract\\SourceInterface</title>
<path fill="none" stroke="black" stroke-dasharray="5,2" d="M841.93,-395.91C841.01,-326.62 839.71,-228.23 838.86,-164.01"/>
<polygon fill="none" stroke="black" points="842.36,-163.96 838.73,-154.01 835.36,-164.05 842.36,-163.96"/>
</g>
<!-- Bartlett\\Sarif\\Converter\\Normalizer\\PhanNormalizer -->
<g id="node8" class="node">
<title>Bartlett\\Sarif\\Converter\\Normalizer\\PhanNormalizer</title>
<polygon fill="#fefece" stroke="transparent" points="1226.5,-806.5 1147.5,-806.5 1147.5,-770.5 1226.5,-770.5 1226.5,-806.5"/>
<polygon fill="#eeeeee" stroke="transparent" points="1148,-783.5 1148,-805.5 1227,-805.5 1227,-783.5 1148,-783.5"/>
<polygon fill="none" stroke="black" points="1148,-783.5 1148,-805.5 1227,-805.5 1227,-783.5 1148,-783.5"/>
<text text-anchor="start" x="1151" y="-789.1" font-family="Verdana" font-weight="bold" font-size="8.00">PhanNormalizer</text>
<polygon fill="none" stroke="black" points="1148,-777.5 1148,-783.5 1227,-783.5 1227,-777.5 1148,-777.5"/>
<polygon fill="none" stroke="black" points="1148,-771.5 1148,-777.5 1227,-777.5 1227,-771.5 1148,-771.5"/>
</g>
<!-- Bartlett\\Sarif\\Converter\\Normalizer\\AbstractNormalizer -->
<g id="node9" class="node">
<title>Bartlett\\Sarif\\Converter\\Normalizer\\AbstractNormalizer</title>
<polygon fill="#fefece" stroke="transparent" points="1339.5,-556.5 1034.5,-556.5 1034.5,-399.5 1339.5,-399.5 1339.5,-556.5"/>
<polygon fill="#eeeeee" stroke="transparent" points="1035,-534 1035,-556 1340,-556 1340,-534 1035,-534"/>
<polygon fill="none" stroke="black" points="1035,-534 1035,-556 1340,-556 1340,-534 1035,-534"/>
<text text-anchor="start" x="1163.5" y="-547.6" font-family="Verdana" font-weight="bold" font-size="8.00">«abstract»</text>
<text text-anchor="start" x="1144" y="-539.6" font-family="Verdana" font-weight="bold" font-size="8.00">AbstractNormalizer</text>
<polygon fill="none" stroke="black" points="1035,-463 1035,-534 1340,-534 1340,-463 1035,-463"/>
<text text-anchor="start" x="1040" y="-522.6" font-family="Verdana" font-size="8.00">+ «static» FORMAT_SARIF : string = &quot;sarif&quot; {readOnly}</text>
<text text-anchor="start" x="1040" y="-509.6" font-family="Verdana" font-size="8.00">+ «static» FORMAT_JSON : string = &quot;json&quot; {readOnly}</text>
<text text-anchor="start" x="1040" y="-496.6" font-family="Verdana" font-size="8.00">+ «static» FORMAT_XML : string = &quot;xml&quot; {readOnly}</text>
<text text-anchor="start" x="1040" y="-483.6" font-family="Verdana" font-size="8.00">+ «static» FORMAT_CHECKSTYLE : string = &quot;checkstyle&quot; {readOnly}</text>
<text text-anchor="start" x="1040" y="-470.6" font-family="Verdana" font-size="8.00">+ «static» FORMAT_INTERNAL : string = &quot;internal&quot; {readOnly}</text>
<polygon fill="none" stroke="black" points="1035,-457 1035,-463 1340,-463 1340,-457 1035,-457"/>
<polygon fill="none" stroke="black" points="1035,-399 1035,-457 1340,-457 1340,-399 1035,-399"/>
<text text-anchor="start" x="1040" y="-445.6" font-family="Verdana" font-size="8.00">+ getSupportedFormats() : array</text>
<text text-anchor="start" x="1040" y="-432.6" font-family="Verdana" font-size="8.00">+ isSupportedFormat(format : string) : bool</text>
<text text-anchor="start" x="1040" y="-419.6" font-family="Verdana" font-size="8.00">+ normalize(data, format : string, context : array) : ?ArrayObject</text>
<text text-anchor="start" x="1040" y="-406.6" font-family="Verdana" font-size="8.00"># fromInternal(data : TData, context : array, mapping : array = []) : array</text>
</g>
<!-- Bartlett\\Sarif\\Converter\\Normalizer\\PhanNormalizer&#45;&gt;Bartlett\\Sarif\\Converter\\Normalizer\\AbstractNormalizer -->
<g id="edge6" class="edge">
<title>Bartlett\\Sarif\\Converter\\Normalizer\\PhanNormalizer&#45;&gt;Bartlett\\Sarif\\Converter\\Normalizer\\AbstractNormalizer</title>
<path fill="none" stroke="black" d="M1187,-770.47C1187,-732.37 1187,-637.98 1187,-566.86"/>
<polygon fill="none" stroke="black" points="1190.5,-566.55 1187,-556.55 1183.5,-566.55 1190.5,-566.55"/>
</g>
<!-- Bartlett\\Sarif\\Converter\\Normalizer\\AbstractNormalizer&#45;&gt;Bartlett\\Sarif\\Contract\\NormalizerInterface -->
<g id="edge5" class="edge">
<title>Bartlett\\Sarif\\Converter\\Normalizer\\AbstractNormalizer&#45;&gt;Bartlett\\Sarif\\Contract\\NormalizerInterface</title>
<path fill="none" stroke="black" stroke-dasharray="5,2" d="M1187,-399.14C1187,-335.23 1187,-245.04 1187,-180.23"/>
<polygon fill="none" stroke="black" points="1190.5,-180.06 1187,-170.06 1183.5,-180.06 1190.5,-180.06"/>
</g>
</g>
</svg>
