<?xml version="1.0" encoding="UTF-8" standalone="no"?>
<!DOCTYPE svg PUBLIC "-//W3C//DTD SVG 1.1//EN"
 "http://www.w3.org/Graphics/SVG/1.1/DTD/svg11.dtd">
<!-- Generated by graphviz version 2.43.0 (0)
 -->
<!-- Title: %3 Pages: 1 -->
<svg width="1163pt" height="750pt"
 viewBox="0.00 0.00 1162.97 750.00" xmlns="http://www.w3.org/2000/svg" xmlns:xlink="http://www.w3.org/1999/xlink">
<g id="graph0" class="graph" transform="scale(1 1) rotate(0) translate(4 746)">
<title>%3</title>
<polygon fill="white" stroke="transparent" points="-4,4 -4,-746 1158.97,-746 1158.97,4 -4,4"/>
<!-- bartlett/sarif&#45;php&#45;converters -->
<g id="node1" class="node">
<title>bartlett/sarif&#45;php&#45;converters</title>
<ellipse fill="lightgrey" stroke="black" stroke-width="2" cx="142.99" cy="-510" rx="142.97" ry="18"/>
<text text-anchor="middle" x="142.99" y="-506.3" font-family="Times,serif" font-size="14.00">bartlett/sarif&#45;php&#45;converters</text>
</g>
<!-- php -->
<g id="node2" class="node">
<title>php</title>
<path fill="#eeeeee" stroke="black" d="M1013.47,-433C1013.47,-433 983.47,-433 983.47,-433 977.47,-433 971.47,-427 971.47,-421 971.47,-421 971.47,-409 971.47,-409 971.47,-403 977.47,-397 983.47,-397 983.47,-397 1013.47,-397 1013.47,-397 1019.47,-397 1025.47,-403 1025.47,-409 1025.47,-409 1025.47,-421 1025.47,-421 1025.47,-427 1019.47,-433 1013.47,-433"/>
<text text-anchor="middle" x="998.47" y="-411.3" font-family="Times,serif" font-size="14.00" fill="#314b5f">php</text>
</g>
<!-- bartlett/sarif&#45;php&#45;converters&#45;&gt;php -->
<g id="edge1" class="edge">
<title>bartlett/sarif&#45;php&#45;converters&#45;&gt;php</title>
<path fill="none" stroke="#1a2833" d="M186.35,-492.69C233.1,-474.53 311,-446.97 380.97,-435 493.57,-415.73 846.65,-414.69 961.2,-414.88"/>
<polygon fill="#1a2833" stroke="#1a2833" points="961.21,-418.38 971.22,-414.9 961.22,-411.38 961.21,-418.38"/>
<text text-anchor="middle" x="559.47" y="-438" font-family="Times,serif" font-size="10.00" fill="#767676">^8.2</text>
</g>
<!-- ext&#45;json -->
<g id="node3" class="node">
<title>ext&#45;json</title>
<path fill="#eeeeee" stroke="black" d="M1022.97,-736C1022.97,-736 973.97,-736 973.97,-736 967.97,-736 961.97,-730 961.97,-724 961.97,-724 961.97,-712 961.97,-712 961.97,-706 967.97,-700 973.97,-700 973.97,-700 1022.97,-700 1022.97,-700 1028.97,-700 1034.97,-706 1034.97,-712 1034.97,-712 1034.97,-724 1034.97,-724 1034.97,-730 1028.97,-736 1022.97,-736"/>
<text text-anchor="middle" x="998.47" y="-714.3" font-family="Times,serif" font-size="14.00" fill="#314b5f">ext&#45;json</text>
</g>
<!-- bartlett/sarif&#45;php&#45;converters&#45;&gt;ext&#45;json -->
<g id="edge2" class="edge">
<title>bartlett/sarif&#45;php&#45;converters&#45;&gt;ext&#45;json</title>
<path fill="none" stroke="#1a2833" d="M156.9,-528.09C181.76,-561.69 239.54,-634.12 303.97,-676 334.51,-695.84 345.22,-697.11 380.97,-704 591.1,-744.49 848.94,-730.29 951.88,-722.11"/>
<polygon fill="#1a2833" stroke="#1a2833" points="952.25,-725.6 961.93,-721.3 951.68,-718.62 952.25,-725.6"/>
<text text-anchor="middle" x="559.47" y="-734" font-family="Times,serif" font-size="10.00" fill="#767676">*</text>
</g>
<!-- ext&#45;pcre -->
<g id="node4" class="node">
<title>ext&#45;pcre</title>
<path fill="#eeeeee" stroke="black" d="M1023.97,-678C1023.97,-678 972.97,-678 972.97,-678 966.97,-678 960.97,-672 960.97,-666 960.97,-666 960.97,-654 960.97,-654 960.97,-648 966.97,-642 972.97,-642 972.97,-642 1023.97,-642 1023.97,-642 1029.97,-642 1035.97,-648 1035.97,-654 1035.97,-654 1035.97,-666 1035.97,-666 1035.97,-672 1029.97,-678 1023.97,-678"/>
<text text-anchor="middle" x="998.47" y="-656.3" font-family="Times,serif" font-size="14.00" fill="#314b5f">ext&#45;pcre</text>
</g>
<!-- bartlett/sarif&#45;php&#45;converters&#45;&gt;ext&#45;pcre -->
<g id="edge3" class="edge">
<title>bartlett/sarif&#45;php&#45;converters&#45;&gt;ext&#45;pcre</title>
<path fill="none" stroke="#1a2833" d="M180.78,-527.5C226.57,-548.45 307.7,-582.84 380.97,-600 436.02,-612.89 816.56,-645.08 950.76,-656.17"/>
<polygon fill="#1a2833" stroke="#1a2833" points="950.48,-659.66 960.74,-657 951.06,-652.69 950.48,-659.66"/>
<text text-anchor="middle" x="559.47" y="-640" font-family="Times,serif" font-size="10.00" fill="#767676">*</text>
</g>
<!-- ext&#45;spl -->
<g id="node5" class="node">
<title>ext&#45;spl</title>
<path fill="#eeeeee" stroke="black" d="M1018.97,-615C1018.97,-615 977.97,-615 977.97,-615 971.97,-615 965.97,-609 965.97,-603 965.97,-603 965.97,-591 965.97,-591 965.97,-585 971.97,-579 977.97,-579 977.97,-579 1018.97,-579 1018.97,-579 1024.97,-579 1030.97,-585 1030.97,-591 1030.97,-591 1030.97,-603 1030.97,-603 1030.97,-609 1024.97,-615 1018.97,-615"/>
<text text-anchor="middle" x="998.47" y="-593.3" font-family="Times,serif" font-size="14.00" fill="#314b5f">ext&#45;spl</text>
</g>
<!-- bartlett/sarif&#45;php&#45;converters&#45;&gt;ext&#45;spl -->
<g id="edge4" class="edge">
<title>bartlett/sarif&#45;php&#45;converters&#45;&gt;ext&#45;spl</title>
<path fill="none" stroke="#1a2833" d="M215.73,-525.52C262.56,-535.11 325.14,-546.89 380.97,-554 596.11,-581.38 855.87,-592.33 955.65,-595.73"/>
<polygon fill="#1a2833" stroke="#1a2833" points="955.8,-599.23 965.91,-596.07 956.03,-592.24 955.8,-599.23"/>
<text text-anchor="middle" x="559.47" y="-588" font-family="Times,serif" font-size="10.00" fill="#767676">*</text>
</g>
<!-- composer&#45;runtime&#45;api -->
<g id="node6" class="node">
<title>composer&#45;runtime&#45;api</title>
<path fill="#eeeeee" stroke="black" d="M633.97,-545C633.97,-545 484.97,-545 484.97,-545 478.97,-545 472.97,-539 472.97,-533 472.97,-533 472.97,-521 472.97,-521 472.97,-515 478.97,-509 484.97,-509 484.97,-509 633.97,-509 633.97,-509 639.97,-509 645.97,-515 645.97,-521 645.97,-521 645.97,-533 645.97,-533 645.97,-539 639.97,-545 633.97,-545"/>
<text text-anchor="middle" x="559.47" y="-523.3" font-family="Times,serif" font-size="14.00" fill="#314b5f">composer&#45;runtime&#45;api</text>
</g>
<!-- bartlett/sarif&#45;php&#45;converters&#45;&gt;composer&#45;runtime&#45;api -->
<g id="edge5" class="edge">
<title>bartlett/sarif&#45;php&#45;converters&#45;&gt;composer&#45;runtime&#45;api</title>
<path fill="none" stroke="#1a2833" d="M279.13,-515.54C339.07,-518 408.2,-520.84 462.69,-523.07"/>
<polygon fill="#1a2833" stroke="#1a2833" points="462.55,-526.57 472.69,-523.48 462.84,-519.57 462.55,-526.57"/>
<text text-anchor="middle" x="333.47" y="-521" font-family="Times,serif" font-size="10.00" fill="#767676">^2.0</text>
</g>
<!-- bartlett/sarif&#45;php&#45;sdk -->
<g id="node7" class="node">
<title>bartlett/sarif&#45;php&#45;sdk</title>
<path fill="#eeeeee" stroke="black" d="M653.97,-695C653.97,-695 464.97,-695 464.97,-695 458.97,-695 452.97,-689 452.97,-683 452.97,-683 452.97,-671 452.97,-671 452.97,-665 458.97,-659 464.97,-659 464.97,-659 653.97,-659 653.97,-659 659.97,-659 665.97,-665 665.97,-671 665.97,-671 665.97,-683 665.97,-683 665.97,-689 659.97,-695 653.97,-695"/>
<text text-anchor="middle" x="559.47" y="-673.3" font-family="Times,serif" font-size="14.00" fill="#314b5f">bartlett/sarif&#45;php&#45;sdk: 2.2.1</text>
</g>
<!-- bartlett/sarif&#45;php&#45;converters&#45;&gt;bartlett/sarif&#45;php&#45;sdk -->
<g id="edge10" class="edge">
<title>bartlett/sarif&#45;php&#45;converters&#45;&gt;bartlett/sarif&#45;php&#45;sdk</title>
<path fill="none" stroke="#1a2833" d="M159.07,-528.03C185.16,-557.84 241.92,-616.8 303.97,-644 347.03,-662.87 397.83,-671.79 442.68,-675.76"/>
<polygon fill="#1a2833" stroke="#1a2833" points="442.5,-679.26 452.75,-676.58 443.06,-672.28 442.5,-679.26"/>
<text text-anchor="middle" x="333.47" y="-664" font-family="Times,serif" font-size="10.00" fill="#767676">^2.2</text>
</g>
<!-- bamarni/composer&#45;bin&#45;plugin -->
<g id="node8" class="node">
<title>bamarni/composer&#45;bin&#45;plugin</title>
<path fill="#eeeeee" stroke="black" d="M682.97,-491C682.97,-491 435.97,-491 435.97,-491 429.97,-491 423.97,-485 423.97,-479 423.97,-479 423.97,-467 423.97,-467 423.97,-461 429.97,-455 435.97,-455 435.97,-455 682.97,-455 682.97,-455 688.97,-455 694.97,-461 694.97,-467 694.97,-467 694.97,-479 694.97,-479 694.97,-485 688.97,-491 682.97,-491"/>
<text text-anchor="middle" x="559.47" y="-469.3" font-family="Times,serif" font-size="14.00" fill="#314b5f">bamarni/composer&#45;bin&#45;plugin: 1.9.0</text>
</g>
<!-- bartlett/sarif&#45;php&#45;converters&#45;&gt;bamarni/composer&#45;bin&#45;plugin -->
<g id="edge13" class="edge">
<title>bartlett/sarif&#45;php&#45;converters&#45;&gt;bamarni/composer&#45;bin&#45;plugin</title>
<path fill="none" stroke="#1a2833" stroke-dasharray="5,2" d="M260,-499.64C307.71,-495.39 363.48,-490.41 413.82,-485.91"/>
<polygon fill="#1a2833" stroke="#1a2833" points="414.16,-489.4 423.81,-485.02 413.53,-482.42 414.16,-489.4"/>
<text text-anchor="middle" x="333.47" y="-497" font-family="Times,serif" font-size="10.00" fill="#767676">^1.8</text>
</g>
<!-- jawira/case&#45;converter -->
<g id="node10" class="node">
<title>jawira/case&#45;converter</title>
<path fill="#eeeeee" stroke="black" d="M659.47,-390C659.47,-390 459.47,-390 459.47,-390 453.47,-390 447.47,-384 447.47,-378 447.47,-378 447.47,-366 447.47,-366 447.47,-360 453.47,-354 459.47,-354 459.47,-354 659.47,-354 659.47,-354 665.47,-354 671.47,-360 671.47,-366 671.47,-366 671.47,-378 671.47,-378 671.47,-384 665.47,-390 659.47,-390"/>
<text text-anchor="middle" x="559.47" y="-368.3" font-family="Times,serif" font-size="14.00" fill="#314b5f">jawira/case&#45;converter: v3.6.0</text>
</g>
<!-- bartlett/sarif&#45;php&#45;converters&#45;&gt;jawira/case&#45;converter -->
<g id="edge16" class="edge">
<title>bartlett/sarif&#45;php&#45;converters&#45;&gt;jawira/case&#45;converter</title>
<path fill="none" stroke="#1a2833" stroke-dasharray="5,2" d="M163.4,-492.04C191.83,-466.9 247.58,-421.95 303.97,-401 345.93,-385.41 394.24,-377.59 437.42,-373.85"/>
<polygon fill="#1a2833" stroke="#1a2833" points="437.73,-377.34 447.42,-373.05 437.17,-370.36 437.73,-377.34"/>
<text text-anchor="middle" x="333.47" y="-404" font-family="Times,serif" font-size="10.00" fill="#767676">^3.6</text>
</g>
<!-- php&#45;parallel&#45;lint/php&#45;console&#45;highlighter -->
<g id="node12" class="node">
<title>php&#45;parallel&#45;lint/php&#45;console&#45;highlighter</title>
<path fill="#eeeeee" stroke="black" d="M725.97,-326C725.97,-326 392.97,-326 392.97,-326 386.97,-326 380.97,-320 380.97,-314 380.97,-314 380.97,-302 380.97,-302 380.97,-296 386.97,-290 392.97,-290 392.97,-290 725.97,-290 725.97,-290 731.97,-290 737.97,-296 737.97,-302 737.97,-302 737.97,-314 737.97,-314 737.97,-320 731.97,-326 725.97,-326"/>
<text text-anchor="middle" x="559.47" y="-304.3" font-family="Times,serif" font-size="14.00" fill="#314b5f">php&#45;parallel&#45;lint/php&#45;console&#45;highlighter: v1.0.0</text>
</g>
<!-- bartlett/sarif&#45;php&#45;converters&#45;&gt;php&#45;parallel&#45;lint/php&#45;console&#45;highlighter -->
<g id="edge20" class="edge">
<title>bartlett/sarif&#45;php&#45;converters&#45;&gt;php&#45;parallel&#45;lint/php&#45;console&#45;highlighter</title>
<path fill="none" stroke="#1a2833" stroke-dasharray="5,2" d="M159.94,-491.92C186.87,-462.44 244.28,-403.9 303.97,-370 337.74,-350.83 377.28,-337.55 415,-328.37"/>
<polygon fill="#1a2833" stroke="#1a2833" points="416.13,-331.7 425.06,-326 414.53,-324.88 416.13,-331.7"/>
<text text-anchor="middle" x="333.47" y="-373" font-family="Times,serif" font-size="10.00" fill="#767676">^1.0</text>
</g>
<!-- symfony/console -->
<g id="node15" class="node">
<title>symfony/console</title>
<path fill="#eeeeee" stroke="black" d="M641.47,-171C641.47,-171 477.47,-171 477.47,-171 471.47,-171 465.47,-165 465.47,-159 465.47,-159 465.47,-147 465.47,-147 465.47,-141 471.47,-135 477.47,-135 477.47,-135 641.47,-135 641.47,-135 647.47,-135 653.47,-141 653.47,-147 653.47,-147 653.47,-159 653.47,-159 653.47,-165 647.47,-171 641.47,-171"/>
<text text-anchor="middle" x="559.47" y="-149.3" font-family="Times,serif" font-size="14.00" fill="#314b5f">symfony/console: v7.4.4</text>
</g>
<!-- bartlett/sarif&#45;php&#45;converters&#45;&gt;symfony/console -->
<g id="edge26" class="edge">
<title>bartlett/sarif&#45;php&#45;converters&#45;&gt;symfony/console</title>
<path fill="none" stroke="#1a2833" stroke-dasharray="5,2" d="M157.49,-492.01C183.56,-457.93 243.6,-382.6 303.97,-329 374.04,-266.8 466.77,-207.66 518.75,-176.28"/>
<polygon fill="#1a2833" stroke="#1a2833" points="520.58,-179.27 527.35,-171.12 516.98,-173.27 520.58,-179.27"/>
<text text-anchor="middle" x="333.47" y="-332" font-family="Times,serif" font-size="10.00" fill="#767676">^7.0 || ^8.0</text>
</g>
<!-- bartlett/sarif&#45;php&#45;sdk&#45;&gt;php -->
<g id="edge9" class="edge">
<title>bartlett/sarif&#45;php&#45;sdk&#45;&gt;php</title>
<path fill="none" stroke="#1a2833" d="M666.33,-673.09C691.5,-668.22 717.08,-659.65 737.97,-645 751.02,-635.85 747.92,-627.75 755.97,-614 785.99,-562.77 794.64,-550.63 823.97,-499 832.23,-484.47 829.13,-476.69 841.97,-466 876.31,-437.42 927.13,-424.71 961.23,-419.15"/>
<polygon fill="#1a2833" stroke="#1a2833" points="961.87,-422.6 971.24,-417.65 960.83,-415.67 961.87,-422.6"/>
<text text-anchor="middle" x="789.97" y="-617" font-family="Times,serif" font-size="10.00" fill="#767676">^8.2</text>
</g>
<!-- bartlett/sarif&#45;php&#45;sdk&#45;&gt;ext&#45;json -->
<g id="edge6" class="edge">
<title>bartlett/sarif&#45;php&#45;sdk&#45;&gt;ext&#45;json</title>
<path fill="none" stroke="#1a2833" d="M665.98,-686.9C757.09,-695.45 884.35,-707.39 951.61,-713.7"/>
<polygon fill="#1a2833" stroke="#1a2833" points="951.59,-717.21 961.87,-714.66 952.24,-710.24 951.59,-717.21"/>
<text text-anchor="middle" x="789.97" y="-704" font-family="Times,serif" font-size="10.00" fill="#767676">*</text>
</g>
<!-- bartlett/sarif&#45;php&#45;sdk&#45;&gt;ext&#45;pcre -->
<g id="edge7" class="edge">
<title>bartlett/sarif&#45;php&#45;sdk&#45;&gt;ext&#45;pcre</title>
<path fill="none" stroke="#1a2833" d="M665.98,-672.9C756.61,-669.37 883.01,-664.45 950.54,-661.83"/>
<polygon fill="#1a2833" stroke="#1a2833" points="951,-665.31 960.86,-661.42 950.73,-658.32 951,-665.31"/>
<text text-anchor="middle" x="789.97" y="-672" font-family="Times,serif" font-size="10.00" fill="#767676">*</text>
</g>
<!-- bartlett/sarif&#45;php&#45;sdk&#45;&gt;ext&#45;spl -->
<g id="edge8" class="edge">
<title>bartlett/sarif&#45;php&#45;sdk&#45;&gt;ext&#45;spl</title>
<path fill="none" stroke="#1a2833" d="M660.93,-658.97C686.09,-654.43 713.02,-649.56 737.97,-645 814.93,-630.95 904.66,-614.29 955.9,-604.75"/>
<polygon fill="#1a2833" stroke="#1a2833" points="956.74,-608.15 965.93,-602.88 955.45,-601.27 956.74,-608.15"/>
<text text-anchor="middle" x="789.97" y="-644" font-family="Times,serif" font-size="10.00" fill="#767676">*</text>
</g>
<!-- bamarni/composer&#45;bin&#45;plugin&#45;&gt;php -->
<g id="edge12" class="edge">
<title>bamarni/composer&#45;bin&#45;plugin&#45;&gt;php</title>
<path fill="none" stroke="#1a2833" d="M695.15,-455.12C787.47,-442.87 903.3,-427.5 961.13,-419.82"/>
<polygon fill="#1a2833" stroke="#1a2833" points="961.78,-423.27 971.23,-418.48 960.86,-416.33 961.78,-423.27"/>
<text text-anchor="middle" x="789.97" y="-448" font-family="Times,serif" font-size="10.00" fill="#767676">^7.2.5 || ^8.0</text>
</g>
<!-- composer&#45;plugin&#45;api -->
<g id="node9" class="node">
<title>composer&#45;plugin&#45;api</title>
<path fill="#eeeeee" stroke="black" d="M1066.97,-511C1066.97,-511 929.97,-511 929.97,-511 923.97,-511 917.97,-505 917.97,-499 917.97,-499 917.97,-487 917.97,-487 917.97,-481 923.97,-475 929.97,-475 929.97,-475 1066.97,-475 1066.97,-475 1072.97,-475 1078.97,-481 1078.97,-487 1078.97,-487 1078.97,-499 1078.97,-499 1078.97,-505 1072.97,-511 1066.97,-511"/>
<text text-anchor="middle" x="998.47" y="-489.3" font-family="Times,serif" font-size="14.00" fill="#314b5f">composer&#45;plugin&#45;api</text>
</g>
<!-- bamarni/composer&#45;bin&#45;plugin&#45;&gt;composer&#45;plugin&#45;api -->
<g id="edge11" class="edge">
<title>bamarni/composer&#45;bin&#45;plugin&#45;&gt;composer&#45;plugin&#45;api</title>
<path fill="none" stroke="#1a2833" d="M695.15,-479.16C764.28,-482.33 846.61,-486.1 907.88,-488.9"/>
<polygon fill="#1a2833" stroke="#1a2833" points="907.76,-492.4 917.91,-489.36 908.08,-485.41 907.76,-492.4"/>
<text text-anchor="middle" x="789.97" y="-487" font-family="Times,serif" font-size="10.00" fill="#767676">^2.0</text>
</g>
<!-- jawira/case&#45;converter&#45;&gt;php -->
<g id="edge15" class="edge">
<title>jawira/case&#45;converter&#45;&gt;php</title>
<path fill="none" stroke="#1a2833" d="M671.6,-382.93C766.73,-392.3 898.02,-405.21 960.95,-411.41"/>
<polygon fill="#1a2833" stroke="#1a2833" points="960.88,-414.92 971.17,-412.41 961.56,-407.95 960.88,-414.92"/>
<text text-anchor="middle" x="789.97" y="-400" font-family="Times,serif" font-size="10.00" fill="#767676">&gt;=7.4</text>
</g>
<!-- ext&#45;mbstring -->
<g id="node11" class="node">
<title>ext&#45;mbstring</title>
<path fill="#eeeeee" stroke="black" d="M1040.97,-367C1040.97,-367 955.97,-367 955.97,-367 949.97,-367 943.97,-361 943.97,-355 943.97,-355 943.97,-343 943.97,-343 943.97,-337 949.97,-331 955.97,-331 955.97,-331 1040.97,-331 1040.97,-331 1046.97,-331 1052.97,-337 1052.97,-343 1052.97,-343 1052.97,-355 1052.97,-355 1052.97,-361 1046.97,-367 1040.97,-367"/>
<text text-anchor="middle" x="998.47" y="-345.3" font-family="Times,serif" font-size="14.00" fill="#314b5f">ext&#45;mbstring</text>
</g>
<!-- jawira/case&#45;converter&#45;&gt;ext&#45;mbstring -->
<g id="edge14" class="edge">
<title>jawira/case&#45;converter&#45;&gt;ext&#45;mbstring</title>
<path fill="none" stroke="#1a2833" d="M633.3,-353.92C669.86,-345.76 714.99,-337.05 755.97,-333 786.05,-330.03 793.78,-331.61 823.97,-333 860.24,-334.67 900.63,-338.29 933.31,-341.66"/>
<polygon fill="#1a2833" stroke="#1a2833" points="933.33,-345.19 943.64,-342.75 934.06,-338.22 933.33,-345.19"/>
<text text-anchor="middle" x="789.97" y="-336" font-family="Times,serif" font-size="10.00" fill="#767676">*</text>
</g>
<!-- php&#45;parallel&#45;lint/php&#45;console&#45;highlighter&#45;&gt;php -->
<g id="edge18" class="edge">
<title>php&#45;parallel&#45;lint/php&#45;console&#45;highlighter&#45;&gt;php</title>
<path fill="none" stroke="#1a2833" d="M654.31,-326.02C681.42,-331.64 710.97,-338.17 737.97,-345 784.74,-356.82 795.46,-363.24 841.97,-376 882.61,-387.15 929.56,-398.75 961.15,-406.37"/>
<polygon fill="#1a2833" stroke="#1a2833" points="960.7,-409.86 971.25,-408.79 962.34,-403.05 960.7,-409.86"/>
<text text-anchor="middle" x="789.97" y="-373" font-family="Times,serif" font-size="10.00" fill="#767676">&gt;=5.3.2</text>
</g>
<!-- ext&#45;tokenizer -->
<g id="node13" class="node">
<title>ext&#45;tokenizer</title>
<path fill="#eeeeee" stroke="black" d="M1041.47,-313C1041.47,-313 955.47,-313 955.47,-313 949.47,-313 943.47,-307 943.47,-301 943.47,-301 943.47,-289 943.47,-289 943.47,-283 949.47,-277 955.47,-277 955.47,-277 1041.47,-277 1041.47,-277 1047.47,-277 1053.47,-283 1053.47,-289 1053.47,-289 1053.47,-301 1053.47,-301 1053.47,-307 1047.47,-313 1041.47,-313"/>
<text text-anchor="middle" x="998.47" y="-291.3" font-family="Times,serif" font-size="14.00" fill="#314b5f">ext&#45;tokenizer</text>
</g>
<!-- php&#45;parallel&#45;lint/php&#45;console&#45;highlighter&#45;&gt;ext&#45;tokenizer -->
<g id="edge17" class="edge">
<title>php&#45;parallel&#45;lint/php&#45;console&#45;highlighter&#45;&gt;ext&#45;tokenizer</title>
<path fill="none" stroke="#1a2833" d="M738.15,-299.6C744.16,-299.38 750.12,-299.18 755.97,-299 816.04,-297.12 884.53,-296.09 933.2,-295.55"/>
<polygon fill="#1a2833" stroke="#1a2833" points="933.31,-299.05 943.27,-295.44 933.24,-292.05 933.31,-299.05"/>
<text text-anchor="middle" x="789.97" y="-302" font-family="Times,serif" font-size="10.00" fill="#767676">*</text>
</g>
<!-- php&#45;parallel&#45;lint/php&#45;console&#45;color -->
<g id="node14" class="node">
<title>php&#45;parallel&#45;lint/php&#45;console&#45;color</title>
<path fill="#eeeeee" stroke="black" d="M1142.97,-252C1142.97,-252 853.97,-252 853.97,-252 847.97,-252 841.97,-246 841.97,-240 841.97,-240 841.97,-228 841.97,-228 841.97,-222 847.97,-216 853.97,-216 853.97,-216 1142.97,-216 1142.97,-216 1148.97,-216 1154.97,-222 1154.97,-228 1154.97,-228 1154.97,-240 1154.97,-240 1154.97,-246 1148.97,-252 1142.97,-252"/>
<text text-anchor="middle" x="998.47" y="-230.3" font-family="Times,serif" font-size="14.00" fill="#314b5f">php&#45;parallel&#45;lint/php&#45;console&#45;color: v1.0.1</text>
</g>
<!-- php&#45;parallel&#45;lint/php&#45;console&#45;highlighter&#45;&gt;php&#45;parallel&#45;lint/php&#45;console&#45;color -->
<g id="edge19" class="edge">
<title>php&#45;parallel&#45;lint/php&#45;console&#45;highlighter&#45;&gt;php&#45;parallel&#45;lint/php&#45;console&#45;color</title>
<path fill="none" stroke="#1a2833" d="M594.61,-289.98C632.72,-270.97 696.84,-242.23 755.97,-231 780.25,-226.39 806.15,-224.06 831.63,-223.21"/>
<polygon fill="#1a2833" stroke="#1a2833" points="831.85,-226.71 841.75,-222.95 831.66,-219.71 831.85,-226.71"/>
<text text-anchor="middle" x="789.97" y="-234" font-family="Times,serif" font-size="10.00" fill="#767676">^1.0.1</text>
</g>
<!-- symfony/console&#45;&gt;php -->
<g id="edge21" class="edge">
<title>symfony/console&#45;&gt;php</title>
<path fill="none" stroke="#1a2833" d="M602.17,-171.12C672.7,-202.11 809.35,-263.84 823.97,-283 849.51,-316.47 813.03,-345.43 841.97,-376 872.5,-408.24 925.35,-415.44 960.86,-416.29"/>
<polygon fill="#1a2833" stroke="#1a2833" points="961.25,-419.8 971.28,-416.38 961.3,-412.8 961.25,-419.8"/>
<text text-anchor="middle" x="789.97" y="-286" font-family="Times,serif" font-size="10.00" fill="#767676">&gt;=8.2</text>
</g>
<!-- symfony/deprecation&#45;contracts -->
<g id="node16" class="node">
<title>symfony/deprecation&#45;contracts</title>
<path fill="#eeeeee" stroke="black" d="M1131.47,-90C1131.47,-90 865.47,-90 865.47,-90 859.47,-90 853.47,-84 853.47,-78 853.47,-78 853.47,-66 853.47,-66 853.47,-60 859.47,-54 865.47,-54 865.47,-54 1131.47,-54 1131.47,-54 1137.47,-54 1143.47,-60 1143.47,-66 1143.47,-66 1143.47,-78 1143.47,-78 1143.47,-84 1137.47,-90 1131.47,-90"/>
<text text-anchor="middle" x="998.47" y="-68.3" font-family="Times,serif" font-size="14.00" fill="#314b5f">symfony/deprecation&#45;contracts: v3.6.0</text>
</g>
<!-- symfony/console&#45;&gt;symfony/deprecation&#45;contracts -->
<g id="edge22" class="edge">
<title>symfony/console&#45;&gt;symfony/deprecation&#45;contracts</title>
<path fill="none" stroke="#1a2833" d="M652.31,-134.96C707.29,-124.27 778.58,-110.58 841.97,-99 854.99,-96.62 868.62,-94.18 882.19,-91.78"/>
<polygon fill="#1a2833" stroke="#1a2833" points="882.8,-95.23 892.04,-90.05 881.58,-88.34 882.8,-95.23"/>
<text text-anchor="middle" x="789.97" y="-118" font-family="Times,serif" font-size="10.00" fill="#767676">^2.5|^3</text>
</g>
<!-- symfony/polyfill&#45;mbstring -->
<g id="node17" class="node">
<title>symfony/polyfill&#45;mbstring</title>
<path fill="#eeeeee" stroke="black" d="M1116.97,-36C1116.97,-36 879.97,-36 879.97,-36 873.97,-36 867.97,-30 867.97,-24 867.97,-24 867.97,-12 867.97,-12 867.97,-6 873.97,0 879.97,0 879.97,0 1116.97,0 1116.97,0 1122.97,0 1128.97,-6 1128.97,-12 1128.97,-12 1128.97,-24 1128.97,-24 1128.97,-30 1122.97,-36 1116.97,-36"/>
<text text-anchor="middle" x="998.47" y="-14.3" font-family="Times,serif" font-size="14.00" fill="#314b5f">symfony/polyfill&#45;mbstring: v1.33.0</text>
</g>
<!-- symfony/console&#45;&gt;symfony/polyfill&#45;mbstring -->
<g id="edge23" class="edge">
<title>symfony/console&#45;&gt;symfony/polyfill&#45;mbstring</title>
<path fill="none" stroke="#1a2833" d="M600.2,-134.92C653.98,-111.12 753.42,-69.43 841.97,-45 850.89,-42.54 860.17,-40.26 869.54,-38.15"/>
<polygon fill="#1a2833" stroke="#1a2833" points="870.32,-41.57 879.34,-36.02 868.83,-34.73 870.32,-41.57"/>
<text text-anchor="middle" x="789.97" y="-73" font-family="Times,serif" font-size="10.00" fill="#767676">~1.0</text>
</g>
<!-- symfony/service&#45;contracts -->
<g id="node18" class="node">
<title>symfony/service&#45;contracts</title>
<path fill="#eeeeee" stroke="black" d="M1114.97,-198C1114.97,-198 881.97,-198 881.97,-198 875.97,-198 869.97,-192 869.97,-186 869.97,-186 869.97,-174 869.97,-174 869.97,-168 875.97,-162 881.97,-162 881.97,-162 1114.97,-162 1114.97,-162 1120.97,-162 1126.97,-168 1126.97,-174 1126.97,-174 1126.97,-186 1126.97,-186 1126.97,-192 1120.97,-198 1114.97,-198"/>
<text text-anchor="middle" x="998.47" y="-176.3" font-family="Times,serif" font-size="14.00" fill="#314b5f">symfony/service&#45;contracts: v3.6.1</text>
</g>
<!-- symfony/console&#45;&gt;symfony/service&#45;contracts -->
<g id="edge24" class="edge">
<title>symfony/console&#45;&gt;symfony/service&#45;contracts</title>
<path fill="none" stroke="#1a2833" d="M653.69,-158.76C713.53,-162.46 792.32,-167.32 859.37,-171.47"/>
<polygon fill="#1a2833" stroke="#1a2833" points="859.4,-174.98 869.59,-172.1 859.83,-167.99 859.4,-174.98"/>
<text text-anchor="middle" x="789.97" y="-172" font-family="Times,serif" font-size="10.00" fill="#767676">^2.5|^3</text>
</g>
<!-- symfony/string -->
<g id="node19" class="node">
<title>symfony/string</title>
<path fill="#eeeeee" stroke="black" d="M1074.97,-144C1074.97,-144 921.97,-144 921.97,-144 915.97,-144 909.97,-138 909.97,-132 909.97,-132 909.97,-120 909.97,-120 909.97,-114 915.97,-108 921.97,-108 921.97,-108 1074.97,-108 1074.97,-108 1080.97,-108 1086.97,-114 1086.97,-120 1086.97,-120 1086.97,-132 1086.97,-132 1086.97,-138 1080.97,-144 1074.97,-144"/>
<text text-anchor="middle" x="998.47" y="-122.3" font-family="Times,serif" font-size="14.00" fill="#314b5f">symfony/string: v7.4.4</text>
</g>
<!-- symfony/console&#45;&gt;symfony/string -->
<g id="edge25" class="edge">
<title>symfony/console&#45;&gt;symfony/string</title>
<path fill="none" stroke="#1a2833" d="M653.69,-147.24C725.99,-142.77 825.93,-136.6 899.43,-132.06"/>
<polygon fill="#1a2833" stroke="#1a2833" points="899.85,-135.54 909.62,-131.43 899.42,-128.55 899.85,-135.54"/>
<text text-anchor="middle" x="789.97" y="-144" font-family="Times,serif" font-size="10.00" fill="#767676">^7.2|^8.0</text>
</g>
</g>
</svg>
