<?xml version="1.0" encoding="UTF-8" standalone="no"?>
<!DOCTYPE svg PUBLIC "-//W3C//DTD SVG 1.1//EN"
 "http://www.w3.org/Graphics/SVG/1.1/DTD/svg11.dtd">
<!-- Generated by graphviz version 2.43.0 (0)
 -->
<!-- Title: %3 Pages: 1 -->
<svg width="1632pt" height="813pt"
 viewBox="0.00 0.00 1632.00 813.00" xmlns="http://www.w3.org/2000/svg" xmlns:xlink="http://www.w3.org/1999/xlink">
<g id="graph0" class="graph" transform="scale(1 1) rotate(0) translate(4 809)">
<title>%3</title>
<g id="clust1" class="cluster">
<title>cluster_0</title>
<polygon fill="BurlyWood" stroke="black" points="8,-206 8,-787.5 572,-787.5 572,-206 8,-206"/>
<text text-anchor="middle" x="290" y="-772.3" font-family="Times,serif" font-size="14.00">Bartlett\Sarif\Converter</text>
</g>
<g id="clust2" class="cluster">
<title>cluster_1</title>
<polygon fill="LightSkyBlue" stroke="black" points="329,-8 329,-198 1303,-198 1303,-8 329,-8"/>
<text text-anchor="middle" x="816" y="-182.8" font-family="Times,serif" font-size="14.00">Bartlett\Sarif\Contract</text>
</g>
<g id="clust3" class="cluster">
<title>cluster_2</title>
<polygon fill="Bisque" stroke="black" points="580,-349 580,-797 1094,-797 1094,-349 580,-349"/>
<text text-anchor="middle" x="837" y="-781.8" font-family="Times,serif" font-size="14.00">Bartlett\Sarif\Converter\Source</text>
</g>
<g id="clust4" class="cluster">
<title>cluster_3</title>
<polygon fill="Bisque" stroke="black" points="1102,-346 1102,-555 1616,-555 1616,-346 1102,-346"/>
<text text-anchor="middle" x="1359" y="-539.8" font-family="Times,serif" font-size="14.00">Bartlett\Sarif\Converter\Normalizer</text>
</g>
<!-- Bartlett\\Sarif\\Converter\\RectorConverter -->
<g id="node1" class="node">
<title>Bartlett\\Sarif\\Converter\\RectorConverter</title>
<polygon fill="#fefece" stroke="transparent" points="354,-756.5 226,-756.5 226,-709.5 354,-709.5 354,-756.5"/>
<polygon fill="#eeeeee" stroke="transparent" points="226,-734 226,-756 354,-756 354,-734 226,-734"/>
<polygon fill="none" stroke="black" points="226,-734 226,-756 354,-756 354,-734 226,-734"/>
<text text-anchor="start" x="258" y="-739.6" font-family="Verdana" font-weight="bold" font-size="8.00">RectorConverter</text>
<polygon fill="none" stroke="black" points="226,-728 226,-734 354,-734 354,-728 226,-728"/>
<polygon fill="none" stroke="black" points="226,-709 226,-728 354,-728 354,-709 226,-709"/>
<text text-anchor="start" x="231" y="-716.6" font-family="Verdana" font-size="8.00">+ configure(options : array) : void</text>
</g>
<!-- Bartlett\\Sarif\\Converter\\AbstractConverter -->
<g id="node2" class="node">
<title>Bartlett\\Sarif\\Converter\\AbstractConverter</title>
<polygon fill="#fefece" stroke="transparent" points="564,-664 16,-664 16,-214 564,-214 564,-664"/>
<polygon fill="#eeeeee" stroke="transparent" points="16,-642 16,-664 564,-664 564,-642 16,-642"/>
<polygon fill="none" stroke="black" points="16,-642 16,-664 564,-664 564,-642 16,-642"/>
<text text-anchor="start" x="269" y="-655.6" font-family="Verdana" font-weight="bold" font-size="8.00">«abstract»</text>
<text text-anchor="start" x="253.5" y="-647.6" font-family="Verdana" font-weight="bold" font-size="8.00">AbstractConverter</text>
<polygon fill="none" stroke="black" points="16,-441 16,-642 564,-642 564,-441 16,-441"/>
<text text-anchor="start" x="21" y="-630.6" font-family="Verdana" font-size="8.00"># toolName</text>
<text text-anchor="start" x="21" y="-617.6" font-family="Verdana" font-size="8.00"># toolFullName</text>
<text text-anchor="start" x="21" y="-604.6" font-family="Verdana" font-size="8.00"># toolShortDescription</text>
<text text-anchor="start" x="21" y="-591.6" font-family="Verdana" font-size="8.00"># toolFullDescription</text>
<text text-anchor="start" x="21" y="-578.6" font-family="Verdana" font-size="8.00"># toolInformationUri</text>
<text text-anchor="start" x="21" y="-565.6" font-family="Verdana" font-size="8.00"># toolComposerPackage</text>
<text text-anchor="start" x="21" y="-552.6" font-family="Verdana" font-size="8.00"># toolSemanticVersion</text>
<text text-anchor="start" x="21" y="-539.6" font-family="Verdana" font-size="8.00"># converterComposerPackage</text>
<text text-anchor="start" x="21" y="-526.6" font-family="Verdana" font-size="8.00"># results : mixed = []</text>
<text text-anchor="start" x="21" y="-513.6" font-family="Verdana" font-size="8.00"># errors : mixed = []</text>
<text text-anchor="start" x="21" y="-500.6" font-family="Verdana" font-size="8.00"># serializer</text>
<text text-anchor="start" x="21" y="-487.6" font-family="Verdana" font-size="8.00"># startTime</text>
<text text-anchor="start" x="21" y="-474.6" font-family="Verdana" font-size="8.00"># endTime</text>
<text text-anchor="start" x="21" y="-461.6" font-family="Verdana" font-size="8.00"># includeCodeSnippets</text>
<text text-anchor="start" x="21" y="-448.6" font-family="Verdana" font-size="8.00"># includeContextRegion</text>
<polygon fill="none" stroke="black" points="16,-214 16,-441 564,-441 564,-214 16,-214"/>
<text text-anchor="start" x="21" y="-429.6" font-family="Verdana" font-size="8.00">+ __construct(options : array = [], factory : Bartlett\Sarif\Factory\SerializerFactory = «unknown»)</text>
<text text-anchor="start" x="21" y="-416.6" font-family="Verdana" font-size="8.00">+ getName() : string</text>
<text text-anchor="start" x="21" y="-403.6" font-family="Verdana" font-size="8.00">+ configure(options : array) : void</text>
<text text-anchor="start" x="21" y="-390.6" font-family="Verdana" font-size="8.00">+ toolDriver() : Bartlett\Sarif\Definition\ToolComponent</text>
<text text-anchor="start" x="21" y="-377.6" font-family="Verdana" font-size="8.00">+ toolExtensions() : array</text>
<text text-anchor="start" x="21" y="-364.6" font-family="Verdana" font-size="8.00">+ rules(defined : iterable) : array</text>
<text text-anchor="start" x="21" y="-351.6" font-family="Verdana" font-size="8.00">+ results(normalized : iterable) : void</text>
<text text-anchor="start" x="21" y="-338.6" font-family="Verdana" font-size="8.00">+ sarifLog(runs : array = [], version : string = &#39;2\.1\.0&#39;) : ?string</text>
<text text-anchor="start" x="21" y="-325.6" font-family="Verdana" font-size="8.00">+ invocations(properties : Bartlett\Sarif\Definition\PropertyBag = «unknown») : array</text>
<text text-anchor="start" x="21" y="-312.6" font-family="Verdana" font-size="8.00">+ automationDetails() : Bartlett\Sarif\Definition\RunAutomationDetails</text>
<text text-anchor="start" x="21" y="-299.6" font-family="Verdana" font-size="8.00">+ run(invocations : iterable, rules : iterable) : Bartlett\Sarif\Definition\Run</text>
<text text-anchor="start" x="21" y="-286.6" font-family="Verdana" font-size="8.00"># getToolVersion(package : string) : string</text>
<text text-anchor="start" x="21" y="-273.6" font-family="Verdana" font-size="8.00"># pathToArtifactLocation(path : string) : string</text>
<text text-anchor="start" x="21" y="-260.6" font-family="Verdana" font-size="8.00"># pathToUri(path : string) : string</text>
<text text-anchor="start" x="21" y="-247.6" font-family="Verdana" font-size="8.00"># getCodeSnippet(filePath : string, lineNumber : int, linesBefore : int, linesAfter : int) : ?string</text>
<text text-anchor="start" x="21" y="-234.6" font-family="Verdana" font-size="8.00"># getSnippetRegion(filePath : string, lineNumber : int, column : int = «unknown», linesBefore : int = 2, linesAfter : int = 2) : Bartlett\Sarif\Definition\Region</text>
<text text-anchor="start" x="21" y="-221.6" font-family="Verdana" font-size="8.00"># getErrors() : Iterator</text>
</g>
<!-- Bartlett\\Sarif\\Converter\\RectorConverter&#45;&gt;Bartlett\\Sarif\\Converter\\AbstractConverter -->
<g id="edge2" class="edge">
<title>Bartlett\\Sarif\\Converter\\RectorConverter&#45;&gt;Bartlett\\Sarif\\Converter\\AbstractConverter</title>
<path fill="none" stroke="black" d="M290,-709.09C290,-699.67 290,-687.81 290,-674.33"/>
<polygon fill="none" stroke="black" points="293.5,-674.24 290,-664.24 286.5,-674.24 293.5,-674.24"/>
</g>
<!-- Bartlett\\Sarif\\Contract\\ConverterInterface -->
<g id="node3" class="node">
<title>Bartlett\\Sarif\\Contract\\ConverterInterface</title>
<polygon fill="#fefece" stroke="transparent" points="683,-167 337,-167 337,-16 683,-16 683,-167"/>
<polygon fill="#eeeeee" stroke="transparent" points="337,-144.5 337,-166.5 683,-166.5 683,-144.5 337,-144.5"/>
<polygon fill="none" stroke="black" points="337,-144.5 337,-166.5 683,-166.5 683,-144.5 337,-144.5"/>
<text text-anchor="start" x="488" y="-158.1" font-family="Verdana" font-weight="bold" font-size="8.00">«interface»</text>
<text text-anchor="start" x="473.5" y="-150.1" font-family="Verdana" font-weight="bold" font-size="8.00">ConverterInterface</text>
<polygon fill="none" stroke="black" points="337,-138.5 337,-144.5 683,-144.5 683,-138.5 337,-138.5"/>
<polygon fill="none" stroke="black" points="337,-15.5 337,-138.5 683,-138.5 683,-15.5 337,-15.5"/>
<text text-anchor="start" x="342" y="-127.1" font-family="Verdana" font-size="8.00">+ «abstract» getName() : string</text>
<text text-anchor="start" x="342" y="-114.1" font-family="Verdana" font-size="8.00">+ «abstract» toolDriver() : Bartlett\Sarif\Definition\ToolComponent</text>
<text text-anchor="start" x="342" y="-101.1" font-family="Verdana" font-size="8.00">+ «abstract» toolExtensions() : array</text>
<text text-anchor="start" x="342" y="-88.1" font-family="Verdana" font-size="8.00">+ «abstract» rules(defined : iterable) : array</text>
<text text-anchor="start" x="342" y="-75.1" font-family="Verdana" font-size="8.00">+ «abstract» results(normalized : iterable) : void</text>
<text text-anchor="start" x="342" y="-62.1" font-family="Verdana" font-size="8.00">+ «abstract» invocations(properties : Bartlett\Sarif\Definition\PropertyBag = «unknown») : array</text>
<text text-anchor="start" x="342" y="-49.1" font-family="Verdana" font-size="8.00">+ «abstract» automationDetails() : Bartlett\Sarif\Definition\RunAutomationDetails</text>
<text text-anchor="start" x="342" y="-36.1" font-family="Verdana" font-size="8.00">+ «abstract» run(invocations : iterable, rules : iterable) : Bartlett\Sarif\Definition\Run</text>
<text text-anchor="start" x="342" y="-23.1" font-family="Verdana" font-size="8.00">+ «abstract» sarifLog(runs : array = [], version : string = &#39;2\.1\.0&#39;) : ?string</text>
</g>
<!-- Bartlett\\Sarif\\Converter\\AbstractConverter&#45;&gt;Bartlett\\Sarif\\Contract\\ConverterInterface -->
<g id="edge1" class="edge">
<title>Bartlett\\Sarif\\Converter\\AbstractConverter&#45;&gt;Bartlett\\Sarif\\Contract\\ConverterInterface</title>
<path fill="none" stroke="black" stroke-dasharray="5,2" d="M432.75,-213.82C441.16,-200.61 449.29,-187.84 456.92,-175.86"/>
<polygon fill="none" stroke="black" points="459.97,-177.59 462.39,-167.28 454.06,-173.83 459.97,-177.59"/>
</g>
<!-- Bartlett\\Sarif\\Contract\\SourceInterface -->
<g id="node4" class="node">
<title>Bartlett\\Sarif\\Contract\\SourceInterface</title>
<polygon fill="#fefece" stroke="transparent" points="973,-147.5 701,-147.5 701,-35.5 973,-35.5 973,-147.5"/>
<polygon fill="#eeeeee" stroke="transparent" points="701,-125.5 701,-147.5 973,-147.5 973,-125.5 701,-125.5"/>
<polygon fill="none" stroke="black" points="701,-125.5 701,-147.5 973,-147.5 973,-125.5 701,-125.5"/>
<text text-anchor="start" x="815" y="-139.1" font-family="Verdana" font-weight="bold" font-size="8.00">«interface»</text>
<text text-anchor="start" x="805.5" y="-131.1" font-family="Verdana" font-weight="bold" font-size="8.00">SourceInterface</text>
<polygon fill="none" stroke="black" points="701,-119.5 701,-125.5 973,-125.5 973,-119.5 701,-119.5"/>
<polygon fill="none" stroke="black" points="701,-35.5 701,-119.5 973,-119.5 973,-35.5 701,-35.5"/>
<text text-anchor="start" x="706" y="-108.1" font-family="Verdana" font-size="8.00">+ «abstract» getName() : string</text>
<text text-anchor="start" x="706" y="-95.1" font-family="Verdana" font-size="8.00">+ «abstract» getFiles() : Iterator</text>
<text text-anchor="start" x="706" y="-82.1" font-family="Verdana" font-size="8.00">+ «abstract» getErrors() : Iterator</text>
<text text-anchor="start" x="706" y="-69.1" font-family="Verdana" font-size="8.00">+ «abstract» getRules() : Iterator</text>
<text text-anchor="start" x="706" y="-56.1" font-family="Verdana" font-size="8.00">+ «abstract» getAttribute(name : string) : Iterator</text>
<text text-anchor="start" x="706" y="-43.1" font-family="Verdana" font-size="8.00">+ «abstract» normalize(data : mixed, format : string, context : array) : bool</text>
</g>
<!-- Bartlett\\Sarif\\Contract\\NormalizerInterface -->
<g id="node5" class="node">
<title>Bartlett\\Sarif\\Contract\\NormalizerInterface</title>
<polygon fill="#fefece" stroke="transparent" points="1295,-157 991,-157 991,-26 1295,-26 1295,-157"/>
<polygon fill="#eeeeee" stroke="transparent" points="991,-134.5 991,-156.5 1295,-156.5 1295,-134.5 991,-134.5"/>
<polygon fill="none" stroke="black" points="991,-134.5 991,-156.5 1295,-156.5 1295,-134.5 991,-134.5"/>
<text text-anchor="start" x="1121" y="-148.1" font-family="Verdana" font-weight="bold" font-size="8.00">«interface»</text>
<text text-anchor="start" x="1105" y="-140.1" font-family="Verdana" font-weight="bold" font-size="8.00">NormalizerInterface</text>
<polygon fill="none" stroke="black" points="991,-63.5 991,-134.5 1295,-134.5 1295,-63.5 991,-63.5"/>
<text text-anchor="start" x="996" y="-123.1" font-family="Verdana" font-size="8.00">+ «static» FORMAT_SARIF : string = &quot;sarif&quot; {readOnly}</text>
<text text-anchor="start" x="996" y="-110.1" font-family="Verdana" font-size="8.00">+ «static» FORMAT_JSON : string = &quot;json&quot; {readOnly}</text>
<text text-anchor="start" x="996" y="-97.1" font-family="Verdana" font-size="8.00">+ «static» FORMAT_XML : string = &quot;xml&quot; {readOnly}</text>
<text text-anchor="start" x="996" y="-84.1" font-family="Verdana" font-size="8.00">+ «static» FORMAT_CHECKSTYLE : string = &quot;checkstyle&quot; {readOnly}</text>
<text text-anchor="start" x="996" y="-71.1" font-family="Verdana" font-size="8.00">+ «static» FORMAT_INTERNAL : string = &quot;internal&quot; {readOnly}</text>
<polygon fill="none" stroke="black" points="991,-57.5 991,-63.5 1295,-63.5 1295,-57.5 991,-57.5"/>
<polygon fill="none" stroke="black" points="991,-25.5 991,-57.5 1295,-57.5 1295,-25.5 991,-25.5"/>
<text text-anchor="start" x="996" y="-46.1" font-family="Verdana" font-size="8.00">+ «abstract» getSupportedFormats() : array</text>
<text text-anchor="start" x="996" y="-33.1" font-family="Verdana" font-size="8.00">+ «abstract» normalize(data : mixed, format : string, context : array) : ?ArrayObject</text>
</g>
<!-- Bartlett\\Sarif\\Converter\\Source\\RectorSource -->
<g id="node6" class="node">
<title>Bartlett\\Sarif\\Converter\\Source\\RectorSource</title>
<polygon fill="#fefece" stroke="transparent" points="1085.5,-766 588.5,-766 588.5,-700 1085.5,-700 1085.5,-766"/>
<polygon fill="#eeeeee" stroke="transparent" points="589,-744 589,-766 1086,-766 1086,-744 589,-744"/>
<polygon fill="none" stroke="black" points="589,-744 589,-766 1086,-766 1086,-744 589,-744"/>
<text text-anchor="start" x="810.5" y="-749.6" font-family="Verdana" font-weight="bold" font-size="8.00">RectorSource</text>
<polygon fill="none" stroke="black" points="589,-725 589,-744 1086,-744 1086,-725 589,-725"/>
<text text-anchor="start" x="594" y="-732.6" font-family="Verdana" font-size="8.00">+ «static» URI_PATTERN : string = &quot;https\:\/\/github\.com\/rectorphp\/rector\/blob\/main\/docs\/rector_rules_overview\.md\#\%s&quot; {readOnly}</text>
<polygon fill="none" stroke="black" points="589,-719 589,-725 1086,-725 1086,-719 589,-719"/>
<polygon fill="none" stroke="black" points="589,-700 589,-719 1086,-719 1086,-700 589,-700"/>
<text text-anchor="start" x="594" y="-707.6" font-family="Verdana" font-size="8.00">+ __construct(normalizers : iterable = [])</text>
</g>
<!-- Bartlett\\Sarif\\Converter\\Source\\AbstractSource -->
<g id="node7" class="node">
<title>Bartlett\\Sarif\\Converter\\Source\\AbstractSource</title>
<polygon fill="#fefece" stroke="transparent" points="979,-521 695,-521 695,-357 979,-357 979,-521"/>
<polygon fill="#eeeeee" stroke="transparent" points="695,-499 695,-521 979,-521 979,-499 695,-499"/>
<polygon fill="none" stroke="black" points="695,-499 695,-521 979,-521 979,-499 695,-499"/>
<text text-anchor="start" x="816" y="-512.6" font-family="Verdana" font-weight="bold" font-size="8.00">«abstract»</text>
<text text-anchor="start" x="806" y="-504.6" font-family="Verdana" font-weight="bold" font-size="8.00">AbstractSource</text>
<polygon fill="none" stroke="black" points="695,-467 695,-499 979,-499 979,-467 695,-467"/>
<text text-anchor="start" x="700" y="-487.6" font-family="Verdana" font-size="8.00">– normalizers : mixed</text>
<text text-anchor="start" x="700" y="-474.6" font-family="Verdana" font-size="8.00">– normalized</text>
<polygon fill="none" stroke="black" points="695,-357 695,-467 979,-467 979,-357 695,-357"/>
<text text-anchor="start" x="700" y="-455.6" font-family="Verdana" font-size="8.00">+ __construct(normalizers : iterable = [])</text>
<text text-anchor="start" x="700" y="-442.6" font-family="Verdana" font-size="8.00">+ getName() : string</text>
<text text-anchor="start" x="700" y="-429.6" font-family="Verdana" font-size="8.00">+ getFiles() : Iterator</text>
<text text-anchor="start" x="700" y="-416.6" font-family="Verdana" font-size="8.00">+ getErrors() : Iterator</text>
<text text-anchor="start" x="700" y="-403.6" font-family="Verdana" font-size="8.00">+ getRules() : Iterator</text>
<text text-anchor="start" x="700" y="-390.6" font-family="Verdana" font-size="8.00">+ getAttribute(name : string) : Iterator</text>
<text text-anchor="start" x="700" y="-377.6" font-family="Verdana" font-size="8.00">+ normalize(data, format : string, context : array) : bool</text>
<text text-anchor="start" x="700" y="-364.6" font-family="Verdana" font-size="8.00"># getNormalizer(format : string) : ?Bartlett\Sarif\Contract\NormalizerInterface</text>
</g>
<!-- Bartlett\\Sarif\\Converter\\Source\\RectorSource&#45;&gt;Bartlett\\Sarif\\Converter\\Source\\AbstractSource -->
<g id="edge4" class="edge">
<title>Bartlett\\Sarif\\Converter\\Source\\RectorSource&#45;&gt;Bartlett\\Sarif\\Converter\\Source\\AbstractSource</title>
<path fill="none" stroke="black" d="M837,-699.92C837,-659.66 837,-588.94 837,-531.43"/>
<polygon fill="none" stroke="black" points="840.5,-531.22 837,-521.22 833.5,-531.22 840.5,-531.22"/>
</g>
<!-- Bartlett\\Sarif\\Converter\\Source\\AbstractSource&#45;&gt;Bartlett\\Sarif\\Contract\\SourceInterface -->
<g id="edge3" class="edge">
<title>Bartlett\\Sarif\\Converter\\Source\\AbstractSource&#45;&gt;Bartlett\\Sarif\\Contract\\SourceInterface</title>
<path fill="none" stroke="black" stroke-dasharray="5,2" d="M837,-357C837,-296.35 837,-214.45 837,-157.93"/>
<polygon fill="none" stroke="black" points="840.5,-157.68 837,-147.68 833.5,-157.68 840.5,-157.68"/>
</g>
<!-- Bartlett\\Sarif\\Converter\\Normalizer\\RectorNormalizer -->
<g id="node8" class="node">
<title>Bartlett\\Sarif\\Converter\\Normalizer\\RectorNormalizer</title>
<polygon fill="#fefece" stroke="transparent" points="1607.5,-524 1110.5,-524 1110.5,-354 1607.5,-354 1607.5,-524"/>
<polygon fill="#eeeeee" stroke="transparent" points="1111,-502 1111,-524 1608,-524 1608,-502 1111,-502"/>
<polygon fill="none" stroke="black" points="1111,-502 1111,-524 1608,-524 1608,-502 1111,-502"/>
<text text-anchor="start" x="1326" y="-507.6" font-family="Verdana" font-weight="bold" font-size="8.00">RectorNormalizer</text>
<polygon fill="none" stroke="black" points="1111,-418 1111,-502 1608,-502 1608,-418 1111,-418"/>
<text text-anchor="start" x="1116" y="-490.6" font-family="Verdana" font-size="8.00">+ «static» URI_PATTERN : string = &quot;https\:\/\/github\.com\/rectorphp\/rector\/blob\/main\/docs\/rector_rules_overview\.md\#\%s&quot; {readOnly}</text>
<text text-anchor="start" x="1116" y="-477.6" font-family="Verdana" font-size="8.00">+ «static» FORMAT_SARIF : string = &quot;sarif&quot; {readOnly}</text>
<text text-anchor="start" x="1116" y="-464.6" font-family="Verdana" font-size="8.00">+ «static» FORMAT_JSON : string = &quot;json&quot; {readOnly}</text>
<text text-anchor="start" x="1116" y="-451.6" font-family="Verdana" font-size="8.00">+ «static» FORMAT_XML : string = &quot;xml&quot; {readOnly}</text>
<text text-anchor="start" x="1116" y="-438.6" font-family="Verdana" font-size="8.00">+ «static» FORMAT_CHECKSTYLE : string = &quot;checkstyle&quot; {readOnly}</text>
<text text-anchor="start" x="1116" y="-425.6" font-family="Verdana" font-size="8.00">+ «static» FORMAT_INTERNAL : string = &quot;internal&quot; {readOnly}</text>
<polygon fill="none" stroke="black" points="1111,-412 1111,-418 1608,-418 1608,-412 1111,-412"/>
<polygon fill="none" stroke="black" points="1111,-354 1111,-412 1608,-412 1608,-354 1111,-354"/>
<text text-anchor="start" x="1116" y="-400.6" font-family="Verdana" font-size="8.00">+ getSupportedFormats() : array</text>
<text text-anchor="start" x="1116" y="-387.6" font-family="Verdana" font-size="8.00">+ normalize(data, format : string, context : array) : ?ArrayObject</text>
<text text-anchor="start" x="1116" y="-374.6" font-family="Verdana" font-size="8.00">– fromInternal(processResult : Rector\ValueObject\ProcessResult, context : array) : array</text>
<text text-anchor="start" x="1116" y="-361.6" font-family="Verdana" font-size="8.00">– resolveFromClassName(className : string) : ?Symplify\RuleDocGenerator\ValueObject\RuleDefinition</text>
</g>
<!-- Bartlett\\Sarif\\Converter\\Normalizer\\RectorNormalizer&#45;&gt;Bartlett\\Sarif\\Contract\\NormalizerInterface -->
<g id="edge5" class="edge">
<title>Bartlett\\Sarif\\Converter\\Normalizer\\RectorNormalizer&#45;&gt;Bartlett\\Sarif\\Contract\\NormalizerInterface</title>
<path fill="none" stroke="black" stroke-dasharray="5,2" d="M1306.44,-353.92C1270.46,-296.38 1223.23,-220.83 1188.79,-165.75"/>
<polygon fill="none" stroke="black" points="1191.65,-163.71 1183.38,-157.09 1185.71,-167.42 1191.65,-163.71"/>
</g>
</g>
</svg>
