<?xml version="1.0" encoding="UTF-8" standalone="no"?>
<!DOCTYPE svg PUBLIC "-//W3C//DTD SVG 1.1//EN"
 "http://www.w3.org/Graphics/SVG/1.1/DTD/svg11.dtd">
<!-- Generated by graphviz version 2.43.0 (0)
 -->
<!-- Title: %3 Pages: 1 -->
<svg width="1478pt" height="943pt"
 viewBox="0.00 0.00 1478.00 943.00" xmlns="http://www.w3.org/2000/svg" xmlns:xlink="http://www.w3.org/1999/xlink">
<g id="graph0" class="graph" transform="scale(1 1) rotate(0) translate(4 939)">
<title>%3</title>
<g id="clust1" class="cluster">
<title>cluster_0</title>
<polygon fill="BurlyWood" stroke="black" points="8,-206 8,-859 572,-859 572,-206 8,-206"/>
<text text-anchor="middle" x="290" y="-843.8" font-family="Times,serif" font-size="14.00">Bartlett\Sarif\Converter</text>
</g>
<g id="clust2" class="cluster">
<title>cluster_1</title>
<polygon fill="LightSkyBlue" stroke="black" points="368,-8 368,-198 1342,-198 1342,-8 368,-8"/>
<text text-anchor="middle" x="855" y="-182.8" font-family="Times,serif" font-size="14.00">Bartlett\Sarif\Contract</text>
</g>
<g id="clust3" class="cluster">
<title>cluster_2</title>
<polygon fill="Bisque" stroke="black" points="580,-355.5 580,-927 1172,-927 1172,-355.5 580,-355.5"/>
<text text-anchor="middle" x="876" y="-911.8" font-family="Times,serif" font-size="14.00">Bartlett\Sarif\Converter\Source</text>
</g>
<g id="clust4" class="cluster">
<title>cluster_3</title>
<polygon fill="Bisque" stroke="black" points="1180,-365.5 1180,-853.5 1462,-853.5 1462,-365.5 1180,-365.5"/>
<text text-anchor="middle" x="1321" y="-838.3" font-family="Times,serif" font-size="14.00">Bartlett\Sarif\Converter\Normalizer</text>
</g>
<!-- Bartlett\\Sarif\\Converter\\EcsConverter -->
<g id="node1" class="node">
<title>Bartlett\\Sarif\\Converter\\EcsConverter</title>
<polygon fill="#fefece" stroke="transparent" points="360.5,-828 219.5,-828 219.5,-781 360.5,-781 360.5,-828"/>
<polygon fill="#eeeeee" stroke="transparent" points="220,-805.5 220,-827.5 361,-827.5 361,-805.5 220,-805.5"/>
<polygon fill="none" stroke="black" points="220,-805.5 220,-827.5 361,-827.5 361,-805.5 220,-805.5"/>
<text text-anchor="start" x="264" y="-811.1" font-family="Verdana" font-weight="bold" font-size="8.00">EcsConverter</text>
<polygon fill="none" stroke="black" points="220,-799.5 220,-805.5 361,-805.5 361,-799.5 220,-799.5"/>
<polygon fill="none" stroke="black" points="220,-780.5 220,-799.5 361,-799.5 361,-780.5 220,-780.5"/>
<text text-anchor="start" x="225" y="-788.1" font-family="Verdana" font-size="8.00">+ configure(options : array = []) : void</text>
</g>
<!-- Bartlett\\Sarif\\Converter\\AbstractConverter -->
<g id="node2" class="node">
<title>Bartlett\\Sarif\\Converter\\AbstractConverter</title>
<polygon fill="#fefece" stroke="transparent" points="564,-677 16,-677 16,-214 564,-214 564,-677"/>
<polygon fill="#eeeeee" stroke="transparent" points="16,-654.5 16,-676.5 564,-676.5 564,-654.5 16,-654.5"/>
<polygon fill="none" stroke="black" points="16,-654.5 16,-676.5 564,-676.5 564,-654.5 16,-654.5"/>
<text text-anchor="start" x="269" y="-668.1" font-family="Verdana" font-weight="bold" font-size="8.00">«abstract»</text>
<text text-anchor="start" x="253.5" y="-660.1" font-family="Verdana" font-weight="bold" font-size="8.00">AbstractConverter</text>
<polygon fill="none" stroke="black" points="16,-440.5 16,-654.5 564,-654.5 564,-440.5 16,-440.5"/>
<text text-anchor="start" x="21" y="-643.1" font-family="Verdana" font-size="8.00"># toolName</text>
<text text-anchor="start" x="21" y="-630.1" font-family="Verdana" font-size="8.00"># toolFullName</text>
<text text-anchor="start" x="21" y="-617.1" font-family="Verdana" font-size="8.00"># toolShortDescription</text>
<text text-anchor="start" x="21" y="-604.1" font-family="Verdana" font-size="8.00"># toolFullDescription</text>
<text text-anchor="start" x="21" y="-591.1" font-family="Verdana" font-size="8.00"># toolInformationUri</text>
<text text-anchor="start" x="21" y="-578.1" font-family="Verdana" font-size="8.00"># toolComposerPackage</text>
<text text-anchor="start" x="21" y="-565.1" font-family="Verdana" font-size="8.00"># toolSemanticVersion</text>
<text text-anchor="start" x="21" y="-552.1" font-family="Verdana" font-size="8.00"># converterComposerPackage</text>
<text text-anchor="start" x="21" y="-539.1" font-family="Verdana" font-size="8.00"># results : mixed = []</text>
<text text-anchor="start" x="21" y="-526.1" font-family="Verdana" font-size="8.00"># errors : mixed = []</text>
<text text-anchor="start" x="21" y="-513.1" font-family="Verdana" font-size="8.00"># serializer</text>
<text text-anchor="start" x="21" y="-500.1" font-family="Verdana" font-size="8.00"># startTime</text>
<text text-anchor="start" x="21" y="-487.1" font-family="Verdana" font-size="8.00"># endTime</text>
<text text-anchor="start" x="21" y="-474.1" font-family="Verdana" font-size="8.00"># includeCodeSnippets</text>
<text text-anchor="start" x="21" y="-461.1" font-family="Verdana" font-size="8.00"># includeContextRegion</text>
<text text-anchor="start" x="21" y="-448.1" font-family="Verdana" font-size="8.00"># defaultResultLevelIfEmpty</text>
<polygon fill="none" stroke="black" points="16,-213.5 16,-440.5 564,-440.5 564,-213.5 16,-213.5"/>
<text text-anchor="start" x="21" y="-429.1" font-family="Verdana" font-size="8.00">+ __construct(options : array = [], factory : Bartlett\Sarif\Factory\SerializerFactory = «unknown»)</text>
<text text-anchor="start" x="21" y="-416.1" font-family="Verdana" font-size="8.00">+ getName() : string</text>
<text text-anchor="start" x="21" y="-403.1" font-family="Verdana" font-size="8.00">+ configure(options : array) : void</text>
<text text-anchor="start" x="21" y="-390.1" font-family="Verdana" font-size="8.00">+ toolDriver() : Bartlett\Sarif\Definition\ToolComponent</text>
<text text-anchor="start" x="21" y="-377.1" font-family="Verdana" font-size="8.00">+ toolExtensions() : array</text>
<text text-anchor="start" x="21" y="-364.1" font-family="Verdana" font-size="8.00">+ rules(defined : iterable) : array</text>
<text text-anchor="start" x="21" y="-351.1" font-family="Verdana" font-size="8.00">+ results(normalized : iterable) : void</text>
<text text-anchor="start" x="21" y="-338.1" font-family="Verdana" font-size="8.00">+ sarifLog(runs : array = [], version : string = &#39;2\.1\.0&#39;) : ?string</text>
<text text-anchor="start" x="21" y="-325.1" font-family="Verdana" font-size="8.00">+ invocations(properties : Bartlett\Sarif\Definition\PropertyBag = «unknown») : array</text>
<text text-anchor="start" x="21" y="-312.1" font-family="Verdana" font-size="8.00">+ automationDetails() : Bartlett\Sarif\Definition\RunAutomationDetails</text>
<text text-anchor="start" x="21" y="-299.1" font-family="Verdana" font-size="8.00">+ run(invocations : iterable, rules : iterable) : Bartlett\Sarif\Definition\Run</text>
<text text-anchor="start" x="21" y="-286.1" font-family="Verdana" font-size="8.00"># getToolVersion(package : string) : string</text>
<text text-anchor="start" x="21" y="-273.1" font-family="Verdana" font-size="8.00"># pathToArtifactLocation(path : string) : string</text>
<text text-anchor="start" x="21" y="-260.1" font-family="Verdana" font-size="8.00"># pathToUri(path : string) : string</text>
<text text-anchor="start" x="21" y="-247.1" font-family="Verdana" font-size="8.00"># getCodeSnippet(filePath : string, lineNumber : int, linesBefore : int, linesAfter : int) : ?string</text>
<text text-anchor="start" x="21" y="-234.1" font-family="Verdana" font-size="8.00"># getSnippetRegion(filePath : string, lineNumber : int, column : int = «unknown», linesBefore : int = 2, linesAfter : int = 2) : Bartlett\Sarif\Definition\Region</text>
<text text-anchor="start" x="21" y="-221.1" font-family="Verdana" font-size="8.00"># getErrors() : Iterator</text>
</g>
<!-- Bartlett\\Sarif\\Converter\\EcsConverter&#45;&gt;Bartlett\\Sarif\\Converter\\AbstractConverter -->
<g id="edge2" class="edge">
<title>Bartlett\\Sarif\\Converter\\EcsConverter&#45;&gt;Bartlett\\Sarif\\Converter\\AbstractConverter</title>
<path fill="none" stroke="black" d="M290,-780.9C290,-759.79 290,-725.85 290,-687.51"/>
<polygon fill="none" stroke="black" points="293.5,-687.13 290,-677.13 286.5,-687.13 293.5,-687.13"/>
</g>
<!-- Bartlett\\Sarif\\Contract\\ConverterInterface -->
<g id="node3" class="node">
<title>Bartlett\\Sarif\\Contract\\ConverterInterface</title>
<polygon fill="#fefece" stroke="transparent" points="722,-167 376,-167 376,-16 722,-16 722,-167"/>
<polygon fill="#eeeeee" stroke="transparent" points="376,-144.5 376,-166.5 722,-166.5 722,-144.5 376,-144.5"/>
<polygon fill="none" stroke="black" points="376,-144.5 376,-166.5 722,-166.5 722,-144.5 376,-144.5"/>
<text text-anchor="start" x="527" y="-158.1" font-family="Verdana" font-weight="bold" font-size="8.00">«interface»</text>
<text text-anchor="start" x="512.5" y="-150.1" font-family="Verdana" font-weight="bold" font-size="8.00">ConverterInterface</text>
<polygon fill="none" stroke="black" points="376,-138.5 376,-144.5 722,-144.5 722,-138.5 376,-138.5"/>
<polygon fill="none" stroke="black" points="376,-15.5 376,-138.5 722,-138.5 722,-15.5 376,-15.5"/>
<text text-anchor="start" x="381" y="-127.1" font-family="Verdana" font-size="8.00">+ «abstract» getName() : string</text>
<text text-anchor="start" x="381" y="-114.1" font-family="Verdana" font-size="8.00">+ «abstract» toolDriver() : Bartlett\Sarif\Definition\ToolComponent</text>
<text text-anchor="start" x="381" y="-101.1" font-family="Verdana" font-size="8.00">+ «abstract» toolExtensions() : array</text>
<text text-anchor="start" x="381" y="-88.1" font-family="Verdana" font-size="8.00">+ «abstract» rules(defined : iterable) : array</text>
<text text-anchor="start" x="381" y="-75.1" font-family="Verdana" font-size="8.00">+ «abstract» results(normalized : iterable) : void</text>
<text text-anchor="start" x="381" y="-62.1" font-family="Verdana" font-size="8.00">+ «abstract» invocations(properties : Bartlett\Sarif\Definition\PropertyBag = «unknown») : array</text>
<text text-anchor="start" x="381" y="-49.1" font-family="Verdana" font-size="8.00">+ «abstract» automationDetails() : Bartlett\Sarif\Definition\RunAutomationDetails</text>
<text text-anchor="start" x="381" y="-36.1" font-family="Verdana" font-size="8.00">+ «abstract» run(invocations : iterable, rules : iterable) : Bartlett\Sarif\Definition\Run</text>
<text text-anchor="start" x="381" y="-23.1" font-family="Verdana" font-size="8.00">+ «abstract» sarifLog(runs : array = [], version : string = &#39;2\.1\.0&#39;) : ?string</text>
</g>
<!-- Bartlett\\Sarif\\Converter\\AbstractConverter&#45;&gt;Bartlett\\Sarif\\Contract\\ConverterInterface -->
<g id="edge1" class="edge">
<title>Bartlett\\Sarif\\Converter\\AbstractConverter&#45;&gt;Bartlett\\Sarif\\Contract\\ConverterInterface</title>
<path fill="none" stroke="black" stroke-dasharray="5,2" d="M459.87,-213.64C469.71,-200.27 479.2,-187.36 488.09,-175.29"/>
<polygon fill="none" stroke="black" points="491.03,-177.19 494.14,-167.06 485.39,-173.04 491.03,-177.19"/>
</g>
<!-- Bartlett\\Sarif\\Contract\\SourceInterface -->
<g id="node4" class="node">
<title>Bartlett\\Sarif\\Contract\\SourceInterface</title>
<polygon fill="#fefece" stroke="transparent" points="1012,-147.5 740,-147.5 740,-35.5 1012,-35.5 1012,-147.5"/>
<polygon fill="#eeeeee" stroke="transparent" points="740,-125.5 740,-147.5 1012,-147.5 1012,-125.5 740,-125.5"/>
<polygon fill="none" stroke="black" points="740,-125.5 740,-147.5 1012,-147.5 1012,-125.5 740,-125.5"/>
<text text-anchor="start" x="854" y="-139.1" font-family="Verdana" font-weight="bold" font-size="8.00">«interface»</text>
<text text-anchor="start" x="844.5" y="-131.1" font-family="Verdana" font-weight="bold" font-size="8.00">SourceInterface</text>
<polygon fill="none" stroke="black" points="740,-119.5 740,-125.5 1012,-125.5 1012,-119.5 740,-119.5"/>
<polygon fill="none" stroke="black" points="740,-35.5 740,-119.5 1012,-119.5 1012,-35.5 740,-35.5"/>
<text text-anchor="start" x="745" y="-108.1" font-family="Verdana" font-size="8.00">+ «abstract» getName() : string</text>
<text text-anchor="start" x="745" y="-95.1" font-family="Verdana" font-size="8.00">+ «abstract» getFiles() : Iterator</text>
<text text-anchor="start" x="745" y="-82.1" font-family="Verdana" font-size="8.00">+ «abstract» getErrors() : Iterator</text>
<text text-anchor="start" x="745" y="-69.1" font-family="Verdana" font-size="8.00">+ «abstract» getRules() : Iterator</text>
<text text-anchor="start" x="745" y="-56.1" font-family="Verdana" font-size="8.00">+ «abstract» getAttribute(name : string) : Iterator</text>
<text text-anchor="start" x="745" y="-43.1" font-family="Verdana" font-size="8.00">+ «abstract» normalize(data : mixed, format : string, context : array) : bool</text>
</g>
<!-- Bartlett\\Sarif\\Contract\\NormalizerInterface -->
<g id="node5" class="node">
<title>Bartlett\\Sarif\\Contract\\NormalizerInterface</title>
<polygon fill="#fefece" stroke="transparent" points="1334,-157 1030,-157 1030,-26 1334,-26 1334,-157"/>
<polygon fill="#eeeeee" stroke="transparent" points="1030,-134.5 1030,-156.5 1334,-156.5 1334,-134.5 1030,-134.5"/>
<polygon fill="none" stroke="black" points="1030,-134.5 1030,-156.5 1334,-156.5 1334,-134.5 1030,-134.5"/>
<text text-anchor="start" x="1160" y="-148.1" font-family="Verdana" font-weight="bold" font-size="8.00">«interface»</text>
<text text-anchor="start" x="1144" y="-140.1" font-family="Verdana" font-weight="bold" font-size="8.00">NormalizerInterface</text>
<polygon fill="none" stroke="black" points="1030,-63.5 1030,-134.5 1334,-134.5 1334,-63.5 1030,-63.5"/>
<text text-anchor="start" x="1035" y="-123.1" font-family="Verdana" font-size="8.00">+ «static» FORMAT_SARIF : string = &quot;sarif&quot; {readOnly}</text>
<text text-anchor="start" x="1035" y="-110.1" font-family="Verdana" font-size="8.00">+ «static» FORMAT_JSON : string = &quot;json&quot; {readOnly}</text>
<text text-anchor="start" x="1035" y="-97.1" font-family="Verdana" font-size="8.00">+ «static» FORMAT_XML : string = &quot;xml&quot; {readOnly}</text>
<text text-anchor="start" x="1035" y="-84.1" font-family="Verdana" font-size="8.00">+ «static» FORMAT_CHECKSTYLE : string = &quot;checkstyle&quot; {readOnly}</text>
<text text-anchor="start" x="1035" y="-71.1" font-family="Verdana" font-size="8.00">+ «static» FORMAT_INTERNAL : string = &quot;internal&quot; {readOnly}</text>
<polygon fill="none" stroke="black" points="1030,-57.5 1030,-63.5 1334,-63.5 1334,-57.5 1030,-57.5"/>
<polygon fill="none" stroke="black" points="1030,-25.5 1030,-57.5 1334,-57.5 1334,-25.5 1030,-25.5"/>
<text text-anchor="start" x="1035" y="-46.1" font-family="Verdana" font-size="8.00">+ «abstract» getSupportedFormats() : array</text>
<text text-anchor="start" x="1035" y="-33.1" font-family="Verdana" font-size="8.00">+ «abstract» normalize(data : mixed, format : string, context : array) : ?ArrayObject</text>
</g>
<!-- Bartlett\\Sarif\\Converter\\Source\\EcsSource -->
<g id="node6" class="node">
<title>Bartlett\\Sarif\\Converter\\Source\\EcsSource</title>
<polygon fill="#fefece" stroke="transparent" points="1163.5,-896 588.5,-896 588.5,-713 1163.5,-713 1163.5,-896"/>
<polygon fill="#eeeeee" stroke="transparent" points="589,-873.5 589,-895.5 1164,-895.5 1164,-873.5 589,-873.5"/>
<polygon fill="none" stroke="black" points="589,-873.5 589,-895.5 1164,-895.5 1164,-873.5 589,-873.5"/>
<text text-anchor="start" x="855" y="-879.1" font-family="Verdana" font-weight="bold" font-size="8.00">EcsSource</text>
<polygon fill="none" stroke="black" points="589,-815.5 589,-873.5 1164,-873.5 1164,-815.5 589,-815.5"/>
<text text-anchor="start" x="594" y="-862.1" font-family="Verdana" font-size="8.00">+ «static» URI_PATTERN_PHPCS : string = &quot;https\:\/\/github\.com\/PHPCSStandards\/PHP_CodeSniffer\/wiki\/Customisable\&#45;Sniff\&#45;Properties\#\%s&quot; {readOnly}</text>
<text text-anchor="start" x="594" y="-849.1" font-family="Verdana" font-size="8.00">+ «static» URI_PATTERN_PHPCS_FIXER : string = &quot;https\:\/\/cs\.symfony\.com\/doc\/rules\/\%s\/\%s\.html&quot; {readOnly}</text>
<text text-anchor="start" x="594" y="-836.1" font-family="Verdana" font-size="8.00">+ «static» URI_PATTERN_SYMPLIFY : string = &quot;https\:\/\/github\.com\/symplify\/coding\&#45;standard\/blob\/main\/docs\/rules_overview\.md\#\%s&quot; {readOnly}</text>
<text text-anchor="start" x="594" y="-823.1" font-family="Verdana" font-size="8.00">+ «static» URI_PATTERN_SLEVOMAT : string = &quot;https\:\/\/github\.com\/slevomat\/coding\&#45;standard\/blob\/master\/doc\/\%s\.md\#\%s\&#45;&quot; {readOnly}</text>
<polygon fill="none" stroke="black" points="589,-809.5 589,-815.5 1164,-815.5 1164,-809.5 589,-809.5"/>
<polygon fill="none" stroke="black" points="589,-712.5 589,-809.5 1164,-809.5 1164,-712.5 589,-712.5"/>
<text text-anchor="start" x="594" y="-798.1" font-family="Verdana" font-size="8.00">+ __construct(normalizers : iterable = [])</text>
<text text-anchor="start" x="594" y="-785.1" font-family="Verdana" font-size="8.00">+ getRules() : Iterator</text>
<text text-anchor="start" x="594" y="-772.1" font-family="Verdana" font-size="8.00">– phpCodeSnifferChecker(nameParts : array) : string</text>
<text text-anchor="start" x="594" y="-759.1" font-family="Verdana" font-size="8.00">– phpCsFixerChecker(nameParts : array) : string</text>
<text text-anchor="start" x="594" y="-746.1" font-family="Verdana" font-size="8.00">– symplifyChecker(nameParts : array) : string</text>
<text text-anchor="start" x="594" y="-733.1" font-family="Verdana" font-size="8.00">– slevomatCodingStandardChecker(nameParts : array) : string</text>
<text text-anchor="start" x="594" y="-720.1" font-family="Verdana" font-size="8.00">– «static» camelCaseToUnderscore(string : string) : string</text>
</g>
<!-- Bartlett\\Sarif\\Converter\\Source\\AbstractSource -->
<g id="node7" class="node">
<title>Bartlett\\Sarif\\Converter\\Source\\AbstractSource</title>
<polygon fill="#fefece" stroke="transparent" points="1018,-527.5 734,-527.5 734,-363.5 1018,-363.5 1018,-527.5"/>
<polygon fill="#eeeeee" stroke="transparent" points="734,-505.5 734,-527.5 1018,-527.5 1018,-505.5 734,-505.5"/>
<polygon fill="none" stroke="black" points="734,-505.5 734,-527.5 1018,-527.5 1018,-505.5 734,-505.5"/>
<text text-anchor="start" x="855" y="-519.1" font-family="Verdana" font-weight="bold" font-size="8.00">«abstract»</text>
<text text-anchor="start" x="845" y="-511.1" font-family="Verdana" font-weight="bold" font-size="8.00">AbstractSource</text>
<polygon fill="none" stroke="black" points="734,-473.5 734,-505.5 1018,-505.5 1018,-473.5 734,-473.5"/>
<text text-anchor="start" x="739" y="-494.1" font-family="Verdana" font-size="8.00">– normalizers : mixed</text>
<text text-anchor="start" x="739" y="-481.1" font-family="Verdana" font-size="8.00">– normalized</text>
<polygon fill="none" stroke="black" points="734,-363.5 734,-473.5 1018,-473.5 1018,-363.5 734,-363.5"/>
<text text-anchor="start" x="739" y="-462.1" font-family="Verdana" font-size="8.00">+ __construct(normalizers : iterable = [])</text>
<text text-anchor="start" x="739" y="-449.1" font-family="Verdana" font-size="8.00">+ getName() : string</text>
<text text-anchor="start" x="739" y="-436.1" font-family="Verdana" font-size="8.00">+ getFiles() : Iterator</text>
<text text-anchor="start" x="739" y="-423.1" font-family="Verdana" font-size="8.00">+ getErrors() : Iterator</text>
<text text-anchor="start" x="739" y="-410.1" font-family="Verdana" font-size="8.00">+ getRules() : Iterator</text>
<text text-anchor="start" x="739" y="-397.1" font-family="Verdana" font-size="8.00">+ getAttribute(name : string) : Iterator</text>
<text text-anchor="start" x="739" y="-384.1" font-family="Verdana" font-size="8.00">+ normalize(data, format : string, context : array) : bool</text>
<text text-anchor="start" x="739" y="-371.1" font-family="Verdana" font-size="8.00"># getNormalizer(format : string) : ?Bartlett\Sarif\Contract\NormalizerInterface</text>
</g>
<!-- Bartlett\\Sarif\\Converter\\Source\\EcsSource&#45;&gt;Bartlett\\Sarif\\Converter\\Source\\AbstractSource -->
<g id="edge4" class="edge">
<title>Bartlett\\Sarif\\Converter\\Source\\EcsSource&#45;&gt;Bartlett\\Sarif\\Converter\\Source\\AbstractSource</title>
<path fill="none" stroke="black" d="M876,-712.95C876,-659.29 876,-591.5 876,-537.72"/>
<polygon fill="none" stroke="black" points="879.5,-537.51 876,-527.51 872.5,-537.51 879.5,-537.51"/>
</g>
<!-- Bartlett\\Sarif\\Converter\\Source\\AbstractSource&#45;&gt;Bartlett\\Sarif\\Contract\\SourceInterface -->
<g id="edge3" class="edge">
<title>Bartlett\\Sarif\\Converter\\Source\\AbstractSource&#45;&gt;Bartlett\\Sarif\\Contract\\SourceInterface</title>
<path fill="none" stroke="black" stroke-dasharray="5,2" d="M876,-363.3C876,-300.86 876,-215.73 876,-157.69"/>
<polygon fill="none" stroke="black" points="879.5,-157.54 876,-147.54 872.5,-157.54 879.5,-157.54"/>
</g>
<!-- Bartlett\\Sarif\\Converter\\Normalizer\\EcsNormalizer -->
<g id="node8" class="node">
<title>Bartlett\\Sarif\\Converter\\Normalizer\\EcsNormalizer</title>
<polygon fill="#fefece" stroke="transparent" points="1352,-822.5 1290,-822.5 1290,-786.5 1352,-786.5 1352,-822.5"/>
<polygon fill="#eeeeee" stroke="transparent" points="1290,-799.5 1290,-821.5 1352,-821.5 1352,-799.5 1290,-799.5"/>
<polygon fill="none" stroke="black" points="1290,-799.5 1290,-821.5 1352,-821.5 1352,-799.5 1290,-799.5"/>
<text text-anchor="start" x="1293" y="-805.1" font-family="Verdana" font-weight="bold" font-size="8.00">EcsNormalizer</text>
<polygon fill="none" stroke="black" points="1290,-793.5 1290,-799.5 1352,-799.5 1352,-793.5 1290,-793.5"/>
<polygon fill="none" stroke="black" points="1290,-787.5 1290,-793.5 1352,-793.5 1352,-787.5 1290,-787.5"/>
</g>
<!-- Bartlett\\Sarif\\Converter\\Normalizer\\AbstractNormalizer -->
<g id="node9" class="node">
<title>Bartlett\\Sarif\\Converter\\Normalizer\\AbstractNormalizer</title>
<polygon fill="#fefece" stroke="transparent" points="1454,-517.5 1188,-517.5 1188,-373.5 1454,-373.5 1454,-517.5"/>
<polygon fill="#eeeeee" stroke="transparent" points="1188,-495.5 1188,-517.5 1454,-517.5 1454,-495.5 1188,-495.5"/>
<polygon fill="none" stroke="black" points="1188,-495.5 1188,-517.5 1454,-517.5 1454,-495.5 1188,-495.5"/>
<text text-anchor="start" x="1300" y="-509.1" font-family="Verdana" font-weight="bold" font-size="8.00">«abstract»</text>
<text text-anchor="start" x="1283" y="-501.1" font-family="Verdana" font-weight="bold" font-size="8.00">AbstractNormalizer</text>
<polygon fill="none" stroke="black" points="1188,-424.5 1188,-495.5 1454,-495.5 1454,-424.5 1188,-424.5"/>
<text text-anchor="start" x="1193" y="-484.1" font-family="Verdana" font-size="8.00">+ «static» FORMAT_SARIF : string = &quot;sarif&quot; {readOnly}</text>
<text text-anchor="start" x="1193" y="-471.1" font-family="Verdana" font-size="8.00">+ «static» FORMAT_JSON : string = &quot;json&quot; {readOnly}</text>
<text text-anchor="start" x="1193" y="-458.1" font-family="Verdana" font-size="8.00">+ «static» FORMAT_XML : string = &quot;xml&quot; {readOnly}</text>
<text text-anchor="start" x="1193" y="-445.1" font-family="Verdana" font-size="8.00">+ «static» FORMAT_CHECKSTYLE : string = &quot;checkstyle&quot; {readOnly}</text>
<text text-anchor="start" x="1193" y="-432.1" font-family="Verdana" font-size="8.00">+ «static» FORMAT_INTERNAL : string = &quot;internal&quot; {readOnly}</text>
<polygon fill="none" stroke="black" points="1188,-418.5 1188,-424.5 1454,-424.5 1454,-418.5 1188,-418.5"/>
<polygon fill="none" stroke="black" points="1188,-373.5 1188,-418.5 1454,-418.5 1454,-373.5 1188,-373.5"/>
<text text-anchor="start" x="1193" y="-407.1" font-family="Verdana" font-size="8.00">+ getSupportedFormats() : array</text>
<text text-anchor="start" x="1193" y="-394.1" font-family="Verdana" font-size="8.00">+ normalize(data, format : string, context : array) : ?ArrayObject</text>
<text text-anchor="start" x="1193" y="-381.1" font-family="Verdana" font-size="8.00"># fromInternal(data : TData, context : array, mapping : array = []) : array</text>
</g>
<!-- Bartlett\\Sarif\\Converter\\Normalizer\\EcsNormalizer&#45;&gt;Bartlett\\Sarif\\Converter\\Normalizer\\AbstractNormalizer -->
<g id="edge6" class="edge">
<title>Bartlett\\Sarif\\Converter\\Normalizer\\EcsNormalizer&#45;&gt;Bartlett\\Sarif\\Converter\\Normalizer\\AbstractNormalizer</title>
<path fill="none" stroke="black" d="M1321,-786.28C1321,-740.37 1321,-612.76 1321,-527.66"/>
<polygon fill="none" stroke="black" points="1324.5,-527.51 1321,-517.51 1317.5,-527.51 1324.5,-527.51"/>
</g>
<!-- Bartlett\\Sarif\\Converter\\Normalizer\\AbstractNormalizer&#45;&gt;Bartlett\\Sarif\\Contract\\NormalizerInterface -->
<g id="edge5" class="edge">
<title>Bartlett\\Sarif\\Converter\\Normalizer\\AbstractNormalizer&#45;&gt;Bartlett\\Sarif\\Contract\\NormalizerInterface</title>
<path fill="none" stroke="black" stroke-dasharray="5,2" d="M1292.87,-373.27C1269.15,-313.2 1235.32,-227.54 1211.28,-166.66"/>
<polygon fill="none" stroke="black" points="1214.44,-165.12 1207.51,-157.11 1207.93,-167.69 1214.44,-165.12"/>
</g>
</g>
</svg>
