<?xml version="1.0" encoding="UTF-8" standalone="no"?>
<!DOCTYPE svg PUBLIC "-//W3C//DTD SVG 1.1//EN"
 "http://www.w3.org/Graphics/SVG/1.1/DTD/svg11.dtd">
<!-- Generated by graphviz version 2.43.0 (0)
 -->
<!-- Title: %3 Pages: 1 -->
<svg width="1208pt" height="794pt"
 viewBox="0.00 0.00 1208.00 794.00" xmlns="http://www.w3.org/2000/svg" xmlns:xlink="http://www.w3.org/1999/xlink">
<g id="graph0" class="graph" transform="scale(1 1) rotate(0) translate(4 790)">
<title>%3</title>
<g id="clust1" class="cluster">
<title>cluster_0</title>
<polygon fill="BurlyWood" stroke="black" points="8,-206 8,-778 572,-778 572,-206 8,-206"/>
<text text-anchor="middle" x="290" y="-762.8" font-family="Times,serif" font-size="14.00">Bartlett\Sarif\Converter</text>
</g>
<g id="clust2" class="cluster">
<title>cluster_1</title>
<polygon fill="LightSkyBlue" stroke="black" points="218,-8 218,-198 1192,-198 1192,-8 218,-8"/>
<text text-anchor="middle" x="705" y="-182.8" font-family="Times,serif" font-size="14.00">Bartlett\Sarif\Contract</text>
</g>
<g id="clust3" class="cluster">
<title>cluster_2</title>
<polygon fill="Bisque" stroke="black" points="580,-349 580,-778 880,-778 880,-349 580,-349"/>
<text text-anchor="middle" x="730" y="-762.8" font-family="Times,serif" font-size="14.00">Bartlett\Sarif\Converter\Source</text>
</g>
<g id="clust4" class="cluster">
<title>cluster_3</title>
<polygon fill="Bisque" stroke="black" points="891,-359 891,-778 1173,-778 1173,-359 891,-359"/>
<text text-anchor="middle" x="1032" y="-762.8" font-family="Times,serif" font-size="14.00">Bartlett\Sarif\Converter\Normalizer</text>
</g>
<!-- Bartlett\\Sarif\\Converter\\TwigCsFixerConverter -->
<g id="node1" class="node">
<title>Bartlett\\Sarif\\Converter\\TwigCsFixerConverter</title>
<polygon fill="#fefece" stroke="transparent" points="360.5,-747 219.5,-747 219.5,-700 360.5,-700 360.5,-747"/>
<polygon fill="#eeeeee" stroke="transparent" points="220,-724.5 220,-746.5 361,-746.5 361,-724.5 220,-724.5"/>
<polygon fill="none" stroke="black" points="220,-724.5 220,-746.5 361,-746.5 361,-724.5 220,-724.5"/>
<text text-anchor="start" x="247.5" y="-730.1" font-family="Verdana" font-weight="bold" font-size="8.00">TwigCsFixerConverter</text>
<polygon fill="none" stroke="black" points="220,-718.5 220,-724.5 361,-724.5 361,-718.5 220,-718.5"/>
<polygon fill="none" stroke="black" points="220,-699.5 220,-718.5 361,-718.5 361,-699.5 220,-699.5"/>
<text text-anchor="start" x="225" y="-707.1" font-family="Verdana" font-size="8.00">+ configure(options : array = []) : void</text>
</g>
<!-- Bartlett\\Sarif\\Converter\\AbstractConverter -->
<g id="node2" class="node">
<title>Bartlett\\Sarif\\Converter\\AbstractConverter</title>
<polygon fill="#fefece" stroke="transparent" points="564,-664 16,-664 16,-214 564,-214 564,-664"/>
<polygon fill="#eeeeee" stroke="transparent" points="16,-642 16,-664 564,-664 564,-642 16,-642"/>
<polygon fill="none" stroke="black" points="16,-642 16,-664 564,-664 564,-642 16,-642"/>
<text text-anchor="start" x="269" y="-655.6" font-family="Verdana" font-weight="bold" font-size="8.00">«abstract»</text>
<text text-anchor="start" x="253.5" y="-647.6" font-family="Verdana" font-weight="bold" font-size="8.00">AbstractConverter</text>
<polygon fill="none" stroke="black" points="16,-441 16,-642 564,-642 564,-441 16,-441"/>
<text text-anchor="start" x="21" y="-630.6" font-family="Verdana" font-size="8.00"># toolName</text>
<text text-anchor="start" x="21" y="-617.6" font-family="Verdana" font-size="8.00"># toolFullName</text>
<text text-anchor="start" x="21" y="-604.6" font-family="Verdana" font-size="8.00"># toolShortDescription</text>
<text text-anchor="start" x="21" y="-591.6" font-family="Verdana" font-size="8.00"># toolFullDescription</text>
<text text-anchor="start" x="21" y="-578.6" font-family="Verdana" font-size="8.00"># toolInformationUri</text>
<text text-anchor="start" x="21" y="-565.6" font-family="Verdana" font-size="8.00"># toolComposerPackage</text>
<text text-anchor="start" x="21" y="-552.6" font-family="Verdana" font-size="8.00"># toolSemanticVersion</text>
<text text-anchor="start" x="21" y="-539.6" font-family="Verdana" font-size="8.00"># converterComposerPackage</text>
<text text-anchor="start" x="21" y="-526.6" font-family="Verdana" font-size="8.00"># results : mixed = []</text>
<text text-anchor="start" x="21" y="-513.6" font-family="Verdana" font-size="8.00"># errors : mixed = []</text>
<text text-anchor="start" x="21" y="-500.6" font-family="Verdana" font-size="8.00"># serializer</text>
<text text-anchor="start" x="21" y="-487.6" font-family="Verdana" font-size="8.00"># startTime</text>
<text text-anchor="start" x="21" y="-474.6" font-family="Verdana" font-size="8.00"># endTime</text>
<text text-anchor="start" x="21" y="-461.6" font-family="Verdana" font-size="8.00"># includeCodeSnippets</text>
<text text-anchor="start" x="21" y="-448.6" font-family="Verdana" font-size="8.00"># includeContextRegion</text>
<polygon fill="none" stroke="black" points="16,-214 16,-441 564,-441 564,-214 16,-214"/>
<text text-anchor="start" x="21" y="-429.6" font-family="Verdana" font-size="8.00">+ __construct(options : array = [], factory : Bartlett\Sarif\Factory\SerializerFactory = «unknown»)</text>
<text text-anchor="start" x="21" y="-416.6" font-family="Verdana" font-size="8.00">+ getName() : string</text>
<text text-anchor="start" x="21" y="-403.6" font-family="Verdana" font-size="8.00">+ configure(options : array) : void</text>
<text text-anchor="start" x="21" y="-390.6" font-family="Verdana" font-size="8.00">+ toolDriver() : Bartlett\Sarif\Definition\ToolComponent</text>
<text text-anchor="start" x="21" y="-377.6" font-family="Verdana" font-size="8.00">+ toolExtensions() : array</text>
<text text-anchor="start" x="21" y="-364.6" font-family="Verdana" font-size="8.00">+ rules(defined : iterable) : array</text>
<text text-anchor="start" x="21" y="-351.6" font-family="Verdana" font-size="8.00">+ results(normalized : iterable) : void</text>
<text text-anchor="start" x="21" y="-338.6" font-family="Verdana" font-size="8.00">+ sarifLog(runs : array = [], version : string = &#39;2\.1\.0&#39;) : ?string</text>
<text text-anchor="start" x="21" y="-325.6" font-family="Verdana" font-size="8.00">+ invocations(properties : Bartlett\Sarif\Definition\PropertyBag = «unknown») : array</text>
<text text-anchor="start" x="21" y="-312.6" font-family="Verdana" font-size="8.00">+ automationDetails() : Bartlett\Sarif\Definition\RunAutomationDetails</text>
<text text-anchor="start" x="21" y="-299.6" font-family="Verdana" font-size="8.00">+ run(invocations : iterable, rules : iterable) : Bartlett\Sarif\Definition\Run</text>
<text text-anchor="start" x="21" y="-286.6" font-family="Verdana" font-size="8.00"># getToolVersion(package : string) : string</text>
<text text-anchor="start" x="21" y="-273.6" font-family="Verdana" font-size="8.00"># pathToArtifactLocation(path : string) : string</text>
<text text-anchor="start" x="21" y="-260.6" font-family="Verdana" font-size="8.00"># pathToUri(path : string) : string</text>
<text text-anchor="start" x="21" y="-247.6" font-family="Verdana" font-size="8.00"># getCodeSnippet(filePath : string, lineNumber : int, linesBefore : int, linesAfter : int) : ?string</text>
<text text-anchor="start" x="21" y="-234.6" font-family="Verdana" font-size="8.00"># getSnippetRegion(filePath : string, lineNumber : int, column : int = «unknown», linesBefore : int = 2, linesAfter : int = 2) : Bartlett\Sarif\Definition\Region</text>
<text text-anchor="start" x="21" y="-221.6" font-family="Verdana" font-size="8.00"># getErrors() : Iterator</text>
</g>
<!-- Bartlett\\Sarif\\Converter\\TwigCsFixerConverter&#45;&gt;Bartlett\\Sarif\\Converter\\AbstractConverter -->
<g id="edge2" class="edge">
<title>Bartlett\\Sarif\\Converter\\TwigCsFixerConverter&#45;&gt;Bartlett\\Sarif\\Converter\\AbstractConverter</title>
<path fill="none" stroke="black" d="M290,-699.86C290,-692.64 290,-683.97 290,-674.23"/>
<polygon fill="none" stroke="black" points="293.5,-674.16 290,-664.16 286.5,-674.16 293.5,-674.16"/>
</g>
<!-- Bartlett\\Sarif\\Contract\\ConverterInterface -->
<g id="node3" class="node">
<title>Bartlett\\Sarif\\Contract\\ConverterInterface</title>
<polygon fill="#fefece" stroke="transparent" points="572,-167 226,-167 226,-16 572,-16 572,-167"/>
<polygon fill="#eeeeee" stroke="transparent" points="226,-144.5 226,-166.5 572,-166.5 572,-144.5 226,-144.5"/>
<polygon fill="none" stroke="black" points="226,-144.5 226,-166.5 572,-166.5 572,-144.5 226,-144.5"/>
<text text-anchor="start" x="377" y="-158.1" font-family="Verdana" font-weight="bold" font-size="8.00">«interface»</text>
<text text-anchor="start" x="362.5" y="-150.1" font-family="Verdana" font-weight="bold" font-size="8.00">ConverterInterface</text>
<polygon fill="none" stroke="black" points="226,-138.5 226,-144.5 572,-144.5 572,-138.5 226,-138.5"/>
<polygon fill="none" stroke="black" points="226,-15.5 226,-138.5 572,-138.5 572,-15.5 226,-15.5"/>
<text text-anchor="start" x="231" y="-127.1" font-family="Verdana" font-size="8.00">+ «abstract» getName() : string</text>
<text text-anchor="start" x="231" y="-114.1" font-family="Verdana" font-size="8.00">+ «abstract» toolDriver() : Bartlett\Sarif\Definition\ToolComponent</text>
<text text-anchor="start" x="231" y="-101.1" font-family="Verdana" font-size="8.00">+ «abstract» toolExtensions() : array</text>
<text text-anchor="start" x="231" y="-88.1" font-family="Verdana" font-size="8.00">+ «abstract» rules(defined : iterable) : array</text>
<text text-anchor="start" x="231" y="-75.1" font-family="Verdana" font-size="8.00">+ «abstract» results(normalized : iterable) : void</text>
<text text-anchor="start" x="231" y="-62.1" font-family="Verdana" font-size="8.00">+ «abstract» invocations(properties : Bartlett\Sarif\Definition\PropertyBag = «unknown») : array</text>
<text text-anchor="start" x="231" y="-49.1" font-family="Verdana" font-size="8.00">+ «abstract» automationDetails() : Bartlett\Sarif\Definition\RunAutomationDetails</text>
<text text-anchor="start" x="231" y="-36.1" font-family="Verdana" font-size="8.00">+ «abstract» run(invocations : iterable, rules : iterable) : Bartlett\Sarif\Definition\Run</text>
<text text-anchor="start" x="231" y="-23.1" font-family="Verdana" font-size="8.00">+ «abstract» sarifLog(runs : array = [], version : string = &#39;2\.1\.0&#39;) : ?string</text>
</g>
<!-- Bartlett\\Sarif\\Converter\\AbstractConverter&#45;&gt;Bartlett\\Sarif\\Contract\\ConverterInterface -->
<g id="edge1" class="edge">
<title>Bartlett\\Sarif\\Converter\\AbstractConverter&#45;&gt;Bartlett\\Sarif\\Contract\\ConverterInterface</title>
<path fill="none" stroke="black" stroke-dasharray="5,2" d="M360.72,-213.82C364.77,-200.99 368.69,-188.58 372.37,-176.9"/>
<polygon fill="none" stroke="black" points="375.74,-177.87 375.41,-167.28 369.06,-175.76 375.74,-177.87"/>
</g>
<!-- Bartlett\\Sarif\\Contract\\SourceInterface -->
<g id="node4" class="node">
<title>Bartlett\\Sarif\\Contract\\SourceInterface</title>
<polygon fill="#fefece" stroke="transparent" points="862,-147.5 590,-147.5 590,-35.5 862,-35.5 862,-147.5"/>
<polygon fill="#eeeeee" stroke="transparent" points="590,-125.5 590,-147.5 862,-147.5 862,-125.5 590,-125.5"/>
<polygon fill="none" stroke="black" points="590,-125.5 590,-147.5 862,-147.5 862,-125.5 590,-125.5"/>
<text text-anchor="start" x="704" y="-139.1" font-family="Verdana" font-weight="bold" font-size="8.00">«interface»</text>
<text text-anchor="start" x="694.5" y="-131.1" font-family="Verdana" font-weight="bold" font-size="8.00">SourceInterface</text>
<polygon fill="none" stroke="black" points="590,-119.5 590,-125.5 862,-125.5 862,-119.5 590,-119.5"/>
<polygon fill="none" stroke="black" points="590,-35.5 590,-119.5 862,-119.5 862,-35.5 590,-35.5"/>
<text text-anchor="start" x="595" y="-108.1" font-family="Verdana" font-size="8.00">+ «abstract» getName() : string</text>
<text text-anchor="start" x="595" y="-95.1" font-family="Verdana" font-size="8.00">+ «abstract» getFiles() : Iterator</text>
<text text-anchor="start" x="595" y="-82.1" font-family="Verdana" font-size="8.00">+ «abstract» getErrors() : Iterator</text>
<text text-anchor="start" x="595" y="-69.1" font-family="Verdana" font-size="8.00">+ «abstract» getRules() : Iterator</text>
<text text-anchor="start" x="595" y="-56.1" font-family="Verdana" font-size="8.00">+ «abstract» getAttribute(name : string) : Iterator</text>
<text text-anchor="start" x="595" y="-43.1" font-family="Verdana" font-size="8.00">+ «abstract» normalize(data : mixed, format : string, context : array) : bool</text>
</g>
<!-- Bartlett\\Sarif\\Contract\\NormalizerInterface -->
<g id="node5" class="node">
<title>Bartlett\\Sarif\\Contract\\NormalizerInterface</title>
<polygon fill="#fefece" stroke="transparent" points="1184,-157 880,-157 880,-26 1184,-26 1184,-157"/>
<polygon fill="#eeeeee" stroke="transparent" points="880,-134.5 880,-156.5 1184,-156.5 1184,-134.5 880,-134.5"/>
<polygon fill="none" stroke="black" points="880,-134.5 880,-156.5 1184,-156.5 1184,-134.5 880,-134.5"/>
<text text-anchor="start" x="1010" y="-148.1" font-family="Verdana" font-weight="bold" font-size="8.00">«interface»</text>
<text text-anchor="start" x="994" y="-140.1" font-family="Verdana" font-weight="bold" font-size="8.00">NormalizerInterface</text>
<polygon fill="none" stroke="black" points="880,-63.5 880,-134.5 1184,-134.5 1184,-63.5 880,-63.5"/>
<text text-anchor="start" x="885" y="-123.1" font-family="Verdana" font-size="8.00">+ «static» FORMAT_SARIF : string = &quot;sarif&quot; {readOnly}</text>
<text text-anchor="start" x="885" y="-110.1" font-family="Verdana" font-size="8.00">+ «static» FORMAT_JSON : string = &quot;json&quot; {readOnly}</text>
<text text-anchor="start" x="885" y="-97.1" font-family="Verdana" font-size="8.00">+ «static» FORMAT_XML : string = &quot;xml&quot; {readOnly}</text>
<text text-anchor="start" x="885" y="-84.1" font-family="Verdana" font-size="8.00">+ «static» FORMAT_CHECKSTYLE : string = &quot;checkstyle&quot; {readOnly}</text>
<text text-anchor="start" x="885" y="-71.1" font-family="Verdana" font-size="8.00">+ «static» FORMAT_INTERNAL : string = &quot;internal&quot; {readOnly}</text>
<polygon fill="none" stroke="black" points="880,-57.5 880,-63.5 1184,-63.5 1184,-57.5 880,-57.5"/>
<polygon fill="none" stroke="black" points="880,-25.5 880,-57.5 1184,-57.5 1184,-25.5 880,-25.5"/>
<text text-anchor="start" x="885" y="-46.1" font-family="Verdana" font-size="8.00">+ «abstract» getSupportedFormats() : array</text>
<text text-anchor="start" x="885" y="-33.1" font-family="Verdana" font-size="8.00">+ «abstract» normalize(data : mixed, format : string, context : array) : ?ArrayObject</text>
</g>
<!-- Bartlett\\Sarif\\Converter\\Source\\TwigCsFixerSource -->
<g id="node6" class="node">
<title>Bartlett\\Sarif\\Converter\\Source\\TwigCsFixerSource</title>
<polygon fill="#fefece" stroke="transparent" points="806,-747 654,-747 654,-700 806,-700 806,-747"/>
<polygon fill="#eeeeee" stroke="transparent" points="654,-724.5 654,-746.5 806,-746.5 806,-724.5 654,-724.5"/>
<polygon fill="none" stroke="black" points="654,-724.5 654,-746.5 806,-746.5 806,-724.5 654,-724.5"/>
<text text-anchor="start" x="692" y="-730.1" font-family="Verdana" font-weight="bold" font-size="8.00">TwigCsFixerSource</text>
<polygon fill="none" stroke="black" points="654,-718.5 654,-724.5 806,-724.5 806,-718.5 654,-718.5"/>
<polygon fill="none" stroke="black" points="654,-699.5 654,-718.5 806,-718.5 806,-699.5 654,-699.5"/>
<text text-anchor="start" x="659" y="-707.1" font-family="Verdana" font-size="8.00">+ __construct(normalizers : iterable = [])</text>
</g>
<!-- Bartlett\\Sarif\\Converter\\Source\\AbstractSource -->
<g id="node7" class="node">
<title>Bartlett\\Sarif\\Converter\\Source\\AbstractSource</title>
<polygon fill="#fefece" stroke="transparent" points="872,-521 588,-521 588,-357 872,-357 872,-521"/>
<polygon fill="#eeeeee" stroke="transparent" points="588,-499 588,-521 872,-521 872,-499 588,-499"/>
<polygon fill="none" stroke="black" points="588,-499 588,-521 872,-521 872,-499 588,-499"/>
<text text-anchor="start" x="709" y="-512.6" font-family="Verdana" font-weight="bold" font-size="8.00">«abstract»</text>
<text text-anchor="start" x="699" y="-504.6" font-family="Verdana" font-weight="bold" font-size="8.00">AbstractSource</text>
<polygon fill="none" stroke="black" points="588,-467 588,-499 872,-499 872,-467 588,-467"/>
<text text-anchor="start" x="593" y="-487.6" font-family="Verdana" font-size="8.00">– normalizers : mixed</text>
<text text-anchor="start" x="593" y="-474.6" font-family="Verdana" font-size="8.00">– normalized</text>
<polygon fill="none" stroke="black" points="588,-357 588,-467 872,-467 872,-357 588,-357"/>
<text text-anchor="start" x="593" y="-455.6" font-family="Verdana" font-size="8.00">+ __construct(normalizers : iterable = [])</text>
<text text-anchor="start" x="593" y="-442.6" font-family="Verdana" font-size="8.00">+ getName() : string</text>
<text text-anchor="start" x="593" y="-429.6" font-family="Verdana" font-size="8.00">+ getFiles() : Iterator</text>
<text text-anchor="start" x="593" y="-416.6" font-family="Verdana" font-size="8.00">+ getErrors() : Iterator</text>
<text text-anchor="start" x="593" y="-403.6" font-family="Verdana" font-size="8.00">+ getRules() : Iterator</text>
<text text-anchor="start" x="593" y="-390.6" font-family="Verdana" font-size="8.00">+ getAttribute(name : string) : Iterator</text>
<text text-anchor="start" x="593" y="-377.6" font-family="Verdana" font-size="8.00">+ normalize(data, format : string, context : array) : bool</text>
<text text-anchor="start" x="593" y="-364.6" font-family="Verdana" font-size="8.00"># getNormalizer(format : string) : ?Bartlett\Sarif\Contract\NormalizerInterface</text>
</g>
<!-- Bartlett\\Sarif\\Converter\\Source\\TwigCsFixerSource&#45;&gt;Bartlett\\Sarif\\Converter\\Source\\AbstractSource -->
<g id="edge4" class="edge">
<title>Bartlett\\Sarif\\Converter\\Source\\TwigCsFixerSource&#45;&gt;Bartlett\\Sarif\\Converter\\Source\\AbstractSource</title>
<path fill="none" stroke="black" d="M730,-699.86C730,-663.66 730,-590.77 730,-531.38"/>
<polygon fill="none" stroke="black" points="733.5,-531.21 730,-521.21 726.5,-531.21 733.5,-531.21"/>
</g>
<!-- Bartlett\\Sarif\\Converter\\Source\\AbstractSource&#45;&gt;Bartlett\\Sarif\\Contract\\SourceInterface -->
<g id="edge3" class="edge">
<title>Bartlett\\Sarif\\Converter\\Source\\AbstractSource&#45;&gt;Bartlett\\Sarif\\Contract\\SourceInterface</title>
<path fill="none" stroke="black" stroke-dasharray="5,2" d="M729.06,-357C728.36,-296.35 727.41,-214.45 726.76,-157.93"/>
<polygon fill="none" stroke="black" points="730.25,-157.64 726.64,-147.68 723.25,-157.72 730.25,-157.64"/>
</g>
<!-- Bartlett\\Sarif\\Converter\\Normalizer\\TwigCsFixerNormalizer -->
<g id="node8" class="node">
<title>Bartlett\\Sarif\\Converter\\Normalizer\\TwigCsFixerNormalizer</title>
<polygon fill="#fefece" stroke="transparent" points="1150.5,-747 913.5,-747 913.5,-700 1150.5,-700 1150.5,-747"/>
<polygon fill="#eeeeee" stroke="transparent" points="914,-724.5 914,-746.5 1151,-746.5 1151,-724.5 914,-724.5"/>
<polygon fill="none" stroke="black" points="914,-724.5 914,-746.5 1151,-746.5 1151,-724.5 914,-724.5"/>
<text text-anchor="start" x="988" y="-730.1" font-family="Verdana" font-weight="bold" font-size="8.00">TwigCsFixerNormalizer</text>
<polygon fill="none" stroke="black" points="914,-718.5 914,-724.5 1151,-724.5 1151,-718.5 914,-718.5"/>
<polygon fill="none" stroke="black" points="914,-699.5 914,-718.5 1151,-718.5 1151,-699.5 914,-699.5"/>
<text text-anchor="start" x="919" y="-707.1" font-family="Verdana" font-size="8.00"># fromInternal(data, context : array, mapping : array = []) : array</text>
</g>
<!-- Bartlett\\Sarif\\Converter\\Normalizer\\AbstractNormalizer -->
<g id="node9" class="node">
<title>Bartlett\\Sarif\\Converter\\Normalizer\\AbstractNormalizer</title>
<polygon fill="#fefece" stroke="transparent" points="1164.5,-511 899.5,-511 899.5,-367 1164.5,-367 1164.5,-511"/>
<polygon fill="#eeeeee" stroke="transparent" points="900,-489 900,-511 1165,-511 1165,-489 900,-489"/>
<polygon fill="none" stroke="black" points="900,-489 900,-511 1165,-511 1165,-489 900,-489"/>
<text text-anchor="start" x="1011.5" y="-502.6" font-family="Verdana" font-weight="bold" font-size="8.00">«abstract»</text>
<text text-anchor="start" x="994.5" y="-494.6" font-family="Verdana" font-weight="bold" font-size="8.00">AbstractNormalizer</text>
<polygon fill="none" stroke="black" points="900,-418 900,-489 1165,-489 1165,-418 900,-418"/>
<text text-anchor="start" x="905" y="-477.6" font-family="Verdana" font-size="8.00">+ «static» FORMAT_SARIF : string = &quot;sarif&quot; {readOnly}</text>
<text text-anchor="start" x="905" y="-464.6" font-family="Verdana" font-size="8.00">+ «static» FORMAT_JSON : string = &quot;json&quot; {readOnly}</text>
<text text-anchor="start" x="905" y="-451.6" font-family="Verdana" font-size="8.00">+ «static» FORMAT_XML : string = &quot;xml&quot; {readOnly}</text>
<text text-anchor="start" x="905" y="-438.6" font-family="Verdana" font-size="8.00">+ «static» FORMAT_CHECKSTYLE : string = &quot;checkstyle&quot; {readOnly}</text>
<text text-anchor="start" x="905" y="-425.6" font-family="Verdana" font-size="8.00">+ «static» FORMAT_INTERNAL : string = &quot;internal&quot; {readOnly}</text>
<polygon fill="none" stroke="black" points="900,-412 900,-418 1165,-418 1165,-412 900,-412"/>
<polygon fill="none" stroke="black" points="900,-367 900,-412 1165,-412 1165,-367 900,-367"/>
<text text-anchor="start" x="905" y="-400.6" font-family="Verdana" font-size="8.00">+ getSupportedFormats() : array</text>
<text text-anchor="start" x="905" y="-387.6" font-family="Verdana" font-size="8.00">+ normalize(data, format : string, context : array) : ?ArrayObject</text>
<text text-anchor="start" x="905" y="-374.6" font-family="Verdana" font-size="8.00"># fromInternal(data : mixed, context : array, mapping : array = []) : array</text>
</g>
<!-- Bartlett\\Sarif\\Converter\\Normalizer\\TwigCsFixerNormalizer&#45;&gt;Bartlett\\Sarif\\Converter\\Normalizer\\AbstractNormalizer -->
<g id="edge6" class="edge">
<title>Bartlett\\Sarif\\Converter\\Normalizer\\TwigCsFixerNormalizer&#45;&gt;Bartlett\\Sarif\\Converter\\Normalizer\\AbstractNormalizer</title>
<path fill="none" stroke="black" d="M1032,-699.86C1032,-661.54 1032,-582.1 1032,-521.09"/>
<polygon fill="none" stroke="black" points="1035.5,-521.08 1032,-511.08 1028.5,-521.08 1035.5,-521.08"/>
</g>
<!-- Bartlett\\Sarif\\Converter\\Normalizer\\AbstractNormalizer&#45;&gt;Bartlett\\Sarif\\Contract\\NormalizerInterface -->
<g id="edge5" class="edge">
<title>Bartlett\\Sarif\\Converter\\Normalizer\\AbstractNormalizer&#45;&gt;Bartlett\\Sarif\\Contract\\NormalizerInterface</title>
<path fill="none" stroke="black" stroke-dasharray="5,2" d="M1032,-366.83C1032,-308.57 1032,-226.4 1032,-167.2"/>
<polygon fill="none" stroke="black" points="1035.5,-167.16 1032,-157.16 1028.5,-167.16 1035.5,-167.16"/>
</g>
</g>
</svg>
