<?xml version="1.0" encoding="UTF-8" standalone="no"?>
<!DOCTYPE svg PUBLIC "-//W3C//DTD SVG 1.1//EN"
 "http://www.w3.org/Graphics/SVG/1.1/DTD/svg11.dtd">
<!-- Generated by graphviz version 2.43.0 (0)
 -->
<!-- Title: %3 Pages: 1 -->
<svg width="1256pt" height="839pt"
 viewBox="0.00 0.00 1256.00 839.00" xmlns="http://www.w3.org/2000/svg" xmlns:xlink="http://www.w3.org/1999/xlink">
<g id="graph0" class="graph" transform="scale(1 1) rotate(0) translate(4 835)">
<title>%3</title>
<g id="clust1" class="cluster">
<title>cluster_0</title>
<polygon fill="BurlyWood" stroke="black" points="8,-206 8,-813.5 572,-813.5 572,-206 8,-206"/>
<text text-anchor="middle" x="290" y="-798.3" font-family="Times,serif" font-size="14.00">Bartlett\Sarif\Converter</text>
</g>
<g id="clust2" class="cluster">
<title>cluster_1</title>
<polygon fill="LightSkyBlue" stroke="black" points="222,-8 222,-198 1196,-198 1196,-8 222,-8"/>
<text text-anchor="middle" x="709" y="-182.8" font-family="Times,serif" font-size="14.00">Bartlett\Sarif\Contract</text>
</g>
<g id="clust3" class="cluster">
<title>cluster_2</title>
<polygon fill="Bisque" stroke="black" points="580,-355.5 580,-807 880,-807 880,-355.5 580,-355.5"/>
<text text-anchor="middle" x="730" y="-791.8" font-family="Times,serif" font-size="14.00">Bartlett\Sarif\Converter\Source</text>
</g>
<g id="clust4" class="cluster">
<title>cluster_3</title>
<polygon fill="Bisque" stroke="black" points="888,-365.5 888,-823 1240,-823 1240,-365.5 888,-365.5"/>
<text text-anchor="middle" x="1064" y="-807.8" font-family="Times,serif" font-size="14.00">Bartlett\Sarif\Converter\Normalizer</text>
</g>
<!-- Bartlett\\Sarif\\Converter\\PhpStanConverter -->
<g id="node1" class="node">
<title>Bartlett\\Sarif\\Converter\\PhpStanConverter</title>
<polygon fill="#fefece" stroke="transparent" points="391.5,-782.5 188.5,-782.5 188.5,-722.5 391.5,-722.5 391.5,-782.5"/>
<polygon fill="#eeeeee" stroke="transparent" points="189,-760.5 189,-782.5 392,-782.5 392,-760.5 189,-760.5"/>
<polygon fill="none" stroke="black" points="189,-760.5 189,-782.5 392,-782.5 392,-760.5 189,-760.5"/>
<text text-anchor="start" x="254" y="-766.1" font-family="Verdana" font-weight="bold" font-size="8.00">PhpStanConverter</text>
<polygon fill="none" stroke="black" points="189,-754.5 189,-760.5 392,-760.5 392,-754.5 189,-754.5"/>
<polygon fill="none" stroke="black" points="189,-722.5 189,-754.5 392,-754.5 392,-722.5 189,-722.5"/>
<text text-anchor="start" x="194" y="-743.1" font-family="Verdana" font-size="8.00">+ configure(options : array = []) : void</text>
<text text-anchor="start" x="194" y="-730.1" font-family="Verdana" font-size="8.00">+ toolDriver() : Bartlett\Sarif\Definition\ToolComponent</text>
</g>
<!-- Bartlett\\Sarif\\Converter\\AbstractConverter -->
<g id="node2" class="node">
<title>Bartlett\\Sarif\\Converter\\AbstractConverter</title>
<polygon fill="#fefece" stroke="transparent" points="564,-677 16,-677 16,-214 564,-214 564,-677"/>
<polygon fill="#eeeeee" stroke="transparent" points="16,-654.5 16,-676.5 564,-676.5 564,-654.5 16,-654.5"/>
<polygon fill="none" stroke="black" points="16,-654.5 16,-676.5 564,-676.5 564,-654.5 16,-654.5"/>
<text text-anchor="start" x="269" y="-668.1" font-family="Verdana" font-weight="bold" font-size="8.00">«abstract»</text>
<text text-anchor="start" x="253.5" y="-660.1" font-family="Verdana" font-weight="bold" font-size="8.00">AbstractConverter</text>
<polygon fill="none" stroke="black" points="16,-440.5 16,-654.5 564,-654.5 564,-440.5 16,-440.5"/>
<text text-anchor="start" x="21" y="-643.1" font-family="Verdana" font-size="8.00"># toolName</text>
<text text-anchor="start" x="21" y="-630.1" font-family="Verdana" font-size="8.00"># toolFullName</text>
<text text-anchor="start" x="21" y="-617.1" font-family="Verdana" font-size="8.00"># toolShortDescription</text>
<text text-anchor="start" x="21" y="-604.1" font-family="Verdana" font-size="8.00"># toolFullDescription</text>
<text text-anchor="start" x="21" y="-591.1" font-family="Verdana" font-size="8.00"># toolInformationUri</text>
<text text-anchor="start" x="21" y="-578.1" font-family="Verdana" font-size="8.00"># toolComposerPackage</text>
<text text-anchor="start" x="21" y="-565.1" font-family="Verdana" font-size="8.00"># toolSemanticVersion</text>
<text text-anchor="start" x="21" y="-552.1" font-family="Verdana" font-size="8.00"># converterComposerPackage</text>
<text text-anchor="start" x="21" y="-539.1" font-family="Verdana" font-size="8.00"># results : mixed = []</text>
<text text-anchor="start" x="21" y="-526.1" font-family="Verdana" font-size="8.00"># errors : mixed = []</text>
<text text-anchor="start" x="21" y="-513.1" font-family="Verdana" font-size="8.00"># serializer</text>
<text text-anchor="start" x="21" y="-500.1" font-family="Verdana" font-size="8.00"># startTime</text>
<text text-anchor="start" x="21" y="-487.1" font-family="Verdana" font-size="8.00"># endTime</text>
<text text-anchor="start" x="21" y="-474.1" font-family="Verdana" font-size="8.00"># includeCodeSnippets</text>
<text text-anchor="start" x="21" y="-461.1" font-family="Verdana" font-size="8.00"># includeContextRegion</text>
<text text-anchor="start" x="21" y="-448.1" font-family="Verdana" font-size="8.00"># defaultResultLevelIfEmpty</text>
<polygon fill="none" stroke="black" points="16,-213.5 16,-440.5 564,-440.5 564,-213.5 16,-213.5"/>
<text text-anchor="start" x="21" y="-429.1" font-family="Verdana" font-size="8.00">+ __construct(options : array = [], factory : Bartlett\Sarif\Factory\SerializerFactory = «unknown»)</text>
<text text-anchor="start" x="21" y="-416.1" font-family="Verdana" font-size="8.00">+ getName() : string</text>
<text text-anchor="start" x="21" y="-403.1" font-family="Verdana" font-size="8.00">+ configure(options : array) : void</text>
<text text-anchor="start" x="21" y="-390.1" font-family="Verdana" font-size="8.00">+ toolDriver() : Bartlett\Sarif\Definition\ToolComponent</text>
<text text-anchor="start" x="21" y="-377.1" font-family="Verdana" font-size="8.00">+ toolExtensions() : array</text>
<text text-anchor="start" x="21" y="-364.1" font-family="Verdana" font-size="8.00">+ rules(defined : iterable) : array</text>
<text text-anchor="start" x="21" y="-351.1" font-family="Verdana" font-size="8.00">+ results(normalized : iterable) : void</text>
<text text-anchor="start" x="21" y="-338.1" font-family="Verdana" font-size="8.00">+ sarifLog(runs : array = [], version : string = &#39;2\.1\.0&#39;) : ?string</text>
<text text-anchor="start" x="21" y="-325.1" font-family="Verdana" font-size="8.00">+ invocations(properties : Bartlett\Sarif\Definition\PropertyBag = «unknown») : array</text>
<text text-anchor="start" x="21" y="-312.1" font-family="Verdana" font-size="8.00">+ automationDetails() : Bartlett\Sarif\Definition\RunAutomationDetails</text>
<text text-anchor="start" x="21" y="-299.1" font-family="Verdana" font-size="8.00">+ run(invocations : iterable, rules : iterable) : Bartlett\Sarif\Definition\Run</text>
<text text-anchor="start" x="21" y="-286.1" font-family="Verdana" font-size="8.00"># getToolVersion(package : string) : string</text>
<text text-anchor="start" x="21" y="-273.1" font-family="Verdana" font-size="8.00"># pathToArtifactLocation(path : string) : string</text>
<text text-anchor="start" x="21" y="-260.1" font-family="Verdana" font-size="8.00"># pathToUri(path : string) : string</text>
<text text-anchor="start" x="21" y="-247.1" font-family="Verdana" font-size="8.00"># getCodeSnippet(filePath : string, lineNumber : int, linesBefore : int, linesAfter : int) : ?string</text>
<text text-anchor="start" x="21" y="-234.1" font-family="Verdana" font-size="8.00"># getSnippetRegion(filePath : string, lineNumber : int, column : int = «unknown», linesBefore : int = 2, linesAfter : int = 2) : Bartlett\Sarif\Definition\Region</text>
<text text-anchor="start" x="21" y="-221.1" font-family="Verdana" font-size="8.00"># getErrors() : Iterator</text>
</g>
<!-- Bartlett\\Sarif\\Converter\\PhpStanConverter&#45;&gt;Bartlett\\Sarif\\Converter\\AbstractConverter -->
<g id="edge2" class="edge">
<title>Bartlett\\Sarif\\Converter\\PhpStanConverter&#45;&gt;Bartlett\\Sarif\\Converter\\AbstractConverter</title>
<path fill="none" stroke="black" d="M290,-722.26C290,-712.45 290,-700.62 290,-687.44"/>
<polygon fill="none" stroke="black" points="293.5,-687.12 290,-677.12 286.5,-687.12 293.5,-687.12"/>
</g>
<!-- Bartlett\\Sarif\\Contract\\ConverterInterface -->
<g id="node3" class="node">
<title>Bartlett\\Sarif\\Contract\\ConverterInterface</title>
<polygon fill="#fefece" stroke="transparent" points="576,-167 230,-167 230,-16 576,-16 576,-167"/>
<polygon fill="#eeeeee" stroke="transparent" points="230,-144.5 230,-166.5 576,-166.5 576,-144.5 230,-144.5"/>
<polygon fill="none" stroke="black" points="230,-144.5 230,-166.5 576,-166.5 576,-144.5 230,-144.5"/>
<text text-anchor="start" x="381" y="-158.1" font-family="Verdana" font-weight="bold" font-size="8.00">«interface»</text>
<text text-anchor="start" x="366.5" y="-150.1" font-family="Verdana" font-weight="bold" font-size="8.00">ConverterInterface</text>
<polygon fill="none" stroke="black" points="230,-138.5 230,-144.5 576,-144.5 576,-138.5 230,-138.5"/>
<polygon fill="none" stroke="black" points="230,-15.5 230,-138.5 576,-138.5 576,-15.5 230,-15.5"/>
<text text-anchor="start" x="235" y="-127.1" font-family="Verdana" font-size="8.00">+ «abstract» getName() : string</text>
<text text-anchor="start" x="235" y="-114.1" font-family="Verdana" font-size="8.00">+ «abstract» toolDriver() : Bartlett\Sarif\Definition\ToolComponent</text>
<text text-anchor="start" x="235" y="-101.1" font-family="Verdana" font-size="8.00">+ «abstract» toolExtensions() : array</text>
<text text-anchor="start" x="235" y="-88.1" font-family="Verdana" font-size="8.00">+ «abstract» rules(defined : iterable) : array</text>
<text text-anchor="start" x="235" y="-75.1" font-family="Verdana" font-size="8.00">+ «abstract» results(normalized : iterable) : void</text>
<text text-anchor="start" x="235" y="-62.1" font-family="Verdana" font-size="8.00">+ «abstract» invocations(properties : Bartlett\Sarif\Definition\PropertyBag = «unknown») : array</text>
<text text-anchor="start" x="235" y="-49.1" font-family="Verdana" font-size="8.00">+ «abstract» automationDetails() : Bartlett\Sarif\Definition\RunAutomationDetails</text>
<text text-anchor="start" x="235" y="-36.1" font-family="Verdana" font-size="8.00">+ «abstract» run(invocations : iterable, rules : iterable) : Bartlett\Sarif\Definition\Run</text>
<text text-anchor="start" x="235" y="-23.1" font-family="Verdana" font-size="8.00">+ «abstract» sarifLog(runs : array = [], version : string = &#39;2\.1\.0&#39;) : ?string</text>
</g>
<!-- Bartlett\\Sarif\\Converter\\AbstractConverter&#45;&gt;Bartlett\\Sarif\\Contract\\ConverterInterface -->
<g id="edge1" class="edge">
<title>Bartlett\\Sarif\\Converter\\AbstractConverter&#45;&gt;Bartlett\\Sarif\\Contract\\ConverterInterface</title>
<path fill="none" stroke="black" stroke-dasharray="5,2" d="M364.11,-213.64C368.24,-200.78 372.23,-188.36 375.98,-176.68"/>
<polygon fill="none" stroke="black" points="379.34,-177.65 379.06,-167.06 372.68,-175.51 379.34,-177.65"/>
</g>
<!-- Bartlett\\Sarif\\Contract\\SourceInterface -->
<g id="node4" class="node">
<title>Bartlett\\Sarif\\Contract\\SourceInterface</title>
<polygon fill="#fefece" stroke="transparent" points="866,-147.5 594,-147.5 594,-35.5 866,-35.5 866,-147.5"/>
<polygon fill="#eeeeee" stroke="transparent" points="594,-125.5 594,-147.5 866,-147.5 866,-125.5 594,-125.5"/>
<polygon fill="none" stroke="black" points="594,-125.5 594,-147.5 866,-147.5 866,-125.5 594,-125.5"/>
<text text-anchor="start" x="708" y="-139.1" font-family="Verdana" font-weight="bold" font-size="8.00">«interface»</text>
<text text-anchor="start" x="698.5" y="-131.1" font-family="Verdana" font-weight="bold" font-size="8.00">SourceInterface</text>
<polygon fill="none" stroke="black" points="594,-119.5 594,-125.5 866,-125.5 866,-119.5 594,-119.5"/>
<polygon fill="none" stroke="black" points="594,-35.5 594,-119.5 866,-119.5 866,-35.5 594,-35.5"/>
<text text-anchor="start" x="599" y="-108.1" font-family="Verdana" font-size="8.00">+ «abstract» getName() : string</text>
<text text-anchor="start" x="599" y="-95.1" font-family="Verdana" font-size="8.00">+ «abstract» getFiles() : Iterator</text>
<text text-anchor="start" x="599" y="-82.1" font-family="Verdana" font-size="8.00">+ «abstract» getErrors() : Iterator</text>
<text text-anchor="start" x="599" y="-69.1" font-family="Verdana" font-size="8.00">+ «abstract» getRules() : Iterator</text>
<text text-anchor="start" x="599" y="-56.1" font-family="Verdana" font-size="8.00">+ «abstract» getAttribute(name : string) : Iterator</text>
<text text-anchor="start" x="599" y="-43.1" font-family="Verdana" font-size="8.00">+ «abstract» normalize(data : mixed, format : string, context : array) : bool</text>
</g>
<!-- Bartlett\\Sarif\\Contract\\NormalizerInterface -->
<g id="node5" class="node">
<title>Bartlett\\Sarif\\Contract\\NormalizerInterface</title>
<polygon fill="#fefece" stroke="transparent" points="1188,-157 884,-157 884,-26 1188,-26 1188,-157"/>
<polygon fill="#eeeeee" stroke="transparent" points="884,-134.5 884,-156.5 1188,-156.5 1188,-134.5 884,-134.5"/>
<polygon fill="none" stroke="black" points="884,-134.5 884,-156.5 1188,-156.5 1188,-134.5 884,-134.5"/>
<text text-anchor="start" x="1014" y="-148.1" font-family="Verdana" font-weight="bold" font-size="8.00">«interface»</text>
<text text-anchor="start" x="998" y="-140.1" font-family="Verdana" font-weight="bold" font-size="8.00">NormalizerInterface</text>
<polygon fill="none" stroke="black" points="884,-63.5 884,-134.5 1188,-134.5 1188,-63.5 884,-63.5"/>
<text text-anchor="start" x="889" y="-123.1" font-family="Verdana" font-size="8.00">+ «static» FORMAT_SARIF : string = &quot;sarif&quot; {readOnly}</text>
<text text-anchor="start" x="889" y="-110.1" font-family="Verdana" font-size="8.00">+ «static» FORMAT_JSON : string = &quot;json&quot; {readOnly}</text>
<text text-anchor="start" x="889" y="-97.1" font-family="Verdana" font-size="8.00">+ «static» FORMAT_XML : string = &quot;xml&quot; {readOnly}</text>
<text text-anchor="start" x="889" y="-84.1" font-family="Verdana" font-size="8.00">+ «static» FORMAT_CHECKSTYLE : string = &quot;checkstyle&quot; {readOnly}</text>
<text text-anchor="start" x="889" y="-71.1" font-family="Verdana" font-size="8.00">+ «static» FORMAT_INTERNAL : string = &quot;internal&quot; {readOnly}</text>
<polygon fill="none" stroke="black" points="884,-57.5 884,-63.5 1188,-63.5 1188,-57.5 884,-57.5"/>
<polygon fill="none" stroke="black" points="884,-25.5 884,-57.5 1188,-57.5 1188,-25.5 884,-25.5"/>
<text text-anchor="start" x="889" y="-46.1" font-family="Verdana" font-size="8.00">+ «abstract» getSupportedFormats() : array</text>
<text text-anchor="start" x="889" y="-33.1" font-family="Verdana" font-size="8.00">+ «abstract» normalize(data : mixed, format : string, context : array) : ?ArrayObject</text>
</g>
<!-- Bartlett\\Sarif\\Converter\\Source\\PhpStanSource -->
<g id="node6" class="node">
<title>Bartlett\\Sarif\\Converter\\Source\\PhpStanSource</title>
<polygon fill="#fefece" stroke="transparent" points="806,-776 654,-776 654,-729 806,-729 806,-776"/>
<polygon fill="#eeeeee" stroke="transparent" points="654,-753.5 654,-775.5 806,-775.5 806,-753.5 654,-753.5"/>
<polygon fill="none" stroke="black" points="654,-753.5 654,-775.5 806,-775.5 806,-753.5 654,-753.5"/>
<text text-anchor="start" x="699" y="-759.1" font-family="Verdana" font-weight="bold" font-size="8.00">PhpStanSource</text>
<polygon fill="none" stroke="black" points="654,-747.5 654,-753.5 806,-753.5 806,-747.5 654,-747.5"/>
<polygon fill="none" stroke="black" points="654,-728.5 654,-747.5 806,-747.5 806,-728.5 654,-728.5"/>
<text text-anchor="start" x="659" y="-736.1" font-family="Verdana" font-size="8.00">+ __construct(normalizers : iterable = [])</text>
</g>
<!-- Bartlett\\Sarif\\Converter\\Source\\AbstractSource -->
<g id="node7" class="node">
<title>Bartlett\\Sarif\\Converter\\Source\\AbstractSource</title>
<polygon fill="#fefece" stroke="transparent" points="872,-527.5 588,-527.5 588,-363.5 872,-363.5 872,-527.5"/>
<polygon fill="#eeeeee" stroke="transparent" points="588,-505.5 588,-527.5 872,-527.5 872,-505.5 588,-505.5"/>
<polygon fill="none" stroke="black" points="588,-505.5 588,-527.5 872,-527.5 872,-505.5 588,-505.5"/>
<text text-anchor="start" x="709" y="-519.1" font-family="Verdana" font-weight="bold" font-size="8.00">«abstract»</text>
<text text-anchor="start" x="699" y="-511.1" font-family="Verdana" font-weight="bold" font-size="8.00">AbstractSource</text>
<polygon fill="none" stroke="black" points="588,-473.5 588,-505.5 872,-505.5 872,-473.5 588,-473.5"/>
<text text-anchor="start" x="593" y="-494.1" font-family="Verdana" font-size="8.00">– normalizers : mixed</text>
<text text-anchor="start" x="593" y="-481.1" font-family="Verdana" font-size="8.00">– normalized</text>
<polygon fill="none" stroke="black" points="588,-363.5 588,-473.5 872,-473.5 872,-363.5 588,-363.5"/>
<text text-anchor="start" x="593" y="-462.1" font-family="Verdana" font-size="8.00">+ __construct(normalizers : iterable = [])</text>
<text text-anchor="start" x="593" y="-449.1" font-family="Verdana" font-size="8.00">+ getName() : string</text>
<text text-anchor="start" x="593" y="-436.1" font-family="Verdana" font-size="8.00">+ getFiles() : Iterator</text>
<text text-anchor="start" x="593" y="-423.1" font-family="Verdana" font-size="8.00">+ getErrors() : Iterator</text>
<text text-anchor="start" x="593" y="-410.1" font-family="Verdana" font-size="8.00">+ getRules() : Iterator</text>
<text text-anchor="start" x="593" y="-397.1" font-family="Verdana" font-size="8.00">+ getAttribute(name : string) : Iterator</text>
<text text-anchor="start" x="593" y="-384.1" font-family="Verdana" font-size="8.00">+ normalize(data, format : string, context : array) : bool</text>
<text text-anchor="start" x="593" y="-371.1" font-family="Verdana" font-size="8.00"># getNormalizer(format : string) : ?Bartlett\Sarif\Contract\NormalizerInterface</text>
</g>
<!-- Bartlett\\Sarif\\Converter\\Source\\PhpStanSource&#45;&gt;Bartlett\\Sarif\\Converter\\Source\\AbstractSource -->
<g id="edge4" class="edge">
<title>Bartlett\\Sarif\\Converter\\Source\\PhpStanSource&#45;&gt;Bartlett\\Sarif\\Converter\\Source\\AbstractSource</title>
<path fill="none" stroke="black" d="M730,-728.58C730,-688.58 730,-604.01 730,-537.85"/>
<polygon fill="none" stroke="black" points="733.5,-537.82 730,-527.82 726.5,-537.82 733.5,-537.82"/>
</g>
<!-- Bartlett\\Sarif\\Converter\\Source\\AbstractSource&#45;&gt;Bartlett\\Sarif\\Contract\\SourceInterface -->
<g id="edge3" class="edge">
<title>Bartlett\\Sarif\\Converter\\Source\\AbstractSource&#45;&gt;Bartlett\\Sarif\\Contract\\SourceInterface</title>
<path fill="none" stroke="black" stroke-dasharray="5,2" d="M730,-363.3C730,-300.86 730,-215.73 730,-157.69"/>
<polygon fill="none" stroke="black" points="733.5,-157.54 730,-147.54 726.5,-157.54 733.5,-157.54"/>
</g>
<!-- Bartlett\\Sarif\\Converter\\Normalizer\\PhpStanNormalizer -->
<g id="node8" class="node">
<title>Bartlett\\Sarif\\Converter\\Normalizer\\PhpStanNormalizer</title>
<polygon fill="#fefece" stroke="transparent" points="1232,-792 896,-792 896,-713 1232,-713 1232,-792"/>
<polygon fill="#eeeeee" stroke="transparent" points="896,-769.5 896,-791.5 1232,-791.5 1232,-769.5 896,-769.5"/>
<polygon fill="none" stroke="black" points="896,-769.5 896,-791.5 1232,-791.5 1232,-769.5 896,-769.5"/>
<text text-anchor="start" x="1026" y="-775.1" font-family="Verdana" font-weight="bold" font-size="8.00">PhpStanNormalizer</text>
<polygon fill="none" stroke="black" points="896,-750.5 896,-769.5 1232,-769.5 1232,-750.5 896,-750.5"/>
<text text-anchor="start" x="901" y="-758.1" font-family="Verdana" font-size="8.00">+ «static» URI_PATTERN : string = &quot;https\:\/\/phpstan\.org\/error\&#45;identifiers\/\%s&quot; {readOnly}</text>
<polygon fill="none" stroke="black" points="896,-744.5 896,-750.5 1232,-750.5 1232,-744.5 896,-744.5"/>
<polygon fill="none" stroke="black" points="896,-712.5 896,-744.5 1232,-744.5 1232,-712.5 896,-712.5"/>
<text text-anchor="start" x="901" y="-733.1" font-family="Verdana" font-size="8.00">+ normalize(data, format : string, context : array) : ?ArrayObject</text>
<text text-anchor="start" x="901" y="-720.1" font-family="Verdana" font-size="8.00"># fromInternal(data, context : array, mapping : array = []) : array</text>
</g>
<!-- Bartlett\\Sarif\\Converter\\Normalizer\\AbstractNormalizer -->
<g id="node9" class="node">
<title>Bartlett\\Sarif\\Converter\\Normalizer\\AbstractNormalizer</title>
<polygon fill="#fefece" stroke="transparent" points="1183,-517.5 917,-517.5 917,-373.5 1183,-373.5 1183,-517.5"/>
<polygon fill="#eeeeee" stroke="transparent" points="917,-495.5 917,-517.5 1183,-517.5 1183,-495.5 917,-495.5"/>
<polygon fill="none" stroke="black" points="917,-495.5 917,-517.5 1183,-517.5 1183,-495.5 917,-495.5"/>
<text text-anchor="start" x="1029" y="-509.1" font-family="Verdana" font-weight="bold" font-size="8.00">«abstract»</text>
<text text-anchor="start" x="1012" y="-501.1" font-family="Verdana" font-weight="bold" font-size="8.00">AbstractNormalizer</text>
<polygon fill="none" stroke="black" points="917,-424.5 917,-495.5 1183,-495.5 1183,-424.5 917,-424.5"/>
<text text-anchor="start" x="922" y="-484.1" font-family="Verdana" font-size="8.00">+ «static» FORMAT_SARIF : string = &quot;sarif&quot; {readOnly}</text>
<text text-anchor="start" x="922" y="-471.1" font-family="Verdana" font-size="8.00">+ «static» FORMAT_JSON : string = &quot;json&quot; {readOnly}</text>
<text text-anchor="start" x="922" y="-458.1" font-family="Verdana" font-size="8.00">+ «static» FORMAT_XML : string = &quot;xml&quot; {readOnly}</text>
<text text-anchor="start" x="922" y="-445.1" font-family="Verdana" font-size="8.00">+ «static» FORMAT_CHECKSTYLE : string = &quot;checkstyle&quot; {readOnly}</text>
<text text-anchor="start" x="922" y="-432.1" font-family="Verdana" font-size="8.00">+ «static» FORMAT_INTERNAL : string = &quot;internal&quot; {readOnly}</text>
<polygon fill="none" stroke="black" points="917,-418.5 917,-424.5 1183,-424.5 1183,-418.5 917,-418.5"/>
<polygon fill="none" stroke="black" points="917,-373.5 917,-418.5 1183,-418.5 1183,-373.5 917,-373.5"/>
<text text-anchor="start" x="922" y="-407.1" font-family="Verdana" font-size="8.00">+ getSupportedFormats() : array</text>
<text text-anchor="start" x="922" y="-394.1" font-family="Verdana" font-size="8.00">+ normalize(data, format : string, context : array) : ?ArrayObject</text>
<text text-anchor="start" x="922" y="-381.1" font-family="Verdana" font-size="8.00"># fromInternal(data : TData, context : array, mapping : array = []) : array</text>
</g>
<!-- Bartlett\\Sarif\\Converter\\Normalizer\\PhpStanNormalizer&#45;&gt;Bartlett\\Sarif\\Converter\\Normalizer\\AbstractNormalizer -->
<g id="edge6" class="edge">
<title>Bartlett\\Sarif\\Converter\\Normalizer\\PhpStanNormalizer&#45;&gt;Bartlett\\Sarif\\Converter\\Normalizer\\AbstractNormalizer</title>
<path fill="none" stroke="black" d="M1062.23,-712.87C1060.1,-666.58 1056.48,-587.76 1053.73,-527.84"/>
<polygon fill="none" stroke="black" points="1057.22,-527.47 1053.27,-517.64 1050.23,-527.79 1057.22,-527.47"/>
</g>
<!-- Bartlett\\Sarif\\Converter\\Normalizer\\AbstractNormalizer&#45;&gt;Bartlett\\Sarif\\Contract\\NormalizerInterface -->
<g id="edge5" class="edge">
<title>Bartlett\\Sarif\\Converter\\Normalizer\\AbstractNormalizer&#45;&gt;Bartlett\\Sarif\\Contract\\NormalizerInterface</title>
<path fill="none" stroke="black" stroke-dasharray="5,2" d="M1047.17,-373.27C1044.79,-313.45 1041.4,-228.24 1038.98,-167.41"/>
<polygon fill="none" stroke="black" points="1042.46,-166.96 1038.57,-157.11 1035.47,-167.24 1042.46,-166.96"/>
</g>
</g>
</svg>
