<?xml version="1.0" encoding="UTF-8" standalone="no"?>
<!DOCTYPE svg PUBLIC "-//W3C//DTD SVG 1.1//EN"
 "http://www.w3.org/Graphics/SVG/1.1/DTD/svg11.dtd">
<!-- Generated by graphviz version 2.43.0 (0)
 -->
<!-- Title: %3 Pages: 1 -->
<svg width="1418pt" height="839pt"
 viewBox="0.00 0.00 1418.00 839.00" xmlns="http://www.w3.org/2000/svg" xmlns:xlink="http://www.w3.org/1999/xlink">
<g id="graph0" class="graph" transform="scale(1 1) rotate(0) translate(4 835)">
<title>%3</title>
<g id="clust1" class="cluster">
<title>cluster_0</title>
<polygon fill="BurlyWood" stroke="black" points="8,-206 8,-800.5 572,-800.5 572,-206 8,-206"/>
<text text-anchor="middle" x="290" y="-785.3" font-family="Times,serif" font-size="14.00">Bartlett\Sarif\Converter</text>
</g>
<g id="clust2" class="cluster">
<title>cluster_1</title>
<polygon fill="LightSkyBlue" stroke="black" points="222,-8 222,-198 1196,-198 1196,-8 222,-8"/>
<text text-anchor="middle" x="709" y="-182.8" font-family="Times,serif" font-size="14.00">Bartlett\Sarif\Contract</text>
</g>
<g id="clust3" class="cluster">
<title>cluster_2</title>
<polygon fill="Bisque" stroke="black" points="580,-349 580,-800.5 880,-800.5 880,-349 580,-349"/>
<text text-anchor="middle" x="730" y="-785.3" font-family="Times,serif" font-size="14.00">Bartlett\Sarif\Converter\Source</text>
</g>
<g id="clust4" class="cluster">
<title>cluster_3</title>
<polygon fill="Bisque" stroke="black" points="888,-359 888,-823 1402,-823 1402,-359 888,-359"/>
<text text-anchor="middle" x="1145" y="-807.8" font-family="Times,serif" font-size="14.00">Bartlett\Sarif\Converter\Normalizer</text>
</g>
<!-- Bartlett\\Sarif\\Converter\\RectorConverter -->
<g id="node1" class="node">
<title>Bartlett\\Sarif\\Converter\\RectorConverter</title>
<polygon fill="#fefece" stroke="transparent" points="354,-769.5 226,-769.5 226,-722.5 354,-722.5 354,-769.5"/>
<polygon fill="#eeeeee" stroke="transparent" points="226,-747 226,-769 354,-769 354,-747 226,-747"/>
<polygon fill="none" stroke="black" points="226,-747 226,-769 354,-769 354,-747 226,-747"/>
<text text-anchor="start" x="258" y="-752.6" font-family="Verdana" font-weight="bold" font-size="8.00">RectorConverter</text>
<polygon fill="none" stroke="black" points="226,-741 226,-747 354,-747 354,-741 226,-741"/>
<polygon fill="none" stroke="black" points="226,-722 226,-741 354,-741 354,-722 226,-722"/>
<text text-anchor="start" x="231" y="-729.6" font-family="Verdana" font-size="8.00">+ configure(options : array) : void</text>
</g>
<!-- Bartlett\\Sarif\\Converter\\AbstractConverter -->
<g id="node2" class="node">
<title>Bartlett\\Sarif\\Converter\\AbstractConverter</title>
<polygon fill="#fefece" stroke="transparent" points="564,-664 16,-664 16,-214 564,-214 564,-664"/>
<polygon fill="#eeeeee" stroke="transparent" points="16,-642 16,-664 564,-664 564,-642 16,-642"/>
<polygon fill="none" stroke="black" points="16,-642 16,-664 564,-664 564,-642 16,-642"/>
<text text-anchor="start" x="269" y="-655.6" font-family="Verdana" font-weight="bold" font-size="8.00">«abstract»</text>
<text text-anchor="start" x="253.5" y="-647.6" font-family="Verdana" font-weight="bold" font-size="8.00">AbstractConverter</text>
<polygon fill="none" stroke="black" points="16,-441 16,-642 564,-642 564,-441 16,-441"/>
<text text-anchor="start" x="21" y="-630.6" font-family="Verdana" font-size="8.00"># toolName</text>
<text text-anchor="start" x="21" y="-617.6" font-family="Verdana" font-size="8.00"># toolFullName</text>
<text text-anchor="start" x="21" y="-604.6" font-family="Verdana" font-size="8.00"># toolShortDescription</text>
<text text-anchor="start" x="21" y="-591.6" font-family="Verdana" font-size="8.00"># toolFullDescription</text>
<text text-anchor="start" x="21" y="-578.6" font-family="Verdana" font-size="8.00"># toolInformationUri</text>
<text text-anchor="start" x="21" y="-565.6" font-family="Verdana" font-size="8.00"># toolComposerPackage</text>
<text text-anchor="start" x="21" y="-552.6" font-family="Verdana" font-size="8.00"># toolSemanticVersion</text>
<text text-anchor="start" x="21" y="-539.6" font-family="Verdana" font-size="8.00"># converterComposerPackage</text>
<text text-anchor="start" x="21" y="-526.6" font-family="Verdana" font-size="8.00"># results : mixed = []</text>
<text text-anchor="start" x="21" y="-513.6" font-family="Verdana" font-size="8.00"># errors : mixed = []</text>
<text text-anchor="start" x="21" y="-500.6" font-family="Verdana" font-size="8.00"># serializer</text>
<text text-anchor="start" x="21" y="-487.6" font-family="Verdana" font-size="8.00"># startTime</text>
<text text-anchor="start" x="21" y="-474.6" font-family="Verdana" font-size="8.00"># endTime</text>
<text text-anchor="start" x="21" y="-461.6" font-family="Verdana" font-size="8.00"># includeCodeSnippets</text>
<text text-anchor="start" x="21" y="-448.6" font-family="Verdana" font-size="8.00"># includeContextRegion</text>
<polygon fill="none" stroke="black" points="16,-214 16,-441 564,-441 564,-214 16,-214"/>
<text text-anchor="start" x="21" y="-429.6" font-family="Verdana" font-size="8.00">+ __construct(options : array = [], factory : Bartlett\Sarif\Factory\SerializerFactory = «unknown»)</text>
<text text-anchor="start" x="21" y="-416.6" font-family="Verdana" font-size="8.00">+ getName() : string</text>
<text text-anchor="start" x="21" y="-403.6" font-family="Verdana" font-size="8.00">+ configure(options : array) : void</text>
<text text-anchor="start" x="21" y="-390.6" font-family="Verdana" font-size="8.00">+ toolDriver() : Bartlett\Sarif\Definition\ToolComponent</text>
<text text-anchor="start" x="21" y="-377.6" font-family="Verdana" font-size="8.00">+ toolExtensions() : array</text>
<text text-anchor="start" x="21" y="-364.6" font-family="Verdana" font-size="8.00">+ rules(defined : iterable) : array</text>
<text text-anchor="start" x="21" y="-351.6" font-family="Verdana" font-size="8.00">+ results(normalized : iterable) : void</text>
<text text-anchor="start" x="21" y="-338.6" font-family="Verdana" font-size="8.00">+ sarifLog(runs : array = [], version : string = &#39;2\.1\.0&#39;) : ?string</text>
<text text-anchor="start" x="21" y="-325.6" font-family="Verdana" font-size="8.00">+ invocations(properties : Bartlett\Sarif\Definition\PropertyBag = «unknown») : array</text>
<text text-anchor="start" x="21" y="-312.6" font-family="Verdana" font-size="8.00">+ automationDetails() : Bartlett\Sarif\Definition\RunAutomationDetails</text>
<text text-anchor="start" x="21" y="-299.6" font-family="Verdana" font-size="8.00">+ run(invocations : iterable, rules : iterable) : Bartlett\Sarif\Definition\Run</text>
<text text-anchor="start" x="21" y="-286.6" font-family="Verdana" font-size="8.00"># getToolVersion(package : string) : string</text>
<text text-anchor="start" x="21" y="-273.6" font-family="Verdana" font-size="8.00"># pathToArtifactLocation(path : string) : string</text>
<text text-anchor="start" x="21" y="-260.6" font-family="Verdana" font-size="8.00"># pathToUri(path : string) : string</text>
<text text-anchor="start" x="21" y="-247.6" font-family="Verdana" font-size="8.00"># getCodeSnippet(filePath : string, lineNumber : int, linesBefore : int, linesAfter : int) : ?string</text>
<text text-anchor="start" x="21" y="-234.6" font-family="Verdana" font-size="8.00"># getSnippetRegion(filePath : string, lineNumber : int, column : int = «unknown», linesBefore : int = 2, linesAfter : int = 2) : Bartlett\Sarif\Definition\Region</text>
<text text-anchor="start" x="21" y="-221.6" font-family="Verdana" font-size="8.00"># getErrors() : Iterator</text>
</g>
<!-- Bartlett\\Sarif\\Converter\\RectorConverter&#45;&gt;Bartlett\\Sarif\\Converter\\AbstractConverter -->
<g id="edge2" class="edge">
<title>Bartlett\\Sarif\\Converter\\RectorConverter&#45;&gt;Bartlett\\Sarif\\Converter\\AbstractConverter</title>
<path fill="none" stroke="black" d="M290,-722.08C290,-709.75 290,-693.18 290,-674.23"/>
<polygon fill="none" stroke="black" points="293.5,-674.11 290,-664.11 286.5,-674.11 293.5,-674.11"/>
</g>
<!-- Bartlett\\Sarif\\Contract\\ConverterInterface -->
<g id="node3" class="node">
<title>Bartlett\\Sarif\\Contract\\ConverterInterface</title>
<polygon fill="#fefece" stroke="transparent" points="576,-167 230,-167 230,-16 576,-16 576,-167"/>
<polygon fill="#eeeeee" stroke="transparent" points="230,-144.5 230,-166.5 576,-166.5 576,-144.5 230,-144.5"/>
<polygon fill="none" stroke="black" points="230,-144.5 230,-166.5 576,-166.5 576,-144.5 230,-144.5"/>
<text text-anchor="start" x="381" y="-158.1" font-family="Verdana" font-weight="bold" font-size="8.00">«interface»</text>
<text text-anchor="start" x="366.5" y="-150.1" font-family="Verdana" font-weight="bold" font-size="8.00">ConverterInterface</text>
<polygon fill="none" stroke="black" points="230,-138.5 230,-144.5 576,-144.5 576,-138.5 230,-138.5"/>
<polygon fill="none" stroke="black" points="230,-15.5 230,-138.5 576,-138.5 576,-15.5 230,-15.5"/>
<text text-anchor="start" x="235" y="-127.1" font-family="Verdana" font-size="8.00">+ «abstract» getName() : string</text>
<text text-anchor="start" x="235" y="-114.1" font-family="Verdana" font-size="8.00">+ «abstract» toolDriver() : Bartlett\Sarif\Definition\ToolComponent</text>
<text text-anchor="start" x="235" y="-101.1" font-family="Verdana" font-size="8.00">+ «abstract» toolExtensions() : array</text>
<text text-anchor="start" x="235" y="-88.1" font-family="Verdana" font-size="8.00">+ «abstract» rules(defined : iterable) : array</text>
<text text-anchor="start" x="235" y="-75.1" font-family="Verdana" font-size="8.00">+ «abstract» results(normalized : iterable) : void</text>
<text text-anchor="start" x="235" y="-62.1" font-family="Verdana" font-size="8.00">+ «abstract» invocations(properties : Bartlett\Sarif\Definition\PropertyBag = «unknown») : array</text>
<text text-anchor="start" x="235" y="-49.1" font-family="Verdana" font-size="8.00">+ «abstract» automationDetails() : Bartlett\Sarif\Definition\RunAutomationDetails</text>
<text text-anchor="start" x="235" y="-36.1" font-family="Verdana" font-size="8.00">+ «abstract» run(invocations : iterable, rules : iterable) : Bartlett\Sarif\Definition\Run</text>
<text text-anchor="start" x="235" y="-23.1" font-family="Verdana" font-size="8.00">+ «abstract» sarifLog(runs : array = [], version : string = &#39;2\.1\.0&#39;) : ?string</text>
</g>
<!-- Bartlett\\Sarif\\Converter\\AbstractConverter&#45;&gt;Bartlett\\Sarif\\Contract\\ConverterInterface -->
<g id="edge1" class="edge">
<title>Bartlett\\Sarif\\Converter\\AbstractConverter&#45;&gt;Bartlett\\Sarif\\Contract\\ConverterInterface</title>
<path fill="none" stroke="black" stroke-dasharray="5,2" d="M363.32,-213.82C367.52,-200.99 371.58,-188.58 375.39,-176.9"/>
<polygon fill="none" stroke="black" points="378.76,-177.87 378.54,-167.28 372.11,-175.69 378.76,-177.87"/>
</g>
<!-- Bartlett\\Sarif\\Contract\\SourceInterface -->
<g id="node4" class="node">
<title>Bartlett\\Sarif\\Contract\\SourceInterface</title>
<polygon fill="#fefece" stroke="transparent" points="866,-147.5 594,-147.5 594,-35.5 866,-35.5 866,-147.5"/>
<polygon fill="#eeeeee" stroke="transparent" points="594,-125.5 594,-147.5 866,-147.5 866,-125.5 594,-125.5"/>
<polygon fill="none" stroke="black" points="594,-125.5 594,-147.5 866,-147.5 866,-125.5 594,-125.5"/>
<text text-anchor="start" x="708" y="-139.1" font-family="Verdana" font-weight="bold" font-size="8.00">«interface»</text>
<text text-anchor="start" x="698.5" y="-131.1" font-family="Verdana" font-weight="bold" font-size="8.00">SourceInterface</text>
<polygon fill="none" stroke="black" points="594,-119.5 594,-125.5 866,-125.5 866,-119.5 594,-119.5"/>
<polygon fill="none" stroke="black" points="594,-35.5 594,-119.5 866,-119.5 866,-35.5 594,-35.5"/>
<text text-anchor="start" x="599" y="-108.1" font-family="Verdana" font-size="8.00">+ «abstract» getName() : string</text>
<text text-anchor="start" x="599" y="-95.1" font-family="Verdana" font-size="8.00">+ «abstract» getFiles() : Iterator</text>
<text text-anchor="start" x="599" y="-82.1" font-family="Verdana" font-size="8.00">+ «abstract» getErrors() : Iterator</text>
<text text-anchor="start" x="599" y="-69.1" font-family="Verdana" font-size="8.00">+ «abstract» getRules() : Iterator</text>
<text text-anchor="start" x="599" y="-56.1" font-family="Verdana" font-size="8.00">+ «abstract» getAttribute(name : string) : Iterator</text>
<text text-anchor="start" x="599" y="-43.1" font-family="Verdana" font-size="8.00">+ «abstract» normalize(data : mixed, format : string, context : array) : bool</text>
</g>
<!-- Bartlett\\Sarif\\Contract\\NormalizerInterface -->
<g id="node5" class="node">
<title>Bartlett\\Sarif\\Contract\\NormalizerInterface</title>
<polygon fill="#fefece" stroke="transparent" points="1188,-157 884,-157 884,-26 1188,-26 1188,-157"/>
<polygon fill="#eeeeee" stroke="transparent" points="884,-134.5 884,-156.5 1188,-156.5 1188,-134.5 884,-134.5"/>
<polygon fill="none" stroke="black" points="884,-134.5 884,-156.5 1188,-156.5 1188,-134.5 884,-134.5"/>
<text text-anchor="start" x="1014" y="-148.1" font-family="Verdana" font-weight="bold" font-size="8.00">«interface»</text>
<text text-anchor="start" x="998" y="-140.1" font-family="Verdana" font-weight="bold" font-size="8.00">NormalizerInterface</text>
<polygon fill="none" stroke="black" points="884,-63.5 884,-134.5 1188,-134.5 1188,-63.5 884,-63.5"/>
<text text-anchor="start" x="889" y="-123.1" font-family="Verdana" font-size="8.00">+ «static» FORMAT_SARIF : string = &quot;sarif&quot; {readOnly}</text>
<text text-anchor="start" x="889" y="-110.1" font-family="Verdana" font-size="8.00">+ «static» FORMAT_JSON : string = &quot;json&quot; {readOnly}</text>
<text text-anchor="start" x="889" y="-97.1" font-family="Verdana" font-size="8.00">+ «static» FORMAT_XML : string = &quot;xml&quot; {readOnly}</text>
<text text-anchor="start" x="889" y="-84.1" font-family="Verdana" font-size="8.00">+ «static» FORMAT_CHECKSTYLE : string = &quot;checkstyle&quot; {readOnly}</text>
<text text-anchor="start" x="889" y="-71.1" font-family="Verdana" font-size="8.00">+ «static» FORMAT_INTERNAL : string = &quot;internal&quot; {readOnly}</text>
<polygon fill="none" stroke="black" points="884,-57.5 884,-63.5 1188,-63.5 1188,-57.5 884,-57.5"/>
<polygon fill="none" stroke="black" points="884,-25.5 884,-57.5 1188,-57.5 1188,-25.5 884,-25.5"/>
<text text-anchor="start" x="889" y="-46.1" font-family="Verdana" font-size="8.00">+ «abstract» getSupportedFormats() : array</text>
<text text-anchor="start" x="889" y="-33.1" font-family="Verdana" font-size="8.00">+ «abstract» normalize(data : mixed, format : string, context : array) : ?ArrayObject</text>
</g>
<!-- Bartlett\\Sarif\\Converter\\Source\\RectorSource -->
<g id="node6" class="node">
<title>Bartlett\\Sarif\\Converter\\Source\\RectorSource</title>
<polygon fill="#fefece" stroke="transparent" points="806,-769.5 654,-769.5 654,-722.5 806,-722.5 806,-769.5"/>
<polygon fill="#eeeeee" stroke="transparent" points="654,-747 654,-769 806,-769 806,-747 654,-747"/>
<polygon fill="none" stroke="black" points="654,-747 654,-769 806,-769 806,-747 654,-747"/>
<text text-anchor="start" x="703" y="-752.6" font-family="Verdana" font-weight="bold" font-size="8.00">RectorSource</text>
<polygon fill="none" stroke="black" points="654,-741 654,-747 806,-747 806,-741 654,-741"/>
<polygon fill="none" stroke="black" points="654,-722 654,-741 806,-741 806,-722 654,-722"/>
<text text-anchor="start" x="659" y="-729.6" font-family="Verdana" font-size="8.00">+ __construct(normalizers : iterable = [])</text>
</g>
<!-- Bartlett\\Sarif\\Converter\\Source\\AbstractSource -->
<g id="node7" class="node">
<title>Bartlett\\Sarif\\Converter\\Source\\AbstractSource</title>
<polygon fill="#fefece" stroke="transparent" points="872,-521 588,-521 588,-357 872,-357 872,-521"/>
<polygon fill="#eeeeee" stroke="transparent" points="588,-499 588,-521 872,-521 872,-499 588,-499"/>
<polygon fill="none" stroke="black" points="588,-499 588,-521 872,-521 872,-499 588,-499"/>
<text text-anchor="start" x="709" y="-512.6" font-family="Verdana" font-weight="bold" font-size="8.00">«abstract»</text>
<text text-anchor="start" x="699" y="-504.6" font-family="Verdana" font-weight="bold" font-size="8.00">AbstractSource</text>
<polygon fill="none" stroke="black" points="588,-467 588,-499 872,-499 872,-467 588,-467"/>
<text text-anchor="start" x="593" y="-487.6" font-family="Verdana" font-size="8.00">– normalizers : mixed</text>
<text text-anchor="start" x="593" y="-474.6" font-family="Verdana" font-size="8.00">– normalized</text>
<polygon fill="none" stroke="black" points="588,-357 588,-467 872,-467 872,-357 588,-357"/>
<text text-anchor="start" x="593" y="-455.6" font-family="Verdana" font-size="8.00">+ __construct(normalizers : iterable = [])</text>
<text text-anchor="start" x="593" y="-442.6" font-family="Verdana" font-size="8.00">+ getName() : string</text>
<text text-anchor="start" x="593" y="-429.6" font-family="Verdana" font-size="8.00">+ getFiles() : Iterator</text>
<text text-anchor="start" x="593" y="-416.6" font-family="Verdana" font-size="8.00">+ getErrors() : Iterator</text>
<text text-anchor="start" x="593" y="-403.6" font-family="Verdana" font-size="8.00">+ getRules() : Iterator</text>
<text text-anchor="start" x="593" y="-390.6" font-family="Verdana" font-size="8.00">+ getAttribute(name : string) : Iterator</text>
<text text-anchor="start" x="593" y="-377.6" font-family="Verdana" font-size="8.00">+ normalize(data, format : string, context : array) : bool</text>
<text text-anchor="start" x="593" y="-364.6" font-family="Verdana" font-size="8.00"># getNormalizer(format : string) : ?Bartlett\Sarif\Contract\NormalizerInterface</text>
</g>
<!-- Bartlett\\Sarif\\Converter\\Source\\RectorSource&#45;&gt;Bartlett\\Sarif\\Converter\\Source\\AbstractSource -->
<g id="edge4" class="edge">
<title>Bartlett\\Sarif\\Converter\\Source\\RectorSource&#45;&gt;Bartlett\\Sarif\\Converter\\Source\\AbstractSource</title>
<path fill="none" stroke="black" d="M730,-722.08C730,-682.08 730,-597.51 730,-531.35"/>
<polygon fill="none" stroke="black" points="733.5,-531.32 730,-521.32 726.5,-531.32 733.5,-531.32"/>
</g>
<!-- Bartlett\\Sarif\\Converter\\Source\\AbstractSource&#45;&gt;Bartlett\\Sarif\\Contract\\SourceInterface -->
<g id="edge3" class="edge">
<title>Bartlett\\Sarif\\Converter\\Source\\AbstractSource&#45;&gt;Bartlett\\Sarif\\Contract\\SourceInterface</title>
<path fill="none" stroke="black" stroke-dasharray="5,2" d="M730,-357C730,-296.35 730,-214.45 730,-157.93"/>
<polygon fill="none" stroke="black" points="733.5,-157.68 730,-147.68 726.5,-157.68 733.5,-157.68"/>
</g>
<!-- Bartlett\\Sarif\\Converter\\Normalizer\\RectorNormalizer -->
<g id="node8" class="node">
<title>Bartlett\\Sarif\\Converter\\Normalizer\\RectorNormalizer</title>
<polygon fill="#fefece" stroke="transparent" points="1393.5,-792 896.5,-792 896.5,-700 1393.5,-700 1393.5,-792"/>
<polygon fill="#eeeeee" stroke="transparent" points="897,-770 897,-792 1394,-792 1394,-770 897,-770"/>
<polygon fill="none" stroke="black" points="897,-770 897,-792 1394,-792 1394,-770 897,-770"/>
<text text-anchor="start" x="1112" y="-775.6" font-family="Verdana" font-weight="bold" font-size="8.00">RectorNormalizer</text>
<polygon fill="none" stroke="black" points="897,-751 897,-770 1394,-770 1394,-751 897,-751"/>
<text text-anchor="start" x="902" y="-758.6" font-family="Verdana" font-size="8.00">+ «static» URI_PATTERN : string = &quot;https\:\/\/github\.com\/rectorphp\/rector\/blob\/main\/docs\/rector_rules_overview\.md\#\%s&quot; {readOnly}</text>
<polygon fill="none" stroke="black" points="897,-745 897,-751 1394,-751 1394,-745 897,-745"/>
<polygon fill="none" stroke="black" points="897,-700 897,-745 1394,-745 1394,-700 897,-700"/>
<text text-anchor="start" x="902" y="-733.6" font-family="Verdana" font-size="8.00">+ normalize(data, format : string, context : array) : ?ArrayObject</text>
<text text-anchor="start" x="902" y="-720.6" font-family="Verdana" font-size="8.00"># fromInternal(data, context : array, mapping : array = []) : array</text>
<text text-anchor="start" x="902" y="-707.6" font-family="Verdana" font-size="8.00">– resolveFromClassName(className : string) : ?Symplify\RuleDocGenerator\ValueObject\RuleDefinition</text>
</g>
<!-- Bartlett\\Sarif\\Converter\\Normalizer\\AbstractNormalizer -->
<g id="node9" class="node">
<title>Bartlett\\Sarif\\Converter\\Normalizer\\AbstractNormalizer</title>
<polygon fill="#fefece" stroke="transparent" points="1222.5,-511 957.5,-511 957.5,-367 1222.5,-367 1222.5,-511"/>
<polygon fill="#eeeeee" stroke="transparent" points="958,-489 958,-511 1223,-511 1223,-489 958,-489"/>
<polygon fill="none" stroke="black" points="958,-489 958,-511 1223,-511 1223,-489 958,-489"/>
<text text-anchor="start" x="1069.5" y="-502.6" font-family="Verdana" font-weight="bold" font-size="8.00">«abstract»</text>
<text text-anchor="start" x="1052.5" y="-494.6" font-family="Verdana" font-weight="bold" font-size="8.00">AbstractNormalizer</text>
<polygon fill="none" stroke="black" points="958,-418 958,-489 1223,-489 1223,-418 958,-418"/>
<text text-anchor="start" x="963" y="-477.6" font-family="Verdana" font-size="8.00">+ «static» FORMAT_SARIF : string = &quot;sarif&quot; {readOnly}</text>
<text text-anchor="start" x="963" y="-464.6" font-family="Verdana" font-size="8.00">+ «static» FORMAT_JSON : string = &quot;json&quot; {readOnly}</text>
<text text-anchor="start" x="963" y="-451.6" font-family="Verdana" font-size="8.00">+ «static» FORMAT_XML : string = &quot;xml&quot; {readOnly}</text>
<text text-anchor="start" x="963" y="-438.6" font-family="Verdana" font-size="8.00">+ «static» FORMAT_CHECKSTYLE : string = &quot;checkstyle&quot; {readOnly}</text>
<text text-anchor="start" x="963" y="-425.6" font-family="Verdana" font-size="8.00">+ «static» FORMAT_INTERNAL : string = &quot;internal&quot; {readOnly}</text>
<polygon fill="none" stroke="black" points="958,-412 958,-418 1223,-418 1223,-412 958,-412"/>
<polygon fill="none" stroke="black" points="958,-367 958,-412 1223,-412 1223,-367 958,-367"/>
<text text-anchor="start" x="963" y="-400.6" font-family="Verdana" font-size="8.00">+ getSupportedFormats() : array</text>
<text text-anchor="start" x="963" y="-387.6" font-family="Verdana" font-size="8.00">+ normalize(data, format : string, context : array) : ?ArrayObject</text>
<text text-anchor="start" x="963" y="-374.6" font-family="Verdana" font-size="8.00"># fromInternal(data : mixed, context : array, mapping : array = []) : array</text>
</g>
<!-- Bartlett\\Sarif\\Converter\\Normalizer\\RectorNormalizer&#45;&gt;Bartlett\\Sarif\\Converter\\Normalizer\\AbstractNormalizer -->
<g id="edge6" class="edge">
<title>Bartlett\\Sarif\\Converter\\Normalizer\\RectorNormalizer&#45;&gt;Bartlett\\Sarif\\Converter\\Normalizer\\AbstractNormalizer</title>
<path fill="none" stroke="black" d="M1136.88,-700C1128.43,-653.1 1115,-578.61 1104.67,-521.36"/>
<polygon fill="none" stroke="black" points="1108.07,-520.46 1102.85,-511.24 1101.18,-521.71 1108.07,-520.46"/>
</g>
<!-- Bartlett\\Sarif\\Converter\\Normalizer\\AbstractNormalizer&#45;&gt;Bartlett\\Sarif\\Contract\\NormalizerInterface -->
<g id="edge5" class="edge">
<title>Bartlett\\Sarif\\Converter\\Normalizer\\AbstractNormalizer&#45;&gt;Bartlett\\Sarif\\Contract\\NormalizerInterface</title>
<path fill="none" stroke="black" stroke-dasharray="5,2" d="M1078.88,-366.83C1069.77,-308.57 1056.93,-226.4 1047.67,-167.2"/>
<polygon fill="none" stroke="black" points="1051.11,-166.5 1046.11,-157.16 1044.19,-167.58 1051.11,-166.5"/>
</g>
</g>
</svg>
