<?xml version="1.0" encoding="UTF-8" standalone="no"?>
<!DOCTYPE svg PUBLIC "-//W3C//DTD SVG 1.1//EN"
 "http://www.w3.org/Graphics/SVG/1.1/DTD/svg11.dtd">
<!-- Generated by graphviz version 2.42.4 (0)
 -->
<!-- Pages: 1 -->
<svg width="1654pt" height="969pt"
 viewBox="0.00 0.00 1654.00 969.00" xmlns="http://www.w3.org/2000/svg" xmlns:xlink="http://www.w3.org/1999/xlink">
<g id="graph0" class="graph" transform="scale(1 1) rotate(0) translate(4 965)">
<g id="clust1" class="cluster">
<title>cluster_0</title>
<polygon fill="BurlyWood" stroke="black" points="8,-219 8,-937 664,-937 664,-219 8,-219"/>
<text text-anchor="middle" x="336" y="-921.8" font-family="Times,serif" font-size="14.00">Bartlett\Sarif\Converter</text>
</g>
<g id="clust2" class="cluster">
<title>cluster_1</title>
<polygon fill="LightSkyBlue" stroke="black" points="229,-8 229,-211 1521,-211 1521,-8 229,-8"/>
<text text-anchor="middle" x="875" y="-195.8" font-family="Times,serif" font-size="14.00">Bartlett\Sarif\Contract</text>
</g>
<g id="clust3" class="cluster">
<title>cluster_2</title>
<polygon fill="Bisque" stroke="black" points="672,-420.5 672,-953 1308,-953 1308,-420.5 672,-420.5"/>
<text text-anchor="middle" x="990" y="-937.8" font-family="Times,serif" font-size="14.00">Bartlett\Sarif\Converter\Source</text>
</g>
<g id="clust4" class="cluster">
<title>cluster_3</title>
<polygon fill="Bisque" stroke="black" points="1316,-417.5 1316,-950 1638,-950 1638,-417.5 1316,-417.5"/>
<text text-anchor="middle" x="1477" y="-934.8" font-family="Times,serif" font-size="14.00">Bartlett\Sarif\Converter\Normalizer</text>
</g>
<!-- Bartlett\\Sarif\\Converter\\PhpCsConverter -->
<g id="node1" class="node">
<title>Bartlett\\Sarif\\Converter\\PhpCsConverter</title>
<polygon fill="#fefece" stroke="transparent" points="601,-906 71,-906 71,-846 601,-846 601,-906"/>
<polygon fill="#eeeeee" stroke="transparent" points="71,-884 71,-906 601,-906 601,-884 71,-884"/>
<polygon fill="none" stroke="black" points="71,-884 71,-906 601,-906 601,-884 71,-884"/>
<text text-anchor="start" x="299.5" y="-889.6" font-family="Verdana" font-weight="bold" font-size="8.00">PhpCsConverter</text>
<polygon fill="none" stroke="black" points="71,-878 71,-884 601,-884 601,-878 71,-878"/>
<polygon fill="none" stroke="black" points="71,-846 71,-878 601,-878 601,-846 71,-846"/>
<text text-anchor="start" x="76" y="-866.6" font-family="Verdana" font-size="8.00">+ configure(options : array = []) : void</text>
<text text-anchor="start" x="76" y="-853.6" font-family="Verdana" font-size="8.00">+ invocations(properties : Bartlett\Sarif\Definition\PropertyBag = «unknown», responseFileOption : string = «unknown») : array</text>
</g>
<!-- Bartlett\\Sarif\\Converter\\AbstractConverter -->
<g id="node2" class="node">
<title>Bartlett\\Sarif\\Converter\\AbstractConverter</title>
<polygon fill="#fefece" stroke="transparent" points="655.5,-794 16.5,-794 16.5,-227 655.5,-227 655.5,-794"/>
<polygon fill="#eeeeee" stroke="transparent" points="17,-771.5 17,-793.5 656,-793.5 656,-771.5 17,-771.5"/>
<polygon fill="none" stroke="black" points="17,-771.5 17,-793.5 656,-793.5 656,-771.5 17,-771.5"/>
<text text-anchor="start" x="312.5" y="-785.1" font-family="Verdana" font-weight="bold" font-size="8.00">«abstract»</text>
<text text-anchor="start" x="295.5" y="-777.1" font-family="Verdana" font-weight="bold" font-size="8.00">AbstractConverter</text>
<polygon fill="none" stroke="black" points="17,-531.5 17,-771.5 656,-771.5 656,-531.5 17,-531.5"/>
<text text-anchor="start" x="22" y="-760.1" font-family="Verdana" font-size="8.00"># toolName</text>
<text text-anchor="start" x="22" y="-747.1" font-family="Verdana" font-size="8.00"># toolFullName</text>
<text text-anchor="start" x="22" y="-734.1" font-family="Verdana" font-size="8.00"># toolShortDescription</text>
<text text-anchor="start" x="22" y="-721.1" font-family="Verdana" font-size="8.00"># toolFullDescription</text>
<text text-anchor="start" x="22" y="-708.1" font-family="Verdana" font-size="8.00"># toolInformationUri</text>
<text text-anchor="start" x="22" y="-695.1" font-family="Verdana" font-size="8.00"># toolComposerPackage</text>
<text text-anchor="start" x="22" y="-682.1" font-family="Verdana" font-size="8.00"># «static» toolVersion</text>
<text text-anchor="start" x="22" y="-669.1" font-family="Verdana" font-size="8.00"># toolSemanticVersion</text>
<text text-anchor="start" x="22" y="-656.1" font-family="Verdana" font-size="8.00"># converterComposerPackage</text>
<text text-anchor="start" x="22" y="-643.1" font-family="Verdana" font-size="8.00"># results : mixed = []</text>
<text text-anchor="start" x="22" y="-630.1" font-family="Verdana" font-size="8.00"># errors : mixed = []</text>
<text text-anchor="start" x="22" y="-617.1" font-family="Verdana" font-size="8.00"># serializer</text>
<text text-anchor="start" x="22" y="-604.1" font-family="Verdana" font-size="8.00"># startTime</text>
<text text-anchor="start" x="22" y="-591.1" font-family="Verdana" font-size="8.00"># endTime</text>
<text text-anchor="start" x="22" y="-578.1" font-family="Verdana" font-size="8.00"># includeCodeSnippets</text>
<text text-anchor="start" x="22" y="-565.1" font-family="Verdana" font-size="8.00"># includeContextRegion</text>
<text text-anchor="start" x="22" y="-552.1" font-family="Verdana" font-size="8.00"># defaultResultLevelIfEmpty</text>
<text text-anchor="start" x="22" y="-539.1" font-family="Verdana" font-size="8.00"># projectDirectory</text>
<polygon fill="none" stroke="black" points="17,-226.5 17,-531.5 656,-531.5 656,-226.5 17,-226.5"/>
<text text-anchor="start" x="22" y="-520.1" font-family="Verdana" font-size="8.00">+ __construct(options : array = [], factory : Bartlett\Sarif\Factory\SerializerFactory = «unknown»)</text>
<text text-anchor="start" x="22" y="-507.1" font-family="Verdana" font-size="8.00">+ getName() : string</text>
<text text-anchor="start" x="22" y="-494.1" font-family="Verdana" font-size="8.00">+ «static» getVersion() : string</text>
<text text-anchor="start" x="22" y="-481.1" font-family="Verdana" font-size="8.00">+ configure(options : array) : void</text>
<text text-anchor="start" x="22" y="-468.1" font-family="Verdana" font-size="8.00">+ toolDriver() : Bartlett\Sarif\Definition\ToolComponent</text>
<text text-anchor="start" x="22" y="-455.1" font-family="Verdana" font-size="8.00">+ toolExtensions() : array</text>
<text text-anchor="start" x="22" y="-442.1" font-family="Verdana" font-size="8.00">+ rules(defined : iterable) : array</text>
<text text-anchor="start" x="22" y="-429.1" font-family="Verdana" font-size="8.00">+ results(normalized : iterable) : void</text>
<text text-anchor="start" x="22" y="-416.1" font-family="Verdana" font-size="8.00">+ sarifLog(runs : array = [], version : string = &#39;2\.1\.0&#39;) : ?string</text>
<text text-anchor="start" x="22" y="-403.1" font-family="Verdana" font-size="8.00">+ invocations(properties : Bartlett\Sarif\Definition\PropertyBag = «unknown», responseFileOption : string = «unknown») : array</text>
<text text-anchor="start" x="22" y="-390.1" font-family="Verdana" font-size="8.00">+ versionControlDetails() : array</text>
<text text-anchor="start" x="22" y="-377.1" font-family="Verdana" font-size="8.00">+ automationDetails() : Bartlett\Sarif\Definition\RunAutomationDetails</text>
<text text-anchor="start" x="22" y="-364.1" font-family="Verdana" font-size="8.00">+ run(invocations : iterable, rules : iterable) : Bartlett\Sarif\Definition\Run</text>
<text text-anchor="start" x="22" y="-351.1" font-family="Verdana" font-size="8.00"># originalUriBaseIdentifiers() : array</text>
<text text-anchor="start" x="22" y="-338.1" font-family="Verdana" font-size="8.00"># getToolVersion(package : string) : string</text>
<text text-anchor="start" x="22" y="-325.1" font-family="Verdana" font-size="8.00"># pathToArtifactLocation(path : string) : string</text>
<text text-anchor="start" x="22" y="-312.1" font-family="Verdana" font-size="8.00"># pathToUri(path : string) : string</text>
<text text-anchor="start" x="22" y="-299.1" font-family="Verdana" font-size="8.00"># getCodeSnippet(filePath : string, lineNumber : int, linesBefore : int, linesAfter : int) : ?string</text>
<text text-anchor="start" x="22" y="-286.1" font-family="Verdana" font-size="8.00"># getSnippetRegion(filePath : string, lineNumber : int, column : int = «unknown», linesBefore : int = 2, linesAfter : int = 2) : Bartlett\Sarif\Definition\Region</text>
<text text-anchor="start" x="22" y="-273.1" font-family="Verdana" font-size="8.00"># getErrors() : Iterator</text>
<text text-anchor="start" x="22" y="-260.1" font-family="Verdana" font-size="8.00"># multiformatMessageString(def : mixed) : Bartlett\Sarif\Definition\MultiformatMessageString</text>
<text text-anchor="start" x="22" y="-247.1" font-family="Verdana" font-size="8.00"># message(def : mixed) : Bartlett\Sarif\Definition\Message</text>
<text text-anchor="start" x="22" y="-234.1" font-family="Verdana" font-size="8.00">– multiformatMessage(def, message) : object</text>
</g>
<!-- Bartlett\\Sarif\\Converter\\PhpCsConverter&#45;&gt;Bartlett\\Sarif\\Converter\\AbstractConverter -->
<g id="edge2" class="edge">
<title>Bartlett\\Sarif\\Converter\\PhpCsConverter&#45;&gt;Bartlett\\Sarif\\Converter\\AbstractConverter</title>
<path fill="none" stroke="black" d="M336,-845.87C336,-834.5 336,-820.31 336,-804.26"/>
<polygon fill="none" stroke="black" points="339.5,-804.03 336,-794.03 332.5,-804.03 339.5,-804.03"/>
</g>
<!-- Bartlett\\Sarif\\Contract\\ConverterInterface -->
<g id="node3" class="node">
<title>Bartlett\\Sarif\\Contract\\ConverterInterface</title>
<polygon fill="#fefece" stroke="transparent" points="814.5,-180 237.5,-180 237.5,-16 814.5,-16 814.5,-180"/>
<polygon fill="#eeeeee" stroke="transparent" points="238,-158 238,-180 815,-180 815,-158 238,-158"/>
<polygon fill="none" stroke="black" points="238,-158 238,-180 815,-180 815,-158 238,-158"/>
<text text-anchor="start" x="500.5" y="-171.6" font-family="Verdana" font-weight="bold" font-size="8.00">«interface»</text>
<text text-anchor="start" x="484" y="-163.6" font-family="Verdana" font-weight="bold" font-size="8.00">ConverterInterface</text>
<polygon fill="none" stroke="black" points="238,-152 238,-158 815,-158 815,-152 238,-152"/>
<polygon fill="none" stroke="black" points="238,-16 238,-152 815,-152 815,-16 238,-16"/>
<text text-anchor="start" x="243" y="-140.6" font-family="Verdana" font-size="8.00">+ «abstract» getName() : string</text>
<text text-anchor="start" x="243" y="-127.6" font-family="Verdana" font-size="8.00">+ «abstract» toolDriver() : Bartlett\Sarif\Definition\ToolComponent</text>
<text text-anchor="start" x="243" y="-114.6" font-family="Verdana" font-size="8.00">+ «abstract» toolExtensions() : array</text>
<text text-anchor="start" x="243" y="-101.6" font-family="Verdana" font-size="8.00">+ «abstract» rules(defined : iterable) : array</text>
<text text-anchor="start" x="243" y="-88.6" font-family="Verdana" font-size="8.00">+ «abstract» results(normalized : iterable) : void</text>
<text text-anchor="start" x="243" y="-75.6" font-family="Verdana" font-size="8.00">+ «abstract» invocations(properties : Bartlett\Sarif\Definition\PropertyBag = «unknown», responseFileOption : string = «unknown») : array</text>
<text text-anchor="start" x="243" y="-62.6" font-family="Verdana" font-size="8.00">+ «abstract» versionControlDetails() : array</text>
<text text-anchor="start" x="243" y="-49.6" font-family="Verdana" font-size="8.00">+ «abstract» automationDetails() : Bartlett\Sarif\Definition\RunAutomationDetails</text>
<text text-anchor="start" x="243" y="-36.6" font-family="Verdana" font-size="8.00">+ «abstract» run(invocations : iterable, rules : iterable) : Bartlett\Sarif\Definition\Run</text>
<text text-anchor="start" x="243" y="-23.6" font-family="Verdana" font-size="8.00">+ «abstract» sarifLog(runs : array = [], version : string = &#39;2\.1\.0&#39;) : ?string</text>
</g>
<!-- Bartlett\\Sarif\\Converter\\AbstractConverter&#45;&gt;Bartlett\\Sarif\\Contract\\ConverterInterface -->
<g id="edge1" class="edge">
<title>Bartlett\\Sarif\\Converter\\AbstractConverter&#45;&gt;Bartlett\\Sarif\\Contract\\ConverterInterface</title>
<path fill="none" stroke="black" stroke-dasharray="5,2" d="M466.79,-226.92C472.84,-213.85 478.66,-201.28 484.13,-189.45"/>
<polygon fill="none" stroke="black" points="487.42,-190.68 488.45,-180.13 481.07,-187.74 487.42,-190.68"/>
</g>
<!-- Bartlett\\Sarif\\Contract\\SourceInterface -->
<g id="node4" class="node">
<title>Bartlett\\Sarif\\Contract\\SourceInterface</title>
<polygon fill="#fefece" stroke="transparent" points="1147,-154 833,-154 833,-42 1147,-42 1147,-154"/>
<polygon fill="#eeeeee" stroke="transparent" points="833,-132 833,-154 1147,-154 1147,-132 833,-132"/>
<polygon fill="none" stroke="black" points="833,-132 833,-154 1147,-154 1147,-132 833,-132"/>
<text text-anchor="start" x="964" y="-145.6" font-family="Verdana" font-weight="bold" font-size="8.00">«interface»</text>
<text text-anchor="start" x="954" y="-137.6" font-family="Verdana" font-weight="bold" font-size="8.00">SourceInterface</text>
<polygon fill="none" stroke="black" points="833,-126 833,-132 1147,-132 1147,-126 833,-126"/>
<polygon fill="none" stroke="black" points="833,-42 833,-126 1147,-126 1147,-42 833,-42"/>
<text text-anchor="start" x="838" y="-114.6" font-family="Verdana" font-size="8.00">+ «abstract» getName() : string</text>
<text text-anchor="start" x="838" y="-101.6" font-family="Verdana" font-size="8.00">+ «abstract» getFiles() : Iterator</text>
<text text-anchor="start" x="838" y="-88.6" font-family="Verdana" font-size="8.00">+ «abstract» getErrors() : Iterator</text>
<text text-anchor="start" x="838" y="-75.6" font-family="Verdana" font-size="8.00">+ «abstract» getRules() : Iterator</text>
<text text-anchor="start" x="838" y="-62.6" font-family="Verdana" font-size="8.00">+ «abstract» getAttribute(name : string) : Iterator</text>
<text text-anchor="start" x="838" y="-49.6" font-family="Verdana" font-size="8.00">+ «abstract» normalize(data : mixed, format : string, context : array) : bool</text>
</g>
<!-- Bartlett\\Sarif\\Contract\\NormalizerInterface -->
<g id="node5" class="node">
<title>Bartlett\\Sarif\\Contract\\NormalizerInterface</title>
<polygon fill="#fefece" stroke="transparent" points="1513,-176.5 1165,-176.5 1165,-19.5 1513,-19.5 1513,-176.5"/>
<polygon fill="#eeeeee" stroke="transparent" points="1165,-154 1165,-176 1513,-176 1513,-154 1165,-154"/>
<polygon fill="none" stroke="black" points="1165,-154 1165,-176 1513,-176 1513,-154 1165,-154"/>
<text text-anchor="start" x="1313" y="-167.6" font-family="Verdana" font-weight="bold" font-size="8.00">«interface»</text>
<text text-anchor="start" x="1294" y="-159.6" font-family="Verdana" font-weight="bold" font-size="8.00">NormalizerInterface</text>
<polygon fill="none" stroke="black" points="1165,-70 1165,-154 1513,-154 1513,-70 1165,-70"/>
<text text-anchor="start" x="1170" y="-142.6" font-family="Verdana" font-size="8.00">+ «static» FORMAT_SARIF : string = &quot;sarif&quot; {readOnly}</text>
<text text-anchor="start" x="1170" y="-129.6" font-family="Verdana" font-size="8.00">+ «static» FORMAT_JSON : string = &quot;json&quot; {readOnly}</text>
<text text-anchor="start" x="1170" y="-116.6" font-family="Verdana" font-size="8.00">+ «static» FORMAT_XML : string = &quot;xml&quot; {readOnly}</text>
<text text-anchor="start" x="1170" y="-103.6" font-family="Verdana" font-size="8.00">+ «static» FORMAT_CHECKSTYLE : string = &quot;checkstyle&quot; {readOnly}</text>
<text text-anchor="start" x="1170" y="-90.6" font-family="Verdana" font-size="8.00">+ «static» FORMAT_GITLAB : string = &quot;gitlab&quot; {readOnly}</text>
<text text-anchor="start" x="1170" y="-77.6" font-family="Verdana" font-size="8.00">+ «static» FORMAT_INTERNAL : string = &quot;internal&quot; {readOnly}</text>
<polygon fill="none" stroke="black" points="1165,-64 1165,-70 1513,-70 1513,-64 1165,-64"/>
<polygon fill="none" stroke="black" points="1165,-19 1165,-64 1513,-64 1513,-19 1165,-19"/>
<text text-anchor="start" x="1170" y="-52.6" font-family="Verdana" font-size="8.00">+ «abstract» getSupportedFormats() : array</text>
<text text-anchor="start" x="1170" y="-39.6" font-family="Verdana" font-size="8.00">+ «abstract» isSupportedFormat(format : string) : bool</text>
<text text-anchor="start" x="1170" y="-26.6" font-family="Verdana" font-size="8.00">+ «abstract» normalize(data : mixed, format : string, context : array) : ?ArrayObject</text>
</g>
<!-- Bartlett\\Sarif\\Converter\\Source\\PhpCsSource -->
<g id="node6" class="node">
<title>Bartlett\\Sarif\\Converter\\Source\\PhpCsSource</title>
<polygon fill="#fefece" stroke="transparent" points="1299.5,-922 680.5,-922 680.5,-830 1299.5,-830 1299.5,-922"/>
<polygon fill="#eeeeee" stroke="transparent" points="681,-900 681,-922 1300,-922 1300,-900 681,-900"/>
<polygon fill="none" stroke="black" points="681,-900 681,-922 1300,-922 1300,-900 681,-900"/>
<text text-anchor="start" x="960.5" y="-905.6" font-family="Verdana" font-weight="bold" font-size="8.00">PhpCsSource</text>
<polygon fill="none" stroke="black" points="681,-881 681,-900 1300,-900 1300,-881 681,-881"/>
<text text-anchor="start" x="686" y="-888.6" font-family="Verdana" font-size="8.00">+ «static» URI_PATTERN : string = &quot;https\:\/\/github\.com\/PHPCSStandards\/PHP_CodeSniffer\/wiki\/Customisable\&#45;Sniff\&#45;Properties\#\%s&quot; {readOnly}</text>
<polygon fill="none" stroke="black" points="681,-875 681,-881 1300,-881 1300,-875 681,-875"/>
<polygon fill="none" stroke="black" points="681,-830 681,-875 1300,-875 1300,-830 681,-830"/>
<text text-anchor="start" x="686" y="-863.6" font-family="Verdana" font-size="8.00">+ __construct(normalizers : iterable = [])</text>
<text text-anchor="start" x="686" y="-850.6" font-family="Verdana" font-size="8.00">+ getRules() : Iterator</text>
<text text-anchor="start" x="686" y="-837.6" font-family="Verdana" font-size="8.00">+ «static» fromFile(filename : string, format : string) : self</text>
</g>
<!-- Bartlett\\Sarif\\Converter\\Source\\AbstractSource -->
<g id="node7" class="node">
<title>Bartlett\\Sarif\\Converter\\Source\\AbstractSource</title>
<polygon fill="#fefece" stroke="transparent" points="1153,-592.5 827,-592.5 827,-428.5 1153,-428.5 1153,-592.5"/>
<polygon fill="#eeeeee" stroke="transparent" points="827,-570.5 827,-592.5 1153,-592.5 1153,-570.5 827,-570.5"/>
<polygon fill="none" stroke="black" points="827,-570.5 827,-592.5 1153,-592.5 1153,-570.5 827,-570.5"/>
<text text-anchor="start" x="966" y="-584.1" font-family="Verdana" font-weight="bold" font-size="8.00">«abstract»</text>
<text text-anchor="start" x="955.5" y="-576.1" font-family="Verdana" font-weight="bold" font-size="8.00">AbstractSource</text>
<polygon fill="none" stroke="black" points="827,-538.5 827,-570.5 1153,-570.5 1153,-538.5 827,-538.5"/>
<text text-anchor="start" x="832" y="-559.1" font-family="Verdana" font-size="8.00">– normalizers : mixed</text>
<text text-anchor="start" x="832" y="-546.1" font-family="Verdana" font-size="8.00">– normalized</text>
<polygon fill="none" stroke="black" points="827,-428.5 827,-538.5 1153,-538.5 1153,-428.5 827,-428.5"/>
<text text-anchor="start" x="832" y="-527.1" font-family="Verdana" font-size="8.00">+ __construct(normalizers : iterable = [])</text>
<text text-anchor="start" x="832" y="-514.1" font-family="Verdana" font-size="8.00">+ getName() : string</text>
<text text-anchor="start" x="832" y="-501.1" font-family="Verdana" font-size="8.00">+ getFiles() : Iterator</text>
<text text-anchor="start" x="832" y="-488.1" font-family="Verdana" font-size="8.00">+ getErrors() : Iterator</text>
<text text-anchor="start" x="832" y="-475.1" font-family="Verdana" font-size="8.00">+ getRules() : Iterator</text>
<text text-anchor="start" x="832" y="-462.1" font-family="Verdana" font-size="8.00">+ getAttribute(name : string) : Iterator</text>
<text text-anchor="start" x="832" y="-449.1" font-family="Verdana" font-size="8.00">+ normalize(data : mixed, format : string, context : array) : bool</text>
<text text-anchor="start" x="832" y="-436.1" font-family="Verdana" font-size="8.00"># getNormalizer(format : string) : ?Bartlett\Sarif\Contract\NormalizerInterface</text>
</g>
<!-- Bartlett\\Sarif\\Converter\\Source\\PhpCsSource&#45;&gt;Bartlett\\Sarif\\Converter\\Source\\AbstractSource -->
<g id="edge4" class="edge">
<title>Bartlett\\Sarif\\Converter\\Source\\PhpCsSource&#45;&gt;Bartlett\\Sarif\\Converter\\Source\\AbstractSource</title>
<path fill="none" stroke="black" d="M990,-829.7C990,-773.17 990,-675.14 990,-602.78"/>
<polygon fill="none" stroke="black" points="993.5,-602.75 990,-592.75 986.5,-602.75 993.5,-602.75"/>
</g>
<!-- Bartlett\\Sarif\\Converter\\Source\\AbstractSource&#45;&gt;Bartlett\\Sarif\\Contract\\SourceInterface -->
<g id="edge3" class="edge">
<title>Bartlett\\Sarif\\Converter\\Source\\AbstractSource&#45;&gt;Bartlett\\Sarif\\Contract\\SourceInterface</title>
<path fill="none" stroke="black" stroke-dasharray="5,2" d="M990,-428.4C990,-351.01 990,-235.9 990,-164.26"/>
<polygon fill="none" stroke="black" points="993.5,-164.01 990,-154.01 986.5,-164.01 993.5,-164.01"/>
</g>
<!-- Bartlett\\Sarif\\Converter\\Normalizer\\PhpCsNormalizer -->
<g id="node8" class="node">
<title>Bartlett\\Sarif\\Converter\\Normalizer\\PhpCsNormalizer</title>
<polygon fill="#fefece" stroke="transparent" points="1613,-919 1341,-919 1341,-833 1613,-833 1613,-919"/>
<polygon fill="#eeeeee" stroke="transparent" points="1341,-897 1341,-919 1613,-919 1613,-897 1341,-897"/>
<polygon fill="none" stroke="black" points="1341,-897 1341,-919 1613,-919 1613,-897 1341,-897"/>
<text text-anchor="start" x="1438" y="-902.6" font-family="Verdana" font-weight="bold" font-size="8.00">PhpCsNormalizer</text>
<polygon fill="none" stroke="black" points="1341,-891 1341,-897 1613,-897 1613,-891 1341,-891"/>
<polygon fill="none" stroke="black" points="1341,-833 1341,-891 1613,-891 1613,-833 1341,-833"/>
<text text-anchor="start" x="1346" y="-879.6" font-family="Verdana" font-size="8.00">+ getSupportedFormats() : array</text>
<text text-anchor="start" x="1346" y="-866.6" font-family="Verdana" font-size="8.00">+ normalize(data, format : string, context : array) : ?ArrayObject</text>
<text text-anchor="start" x="1346" y="-853.6" font-family="Verdana" font-size="8.00"># fromInternal(data, context : array, mapping : array = []) : array</text>
<text text-anchor="start" x="1346" y="-840.6" font-family="Verdana" font-size="8.00">– fromJson(data : string, mapping : array) : array</text>
</g>
<!-- Bartlett\\Sarif\\Converter\\Normalizer\\AbstractNormalizer -->
<g id="node9" class="node">
<title>Bartlett\\Sarif\\Converter\\Normalizer\\AbstractNormalizer</title>
<polygon fill="#fefece" stroke="transparent" points="1629.5,-595.5 1324.5,-595.5 1324.5,-425.5 1629.5,-425.5 1629.5,-595.5"/>
<polygon fill="#eeeeee" stroke="transparent" points="1325,-573.5 1325,-595.5 1630,-595.5 1630,-573.5 1325,-573.5"/>
<polygon fill="none" stroke="black" points="1325,-573.5 1325,-595.5 1630,-595.5 1630,-573.5 1325,-573.5"/>
<text text-anchor="start" x="1453.5" y="-587.1" font-family="Verdana" font-weight="bold" font-size="8.00">«abstract»</text>
<text text-anchor="start" x="1434" y="-579.1" font-family="Verdana" font-weight="bold" font-size="8.00">AbstractNormalizer</text>
<polygon fill="none" stroke="black" points="1325,-489.5 1325,-573.5 1630,-573.5 1630,-489.5 1325,-489.5"/>
<text text-anchor="start" x="1330" y="-562.1" font-family="Verdana" font-size="8.00">+ «static» FORMAT_SARIF : string = &quot;sarif&quot; {readOnly}</text>
<text text-anchor="start" x="1330" y="-549.1" font-family="Verdana" font-size="8.00">+ «static» FORMAT_JSON : string = &quot;json&quot; {readOnly}</text>
<text text-anchor="start" x="1330" y="-536.1" font-family="Verdana" font-size="8.00">+ «static» FORMAT_XML : string = &quot;xml&quot; {readOnly}</text>
<text text-anchor="start" x="1330" y="-523.1" font-family="Verdana" font-size="8.00">+ «static» FORMAT_CHECKSTYLE : string = &quot;checkstyle&quot; {readOnly}</text>
<text text-anchor="start" x="1330" y="-510.1" font-family="Verdana" font-size="8.00">+ «static» FORMAT_GITLAB : string = &quot;gitlab&quot; {readOnly}</text>
<text text-anchor="start" x="1330" y="-497.1" font-family="Verdana" font-size="8.00">+ «static» FORMAT_INTERNAL : string = &quot;internal&quot; {readOnly}</text>
<polygon fill="none" stroke="black" points="1325,-483.5 1325,-489.5 1630,-489.5 1630,-483.5 1325,-483.5"/>
<polygon fill="none" stroke="black" points="1325,-425.5 1325,-483.5 1630,-483.5 1630,-425.5 1325,-425.5"/>
<text text-anchor="start" x="1330" y="-472.1" font-family="Verdana" font-size="8.00">+ getSupportedFormats() : array</text>
<text text-anchor="start" x="1330" y="-459.1" font-family="Verdana" font-size="8.00">+ isSupportedFormat(format : string) : bool</text>
<text text-anchor="start" x="1330" y="-446.1" font-family="Verdana" font-size="8.00">+ normalize(data, format : string, context : array) : ?ArrayObject</text>
<text text-anchor="start" x="1330" y="-433.1" font-family="Verdana" font-size="8.00"># fromInternal(data : TData, context : array, mapping : array = []) : array</text>
</g>
<!-- Bartlett\\Sarif\\Converter\\Normalizer\\PhpCsNormalizer&#45;&gt;Bartlett\\Sarif\\Converter\\Normalizer\\AbstractNormalizer -->
<g id="edge6" class="edge">
<title>Bartlett\\Sarif\\Converter\\Normalizer\\PhpCsNormalizer&#45;&gt;Bartlett\\Sarif\\Converter\\Normalizer\\AbstractNormalizer</title>
<path fill="none" stroke="black" d="M1477,-832.95C1477,-777.79 1477,-679.42 1477,-605.98"/>
<polygon fill="none" stroke="black" points="1480.5,-605.79 1477,-595.79 1473.5,-605.79 1480.5,-605.79"/>
</g>
<!-- Bartlett\\Sarif\\Converter\\Normalizer\\AbstractNormalizer&#45;&gt;Bartlett\\Sarif\\Contract\\NormalizerInterface -->
<g id="edge5" class="edge">
<title>Bartlett\\Sarif\\Converter\\Normalizer\\AbstractNormalizer&#45;&gt;Bartlett\\Sarif\\Contract\\NormalizerInterface</title>
<path fill="none" stroke="black" stroke-dasharray="5,2" d="M1448.74,-425.44C1425.32,-355.77 1392.14,-257.07 1368.41,-186.47"/>
<polygon fill="none" stroke="black" points="1371.63,-185.06 1365.12,-176.7 1364.99,-187.29 1371.63,-185.06"/>
</g>
</g>
</svg>
