<?xml version="1.0" encoding="UTF-8" standalone="no"?>
<!DOCTYPE svg PUBLIC "-//W3C//DTD SVG 1.1//EN"
 "http://www.w3.org/Graphics/SVG/1.1/DTD/svg11.dtd">
<!-- Generated by graphviz version 2.42.4 (0)
 -->
<!-- Pages: 1 -->
<svg width="1638pt" height="969pt"
 viewBox="0.00 0.00 1638.00 969.00" xmlns="http://www.w3.org/2000/svg" xmlns:xlink="http://www.w3.org/1999/xlink">
<g id="graph0" class="graph" transform="scale(1 1) rotate(0) translate(4 965)">
<g id="clust1" class="cluster">
<title>cluster_0</title>
<polygon fill="BurlyWood" stroke="black" points="8,-219 8,-930.5 664,-930.5 664,-219 8,-219"/>
<text text-anchor="middle" x="336" y="-915.3" font-family="Times,serif" font-size="14.00">Bartlett\Sarif\Converter</text>
</g>
<g id="clust2" class="cluster">
<title>cluster_1</title>
<polygon fill="LightSkyBlue" stroke="black" points="82,-8 82,-211 1374,-211 1374,-8 82,-8"/>
<text text-anchor="middle" x="728" y="-195.8" font-family="Times,serif" font-size="14.00">Bartlett\Sarif\Contract</text>
</g>
<g id="clust3" class="cluster">
<title>cluster_2</title>
<polygon fill="Bisque" stroke="black" points="672,-420.5 672,-930.5 1014,-930.5 1014,-420.5 672,-420.5"/>
<text text-anchor="middle" x="843" y="-915.3" font-family="Times,serif" font-size="14.00">Bartlett\Sarif\Converter\Source</text>
</g>
<g id="clust4" class="cluster">
<title>cluster_3</title>
<polygon fill="Bisque" stroke="black" points="1022,-417.5 1022,-953 1622,-953 1622,-417.5 1022,-417.5"/>
<text text-anchor="middle" x="1322" y="-937.8" font-family="Times,serif" font-size="14.00">Bartlett\Sarif\Converter\Normalizer</text>
</g>
<!-- Bartlett\\Sarif\\Converter\\RectorConverter -->
<g id="node1" class="node">
<title>Bartlett\\Sarif\\Converter\\RectorConverter</title>
<polygon fill="#fefece" stroke="transparent" points="410.5,-899.5 261.5,-899.5 261.5,-852.5 410.5,-852.5 410.5,-899.5"/>
<polygon fill="#eeeeee" stroke="transparent" points="262,-877 262,-899 411,-899 411,-877 262,-877"/>
<polygon fill="none" stroke="black" points="262,-877 262,-899 411,-899 411,-877 262,-877"/>
<text text-anchor="start" x="300" y="-882.6" font-family="Verdana" font-weight="bold" font-size="8.00">RectorConverter</text>
<polygon fill="none" stroke="black" points="262,-871 262,-877 411,-877 411,-871 262,-871"/>
<polygon fill="none" stroke="black" points="262,-852 262,-871 411,-871 411,-852 262,-852"/>
<text text-anchor="start" x="267" y="-859.6" font-family="Verdana" font-size="8.00">+ configure(options : array) : void</text>
</g>
<!-- Bartlett\\Sarif\\Converter\\AbstractConverter -->
<g id="node2" class="node">
<title>Bartlett\\Sarif\\Converter\\AbstractConverter</title>
<polygon fill="#fefece" stroke="transparent" points="655.5,-794 16.5,-794 16.5,-227 655.5,-227 655.5,-794"/>
<polygon fill="#eeeeee" stroke="transparent" points="17,-771.5 17,-793.5 656,-793.5 656,-771.5 17,-771.5"/>
<polygon fill="none" stroke="black" points="17,-771.5 17,-793.5 656,-793.5 656,-771.5 17,-771.5"/>
<text text-anchor="start" x="312.5" y="-785.1" font-family="Verdana" font-weight="bold" font-size="8.00">«abstract»</text>
<text text-anchor="start" x="295.5" y="-777.1" font-family="Verdana" font-weight="bold" font-size="8.00">AbstractConverter</text>
<polygon fill="none" stroke="black" points="17,-531.5 17,-771.5 656,-771.5 656,-531.5 17,-531.5"/>
<text text-anchor="start" x="22" y="-760.1" font-family="Verdana" font-size="8.00"># toolName</text>
<text text-anchor="start" x="22" y="-747.1" font-family="Verdana" font-size="8.00"># toolFullName</text>
<text text-anchor="start" x="22" y="-734.1" font-family="Verdana" font-size="8.00"># toolShortDescription</text>
<text text-anchor="start" x="22" y="-721.1" font-family="Verdana" font-size="8.00"># toolFullDescription</text>
<text text-anchor="start" x="22" y="-708.1" font-family="Verdana" font-size="8.00"># toolInformationUri</text>
<text text-anchor="start" x="22" y="-695.1" font-family="Verdana" font-size="8.00"># toolComposerPackage</text>
<text text-anchor="start" x="22" y="-682.1" font-family="Verdana" font-size="8.00"># «static» toolVersion</text>
<text text-anchor="start" x="22" y="-669.1" font-family="Verdana" font-size="8.00"># toolSemanticVersion</text>
<text text-anchor="start" x="22" y="-656.1" font-family="Verdana" font-size="8.00"># converterComposerPackage</text>
<text text-anchor="start" x="22" y="-643.1" font-family="Verdana" font-size="8.00"># results : mixed = []</text>
<text text-anchor="start" x="22" y="-630.1" font-family="Verdana" font-size="8.00"># errors : mixed = []</text>
<text text-anchor="start" x="22" y="-617.1" font-family="Verdana" font-size="8.00"># serializer</text>
<text text-anchor="start" x="22" y="-604.1" font-family="Verdana" font-size="8.00"># startTime</text>
<text text-anchor="start" x="22" y="-591.1" font-family="Verdana" font-size="8.00"># endTime</text>
<text text-anchor="start" x="22" y="-578.1" font-family="Verdana" font-size="8.00"># includeCodeSnippets</text>
<text text-anchor="start" x="22" y="-565.1" font-family="Verdana" font-size="8.00"># includeContextRegion</text>
<text text-anchor="start" x="22" y="-552.1" font-family="Verdana" font-size="8.00"># defaultResultLevelIfEmpty</text>
<text text-anchor="start" x="22" y="-539.1" font-family="Verdana" font-size="8.00"># projectDirectory</text>
<polygon fill="none" stroke="black" points="17,-226.5 17,-531.5 656,-531.5 656,-226.5 17,-226.5"/>
<text text-anchor="start" x="22" y="-520.1" font-family="Verdana" font-size="8.00">+ __construct(options : array = [], factory : Bartlett\Sarif\Factory\SerializerFactory = «unknown»)</text>
<text text-anchor="start" x="22" y="-507.1" font-family="Verdana" font-size="8.00">+ getName() : string</text>
<text text-anchor="start" x="22" y="-494.1" font-family="Verdana" font-size="8.00">+ «static» getVersion() : string</text>
<text text-anchor="start" x="22" y="-481.1" font-family="Verdana" font-size="8.00">+ configure(options : array) : void</text>
<text text-anchor="start" x="22" y="-468.1" font-family="Verdana" font-size="8.00">+ toolDriver() : Bartlett\Sarif\Definition\ToolComponent</text>
<text text-anchor="start" x="22" y="-455.1" font-family="Verdana" font-size="8.00">+ toolExtensions() : array</text>
<text text-anchor="start" x="22" y="-442.1" font-family="Verdana" font-size="8.00">+ rules(defined : iterable) : array</text>
<text text-anchor="start" x="22" y="-429.1" font-family="Verdana" font-size="8.00">+ results(normalized : iterable) : void</text>
<text text-anchor="start" x="22" y="-416.1" font-family="Verdana" font-size="8.00">+ sarifLog(runs : array = [], version : string = &#39;2\.1\.0&#39;) : ?string</text>
<text text-anchor="start" x="22" y="-403.1" font-family="Verdana" font-size="8.00">+ invocations(properties : Bartlett\Sarif\Definition\PropertyBag = «unknown», responseFileOption : string = «unknown») : array</text>
<text text-anchor="start" x="22" y="-390.1" font-family="Verdana" font-size="8.00">+ versionControlDetails() : array</text>
<text text-anchor="start" x="22" y="-377.1" font-family="Verdana" font-size="8.00">+ automationDetails() : Bartlett\Sarif\Definition\RunAutomationDetails</text>
<text text-anchor="start" x="22" y="-364.1" font-family="Verdana" font-size="8.00">+ run(invocations : iterable, rules : iterable) : Bartlett\Sarif\Definition\Run</text>
<text text-anchor="start" x="22" y="-351.1" font-family="Verdana" font-size="8.00"># originalUriBaseIdentifiers() : array</text>
<text text-anchor="start" x="22" y="-338.1" font-family="Verdana" font-size="8.00"># getToolVersion(package : string) : string</text>
<text text-anchor="start" x="22" y="-325.1" font-family="Verdana" font-size="8.00"># pathToArtifactLocation(path : string) : string</text>
<text text-anchor="start" x="22" y="-312.1" font-family="Verdana" font-size="8.00"># pathToUri(path : string) : string</text>
<text text-anchor="start" x="22" y="-299.1" font-family="Verdana" font-size="8.00"># getCodeSnippet(filePath : string, lineNumber : int, linesBefore : int, linesAfter : int) : ?string</text>
<text text-anchor="start" x="22" y="-286.1" font-family="Verdana" font-size="8.00"># getSnippetRegion(filePath : string, lineNumber : int, column : int = «unknown», linesBefore : int = 2, linesAfter : int = 2) : Bartlett\Sarif\Definition\Region</text>
<text text-anchor="start" x="22" y="-273.1" font-family="Verdana" font-size="8.00"># getErrors() : Iterator</text>
<text text-anchor="start" x="22" y="-260.1" font-family="Verdana" font-size="8.00"># multiformatMessageString(def : mixed) : Bartlett\Sarif\Definition\MultiformatMessageString</text>
<text text-anchor="start" x="22" y="-247.1" font-family="Verdana" font-size="8.00"># message(def : mixed) : Bartlett\Sarif\Definition\Message</text>
<text text-anchor="start" x="22" y="-234.1" font-family="Verdana" font-size="8.00">– multiformatMessage(def, message) : object</text>
</g>
<!-- Bartlett\\Sarif\\Converter\\RectorConverter&#45;&gt;Bartlett\\Sarif\\Converter\\AbstractConverter -->
<g id="edge2" class="edge">
<title>Bartlett\\Sarif\\Converter\\RectorConverter&#45;&gt;Bartlett\\Sarif\\Converter\\AbstractConverter</title>
<path fill="none" stroke="black" d="M336,-852.26C336,-840.08 336,-823.66 336,-804.56"/>
<polygon fill="none" stroke="black" points="339.5,-804.34 336,-794.34 332.5,-804.34 339.5,-804.34"/>
</g>
<!-- Bartlett\\Sarif\\Contract\\ConverterInterface -->
<g id="node3" class="node">
<title>Bartlett\\Sarif\\Contract\\ConverterInterface</title>
<polygon fill="#fefece" stroke="transparent" points="667.5,-180 90.5,-180 90.5,-16 667.5,-16 667.5,-180"/>
<polygon fill="#eeeeee" stroke="transparent" points="91,-158 91,-180 668,-180 668,-158 91,-158"/>
<polygon fill="none" stroke="black" points="91,-158 91,-180 668,-180 668,-158 91,-158"/>
<text text-anchor="start" x="353.5" y="-171.6" font-family="Verdana" font-weight="bold" font-size="8.00">«interface»</text>
<text text-anchor="start" x="337" y="-163.6" font-family="Verdana" font-weight="bold" font-size="8.00">ConverterInterface</text>
<polygon fill="none" stroke="black" points="91,-152 91,-158 668,-158 668,-152 91,-152"/>
<polygon fill="none" stroke="black" points="91,-16 91,-152 668,-152 668,-16 91,-16"/>
<text text-anchor="start" x="96" y="-140.6" font-family="Verdana" font-size="8.00">+ «abstract» getName() : string</text>
<text text-anchor="start" x="96" y="-127.6" font-family="Verdana" font-size="8.00">+ «abstract» toolDriver() : Bartlett\Sarif\Definition\ToolComponent</text>
<text text-anchor="start" x="96" y="-114.6" font-family="Verdana" font-size="8.00">+ «abstract» toolExtensions() : array</text>
<text text-anchor="start" x="96" y="-101.6" font-family="Verdana" font-size="8.00">+ «abstract» rules(defined : iterable) : array</text>
<text text-anchor="start" x="96" y="-88.6" font-family="Verdana" font-size="8.00">+ «abstract» results(normalized : iterable) : void</text>
<text text-anchor="start" x="96" y="-75.6" font-family="Verdana" font-size="8.00">+ «abstract» invocations(properties : Bartlett\Sarif\Definition\PropertyBag = «unknown», responseFileOption : string = «unknown») : array</text>
<text text-anchor="start" x="96" y="-62.6" font-family="Verdana" font-size="8.00">+ «abstract» versionControlDetails() : array</text>
<text text-anchor="start" x="96" y="-49.6" font-family="Verdana" font-size="8.00">+ «abstract» automationDetails() : Bartlett\Sarif\Definition\RunAutomationDetails</text>
<text text-anchor="start" x="96" y="-36.6" font-family="Verdana" font-size="8.00">+ «abstract» run(invocations : iterable, rules : iterable) : Bartlett\Sarif\Definition\Run</text>
<text text-anchor="start" x="96" y="-23.6" font-family="Verdana" font-size="8.00">+ «abstract» sarifLog(runs : array = [], version : string = &#39;2\.1\.0&#39;) : ?string</text>
</g>
<!-- Bartlett\\Sarif\\Converter\\AbstractConverter&#45;&gt;Bartlett\\Sarif\\Contract\\ConverterInterface -->
<g id="edge1" class="edge">
<title>Bartlett\\Sarif\\Converter\\AbstractConverter&#45;&gt;Bartlett\\Sarif\\Contract\\ConverterInterface</title>
<path fill="none" stroke="black" stroke-dasharray="5,2" d="M365.6,-226.92C366.94,-214.11 368.23,-201.77 369.45,-190.15"/>
<polygon fill="none" stroke="black" points="372.94,-190.44 370.5,-180.13 365.98,-189.71 372.94,-190.44"/>
</g>
<!-- Bartlett\\Sarif\\Contract\\SourceInterface -->
<g id="node4" class="node">
<title>Bartlett\\Sarif\\Contract\\SourceInterface</title>
<polygon fill="#fefece" stroke="transparent" points="1000,-154 686,-154 686,-42 1000,-42 1000,-154"/>
<polygon fill="#eeeeee" stroke="transparent" points="686,-132 686,-154 1000,-154 1000,-132 686,-132"/>
<polygon fill="none" stroke="black" points="686,-132 686,-154 1000,-154 1000,-132 686,-132"/>
<text text-anchor="start" x="817" y="-145.6" font-family="Verdana" font-weight="bold" font-size="8.00">«interface»</text>
<text text-anchor="start" x="807" y="-137.6" font-family="Verdana" font-weight="bold" font-size="8.00">SourceInterface</text>
<polygon fill="none" stroke="black" points="686,-126 686,-132 1000,-132 1000,-126 686,-126"/>
<polygon fill="none" stroke="black" points="686,-42 686,-126 1000,-126 1000,-42 686,-42"/>
<text text-anchor="start" x="691" y="-114.6" font-family="Verdana" font-size="8.00">+ «abstract» getName() : string</text>
<text text-anchor="start" x="691" y="-101.6" font-family="Verdana" font-size="8.00">+ «abstract» getFiles() : Iterator</text>
<text text-anchor="start" x="691" y="-88.6" font-family="Verdana" font-size="8.00">+ «abstract» getErrors() : Iterator</text>
<text text-anchor="start" x="691" y="-75.6" font-family="Verdana" font-size="8.00">+ «abstract» getRules() : Iterator</text>
<text text-anchor="start" x="691" y="-62.6" font-family="Verdana" font-size="8.00">+ «abstract» getAttribute(name : string) : Iterator</text>
<text text-anchor="start" x="691" y="-49.6" font-family="Verdana" font-size="8.00">+ «abstract» normalize(data : mixed, format : string, context : array) : bool</text>
</g>
<!-- Bartlett\\Sarif\\Contract\\NormalizerInterface -->
<g id="node5" class="node">
<title>Bartlett\\Sarif\\Contract\\NormalizerInterface</title>
<polygon fill="#fefece" stroke="transparent" points="1366,-176.5 1018,-176.5 1018,-19.5 1366,-19.5 1366,-176.5"/>
<polygon fill="#eeeeee" stroke="transparent" points="1018,-154 1018,-176 1366,-176 1366,-154 1018,-154"/>
<polygon fill="none" stroke="black" points="1018,-154 1018,-176 1366,-176 1366,-154 1018,-154"/>
<text text-anchor="start" x="1166" y="-167.6" font-family="Verdana" font-weight="bold" font-size="8.00">«interface»</text>
<text text-anchor="start" x="1147" y="-159.6" font-family="Verdana" font-weight="bold" font-size="8.00">NormalizerInterface</text>
<polygon fill="none" stroke="black" points="1018,-70 1018,-154 1366,-154 1366,-70 1018,-70"/>
<text text-anchor="start" x="1023" y="-142.6" font-family="Verdana" font-size="8.00">+ «static» FORMAT_SARIF : string = &quot;sarif&quot; {readOnly}</text>
<text text-anchor="start" x="1023" y="-129.6" font-family="Verdana" font-size="8.00">+ «static» FORMAT_JSON : string = &quot;json&quot; {readOnly}</text>
<text text-anchor="start" x="1023" y="-116.6" font-family="Verdana" font-size="8.00">+ «static» FORMAT_XML : string = &quot;xml&quot; {readOnly}</text>
<text text-anchor="start" x="1023" y="-103.6" font-family="Verdana" font-size="8.00">+ «static» FORMAT_CHECKSTYLE : string = &quot;checkstyle&quot; {readOnly}</text>
<text text-anchor="start" x="1023" y="-90.6" font-family="Verdana" font-size="8.00">+ «static» FORMAT_GITLAB : string = &quot;gitlab&quot; {readOnly}</text>
<text text-anchor="start" x="1023" y="-77.6" font-family="Verdana" font-size="8.00">+ «static» FORMAT_INTERNAL : string = &quot;internal&quot; {readOnly}</text>
<polygon fill="none" stroke="black" points="1018,-64 1018,-70 1366,-70 1366,-64 1018,-64"/>
<polygon fill="none" stroke="black" points="1018,-19 1018,-64 1366,-64 1366,-19 1018,-19"/>
<text text-anchor="start" x="1023" y="-52.6" font-family="Verdana" font-size="8.00">+ «abstract» getSupportedFormats() : array</text>
<text text-anchor="start" x="1023" y="-39.6" font-family="Verdana" font-size="8.00">+ «abstract» isSupportedFormat(format : string) : bool</text>
<text text-anchor="start" x="1023" y="-26.6" font-family="Verdana" font-size="8.00">+ «abstract» normalize(data : mixed, format : string, context : array) : ?ArrayObject</text>
</g>
<!-- Bartlett\\Sarif\\Converter\\Source\\RectorSource -->
<g id="node6" class="node">
<title>Bartlett\\Sarif\\Converter\\Source\\RectorSource</title>
<polygon fill="#fefece" stroke="transparent" points="931,-899.5 755,-899.5 755,-852.5 931,-852.5 931,-899.5"/>
<polygon fill="#eeeeee" stroke="transparent" points="755,-877 755,-899 931,-899 931,-877 755,-877"/>
<polygon fill="none" stroke="black" points="755,-877 755,-899 931,-899 931,-877 755,-877"/>
<text text-anchor="start" x="813" y="-882.6" font-family="Verdana" font-weight="bold" font-size="8.00">RectorSource</text>
<polygon fill="none" stroke="black" points="755,-871 755,-877 931,-877 931,-871 755,-871"/>
<polygon fill="none" stroke="black" points="755,-852 755,-871 931,-871 931,-852 755,-852"/>
<text text-anchor="start" x="760" y="-859.6" font-family="Verdana" font-size="8.00">+ __construct(normalizers : iterable = [])</text>
</g>
<!-- Bartlett\\Sarif\\Converter\\Source\\AbstractSource -->
<g id="node7" class="node">
<title>Bartlett\\Sarif\\Converter\\Source\\AbstractSource</title>
<polygon fill="#fefece" stroke="transparent" points="1006,-592.5 680,-592.5 680,-428.5 1006,-428.5 1006,-592.5"/>
<polygon fill="#eeeeee" stroke="transparent" points="680,-570.5 680,-592.5 1006,-592.5 1006,-570.5 680,-570.5"/>
<polygon fill="none" stroke="black" points="680,-570.5 680,-592.5 1006,-592.5 1006,-570.5 680,-570.5"/>
<text text-anchor="start" x="819" y="-584.1" font-family="Verdana" font-weight="bold" font-size="8.00">«abstract»</text>
<text text-anchor="start" x="808.5" y="-576.1" font-family="Verdana" font-weight="bold" font-size="8.00">AbstractSource</text>
<polygon fill="none" stroke="black" points="680,-538.5 680,-570.5 1006,-570.5 1006,-538.5 680,-538.5"/>
<text text-anchor="start" x="685" y="-559.1" font-family="Verdana" font-size="8.00">– normalizers : mixed</text>
<text text-anchor="start" x="685" y="-546.1" font-family="Verdana" font-size="8.00">– normalized</text>
<polygon fill="none" stroke="black" points="680,-428.5 680,-538.5 1006,-538.5 1006,-428.5 680,-428.5"/>
<text text-anchor="start" x="685" y="-527.1" font-family="Verdana" font-size="8.00">+ __construct(normalizers : iterable = [])</text>
<text text-anchor="start" x="685" y="-514.1" font-family="Verdana" font-size="8.00">+ getName() : string</text>
<text text-anchor="start" x="685" y="-501.1" font-family="Verdana" font-size="8.00">+ getFiles() : Iterator</text>
<text text-anchor="start" x="685" y="-488.1" font-family="Verdana" font-size="8.00">+ getErrors() : Iterator</text>
<text text-anchor="start" x="685" y="-475.1" font-family="Verdana" font-size="8.00">+ getRules() : Iterator</text>
<text text-anchor="start" x="685" y="-462.1" font-family="Verdana" font-size="8.00">+ getAttribute(name : string) : Iterator</text>
<text text-anchor="start" x="685" y="-449.1" font-family="Verdana" font-size="8.00">+ normalize(data : mixed, format : string, context : array) : bool</text>
<text text-anchor="start" x="685" y="-436.1" font-family="Verdana" font-size="8.00"># getNormalizer(format : string) : ?Bartlett\Sarif\Contract\NormalizerInterface</text>
</g>
<!-- Bartlett\\Sarif\\Converter\\Source\\RectorSource&#45;&gt;Bartlett\\Sarif\\Converter\\Source\\AbstractSource -->
<g id="edge4" class="edge">
<title>Bartlett\\Sarif\\Converter\\Source\\RectorSource&#45;&gt;Bartlett\\Sarif\\Converter\\Source\\AbstractSource</title>
<path fill="none" stroke="black" d="M843,-852.26C843,-803.4 843,-686.06 843,-602.76"/>
<polygon fill="none" stroke="black" points="846.5,-602.53 843,-592.53 839.5,-602.53 846.5,-602.53"/>
</g>
<!-- Bartlett\\Sarif\\Converter\\Source\\AbstractSource&#45;&gt;Bartlett\\Sarif\\Contract\\SourceInterface -->
<g id="edge3" class="edge">
<title>Bartlett\\Sarif\\Converter\\Source\\AbstractSource&#45;&gt;Bartlett\\Sarif\\Contract\\SourceInterface</title>
<path fill="none" stroke="black" stroke-dasharray="5,2" d="M843,-428.4C843,-351.01 843,-235.9 843,-164.26"/>
<polygon fill="none" stroke="black" points="846.5,-164.01 843,-154.01 839.5,-164.01 846.5,-164.01"/>
</g>
<!-- Bartlett\\Sarif\\Converter\\Normalizer\\RectorNormalizer -->
<g id="node8" class="node">
<title>Bartlett\\Sarif\\Converter\\Normalizer\\RectorNormalizer</title>
<polygon fill="#fefece" stroke="transparent" points="1613.5,-922 1030.5,-922 1030.5,-830 1613.5,-830 1613.5,-922"/>
<polygon fill="#eeeeee" stroke="transparent" points="1031,-900 1031,-922 1614,-922 1614,-900 1031,-900"/>
<polygon fill="none" stroke="black" points="1031,-900 1031,-922 1614,-922 1614,-900 1031,-900"/>
<text text-anchor="start" x="1283.5" y="-905.6" font-family="Verdana" font-weight="bold" font-size="8.00">RectorNormalizer</text>
<polygon fill="none" stroke="black" points="1031,-881 1031,-900 1614,-900 1614,-881 1031,-881"/>
<text text-anchor="start" x="1036" y="-888.6" font-family="Verdana" font-size="8.00">+ «static» URI_PATTERN : string = &quot;https\:\/\/github\.com\/rectorphp\/rector\/blob\/main\/docs\/rector_rules_overview\.md\#\%s&quot; {readOnly}</text>
<polygon fill="none" stroke="black" points="1031,-875 1031,-881 1614,-881 1614,-875 1031,-875"/>
<polygon fill="none" stroke="black" points="1031,-830 1031,-875 1614,-875 1614,-830 1031,-830"/>
<text text-anchor="start" x="1036" y="-863.6" font-family="Verdana" font-size="8.00">+ normalize(data, format : string, context : array) : ?ArrayObject</text>
<text text-anchor="start" x="1036" y="-850.6" font-family="Verdana" font-size="8.00"># fromInternal(data, context : array, mapping : array = []) : array</text>
<text text-anchor="start" x="1036" y="-837.6" font-family="Verdana" font-size="8.00">– resolveFromClassName(className : string) : ?Symplify\RuleDocGenerator\ValueObject\RuleDefinition</text>
</g>
<!-- Bartlett\\Sarif\\Converter\\Normalizer\\AbstractNormalizer -->
<g id="node9" class="node">
<title>Bartlett\\Sarif\\Converter\\Normalizer\\AbstractNormalizer</title>
<polygon fill="#fefece" stroke="transparent" points="1409.5,-595.5 1104.5,-595.5 1104.5,-425.5 1409.5,-425.5 1409.5,-595.5"/>
<polygon fill="#eeeeee" stroke="transparent" points="1105,-573.5 1105,-595.5 1410,-595.5 1410,-573.5 1105,-573.5"/>
<polygon fill="none" stroke="black" points="1105,-573.5 1105,-595.5 1410,-595.5 1410,-573.5 1105,-573.5"/>
<text text-anchor="start" x="1233.5" y="-587.1" font-family="Verdana" font-weight="bold" font-size="8.00">«abstract»</text>
<text text-anchor="start" x="1214" y="-579.1" font-family="Verdana" font-weight="bold" font-size="8.00">AbstractNormalizer</text>
<polygon fill="none" stroke="black" points="1105,-489.5 1105,-573.5 1410,-573.5 1410,-489.5 1105,-489.5"/>
<text text-anchor="start" x="1110" y="-562.1" font-family="Verdana" font-size="8.00">+ «static» FORMAT_SARIF : string = &quot;sarif&quot; {readOnly}</text>
<text text-anchor="start" x="1110" y="-549.1" font-family="Verdana" font-size="8.00">+ «static» FORMAT_JSON : string = &quot;json&quot; {readOnly}</text>
<text text-anchor="start" x="1110" y="-536.1" font-family="Verdana" font-size="8.00">+ «static» FORMAT_XML : string = &quot;xml&quot; {readOnly}</text>
<text text-anchor="start" x="1110" y="-523.1" font-family="Verdana" font-size="8.00">+ «static» FORMAT_CHECKSTYLE : string = &quot;checkstyle&quot; {readOnly}</text>
<text text-anchor="start" x="1110" y="-510.1" font-family="Verdana" font-size="8.00">+ «static» FORMAT_GITLAB : string = &quot;gitlab&quot; {readOnly}</text>
<text text-anchor="start" x="1110" y="-497.1" font-family="Verdana" font-size="8.00">+ «static» FORMAT_INTERNAL : string = &quot;internal&quot; {readOnly}</text>
<polygon fill="none" stroke="black" points="1105,-483.5 1105,-489.5 1410,-489.5 1410,-483.5 1105,-483.5"/>
<polygon fill="none" stroke="black" points="1105,-425.5 1105,-483.5 1410,-483.5 1410,-425.5 1105,-425.5"/>
<text text-anchor="start" x="1110" y="-472.1" font-family="Verdana" font-size="8.00">+ getSupportedFormats() : array</text>
<text text-anchor="start" x="1110" y="-459.1" font-family="Verdana" font-size="8.00">+ isSupportedFormat(format : string) : bool</text>
<text text-anchor="start" x="1110" y="-446.1" font-family="Verdana" font-size="8.00">+ normalize(data, format : string, context : array) : ?ArrayObject</text>
<text text-anchor="start" x="1110" y="-433.1" font-family="Verdana" font-size="8.00"># fromInternal(data : TData, context : array, mapping : array = []) : array</text>
</g>
<!-- Bartlett\\Sarif\\Converter\\Normalizer\\RectorNormalizer&#45;&gt;Bartlett\\Sarif\\Converter\\Normalizer\\AbstractNormalizer -->
<g id="edge6" class="edge">
<title>Bartlett\\Sarif\\Converter\\Normalizer\\RectorNormalizer&#45;&gt;Bartlett\\Sarif\\Converter\\Normalizer\\AbstractNormalizer</title>
<path fill="none" stroke="black" d="M1313.9,-829.7C1303.92,-773.89 1286.71,-677.65 1273.82,-605.59"/>
<polygon fill="none" stroke="black" points="1277.24,-604.81 1272.04,-595.58 1270.35,-606.04 1277.24,-604.81"/>
</g>
<!-- Bartlett\\Sarif\\Converter\\Normalizer\\AbstractNormalizer&#45;&gt;Bartlett\\Sarif\\Contract\\NormalizerInterface -->
<g id="edge5" class="edge">
<title>Bartlett\\Sarif\\Converter\\Normalizer\\AbstractNormalizer&#45;&gt;Bartlett\\Sarif\\Contract\\NormalizerInterface</title>
<path fill="none" stroke="black" stroke-dasharray="5,2" d="M1243.69,-425.44C1232.68,-355.91 1217.09,-257.47 1205.92,-186.9"/>
<polygon fill="none" stroke="black" points="1209.32,-186.03 1204.3,-176.7 1202.41,-187.12 1209.32,-186.03"/>
</g>
</g>
</svg>
