<?xml version="1.0" encoding="UTF-8" standalone="no"?>
<!DOCTYPE svg PUBLIC "-//W3C//DTD SVG 1.1//EN"
 "http://www.w3.org/Graphics/SVG/1.1/DTD/svg11.dtd">
<!-- Generated by graphviz version 2.42.4 (0)
 -->
<!-- Pages: 1 -->
<svg width="1446pt" height="943pt"
 viewBox="0.00 0.00 1446.00 943.00" xmlns="http://www.w3.org/2000/svg" xmlns:xlink="http://www.w3.org/1999/xlink">
<g id="graph0" class="graph" transform="scale(1 1) rotate(0) translate(4 939)">
<g id="clust1" class="cluster">
<title>cluster_0</title>
<polygon fill="BurlyWood" stroke="black" points="8,-219 8,-917.5 664,-917.5 664,-219 8,-219"/>
<text text-anchor="middle" x="336" y="-902.3" font-family="Times,serif" font-size="14.00">Bartlett\Sarif\Converter</text>
</g>
<g id="clust2" class="cluster">
<title>cluster_1</title>
<polygon fill="LightSkyBlue" stroke="black" points="256,-8 256,-211 1374,-211 1374,-8 256,-8"/>
<text text-anchor="middle" x="815" y="-195.8" font-family="Times,serif" font-size="14.00">Bartlett\Sarif\Contract</text>
</g>
<g id="clust3" class="cluster">
<title>cluster_2</title>
<polygon fill="Bisque" stroke="black" points="672,-414 672,-911 1014,-911 1014,-414 672,-414"/>
<text text-anchor="middle" x="843" y="-895.8" font-family="Times,serif" font-size="14.00">Bartlett\Sarif\Converter\Source</text>
</g>
<g id="clust4" class="cluster">
<title>cluster_3</title>
<polygon fill="Bisque" stroke="black" points="1022,-411 1022,-927 1430,-927 1430,-411 1022,-411"/>
<text text-anchor="middle" x="1226" y="-911.8" font-family="Times,serif" font-size="14.00">Bartlett\Sarif\Converter\Normalizer</text>
</g>
<!-- Bartlett\\Sarif\\Converter\\PhpStanConverter -->
<g id="node1" class="node">
<title>Bartlett\\Sarif\\Converter\\PhpStanConverter</title>
<polygon fill="#fefece" stroke="transparent" points="453,-886.5 219,-886.5 219,-826.5 453,-826.5 453,-886.5"/>
<polygon fill="#eeeeee" stroke="transparent" points="219,-864.5 219,-886.5 453,-886.5 453,-864.5 219,-864.5"/>
<polygon fill="none" stroke="black" points="219,-864.5 219,-886.5 453,-886.5 453,-864.5 219,-864.5"/>
<text text-anchor="start" x="294" y="-870.1" font-family="Verdana" font-weight="bold" font-size="8.00">PhpStanConverter</text>
<polygon fill="none" stroke="black" points="219,-858.5 219,-864.5 453,-864.5 453,-858.5 219,-858.5"/>
<polygon fill="none" stroke="black" points="219,-826.5 219,-858.5 453,-858.5 453,-826.5 219,-826.5"/>
<text text-anchor="start" x="224" y="-847.1" font-family="Verdana" font-size="8.00">+ configure(options : array = []) : void</text>
<text text-anchor="start" x="224" y="-834.1" font-family="Verdana" font-size="8.00">+ toolDriver() : Bartlett\Sarif\Definition\ToolComponent</text>
</g>
<!-- Bartlett\\Sarif\\Converter\\AbstractConverter -->
<g id="node2" class="node">
<title>Bartlett\\Sarif\\Converter\\AbstractConverter</title>
<polygon fill="#fefece" stroke="transparent" points="655.5,-781 16.5,-781 16.5,-227 655.5,-227 655.5,-781"/>
<polygon fill="#eeeeee" stroke="transparent" points="17,-759 17,-781 656,-781 656,-759 17,-759"/>
<polygon fill="none" stroke="black" points="17,-759 17,-781 656,-781 656,-759 17,-759"/>
<text text-anchor="start" x="312.5" y="-772.6" font-family="Verdana" font-weight="bold" font-size="8.00">«abstract»</text>
<text text-anchor="start" x="295.5" y="-764.6" font-family="Verdana" font-weight="bold" font-size="8.00">AbstractConverter</text>
<polygon fill="none" stroke="black" points="17,-519 17,-759 656,-759 656,-519 17,-519"/>
<text text-anchor="start" x="22" y="-747.6" font-family="Verdana" font-size="8.00"># toolName</text>
<text text-anchor="start" x="22" y="-734.6" font-family="Verdana" font-size="8.00"># toolFullName</text>
<text text-anchor="start" x="22" y="-721.6" font-family="Verdana" font-size="8.00"># toolShortDescription</text>
<text text-anchor="start" x="22" y="-708.6" font-family="Verdana" font-size="8.00"># toolFullDescription</text>
<text text-anchor="start" x="22" y="-695.6" font-family="Verdana" font-size="8.00"># toolInformationUri</text>
<text text-anchor="start" x="22" y="-682.6" font-family="Verdana" font-size="8.00"># toolComposerPackage</text>
<text text-anchor="start" x="22" y="-669.6" font-family="Verdana" font-size="8.00"># toolVersion</text>
<text text-anchor="start" x="22" y="-656.6" font-family="Verdana" font-size="8.00"># toolSemanticVersion</text>
<text text-anchor="start" x="22" y="-643.6" font-family="Verdana" font-size="8.00"># converterComposerPackage</text>
<text text-anchor="start" x="22" y="-630.6" font-family="Verdana" font-size="8.00"># results : mixed = []</text>
<text text-anchor="start" x="22" y="-617.6" font-family="Verdana" font-size="8.00"># errors : mixed = []</text>
<text text-anchor="start" x="22" y="-604.6" font-family="Verdana" font-size="8.00"># serializer</text>
<text text-anchor="start" x="22" y="-591.6" font-family="Verdana" font-size="8.00"># startTime</text>
<text text-anchor="start" x="22" y="-578.6" font-family="Verdana" font-size="8.00"># endTime</text>
<text text-anchor="start" x="22" y="-565.6" font-family="Verdana" font-size="8.00"># includeCodeSnippets</text>
<text text-anchor="start" x="22" y="-552.6" font-family="Verdana" font-size="8.00"># includeContextRegion</text>
<text text-anchor="start" x="22" y="-539.6" font-family="Verdana" font-size="8.00"># defaultResultLevelIfEmpty</text>
<text text-anchor="start" x="22" y="-526.6" font-family="Verdana" font-size="8.00"># projectDirectory</text>
<polygon fill="none" stroke="black" points="17,-227 17,-519 656,-519 656,-227 17,-227"/>
<text text-anchor="start" x="22" y="-507.6" font-family="Verdana" font-size="8.00">+ __construct(options : array = [], factory : Bartlett\Sarif\Factory\SerializerFactory = «unknown»)</text>
<text text-anchor="start" x="22" y="-494.6" font-family="Verdana" font-size="8.00">+ getName() : string</text>
<text text-anchor="start" x="22" y="-481.6" font-family="Verdana" font-size="8.00">+ configure(options : array) : void</text>
<text text-anchor="start" x="22" y="-468.6" font-family="Verdana" font-size="8.00">+ toolDriver() : Bartlett\Sarif\Definition\ToolComponent</text>
<text text-anchor="start" x="22" y="-455.6" font-family="Verdana" font-size="8.00">+ toolExtensions() : array</text>
<text text-anchor="start" x="22" y="-442.6" font-family="Verdana" font-size="8.00">+ rules(defined : iterable) : array</text>
<text text-anchor="start" x="22" y="-429.6" font-family="Verdana" font-size="8.00">+ results(normalized : iterable) : void</text>
<text text-anchor="start" x="22" y="-416.6" font-family="Verdana" font-size="8.00">+ sarifLog(runs : array = [], version : string = &#39;2\.1\.0&#39;) : ?string</text>
<text text-anchor="start" x="22" y="-403.6" font-family="Verdana" font-size="8.00">+ invocations(properties : Bartlett\Sarif\Definition\PropertyBag = «unknown») : array</text>
<text text-anchor="start" x="22" y="-390.6" font-family="Verdana" font-size="8.00">+ versionControlDetails() : array</text>
<text text-anchor="start" x="22" y="-377.6" font-family="Verdana" font-size="8.00">+ automationDetails() : Bartlett\Sarif\Definition\RunAutomationDetails</text>
<text text-anchor="start" x="22" y="-364.6" font-family="Verdana" font-size="8.00">+ run(invocations : iterable, rules : iterable) : Bartlett\Sarif\Definition\Run</text>
<text text-anchor="start" x="22" y="-351.6" font-family="Verdana" font-size="8.00"># originalUriBaseIdentifiers() : array</text>
<text text-anchor="start" x="22" y="-338.6" font-family="Verdana" font-size="8.00"># getToolVersion(package : string) : string</text>
<text text-anchor="start" x="22" y="-325.6" font-family="Verdana" font-size="8.00"># pathToArtifactLocation(path : string) : string</text>
<text text-anchor="start" x="22" y="-312.6" font-family="Verdana" font-size="8.00"># pathToUri(path : string) : string</text>
<text text-anchor="start" x="22" y="-299.6" font-family="Verdana" font-size="8.00"># getCodeSnippet(filePath : string, lineNumber : int, linesBefore : int, linesAfter : int) : ?string</text>
<text text-anchor="start" x="22" y="-286.6" font-family="Verdana" font-size="8.00"># getSnippetRegion(filePath : string, lineNumber : int, column : int = «unknown», linesBefore : int = 2, linesAfter : int = 2) : Bartlett\Sarif\Definition\Region</text>
<text text-anchor="start" x="22" y="-273.6" font-family="Verdana" font-size="8.00"># getErrors() : Iterator</text>
<text text-anchor="start" x="22" y="-260.6" font-family="Verdana" font-size="8.00"># multiformatMessageString(def : mixed) : Bartlett\Sarif\Definition\MultiformatMessageString</text>
<text text-anchor="start" x="22" y="-247.6" font-family="Verdana" font-size="8.00"># message(def : mixed) : Bartlett\Sarif\Definition\Message</text>
<text text-anchor="start" x="22" y="-234.6" font-family="Verdana" font-size="8.00">– multiformatMessage(def, message) : object</text>
</g>
<!-- Bartlett\\Sarif\\Converter\\PhpStanConverter&#45;&gt;Bartlett\\Sarif\\Converter\\AbstractConverter -->
<g id="edge2" class="edge">
<title>Bartlett\\Sarif\\Converter\\PhpStanConverter&#45;&gt;Bartlett\\Sarif\\Converter\\AbstractConverter</title>
<path fill="none" stroke="black" d="M336,-826.22C336,-816.52 336,-804.79 336,-791.63"/>
<polygon fill="none" stroke="black" points="339.5,-791.3 336,-781.3 332.5,-791.3 339.5,-791.3"/>
</g>
<!-- Bartlett\\Sarif\\Contract\\ConverterInterface -->
<g id="node3" class="node">
<title>Bartlett\\Sarif\\Contract\\ConverterInterface</title>
<polygon fill="#fefece" stroke="transparent" points="668,-180 264,-180 264,-16 668,-16 668,-180"/>
<polygon fill="#eeeeee" stroke="transparent" points="264,-158 264,-180 668,-180 668,-158 264,-158"/>
<polygon fill="none" stroke="black" points="264,-158 264,-180 668,-180 668,-158 264,-158"/>
<text text-anchor="start" x="440" y="-171.6" font-family="Verdana" font-weight="bold" font-size="8.00">«interface»</text>
<text text-anchor="start" x="423.5" y="-163.6" font-family="Verdana" font-weight="bold" font-size="8.00">ConverterInterface</text>
<polygon fill="none" stroke="black" points="264,-152 264,-158 668,-158 668,-152 264,-152"/>
<polygon fill="none" stroke="black" points="264,-16 264,-152 668,-152 668,-16 264,-16"/>
<text text-anchor="start" x="269" y="-140.6" font-family="Verdana" font-size="8.00">+ «abstract» getName() : string</text>
<text text-anchor="start" x="269" y="-127.6" font-family="Verdana" font-size="8.00">+ «abstract» toolDriver() : Bartlett\Sarif\Definition\ToolComponent</text>
<text text-anchor="start" x="269" y="-114.6" font-family="Verdana" font-size="8.00">+ «abstract» toolExtensions() : array</text>
<text text-anchor="start" x="269" y="-101.6" font-family="Verdana" font-size="8.00">+ «abstract» rules(defined : iterable) : array</text>
<text text-anchor="start" x="269" y="-88.6" font-family="Verdana" font-size="8.00">+ «abstract» results(normalized : iterable) : void</text>
<text text-anchor="start" x="269" y="-75.6" font-family="Verdana" font-size="8.00">+ «abstract» invocations(properties : Bartlett\Sarif\Definition\PropertyBag = «unknown») : array</text>
<text text-anchor="start" x="269" y="-62.6" font-family="Verdana" font-size="8.00">+ «abstract» versionControlDetails() : array</text>
<text text-anchor="start" x="269" y="-49.6" font-family="Verdana" font-size="8.00">+ «abstract» automationDetails() : Bartlett\Sarif\Definition\RunAutomationDetails</text>
<text text-anchor="start" x="269" y="-36.6" font-family="Verdana" font-size="8.00">+ «abstract» run(invocations : iterable, rules : iterable) : Bartlett\Sarif\Definition\Run</text>
<text text-anchor="start" x="269" y="-23.6" font-family="Verdana" font-size="8.00">+ «abstract» sarifLog(runs : array = [], version : string = &#39;2\.1\.0&#39;) : ?string</text>
</g>
<!-- Bartlett\\Sarif\\Converter\\AbstractConverter&#45;&gt;Bartlett\\Sarif\\Contract\\ConverterInterface -->
<g id="edge1" class="edge">
<title>Bartlett\\Sarif\\Converter\\AbstractConverter&#45;&gt;Bartlett\\Sarif\\Contract\\ConverterInterface</title>
<path fill="none" stroke="black" stroke-dasharray="5,2" d="M424.87,-226.83C429.02,-213.93 433.02,-201.51 436.78,-189.8"/>
<polygon fill="none" stroke="black" points="440.16,-190.74 439.89,-180.15 433.49,-188.6 440.16,-190.74"/>
</g>
<!-- Bartlett\\Sarif\\Contract\\SourceInterface -->
<g id="node4" class="node">
<title>Bartlett\\Sarif\\Contract\\SourceInterface</title>
<polygon fill="#fefece" stroke="transparent" points="1000,-154 686,-154 686,-42 1000,-42 1000,-154"/>
<polygon fill="#eeeeee" stroke="transparent" points="686,-132 686,-154 1000,-154 1000,-132 686,-132"/>
<polygon fill="none" stroke="black" points="686,-132 686,-154 1000,-154 1000,-132 686,-132"/>
<text text-anchor="start" x="817" y="-145.6" font-family="Verdana" font-weight="bold" font-size="8.00">«interface»</text>
<text text-anchor="start" x="807" y="-137.6" font-family="Verdana" font-weight="bold" font-size="8.00">SourceInterface</text>
<polygon fill="none" stroke="black" points="686,-126 686,-132 1000,-132 1000,-126 686,-126"/>
<polygon fill="none" stroke="black" points="686,-42 686,-126 1000,-126 1000,-42 686,-42"/>
<text text-anchor="start" x="691" y="-114.6" font-family="Verdana" font-size="8.00">+ «abstract» getName() : string</text>
<text text-anchor="start" x="691" y="-101.6" font-family="Verdana" font-size="8.00">+ «abstract» getFiles() : Iterator</text>
<text text-anchor="start" x="691" y="-88.6" font-family="Verdana" font-size="8.00">+ «abstract» getErrors() : Iterator</text>
<text text-anchor="start" x="691" y="-75.6" font-family="Verdana" font-size="8.00">+ «abstract» getRules() : Iterator</text>
<text text-anchor="start" x="691" y="-62.6" font-family="Verdana" font-size="8.00">+ «abstract» getAttribute(name : string) : Iterator</text>
<text text-anchor="start" x="691" y="-49.6" font-family="Verdana" font-size="8.00">+ «abstract» normalize(data : mixed, format : string, context : array) : bool</text>
</g>
<!-- Bartlett\\Sarif\\Contract\\NormalizerInterface -->
<g id="node5" class="node">
<title>Bartlett\\Sarif\\Contract\\NormalizerInterface</title>
<polygon fill="#fefece" stroke="transparent" points="1366,-176.5 1018,-176.5 1018,-19.5 1366,-19.5 1366,-176.5"/>
<polygon fill="#eeeeee" stroke="transparent" points="1018,-154 1018,-176 1366,-176 1366,-154 1018,-154"/>
<polygon fill="none" stroke="black" points="1018,-154 1018,-176 1366,-176 1366,-154 1018,-154"/>
<text text-anchor="start" x="1166" y="-167.6" font-family="Verdana" font-weight="bold" font-size="8.00">«interface»</text>
<text text-anchor="start" x="1147" y="-159.6" font-family="Verdana" font-weight="bold" font-size="8.00">NormalizerInterface</text>
<polygon fill="none" stroke="black" points="1018,-70 1018,-154 1366,-154 1366,-70 1018,-70"/>
<text text-anchor="start" x="1023" y="-142.6" font-family="Verdana" font-size="8.00">+ «static» FORMAT_SARIF : string = &quot;sarif&quot; {readOnly}</text>
<text text-anchor="start" x="1023" y="-129.6" font-family="Verdana" font-size="8.00">+ «static» FORMAT_JSON : string = &quot;json&quot; {readOnly}</text>
<text text-anchor="start" x="1023" y="-116.6" font-family="Verdana" font-size="8.00">+ «static» FORMAT_XML : string = &quot;xml&quot; {readOnly}</text>
<text text-anchor="start" x="1023" y="-103.6" font-family="Verdana" font-size="8.00">+ «static» FORMAT_CHECKSTYLE : string = &quot;checkstyle&quot; {readOnly}</text>
<text text-anchor="start" x="1023" y="-90.6" font-family="Verdana" font-size="8.00">+ «static» FORMAT_GITLAB : string = &quot;gitlab&quot; {readOnly}</text>
<text text-anchor="start" x="1023" y="-77.6" font-family="Verdana" font-size="8.00">+ «static» FORMAT_INTERNAL : string = &quot;internal&quot; {readOnly}</text>
<polygon fill="none" stroke="black" points="1018,-64 1018,-70 1366,-70 1366,-64 1018,-64"/>
<polygon fill="none" stroke="black" points="1018,-19 1018,-64 1366,-64 1366,-19 1018,-19"/>
<text text-anchor="start" x="1023" y="-52.6" font-family="Verdana" font-size="8.00">+ «abstract» getSupportedFormats() : array</text>
<text text-anchor="start" x="1023" y="-39.6" font-family="Verdana" font-size="8.00">+ «abstract» isSupportedFormat(format : string) : bool</text>
<text text-anchor="start" x="1023" y="-26.6" font-family="Verdana" font-size="8.00">+ «abstract» normalize(data : mixed, format : string, context : array) : ?ArrayObject</text>
</g>
<!-- Bartlett\\Sarif\\Converter\\Source\\PhpStanSource -->
<g id="node6" class="node">
<title>Bartlett\\Sarif\\Converter\\Source\\PhpStanSource</title>
<polygon fill="#fefece" stroke="transparent" points="931,-880 755,-880 755,-833 931,-833 931,-880"/>
<polygon fill="#eeeeee" stroke="transparent" points="755,-857.5 755,-879.5 931,-879.5 931,-857.5 755,-857.5"/>
<polygon fill="none" stroke="black" points="755,-857.5 755,-879.5 931,-879.5 931,-857.5 755,-857.5"/>
<text text-anchor="start" x="808" y="-863.1" font-family="Verdana" font-weight="bold" font-size="8.00">PhpStanSource</text>
<polygon fill="none" stroke="black" points="755,-851.5 755,-857.5 931,-857.5 931,-851.5 755,-851.5"/>
<polygon fill="none" stroke="black" points="755,-832.5 755,-851.5 931,-851.5 931,-832.5 755,-832.5"/>
<text text-anchor="start" x="760" y="-840.1" font-family="Verdana" font-size="8.00">+ __construct(normalizers : iterable = [])</text>
</g>
<!-- Bartlett\\Sarif\\Converter\\Source\\AbstractSource -->
<g id="node7" class="node">
<title>Bartlett\\Sarif\\Converter\\Source\\AbstractSource</title>
<polygon fill="#fefece" stroke="transparent" points="1006,-586 680,-586 680,-422 1006,-422 1006,-586"/>
<polygon fill="#eeeeee" stroke="transparent" points="680,-564 680,-586 1006,-586 1006,-564 680,-564"/>
<polygon fill="none" stroke="black" points="680,-564 680,-586 1006,-586 1006,-564 680,-564"/>
<text text-anchor="start" x="819" y="-577.6" font-family="Verdana" font-weight="bold" font-size="8.00">«abstract»</text>
<text text-anchor="start" x="808.5" y="-569.6" font-family="Verdana" font-weight="bold" font-size="8.00">AbstractSource</text>
<polygon fill="none" stroke="black" points="680,-532 680,-564 1006,-564 1006,-532 680,-532"/>
<text text-anchor="start" x="685" y="-552.6" font-family="Verdana" font-size="8.00">– normalizers : mixed</text>
<text text-anchor="start" x="685" y="-539.6" font-family="Verdana" font-size="8.00">– normalized</text>
<polygon fill="none" stroke="black" points="680,-422 680,-532 1006,-532 1006,-422 680,-422"/>
<text text-anchor="start" x="685" y="-520.6" font-family="Verdana" font-size="8.00">+ __construct(normalizers : iterable = [])</text>
<text text-anchor="start" x="685" y="-507.6" font-family="Verdana" font-size="8.00">+ getName() : string</text>
<text text-anchor="start" x="685" y="-494.6" font-family="Verdana" font-size="8.00">+ getFiles() : Iterator</text>
<text text-anchor="start" x="685" y="-481.6" font-family="Verdana" font-size="8.00">+ getErrors() : Iterator</text>
<text text-anchor="start" x="685" y="-468.6" font-family="Verdana" font-size="8.00">+ getRules() : Iterator</text>
<text text-anchor="start" x="685" y="-455.6" font-family="Verdana" font-size="8.00">+ getAttribute(name : string) : Iterator</text>
<text text-anchor="start" x="685" y="-442.6" font-family="Verdana" font-size="8.00">+ normalize(data : mixed, format : string, context : array) : bool</text>
<text text-anchor="start" x="685" y="-429.6" font-family="Verdana" font-size="8.00"># getNormalizer(format : string) : ?Bartlett\Sarif\Contract\NormalizerInterface</text>
</g>
<!-- Bartlett\\Sarif\\Converter\\Source\\PhpStanSource&#45;&gt;Bartlett\\Sarif\\Converter\\Source\\AbstractSource -->
<g id="edge4" class="edge">
<title>Bartlett\\Sarif\\Converter\\Source\\PhpStanSource&#45;&gt;Bartlett\\Sarif\\Converter\\Source\\AbstractSource</title>
<path fill="none" stroke="black" d="M843,-832.77C843,-785.86 843,-676.02 843,-596.4"/>
<polygon fill="none" stroke="black" points="846.5,-596.36 843,-586.36 839.5,-596.36 846.5,-596.36"/>
</g>
<!-- Bartlett\\Sarif\\Converter\\Source\\AbstractSource&#45;&gt;Bartlett\\Sarif\\Contract\\SourceInterface -->
<g id="edge3" class="edge">
<title>Bartlett\\Sarif\\Converter\\Source\\AbstractSource&#45;&gt;Bartlett\\Sarif\\Contract\\SourceInterface</title>
<path fill="none" stroke="black" stroke-dasharray="5,2" d="M843,-421.73C843,-345.96 843,-234.4 843,-164.27"/>
<polygon fill="none" stroke="black" points="846.5,-164.23 843,-154.23 839.5,-164.23 846.5,-164.23"/>
</g>
<!-- Bartlett\\Sarif\\Converter\\Normalizer\\PhpStanNormalizer -->
<g id="node8" class="node">
<title>Bartlett\\Sarif\\Converter\\Normalizer\\PhpStanNormalizer</title>
<polygon fill="#fefece" stroke="transparent" points="1422,-896 1030,-896 1030,-817 1422,-817 1422,-896"/>
<polygon fill="#eeeeee" stroke="transparent" points="1030,-873.5 1030,-895.5 1422,-895.5 1422,-873.5 1030,-873.5"/>
<polygon fill="none" stroke="black" points="1030,-873.5 1030,-895.5 1422,-895.5 1422,-873.5 1030,-873.5"/>
<text text-anchor="start" x="1182" y="-879.1" font-family="Verdana" font-weight="bold" font-size="8.00">PhpStanNormalizer</text>
<polygon fill="none" stroke="black" points="1030,-854.5 1030,-873.5 1422,-873.5 1422,-854.5 1030,-854.5"/>
<text text-anchor="start" x="1035" y="-862.1" font-family="Verdana" font-size="8.00">+ «static» URI_PATTERN : string = &quot;https\:\/\/phpstan\.org\/error\&#45;identifiers\/\%s&quot; {readOnly}</text>
<polygon fill="none" stroke="black" points="1030,-848.5 1030,-854.5 1422,-854.5 1422,-848.5 1030,-848.5"/>
<polygon fill="none" stroke="black" points="1030,-816.5 1030,-848.5 1422,-848.5 1422,-816.5 1030,-816.5"/>
<text text-anchor="start" x="1035" y="-837.1" font-family="Verdana" font-size="8.00">+ normalize(data, format : string, context : array) : ?ArrayObject</text>
<text text-anchor="start" x="1035" y="-824.1" font-family="Verdana" font-size="8.00"># fromInternal(data, context : array, mapping : array = []) : array</text>
</g>
<!-- Bartlett\\Sarif\\Converter\\Normalizer\\AbstractNormalizer -->
<g id="node9" class="node">
<title>Bartlett\\Sarif\\Converter\\Normalizer\\AbstractNormalizer</title>
<polygon fill="#fefece" stroke="transparent" points="1361.5,-589 1056.5,-589 1056.5,-419 1361.5,-419 1361.5,-589"/>
<polygon fill="#eeeeee" stroke="transparent" points="1057,-567 1057,-589 1362,-589 1362,-567 1057,-567"/>
<polygon fill="none" stroke="black" points="1057,-567 1057,-589 1362,-589 1362,-567 1057,-567"/>
<text text-anchor="start" x="1185.5" y="-580.6" font-family="Verdana" font-weight="bold" font-size="8.00">«abstract»</text>
<text text-anchor="start" x="1166" y="-572.6" font-family="Verdana" font-weight="bold" font-size="8.00">AbstractNormalizer</text>
<polygon fill="none" stroke="black" points="1057,-483 1057,-567 1362,-567 1362,-483 1057,-483"/>
<text text-anchor="start" x="1062" y="-555.6" font-family="Verdana" font-size="8.00">+ «static» FORMAT_SARIF : string = &quot;sarif&quot; {readOnly}</text>
<text text-anchor="start" x="1062" y="-542.6" font-family="Verdana" font-size="8.00">+ «static» FORMAT_JSON : string = &quot;json&quot; {readOnly}</text>
<text text-anchor="start" x="1062" y="-529.6" font-family="Verdana" font-size="8.00">+ «static» FORMAT_XML : string = &quot;xml&quot; {readOnly}</text>
<text text-anchor="start" x="1062" y="-516.6" font-family="Verdana" font-size="8.00">+ «static» FORMAT_CHECKSTYLE : string = &quot;checkstyle&quot; {readOnly}</text>
<text text-anchor="start" x="1062" y="-503.6" font-family="Verdana" font-size="8.00">+ «static» FORMAT_GITLAB : string = &quot;gitlab&quot; {readOnly}</text>
<text text-anchor="start" x="1062" y="-490.6" font-family="Verdana" font-size="8.00">+ «static» FORMAT_INTERNAL : string = &quot;internal&quot; {readOnly}</text>
<polygon fill="none" stroke="black" points="1057,-477 1057,-483 1362,-483 1362,-477 1057,-477"/>
<polygon fill="none" stroke="black" points="1057,-419 1057,-477 1362,-477 1362,-419 1057,-419"/>
<text text-anchor="start" x="1062" y="-465.6" font-family="Verdana" font-size="8.00">+ getSupportedFormats() : array</text>
<text text-anchor="start" x="1062" y="-452.6" font-family="Verdana" font-size="8.00">+ isSupportedFormat(format : string) : bool</text>
<text text-anchor="start" x="1062" y="-439.6" font-family="Verdana" font-size="8.00">+ normalize(data, format : string, context : array) : ?ArrayObject</text>
<text text-anchor="start" x="1062" y="-426.6" font-family="Verdana" font-size="8.00"># fromInternal(data : TData, context : array, mapping : array = []) : array</text>
</g>
<!-- Bartlett\\Sarif\\Converter\\Normalizer\\PhpStanNormalizer&#45;&gt;Bartlett\\Sarif\\Converter\\Normalizer\\AbstractNormalizer -->
<g id="edge6" class="edge">
<title>Bartlett\\Sarif\\Converter\\Normalizer\\PhpStanNormalizer&#45;&gt;Bartlett\\Sarif\\Converter\\Normalizer\\AbstractNormalizer</title>
<path fill="none" stroke="black" d="M1224.13,-816.99C1221.61,-765.04 1217.04,-670.8 1213.58,-599.45"/>
<polygon fill="none" stroke="black" points="1217.06,-598.91 1213.08,-589.09 1210.07,-599.25 1217.06,-598.91"/>
</g>
<!-- Bartlett\\Sarif\\Converter\\Normalizer\\AbstractNormalizer&#45;&gt;Bartlett\\Sarif\\Contract\\NormalizerInterface -->
<g id="edge5" class="edge">
<title>Bartlett\\Sarif\\Converter\\Normalizer\\AbstractNormalizer&#45;&gt;Bartlett\\Sarif\\Contract\\NormalizerInterface</title>
<path fill="none" stroke="black" stroke-dasharray="5,2" d="M1205.46,-418.8C1202.6,-350.94 1198.6,-255.82 1195.7,-186.98"/>
<polygon fill="none" stroke="black" points="1199.18,-186.44 1195.26,-176.59 1192.19,-186.73 1199.18,-186.44"/>
</g>
</g>
</svg>
