<?xml version="1.0" encoding="UTF-8" standalone="no"?>
<!DOCTYPE svg PUBLIC "-//W3C//DTD SVG 1.1//EN"
 "http://www.w3.org/Graphics/SVG/1.1/DTD/svg11.dtd">
<!-- Generated by graphviz version 2.43.0 (0)
 -->
<!-- Title: %3 Pages: 1 -->
<svg width="1478pt" height="930pt"
 viewBox="0.00 0.00 1478.00 930.00" xmlns="http://www.w3.org/2000/svg" xmlns:xlink="http://www.w3.org/1999/xlink">
<g id="graph0" class="graph" transform="scale(1 1) rotate(0) translate(4 926)">
<title>%3</title>
<g id="clust1" class="cluster">
<title>cluster_0</title>
<polygon fill="BurlyWood" stroke="black" points="8,-206 8,-846 572,-846 572,-206 8,-206"/>
<text text-anchor="middle" x="290" y="-830.8" font-family="Times,serif" font-size="14.00">Bartlett\Sarif\Converter</text>
</g>
<g id="clust2" class="cluster">
<title>cluster_1</title>
<polygon fill="LightSkyBlue" stroke="black" points="368,-8 368,-198 1342,-198 1342,-8 368,-8"/>
<text text-anchor="middle" x="855" y="-182.8" font-family="Times,serif" font-size="14.00">Bartlett\Sarif\Contract</text>
</g>
<g id="clust3" class="cluster">
<title>cluster_2</title>
<polygon fill="Bisque" stroke="black" points="580,-349 580,-914 1172,-914 1172,-349 580,-349"/>
<text text-anchor="middle" x="876" y="-898.8" font-family="Times,serif" font-size="14.00">Bartlett\Sarif\Converter\Source</text>
</g>
<g id="clust4" class="cluster">
<title>cluster_3</title>
<polygon fill="Bisque" stroke="black" points="1180,-359 1180,-840.5 1462,-840.5 1462,-359 1180,-359"/>
<text text-anchor="middle" x="1321" y="-825.3" font-family="Times,serif" font-size="14.00">Bartlett\Sarif\Converter\Normalizer</text>
</g>
<!-- Bartlett\\Sarif\\Converter\\EcsConverter -->
<g id="node1" class="node">
<title>Bartlett\\Sarif\\Converter\\EcsConverter</title>
<polygon fill="#fefece" stroke="transparent" points="360.5,-815 219.5,-815 219.5,-768 360.5,-768 360.5,-815"/>
<polygon fill="#eeeeee" stroke="transparent" points="220,-792.5 220,-814.5 361,-814.5 361,-792.5 220,-792.5"/>
<polygon fill="none" stroke="black" points="220,-792.5 220,-814.5 361,-814.5 361,-792.5 220,-792.5"/>
<text text-anchor="start" x="264" y="-798.1" font-family="Verdana" font-weight="bold" font-size="8.00">EcsConverter</text>
<polygon fill="none" stroke="black" points="220,-786.5 220,-792.5 361,-792.5 361,-786.5 220,-786.5"/>
<polygon fill="none" stroke="black" points="220,-767.5 220,-786.5 361,-786.5 361,-767.5 220,-767.5"/>
<text text-anchor="start" x="225" y="-775.1" font-family="Verdana" font-size="8.00">+ configure(options : array = []) : void</text>
</g>
<!-- Bartlett\\Sarif\\Converter\\AbstractConverter -->
<g id="node2" class="node">
<title>Bartlett\\Sarif\\Converter\\AbstractConverter</title>
<polygon fill="#fefece" stroke="transparent" points="564,-664 16,-664 16,-214 564,-214 564,-664"/>
<polygon fill="#eeeeee" stroke="transparent" points="16,-642 16,-664 564,-664 564,-642 16,-642"/>
<polygon fill="none" stroke="black" points="16,-642 16,-664 564,-664 564,-642 16,-642"/>
<text text-anchor="start" x="269" y="-655.6" font-family="Verdana" font-weight="bold" font-size="8.00">«abstract»</text>
<text text-anchor="start" x="253.5" y="-647.6" font-family="Verdana" font-weight="bold" font-size="8.00">AbstractConverter</text>
<polygon fill="none" stroke="black" points="16,-441 16,-642 564,-642 564,-441 16,-441"/>
<text text-anchor="start" x="21" y="-630.6" font-family="Verdana" font-size="8.00"># toolName</text>
<text text-anchor="start" x="21" y="-617.6" font-family="Verdana" font-size="8.00"># toolFullName</text>
<text text-anchor="start" x="21" y="-604.6" font-family="Verdana" font-size="8.00"># toolShortDescription</text>
<text text-anchor="start" x="21" y="-591.6" font-family="Verdana" font-size="8.00"># toolFullDescription</text>
<text text-anchor="start" x="21" y="-578.6" font-family="Verdana" font-size="8.00"># toolInformationUri</text>
<text text-anchor="start" x="21" y="-565.6" font-family="Verdana" font-size="8.00"># toolComposerPackage</text>
<text text-anchor="start" x="21" y="-552.6" font-family="Verdana" font-size="8.00"># toolSemanticVersion</text>
<text text-anchor="start" x="21" y="-539.6" font-family="Verdana" font-size="8.00"># converterComposerPackage</text>
<text text-anchor="start" x="21" y="-526.6" font-family="Verdana" font-size="8.00"># results : mixed = []</text>
<text text-anchor="start" x="21" y="-513.6" font-family="Verdana" font-size="8.00"># errors : mixed = []</text>
<text text-anchor="start" x="21" y="-500.6" font-family="Verdana" font-size="8.00"># serializer</text>
<text text-anchor="start" x="21" y="-487.6" font-family="Verdana" font-size="8.00"># startTime</text>
<text text-anchor="start" x="21" y="-474.6" font-family="Verdana" font-size="8.00"># endTime</text>
<text text-anchor="start" x="21" y="-461.6" font-family="Verdana" font-size="8.00"># includeCodeSnippets</text>
<text text-anchor="start" x="21" y="-448.6" font-family="Verdana" font-size="8.00"># includeContextRegion</text>
<polygon fill="none" stroke="black" points="16,-214 16,-441 564,-441 564,-214 16,-214"/>
<text text-anchor="start" x="21" y="-429.6" font-family="Verdana" font-size="8.00">+ __construct(options : array = [], factory : Bartlett\Sarif\Factory\SerializerFactory = «unknown»)</text>
<text text-anchor="start" x="21" y="-416.6" font-family="Verdana" font-size="8.00">+ getName() : string</text>
<text text-anchor="start" x="21" y="-403.6" font-family="Verdana" font-size="8.00">+ configure(options : array) : void</text>
<text text-anchor="start" x="21" y="-390.6" font-family="Verdana" font-size="8.00">+ toolDriver() : Bartlett\Sarif\Definition\ToolComponent</text>
<text text-anchor="start" x="21" y="-377.6" font-family="Verdana" font-size="8.00">+ toolExtensions() : array</text>
<text text-anchor="start" x="21" y="-364.6" font-family="Verdana" font-size="8.00">+ rules(defined : iterable) : array</text>
<text text-anchor="start" x="21" y="-351.6" font-family="Verdana" font-size="8.00">+ results(normalized : iterable) : void</text>
<text text-anchor="start" x="21" y="-338.6" font-family="Verdana" font-size="8.00">+ sarifLog(runs : array = [], version : string = &#39;2\.1\.0&#39;) : ?string</text>
<text text-anchor="start" x="21" y="-325.6" font-family="Verdana" font-size="8.00">+ invocations(properties : Bartlett\Sarif\Definition\PropertyBag = «unknown») : array</text>
<text text-anchor="start" x="21" y="-312.6" font-family="Verdana" font-size="8.00">+ automationDetails() : Bartlett\Sarif\Definition\RunAutomationDetails</text>
<text text-anchor="start" x="21" y="-299.6" font-family="Verdana" font-size="8.00">+ run(invocations : iterable, rules : iterable) : Bartlett\Sarif\Definition\Run</text>
<text text-anchor="start" x="21" y="-286.6" font-family="Verdana" font-size="8.00"># getToolVersion(package : string) : string</text>
<text text-anchor="start" x="21" y="-273.6" font-family="Verdana" font-size="8.00"># pathToArtifactLocation(path : string) : string</text>
<text text-anchor="start" x="21" y="-260.6" font-family="Verdana" font-size="8.00"># pathToUri(path : string) : string</text>
<text text-anchor="start" x="21" y="-247.6" font-family="Verdana" font-size="8.00"># getCodeSnippet(filePath : string, lineNumber : int, linesBefore : int, linesAfter : int) : ?string</text>
<text text-anchor="start" x="21" y="-234.6" font-family="Verdana" font-size="8.00"># getSnippetRegion(filePath : string, lineNumber : int, column : int = «unknown», linesBefore : int = 2, linesAfter : int = 2) : Bartlett\Sarif\Definition\Region</text>
<text text-anchor="start" x="21" y="-221.6" font-family="Verdana" font-size="8.00"># getErrors() : Iterator</text>
</g>
<!-- Bartlett\\Sarif\\Converter\\EcsConverter&#45;&gt;Bartlett\\Sarif\\Converter\\AbstractConverter -->
<g id="edge2" class="edge">
<title>Bartlett\\Sarif\\Converter\\EcsConverter&#45;&gt;Bartlett\\Sarif\\Converter\\AbstractConverter</title>
<path fill="none" stroke="black" d="M290,-767.77C290,-746.61 290,-712.63 290,-674.41"/>
<polygon fill="none" stroke="black" points="293.5,-674.06 290,-664.06 286.5,-674.06 293.5,-674.06"/>
</g>
<!-- Bartlett\\Sarif\\Contract\\ConverterInterface -->
<g id="node3" class="node">
<title>Bartlett\\Sarif\\Contract\\ConverterInterface</title>
<polygon fill="#fefece" stroke="transparent" points="722,-167 376,-167 376,-16 722,-16 722,-167"/>
<polygon fill="#eeeeee" stroke="transparent" points="376,-144.5 376,-166.5 722,-166.5 722,-144.5 376,-144.5"/>
<polygon fill="none" stroke="black" points="376,-144.5 376,-166.5 722,-166.5 722,-144.5 376,-144.5"/>
<text text-anchor="start" x="527" y="-158.1" font-family="Verdana" font-weight="bold" font-size="8.00">«interface»</text>
<text text-anchor="start" x="512.5" y="-150.1" font-family="Verdana" font-weight="bold" font-size="8.00">ConverterInterface</text>
<polygon fill="none" stroke="black" points="376,-138.5 376,-144.5 722,-144.5 722,-138.5 376,-138.5"/>
<polygon fill="none" stroke="black" points="376,-15.5 376,-138.5 722,-138.5 722,-15.5 376,-15.5"/>
<text text-anchor="start" x="381" y="-127.1" font-family="Verdana" font-size="8.00">+ «abstract» getName() : string</text>
<text text-anchor="start" x="381" y="-114.1" font-family="Verdana" font-size="8.00">+ «abstract» toolDriver() : Bartlett\Sarif\Definition\ToolComponent</text>
<text text-anchor="start" x="381" y="-101.1" font-family="Verdana" font-size="8.00">+ «abstract» toolExtensions() : array</text>
<text text-anchor="start" x="381" y="-88.1" font-family="Verdana" font-size="8.00">+ «abstract» rules(defined : iterable) : array</text>
<text text-anchor="start" x="381" y="-75.1" font-family="Verdana" font-size="8.00">+ «abstract» results(normalized : iterable) : void</text>
<text text-anchor="start" x="381" y="-62.1" font-family="Verdana" font-size="8.00">+ «abstract» invocations(properties : Bartlett\Sarif\Definition\PropertyBag = «unknown») : array</text>
<text text-anchor="start" x="381" y="-49.1" font-family="Verdana" font-size="8.00">+ «abstract» automationDetails() : Bartlett\Sarif\Definition\RunAutomationDetails</text>
<text text-anchor="start" x="381" y="-36.1" font-family="Verdana" font-size="8.00">+ «abstract» run(invocations : iterable, rules : iterable) : Bartlett\Sarif\Definition\Run</text>
<text text-anchor="start" x="381" y="-23.1" font-family="Verdana" font-size="8.00">+ «abstract» sarifLog(runs : array = [], version : string = &#39;2\.1\.0&#39;) : ?string</text>
</g>
<!-- Bartlett\\Sarif\\Converter\\AbstractConverter&#45;&gt;Bartlett\\Sarif\\Contract\\ConverterInterface -->
<g id="edge1" class="edge">
<title>Bartlett\\Sarif\\Converter\\AbstractConverter&#45;&gt;Bartlett\\Sarif\\Contract\\ConverterInterface</title>
<path fill="none" stroke="black" stroke-dasharray="5,2" d="M458.05,-213.82C468.05,-200.48 477.72,-187.59 486.77,-175.51"/>
<polygon fill="none" stroke="black" points="489.75,-177.38 492.94,-167.28 484.15,-173.18 489.75,-177.38"/>
</g>
<!-- Bartlett\\Sarif\\Contract\\SourceInterface -->
<g id="node4" class="node">
<title>Bartlett\\Sarif\\Contract\\SourceInterface</title>
<polygon fill="#fefece" stroke="transparent" points="1012,-147.5 740,-147.5 740,-35.5 1012,-35.5 1012,-147.5"/>
<polygon fill="#eeeeee" stroke="transparent" points="740,-125.5 740,-147.5 1012,-147.5 1012,-125.5 740,-125.5"/>
<polygon fill="none" stroke="black" points="740,-125.5 740,-147.5 1012,-147.5 1012,-125.5 740,-125.5"/>
<text text-anchor="start" x="854" y="-139.1" font-family="Verdana" font-weight="bold" font-size="8.00">«interface»</text>
<text text-anchor="start" x="844.5" y="-131.1" font-family="Verdana" font-weight="bold" font-size="8.00">SourceInterface</text>
<polygon fill="none" stroke="black" points="740,-119.5 740,-125.5 1012,-125.5 1012,-119.5 740,-119.5"/>
<polygon fill="none" stroke="black" points="740,-35.5 740,-119.5 1012,-119.5 1012,-35.5 740,-35.5"/>
<text text-anchor="start" x="745" y="-108.1" font-family="Verdana" font-size="8.00">+ «abstract» getName() : string</text>
<text text-anchor="start" x="745" y="-95.1" font-family="Verdana" font-size="8.00">+ «abstract» getFiles() : Iterator</text>
<text text-anchor="start" x="745" y="-82.1" font-family="Verdana" font-size="8.00">+ «abstract» getErrors() : Iterator</text>
<text text-anchor="start" x="745" y="-69.1" font-family="Verdana" font-size="8.00">+ «abstract» getRules() : Iterator</text>
<text text-anchor="start" x="745" y="-56.1" font-family="Verdana" font-size="8.00">+ «abstract» getAttribute(name : string) : Iterator</text>
<text text-anchor="start" x="745" y="-43.1" font-family="Verdana" font-size="8.00">+ «abstract» normalize(data : mixed, format : string, context : array) : bool</text>
</g>
<!-- Bartlett\\Sarif\\Contract\\NormalizerInterface -->
<g id="node5" class="node">
<title>Bartlett\\Sarif\\Contract\\NormalizerInterface</title>
<polygon fill="#fefece" stroke="transparent" points="1334,-157 1030,-157 1030,-26 1334,-26 1334,-157"/>
<polygon fill="#eeeeee" stroke="transparent" points="1030,-134.5 1030,-156.5 1334,-156.5 1334,-134.5 1030,-134.5"/>
<polygon fill="none" stroke="black" points="1030,-134.5 1030,-156.5 1334,-156.5 1334,-134.5 1030,-134.5"/>
<text text-anchor="start" x="1160" y="-148.1" font-family="Verdana" font-weight="bold" font-size="8.00">«interface»</text>
<text text-anchor="start" x="1144" y="-140.1" font-family="Verdana" font-weight="bold" font-size="8.00">NormalizerInterface</text>
<polygon fill="none" stroke="black" points="1030,-63.5 1030,-134.5 1334,-134.5 1334,-63.5 1030,-63.5"/>
<text text-anchor="start" x="1035" y="-123.1" font-family="Verdana" font-size="8.00">+ «static» FORMAT_SARIF : string = &quot;sarif&quot; {readOnly}</text>
<text text-anchor="start" x="1035" y="-110.1" font-family="Verdana" font-size="8.00">+ «static» FORMAT_JSON : string = &quot;json&quot; {readOnly}</text>
<text text-anchor="start" x="1035" y="-97.1" font-family="Verdana" font-size="8.00">+ «static» FORMAT_XML : string = &quot;xml&quot; {readOnly}</text>
<text text-anchor="start" x="1035" y="-84.1" font-family="Verdana" font-size="8.00">+ «static» FORMAT_CHECKSTYLE : string = &quot;checkstyle&quot; {readOnly}</text>
<text text-anchor="start" x="1035" y="-71.1" font-family="Verdana" font-size="8.00">+ «static» FORMAT_INTERNAL : string = &quot;internal&quot; {readOnly}</text>
<polygon fill="none" stroke="black" points="1030,-57.5 1030,-63.5 1334,-63.5 1334,-57.5 1030,-57.5"/>
<polygon fill="none" stroke="black" points="1030,-25.5 1030,-57.5 1334,-57.5 1334,-25.5 1030,-25.5"/>
<text text-anchor="start" x="1035" y="-46.1" font-family="Verdana" font-size="8.00">+ «abstract» getSupportedFormats() : array</text>
<text text-anchor="start" x="1035" y="-33.1" font-family="Verdana" font-size="8.00">+ «abstract» normalize(data : mixed, format : string, context : array) : ?ArrayObject</text>
</g>
<!-- Bartlett\\Sarif\\Converter\\Source\\EcsSource -->
<g id="node6" class="node">
<title>Bartlett\\Sarif\\Converter\\Source\\EcsSource</title>
<polygon fill="#fefece" stroke="transparent" points="1163.5,-883 588.5,-883 588.5,-700 1163.5,-700 1163.5,-883"/>
<polygon fill="#eeeeee" stroke="transparent" points="589,-860.5 589,-882.5 1164,-882.5 1164,-860.5 589,-860.5"/>
<polygon fill="none" stroke="black" points="589,-860.5 589,-882.5 1164,-882.5 1164,-860.5 589,-860.5"/>
<text text-anchor="start" x="855" y="-866.1" font-family="Verdana" font-weight="bold" font-size="8.00">EcsSource</text>
<polygon fill="none" stroke="black" points="589,-802.5 589,-860.5 1164,-860.5 1164,-802.5 589,-802.5"/>
<text text-anchor="start" x="594" y="-849.1" font-family="Verdana" font-size="8.00">+ «static» URI_PATTERN_PHPCS : string = &quot;https\:\/\/github\.com\/PHPCSStandards\/PHP_CodeSniffer\/wiki\/Customisable\&#45;Sniff\&#45;Properties\#\%s&quot; {readOnly}</text>
<text text-anchor="start" x="594" y="-836.1" font-family="Verdana" font-size="8.00">+ «static» URI_PATTERN_PHPCS_FIXER : string = &quot;https\:\/\/cs\.symfony\.com\/doc\/rules\/\%s\/\%s\.html&quot; {readOnly}</text>
<text text-anchor="start" x="594" y="-823.1" font-family="Verdana" font-size="8.00">+ «static» URI_PATTERN_SYMPLIFY : string = &quot;https\:\/\/github\.com\/symplify\/coding\&#45;standard\/blob\/main\/docs\/rules_overview\.md\#\%s&quot; {readOnly}</text>
<text text-anchor="start" x="594" y="-810.1" font-family="Verdana" font-size="8.00">+ «static» URI_PATTERN_SLEVOMAT : string = &quot;https\:\/\/github\.com\/slevomat\/coding\&#45;standard\/blob\/master\/doc\/\%s\.md\#\%s\&#45;&quot; {readOnly}</text>
<polygon fill="none" stroke="black" points="589,-796.5 589,-802.5 1164,-802.5 1164,-796.5 589,-796.5"/>
<polygon fill="none" stroke="black" points="589,-699.5 589,-796.5 1164,-796.5 1164,-699.5 589,-699.5"/>
<text text-anchor="start" x="594" y="-785.1" font-family="Verdana" font-size="8.00">+ __construct(normalizers : iterable = [])</text>
<text text-anchor="start" x="594" y="-772.1" font-family="Verdana" font-size="8.00">+ getRules() : Iterator</text>
<text text-anchor="start" x="594" y="-759.1" font-family="Verdana" font-size="8.00">– phpCodeSnifferChecker(nameParts : array) : string</text>
<text text-anchor="start" x="594" y="-746.1" font-family="Verdana" font-size="8.00">– phpCsFixerChecker(nameParts : array) : string</text>
<text text-anchor="start" x="594" y="-733.1" font-family="Verdana" font-size="8.00">– symplifyChecker(nameParts : array) : string</text>
<text text-anchor="start" x="594" y="-720.1" font-family="Verdana" font-size="8.00">– slevomatCodingStandardChecker(nameParts : array) : string</text>
<text text-anchor="start" x="594" y="-707.1" font-family="Verdana" font-size="8.00">– «static» camelCaseToUnderscore(string : string) : string</text>
</g>
<!-- Bartlett\\Sarif\\Converter\\Source\\AbstractSource -->
<g id="node7" class="node">
<title>Bartlett\\Sarif\\Converter\\Source\\AbstractSource</title>
<polygon fill="#fefece" stroke="transparent" points="1018,-521 734,-521 734,-357 1018,-357 1018,-521"/>
<polygon fill="#eeeeee" stroke="transparent" points="734,-499 734,-521 1018,-521 1018,-499 734,-499"/>
<polygon fill="none" stroke="black" points="734,-499 734,-521 1018,-521 1018,-499 734,-499"/>
<text text-anchor="start" x="855" y="-512.6" font-family="Verdana" font-weight="bold" font-size="8.00">«abstract»</text>
<text text-anchor="start" x="845" y="-504.6" font-family="Verdana" font-weight="bold" font-size="8.00">AbstractSource</text>
<polygon fill="none" stroke="black" points="734,-467 734,-499 1018,-499 1018,-467 734,-467"/>
<text text-anchor="start" x="739" y="-487.6" font-family="Verdana" font-size="8.00">– normalizers : mixed</text>
<text text-anchor="start" x="739" y="-474.6" font-family="Verdana" font-size="8.00">– normalized</text>
<polygon fill="none" stroke="black" points="734,-357 734,-467 1018,-467 1018,-357 734,-357"/>
<text text-anchor="start" x="739" y="-455.6" font-family="Verdana" font-size="8.00">+ __construct(normalizers : iterable = [])</text>
<text text-anchor="start" x="739" y="-442.6" font-family="Verdana" font-size="8.00">+ getName() : string</text>
<text text-anchor="start" x="739" y="-429.6" font-family="Verdana" font-size="8.00">+ getFiles() : Iterator</text>
<text text-anchor="start" x="739" y="-416.6" font-family="Verdana" font-size="8.00">+ getErrors() : Iterator</text>
<text text-anchor="start" x="739" y="-403.6" font-family="Verdana" font-size="8.00">+ getRules() : Iterator</text>
<text text-anchor="start" x="739" y="-390.6" font-family="Verdana" font-size="8.00">+ getAttribute(name : string) : Iterator</text>
<text text-anchor="start" x="739" y="-377.6" font-family="Verdana" font-size="8.00">+ normalize(data, format : string, context : array) : bool</text>
<text text-anchor="start" x="739" y="-364.6" font-family="Verdana" font-size="8.00"># getNormalizer(format : string) : ?Bartlett\Sarif\Contract\NormalizerInterface</text>
</g>
<!-- Bartlett\\Sarif\\Converter\\Source\\EcsSource&#45;&gt;Bartlett\\Sarif\\Converter\\Source\\AbstractSource -->
<g id="edge4" class="edge">
<title>Bartlett\\Sarif\\Converter\\Source\\EcsSource&#45;&gt;Bartlett\\Sarif\\Converter\\Source\\AbstractSource</title>
<path fill="none" stroke="black" d="M876,-699.78C876,-647.96 876,-583.18 876,-531.27"/>
<polygon fill="none" stroke="black" points="879.5,-531.07 876,-521.07 872.5,-531.07 879.5,-531.07"/>
</g>
<!-- Bartlett\\Sarif\\Converter\\Source\\AbstractSource&#45;&gt;Bartlett\\Sarif\\Contract\\SourceInterface -->
<g id="edge3" class="edge">
<title>Bartlett\\Sarif\\Converter\\Source\\AbstractSource&#45;&gt;Bartlett\\Sarif\\Contract\\SourceInterface</title>
<path fill="none" stroke="black" stroke-dasharray="5,2" d="M876,-357C876,-296.35 876,-214.45 876,-157.93"/>
<polygon fill="none" stroke="black" points="879.5,-157.68 876,-147.68 872.5,-157.68 879.5,-157.68"/>
</g>
<!-- Bartlett\\Sarif\\Converter\\Normalizer\\EcsNormalizer -->
<g id="node8" class="node">
<title>Bartlett\\Sarif\\Converter\\Normalizer\\EcsNormalizer</title>
<polygon fill="#fefece" stroke="transparent" points="1352,-809.5 1290,-809.5 1290,-773.5 1352,-773.5 1352,-809.5"/>
<polygon fill="#eeeeee" stroke="transparent" points="1290,-786.5 1290,-808.5 1352,-808.5 1352,-786.5 1290,-786.5"/>
<polygon fill="none" stroke="black" points="1290,-786.5 1290,-808.5 1352,-808.5 1352,-786.5 1290,-786.5"/>
<text text-anchor="start" x="1293" y="-792.1" font-family="Verdana" font-weight="bold" font-size="8.00">EcsNormalizer</text>
<polygon fill="none" stroke="black" points="1290,-780.5 1290,-786.5 1352,-786.5 1352,-780.5 1290,-780.5"/>
<polygon fill="none" stroke="black" points="1290,-774.5 1290,-780.5 1352,-780.5 1352,-774.5 1290,-774.5"/>
</g>
<!-- Bartlett\\Sarif\\Converter\\Normalizer\\AbstractNormalizer -->
<g id="node9" class="node">
<title>Bartlett\\Sarif\\Converter\\Normalizer\\AbstractNormalizer</title>
<polygon fill="#fefece" stroke="transparent" points="1453.5,-511 1188.5,-511 1188.5,-367 1453.5,-367 1453.5,-511"/>
<polygon fill="#eeeeee" stroke="transparent" points="1189,-489 1189,-511 1454,-511 1454,-489 1189,-489"/>
<polygon fill="none" stroke="black" points="1189,-489 1189,-511 1454,-511 1454,-489 1189,-489"/>
<text text-anchor="start" x="1300.5" y="-502.6" font-family="Verdana" font-weight="bold" font-size="8.00">«abstract»</text>
<text text-anchor="start" x="1283.5" y="-494.6" font-family="Verdana" font-weight="bold" font-size="8.00">AbstractNormalizer</text>
<polygon fill="none" stroke="black" points="1189,-418 1189,-489 1454,-489 1454,-418 1189,-418"/>
<text text-anchor="start" x="1194" y="-477.6" font-family="Verdana" font-size="8.00">+ «static» FORMAT_SARIF : string = &quot;sarif&quot; {readOnly}</text>
<text text-anchor="start" x="1194" y="-464.6" font-family="Verdana" font-size="8.00">+ «static» FORMAT_JSON : string = &quot;json&quot; {readOnly}</text>
<text text-anchor="start" x="1194" y="-451.6" font-family="Verdana" font-size="8.00">+ «static» FORMAT_XML : string = &quot;xml&quot; {readOnly}</text>
<text text-anchor="start" x="1194" y="-438.6" font-family="Verdana" font-size="8.00">+ «static» FORMAT_CHECKSTYLE : string = &quot;checkstyle&quot; {readOnly}</text>
<text text-anchor="start" x="1194" y="-425.6" font-family="Verdana" font-size="8.00">+ «static» FORMAT_INTERNAL : string = &quot;internal&quot; {readOnly}</text>
<polygon fill="none" stroke="black" points="1189,-412 1189,-418 1454,-418 1454,-412 1189,-412"/>
<polygon fill="none" stroke="black" points="1189,-367 1189,-412 1454,-412 1454,-367 1189,-367"/>
<text text-anchor="start" x="1194" y="-400.6" font-family="Verdana" font-size="8.00">+ getSupportedFormats() : array</text>
<text text-anchor="start" x="1194" y="-387.6" font-family="Verdana" font-size="8.00">+ normalize(data, format : string, context : array) : ?ArrayObject</text>
<text text-anchor="start" x="1194" y="-374.6" font-family="Verdana" font-size="8.00"># fromInternal(data : mixed, context : array, mapping : array = []) : array</text>
</g>
<!-- Bartlett\\Sarif\\Converter\\Normalizer\\EcsNormalizer&#45;&gt;Bartlett\\Sarif\\Converter\\Normalizer\\AbstractNormalizer -->
<g id="edge6" class="edge">
<title>Bartlett\\Sarif\\Converter\\Normalizer\\EcsNormalizer&#45;&gt;Bartlett\\Sarif\\Converter\\Normalizer\\AbstractNormalizer</title>
<path fill="none" stroke="black" d="M1321,-773.12C1321,-727.97 1321,-604.7 1321,-521.45"/>
<polygon fill="none" stroke="black" points="1324.5,-521.26 1321,-511.26 1317.5,-521.26 1324.5,-521.26"/>
</g>
<!-- Bartlett\\Sarif\\Converter\\Normalizer\\AbstractNormalizer&#45;&gt;Bartlett\\Sarif\\Contract\\NormalizerInterface -->
<g id="edge5" class="edge">
<title>Bartlett\\Sarif\\Converter\\Normalizer\\AbstractNormalizer&#45;&gt;Bartlett\\Sarif\\Contract\\NormalizerInterface</title>
<path fill="none" stroke="black" stroke-dasharray="5,2" d="M1292.37,-366.83C1268.83,-308.33 1235.6,-225.72 1211.76,-166.46"/>
<polygon fill="none" stroke="black" points="1214.99,-165.13 1208.01,-157.16 1208.5,-167.75 1214.99,-165.13"/>
</g>
</g>
</svg>
