<?xml version="1.0" encoding="UTF-8" standalone="no"?>
<!DOCTYPE svg PUBLIC "-//W3C//DTD SVG 1.1//EN"
 "http://www.w3.org/Graphics/SVG/1.1/DTD/svg11.dtd">
<!-- Generated by graphviz version 2.43.0 (0)
 -->
<!-- Title: %3 Pages: 1 -->
<svg width="1208pt" height="846pt"
 viewBox="0.00 0.00 1208.00 846.00" xmlns="http://www.w3.org/2000/svg" xmlns:xlink="http://www.w3.org/1999/xlink">
<g id="graph0" class="graph" transform="scale(1 1) rotate(0) translate(4 842)">
<title>%3</title>
<g id="clust1" class="cluster">
<title>cluster_0</title>
<polygon fill="BurlyWood" stroke="black" points="8,-206 8,-810.5 572,-810.5 572,-206 8,-206"/>
<text text-anchor="middle" x="290" y="-795.3" font-family="Times,serif" font-size="14.00">Bartlett\Sarif\Converter</text>
</g>
<g id="clust2" class="cluster">
<title>cluster_1</title>
<polygon fill="LightSkyBlue" stroke="black" points="218,-8 218,-198 1192,-198 1192,-8 218,-8"/>
<text text-anchor="middle" x="705" y="-182.8" font-family="Times,serif" font-size="14.00">Bartlett\Sarif\Contract</text>
</g>
<g id="clust3" class="cluster">
<title>cluster_2</title>
<polygon fill="Bisque" stroke="black" points="580,-355.5 580,-810.5 880,-810.5 880,-355.5 580,-355.5"/>
<text text-anchor="middle" x="730" y="-795.3" font-family="Times,serif" font-size="14.00">Bartlett\Sarif\Converter\Source</text>
</g>
<g id="clust4" class="cluster">
<title>cluster_3</title>
<polygon fill="Bisque" stroke="black" points="891,-365.5 891,-830 1173,-830 1173,-365.5 891,-365.5"/>
<text text-anchor="middle" x="1032" y="-814.8" font-family="Times,serif" font-size="14.00">Bartlett\Sarif\Converter\Normalizer</text>
</g>
<!-- Bartlett\\Sarif\\Converter\\PhpMdConverter -->
<g id="node1" class="node">
<title>Bartlett\\Sarif\\Converter\\PhpMdConverter</title>
<polygon fill="#fefece" stroke="transparent" points="360.5,-779.5 219.5,-779.5 219.5,-732.5 360.5,-732.5 360.5,-779.5"/>
<polygon fill="#eeeeee" stroke="transparent" points="220,-757 220,-779 361,-779 361,-757 220,-757"/>
<polygon fill="none" stroke="black" points="220,-757 220,-779 361,-779 361,-757 220,-757"/>
<text text-anchor="start" x="257" y="-762.6" font-family="Verdana" font-weight="bold" font-size="8.00">PhpMdConverter</text>
<polygon fill="none" stroke="black" points="220,-751 220,-757 361,-757 361,-751 220,-751"/>
<polygon fill="none" stroke="black" points="220,-732 220,-751 361,-751 361,-732 220,-732"/>
<text text-anchor="start" x="225" y="-739.6" font-family="Verdana" font-size="8.00">+ configure(options : array = []) : void</text>
</g>
<!-- Bartlett\\Sarif\\Converter\\AbstractConverter -->
<g id="node2" class="node">
<title>Bartlett\\Sarif\\Converter\\AbstractConverter</title>
<polygon fill="#fefece" stroke="transparent" points="564,-677 16,-677 16,-214 564,-214 564,-677"/>
<polygon fill="#eeeeee" stroke="transparent" points="16,-654.5 16,-676.5 564,-676.5 564,-654.5 16,-654.5"/>
<polygon fill="none" stroke="black" points="16,-654.5 16,-676.5 564,-676.5 564,-654.5 16,-654.5"/>
<text text-anchor="start" x="269" y="-668.1" font-family="Verdana" font-weight="bold" font-size="8.00">«abstract»</text>
<text text-anchor="start" x="253.5" y="-660.1" font-family="Verdana" font-weight="bold" font-size="8.00">AbstractConverter</text>
<polygon fill="none" stroke="black" points="16,-440.5 16,-654.5 564,-654.5 564,-440.5 16,-440.5"/>
<text text-anchor="start" x="21" y="-643.1" font-family="Verdana" font-size="8.00"># toolName</text>
<text text-anchor="start" x="21" y="-630.1" font-family="Verdana" font-size="8.00"># toolFullName</text>
<text text-anchor="start" x="21" y="-617.1" font-family="Verdana" font-size="8.00"># toolShortDescription</text>
<text text-anchor="start" x="21" y="-604.1" font-family="Verdana" font-size="8.00"># toolFullDescription</text>
<text text-anchor="start" x="21" y="-591.1" font-family="Verdana" font-size="8.00"># toolInformationUri</text>
<text text-anchor="start" x="21" y="-578.1" font-family="Verdana" font-size="8.00"># toolComposerPackage</text>
<text text-anchor="start" x="21" y="-565.1" font-family="Verdana" font-size="8.00"># toolSemanticVersion</text>
<text text-anchor="start" x="21" y="-552.1" font-family="Verdana" font-size="8.00"># converterComposerPackage</text>
<text text-anchor="start" x="21" y="-539.1" font-family="Verdana" font-size="8.00"># results : mixed = []</text>
<text text-anchor="start" x="21" y="-526.1" font-family="Verdana" font-size="8.00"># errors : mixed = []</text>
<text text-anchor="start" x="21" y="-513.1" font-family="Verdana" font-size="8.00"># serializer</text>
<text text-anchor="start" x="21" y="-500.1" font-family="Verdana" font-size="8.00"># startTime</text>
<text text-anchor="start" x="21" y="-487.1" font-family="Verdana" font-size="8.00"># endTime</text>
<text text-anchor="start" x="21" y="-474.1" font-family="Verdana" font-size="8.00"># includeCodeSnippets</text>
<text text-anchor="start" x="21" y="-461.1" font-family="Verdana" font-size="8.00"># includeContextRegion</text>
<text text-anchor="start" x="21" y="-448.1" font-family="Verdana" font-size="8.00"># defaultResultLevelIfEmpty</text>
<polygon fill="none" stroke="black" points="16,-213.5 16,-440.5 564,-440.5 564,-213.5 16,-213.5"/>
<text text-anchor="start" x="21" y="-429.1" font-family="Verdana" font-size="8.00">+ __construct(options : array = [], factory : Bartlett\Sarif\Factory\SerializerFactory = «unknown»)</text>
<text text-anchor="start" x="21" y="-416.1" font-family="Verdana" font-size="8.00">+ getName() : string</text>
<text text-anchor="start" x="21" y="-403.1" font-family="Verdana" font-size="8.00">+ configure(options : array) : void</text>
<text text-anchor="start" x="21" y="-390.1" font-family="Verdana" font-size="8.00">+ toolDriver() : Bartlett\Sarif\Definition\ToolComponent</text>
<text text-anchor="start" x="21" y="-377.1" font-family="Verdana" font-size="8.00">+ toolExtensions() : array</text>
<text text-anchor="start" x="21" y="-364.1" font-family="Verdana" font-size="8.00">+ rules(defined : iterable) : array</text>
<text text-anchor="start" x="21" y="-351.1" font-family="Verdana" font-size="8.00">+ results(normalized : iterable) : void</text>
<text text-anchor="start" x="21" y="-338.1" font-family="Verdana" font-size="8.00">+ sarifLog(runs : array = [], version : string = &#39;2\.1\.0&#39;) : ?string</text>
<text text-anchor="start" x="21" y="-325.1" font-family="Verdana" font-size="8.00">+ invocations(properties : Bartlett\Sarif\Definition\PropertyBag = «unknown») : array</text>
<text text-anchor="start" x="21" y="-312.1" font-family="Verdana" font-size="8.00">+ automationDetails() : Bartlett\Sarif\Definition\RunAutomationDetails</text>
<text text-anchor="start" x="21" y="-299.1" font-family="Verdana" font-size="8.00">+ run(invocations : iterable, rules : iterable) : Bartlett\Sarif\Definition\Run</text>
<text text-anchor="start" x="21" y="-286.1" font-family="Verdana" font-size="8.00"># getToolVersion(package : string) : string</text>
<text text-anchor="start" x="21" y="-273.1" font-family="Verdana" font-size="8.00"># pathToArtifactLocation(path : string) : string</text>
<text text-anchor="start" x="21" y="-260.1" font-family="Verdana" font-size="8.00"># pathToUri(path : string) : string</text>
<text text-anchor="start" x="21" y="-247.1" font-family="Verdana" font-size="8.00"># getCodeSnippet(filePath : string, lineNumber : int, linesBefore : int, linesAfter : int) : ?string</text>
<text text-anchor="start" x="21" y="-234.1" font-family="Verdana" font-size="8.00"># getSnippetRegion(filePath : string, lineNumber : int, column : int = «unknown», linesBefore : int = 2, linesAfter : int = 2) : Bartlett\Sarif\Definition\Region</text>
<text text-anchor="start" x="21" y="-221.1" font-family="Verdana" font-size="8.00"># getErrors() : Iterator</text>
</g>
<!-- Bartlett\\Sarif\\Converter\\PhpMdConverter&#45;&gt;Bartlett\\Sarif\\Converter\\AbstractConverter -->
<g id="edge2" class="edge">
<title>Bartlett\\Sarif\\Converter\\PhpMdConverter&#45;&gt;Bartlett\\Sarif\\Converter\\AbstractConverter</title>
<path fill="none" stroke="black" d="M290,-732.32C290,-720.63 290,-705.1 290,-687.29"/>
<polygon fill="none" stroke="black" points="293.5,-687.17 290,-677.17 286.5,-687.17 293.5,-687.17"/>
</g>
<!-- Bartlett\\Sarif\\Contract\\ConverterInterface -->
<g id="node3" class="node">
<title>Bartlett\\Sarif\\Contract\\ConverterInterface</title>
<polygon fill="#fefece" stroke="transparent" points="572,-167 226,-167 226,-16 572,-16 572,-167"/>
<polygon fill="#eeeeee" stroke="transparent" points="226,-144.5 226,-166.5 572,-166.5 572,-144.5 226,-144.5"/>
<polygon fill="none" stroke="black" points="226,-144.5 226,-166.5 572,-166.5 572,-144.5 226,-144.5"/>
<text text-anchor="start" x="377" y="-158.1" font-family="Verdana" font-weight="bold" font-size="8.00">«interface»</text>
<text text-anchor="start" x="362.5" y="-150.1" font-family="Verdana" font-weight="bold" font-size="8.00">ConverterInterface</text>
<polygon fill="none" stroke="black" points="226,-138.5 226,-144.5 572,-144.5 572,-138.5 226,-138.5"/>
<polygon fill="none" stroke="black" points="226,-15.5 226,-138.5 572,-138.5 572,-15.5 226,-15.5"/>
<text text-anchor="start" x="231" y="-127.1" font-family="Verdana" font-size="8.00">+ «abstract» getName() : string</text>
<text text-anchor="start" x="231" y="-114.1" font-family="Verdana" font-size="8.00">+ «abstract» toolDriver() : Bartlett\Sarif\Definition\ToolComponent</text>
<text text-anchor="start" x="231" y="-101.1" font-family="Verdana" font-size="8.00">+ «abstract» toolExtensions() : array</text>
<text text-anchor="start" x="231" y="-88.1" font-family="Verdana" font-size="8.00">+ «abstract» rules(defined : iterable) : array</text>
<text text-anchor="start" x="231" y="-75.1" font-family="Verdana" font-size="8.00">+ «abstract» results(normalized : iterable) : void</text>
<text text-anchor="start" x="231" y="-62.1" font-family="Verdana" font-size="8.00">+ «abstract» invocations(properties : Bartlett\Sarif\Definition\PropertyBag = «unknown») : array</text>
<text text-anchor="start" x="231" y="-49.1" font-family="Verdana" font-size="8.00">+ «abstract» automationDetails() : Bartlett\Sarif\Definition\RunAutomationDetails</text>
<text text-anchor="start" x="231" y="-36.1" font-family="Verdana" font-size="8.00">+ «abstract» run(invocations : iterable, rules : iterable) : Bartlett\Sarif\Definition\Run</text>
<text text-anchor="start" x="231" y="-23.1" font-family="Verdana" font-size="8.00">+ «abstract» sarifLog(runs : array = [], version : string = &#39;2\.1\.0&#39;) : ?string</text>
</g>
<!-- Bartlett\\Sarif\\Converter\\AbstractConverter&#45;&gt;Bartlett\\Sarif\\Contract\\ConverterInterface -->
<g id="edge1" class="edge">
<title>Bartlett\\Sarif\\Converter\\AbstractConverter&#45;&gt;Bartlett\\Sarif\\Contract\\ConverterInterface</title>
<path fill="none" stroke="black" stroke-dasharray="5,2" d="M361.49,-213.64C365.47,-200.78 369.32,-188.36 372.93,-176.68"/>
<polygon fill="none" stroke="black" points="376.3,-177.65 375.91,-167.06 369.61,-175.58 376.3,-177.65"/>
</g>
<!-- Bartlett\\Sarif\\Contract\\SourceInterface -->
<g id="node4" class="node">
<title>Bartlett\\Sarif\\Contract\\SourceInterface</title>
<polygon fill="#fefece" stroke="transparent" points="862,-147.5 590,-147.5 590,-35.5 862,-35.5 862,-147.5"/>
<polygon fill="#eeeeee" stroke="transparent" points="590,-125.5 590,-147.5 862,-147.5 862,-125.5 590,-125.5"/>
<polygon fill="none" stroke="black" points="590,-125.5 590,-147.5 862,-147.5 862,-125.5 590,-125.5"/>
<text text-anchor="start" x="704" y="-139.1" font-family="Verdana" font-weight="bold" font-size="8.00">«interface»</text>
<text text-anchor="start" x="694.5" y="-131.1" font-family="Verdana" font-weight="bold" font-size="8.00">SourceInterface</text>
<polygon fill="none" stroke="black" points="590,-119.5 590,-125.5 862,-125.5 862,-119.5 590,-119.5"/>
<polygon fill="none" stroke="black" points="590,-35.5 590,-119.5 862,-119.5 862,-35.5 590,-35.5"/>
<text text-anchor="start" x="595" y="-108.1" font-family="Verdana" font-size="8.00">+ «abstract» getName() : string</text>
<text text-anchor="start" x="595" y="-95.1" font-family="Verdana" font-size="8.00">+ «abstract» getFiles() : Iterator</text>
<text text-anchor="start" x="595" y="-82.1" font-family="Verdana" font-size="8.00">+ «abstract» getErrors() : Iterator</text>
<text text-anchor="start" x="595" y="-69.1" font-family="Verdana" font-size="8.00">+ «abstract» getRules() : Iterator</text>
<text text-anchor="start" x="595" y="-56.1" font-family="Verdana" font-size="8.00">+ «abstract» getAttribute(name : string) : Iterator</text>
<text text-anchor="start" x="595" y="-43.1" font-family="Verdana" font-size="8.00">+ «abstract» normalize(data : mixed, format : string, context : array) : bool</text>
</g>
<!-- Bartlett\\Sarif\\Contract\\NormalizerInterface -->
<g id="node5" class="node">
<title>Bartlett\\Sarif\\Contract\\NormalizerInterface</title>
<polygon fill="#fefece" stroke="transparent" points="1184,-157 880,-157 880,-26 1184,-26 1184,-157"/>
<polygon fill="#eeeeee" stroke="transparent" points="880,-134.5 880,-156.5 1184,-156.5 1184,-134.5 880,-134.5"/>
<polygon fill="none" stroke="black" points="880,-134.5 880,-156.5 1184,-156.5 1184,-134.5 880,-134.5"/>
<text text-anchor="start" x="1010" y="-148.1" font-family="Verdana" font-weight="bold" font-size="8.00">«interface»</text>
<text text-anchor="start" x="994" y="-140.1" font-family="Verdana" font-weight="bold" font-size="8.00">NormalizerInterface</text>
<polygon fill="none" stroke="black" points="880,-63.5 880,-134.5 1184,-134.5 1184,-63.5 880,-63.5"/>
<text text-anchor="start" x="885" y="-123.1" font-family="Verdana" font-size="8.00">+ «static» FORMAT_SARIF : string = &quot;sarif&quot; {readOnly}</text>
<text text-anchor="start" x="885" y="-110.1" font-family="Verdana" font-size="8.00">+ «static» FORMAT_JSON : string = &quot;json&quot; {readOnly}</text>
<text text-anchor="start" x="885" y="-97.1" font-family="Verdana" font-size="8.00">+ «static» FORMAT_XML : string = &quot;xml&quot; {readOnly}</text>
<text text-anchor="start" x="885" y="-84.1" font-family="Verdana" font-size="8.00">+ «static» FORMAT_CHECKSTYLE : string = &quot;checkstyle&quot; {readOnly}</text>
<text text-anchor="start" x="885" y="-71.1" font-family="Verdana" font-size="8.00">+ «static» FORMAT_INTERNAL : string = &quot;internal&quot; {readOnly}</text>
<polygon fill="none" stroke="black" points="880,-57.5 880,-63.5 1184,-63.5 1184,-57.5 880,-57.5"/>
<polygon fill="none" stroke="black" points="880,-25.5 880,-57.5 1184,-57.5 1184,-25.5 880,-25.5"/>
<text text-anchor="start" x="885" y="-46.1" font-family="Verdana" font-size="8.00">+ «abstract» getSupportedFormats() : array</text>
<text text-anchor="start" x="885" y="-33.1" font-family="Verdana" font-size="8.00">+ «abstract» normalize(data : mixed, format : string, context : array) : ?ArrayObject</text>
</g>
<!-- Bartlett\\Sarif\\Converter\\Source\\PhpMdSource -->
<g id="node6" class="node">
<title>Bartlett\\Sarif\\Converter\\Source\\PhpMdSource</title>
<polygon fill="#fefece" stroke="transparent" points="806,-779.5 654,-779.5 654,-732.5 806,-732.5 806,-779.5"/>
<polygon fill="#eeeeee" stroke="transparent" points="654,-757 654,-779 806,-779 806,-757 654,-757"/>
<polygon fill="none" stroke="black" points="654,-757 654,-779 806,-779 806,-757 654,-757"/>
<text text-anchor="start" x="702" y="-762.6" font-family="Verdana" font-weight="bold" font-size="8.00">PhpMdSource</text>
<polygon fill="none" stroke="black" points="654,-751 654,-757 806,-757 806,-751 654,-751"/>
<polygon fill="none" stroke="black" points="654,-732 654,-751 806,-751 806,-732 654,-732"/>
<text text-anchor="start" x="659" y="-739.6" font-family="Verdana" font-size="8.00">+ __construct(normalizers : iterable = [])</text>
</g>
<!-- Bartlett\\Sarif\\Converter\\Source\\AbstractSource -->
<g id="node7" class="node">
<title>Bartlett\\Sarif\\Converter\\Source\\AbstractSource</title>
<polygon fill="#fefece" stroke="transparent" points="872,-527.5 588,-527.5 588,-363.5 872,-363.5 872,-527.5"/>
<polygon fill="#eeeeee" stroke="transparent" points="588,-505.5 588,-527.5 872,-527.5 872,-505.5 588,-505.5"/>
<polygon fill="none" stroke="black" points="588,-505.5 588,-527.5 872,-527.5 872,-505.5 588,-505.5"/>
<text text-anchor="start" x="709" y="-519.1" font-family="Verdana" font-weight="bold" font-size="8.00">«abstract»</text>
<text text-anchor="start" x="699" y="-511.1" font-family="Verdana" font-weight="bold" font-size="8.00">AbstractSource</text>
<polygon fill="none" stroke="black" points="588,-473.5 588,-505.5 872,-505.5 872,-473.5 588,-473.5"/>
<text text-anchor="start" x="593" y="-494.1" font-family="Verdana" font-size="8.00">– normalizers : mixed</text>
<text text-anchor="start" x="593" y="-481.1" font-family="Verdana" font-size="8.00">– normalized</text>
<polygon fill="none" stroke="black" points="588,-363.5 588,-473.5 872,-473.5 872,-363.5 588,-363.5"/>
<text text-anchor="start" x="593" y="-462.1" font-family="Verdana" font-size="8.00">+ __construct(normalizers : iterable = [])</text>
<text text-anchor="start" x="593" y="-449.1" font-family="Verdana" font-size="8.00">+ getName() : string</text>
<text text-anchor="start" x="593" y="-436.1" font-family="Verdana" font-size="8.00">+ getFiles() : Iterator</text>
<text text-anchor="start" x="593" y="-423.1" font-family="Verdana" font-size="8.00">+ getErrors() : Iterator</text>
<text text-anchor="start" x="593" y="-410.1" font-family="Verdana" font-size="8.00">+ getRules() : Iterator</text>
<text text-anchor="start" x="593" y="-397.1" font-family="Verdana" font-size="8.00">+ getAttribute(name : string) : Iterator</text>
<text text-anchor="start" x="593" y="-384.1" font-family="Verdana" font-size="8.00">+ normalize(data, format : string, context : array) : bool</text>
<text text-anchor="start" x="593" y="-371.1" font-family="Verdana" font-size="8.00"># getNormalizer(format : string) : ?Bartlett\Sarif\Contract\NormalizerInterface</text>
</g>
<!-- Bartlett\\Sarif\\Converter\\Source\\PhpMdSource&#45;&gt;Bartlett\\Sarif\\Converter\\Source\\AbstractSource -->
<g id="edge4" class="edge">
<title>Bartlett\\Sarif\\Converter\\Source\\PhpMdSource&#45;&gt;Bartlett\\Sarif\\Converter\\Source\\AbstractSource</title>
<path fill="none" stroke="black" d="M730,-732.32C730,-691.88 730,-605.28 730,-537.94"/>
<polygon fill="none" stroke="black" points="733.5,-537.73 730,-527.73 726.5,-537.73 733.5,-537.73"/>
</g>
<!-- Bartlett\\Sarif\\Converter\\Source\\AbstractSource&#45;&gt;Bartlett\\Sarif\\Contract\\SourceInterface -->
<g id="edge3" class="edge">
<title>Bartlett\\Sarif\\Converter\\Source\\AbstractSource&#45;&gt;Bartlett\\Sarif\\Contract\\SourceInterface</title>
<path fill="none" stroke="black" stroke-dasharray="5,2" d="M729.08,-363.3C728.37,-300.86 727.4,-215.73 726.74,-157.69"/>
<polygon fill="none" stroke="black" points="730.24,-157.5 726.63,-147.54 723.24,-157.58 730.24,-157.5"/>
</g>
<!-- Bartlett\\Sarif\\Converter\\Normalizer\\PhpMdNormalizer -->
<g id="node8" class="node">
<title>Bartlett\\Sarif\\Converter\\Normalizer\\PhpMdNormalizer</title>
<polygon fill="#fefece" stroke="transparent" points="1150.5,-799 913.5,-799 913.5,-713 1150.5,-713 1150.5,-799"/>
<polygon fill="#eeeeee" stroke="transparent" points="914,-777 914,-799 1151,-799 1151,-777 914,-777"/>
<polygon fill="none" stroke="black" points="914,-777 914,-799 1151,-799 1151,-777 914,-777"/>
<text text-anchor="start" x="997.5" y="-782.6" font-family="Verdana" font-weight="bold" font-size="8.00">PhpMdNormalizer</text>
<polygon fill="none" stroke="black" points="914,-771 914,-777 1151,-777 1151,-771 914,-771"/>
<polygon fill="none" stroke="black" points="914,-713 914,-771 1151,-771 1151,-713 914,-713"/>
<text text-anchor="start" x="919" y="-759.6" font-family="Verdana" font-size="8.00">+ getSupportedFormats() : array</text>
<text text-anchor="start" x="919" y="-746.6" font-family="Verdana" font-size="8.00">+ normalize(data, format : string, context : array) : ?ArrayObject</text>
<text text-anchor="start" x="919" y="-733.6" font-family="Verdana" font-size="8.00">– fromCheckstyle(data : ArrayObject) : array</text>
<text text-anchor="start" x="919" y="-720.6" font-family="Verdana" font-size="8.00"># fromInternal(data, context : array, mapping : array = []) : array</text>
</g>
<!-- Bartlett\\Sarif\\Converter\\Normalizer\\AbstractNormalizer -->
<g id="node9" class="node">
<title>Bartlett\\Sarif\\Converter\\Normalizer\\AbstractNormalizer</title>
<polygon fill="#fefece" stroke="transparent" points="1165,-517.5 899,-517.5 899,-373.5 1165,-373.5 1165,-517.5"/>
<polygon fill="#eeeeee" stroke="transparent" points="899,-495.5 899,-517.5 1165,-517.5 1165,-495.5 899,-495.5"/>
<polygon fill="none" stroke="black" points="899,-495.5 899,-517.5 1165,-517.5 1165,-495.5 899,-495.5"/>
<text text-anchor="start" x="1011" y="-509.1" font-family="Verdana" font-weight="bold" font-size="8.00">«abstract»</text>
<text text-anchor="start" x="994" y="-501.1" font-family="Verdana" font-weight="bold" font-size="8.00">AbstractNormalizer</text>
<polygon fill="none" stroke="black" points="899,-424.5 899,-495.5 1165,-495.5 1165,-424.5 899,-424.5"/>
<text text-anchor="start" x="904" y="-484.1" font-family="Verdana" font-size="8.00">+ «static» FORMAT_SARIF : string = &quot;sarif&quot; {readOnly}</text>
<text text-anchor="start" x="904" y="-471.1" font-family="Verdana" font-size="8.00">+ «static» FORMAT_JSON : string = &quot;json&quot; {readOnly}</text>
<text text-anchor="start" x="904" y="-458.1" font-family="Verdana" font-size="8.00">+ «static» FORMAT_XML : string = &quot;xml&quot; {readOnly}</text>
<text text-anchor="start" x="904" y="-445.1" font-family="Verdana" font-size="8.00">+ «static» FORMAT_CHECKSTYLE : string = &quot;checkstyle&quot; {readOnly}</text>
<text text-anchor="start" x="904" y="-432.1" font-family="Verdana" font-size="8.00">+ «static» FORMAT_INTERNAL : string = &quot;internal&quot; {readOnly}</text>
<polygon fill="none" stroke="black" points="899,-418.5 899,-424.5 1165,-424.5 1165,-418.5 899,-418.5"/>
<polygon fill="none" stroke="black" points="899,-373.5 899,-418.5 1165,-418.5 1165,-373.5 899,-373.5"/>
<text text-anchor="start" x="904" y="-407.1" font-family="Verdana" font-size="8.00">+ getSupportedFormats() : array</text>
<text text-anchor="start" x="904" y="-394.1" font-family="Verdana" font-size="8.00">+ normalize(data, format : string, context : array) : ?ArrayObject</text>
<text text-anchor="start" x="904" y="-381.1" font-family="Verdana" font-size="8.00"># fromInternal(data : TData, context : array, mapping : array = []) : array</text>
</g>
<!-- Bartlett\\Sarif\\Converter\\Normalizer\\PhpMdNormalizer&#45;&gt;Bartlett\\Sarif\\Converter\\Normalizer\\AbstractNormalizer -->
<g id="edge6" class="edge">
<title>Bartlett\\Sarif\\Converter\\Normalizer\\PhpMdNormalizer&#45;&gt;Bartlett\\Sarif\\Converter\\Normalizer\\AbstractNormalizer</title>
<path fill="none" stroke="black" d="M1032,-712.75C1032,-665.33 1032,-587.26 1032,-527.89"/>
<polygon fill="none" stroke="black" points="1035.5,-527.78 1032,-517.78 1028.5,-527.78 1035.5,-527.78"/>
</g>
<!-- Bartlett\\Sarif\\Converter\\Normalizer\\AbstractNormalizer&#45;&gt;Bartlett\\Sarif\\Contract\\NormalizerInterface -->
<g id="edge5" class="edge">
<title>Bartlett\\Sarif\\Converter\\Normalizer\\AbstractNormalizer&#45;&gt;Bartlett\\Sarif\\Contract\\NormalizerInterface</title>
<path fill="none" stroke="black" stroke-dasharray="5,2" d="M1032,-373.27C1032,-313.45 1032,-228.24 1032,-167.41"/>
<polygon fill="none" stroke="black" points="1035.5,-167.11 1032,-157.11 1028.5,-167.11 1035.5,-167.11"/>
</g>
</g>
</svg>
