<?xml version="1.0" encoding="UTF-8" standalone="no"?>
<!DOCTYPE svg PUBLIC "-//W3C//DTD SVG 1.1//EN"
 "http://www.w3.org/Graphics/SVG/1.1/DTD/svg11.dtd">
<!-- Generated by graphviz version 2.43.0 (0)
 -->
<!-- Title: %3 Pages: 1 -->
<svg width="1380pt" height="781pt"
 viewBox="0.00 0.00 1380.00 781.00" xmlns="http://www.w3.org/2000/svg" xmlns:xlink="http://www.w3.org/1999/xlink">
<g id="graph0" class="graph" transform="scale(1 1) rotate(0) translate(4 777)">
<title>%3</title>
<g id="clust1" class="cluster">
<title>cluster_0</title>
<polygon fill="BurlyWood" stroke="black" points="8,-206 8,-765 664,-765 664,-206 8,-206"/>
<text text-anchor="middle" x="336" y="-749.8" font-family="Times,serif" font-size="14.00">Bartlett\Sarif\Converter</text>
</g>
<g id="clust2" class="cluster">
<title>cluster_1</title>
<polygon fill="LightSkyBlue" stroke="black" points="246,-8 246,-198 1364,-198 1364,-8 246,-8"/>
<text text-anchor="middle" x="805" y="-182.8" font-family="Times,serif" font-size="14.00">Bartlett\Sarif\Contract</text>
</g>
<g id="clust3" class="cluster">
<title>cluster_2</title>
<polygon fill="Bisque" stroke="black" points="672,-336 672,-765 1014,-765 1014,-336 672,-336"/>
<text text-anchor="middle" x="843" y="-749.8" font-family="Times,serif" font-size="14.00">Bartlett\Sarif\Converter\Source</text>
</g>
<g id="clust4" class="cluster">
<title>cluster_3</title>
<polygon fill="Bisque" stroke="black" points="1031,-346 1031,-529 1333,-529 1333,-346 1031,-346"/>
<text text-anchor="middle" x="1182" y="-513.8" font-family="Times,serif" font-size="14.00">Bartlett\Sarif\Converter\Normalizer</text>
</g>
<!-- Bartlett\\Sarif\\Converter\\PhpCsConverter -->
<g id="node1" class="node">
<title>Bartlett\\Sarif\\Converter\\PhpCsConverter</title>
<polygon fill="#fefece" stroke="transparent" points="514.5,-734 157.5,-734 157.5,-674 514.5,-674 514.5,-734"/>
<polygon fill="#eeeeee" stroke="transparent" points="158,-712 158,-734 515,-734 515,-712 158,-712"/>
<polygon fill="none" stroke="black" points="158,-712 158,-734 515,-734 515,-712 158,-712"/>
<text text-anchor="start" x="300" y="-717.6" font-family="Verdana" font-weight="bold" font-size="8.00">PhpCsConverter</text>
<polygon fill="none" stroke="black" points="158,-706 158,-712 515,-712 515,-706 158,-706"/>
<polygon fill="none" stroke="black" points="158,-674 158,-706 515,-706 515,-674 158,-674"/>
<text text-anchor="start" x="163" y="-694.6" font-family="Verdana" font-size="8.00">+ configure() : void</text>
<text text-anchor="start" x="163" y="-681.6" font-family="Verdana" font-size="8.00">+ invocations(properties : Bartlett\Sarif\Definition\PropertyBag = «unknown») : array</text>
</g>
<!-- Bartlett\\Sarif\\Converter\\AbstractConverter -->
<g id="node2" class="node">
<title>Bartlett\\Sarif\\Converter\\AbstractConverter</title>
<polygon fill="#fefece" stroke="transparent" points="655.5,-638 16.5,-638 16.5,-214 655.5,-214 655.5,-638"/>
<polygon fill="#eeeeee" stroke="transparent" points="17,-616 17,-638 656,-638 656,-616 17,-616"/>
<polygon fill="none" stroke="black" points="17,-616 17,-638 656,-638 656,-616 17,-616"/>
<text text-anchor="start" x="312.5" y="-629.6" font-family="Verdana" font-weight="bold" font-size="8.00">«abstract»</text>
<text text-anchor="start" x="295.5" y="-621.6" font-family="Verdana" font-weight="bold" font-size="8.00">AbstractConverter</text>
<polygon fill="none" stroke="black" points="17,-441 17,-616 656,-616 656,-441 17,-441"/>
<text text-anchor="start" x="22" y="-604.6" font-family="Verdana" font-size="8.00"># toolName</text>
<text text-anchor="start" x="22" y="-591.6" font-family="Verdana" font-size="8.00"># toolFullName</text>
<text text-anchor="start" x="22" y="-578.6" font-family="Verdana" font-size="8.00"># toolShortDescription</text>
<text text-anchor="start" x="22" y="-565.6" font-family="Verdana" font-size="8.00"># toolFullDescription</text>
<text text-anchor="start" x="22" y="-552.6" font-family="Verdana" font-size="8.00"># toolInformationUri</text>
<text text-anchor="start" x="22" y="-539.6" font-family="Verdana" font-size="8.00"># toolComposerPackage</text>
<text text-anchor="start" x="22" y="-526.6" font-family="Verdana" font-size="8.00"># toolSemanticVersion</text>
<text text-anchor="start" x="22" y="-513.6" font-family="Verdana" font-size="8.00"># converterComposerPackage</text>
<text text-anchor="start" x="22" y="-500.6" font-family="Verdana" font-size="8.00"># results : mixed = []</text>
<text text-anchor="start" x="22" y="-487.6" font-family="Verdana" font-size="8.00"># errors : mixed = []</text>
<text text-anchor="start" x="22" y="-474.6" font-family="Verdana" font-size="8.00"># serializer</text>
<text text-anchor="start" x="22" y="-461.6" font-family="Verdana" font-size="8.00"># startTime</text>
<text text-anchor="start" x="22" y="-448.6" font-family="Verdana" font-size="8.00"># endTime</text>
<polygon fill="none" stroke="black" points="17,-214 17,-441 656,-441 656,-214 17,-214"/>
<text text-anchor="start" x="22" y="-429.6" font-family="Verdana" font-size="8.00">+ __construct(factory : Bartlett\Sarif\Factory\SerializerFactory = «unknown», prettify : bool = false)</text>
<text text-anchor="start" x="22" y="-416.6" font-family="Verdana" font-size="8.00">+ getName() : string</text>
<text text-anchor="start" x="22" y="-403.6" font-family="Verdana" font-size="8.00">+ configure() : void</text>
<text text-anchor="start" x="22" y="-390.6" font-family="Verdana" font-size="8.00">+ toolDriver() : Bartlett\Sarif\Definition\ToolComponent</text>
<text text-anchor="start" x="22" y="-377.6" font-family="Verdana" font-size="8.00">+ toolExtensions() : array</text>
<text text-anchor="start" x="22" y="-364.6" font-family="Verdana" font-size="8.00">+ rules(defined : iterable) : array</text>
<text text-anchor="start" x="22" y="-351.6" font-family="Verdana" font-size="8.00">+ results(normalized : iterable) : void</text>
<text text-anchor="start" x="22" y="-338.6" font-family="Verdana" font-size="8.00">+ sarifLog(runs : array = [], version : string = &#39;2\.1\.0&#39;) : ?string</text>
<text text-anchor="start" x="22" y="-325.6" font-family="Verdana" font-size="8.00">+ invocations(properties : Bartlett\Sarif\Definition\PropertyBag = «unknown») : array</text>
<text text-anchor="start" x="22" y="-312.6" font-family="Verdana" font-size="8.00">+ automationDetails() : Bartlett\Sarif\Definition\RunAutomationDetails</text>
<text text-anchor="start" x="22" y="-299.6" font-family="Verdana" font-size="8.00">+ run(invocations : iterable, rules : iterable) : Bartlett\Sarif\Definition\Run</text>
<text text-anchor="start" x="22" y="-286.6" font-family="Verdana" font-size="8.00"># getToolVersion(package : string) : string</text>
<text text-anchor="start" x="22" y="-273.6" font-family="Verdana" font-size="8.00"># pathToArtifactLocation(path : string) : string</text>
<text text-anchor="start" x="22" y="-260.6" font-family="Verdana" font-size="8.00"># pathToUri(path : string) : string</text>
<text text-anchor="start" x="22" y="-247.6" font-family="Verdana" font-size="8.00"># getCodeSnippet(filePath : string, lineNumber : int, linesBefore : int, linesAfter : int) : ?string</text>
<text text-anchor="start" x="22" y="-234.6" font-family="Verdana" font-size="8.00"># getSnippetRegion(filePath : string, lineNumber : int, column : int = «unknown», linesBefore : int = 2, linesAfter : int = 2) : Bartlett\Sarif\Definition\Region</text>
<text text-anchor="start" x="22" y="-221.6" font-family="Verdana" font-size="8.00"># getErrors() : Iterator</text>
</g>
<!-- Bartlett\\Sarif\\Converter\\PhpCsConverter&#45;&gt;Bartlett\\Sarif\\Converter\\AbstractConverter -->
<g id="edge2" class="edge">
<title>Bartlett\\Sarif\\Converter\\PhpCsConverter&#45;&gt;Bartlett\\Sarif\\Converter\\AbstractConverter</title>
<path fill="none" stroke="black" d="M336,-673.98C336,-666.49 336,-657.81 336,-648.29"/>
<polygon fill="none" stroke="black" points="339.5,-648.07 336,-638.07 332.5,-648.07 339.5,-648.07"/>
</g>
<!-- Bartlett\\Sarif\\Contract\\ConverterInterface -->
<g id="node3" class="node">
<title>Bartlett\\Sarif\\Contract\\ConverterInterface</title>
<polygon fill="#fefece" stroke="transparent" points="658,-167 254,-167 254,-16 658,-16 658,-167"/>
<polygon fill="#eeeeee" stroke="transparent" points="254,-144.5 254,-166.5 658,-166.5 658,-144.5 254,-144.5"/>
<polygon fill="none" stroke="black" points="254,-144.5 254,-166.5 658,-166.5 658,-144.5 254,-144.5"/>
<text text-anchor="start" x="430" y="-158.1" font-family="Verdana" font-weight="bold" font-size="8.00">«interface»</text>
<text text-anchor="start" x="413.5" y="-150.1" font-family="Verdana" font-weight="bold" font-size="8.00">ConverterInterface</text>
<polygon fill="none" stroke="black" points="254,-138.5 254,-144.5 658,-144.5 658,-138.5 254,-138.5"/>
<polygon fill="none" stroke="black" points="254,-15.5 254,-138.5 658,-138.5 658,-15.5 254,-15.5"/>
<text text-anchor="start" x="259" y="-127.1" font-family="Verdana" font-size="8.00">+ «abstract» getName() : string</text>
<text text-anchor="start" x="259" y="-114.1" font-family="Verdana" font-size="8.00">+ «abstract» toolDriver() : Bartlett\Sarif\Definition\ToolComponent</text>
<text text-anchor="start" x="259" y="-101.1" font-family="Verdana" font-size="8.00">+ «abstract» toolExtensions() : array</text>
<text text-anchor="start" x="259" y="-88.1" font-family="Verdana" font-size="8.00">+ «abstract» rules(defined : iterable) : array</text>
<text text-anchor="start" x="259" y="-75.1" font-family="Verdana" font-size="8.00">+ «abstract» results(normalized : iterable) : void</text>
<text text-anchor="start" x="259" y="-62.1" font-family="Verdana" font-size="8.00">+ «abstract» invocations(properties : Bartlett\Sarif\Definition\PropertyBag = «unknown») : array</text>
<text text-anchor="start" x="259" y="-49.1" font-family="Verdana" font-size="8.00">+ «abstract» automationDetails() : Bartlett\Sarif\Definition\RunAutomationDetails</text>
<text text-anchor="start" x="259" y="-36.1" font-family="Verdana" font-size="8.00">+ «abstract» run(invocations : iterable, rules : iterable) : Bartlett\Sarif\Definition\Run</text>
<text text-anchor="start" x="259" y="-23.1" font-family="Verdana" font-size="8.00">+ «abstract» sarifLog(runs : array = [], version : string = &#39;2\.1\.0&#39;) : ?string</text>
</g>
<!-- Bartlett\\Sarif\\Converter\\AbstractConverter&#45;&gt;Bartlett\\Sarif\\Contract\\ConverterInterface -->
<g id="edge1" class="edge">
<title>Bartlett\\Sarif\\Converter\\AbstractConverter&#45;&gt;Bartlett\\Sarif\\Contract\\ConverterInterface</title>
<path fill="none" stroke="black" stroke-dasharray="5,2" d="M412.17,-213.95C416.8,-201.1 421.3,-188.64 425.54,-176.9"/>
<polygon fill="none" stroke="black" points="428.93,-177.82 429.03,-167.22 422.35,-175.44 428.93,-177.82"/>
</g>
<!-- Bartlett\\Sarif\\Contract\\SourceInterface -->
<g id="node4" class="node">
<title>Bartlett\\Sarif\\Contract\\SourceInterface</title>
<polygon fill="#fefece" stroke="transparent" points="990,-147.5 676,-147.5 676,-35.5 990,-35.5 990,-147.5"/>
<polygon fill="#eeeeee" stroke="transparent" points="676,-125.5 676,-147.5 990,-147.5 990,-125.5 676,-125.5"/>
<polygon fill="none" stroke="black" points="676,-125.5 676,-147.5 990,-147.5 990,-125.5 676,-125.5"/>
<text text-anchor="start" x="807" y="-139.1" font-family="Verdana" font-weight="bold" font-size="8.00">«interface»</text>
<text text-anchor="start" x="797" y="-131.1" font-family="Verdana" font-weight="bold" font-size="8.00">SourceInterface</text>
<polygon fill="none" stroke="black" points="676,-119.5 676,-125.5 990,-125.5 990,-119.5 676,-119.5"/>
<polygon fill="none" stroke="black" points="676,-35.5 676,-119.5 990,-119.5 990,-35.5 676,-35.5"/>
<text text-anchor="start" x="681" y="-108.1" font-family="Verdana" font-size="8.00">+ «abstract» getName() : string</text>
<text text-anchor="start" x="681" y="-95.1" font-family="Verdana" font-size="8.00">+ «abstract» getFiles() : Iterator</text>
<text text-anchor="start" x="681" y="-82.1" font-family="Verdana" font-size="8.00">+ «abstract» getErrors() : Iterator</text>
<text text-anchor="start" x="681" y="-69.1" font-family="Verdana" font-size="8.00">+ «abstract» getRules() : Iterator</text>
<text text-anchor="start" x="681" y="-56.1" font-family="Verdana" font-size="8.00">+ «abstract» getAttribute(name : string) : Iterator</text>
<text text-anchor="start" x="681" y="-43.1" font-family="Verdana" font-size="8.00">+ «abstract» normalize(data : mixed, format : string, context : array) : void</text>
</g>
<!-- Bartlett\\Sarif\\Contract\\NormalizerInterface -->
<g id="node5" class="node">
<title>Bartlett\\Sarif\\Contract\\NormalizerInterface</title>
<polygon fill="#fefece" stroke="transparent" points="1356,-150.5 1008,-150.5 1008,-32.5 1356,-32.5 1356,-150.5"/>
<polygon fill="#eeeeee" stroke="transparent" points="1008,-128.5 1008,-150.5 1356,-150.5 1356,-128.5 1008,-128.5"/>
<polygon fill="none" stroke="black" points="1008,-128.5 1008,-150.5 1356,-150.5 1356,-128.5 1008,-128.5"/>
<text text-anchor="start" x="1156" y="-142.1" font-family="Verdana" font-weight="bold" font-size="8.00">«interface»</text>
<text text-anchor="start" x="1137" y="-134.1" font-family="Verdana" font-weight="bold" font-size="8.00">NormalizerInterface</text>
<polygon fill="none" stroke="black" points="1008,-70.5 1008,-128.5 1356,-128.5 1356,-70.5 1008,-70.5"/>
<text text-anchor="start" x="1013" y="-117.1" font-family="Verdana" font-size="8.00">+ «static» FORMAT_JSON : string = &quot;json&quot; {readOnly}</text>
<text text-anchor="start" x="1013" y="-104.1" font-family="Verdana" font-size="8.00">+ «static» FORMAT_XML : string = &quot;xml&quot; {readOnly}</text>
<text text-anchor="start" x="1013" y="-91.1" font-family="Verdana" font-size="8.00">+ «static» FORMAT_CHECKSTYLE : string = &quot;checkstyle&quot; {readOnly}</text>
<text text-anchor="start" x="1013" y="-78.1" font-family="Verdana" font-size="8.00">+ «static» FORMAT_INTERNAL : string = &quot;internal&quot; {readOnly}</text>
<polygon fill="none" stroke="black" points="1008,-64.5 1008,-70.5 1356,-70.5 1356,-64.5 1008,-64.5"/>
<polygon fill="none" stroke="black" points="1008,-32.5 1008,-64.5 1356,-64.5 1356,-32.5 1008,-32.5"/>
<text text-anchor="start" x="1013" y="-53.1" font-family="Verdana" font-size="8.00">+ «abstract» getSupportedFormats() : array</text>
<text text-anchor="start" x="1013" y="-40.1" font-family="Verdana" font-size="8.00">+ «abstract» normalize(data : mixed, format : string, context : array) : ?ArrayObject</text>
</g>
<!-- Bartlett\\Sarif\\Converter\\Source\\PhpCsSource -->
<g id="node6" class="node">
<title>Bartlett\\Sarif\\Converter\\Source\\PhpCsSource</title>
<polygon fill="#fefece" stroke="transparent" points="965.5,-734 720.5,-734 720.5,-674 965.5,-674 965.5,-734"/>
<polygon fill="#eeeeee" stroke="transparent" points="721,-712 721,-734 966,-734 966,-712 721,-712"/>
<polygon fill="none" stroke="black" points="721,-712 721,-734 966,-734 966,-712 721,-712"/>
<text text-anchor="start" x="813.5" y="-717.6" font-family="Verdana" font-weight="bold" font-size="8.00">PhpCsSource</text>
<polygon fill="none" stroke="black" points="721,-706 721,-712 966,-712 966,-706 721,-706"/>
<polygon fill="none" stroke="black" points="721,-674 721,-706 966,-706 966,-674 721,-674"/>
<text text-anchor="start" x="726" y="-694.6" font-family="Verdana" font-size="8.00">+ __construct(normalizers : iterable = [])</text>
<text text-anchor="start" x="726" y="-681.6" font-family="Verdana" font-size="8.00">+ «static» fromFile(filename : string, format : string) : self</text>
</g>
<!-- Bartlett\\Sarif\\Converter\\Source\\AbstractSource -->
<g id="node7" class="node">
<title>Bartlett\\Sarif\\Converter\\Source\\AbstractSource</title>
<polygon fill="#fefece" stroke="transparent" points="1006,-508 680,-508 680,-344 1006,-344 1006,-508"/>
<polygon fill="#eeeeee" stroke="transparent" points="680,-486 680,-508 1006,-508 1006,-486 680,-486"/>
<polygon fill="none" stroke="black" points="680,-486 680,-508 1006,-508 1006,-486 680,-486"/>
<text text-anchor="start" x="819" y="-499.6" font-family="Verdana" font-weight="bold" font-size="8.00">«abstract»</text>
<text text-anchor="start" x="808.5" y="-491.6" font-family="Verdana" font-weight="bold" font-size="8.00">AbstractSource</text>
<polygon fill="none" stroke="black" points="680,-454 680,-486 1006,-486 1006,-454 680,-454"/>
<text text-anchor="start" x="685" y="-474.6" font-family="Verdana" font-size="8.00">– normalizers : mixed</text>
<text text-anchor="start" x="685" y="-461.6" font-family="Verdana" font-size="8.00">– normalized</text>
<polygon fill="none" stroke="black" points="680,-344 680,-454 1006,-454 1006,-344 680,-344"/>
<text text-anchor="start" x="685" y="-442.6" font-family="Verdana" font-size="8.00">+ __construct(normalizers : iterable = [])</text>
<text text-anchor="start" x="685" y="-429.6" font-family="Verdana" font-size="8.00">+ getName() : string</text>
<text text-anchor="start" x="685" y="-416.6" font-family="Verdana" font-size="8.00">+ getFiles() : Iterator</text>
<text text-anchor="start" x="685" y="-403.6" font-family="Verdana" font-size="8.00">+ getErrors() : Iterator</text>
<text text-anchor="start" x="685" y="-390.6" font-family="Verdana" font-size="8.00">+ getRules() : Iterator</text>
<text text-anchor="start" x="685" y="-377.6" font-family="Verdana" font-size="8.00">+ getAttribute(name : string) : Iterator</text>
<text text-anchor="start" x="685" y="-364.6" font-family="Verdana" font-size="8.00">+ normalize(data, format : string, context : array) : void</text>
<text text-anchor="start" x="685" y="-351.6" font-family="Verdana" font-size="8.00"># getNormalizer(format : string) : ?Bartlett\Sarif\Contract\NormalizerInterface</text>
</g>
<!-- Bartlett\\Sarif\\Converter\\Source\\PhpCsSource&#45;&gt;Bartlett\\Sarif\\Converter\\Source\\AbstractSource -->
<g id="edge4" class="edge">
<title>Bartlett\\Sarif\\Converter\\Source\\PhpCsSource&#45;&gt;Bartlett\\Sarif\\Converter\\Source\\AbstractSource</title>
<path fill="none" stroke="black" d="M843,-673.98C843,-637.32 843,-572.47 843,-518.42"/>
<polygon fill="none" stroke="black" points="846.5,-518.12 843,-508.12 839.5,-518.12 846.5,-518.12"/>
</g>
<!-- Bartlett\\Sarif\\Converter\\Source\\AbstractSource&#45;&gt;Bartlett\\Sarif\\Contract\\SourceInterface -->
<g id="edge3" class="edge">
<title>Bartlett\\Sarif\\Converter\\Source\\AbstractSource&#45;&gt;Bartlett\\Sarif\\Contract\\SourceInterface</title>
<path fill="none" stroke="black" stroke-dasharray="5,2" d="M840.55,-343.66C838.83,-286.41 836.56,-210.78 834.96,-157.53"/>
<polygon fill="none" stroke="black" points="838.45,-157.41 834.65,-147.52 831.46,-157.62 838.45,-157.41"/>
</g>
<!-- Bartlett\\Sarif\\Converter\\Normalizer\\PhpCsNormalizer -->
<g id="node8" class="node">
<title>Bartlett\\Sarif\\Converter\\Normalizer\\PhpCsNormalizer</title>
<polygon fill="#fefece" stroke="transparent" points="1325,-498 1039,-498 1039,-354 1325,-354 1325,-498"/>
<polygon fill="#eeeeee" stroke="transparent" points="1039,-476 1039,-498 1325,-498 1325,-476 1039,-476"/>
<polygon fill="none" stroke="black" points="1039,-476 1039,-498 1325,-498 1325,-476 1039,-476"/>
<text text-anchor="start" x="1143" y="-481.6" font-family="Verdana" font-weight="bold" font-size="8.00">PhpCsNormalizer</text>
<polygon fill="none" stroke="black" points="1039,-418 1039,-476 1325,-476 1325,-418 1039,-418"/>
<text text-anchor="start" x="1044" y="-464.6" font-family="Verdana" font-size="8.00">+ «static» FORMAT_JSON : string = &quot;json&quot; {readOnly}</text>
<text text-anchor="start" x="1044" y="-451.6" font-family="Verdana" font-size="8.00">+ «static» FORMAT_XML : string = &quot;xml&quot; {readOnly}</text>
<text text-anchor="start" x="1044" y="-438.6" font-family="Verdana" font-size="8.00">+ «static» FORMAT_CHECKSTYLE : string = &quot;checkstyle&quot; {readOnly}</text>
<text text-anchor="start" x="1044" y="-425.6" font-family="Verdana" font-size="8.00">+ «static» FORMAT_INTERNAL : string = &quot;internal&quot; {readOnly}</text>
<polygon fill="none" stroke="black" points="1039,-412 1039,-418 1325,-418 1325,-412 1039,-412"/>
<polygon fill="none" stroke="black" points="1039,-354 1039,-412 1325,-412 1325,-354 1039,-354"/>
<text text-anchor="start" x="1044" y="-400.6" font-family="Verdana" font-size="8.00">+ getSupportedFormats() : array</text>
<text text-anchor="start" x="1044" y="-387.6" font-family="Verdana" font-size="8.00">+ normalize(data, format : string, context : array) : ?ArrayObject</text>
<text text-anchor="start" x="1044" y="-374.6" font-family="Verdana" font-size="8.00">– fromInternal(data : array, mapping : array) : array</text>
<text text-anchor="start" x="1044" y="-361.6" font-family="Verdana" font-size="8.00">– fromJson(data : string, mapping : array) : array</text>
</g>
<!-- Bartlett\\Sarif\\Converter\\Normalizer\\PhpCsNormalizer&#45;&gt;Bartlett\\Sarif\\Contract\\NormalizerInterface -->
<g id="edge5" class="edge">
<title>Bartlett\\Sarif\\Converter\\Normalizer\\PhpCsNormalizer&#45;&gt;Bartlett\\Sarif\\Contract\\NormalizerInterface</title>
<path fill="none" stroke="black" stroke-dasharray="5,2" d="M1182,-353.67C1182,-296.64 1182,-217.18 1182,-160.93"/>
<polygon fill="none" stroke="black" points="1185.5,-160.7 1182,-150.7 1178.5,-160.7 1185.5,-160.7"/>
</g>
</g>
</svg>
