<?xml version="1.0" encoding="UTF-8" standalone="no"?>
<!DOCTYPE svg PUBLIC "-//W3C//DTD SVG 1.1//EN"
 "http://www.w3.org/Graphics/SVG/1.1/DTD/svg11.dtd">
<!-- Generated by graphviz version 2.42.4 (0)
 -->
<!-- Pages: 1 -->
<svg width="2262pt" height="937pt"
 viewBox="0.00 0.00 2262.00 937.00" xmlns="http://www.w3.org/2000/svg" xmlns:xlink="http://www.w3.org/1999/xlink">
<g id="graph0" class="graph" transform="scale(1 1) rotate(0) translate(4 933)">
<g id="clust1" class="cluster">
<title>cluster_0</title>
<polygon fill="BurlyWood" stroke="black" points="8,-219 8,-908 664,-908 664,-219 8,-219"/>
<text text-anchor="middle" x="336" y="-892.8" font-family="Times,serif" font-size="14.00">Bartlett\Sarif\Converter</text>
</g>
<g id="clust2" class="cluster">
<title>cluster_1</title>
<polygon fill="LightSkyBlue" stroke="black" points="450,-8 450,-211 1804,-211 1804,-8 450,-8"/>
<text text-anchor="middle" x="1127" y="-195.8" font-family="Times,serif" font-size="14.00">Bartlett\Sarif\Contract</text>
</g>
<g id="clust3" class="cluster">
<title>cluster_2</title>
<polygon fill="Bisque" stroke="black" points="672,-414 672,-921 1244,-921 1244,-414 672,-414"/>
<text text-anchor="middle" x="958" y="-905.8" font-family="Times,serif" font-size="14.00">Bartlett\Sarif\Converter\Source</text>
</g>
<g id="clust4" class="cluster">
<title>cluster_3</title>
<polygon fill="Bisque" stroke="black" points="1252,-411 1252,-902.5 1574,-902.5 1574,-411 1252,-411"/>
<text text-anchor="middle" x="1413" y="-887.3" font-family="Times,serif" font-size="14.00">Bartlett\Sarif\Converter\Normalizer</text>
</g>
<g id="clust5" class="cluster">
<title>cluster_4</title>
<polygon fill="transparent" stroke="black" points="1582,-404.5 1582,-626.5 2246,-626.5 2246,-404.5 1582,-404.5"/>
<text text-anchor="middle" x="1914" y="-611.3" font-family="Times,serif" font-size="14.00">Bartlett\Sarif\Converter\Case</text>
</g>
<!-- Bartlett\\Sarif\\Converter\\EcsConverter -->
<g id="node1" class="node">
<title>Bartlett\\Sarif\\Converter\\EcsConverter</title>
<polygon fill="#fefece" stroke="transparent" points="419,-877 253,-877 253,-830 419,-830 419,-877"/>
<polygon fill="#eeeeee" stroke="transparent" points="253,-854.5 253,-876.5 419,-876.5 419,-854.5 253,-854.5"/>
<polygon fill="none" stroke="black" points="253,-854.5 253,-876.5 419,-876.5 419,-854.5 253,-854.5"/>
<text text-anchor="start" x="306.5" y="-860.1" font-family="Verdana" font-weight="bold" font-size="8.00">EcsConverter</text>
<polygon fill="none" stroke="black" points="253,-848.5 253,-854.5 419,-854.5 419,-848.5 253,-848.5"/>
<polygon fill="none" stroke="black" points="253,-829.5 253,-848.5 419,-848.5 419,-829.5 253,-829.5"/>
<text text-anchor="start" x="258" y="-837.1" font-family="Verdana" font-size="8.00">+ configure(options : array = []) : void</text>
</g>
<!-- Bartlett\\Sarif\\Converter\\AbstractConverter -->
<g id="node2" class="node">
<title>Bartlett\\Sarif\\Converter\\AbstractConverter</title>
<polygon fill="#fefece" stroke="transparent" points="655.5,-781 16.5,-781 16.5,-227 655.5,-227 655.5,-781"/>
<polygon fill="#eeeeee" stroke="transparent" points="17,-759 17,-781 656,-781 656,-759 17,-759"/>
<polygon fill="none" stroke="black" points="17,-759 17,-781 656,-781 656,-759 17,-759"/>
<text text-anchor="start" x="312.5" y="-772.6" font-family="Verdana" font-weight="bold" font-size="8.00">«abstract»</text>
<text text-anchor="start" x="295.5" y="-764.6" font-family="Verdana" font-weight="bold" font-size="8.00">AbstractConverter</text>
<polygon fill="none" stroke="black" points="17,-519 17,-759 656,-759 656,-519 17,-519"/>
<text text-anchor="start" x="22" y="-747.6" font-family="Verdana" font-size="8.00"># toolName</text>
<text text-anchor="start" x="22" y="-734.6" font-family="Verdana" font-size="8.00"># toolFullName</text>
<text text-anchor="start" x="22" y="-721.6" font-family="Verdana" font-size="8.00"># toolShortDescription</text>
<text text-anchor="start" x="22" y="-708.6" font-family="Verdana" font-size="8.00"># toolFullDescription</text>
<text text-anchor="start" x="22" y="-695.6" font-family="Verdana" font-size="8.00"># toolInformationUri</text>
<text text-anchor="start" x="22" y="-682.6" font-family="Verdana" font-size="8.00"># toolComposerPackage</text>
<text text-anchor="start" x="22" y="-669.6" font-family="Verdana" font-size="8.00"># toolVersion</text>
<text text-anchor="start" x="22" y="-656.6" font-family="Verdana" font-size="8.00"># toolSemanticVersion</text>
<text text-anchor="start" x="22" y="-643.6" font-family="Verdana" font-size="8.00"># converterComposerPackage</text>
<text text-anchor="start" x="22" y="-630.6" font-family="Verdana" font-size="8.00"># results : mixed = []</text>
<text text-anchor="start" x="22" y="-617.6" font-family="Verdana" font-size="8.00"># errors : mixed = []</text>
<text text-anchor="start" x="22" y="-604.6" font-family="Verdana" font-size="8.00"># serializer</text>
<text text-anchor="start" x="22" y="-591.6" font-family="Verdana" font-size="8.00"># startTime</text>
<text text-anchor="start" x="22" y="-578.6" font-family="Verdana" font-size="8.00"># endTime</text>
<text text-anchor="start" x="22" y="-565.6" font-family="Verdana" font-size="8.00"># includeCodeSnippets</text>
<text text-anchor="start" x="22" y="-552.6" font-family="Verdana" font-size="8.00"># includeContextRegion</text>
<text text-anchor="start" x="22" y="-539.6" font-family="Verdana" font-size="8.00"># defaultResultLevelIfEmpty</text>
<text text-anchor="start" x="22" y="-526.6" font-family="Verdana" font-size="8.00"># projectDirectory</text>
<polygon fill="none" stroke="black" points="17,-227 17,-519 656,-519 656,-227 17,-227"/>
<text text-anchor="start" x="22" y="-507.6" font-family="Verdana" font-size="8.00">+ __construct(options : array = [], factory : Bartlett\Sarif\Factory\SerializerFactory = «unknown»)</text>
<text text-anchor="start" x="22" y="-494.6" font-family="Verdana" font-size="8.00">+ getName() : string</text>
<text text-anchor="start" x="22" y="-481.6" font-family="Verdana" font-size="8.00">+ configure(options : array) : void</text>
<text text-anchor="start" x="22" y="-468.6" font-family="Verdana" font-size="8.00">+ toolDriver() : Bartlett\Sarif\Definition\ToolComponent</text>
<text text-anchor="start" x="22" y="-455.6" font-family="Verdana" font-size="8.00">+ toolExtensions() : array</text>
<text text-anchor="start" x="22" y="-442.6" font-family="Verdana" font-size="8.00">+ rules(defined : iterable) : array</text>
<text text-anchor="start" x="22" y="-429.6" font-family="Verdana" font-size="8.00">+ results(normalized : iterable) : void</text>
<text text-anchor="start" x="22" y="-416.6" font-family="Verdana" font-size="8.00">+ sarifLog(runs : array = [], version : string = &#39;2\.1\.0&#39;) : ?string</text>
<text text-anchor="start" x="22" y="-403.6" font-family="Verdana" font-size="8.00">+ invocations(properties : Bartlett\Sarif\Definition\PropertyBag = «unknown») : array</text>
<text text-anchor="start" x="22" y="-390.6" font-family="Verdana" font-size="8.00">+ versionControlDetails() : array</text>
<text text-anchor="start" x="22" y="-377.6" font-family="Verdana" font-size="8.00">+ automationDetails() : Bartlett\Sarif\Definition\RunAutomationDetails</text>
<text text-anchor="start" x="22" y="-364.6" font-family="Verdana" font-size="8.00">+ run(invocations : iterable, rules : iterable) : Bartlett\Sarif\Definition\Run</text>
<text text-anchor="start" x="22" y="-351.6" font-family="Verdana" font-size="8.00"># originalUriBaseIdentifiers() : array</text>
<text text-anchor="start" x="22" y="-338.6" font-family="Verdana" font-size="8.00"># getToolVersion(package : string) : string</text>
<text text-anchor="start" x="22" y="-325.6" font-family="Verdana" font-size="8.00"># pathToArtifactLocation(path : string) : string</text>
<text text-anchor="start" x="22" y="-312.6" font-family="Verdana" font-size="8.00"># pathToUri(path : string) : string</text>
<text text-anchor="start" x="22" y="-299.6" font-family="Verdana" font-size="8.00"># getCodeSnippet(filePath : string, lineNumber : int, linesBefore : int, linesAfter : int) : ?string</text>
<text text-anchor="start" x="22" y="-286.6" font-family="Verdana" font-size="8.00"># getSnippetRegion(filePath : string, lineNumber : int, column : int = «unknown», linesBefore : int = 2, linesAfter : int = 2) : Bartlett\Sarif\Definition\Region</text>
<text text-anchor="start" x="22" y="-273.6" font-family="Verdana" font-size="8.00"># getErrors() : Iterator</text>
<text text-anchor="start" x="22" y="-260.6" font-family="Verdana" font-size="8.00"># multiformatMessageString(def : mixed) : Bartlett\Sarif\Definition\MultiformatMessageString</text>
<text text-anchor="start" x="22" y="-247.6" font-family="Verdana" font-size="8.00"># message(def : mixed) : Bartlett\Sarif\Definition\Message</text>
<text text-anchor="start" x="22" y="-234.6" font-family="Verdana" font-size="8.00">– multiformatMessage(def, message) : object</text>
</g>
<!-- Bartlett\\Sarif\\Converter\\EcsConverter&#45;&gt;Bartlett\\Sarif\\Converter\\AbstractConverter -->
<g id="edge2" class="edge">
<title>Bartlett\\Sarif\\Converter\\EcsConverter&#45;&gt;Bartlett\\Sarif\\Converter\\AbstractConverter</title>
<path fill="none" stroke="black" d="M336,-829.97C336,-819.79 336,-806.62 336,-791.44"/>
<polygon fill="none" stroke="black" points="339.5,-791.18 336,-781.18 332.5,-791.18 339.5,-791.18"/>
</g>
<!-- Bartlett\\Sarif\\Contract\\ConverterInterface -->
<g id="node3" class="node">
<title>Bartlett\\Sarif\\Contract\\ConverterInterface</title>
<polygon fill="#fefece" stroke="transparent" points="862,-180 458,-180 458,-16 862,-16 862,-180"/>
<polygon fill="#eeeeee" stroke="transparent" points="458,-158 458,-180 862,-180 862,-158 458,-158"/>
<polygon fill="none" stroke="black" points="458,-158 458,-180 862,-180 862,-158 458,-158"/>
<text text-anchor="start" x="634" y="-171.6" font-family="Verdana" font-weight="bold" font-size="8.00">«interface»</text>
<text text-anchor="start" x="617.5" y="-163.6" font-family="Verdana" font-weight="bold" font-size="8.00">ConverterInterface</text>
<polygon fill="none" stroke="black" points="458,-152 458,-158 862,-158 862,-152 458,-152"/>
<polygon fill="none" stroke="black" points="458,-16 458,-152 862,-152 862,-16 458,-16"/>
<text text-anchor="start" x="463" y="-140.6" font-family="Verdana" font-size="8.00">+ «abstract» getName() : string</text>
<text text-anchor="start" x="463" y="-127.6" font-family="Verdana" font-size="8.00">+ «abstract» toolDriver() : Bartlett\Sarif\Definition\ToolComponent</text>
<text text-anchor="start" x="463" y="-114.6" font-family="Verdana" font-size="8.00">+ «abstract» toolExtensions() : array</text>
<text text-anchor="start" x="463" y="-101.6" font-family="Verdana" font-size="8.00">+ «abstract» rules(defined : iterable) : array</text>
<text text-anchor="start" x="463" y="-88.6" font-family="Verdana" font-size="8.00">+ «abstract» results(normalized : iterable) : void</text>
<text text-anchor="start" x="463" y="-75.6" font-family="Verdana" font-size="8.00">+ «abstract» invocations(properties : Bartlett\Sarif\Definition\PropertyBag = «unknown») : array</text>
<text text-anchor="start" x="463" y="-62.6" font-family="Verdana" font-size="8.00">+ «abstract» versionControlDetails() : array</text>
<text text-anchor="start" x="463" y="-49.6" font-family="Verdana" font-size="8.00">+ «abstract» automationDetails() : Bartlett\Sarif\Definition\RunAutomationDetails</text>
<text text-anchor="start" x="463" y="-36.6" font-family="Verdana" font-size="8.00">+ «abstract» run(invocations : iterable, rules : iterable) : Bartlett\Sarif\Definition\Run</text>
<text text-anchor="start" x="463" y="-23.6" font-family="Verdana" font-size="8.00">+ «abstract» sarifLog(runs : array = [], version : string = &#39;2\.1\.0&#39;) : ?string</text>
</g>
<!-- Bartlett\\Sarif\\Converter\\AbstractConverter&#45;&gt;Bartlett\\Sarif\\Contract\\ConverterInterface -->
<g id="edge1" class="edge">
<title>Bartlett\\Sarif\\Converter\\AbstractConverter&#45;&gt;Bartlett\\Sarif\\Contract\\ConverterInterface</title>
<path fill="none" stroke="black" stroke-dasharray="5,2" d="M557.48,-226.83C568.34,-213.29 578.79,-200.26 588.58,-188.05"/>
<polygon fill="none" stroke="black" points="591.39,-190.14 594.92,-180.15 585.93,-185.76 591.39,-190.14"/>
</g>
<!-- Bartlett\\Sarif\\Contract\\SourceInterface -->
<g id="node4" class="node">
<title>Bartlett\\Sarif\\Contract\\SourceInterface</title>
<polygon fill="#fefece" stroke="transparent" points="1194,-154 880,-154 880,-42 1194,-42 1194,-154"/>
<polygon fill="#eeeeee" stroke="transparent" points="880,-132 880,-154 1194,-154 1194,-132 880,-132"/>
<polygon fill="none" stroke="black" points="880,-132 880,-154 1194,-154 1194,-132 880,-132"/>
<text text-anchor="start" x="1011" y="-145.6" font-family="Verdana" font-weight="bold" font-size="8.00">«interface»</text>
<text text-anchor="start" x="1001" y="-137.6" font-family="Verdana" font-weight="bold" font-size="8.00">SourceInterface</text>
<polygon fill="none" stroke="black" points="880,-126 880,-132 1194,-132 1194,-126 880,-126"/>
<polygon fill="none" stroke="black" points="880,-42 880,-126 1194,-126 1194,-42 880,-42"/>
<text text-anchor="start" x="885" y="-114.6" font-family="Verdana" font-size="8.00">+ «abstract» getName() : string</text>
<text text-anchor="start" x="885" y="-101.6" font-family="Verdana" font-size="8.00">+ «abstract» getFiles() : Iterator</text>
<text text-anchor="start" x="885" y="-88.6" font-family="Verdana" font-size="8.00">+ «abstract» getErrors() : Iterator</text>
<text text-anchor="start" x="885" y="-75.6" font-family="Verdana" font-size="8.00">+ «abstract» getRules() : Iterator</text>
<text text-anchor="start" x="885" y="-62.6" font-family="Verdana" font-size="8.00">+ «abstract» getAttribute(name : string) : Iterator</text>
<text text-anchor="start" x="885" y="-49.6" font-family="Verdana" font-size="8.00">+ «abstract» normalize(data : mixed, format : string, context : array) : bool</text>
</g>
<!-- Bartlett\\Sarif\\Contract\\NormalizerInterface -->
<g id="node5" class="node">
<title>Bartlett\\Sarif\\Contract\\NormalizerInterface</title>
<polygon fill="#fefece" stroke="transparent" points="1560,-176.5 1212,-176.5 1212,-19.5 1560,-19.5 1560,-176.5"/>
<polygon fill="#eeeeee" stroke="transparent" points="1212,-154 1212,-176 1560,-176 1560,-154 1212,-154"/>
<polygon fill="none" stroke="black" points="1212,-154 1212,-176 1560,-176 1560,-154 1212,-154"/>
<text text-anchor="start" x="1360" y="-167.6" font-family="Verdana" font-weight="bold" font-size="8.00">«interface»</text>
<text text-anchor="start" x="1341" y="-159.6" font-family="Verdana" font-weight="bold" font-size="8.00">NormalizerInterface</text>
<polygon fill="none" stroke="black" points="1212,-70 1212,-154 1560,-154 1560,-70 1212,-70"/>
<text text-anchor="start" x="1217" y="-142.6" font-family="Verdana" font-size="8.00">+ «static» FORMAT_SARIF : string = &quot;sarif&quot; {readOnly}</text>
<text text-anchor="start" x="1217" y="-129.6" font-family="Verdana" font-size="8.00">+ «static» FORMAT_JSON : string = &quot;json&quot; {readOnly}</text>
<text text-anchor="start" x="1217" y="-116.6" font-family="Verdana" font-size="8.00">+ «static» FORMAT_XML : string = &quot;xml&quot; {readOnly}</text>
<text text-anchor="start" x="1217" y="-103.6" font-family="Verdana" font-size="8.00">+ «static» FORMAT_CHECKSTYLE : string = &quot;checkstyle&quot; {readOnly}</text>
<text text-anchor="start" x="1217" y="-90.6" font-family="Verdana" font-size="8.00">+ «static» FORMAT_GITLAB : string = &quot;gitlab&quot; {readOnly}</text>
<text text-anchor="start" x="1217" y="-77.6" font-family="Verdana" font-size="8.00">+ «static» FORMAT_INTERNAL : string = &quot;internal&quot; {readOnly}</text>
<polygon fill="none" stroke="black" points="1212,-64 1212,-70 1560,-70 1560,-64 1212,-64"/>
<polygon fill="none" stroke="black" points="1212,-19 1212,-64 1560,-64 1560,-19 1212,-19"/>
<text text-anchor="start" x="1217" y="-52.6" font-family="Verdana" font-size="8.00">+ «abstract» getSupportedFormats() : array</text>
<text text-anchor="start" x="1217" y="-39.6" font-family="Verdana" font-size="8.00">+ «abstract» isSupportedFormat(format : string) : bool</text>
<text text-anchor="start" x="1217" y="-26.6" font-family="Verdana" font-size="8.00">+ «abstract» normalize(data : mixed, format : string, context : array) : ?ArrayObject</text>
</g>
<!-- Bartlett\\Sarif\\Contract\\HelpUriCaseConverterInterface -->
<g id="node6" class="node">
<title>Bartlett\\Sarif\\Contract\\HelpUriCaseConverterInterface</title>
<polygon fill="#fefece" stroke="transparent" points="1796,-121.5 1578,-121.5 1578,-74.5 1796,-74.5 1796,-121.5"/>
<polygon fill="#eeeeee" stroke="transparent" points="1578,-99 1578,-121 1796,-121 1796,-99 1578,-99"/>
<polygon fill="none" stroke="black" points="1578,-99 1578,-121 1796,-121 1796,-99 1578,-99"/>
<text text-anchor="start" x="1661" y="-112.6" font-family="Verdana" font-weight="bold" font-size="8.00">«interface»</text>
<text text-anchor="start" x="1616.5" y="-104.6" font-family="Verdana" font-weight="bold" font-size="8.00">HelpUriCaseConverterInterface</text>
<polygon fill="none" stroke="black" points="1578,-93 1578,-99 1796,-99 1796,-93 1578,-93"/>
<polygon fill="none" stroke="black" points="1578,-74 1578,-93 1796,-93 1796,-74 1578,-74"/>
<text text-anchor="start" x="1583" y="-81.6" font-family="Verdana" font-size="8.00">+ «abstract» convert(checkerClass : string) : string</text>
</g>
<!-- Bartlett\\Sarif\\Converter\\Source\\EcsSource -->
<g id="node7" class="node">
<title>Bartlett\\Sarif\\Converter\\Source\\EcsSource</title>
<polygon fill="#fefece" stroke="transparent" points="1235.5,-890 680.5,-890 680.5,-817 1235.5,-817 1235.5,-890"/>
<polygon fill="#eeeeee" stroke="transparent" points="681,-867.5 681,-889.5 1236,-889.5 1236,-867.5 681,-867.5"/>
<polygon fill="none" stroke="black" points="681,-867.5 681,-889.5 1236,-889.5 1236,-867.5 681,-867.5"/>
<text text-anchor="start" x="935.5" y="-873.1" font-family="Verdana" font-weight="bold" font-size="8.00">EcsSource</text>
<polygon fill="none" stroke="black" points="681,-848.5 681,-867.5 1236,-867.5 1236,-848.5 681,-848.5"/>
<text text-anchor="start" x="686" y="-856.1" font-family="Verdana" font-size="8.00">– helpUriCaseConverter</text>
<polygon fill="none" stroke="black" points="681,-816.5 681,-848.5 1236,-848.5 1236,-816.5 681,-816.5"/>
<text text-anchor="start" x="686" y="-837.1" font-family="Verdana" font-size="8.00">+ __construct(normalizers : iterable = [], helpUriCaseConverter : Bartlett\Sarif\Contract\HelpUriCaseConverterInterface = «unknown»)</text>
<text text-anchor="start" x="686" y="-824.1" font-family="Verdana" font-size="8.00">+ getRules() : Iterator</text>
</g>
<!-- Bartlett\\Sarif\\Converter\\Source\\AbstractSource -->
<g id="node8" class="node">
<title>Bartlett\\Sarif\\Converter\\Source\\AbstractSource</title>
<polygon fill="#fefece" stroke="transparent" points="1147,-586 821,-586 821,-422 1147,-422 1147,-586"/>
<polygon fill="#eeeeee" stroke="transparent" points="821,-564 821,-586 1147,-586 1147,-564 821,-564"/>
<polygon fill="none" stroke="black" points="821,-564 821,-586 1147,-586 1147,-564 821,-564"/>
<text text-anchor="start" x="960" y="-577.6" font-family="Verdana" font-weight="bold" font-size="8.00">«abstract»</text>
<text text-anchor="start" x="949.5" y="-569.6" font-family="Verdana" font-weight="bold" font-size="8.00">AbstractSource</text>
<polygon fill="none" stroke="black" points="821,-532 821,-564 1147,-564 1147,-532 821,-532"/>
<text text-anchor="start" x="826" y="-552.6" font-family="Verdana" font-size="8.00">– normalizers : mixed</text>
<text text-anchor="start" x="826" y="-539.6" font-family="Verdana" font-size="8.00">– normalized</text>
<polygon fill="none" stroke="black" points="821,-422 821,-532 1147,-532 1147,-422 821,-422"/>
<text text-anchor="start" x="826" y="-520.6" font-family="Verdana" font-size="8.00">+ __construct(normalizers : iterable = [])</text>
<text text-anchor="start" x="826" y="-507.6" font-family="Verdana" font-size="8.00">+ getName() : string</text>
<text text-anchor="start" x="826" y="-494.6" font-family="Verdana" font-size="8.00">+ getFiles() : Iterator</text>
<text text-anchor="start" x="826" y="-481.6" font-family="Verdana" font-size="8.00">+ getErrors() : Iterator</text>
<text text-anchor="start" x="826" y="-468.6" font-family="Verdana" font-size="8.00">+ getRules() : Iterator</text>
<text text-anchor="start" x="826" y="-455.6" font-family="Verdana" font-size="8.00">+ getAttribute(name : string) : Iterator</text>
<text text-anchor="start" x="826" y="-442.6" font-family="Verdana" font-size="8.00">+ normalize(data : mixed, format : string, context : array) : bool</text>
<text text-anchor="start" x="826" y="-429.6" font-family="Verdana" font-size="8.00"># getNormalizer(format : string) : ?Bartlett\Sarif\Contract\NormalizerInterface</text>
</g>
<!-- Bartlett\\Sarif\\Converter\\Source\\EcsSource&#45;&gt;Bartlett\\Sarif\\Converter\\Source\\AbstractSource -->
<g id="edge4" class="edge">
<title>Bartlett\\Sarif\\Converter\\Source\\EcsSource&#45;&gt;Bartlett\\Sarif\\Converter\\Source\\AbstractSource</title>
<path fill="none" stroke="black" d="M960.66,-816.94C964.51,-765.48 971.77,-668.5 977.17,-596.28"/>
<polygon fill="none" stroke="black" points="980.66,-596.49 977.92,-586.26 973.68,-595.97 980.66,-596.49"/>
</g>
<!-- Bartlett\\Sarif\\Converter\\Source\\AbstractSource&#45;&gt;Bartlett\\Sarif\\Contract\\SourceInterface -->
<g id="edge3" class="edge">
<title>Bartlett\\Sarif\\Converter\\Source\\AbstractSource&#45;&gt;Bartlett\\Sarif\\Contract\\SourceInterface</title>
<path fill="none" stroke="black" stroke-dasharray="5,2" d="M994.66,-421.73C1004.6,-345.96 1019.24,-234.4 1028.44,-164.27"/>
<polygon fill="none" stroke="black" points="1031.92,-164.6 1029.75,-154.23 1024.98,-163.69 1031.92,-164.6"/>
</g>
<!-- Bartlett\\Sarif\\Converter\\Normalizer\\EcsNormalizer -->
<g id="node9" class="node">
<title>Bartlett\\Sarif\\Converter\\Normalizer\\EcsNormalizer</title>
<polygon fill="#fefece" stroke="transparent" points="1448,-871.5 1378,-871.5 1378,-835.5 1448,-835.5 1448,-871.5"/>
<polygon fill="#eeeeee" stroke="transparent" points="1378,-848.5 1378,-870.5 1448,-870.5 1448,-848.5 1378,-848.5"/>
<polygon fill="none" stroke="black" points="1378,-848.5 1378,-870.5 1448,-870.5 1448,-848.5 1378,-848.5"/>
<text text-anchor="start" x="1381" y="-854.1" font-family="Verdana" font-weight="bold" font-size="8.00">EcsNormalizer</text>
<polygon fill="none" stroke="black" points="1378,-842.5 1378,-848.5 1448,-848.5 1448,-842.5 1378,-842.5"/>
<polygon fill="none" stroke="black" points="1378,-836.5 1378,-842.5 1448,-842.5 1448,-836.5 1378,-836.5"/>
</g>
<!-- Bartlett\\Sarif\\Converter\\Normalizer\\AbstractNormalizer -->
<g id="node10" class="node">
<title>Bartlett\\Sarif\\Converter\\Normalizer\\AbstractNormalizer</title>
<polygon fill="#fefece" stroke="transparent" points="1565.5,-589 1260.5,-589 1260.5,-419 1565.5,-419 1565.5,-589"/>
<polygon fill="#eeeeee" stroke="transparent" points="1261,-567 1261,-589 1566,-589 1566,-567 1261,-567"/>
<polygon fill="none" stroke="black" points="1261,-567 1261,-589 1566,-589 1566,-567 1261,-567"/>
<text text-anchor="start" x="1389.5" y="-580.6" font-family="Verdana" font-weight="bold" font-size="8.00">«abstract»</text>
<text text-anchor="start" x="1370" y="-572.6" font-family="Verdana" font-weight="bold" font-size="8.00">AbstractNormalizer</text>
<polygon fill="none" stroke="black" points="1261,-483 1261,-567 1566,-567 1566,-483 1261,-483"/>
<text text-anchor="start" x="1266" y="-555.6" font-family="Verdana" font-size="8.00">+ «static» FORMAT_SARIF : string = &quot;sarif&quot; {readOnly}</text>
<text text-anchor="start" x="1266" y="-542.6" font-family="Verdana" font-size="8.00">+ «static» FORMAT_JSON : string = &quot;json&quot; {readOnly}</text>
<text text-anchor="start" x="1266" y="-529.6" font-family="Verdana" font-size="8.00">+ «static» FORMAT_XML : string = &quot;xml&quot; {readOnly}</text>
<text text-anchor="start" x="1266" y="-516.6" font-family="Verdana" font-size="8.00">+ «static» FORMAT_CHECKSTYLE : string = &quot;checkstyle&quot; {readOnly}</text>
<text text-anchor="start" x="1266" y="-503.6" font-family="Verdana" font-size="8.00">+ «static» FORMAT_GITLAB : string = &quot;gitlab&quot; {readOnly}</text>
<text text-anchor="start" x="1266" y="-490.6" font-family="Verdana" font-size="8.00">+ «static» FORMAT_INTERNAL : string = &quot;internal&quot; {readOnly}</text>
<polygon fill="none" stroke="black" points="1261,-477 1261,-483 1566,-483 1566,-477 1261,-477"/>
<polygon fill="none" stroke="black" points="1261,-419 1261,-477 1566,-477 1566,-419 1261,-419"/>
<text text-anchor="start" x="1266" y="-465.6" font-family="Verdana" font-size="8.00">+ getSupportedFormats() : array</text>
<text text-anchor="start" x="1266" y="-452.6" font-family="Verdana" font-size="8.00">+ isSupportedFormat(format : string) : bool</text>
<text text-anchor="start" x="1266" y="-439.6" font-family="Verdana" font-size="8.00">+ normalize(data, format : string, context : array) : ?ArrayObject</text>
<text text-anchor="start" x="1266" y="-426.6" font-family="Verdana" font-size="8.00"># fromInternal(data : TData, context : array, mapping : array = []) : array</text>
</g>
<!-- Bartlett\\Sarif\\Converter\\Normalizer\\EcsNormalizer&#45;&gt;Bartlett\\Sarif\\Converter\\Normalizer\\AbstractNormalizer -->
<g id="edge6" class="edge">
<title>Bartlett\\Sarif\\Converter\\Normalizer\\EcsNormalizer&#45;&gt;Bartlett\\Sarif\\Converter\\Normalizer\\AbstractNormalizer</title>
<path fill="none" stroke="black" d="M1413,-835.27C1413,-792.87 1413,-680.99 1413,-599.16"/>
<polygon fill="none" stroke="black" points="1416.5,-599.09 1413,-589.09 1409.5,-599.09 1416.5,-599.09"/>
</g>
<!-- Bartlett\\Sarif\\Converter\\Normalizer\\AbstractNormalizer&#45;&gt;Bartlett\\Sarif\\Contract\\NormalizerInterface -->
<g id="edge5" class="edge">
<title>Bartlett\\Sarif\\Converter\\Normalizer\\AbstractNormalizer&#45;&gt;Bartlett\\Sarif\\Contract\\NormalizerInterface</title>
<path fill="none" stroke="black" stroke-dasharray="5,2" d="M1407.37,-418.8C1402.84,-350.94 1396.48,-255.82 1391.88,-186.98"/>
<polygon fill="none" stroke="black" points="1395.34,-186.34 1391.19,-176.59 1388.36,-186.8 1395.34,-186.34"/>
</g>
<!-- Bartlett\\Sarif\\Converter\\Case\\EcsHelpUriCaseConverter -->
<g id="node11" class="node">
<title>Bartlett\\Sarif\\Converter\\Case\\EcsHelpUriCaseConverter</title>
<polygon fill="#fefece" stroke="transparent" points="2238,-595.5 1590,-595.5 1590,-412.5 2238,-412.5 2238,-595.5"/>
<polygon fill="#eeeeee" stroke="transparent" points="1590,-573 1590,-595 2238,-595 2238,-573 1590,-573"/>
<polygon fill="none" stroke="black" points="1590,-573 1590,-595 2238,-595 2238,-573 1590,-573"/>
<text text-anchor="start" x="1856.5" y="-578.6" font-family="Verdana" font-weight="bold" font-size="8.00">EcsHelpUriCaseConverter</text>
<polygon fill="none" stroke="black" points="1590,-515 1590,-573 2238,-573 2238,-515 1590,-515"/>
<text text-anchor="start" x="1595" y="-561.6" font-family="Verdana" font-size="8.00">+ «static» URI_PATTERN_PHPCS : string = &quot;https\:\/\/github\.com\/PHPCSStandards\/PHP_CodeSniffer\/wiki\/Customisable\&#45;Sniff\&#45;Properties\#\%s&quot; {readOnly}</text>
<text text-anchor="start" x="1595" y="-548.6" font-family="Verdana" font-size="8.00">+ «static» URI_PATTERN_PHPCS_FIXER : string = &quot;https\:\/\/cs\.symfony\.com\/doc\/rules\/\%s\/\%s\.html&quot; {readOnly}</text>
<text text-anchor="start" x="1595" y="-535.6" font-family="Verdana" font-size="8.00">+ «static» URI_PATTERN_SYMPLIFY : string = &quot;https\:\/\/github\.com\/symplify\/coding\&#45;standard\#\%s&quot; {readOnly}</text>
<text text-anchor="start" x="1595" y="-522.6" font-family="Verdana" font-size="8.00">+ «static» URI_PATTERN_SLEVOMAT : string = &quot;https\:\/\/github\.com\/slevomat\/coding\&#45;standard\/blob\/master\/doc\/\%s\.md\#\%s\&#45;&quot; {readOnly}</text>
<polygon fill="none" stroke="black" points="1590,-496 1590,-515 2238,-515 2238,-496 1590,-496"/>
<text text-anchor="start" x="1595" y="-503.6" font-family="Verdana" font-size="8.00">– caseConverter</text>
<polygon fill="none" stroke="black" points="1590,-412 1590,-496 2238,-496 2238,-412 1590,-412"/>
<text text-anchor="start" x="1595" y="-484.6" font-family="Verdana" font-size="8.00">+ __construct(caseConverter : Jawira\CaseConverter\CaseConverterInterface = «unknown»)</text>
<text text-anchor="start" x="1595" y="-471.6" font-family="Verdana" font-size="8.00">+ convert(checkerClass : string) : string</text>
<text text-anchor="start" x="1595" y="-458.6" font-family="Verdana" font-size="8.00">– fromPhpCodeSniffer(nameParts : array) : string</text>
<text text-anchor="start" x="1595" y="-445.6" font-family="Verdana" font-size="8.00">– fromPhpCsFixer(nameParts : array) : string</text>
<text text-anchor="start" x="1595" y="-432.6" font-family="Verdana" font-size="8.00">– fromSymplify(nameParts : array) : string</text>
<text text-anchor="start" x="1595" y="-419.6" font-family="Verdana" font-size="8.00">– fromSlevomat(nameParts : array) : string</text>
</g>
<!-- Bartlett\\Sarif\\Converter\\Case\\EcsHelpUriCaseConverter&#45;&gt;Bartlett\\Sarif\\Contract\\HelpUriCaseConverterInterface -->
<g id="edge7" class="edge">
<title>Bartlett\\Sarif\\Converter\\Case\\EcsHelpUriCaseConverter&#45;&gt;Bartlett\\Sarif\\Contract\\HelpUriCaseConverterInterface</title>
<path fill="none" stroke="black" stroke-dasharray="5,2" d="M1863.06,-412.33C1812.68,-322.68 1738.39,-190.47 1704.73,-130.56"/>
<polygon fill="none" stroke="black" points="1707.64,-128.59 1699.69,-121.58 1701.54,-132.02 1707.64,-128.59"/>
</g>
</g>
</svg>
