<?xml version="1.0" encoding="UTF-8" standalone="no"?>
<!DOCTYPE svg PUBLIC "-//W3C//DTD SVG 1.1//EN"
 "http://www.w3.org/Graphics/SVG/1.1/DTD/svg11.dtd">
<!-- Generated by graphviz version 2.42.4 (0)
 -->
<!-- Pages: 1 -->
<svg width="1654pt" height="956pt"
 viewBox="0.00 0.00 1654.00 956.00" xmlns="http://www.w3.org/2000/svg" xmlns:xlink="http://www.w3.org/1999/xlink">
<g id="graph0" class="graph" transform="scale(1 1) rotate(0) translate(4 952)">
<g id="clust1" class="cluster">
<title>cluster_0</title>
<polygon fill="BurlyWood" stroke="black" points="8,-219 8,-924 664,-924 664,-219 8,-219"/>
<text text-anchor="middle" x="336" y="-908.8" font-family="Times,serif" font-size="14.00">Bartlett\Sarif\Converter</text>
</g>
<g id="clust2" class="cluster">
<title>cluster_1</title>
<polygon fill="LightSkyBlue" stroke="black" points="403,-8 403,-211 1521,-211 1521,-8 403,-8"/>
<text text-anchor="middle" x="962" y="-195.8" font-family="Times,serif" font-size="14.00">Bartlett\Sarif\Contract</text>
</g>
<g id="clust3" class="cluster">
<title>cluster_2</title>
<polygon fill="Bisque" stroke="black" points="672,-414 672,-940 1308,-940 1308,-414 672,-414"/>
<text text-anchor="middle" x="990" y="-924.8" font-family="Times,serif" font-size="14.00">Bartlett\Sarif\Converter\Source</text>
</g>
<g id="clust4" class="cluster">
<title>cluster_3</title>
<polygon fill="Bisque" stroke="black" points="1316,-411 1316,-937 1638,-937 1638,-411 1316,-411"/>
<text text-anchor="middle" x="1477" y="-921.8" font-family="Times,serif" font-size="14.00">Bartlett\Sarif\Converter\Normalizer</text>
</g>
<!-- Bartlett\\Sarif\\Converter\\PhpCsConverter -->
<g id="node1" class="node">
<title>Bartlett\\Sarif\\Converter\\PhpCsConverter</title>
<polygon fill="#fefece" stroke="transparent" points="514.5,-893 157.5,-893 157.5,-833 514.5,-833 514.5,-893"/>
<polygon fill="#eeeeee" stroke="transparent" points="158,-871 158,-893 515,-893 515,-871 158,-871"/>
<polygon fill="none" stroke="black" points="158,-871 158,-893 515,-893 515,-871 158,-871"/>
<text text-anchor="start" x="300" y="-876.6" font-family="Verdana" font-weight="bold" font-size="8.00">PhpCsConverter</text>
<polygon fill="none" stroke="black" points="158,-865 158,-871 515,-871 515,-865 158,-865"/>
<polygon fill="none" stroke="black" points="158,-833 158,-865 515,-865 515,-833 158,-833"/>
<text text-anchor="start" x="163" y="-853.6" font-family="Verdana" font-size="8.00">+ configure(options : array = []) : void</text>
<text text-anchor="start" x="163" y="-840.6" font-family="Verdana" font-size="8.00">+ invocations(properties : Bartlett\Sarif\Definition\PropertyBag = «unknown») : array</text>
</g>
<!-- Bartlett\\Sarif\\Converter\\AbstractConverter -->
<g id="node2" class="node">
<title>Bartlett\\Sarif\\Converter\\AbstractConverter</title>
<polygon fill="#fefece" stroke="transparent" points="655.5,-781 16.5,-781 16.5,-227 655.5,-227 655.5,-781"/>
<polygon fill="#eeeeee" stroke="transparent" points="17,-759 17,-781 656,-781 656,-759 17,-759"/>
<polygon fill="none" stroke="black" points="17,-759 17,-781 656,-781 656,-759 17,-759"/>
<text text-anchor="start" x="312.5" y="-772.6" font-family="Verdana" font-weight="bold" font-size="8.00">«abstract»</text>
<text text-anchor="start" x="295.5" y="-764.6" font-family="Verdana" font-weight="bold" font-size="8.00">AbstractConverter</text>
<polygon fill="none" stroke="black" points="17,-519 17,-759 656,-759 656,-519 17,-519"/>
<text text-anchor="start" x="22" y="-747.6" font-family="Verdana" font-size="8.00"># toolName</text>
<text text-anchor="start" x="22" y="-734.6" font-family="Verdana" font-size="8.00"># toolFullName</text>
<text text-anchor="start" x="22" y="-721.6" font-family="Verdana" font-size="8.00"># toolShortDescription</text>
<text text-anchor="start" x="22" y="-708.6" font-family="Verdana" font-size="8.00"># toolFullDescription</text>
<text text-anchor="start" x="22" y="-695.6" font-family="Verdana" font-size="8.00"># toolInformationUri</text>
<text text-anchor="start" x="22" y="-682.6" font-family="Verdana" font-size="8.00"># toolComposerPackage</text>
<text text-anchor="start" x="22" y="-669.6" font-family="Verdana" font-size="8.00"># toolVersion</text>
<text text-anchor="start" x="22" y="-656.6" font-family="Verdana" font-size="8.00"># toolSemanticVersion</text>
<text text-anchor="start" x="22" y="-643.6" font-family="Verdana" font-size="8.00"># converterComposerPackage</text>
<text text-anchor="start" x="22" y="-630.6" font-family="Verdana" font-size="8.00"># results : mixed = []</text>
<text text-anchor="start" x="22" y="-617.6" font-family="Verdana" font-size="8.00"># errors : mixed = []</text>
<text text-anchor="start" x="22" y="-604.6" font-family="Verdana" font-size="8.00"># serializer</text>
<text text-anchor="start" x="22" y="-591.6" font-family="Verdana" font-size="8.00"># startTime</text>
<text text-anchor="start" x="22" y="-578.6" font-family="Verdana" font-size="8.00"># endTime</text>
<text text-anchor="start" x="22" y="-565.6" font-family="Verdana" font-size="8.00"># includeCodeSnippets</text>
<text text-anchor="start" x="22" y="-552.6" font-family="Verdana" font-size="8.00"># includeContextRegion</text>
<text text-anchor="start" x="22" y="-539.6" font-family="Verdana" font-size="8.00"># defaultResultLevelIfEmpty</text>
<text text-anchor="start" x="22" y="-526.6" font-family="Verdana" font-size="8.00"># projectDirectory</text>
<polygon fill="none" stroke="black" points="17,-227 17,-519 656,-519 656,-227 17,-227"/>
<text text-anchor="start" x="22" y="-507.6" font-family="Verdana" font-size="8.00">+ __construct(options : array = [], factory : Bartlett\Sarif\Factory\SerializerFactory = «unknown»)</text>
<text text-anchor="start" x="22" y="-494.6" font-family="Verdana" font-size="8.00">+ getName() : string</text>
<text text-anchor="start" x="22" y="-481.6" font-family="Verdana" font-size="8.00">+ configure(options : array) : void</text>
<text text-anchor="start" x="22" y="-468.6" font-family="Verdana" font-size="8.00">+ toolDriver() : Bartlett\Sarif\Definition\ToolComponent</text>
<text text-anchor="start" x="22" y="-455.6" font-family="Verdana" font-size="8.00">+ toolExtensions() : array</text>
<text text-anchor="start" x="22" y="-442.6" font-family="Verdana" font-size="8.00">+ rules(defined : iterable) : array</text>
<text text-anchor="start" x="22" y="-429.6" font-family="Verdana" font-size="8.00">+ results(normalized : iterable) : void</text>
<text text-anchor="start" x="22" y="-416.6" font-family="Verdana" font-size="8.00">+ sarifLog(runs : array = [], version : string = &#39;2\.1\.0&#39;) : ?string</text>
<text text-anchor="start" x="22" y="-403.6" font-family="Verdana" font-size="8.00">+ invocations(properties : Bartlett\Sarif\Definition\PropertyBag = «unknown») : array</text>
<text text-anchor="start" x="22" y="-390.6" font-family="Verdana" font-size="8.00">+ versionControlDetails() : array</text>
<text text-anchor="start" x="22" y="-377.6" font-family="Verdana" font-size="8.00">+ automationDetails() : Bartlett\Sarif\Definition\RunAutomationDetails</text>
<text text-anchor="start" x="22" y="-364.6" font-family="Verdana" font-size="8.00">+ run(invocations : iterable, rules : iterable) : Bartlett\Sarif\Definition\Run</text>
<text text-anchor="start" x="22" y="-351.6" font-family="Verdana" font-size="8.00"># originalUriBaseIdentifiers() : array</text>
<text text-anchor="start" x="22" y="-338.6" font-family="Verdana" font-size="8.00"># getToolVersion(package : string) : string</text>
<text text-anchor="start" x="22" y="-325.6" font-family="Verdana" font-size="8.00"># pathToArtifactLocation(path : string) : string</text>
<text text-anchor="start" x="22" y="-312.6" font-family="Verdana" font-size="8.00"># pathToUri(path : string) : string</text>
<text text-anchor="start" x="22" y="-299.6" font-family="Verdana" font-size="8.00"># getCodeSnippet(filePath : string, lineNumber : int, linesBefore : int, linesAfter : int) : ?string</text>
<text text-anchor="start" x="22" y="-286.6" font-family="Verdana" font-size="8.00"># getSnippetRegion(filePath : string, lineNumber : int, column : int = «unknown», linesBefore : int = 2, linesAfter : int = 2) : Bartlett\Sarif\Definition\Region</text>
<text text-anchor="start" x="22" y="-273.6" font-family="Verdana" font-size="8.00"># getErrors() : Iterator</text>
<text text-anchor="start" x="22" y="-260.6" font-family="Verdana" font-size="8.00"># multiformatMessageString(def : mixed) : Bartlett\Sarif\Definition\MultiformatMessageString</text>
<text text-anchor="start" x="22" y="-247.6" font-family="Verdana" font-size="8.00"># message(def : mixed) : Bartlett\Sarif\Definition\Message</text>
<text text-anchor="start" x="22" y="-234.6" font-family="Verdana" font-size="8.00">– multiformatMessage(def, message) : object</text>
</g>
<!-- Bartlett\\Sarif\\Converter\\PhpCsConverter&#45;&gt;Bartlett\\Sarif\\Converter\\AbstractConverter -->
<g id="edge2" class="edge">
<title>Bartlett\\Sarif\\Converter\\PhpCsConverter&#45;&gt;Bartlett\\Sarif\\Converter\\AbstractConverter</title>
<path fill="none" stroke="black" d="M336,-832.79C336,-821.48 336,-807.4 336,-791.49"/>
<polygon fill="none" stroke="black" points="339.5,-791.36 336,-781.36 332.5,-791.36 339.5,-791.36"/>
</g>
<!-- Bartlett\\Sarif\\Contract\\ConverterInterface -->
<g id="node3" class="node">
<title>Bartlett\\Sarif\\Contract\\ConverterInterface</title>
<polygon fill="#fefece" stroke="transparent" points="815,-180 411,-180 411,-16 815,-16 815,-180"/>
<polygon fill="#eeeeee" stroke="transparent" points="411,-158 411,-180 815,-180 815,-158 411,-158"/>
<polygon fill="none" stroke="black" points="411,-158 411,-180 815,-180 815,-158 411,-158"/>
<text text-anchor="start" x="587" y="-171.6" font-family="Verdana" font-weight="bold" font-size="8.00">«interface»</text>
<text text-anchor="start" x="570.5" y="-163.6" font-family="Verdana" font-weight="bold" font-size="8.00">ConverterInterface</text>
<polygon fill="none" stroke="black" points="411,-152 411,-158 815,-158 815,-152 411,-152"/>
<polygon fill="none" stroke="black" points="411,-16 411,-152 815,-152 815,-16 411,-16"/>
<text text-anchor="start" x="416" y="-140.6" font-family="Verdana" font-size="8.00">+ «abstract» getName() : string</text>
<text text-anchor="start" x="416" y="-127.6" font-family="Verdana" font-size="8.00">+ «abstract» toolDriver() : Bartlett\Sarif\Definition\ToolComponent</text>
<text text-anchor="start" x="416" y="-114.6" font-family="Verdana" font-size="8.00">+ «abstract» toolExtensions() : array</text>
<text text-anchor="start" x="416" y="-101.6" font-family="Verdana" font-size="8.00">+ «abstract» rules(defined : iterable) : array</text>
<text text-anchor="start" x="416" y="-88.6" font-family="Verdana" font-size="8.00">+ «abstract» results(normalized : iterable) : void</text>
<text text-anchor="start" x="416" y="-75.6" font-family="Verdana" font-size="8.00">+ «abstract» invocations(properties : Bartlett\Sarif\Definition\PropertyBag = «unknown») : array</text>
<text text-anchor="start" x="416" y="-62.6" font-family="Verdana" font-size="8.00">+ «abstract» versionControlDetails() : array</text>
<text text-anchor="start" x="416" y="-49.6" font-family="Verdana" font-size="8.00">+ «abstract» automationDetails() : Bartlett\Sarif\Definition\RunAutomationDetails</text>
<text text-anchor="start" x="416" y="-36.6" font-family="Verdana" font-size="8.00">+ «abstract» run(invocations : iterable, rules : iterable) : Bartlett\Sarif\Definition\Run</text>
<text text-anchor="start" x="416" y="-23.6" font-family="Verdana" font-size="8.00">+ «abstract» sarifLog(runs : array = [], version : string = &#39;2\.1\.0&#39;) : ?string</text>
</g>
<!-- Bartlett\\Sarif\\Converter\\AbstractConverter&#45;&gt;Bartlett\\Sarif\\Contract\\ConverterInterface -->
<g id="edge1" class="edge">
<title>Bartlett\\Sarif\\Converter\\AbstractConverter&#45;&gt;Bartlett\\Sarif\\Contract\\ConverterInterface</title>
<path fill="none" stroke="black" stroke-dasharray="5,2" d="M525.36,-226.83C534.55,-213.42 543.4,-200.51 551.7,-188.4"/>
<polygon fill="none" stroke="black" points="554.59,-190.37 557.36,-180.15 548.82,-186.42 554.59,-190.37"/>
</g>
<!-- Bartlett\\Sarif\\Contract\\SourceInterface -->
<g id="node4" class="node">
<title>Bartlett\\Sarif\\Contract\\SourceInterface</title>
<polygon fill="#fefece" stroke="transparent" points="1147,-154 833,-154 833,-42 1147,-42 1147,-154"/>
<polygon fill="#eeeeee" stroke="transparent" points="833,-132 833,-154 1147,-154 1147,-132 833,-132"/>
<polygon fill="none" stroke="black" points="833,-132 833,-154 1147,-154 1147,-132 833,-132"/>
<text text-anchor="start" x="964" y="-145.6" font-family="Verdana" font-weight="bold" font-size="8.00">«interface»</text>
<text text-anchor="start" x="954" y="-137.6" font-family="Verdana" font-weight="bold" font-size="8.00">SourceInterface</text>
<polygon fill="none" stroke="black" points="833,-126 833,-132 1147,-132 1147,-126 833,-126"/>
<polygon fill="none" stroke="black" points="833,-42 833,-126 1147,-126 1147,-42 833,-42"/>
<text text-anchor="start" x="838" y="-114.6" font-family="Verdana" font-size="8.00">+ «abstract» getName() : string</text>
<text text-anchor="start" x="838" y="-101.6" font-family="Verdana" font-size="8.00">+ «abstract» getFiles() : Iterator</text>
<text text-anchor="start" x="838" y="-88.6" font-family="Verdana" font-size="8.00">+ «abstract» getErrors() : Iterator</text>
<text text-anchor="start" x="838" y="-75.6" font-family="Verdana" font-size="8.00">+ «abstract» getRules() : Iterator</text>
<text text-anchor="start" x="838" y="-62.6" font-family="Verdana" font-size="8.00">+ «abstract» getAttribute(name : string) : Iterator</text>
<text text-anchor="start" x="838" y="-49.6" font-family="Verdana" font-size="8.00">+ «abstract» normalize(data : mixed, format : string, context : array) : bool</text>
</g>
<!-- Bartlett\\Sarif\\Contract\\NormalizerInterface -->
<g id="node5" class="node">
<title>Bartlett\\Sarif\\Contract\\NormalizerInterface</title>
<polygon fill="#fefece" stroke="transparent" points="1513,-176.5 1165,-176.5 1165,-19.5 1513,-19.5 1513,-176.5"/>
<polygon fill="#eeeeee" stroke="transparent" points="1165,-154 1165,-176 1513,-176 1513,-154 1165,-154"/>
<polygon fill="none" stroke="black" points="1165,-154 1165,-176 1513,-176 1513,-154 1165,-154"/>
<text text-anchor="start" x="1313" y="-167.6" font-family="Verdana" font-weight="bold" font-size="8.00">«interface»</text>
<text text-anchor="start" x="1294" y="-159.6" font-family="Verdana" font-weight="bold" font-size="8.00">NormalizerInterface</text>
<polygon fill="none" stroke="black" points="1165,-70 1165,-154 1513,-154 1513,-70 1165,-70"/>
<text text-anchor="start" x="1170" y="-142.6" font-family="Verdana" font-size="8.00">+ «static» FORMAT_SARIF : string = &quot;sarif&quot; {readOnly}</text>
<text text-anchor="start" x="1170" y="-129.6" font-family="Verdana" font-size="8.00">+ «static» FORMAT_JSON : string = &quot;json&quot; {readOnly}</text>
<text text-anchor="start" x="1170" y="-116.6" font-family="Verdana" font-size="8.00">+ «static» FORMAT_XML : string = &quot;xml&quot; {readOnly}</text>
<text text-anchor="start" x="1170" y="-103.6" font-family="Verdana" font-size="8.00">+ «static» FORMAT_CHECKSTYLE : string = &quot;checkstyle&quot; {readOnly}</text>
<text text-anchor="start" x="1170" y="-90.6" font-family="Verdana" font-size="8.00">+ «static» FORMAT_GITLAB : string = &quot;gitlab&quot; {readOnly}</text>
<text text-anchor="start" x="1170" y="-77.6" font-family="Verdana" font-size="8.00">+ «static» FORMAT_INTERNAL : string = &quot;internal&quot; {readOnly}</text>
<polygon fill="none" stroke="black" points="1165,-64 1165,-70 1513,-70 1513,-64 1165,-64"/>
<polygon fill="none" stroke="black" points="1165,-19 1165,-64 1513,-64 1513,-19 1165,-19"/>
<text text-anchor="start" x="1170" y="-52.6" font-family="Verdana" font-size="8.00">+ «abstract» getSupportedFormats() : array</text>
<text text-anchor="start" x="1170" y="-39.6" font-family="Verdana" font-size="8.00">+ «abstract» isSupportedFormat(format : string) : bool</text>
<text text-anchor="start" x="1170" y="-26.6" font-family="Verdana" font-size="8.00">+ «abstract» normalize(data : mixed, format : string, context : array) : ?ArrayObject</text>
</g>
<!-- Bartlett\\Sarif\\Converter\\Source\\PhpCsSource -->
<g id="node6" class="node">
<title>Bartlett\\Sarif\\Converter\\Source\\PhpCsSource</title>
<polygon fill="#fefece" stroke="transparent" points="1299.5,-909 680.5,-909 680.5,-817 1299.5,-817 1299.5,-909"/>
<polygon fill="#eeeeee" stroke="transparent" points="681,-887 681,-909 1300,-909 1300,-887 681,-887"/>
<polygon fill="none" stroke="black" points="681,-887 681,-909 1300,-909 1300,-887 681,-887"/>
<text text-anchor="start" x="960.5" y="-892.6" font-family="Verdana" font-weight="bold" font-size="8.00">PhpCsSource</text>
<polygon fill="none" stroke="black" points="681,-868 681,-887 1300,-887 1300,-868 681,-868"/>
<text text-anchor="start" x="686" y="-875.6" font-family="Verdana" font-size="8.00">+ «static» URI_PATTERN : string = &quot;https\:\/\/github\.com\/PHPCSStandards\/PHP_CodeSniffer\/wiki\/Customisable\&#45;Sniff\&#45;Properties\#\%s&quot; {readOnly}</text>
<polygon fill="none" stroke="black" points="681,-862 681,-868 1300,-868 1300,-862 681,-862"/>
<polygon fill="none" stroke="black" points="681,-817 681,-862 1300,-862 1300,-817 681,-817"/>
<text text-anchor="start" x="686" y="-850.6" font-family="Verdana" font-size="8.00">+ __construct(normalizers : iterable = [])</text>
<text text-anchor="start" x="686" y="-837.6" font-family="Verdana" font-size="8.00">+ getRules() : Iterator</text>
<text text-anchor="start" x="686" y="-824.6" font-family="Verdana" font-size="8.00">+ «static» fromFile(filename : string, format : string) : self</text>
</g>
<!-- Bartlett\\Sarif\\Converter\\Source\\AbstractSource -->
<g id="node7" class="node">
<title>Bartlett\\Sarif\\Converter\\Source\\AbstractSource</title>
<polygon fill="#fefece" stroke="transparent" points="1153,-586 827,-586 827,-422 1153,-422 1153,-586"/>
<polygon fill="#eeeeee" stroke="transparent" points="827,-564 827,-586 1153,-586 1153,-564 827,-564"/>
<polygon fill="none" stroke="black" points="827,-564 827,-586 1153,-586 1153,-564 827,-564"/>
<text text-anchor="start" x="966" y="-577.6" font-family="Verdana" font-weight="bold" font-size="8.00">«abstract»</text>
<text text-anchor="start" x="955.5" y="-569.6" font-family="Verdana" font-weight="bold" font-size="8.00">AbstractSource</text>
<polygon fill="none" stroke="black" points="827,-532 827,-564 1153,-564 1153,-532 827,-532"/>
<text text-anchor="start" x="832" y="-552.6" font-family="Verdana" font-size="8.00">– normalizers : mixed</text>
<text text-anchor="start" x="832" y="-539.6" font-family="Verdana" font-size="8.00">– normalized</text>
<polygon fill="none" stroke="black" points="827,-422 827,-532 1153,-532 1153,-422 827,-422"/>
<text text-anchor="start" x="832" y="-520.6" font-family="Verdana" font-size="8.00">+ __construct(normalizers : iterable = [])</text>
<text text-anchor="start" x="832" y="-507.6" font-family="Verdana" font-size="8.00">+ getName() : string</text>
<text text-anchor="start" x="832" y="-494.6" font-family="Verdana" font-size="8.00">+ getFiles() : Iterator</text>
<text text-anchor="start" x="832" y="-481.6" font-family="Verdana" font-size="8.00">+ getErrors() : Iterator</text>
<text text-anchor="start" x="832" y="-468.6" font-family="Verdana" font-size="8.00">+ getRules() : Iterator</text>
<text text-anchor="start" x="832" y="-455.6" font-family="Verdana" font-size="8.00">+ getAttribute(name : string) : Iterator</text>
<text text-anchor="start" x="832" y="-442.6" font-family="Verdana" font-size="8.00">+ normalize(data : mixed, format : string, context : array) : bool</text>
<text text-anchor="start" x="832" y="-429.6" font-family="Verdana" font-size="8.00"># getNormalizer(format : string) : ?Bartlett\Sarif\Contract\NormalizerInterface</text>
</g>
<!-- Bartlett\\Sarif\\Converter\\Source\\PhpCsSource&#45;&gt;Bartlett\\Sarif\\Converter\\Source\\AbstractSource -->
<g id="edge4" class="edge">
<title>Bartlett\\Sarif\\Converter\\Source\\PhpCsSource&#45;&gt;Bartlett\\Sarif\\Converter\\Source\\AbstractSource</title>
<path fill="none" stroke="black" d="M990,-816.79C990,-761.62 990,-666.98 990,-596.41"/>
<polygon fill="none" stroke="black" points="993.5,-596.18 990,-586.18 986.5,-596.18 993.5,-596.18"/>
</g>
<!-- Bartlett\\Sarif\\Converter\\Source\\AbstractSource&#45;&gt;Bartlett\\Sarif\\Contract\\SourceInterface -->
<g id="edge3" class="edge">
<title>Bartlett\\Sarif\\Converter\\Source\\AbstractSource&#45;&gt;Bartlett\\Sarif\\Contract\\SourceInterface</title>
<path fill="none" stroke="black" stroke-dasharray="5,2" d="M990,-421.73C990,-345.96 990,-234.4 990,-164.27"/>
<polygon fill="none" stroke="black" points="993.5,-164.23 990,-154.23 986.5,-164.23 993.5,-164.23"/>
</g>
<!-- Bartlett\\Sarif\\Converter\\Normalizer\\PhpCsNormalizer -->
<g id="node8" class="node">
<title>Bartlett\\Sarif\\Converter\\Normalizer\\PhpCsNormalizer</title>
<polygon fill="#fefece" stroke="transparent" points="1613,-906 1341,-906 1341,-820 1613,-820 1613,-906"/>
<polygon fill="#eeeeee" stroke="transparent" points="1341,-884 1341,-906 1613,-906 1613,-884 1341,-884"/>
<polygon fill="none" stroke="black" points="1341,-884 1341,-906 1613,-906 1613,-884 1341,-884"/>
<text text-anchor="start" x="1438" y="-889.6" font-family="Verdana" font-weight="bold" font-size="8.00">PhpCsNormalizer</text>
<polygon fill="none" stroke="black" points="1341,-878 1341,-884 1613,-884 1613,-878 1341,-878"/>
<polygon fill="none" stroke="black" points="1341,-820 1341,-878 1613,-878 1613,-820 1341,-820"/>
<text text-anchor="start" x="1346" y="-866.6" font-family="Verdana" font-size="8.00">+ getSupportedFormats() : array</text>
<text text-anchor="start" x="1346" y="-853.6" font-family="Verdana" font-size="8.00">+ normalize(data, format : string, context : array) : ?ArrayObject</text>
<text text-anchor="start" x="1346" y="-840.6" font-family="Verdana" font-size="8.00"># fromInternal(data, context : array, mapping : array = []) : array</text>
<text text-anchor="start" x="1346" y="-827.6" font-family="Verdana" font-size="8.00">– fromJson(data : string, mapping : array) : array</text>
</g>
<!-- Bartlett\\Sarif\\Converter\\Normalizer\\AbstractNormalizer -->
<g id="node9" class="node">
<title>Bartlett\\Sarif\\Converter\\Normalizer\\AbstractNormalizer</title>
<polygon fill="#fefece" stroke="transparent" points="1629.5,-589 1324.5,-589 1324.5,-419 1629.5,-419 1629.5,-589"/>
<polygon fill="#eeeeee" stroke="transparent" points="1325,-567 1325,-589 1630,-589 1630,-567 1325,-567"/>
<polygon fill="none" stroke="black" points="1325,-567 1325,-589 1630,-589 1630,-567 1325,-567"/>
<text text-anchor="start" x="1453.5" y="-580.6" font-family="Verdana" font-weight="bold" font-size="8.00">«abstract»</text>
<text text-anchor="start" x="1434" y="-572.6" font-family="Verdana" font-weight="bold" font-size="8.00">AbstractNormalizer</text>
<polygon fill="none" stroke="black" points="1325,-483 1325,-567 1630,-567 1630,-483 1325,-483"/>
<text text-anchor="start" x="1330" y="-555.6" font-family="Verdana" font-size="8.00">+ «static» FORMAT_SARIF : string = &quot;sarif&quot; {readOnly}</text>
<text text-anchor="start" x="1330" y="-542.6" font-family="Verdana" font-size="8.00">+ «static» FORMAT_JSON : string = &quot;json&quot; {readOnly}</text>
<text text-anchor="start" x="1330" y="-529.6" font-family="Verdana" font-size="8.00">+ «static» FORMAT_XML : string = &quot;xml&quot; {readOnly}</text>
<text text-anchor="start" x="1330" y="-516.6" font-family="Verdana" font-size="8.00">+ «static» FORMAT_CHECKSTYLE : string = &quot;checkstyle&quot; {readOnly}</text>
<text text-anchor="start" x="1330" y="-503.6" font-family="Verdana" font-size="8.00">+ «static» FORMAT_GITLAB : string = &quot;gitlab&quot; {readOnly}</text>
<text text-anchor="start" x="1330" y="-490.6" font-family="Verdana" font-size="8.00">+ «static» FORMAT_INTERNAL : string = &quot;internal&quot; {readOnly}</text>
<polygon fill="none" stroke="black" points="1325,-477 1325,-483 1630,-483 1630,-477 1325,-477"/>
<polygon fill="none" stroke="black" points="1325,-419 1325,-477 1630,-477 1630,-419 1325,-419"/>
<text text-anchor="start" x="1330" y="-465.6" font-family="Verdana" font-size="8.00">+ getSupportedFormats() : array</text>
<text text-anchor="start" x="1330" y="-452.6" font-family="Verdana" font-size="8.00">+ isSupportedFormat(format : string) : bool</text>
<text text-anchor="start" x="1330" y="-439.6" font-family="Verdana" font-size="8.00">+ normalize(data, format : string, context : array) : ?ArrayObject</text>
<text text-anchor="start" x="1330" y="-426.6" font-family="Verdana" font-size="8.00"># fromInternal(data : TData, context : array, mapping : array = []) : array</text>
</g>
<!-- Bartlett\\Sarif\\Converter\\Normalizer\\PhpCsNormalizer&#45;&gt;Bartlett\\Sarif\\Converter\\Normalizer\\AbstractNormalizer -->
<g id="edge6" class="edge">
<title>Bartlett\\Sarif\\Converter\\Normalizer\\PhpCsNormalizer&#45;&gt;Bartlett\\Sarif\\Converter\\Normalizer\\AbstractNormalizer</title>
<path fill="none" stroke="black" d="M1477,-820C1477,-766.15 1477,-671.2 1477,-599.59"/>
<polygon fill="none" stroke="black" points="1480.5,-599.2 1477,-589.2 1473.5,-599.2 1480.5,-599.2"/>
</g>
<!-- Bartlett\\Sarif\\Converter\\Normalizer\\AbstractNormalizer&#45;&gt;Bartlett\\Sarif\\Contract\\NormalizerInterface -->
<g id="edge5" class="edge">
<title>Bartlett\\Sarif\\Converter\\Normalizer\\AbstractNormalizer&#45;&gt;Bartlett\\Sarif\\Contract\\NormalizerInterface</title>
<path fill="none" stroke="black" stroke-dasharray="5,2" d="M1448.24,-418.8C1424.96,-350.66 1392.3,-255.04 1368.76,-186.13"/>
<polygon fill="none" stroke="black" points="1372.05,-184.92 1365.5,-176.59 1365.42,-187.19 1372.05,-184.92"/>
</g>
</g>
</svg>
