<?xml version="1.0" encoding="UTF-8" standalone="no"?>
<!DOCTYPE svg PUBLIC "-//W3C//DTD SVG 1.1//EN"
 "http://www.w3.org/Graphics/SVG/1.1/DTD/svg11.dtd">
<!-- Generated by graphviz version 2.43.0 (0)
 -->
<!-- Title: %3 Pages: 1 -->
<svg width="925pt" height="683pt"
 viewBox="0.00 0.00 924.98 683.00" xmlns="http://www.w3.org/2000/svg" xmlns:xlink="http://www.w3.org/1999/xlink">
<g id="graph0" class="graph" transform="scale(1 1) rotate(0) translate(4 679)">
<title>%3</title>
<polygon fill="white" stroke="transparent" points="-4,4 -4,-679 920.98,-679 920.98,4 -4,4"/>
<!-- bartlett/sarif&#45;php&#45;converters -->
<g id="node1" class="node">
<title>bartlett/sarif&#45;php&#45;converters</title>
<ellipse fill="lightgrey" stroke="black" stroke-width="2" cx="110.49" cy="-402" rx="110.48" ry="18"/>
<text text-anchor="middle" x="110.49" y="-398.3" font-family="Times,serif" font-size="14.00">bartlett/sarif&#45;php&#45;converters</text>
</g>
<!-- php -->
<g id="node2" class="node">
<title>php</title>
<path fill="#eeeeee" stroke="black" d="M807.98,-319C807.98,-319 777.98,-319 777.98,-319 771.98,-319 765.98,-313 765.98,-307 765.98,-307 765.98,-295 765.98,-295 765.98,-289 771.98,-283 777.98,-283 777.98,-283 807.98,-283 807.98,-283 813.98,-283 819.98,-289 819.98,-295 819.98,-295 819.98,-307 819.98,-307 819.98,-313 813.98,-319 807.98,-319"/>
<text text-anchor="middle" x="792.98" y="-297.3" font-family="Times,serif" font-size="14.00" fill="#314b5f">php</text>
</g>
<!-- bartlett/sarif&#45;php&#45;converters&#45;&gt;php -->
<g id="edge1" class="edge">
<title>bartlett/sarif&#45;php&#45;converters&#45;&gt;php</title>
<path fill="none" stroke="#1a2833" d="M138.01,-384.48C173.42,-362.21 238.92,-324.87 300.98,-310 387.18,-289.35 657.25,-296.31 755.65,-299.65"/>
<polygon fill="#1a2833" stroke="#1a2833" points="755.59,-303.15 765.71,-300 755.84,-296.15 755.59,-303.15"/>
<text text-anchor="middle" x="440.98" y="-313" font-family="Times,serif" font-size="10.00" fill="#767676">^8.2</text>
</g>
<!-- ext&#45;json -->
<g id="node3" class="node">
<title>ext&#45;json</title>
<path fill="#eeeeee" stroke="black" d="M810.98,-658C810.98,-658 774.98,-658 774.98,-658 768.98,-658 762.98,-652 762.98,-646 762.98,-646 762.98,-634 762.98,-634 762.98,-628 768.98,-622 774.98,-622 774.98,-622 810.98,-622 810.98,-622 816.98,-622 822.98,-628 822.98,-634 822.98,-634 822.98,-646 822.98,-646 822.98,-652 816.98,-658 810.98,-658"/>
<text text-anchor="middle" x="792.98" y="-636.3" font-family="Times,serif" font-size="14.00" fill="#314b5f">ext&#45;json</text>
</g>
<!-- bartlett/sarif&#45;php&#45;converters&#45;&gt;ext&#45;json -->
<g id="edge2" class="edge">
<title>bartlett/sarif&#45;php&#45;converters&#45;&gt;ext&#45;json</title>
<path fill="none" stroke="#1a2833" d="M120.84,-420.02C144.32,-463.07 210.39,-571.54 300.98,-615 454.24,-688.53 666.2,-662.78 752.77,-647.73"/>
<polygon fill="#1a2833" stroke="#1a2833" points="753.47,-651.16 762.7,-645.95 752.24,-644.27 753.47,-651.16"/>
<text text-anchor="middle" x="440.98" y="-667" font-family="Times,serif" font-size="10.00" fill="#767676">*</text>
</g>
<!-- ext&#45;pcre -->
<g id="node4" class="node">
<title>ext&#45;pcre</title>
<path fill="#eeeeee" stroke="black" d="M811.48,-578C811.48,-578 774.48,-578 774.48,-578 768.48,-578 762.48,-572 762.48,-566 762.48,-566 762.48,-554 762.48,-554 762.48,-548 768.48,-542 774.48,-542 774.48,-542 811.48,-542 811.48,-542 817.48,-542 823.48,-548 823.48,-554 823.48,-554 823.48,-566 823.48,-566 823.48,-572 817.48,-578 811.48,-578"/>
<text text-anchor="middle" x="792.98" y="-556.3" font-family="Times,serif" font-size="14.00" fill="#314b5f">ext&#45;pcre</text>
</g>
<!-- bartlett/sarif&#45;php&#45;converters&#45;&gt;ext&#45;pcre -->
<g id="edge3" class="edge">
<title>bartlett/sarif&#45;php&#45;converters&#45;&gt;ext&#45;pcre</title>
<path fill="none" stroke="#1a2833" d="M129.49,-419.94C161.13,-450.28 230.09,-511.22 300.98,-540 446.75,-599.19 494.69,-611.05 650.98,-593 685.79,-588.98 724.49,-579.56 752.53,-571.8"/>
<polygon fill="#1a2833" stroke="#1a2833" points="753.68,-575.12 762.35,-569.04 751.78,-568.38 753.68,-575.12"/>
<text text-anchor="middle" x="440.98" y="-603" font-family="Times,serif" font-size="10.00" fill="#767676">*</text>
</g>
<!-- ext&#45;spl -->
<g id="node5" class="node">
<title>ext&#45;spl</title>
<path fill="#eeeeee" stroke="black" d="M807.98,-501C807.98,-501 777.98,-501 777.98,-501 771.98,-501 765.98,-495 765.98,-489 765.98,-489 765.98,-477 765.98,-477 765.98,-471 771.98,-465 777.98,-465 777.98,-465 807.98,-465 807.98,-465 813.98,-465 819.98,-471 819.98,-477 819.98,-477 819.98,-489 819.98,-489 819.98,-495 813.98,-501 807.98,-501"/>
<text text-anchor="middle" x="792.98" y="-479.3" font-family="Times,serif" font-size="14.00" fill="#314b5f">ext&#45;spl</text>
</g>
<!-- bartlett/sarif&#45;php&#45;converters&#45;&gt;ext&#45;spl -->
<g id="edge4" class="edge">
<title>bartlett/sarif&#45;php&#45;converters&#45;&gt;ext&#45;spl</title>
<path fill="none" stroke="#1a2833" d="M191.58,-414.37C225.31,-419.33 265,-424.85 300.98,-429 456.11,-446.91 496.03,-440.53 650.98,-460 686.82,-464.5 727.5,-471.33 755.93,-476.37"/>
<polygon fill="#1a2833" stroke="#1a2833" points="755.36,-479.82 765.82,-478.14 756.59,-472.93 755.36,-479.82"/>
<text text-anchor="middle" x="440.98" y="-454" font-family="Times,serif" font-size="10.00" fill="#767676">*</text>
</g>
<!-- composer&#45;runtime&#45;api -->
<g id="node6" class="node">
<title>composer&#45;runtime&#45;api</title>
<path fill="#eeeeee" stroke="black" d="M497.48,-420C497.48,-420 384.48,-420 384.48,-420 378.48,-420 372.48,-414 372.48,-408 372.48,-408 372.48,-396 372.48,-396 372.48,-390 378.48,-384 384.48,-384 384.48,-384 497.48,-384 497.48,-384 503.48,-384 509.48,-390 509.48,-396 509.48,-396 509.48,-408 509.48,-408 509.48,-414 503.48,-420 497.48,-420"/>
<text text-anchor="middle" x="440.98" y="-398.3" font-family="Times,serif" font-size="14.00" fill="#314b5f">composer&#45;runtime&#45;api</text>
</g>
<!-- bartlett/sarif&#45;php&#45;converters&#45;&gt;composer&#45;runtime&#45;api -->
<g id="edge5" class="edge">
<title>bartlett/sarif&#45;php&#45;converters&#45;&gt;composer&#45;runtime&#45;api</title>
<path fill="none" stroke="#1a2833" d="M221.33,-402C267.51,-402 320.15,-402 362.21,-402"/>
<polygon fill="#1a2833" stroke="#1a2833" points="362.39,-405.5 372.39,-402 362.39,-398.5 362.39,-405.5"/>
<text text-anchor="middle" x="260.98" y="-405" font-family="Times,serif" font-size="10.00" fill="#767676">^2.0</text>
</g>
<!-- bartlett/sarif&#45;php&#45;sdk -->
<g id="node7" class="node">
<title>bartlett/sarif&#45;php&#45;sdk</title>
<path fill="#eeeeee" stroke="black" d="M512.48,-531C512.48,-531 369.48,-531 369.48,-531 363.48,-531 357.48,-525 357.48,-519 357.48,-519 357.48,-507 357.48,-507 357.48,-501 363.48,-495 369.48,-495 369.48,-495 512.48,-495 512.48,-495 518.48,-495 524.48,-501 524.48,-507 524.48,-507 524.48,-519 524.48,-519 524.48,-525 518.48,-531 512.48,-531"/>
<text text-anchor="middle" x="440.98" y="-509.3" font-family="Times,serif" font-size="14.00" fill="#314b5f">bartlett/sarif&#45;php&#45;sdk: 2.1.1</text>
</g>
<!-- bartlett/sarif&#45;php&#45;converters&#45;&gt;bartlett/sarif&#45;php&#45;sdk -->
<g id="edge10" class="edge">
<title>bartlett/sarif&#45;php&#45;converters&#45;&gt;bartlett/sarif&#45;php&#45;sdk</title>
<path fill="none" stroke="#1a2833" d="M138.8,-419.47C163.93,-434.83 202.7,-456.74 238.98,-470 273.45,-482.6 312.67,-492.01 347.25,-498.77"/>
<polygon fill="#1a2833" stroke="#1a2833" points="346.87,-502.26 357.35,-500.69 348.18,-495.38 346.87,-502.26"/>
<text text-anchor="middle" x="260.98" y="-486" font-family="Times,serif" font-size="10.00" fill="#767676">^2.0</text>
</g>
<!-- bamarni/composer&#45;bin&#45;plugin -->
<g id="node8" class="node">
<title>bamarni/composer&#45;bin&#45;plugin</title>
<path fill="#eeeeee" stroke="black" d="M535.98,-366C535.98,-366 345.98,-366 345.98,-366 339.98,-366 333.98,-360 333.98,-354 333.98,-354 333.98,-342 333.98,-342 333.98,-336 339.98,-330 345.98,-330 345.98,-330 535.98,-330 535.98,-330 541.98,-330 547.98,-336 547.98,-342 547.98,-342 547.98,-354 547.98,-354 547.98,-360 541.98,-366 535.98,-366"/>
<text text-anchor="middle" x="440.98" y="-344.3" font-family="Times,serif" font-size="14.00" fill="#314b5f">bamarni/composer&#45;bin&#45;plugin: 1.8.2</text>
</g>
<!-- bartlett/sarif&#45;php&#45;converters&#45;&gt;bamarni/composer&#45;bin&#45;plugin -->
<g id="edge13" class="edge">
<title>bartlett/sarif&#45;php&#45;converters&#45;&gt;bamarni/composer&#45;bin&#45;plugin</title>
<path fill="none" stroke="#1a2833" stroke-dasharray="5,2" d="M188.92,-389.27C229.13,-382.66 279.07,-374.45 323.8,-367.1"/>
<polygon fill="#1a2833" stroke="#1a2833" points="324.56,-370.52 333.86,-365.45 323.42,-363.61 324.56,-370.52"/>
<text text-anchor="middle" x="260.98" y="-382" font-family="Times,serif" font-size="10.00" fill="#767676">^1.8</text>
</g>
<!-- php&#45;parallel&#45;lint/php&#45;console&#45;highlighter -->
<g id="node10" class="node">
<title>php&#45;parallel&#45;lint/php&#45;console&#45;highlighter</title>
<path fill="#eeeeee" stroke="black" d="M568.98,-262C568.98,-262 312.98,-262 312.98,-262 306.98,-262 300.98,-256 300.98,-250 300.98,-250 300.98,-238 300.98,-238 300.98,-232 306.98,-226 312.98,-226 312.98,-226 568.98,-226 568.98,-226 574.98,-226 580.98,-232 580.98,-238 580.98,-238 580.98,-250 580.98,-250 580.98,-256 574.98,-262 568.98,-262"/>
<text text-anchor="middle" x="440.98" y="-240.3" font-family="Times,serif" font-size="14.00" fill="#314b5f">php&#45;parallel&#45;lint/php&#45;console&#45;highlighter: v1.0.0</text>
</g>
<!-- bartlett/sarif&#45;php&#45;converters&#45;&gt;php&#45;parallel&#45;lint/php&#45;console&#45;highlighter -->
<g id="edge17" class="edge">
<title>bartlett/sarif&#45;php&#45;converters&#45;&gt;php&#45;parallel&#45;lint/php&#45;console&#45;highlighter</title>
<path fill="none" stroke="#1a2833" stroke-dasharray="5,2" d="M123.95,-383.84C144.38,-355.64 187.9,-301.87 238.98,-276 255.07,-267.85 272.74,-261.68 290.71,-257.02"/>
<polygon fill="#1a2833" stroke="#1a2833" points="291.83,-260.35 300.72,-254.59 290.18,-253.55 291.83,-260.35"/>
<text text-anchor="middle" x="260.98" y="-279" font-family="Times,serif" font-size="10.00" fill="#767676">^1.0</text>
</g>
<!-- symfony/console -->
<g id="node13" class="node">
<title>symfony/console</title>
<path fill="#eeeeee" stroke="black" d="M504.98,-144C504.98,-144 376.98,-144 376.98,-144 370.98,-144 364.98,-138 364.98,-132 364.98,-132 364.98,-120 364.98,-120 364.98,-114 370.98,-108 376.98,-108 376.98,-108 504.98,-108 504.98,-108 510.98,-108 516.98,-114 516.98,-120 516.98,-120 516.98,-132 516.98,-132 516.98,-138 510.98,-144 504.98,-144"/>
<text text-anchor="middle" x="440.98" y="-122.3" font-family="Times,serif" font-size="14.00" fill="#314b5f">symfony/console: v7.2.6</text>
</g>
<!-- bartlett/sarif&#45;php&#45;converters&#45;&gt;symfony/console -->
<g id="edge22" class="edge">
<title>bartlett/sarif&#45;php&#45;converters&#45;&gt;symfony/console</title>
<path fill="none" stroke="#1a2833" stroke-dasharray="5,2" d="M123.12,-383.78C143.67,-352.57 188.99,-288.11 238.98,-245 286.05,-204.41 348.79,-169.77 391.58,-148.5"/>
<polygon fill="#1a2833" stroke="#1a2833" points="393.23,-151.59 400.66,-144.04 390.15,-145.31 393.23,-151.59"/>
<text text-anchor="middle" x="260.98" y="-248" font-family="Times,serif" font-size="10.00" fill="#767676">^6.4 || ^7.0</text>
</g>
<!-- bartlett/sarif&#45;php&#45;sdk&#45;&gt;php -->
<g id="edge9" class="edge">
<title>bartlett/sarif&#45;php&#45;sdk&#45;&gt;php</title>
<path fill="none" stroke="#1a2833" d="M524.73,-497.58C544.34,-491.42 564.36,-482.86 580.98,-471 624.26,-440.13 622.64,-418.98 650.98,-374 659.89,-359.87 656.13,-351.67 668.98,-341 693.69,-320.49 729.18,-310.41 755.69,-305.51"/>
<polygon fill="#1a2833" stroke="#1a2833" points="756.45,-308.93 765.73,-303.82 755.29,-302.03 756.45,-308.93"/>
<text text-anchor="middle" x="624.98" y="-458" font-family="Times,serif" font-size="10.00" fill="#767676">^8.1</text>
</g>
<!-- bartlett/sarif&#45;php&#45;sdk&#45;&gt;ext&#45;json -->
<g id="edge6" class="edge">
<title>bartlett/sarif&#45;php&#45;sdk&#45;&gt;ext&#45;json</title>
<path fill="none" stroke="#1a2833" d="M491.76,-531.06C562.16,-556.61 689.35,-602.76 753.2,-625.93"/>
<polygon fill="#1a2833" stroke="#1a2833" points="752.29,-629.32 762.88,-629.44 754.68,-622.74 752.29,-629.32"/>
<text text-anchor="middle" x="624.98" y="-590" font-family="Times,serif" font-size="10.00" fill="#767676">*</text>
</g>
<!-- bartlett/sarif&#45;php&#45;sdk&#45;&gt;ext&#45;pcre -->
<g id="edge7" class="edge">
<title>bartlett/sarif&#45;php&#45;sdk&#45;&gt;ext&#45;pcre</title>
<path fill="none" stroke="#1a2833" d="M524.48,-524.08C596.25,-533.72 697.15,-547.27 752.24,-554.66"/>
<polygon fill="#1a2833" stroke="#1a2833" points="751.92,-558.15 762.3,-556.01 752.86,-551.21 751.92,-558.15"/>
<text text-anchor="middle" x="624.98" y="-543" font-family="Times,serif" font-size="10.00" fill="#767676">*</text>
</g>
<!-- bartlett/sarif&#45;php&#45;sdk&#45;&gt;ext&#45;spl -->
<g id="edge8" class="edge">
<title>bartlett/sarif&#45;php&#45;sdk&#45;&gt;ext&#45;spl</title>
<path fill="none" stroke="#1a2833" d="M524.48,-505.93C597.81,-499.64 701.53,-490.75 755.76,-486.1"/>
<polygon fill="#1a2833" stroke="#1a2833" points="756.25,-489.58 765.92,-485.23 755.66,-482.6 756.25,-489.58"/>
<text text-anchor="middle" x="624.98" y="-501" font-family="Times,serif" font-size="10.00" fill="#767676">*</text>
</g>
<!-- bamarni/composer&#45;bin&#45;plugin&#45;&gt;php -->
<g id="edge12" class="edge">
<title>bamarni/composer&#45;bin&#45;plugin&#45;&gt;php</title>
<path fill="none" stroke="#1a2833" d="M548.42,-333.71C619.06,-324.22 707.4,-312.36 755.91,-305.84"/>
<polygon fill="#1a2833" stroke="#1a2833" points="756.48,-309.3 765.92,-304.5 755.55,-302.36 756.48,-309.3"/>
<text text-anchor="middle" x="624.98" y="-328" font-family="Times,serif" font-size="10.00" fill="#767676">^7.2.5 || ^8.0</text>
</g>
<!-- composer&#45;plugin&#45;api -->
<g id="node9" class="node">
<title>composer&#45;plugin&#45;api</title>
<path fill="#eeeeee" stroke="black" d="M844.98,-386C844.98,-386 740.98,-386 740.98,-386 734.98,-386 728.98,-380 728.98,-374 728.98,-374 728.98,-362 728.98,-362 728.98,-356 734.98,-350 740.98,-350 740.98,-350 844.98,-350 844.98,-350 850.98,-350 856.98,-356 856.98,-362 856.98,-362 856.98,-374 856.98,-374 856.98,-380 850.98,-386 844.98,-386"/>
<text text-anchor="middle" x="792.98" y="-364.3" font-family="Times,serif" font-size="14.00" fill="#314b5f">composer&#45;plugin&#45;api</text>
</g>
<!-- bamarni/composer&#45;bin&#45;plugin&#45;&gt;composer&#45;plugin&#45;api -->
<g id="edge11" class="edge">
<title>bamarni/composer&#45;bin&#45;plugin&#45;&gt;composer&#45;plugin&#45;api</title>
<path fill="none" stroke="#1a2833" d="M548.42,-354.08C603.43,-357.23 669.18,-360.98 718.5,-363.8"/>
<polygon fill="#1a2833" stroke="#1a2833" points="718.58,-367.31 728.76,-364.39 718.98,-360.32 718.58,-367.31"/>
<text text-anchor="middle" x="624.98" y="-362" font-family="Times,serif" font-size="10.00" fill="#767676">^2.0</text>
</g>
<!-- php&#45;parallel&#45;lint/php&#45;console&#45;highlighter&#45;&gt;php -->
<g id="edge15" class="edge">
<title>php&#45;parallel&#45;lint/php&#45;console&#45;highlighter&#45;&gt;php</title>
<path fill="none" stroke="#1a2833" d="M562.8,-262C591.71,-266.45 622.46,-271.29 650.98,-276 686.7,-281.9 727.4,-289.18 755.87,-294.36"/>
<polygon fill="#1a2833" stroke="#1a2833" points="755.3,-297.81 765.77,-296.16 756.56,-290.92 755.3,-297.81"/>
<text text-anchor="middle" x="624.98" y="-279" font-family="Times,serif" font-size="10.00" fill="#767676">&gt;=5.3.2</text>
</g>
<!-- ext&#45;tokenizer -->
<g id="node11" class="node">
<title>ext&#45;tokenizer</title>
<path fill="#eeeeee" stroke="black" d="M824.98,-259C824.98,-259 760.98,-259 760.98,-259 754.98,-259 748.98,-253 748.98,-247 748.98,-247 748.98,-235 748.98,-235 748.98,-229 754.98,-223 760.98,-223 760.98,-223 824.98,-223 824.98,-223 830.98,-223 836.98,-229 836.98,-235 836.98,-235 836.98,-247 836.98,-247 836.98,-253 830.98,-259 824.98,-259"/>
<text text-anchor="middle" x="792.98" y="-237.3" font-family="Times,serif" font-size="14.00" fill="#314b5f">ext&#45;tokenizer</text>
</g>
<!-- php&#45;parallel&#45;lint/php&#45;console&#45;highlighter&#45;&gt;ext&#45;tokenizer -->
<g id="edge14" class="edge">
<title>php&#45;parallel&#45;lint/php&#45;console&#45;highlighter&#45;&gt;ext&#45;tokenizer</title>
<path fill="none" stroke="#1a2833" d="M581.09,-242.17C587.14,-242.11 593.12,-242.05 598.98,-242 646.19,-241.58 699.9,-241.32 738.66,-241.17"/>
<polygon fill="#1a2833" stroke="#1a2833" points="738.68,-244.67 748.67,-241.13 738.66,-237.67 738.68,-244.67"/>
<text text-anchor="middle" x="624.98" y="-245" font-family="Times,serif" font-size="10.00" fill="#767676">*</text>
</g>
<!-- php&#45;parallel&#45;lint/php&#45;console&#45;color -->
<g id="node12" class="node">
<title>php&#45;parallel&#45;lint/php&#45;console&#45;color</title>
<path fill="#eeeeee" stroke="black" d="M904.98,-198C904.98,-198 680.98,-198 680.98,-198 674.98,-198 668.98,-192 668.98,-186 668.98,-186 668.98,-174 668.98,-174 668.98,-168 674.98,-162 680.98,-162 680.98,-162 904.98,-162 904.98,-162 910.98,-162 916.98,-168 916.98,-174 916.98,-174 916.98,-186 916.98,-186 916.98,-192 910.98,-198 904.98,-198"/>
<text text-anchor="middle" x="792.98" y="-176.3" font-family="Times,serif" font-size="14.00" fill="#314b5f">php&#45;parallel&#45;lint/php&#45;console&#45;color: v1.0.1</text>
</g>
<!-- php&#45;parallel&#45;lint/php&#45;console&#45;highlighter&#45;&gt;php&#45;parallel&#45;lint/php&#45;console&#45;color -->
<g id="edge16" class="edge">
<title>php&#45;parallel&#45;lint/php&#45;console&#45;highlighter&#45;&gt;php&#45;parallel&#45;lint/php&#45;console&#45;color</title>
<path fill="none" stroke="#1a2833" d="M472.24,-225.88C502.93,-208.64 552.42,-183.91 598.98,-174 618.12,-169.93 638.58,-168.02 658.74,-167.51"/>
<polygon fill="#1a2833" stroke="#1a2833" points="658.98,-171.01 668.93,-167.37 658.88,-164.01 658.98,-171.01"/>
<text text-anchor="middle" x="624.98" y="-177" font-family="Times,serif" font-size="10.00" fill="#767676">^1.0.1</text>
</g>
<!-- symfony/console&#45;&gt;php -->
<g id="edge18" class="edge">
<title>symfony/console&#45;&gt;php</title>
<path fill="none" stroke="#1a2833" d="M506.74,-144.07C552.14,-159.61 611.54,-186.09 650.98,-227 664.79,-241.33 653.88,-255.03 668.98,-268 693.12,-288.73 728.98,-296.58 755.76,-299.48"/>
<polygon fill="#1a2833" stroke="#1a2833" points="755.63,-302.98 765.9,-300.4 756.25,-296.01 755.63,-302.98"/>
<text text-anchor="middle" x="624.98" y="-230" font-family="Times,serif" font-size="10.00" fill="#767676">&gt;=8.2</text>
</g>
<!-- symfony/polyfill&#45;mbstring -->
<g id="node14" class="node">
<title>symfony/polyfill&#45;mbstring</title>
<path fill="#eeeeee" stroke="black" d="M885.98,-144C885.98,-144 699.98,-144 699.98,-144 693.98,-144 687.98,-138 687.98,-132 687.98,-132 687.98,-120 687.98,-120 687.98,-114 693.98,-108 699.98,-108 699.98,-108 885.98,-108 885.98,-108 891.98,-108 897.98,-114 897.98,-120 897.98,-120 897.98,-132 897.98,-132 897.98,-138 891.98,-144 885.98,-144"/>
<text text-anchor="middle" x="792.98" y="-122.3" font-family="Times,serif" font-size="14.00" fill="#314b5f">symfony/polyfill&#45;mbstring: v1.32.0</text>
</g>
<!-- symfony/console&#45;&gt;symfony/polyfill&#45;mbstring -->
<g id="edge19" class="edge">
<title>symfony/console&#45;&gt;symfony/polyfill&#45;mbstring</title>
<path fill="none" stroke="#1a2833" d="M517.06,-126C563.86,-126 625,-126 677.73,-126"/>
<polygon fill="#1a2833" stroke="#1a2833" points="677.81,-129.5 687.81,-126 677.81,-122.5 677.81,-129.5"/>
<text text-anchor="middle" x="624.98" y="-129" font-family="Times,serif" font-size="10.00" fill="#767676">~1.0</text>
</g>
<!-- symfony/service&#45;contracts -->
<g id="node15" class="node">
<title>symfony/service&#45;contracts</title>
<path fill="#eeeeee" stroke="black" d="M882.48,-90C882.48,-90 703.48,-90 703.48,-90 697.48,-90 691.48,-84 691.48,-78 691.48,-78 691.48,-66 691.48,-66 691.48,-60 697.48,-54 703.48,-54 703.48,-54 882.48,-54 882.48,-54 888.48,-54 894.48,-60 894.48,-66 894.48,-66 894.48,-78 894.48,-78 894.48,-84 888.48,-90 882.48,-90"/>
<text text-anchor="middle" x="792.98" y="-68.3" font-family="Times,serif" font-size="14.00" fill="#314b5f">symfony/service&#45;contracts: v3.6.0</text>
</g>
<!-- symfony/console&#45;&gt;symfony/service&#45;contracts -->
<g id="edge20" class="edge">
<title>symfony/console&#45;&gt;symfony/service&#45;contracts</title>
<path fill="none" stroke="#1a2833" d="M517.06,-114.42C565,-107.02 627.98,-97.3 681.56,-89.04"/>
<polygon fill="#1a2833" stroke="#1a2833" points="682.1,-92.49 691.45,-87.51 681.03,-85.58 682.1,-92.49"/>
<text text-anchor="middle" x="624.98" y="-104" font-family="Times,serif" font-size="10.00" fill="#767676">^2.5|^3</text>
</g>
<!-- symfony/string -->
<g id="node16" class="node">
<title>symfony/string</title>
<path fill="#eeeeee" stroke="black" d="M851.98,-36C851.98,-36 733.98,-36 733.98,-36 727.98,-36 721.98,-30 721.98,-24 721.98,-24 721.98,-12 721.98,-12 721.98,-6 727.98,0 733.98,0 733.98,0 851.98,0 851.98,0 857.98,0 863.98,-6 863.98,-12 863.98,-12 863.98,-24 863.98,-24 863.98,-30 857.98,-36 851.98,-36"/>
<text text-anchor="middle" x="792.98" y="-14.3" font-family="Times,serif" font-size="14.00" fill="#314b5f">symfony/string: v7.2.6</text>
</g>
<!-- symfony/console&#45;&gt;symfony/string -->
<g id="edge21" class="edge">
<title>symfony/console&#45;&gt;symfony/string</title>
<path fill="none" stroke="#1a2833" d="M487.08,-107.99C532.5,-90.32 604.83,-63.41 668.98,-45 682.73,-41.06 697.48,-37.37 711.82,-34.06"/>
<polygon fill="#1a2833" stroke="#1a2833" points="712.69,-37.45 721.67,-31.83 711.14,-30.62 712.69,-37.45"/>
<text text-anchor="middle" x="624.98" y="-70" font-family="Times,serif" font-size="10.00" fill="#767676">^6.4|^7.0</text>
</g>
</g>
</svg>
