<?xml version="1.0" encoding="UTF-8" standalone="no"?>
<!DOCTYPE svg PUBLIC "-//W3C//DTD SVG 1.1//EN"
 "http://www.w3.org/Graphics/SVG/1.1/DTD/svg11.dtd">
<!-- Generated by graphviz version 2.43.0 (0)
 -->
<!-- Title: %3 Pages: 1 -->
<svg width="1171pt" height="635pt"
 viewBox="0.00 0.00 1170.97 635.00" xmlns="http://www.w3.org/2000/svg" xmlns:xlink="http://www.w3.org/1999/xlink">
<g id="graph0" class="graph" transform="scale(1 1) rotate(0) translate(4 631)">
<title>%3</title>
<polygon fill="white" stroke="transparent" points="-4,4 -4,-631 1166.97,-631 1166.97,4 -4,4"/>
<!-- bartlett/sarif&#45;php&#45;converters -->
<g id="node1" class="node">
<title>bartlett/sarif&#45;php&#45;converters</title>
<ellipse fill="lightgrey" stroke="black" stroke-width="2" cx="142.99" cy="-447" rx="142.97" ry="18"/>
<text text-anchor="middle" x="142.99" y="-443.3" font-family="Times,serif" font-size="14.00">bartlett/sarif&#45;php&#45;converters</text>
</g>
<!-- php -->
<g id="node2" class="node">
<title>php</title>
<path fill="#eeeeee" stroke="black" d="M1021.47,-360C1021.47,-360 991.47,-360 991.47,-360 985.47,-360 979.47,-354 979.47,-348 979.47,-348 979.47,-336 979.47,-336 979.47,-330 985.47,-324 991.47,-324 991.47,-324 1021.47,-324 1021.47,-324 1027.47,-324 1033.47,-330 1033.47,-336 1033.47,-336 1033.47,-348 1033.47,-348 1033.47,-354 1027.47,-360 1021.47,-360"/>
<text text-anchor="middle" x="1006.47" y="-338.3" font-family="Times,serif" font-size="14.00" fill="#314b5f">php</text>
</g>
<!-- bartlett/sarif&#45;php&#45;converters&#45;&gt;php -->
<g id="edge1" class="edge">
<title>bartlett/sarif&#45;php&#45;converters&#45;&gt;php</title>
<path fill="none" stroke="#1a2833" d="M182,-429.66C228.01,-409.62 308.36,-377.67 380.97,-364 601.14,-322.56 872.48,-333.66 969.16,-339.5"/>
<polygon fill="#1a2833" stroke="#1a2833" points="969.09,-343 979.29,-340.13 969.53,-336.02 969.09,-343"/>
<text text-anchor="middle" x="559.47" y="-367" font-family="Times,serif" font-size="10.00" fill="#767676">^7.4 || ^8.0</text>
</g>
<!-- ext&#45;json -->
<g id="node3" class="node">
<title>ext&#45;json</title>
<path fill="#eeeeee" stroke="black" d="M1030.97,-497C1030.97,-497 981.97,-497 981.97,-497 975.97,-497 969.97,-491 969.97,-485 969.97,-485 969.97,-473 969.97,-473 969.97,-467 975.97,-461 981.97,-461 981.97,-461 1030.97,-461 1030.97,-461 1036.97,-461 1042.97,-467 1042.97,-473 1042.97,-473 1042.97,-485 1042.97,-485 1042.97,-491 1036.97,-497 1030.97,-497"/>
<text text-anchor="middle" x="1006.47" y="-475.3" font-family="Times,serif" font-size="14.00" fill="#314b5f">ext&#45;json</text>
</g>
<!-- bartlett/sarif&#45;php&#45;converters&#45;&gt;ext&#45;json -->
<g id="edge2" class="edge">
<title>bartlett/sarif&#45;php&#45;converters&#45;&gt;ext&#45;json</title>
<path fill="none" stroke="#1a2833" d="M280.49,-452.07C478,-459.41 833.61,-472.62 959.66,-477.3"/>
<polygon fill="#1a2833" stroke="#1a2833" points="959.61,-480.8 969.73,-477.67 959.87,-473.8 959.61,-480.8"/>
<text text-anchor="middle" x="559.47" y="-471" font-family="Times,serif" font-size="10.00" fill="#767676">*</text>
</g>
<!-- ext&#45;pcre -->
<g id="node4" class="node">
<title>ext&#45;pcre</title>
<path fill="#eeeeee" stroke="black" d="M1031.97,-562C1031.97,-562 980.97,-562 980.97,-562 974.97,-562 968.97,-556 968.97,-550 968.97,-550 968.97,-538 968.97,-538 968.97,-532 974.97,-526 980.97,-526 980.97,-526 1031.97,-526 1031.97,-526 1037.97,-526 1043.97,-532 1043.97,-538 1043.97,-538 1043.97,-550 1043.97,-550 1043.97,-556 1037.97,-562 1031.97,-562"/>
<text text-anchor="middle" x="1006.47" y="-540.3" font-family="Times,serif" font-size="14.00" fill="#314b5f">ext&#45;pcre</text>
</g>
<!-- bartlett/sarif&#45;php&#45;converters&#45;&gt;ext&#45;pcre -->
<g id="edge3" class="edge">
<title>bartlett/sarif&#45;php&#45;converters&#45;&gt;ext&#45;pcre</title>
<path fill="none" stroke="#1a2833" d="M230.5,-461.28C275.33,-468.39 331.01,-476.77 380.97,-483 493.08,-496.98 833.49,-528.35 958.65,-539.75"/>
<polygon fill="#1a2833" stroke="#1a2833" points="958.41,-543.25 968.69,-540.67 959.05,-536.28 958.41,-543.25"/>
<text text-anchor="middle" x="559.47" y="-522" font-family="Times,serif" font-size="10.00" fill="#767676">*</text>
</g>
<!-- ext&#45;spl -->
<g id="node5" class="node">
<title>ext&#45;spl</title>
<path fill="#eeeeee" stroke="black" d="M1026.97,-619C1026.97,-619 985.97,-619 985.97,-619 979.97,-619 973.97,-613 973.97,-607 973.97,-607 973.97,-595 973.97,-595 973.97,-589 979.97,-583 985.97,-583 985.97,-583 1026.97,-583 1026.97,-583 1032.97,-583 1038.97,-589 1038.97,-595 1038.97,-595 1038.97,-607 1038.97,-607 1038.97,-613 1032.97,-619 1026.97,-619"/>
<text text-anchor="middle" x="1006.47" y="-597.3" font-family="Times,serif" font-size="14.00" fill="#314b5f">ext&#45;spl</text>
</g>
<!-- bartlett/sarif&#45;php&#45;converters&#45;&gt;ext&#45;spl -->
<g id="edge4" class="edge">
<title>bartlett/sarif&#45;php&#45;converters&#45;&gt;ext&#45;spl</title>
<path fill="none" stroke="#1a2833" d="M164.27,-464.92C203.01,-497.66 291.65,-565.56 380.97,-585 595.92,-631.77 862.27,-614.47 963.65,-605.27"/>
<polygon fill="#1a2833" stroke="#1a2833" points="964.15,-608.74 973.79,-604.33 963.51,-601.77 964.15,-608.74"/>
<text text-anchor="middle" x="559.47" y="-619" font-family="Times,serif" font-size="10.00" fill="#767676">*</text>
</g>
<!-- bartlett/sarif&#45;php&#45;sdk -->
<g id="node6" class="node">
<title>bartlett/sarif&#45;php&#45;sdk</title>
<path fill="#eeeeee" stroke="black" d="M653.97,-576C653.97,-576 464.97,-576 464.97,-576 458.97,-576 452.97,-570 452.97,-564 452.97,-564 452.97,-552 452.97,-552 452.97,-546 458.97,-540 464.97,-540 464.97,-540 653.97,-540 653.97,-540 659.97,-540 665.97,-546 665.97,-552 665.97,-552 665.97,-564 665.97,-564 665.97,-570 659.97,-576 653.97,-576"/>
<text text-anchor="middle" x="559.47" y="-554.3" font-family="Times,serif" font-size="14.00" fill="#314b5f">bartlett/sarif&#45;php&#45;sdk: 2.0.0</text>
</g>
<!-- bartlett/sarif&#45;php&#45;converters&#45;&gt;bartlett/sarif&#45;php&#45;sdk -->
<g id="edge9" class="edge">
<title>bartlett/sarif&#45;php&#45;converters&#45;&gt;bartlett/sarif&#45;php&#45;sdk</title>
<path fill="none" stroke="#1a2833" d="M172.89,-464.68C204.06,-482.87 255.73,-510.53 303.97,-525 348.32,-538.3 398.59,-546.23 442.68,-550.97"/>
<polygon fill="#1a2833" stroke="#1a2833" points="442.55,-554.48 452.86,-552.03 443.27,-547.52 442.55,-554.48"/>
<text text-anchor="middle" x="333.47" y="-541" font-family="Times,serif" font-size="10.00" fill="#767676">^2.0</text>
</g>
<!-- bamarni/composer&#45;bin&#45;plugin -->
<g id="node7" class="node">
<title>bamarni/composer&#45;bin&#45;plugin</title>
<path fill="#eeeeee" stroke="black" d="M682.97,-420C682.97,-420 435.97,-420 435.97,-420 429.97,-420 423.97,-414 423.97,-408 423.97,-408 423.97,-396 423.97,-396 423.97,-390 429.97,-384 435.97,-384 435.97,-384 682.97,-384 682.97,-384 688.97,-384 694.97,-390 694.97,-396 694.97,-396 694.97,-408 694.97,-408 694.97,-414 688.97,-420 682.97,-420"/>
<text text-anchor="middle" x="559.47" y="-398.3" font-family="Times,serif" font-size="14.00" fill="#314b5f">bamarni/composer&#45;bin&#45;plugin: 1.8.2</text>
</g>
<!-- bartlett/sarif&#45;php&#45;converters&#45;&gt;bamarni/composer&#45;bin&#45;plugin -->
<g id="edge12" class="edge">
<title>bartlett/sarif&#45;php&#45;converters&#45;&gt;bamarni/composer&#45;bin&#45;plugin</title>
<path fill="none" stroke="#1a2833" stroke-dasharray="5,2" d="M251.81,-435.29C301.16,-429.94 360.36,-423.51 413.54,-417.74"/>
<polygon fill="#1a2833" stroke="#1a2833" points="414.18,-421.19 423.74,-416.63 413.42,-414.23 414.18,-421.19"/>
<text text-anchor="middle" x="333.47" y="-431" font-family="Times,serif" font-size="10.00" fill="#767676">^1.8</text>
</g>
<!-- php&#45;parallel&#45;lint/php&#45;console&#45;highlighter -->
<g id="node9" class="node">
<title>php&#45;parallel&#45;lint/php&#45;console&#45;highlighter</title>
<path fill="#eeeeee" stroke="black" d="M725.97,-296C725.97,-296 392.97,-296 392.97,-296 386.97,-296 380.97,-290 380.97,-284 380.97,-284 380.97,-272 380.97,-272 380.97,-266 386.97,-260 392.97,-260 392.97,-260 725.97,-260 725.97,-260 731.97,-260 737.97,-266 737.97,-272 737.97,-272 737.97,-284 737.97,-284 737.97,-290 731.97,-296 725.97,-296"/>
<text text-anchor="middle" x="559.47" y="-274.3" font-family="Times,serif" font-size="14.00" fill="#314b5f">php&#45;parallel&#45;lint/php&#45;console&#45;highlighter: v1.0.0</text>
</g>
<!-- bartlett/sarif&#45;php&#45;converters&#45;&gt;php&#45;parallel&#45;lint/php&#45;console&#45;highlighter -->
<g id="edge16" class="edge">
<title>bartlett/sarif&#45;php&#45;converters&#45;&gt;php&#45;parallel&#45;lint/php&#45;console&#45;highlighter</title>
<path fill="none" stroke="#1a2833" stroke-dasharray="5,2" d="M158.55,-429.03C184.29,-398.66 241.11,-337.82 303.97,-310 324.91,-300.74 347.7,-293.9 370.75,-288.9"/>
<polygon fill="#1a2833" stroke="#1a2833" points="371.56,-292.3 380.64,-286.86 370.14,-285.45 371.56,-292.3"/>
<text text-anchor="middle" x="333.47" y="-313" font-family="Times,serif" font-size="10.00" fill="#767676">^1.0</text>
</g>
<!-- symfony/console -->
<g id="node12" class="node">
<title>symfony/console</title>
<path fill="#eeeeee" stroke="black" d="M641.47,-168C641.47,-168 477.47,-168 477.47,-168 471.47,-168 465.47,-162 465.47,-156 465.47,-156 465.47,-144 465.47,-144 465.47,-138 471.47,-132 477.47,-132 477.47,-132 641.47,-132 641.47,-132 647.47,-132 653.47,-138 653.47,-144 653.47,-144 653.47,-156 653.47,-156 653.47,-162 647.47,-168 641.47,-168"/>
<text text-anchor="middle" x="559.47" y="-146.3" font-family="Times,serif" font-size="14.00" fill="#314b5f">symfony/console: v6.4.9</text>
</g>
<!-- bartlett/sarif&#45;php&#45;converters&#45;&gt;symfony/console -->
<g id="edge22" class="edge">
<title>bartlett/sarif&#45;php&#45;converters&#45;&gt;symfony/console</title>
<path fill="none" stroke="#1a2833" stroke-dasharray="5,2" d="M157.48,-428.88C183.06,-395.46 241.69,-323.31 303.97,-277 365.84,-231 446.91,-193.87 500.74,-171.9"/>
<polygon fill="#1a2833" stroke="#1a2833" points="502.17,-175.1 510.13,-168.11 499.55,-168.61 502.17,-175.1"/>
<text text-anchor="middle" x="333.47" y="-280" font-family="Times,serif" font-size="10.00" fill="#767676">^6.4 || ^7.0</text>
</g>
<!-- bartlett/sarif&#45;php&#45;sdk&#45;&gt;php -->
<g id="edge8" class="edge">
<title>bartlett/sarif&#45;php&#45;sdk&#45;&gt;php</title>
<path fill="none" stroke="#1a2833" d="M666.19,-553.88C691.36,-549.01 716.98,-540.5 737.97,-526 750.77,-517.16 746.64,-508.44 755.97,-496 785.81,-456.26 804.33,-455.29 831.97,-414 842.59,-398.14 835.06,-386.91 849.97,-375 883.98,-347.85 935.09,-341.62 969.34,-340.85"/>
<polygon fill="#1a2833" stroke="#1a2833" points="969.41,-344.35 979.38,-340.77 969.35,-337.35 969.41,-344.35"/>
<text text-anchor="middle" x="793.97" y="-499" font-family="Times,serif" font-size="10.00" fill="#767676">^7.4 || ^8.0</text>
</g>
<!-- bartlett/sarif&#45;php&#45;sdk&#45;&gt;ext&#45;json -->
<g id="edge5" class="edge">
<title>bartlett/sarif&#45;php&#45;sdk&#45;&gt;ext&#45;json</title>
<path fill="none" stroke="#1a2833" d="M662.01,-539.97C755.46,-523.38 889.81,-499.53 959.55,-487.15"/>
<polygon fill="#1a2833" stroke="#1a2833" points="960.53,-490.53 969.76,-485.34 959.3,-483.64 960.53,-490.53"/>
<text text-anchor="middle" x="793.97" y="-526" font-family="Times,serif" font-size="10.00" fill="#767676">*</text>
</g>
<!-- bartlett/sarif&#45;php&#45;sdk&#45;&gt;ext&#45;pcre -->
<g id="edge6" class="edge">
<title>bartlett/sarif&#45;php&#45;sdk&#45;&gt;ext&#45;pcre</title>
<path fill="none" stroke="#1a2833" d="M666.22,-554.67C759.12,-551.75 889.93,-547.64 958.82,-545.47"/>
<polygon fill="#1a2833" stroke="#1a2833" points="959.04,-548.96 968.93,-545.15 958.82,-541.97 959.04,-548.96"/>
<text text-anchor="middle" x="793.97" y="-554" font-family="Times,serif" font-size="10.00" fill="#767676">*</text>
</g>
<!-- bartlett/sarif&#45;php&#45;sdk&#45;&gt;ext&#45;spl -->
<g id="edge7" class="edge">
<title>bartlett/sarif&#45;php&#45;sdk&#45;&gt;ext&#45;spl</title>
<path fill="none" stroke="#1a2833" d="M666.22,-568.22C761.37,-577.41 896.28,-590.45 963.72,-596.96"/>
<polygon fill="#1a2833" stroke="#1a2833" points="963.65,-600.47 973.94,-597.95 964.33,-593.51 963.65,-600.47"/>
<text text-anchor="middle" x="793.97" y="-586" font-family="Times,serif" font-size="10.00" fill="#767676">*</text>
</g>
<!-- bamarni/composer&#45;bin&#45;plugin&#45;&gt;php -->
<g id="edge11" class="edge">
<title>bamarni/composer&#45;bin&#45;plugin&#45;&gt;php</title>
<path fill="none" stroke="#1a2833" d="M693.99,-384C788.9,-371.2 909.68,-354.92 969.1,-346.9"/>
<polygon fill="#1a2833" stroke="#1a2833" points="969.68,-350.36 979.12,-345.55 968.74,-343.42 969.68,-350.36"/>
<text text-anchor="middle" x="793.97" y="-378" font-family="Times,serif" font-size="10.00" fill="#767676">^7.2.5 || ^8.0</text>
</g>
<!-- composer&#45;plugin&#45;api -->
<g id="node8" class="node">
<title>composer&#45;plugin&#45;api</title>
<path fill="#eeeeee" stroke="black" d="M1074.97,-420C1074.97,-420 937.97,-420 937.97,-420 931.97,-420 925.97,-414 925.97,-408 925.97,-408 925.97,-396 925.97,-396 925.97,-390 931.97,-384 937.97,-384 937.97,-384 1074.97,-384 1074.97,-384 1080.97,-384 1086.97,-390 1086.97,-396 1086.97,-396 1086.97,-408 1086.97,-408 1086.97,-414 1080.97,-420 1074.97,-420"/>
<text text-anchor="middle" x="1006.47" y="-398.3" font-family="Times,serif" font-size="14.00" fill="#314b5f">composer&#45;plugin&#45;api</text>
</g>
<!-- bamarni/composer&#45;bin&#45;plugin&#45;&gt;composer&#45;plugin&#45;api -->
<g id="edge10" class="edge">
<title>bamarni/composer&#45;bin&#45;plugin&#45;&gt;composer&#45;plugin&#45;api</title>
<path fill="none" stroke="#1a2833" d="M695.2,-402C766.56,-402 852.27,-402 915.51,-402"/>
<polygon fill="#1a2833" stroke="#1a2833" points="915.85,-405.5 925.85,-402 915.85,-398.5 915.85,-405.5"/>
<text text-anchor="middle" x="793.97" y="-405" font-family="Times,serif" font-size="10.00" fill="#767676">^2.0</text>
</g>
<!-- php&#45;parallel&#45;lint/php&#45;console&#45;highlighter&#45;&gt;php -->
<g id="edge14" class="edge">
<title>php&#45;parallel&#45;lint/php&#45;console&#45;highlighter&#45;&gt;php</title>
<path fill="none" stroke="#1a2833" d="M738.17,-294.97C769.55,-299.09 801.82,-304.07 831.97,-310 840.12,-311.6 841.87,-313.18 849.97,-315 890.56,-324.14 937.71,-331.93 969.35,-336.77"/>
<polygon fill="#1a2833" stroke="#1a2833" points="969.05,-340.26 979.46,-338.29 970.09,-333.34 969.05,-340.26"/>
<text text-anchor="middle" x="793.97" y="-313" font-family="Times,serif" font-size="10.00" fill="#767676">&gt;=5.3.2</text>
</g>
<!-- ext&#45;tokenizer -->
<g id="node10" class="node">
<title>ext&#45;tokenizer</title>
<path fill="#eeeeee" stroke="black" d="M1049.47,-306C1049.47,-306 963.47,-306 963.47,-306 957.47,-306 951.47,-300 951.47,-294 951.47,-294 951.47,-282 951.47,-282 951.47,-276 957.47,-270 963.47,-270 963.47,-270 1049.47,-270 1049.47,-270 1055.47,-270 1061.47,-276 1061.47,-282 1061.47,-282 1061.47,-294 1061.47,-294 1061.47,-300 1055.47,-306 1049.47,-306"/>
<text text-anchor="middle" x="1006.47" y="-284.3" font-family="Times,serif" font-size="14.00" fill="#314b5f">ext&#45;tokenizer</text>
</g>
<!-- php&#45;parallel&#45;lint/php&#45;console&#45;highlighter&#45;&gt;ext&#45;tokenizer -->
<g id="edge13" class="edge">
<title>php&#45;parallel&#45;lint/php&#45;console&#45;highlighter&#45;&gt;ext&#45;tokenizer</title>
<path fill="none" stroke="#1a2833" d="M738.31,-274.56C769.53,-274.56 801.71,-274.95 831.97,-276 868.05,-277.25 908.28,-279.95 940.9,-282.47"/>
<polygon fill="#1a2833" stroke="#1a2833" points="940.97,-285.99 951.21,-283.28 941.52,-279.01 940.97,-285.99"/>
<text text-anchor="middle" x="793.97" y="-279" font-family="Times,serif" font-size="10.00" fill="#767676">*</text>
</g>
<!-- php&#45;parallel&#45;lint/php&#45;console&#45;color -->
<g id="node11" class="node">
<title>php&#45;parallel&#45;lint/php&#45;console&#45;color</title>
<path fill="#eeeeee" stroke="black" d="M1150.97,-252C1150.97,-252 861.97,-252 861.97,-252 855.97,-252 849.97,-246 849.97,-240 849.97,-240 849.97,-228 849.97,-228 849.97,-222 855.97,-216 861.97,-216 861.97,-216 1150.97,-216 1150.97,-216 1156.97,-216 1162.97,-222 1162.97,-228 1162.97,-228 1162.97,-240 1162.97,-240 1162.97,-246 1156.97,-252 1150.97,-252"/>
<text text-anchor="middle" x="1006.47" y="-230.3" font-family="Times,serif" font-size="14.00" fill="#314b5f">php&#45;parallel&#45;lint/php&#45;console&#45;color: v1.0.1</text>
</g>
<!-- php&#45;parallel&#45;lint/php&#45;console&#45;highlighter&#45;&gt;php&#45;parallel&#45;lint/php&#45;console&#45;color -->
<g id="edge15" class="edge">
<title>php&#45;parallel&#45;lint/php&#45;console&#45;highlighter&#45;&gt;php&#45;parallel&#45;lint/php&#45;console&#45;color</title>
<path fill="none" stroke="#1a2833" d="M738.27,-260.42C771.73,-257.11 806.59,-253.66 839.66,-250.39"/>
<polygon fill="#1a2833" stroke="#1a2833" points="840.26,-253.85 849.87,-249.39 839.57,-246.89 840.26,-253.85"/>
<text text-anchor="middle" x="793.97" y="-261" font-family="Times,serif" font-size="10.00" fill="#767676">^1.0.1</text>
</g>
<!-- symfony/console&#45;&gt;php -->
<g id="edge17" class="edge">
<title>symfony/console&#45;&gt;php</title>
<path fill="none" stroke="#1a2833" d="M653.8,-156.82C712.89,-166.08 786.48,-187.55 831.97,-237 856.06,-263.18 824.14,-290.54 849.97,-315 881.62,-344.96 933.97,-348.11 969.08,-346.21"/>
<polygon fill="#1a2833" stroke="#1a2833" points="969.65,-349.67 979.38,-345.48 969.15,-342.69 969.65,-349.67"/>
<text text-anchor="middle" x="793.97" y="-240" font-family="Times,serif" font-size="10.00" fill="#767676">&gt;=8.1</text>
</g>
<!-- symfony/deprecation&#45;contracts -->
<g id="node13" class="node">
<title>symfony/deprecation&#45;contracts</title>
<path fill="#eeeeee" stroke="black" d="M1139.47,-144C1139.47,-144 873.47,-144 873.47,-144 867.47,-144 861.47,-138 861.47,-132 861.47,-132 861.47,-120 861.47,-120 861.47,-114 867.47,-108 873.47,-108 873.47,-108 1139.47,-108 1139.47,-108 1145.47,-108 1151.47,-114 1151.47,-120 1151.47,-120 1151.47,-132 1151.47,-132 1151.47,-138 1145.47,-144 1139.47,-144"/>
<text text-anchor="middle" x="1006.47" y="-122.3" font-family="Times,serif" font-size="14.00" fill="#314b5f">symfony/deprecation&#45;contracts: v3.5.0</text>
</g>
<!-- symfony/console&#45;&gt;symfony/deprecation&#45;contracts -->
<g id="edge18" class="edge">
<title>symfony/console&#45;&gt;symfony/deprecation&#45;contracts</title>
<path fill="none" stroke="#1a2833" d="M653.92,-143.36C686.24,-141.18 722.69,-138.84 755.97,-137 786.74,-135.3 819.65,-133.7 851.14,-132.27"/>
<polygon fill="#1a2833" stroke="#1a2833" points="851.48,-135.75 861.31,-131.81 851.16,-128.76 851.48,-135.75"/>
<text text-anchor="middle" x="793.97" y="-140" font-family="Times,serif" font-size="10.00" fill="#767676">^2.5|^3</text>
</g>
<!-- symfony/polyfill&#45;mbstring -->
<g id="node14" class="node">
<title>symfony/polyfill&#45;mbstring</title>
<path fill="#eeeeee" stroke="black" d="M1124.97,-90C1124.97,-90 887.97,-90 887.97,-90 881.97,-90 875.97,-84 875.97,-78 875.97,-78 875.97,-66 875.97,-66 875.97,-60 881.97,-54 887.97,-54 887.97,-54 1124.97,-54 1124.97,-54 1130.97,-54 1136.97,-60 1136.97,-66 1136.97,-66 1136.97,-78 1136.97,-78 1136.97,-84 1130.97,-90 1124.97,-90"/>
<text text-anchor="middle" x="1006.47" y="-68.3" font-family="Times,serif" font-size="14.00" fill="#314b5f">symfony/polyfill&#45;mbstring: v1.30.0</text>
</g>
<!-- symfony/console&#45;&gt;symfony/polyfill&#45;mbstring -->
<g id="edge19" class="edge">
<title>symfony/console&#45;&gt;symfony/polyfill&#45;mbstring</title>
<path fill="none" stroke="#1a2833" d="M653.68,-133.52C710.42,-123.5 784.37,-110.47 849.97,-99 863.33,-96.66 877.34,-94.22 891.24,-91.8"/>
<polygon fill="#1a2833" stroke="#1a2833" points="892.08,-95.21 901.33,-90.05 890.88,-88.31 892.08,-95.21"/>
<text text-anchor="middle" x="793.97" y="-118" font-family="Times,serif" font-size="10.00" fill="#767676">~1.0</text>
</g>
<!-- symfony/service&#45;contracts -->
<g id="node15" class="node">
<title>symfony/service&#45;contracts</title>
<path fill="#eeeeee" stroke="black" d="M1122.97,-36C1122.97,-36 889.97,-36 889.97,-36 883.97,-36 877.97,-30 877.97,-24 877.97,-24 877.97,-12 877.97,-12 877.97,-6 883.97,0 889.97,0 889.97,0 1122.97,0 1122.97,0 1128.97,0 1134.97,-6 1134.97,-12 1134.97,-12 1134.97,-24 1134.97,-24 1134.97,-30 1128.97,-36 1122.97,-36"/>
<text text-anchor="middle" x="1006.47" y="-14.3" font-family="Times,serif" font-size="14.00" fill="#314b5f">symfony/service&#45;contracts: v3.5.0</text>
</g>
<!-- symfony/console&#45;&gt;symfony/service&#45;contracts -->
<g id="edge20" class="edge">
<title>symfony/console&#45;&gt;symfony/service&#45;contracts</title>
<path fill="none" stroke="#1a2833" d="M602.88,-131.94C658.64,-108.82 760.07,-68.91 849.97,-45 859.11,-42.57 868.61,-40.3 878.21,-38.2"/>
<polygon fill="#1a2833" stroke="#1a2833" points="879.19,-41.57 888.24,-36.07 877.73,-34.73 879.19,-41.57"/>
<text text-anchor="middle" x="793.97" y="-76" font-family="Times,serif" font-size="10.00" fill="#767676">^2.5|^3</text>
</g>
<!-- symfony/string -->
<g id="node16" class="node">
<title>symfony/string</title>
<path fill="#eeeeee" stroke="black" d="M1082.97,-198C1082.97,-198 929.97,-198 929.97,-198 923.97,-198 917.97,-192 917.97,-186 917.97,-186 917.97,-174 917.97,-174 917.97,-168 923.97,-162 929.97,-162 929.97,-162 1082.97,-162 1082.97,-162 1088.97,-162 1094.97,-168 1094.97,-174 1094.97,-174 1094.97,-186 1094.97,-186 1094.97,-192 1088.97,-198 1082.97,-198"/>
<text text-anchor="middle" x="1006.47" y="-176.3" font-family="Times,serif" font-size="14.00" fill="#314b5f">symfony/string: v6.4.9</text>
</g>
<!-- symfony/console&#45;&gt;symfony/string -->
<g id="edge21" class="edge">
<title>symfony/console&#45;&gt;symfony/string</title>
<path fill="none" stroke="#1a2833" d="M653.49,-156.27C727.98,-161.29 832.18,-168.32 907.86,-173.42"/>
<polygon fill="#1a2833" stroke="#1a2833" points="907.66,-176.91 917.88,-174.09 908.13,-169.93 907.66,-176.91"/>
<text text-anchor="middle" x="793.97" y="-170" font-family="Times,serif" font-size="10.00" fill="#767676">^5.4|^6.0|^7.0</text>
</g>
</g>
</svg>
