<?xml version="1.0" encoding="UTF-8" standalone="no"?>
<!DOCTYPE svg PUBLIC "-//W3C//DTD SVG 1.1//EN"
 "http://www.w3.org/Graphics/SVG/1.1/DTD/svg11.dtd">
<!-- Generated by graphviz version 2.43.0 (0)
 -->
<!-- Title: %3 Pages: 1 -->
<svg width="899pt" height="682pt"
 viewBox="0.00 0.00 898.98 682.00" xmlns="http://www.w3.org/2000/svg" xmlns:xlink="http://www.w3.org/1999/xlink">
<g id="graph0" class="graph" transform="scale(1 1) rotate(0) translate(4 678)">
<title>%3</title>
<polygon fill="white" stroke="transparent" points="-4,4 -4,-678 894.98,-678 894.98,4 -4,4"/>
<!-- bartlett/sarif&#45;php&#45;converters -->
<g id="node1" class="node">
<title>bartlett/sarif&#45;php&#45;converters</title>
<ellipse fill="lightgrey" stroke="black" stroke-width="2" cx="110.49" cy="-436" rx="110.48" ry="18"/>
<text text-anchor="middle" x="110.49" y="-432.3" font-family="Times,serif" font-size="14.00">bartlett/sarif&#45;php&#45;converters</text>
</g>
<!-- php -->
<g id="node2" class="node">
<title>php</title>
<path fill="#eeeeee" stroke="black" d="M781.98,-360C781.98,-360 751.98,-360 751.98,-360 745.98,-360 739.98,-354 739.98,-348 739.98,-348 739.98,-336 739.98,-336 739.98,-330 745.98,-324 751.98,-324 751.98,-324 781.98,-324 781.98,-324 787.98,-324 793.98,-330 793.98,-336 793.98,-336 793.98,-348 793.98,-348 793.98,-354 787.98,-360 781.98,-360"/>
<text text-anchor="middle" x="766.98" y="-338.3" font-family="Times,serif" font-size="14.00" fill="#314b5f">php</text>
</g>
<!-- bartlett/sarif&#45;php&#45;converters&#45;&gt;php -->
<g id="edge1" class="edge">
<title>bartlett/sarif&#45;php&#45;converters&#45;&gt;php</title>
<path fill="none" stroke="#1a2833" d="M133.94,-418.38C164.03,-395.99 220.03,-358.52 274.98,-344 360.76,-321.34 631.69,-334.21 729.94,-339.81"/>
<polygon fill="#1a2833" stroke="#1a2833" points="729.79,-343.31 739.98,-340.39 730.2,-336.32 729.79,-343.31"/>
<text text-anchor="middle" x="414.98" y="-347" font-family="Times,serif" font-size="10.00" fill="#767676">^8.2</text>
</g>
<!-- ext&#45;json -->
<g id="node3" class="node">
<title>ext&#45;json</title>
<path fill="#eeeeee" stroke="black" d="M784.98,-598C784.98,-598 748.98,-598 748.98,-598 742.98,-598 736.98,-592 736.98,-586 736.98,-586 736.98,-574 736.98,-574 736.98,-568 742.98,-562 748.98,-562 748.98,-562 784.98,-562 784.98,-562 790.98,-562 796.98,-568 796.98,-574 796.98,-574 796.98,-586 796.98,-586 796.98,-592 790.98,-598 784.98,-598"/>
<text text-anchor="middle" x="766.98" y="-576.3" font-family="Times,serif" font-size="14.00" fill="#314b5f">ext&#45;json</text>
</g>
<!-- bartlett/sarif&#45;php&#45;converters&#45;&gt;ext&#45;json -->
<g id="edge2" class="edge">
<title>bartlett/sarif&#45;php&#45;converters&#45;&gt;ext&#45;json</title>
<path fill="none" stroke="#1a2833" d="M127.37,-454.26C154.28,-483.72 212.09,-540.76 274.98,-564 433.76,-622.67 641.46,-599.98 726.79,-586.83"/>
<polygon fill="#1a2833" stroke="#1a2833" points="727.49,-590.26 736.82,-585.24 726.4,-583.35 727.49,-590.26"/>
<text text-anchor="middle" x="414.98" y="-605" font-family="Times,serif" font-size="10.00" fill="#767676">*</text>
</g>
<!-- ext&#45;pcre -->
<g id="node4" class="node">
<title>ext&#45;pcre</title>
<path fill="#eeeeee" stroke="black" d="M785.48,-523C785.48,-523 748.48,-523 748.48,-523 742.48,-523 736.48,-517 736.48,-511 736.48,-511 736.48,-499 736.48,-499 736.48,-493 742.48,-487 748.48,-487 748.48,-487 785.48,-487 785.48,-487 791.48,-487 797.48,-493 797.48,-499 797.48,-499 797.48,-511 797.48,-511 797.48,-517 791.48,-523 785.48,-523"/>
<text text-anchor="middle" x="766.98" y="-501.3" font-family="Times,serif" font-size="14.00" fill="#314b5f">ext&#45;pcre</text>
</g>
<!-- bartlett/sarif&#45;php&#45;converters&#45;&gt;ext&#45;pcre -->
<g id="edge3" class="edge">
<title>bartlett/sarif&#45;php&#45;converters&#45;&gt;ext&#45;pcre</title>
<path fill="none" stroke="#1a2833" d="M184.97,-449.39C213.06,-454.18 245.44,-459.3 274.98,-463 442.07,-483.91 642.48,-497.5 726.2,-502.66"/>
<polygon fill="#1a2833" stroke="#1a2833" points="726.09,-506.16 736.29,-503.27 726.52,-499.17 726.09,-506.16"/>
<text text-anchor="middle" x="414.98" y="-493" font-family="Times,serif" font-size="10.00" fill="#767676">*</text>
</g>
<!-- ext&#45;spl -->
<g id="node5" class="node">
<title>ext&#45;spl</title>
<path fill="#eeeeee" stroke="black" d="M781.98,-654C781.98,-654 751.98,-654 751.98,-654 745.98,-654 739.98,-648 739.98,-642 739.98,-642 739.98,-630 739.98,-630 739.98,-624 745.98,-618 751.98,-618 751.98,-618 781.98,-618 781.98,-618 787.98,-618 793.98,-624 793.98,-630 793.98,-630 793.98,-642 793.98,-642 793.98,-648 787.98,-654 781.98,-654"/>
<text text-anchor="middle" x="766.98" y="-632.3" font-family="Times,serif" font-size="14.00" fill="#314b5f">ext&#45;spl</text>
</g>
<!-- bartlett/sarif&#45;php&#45;converters&#45;&gt;ext&#45;spl -->
<g id="edge4" class="edge">
<title>bartlett/sarif&#45;php&#45;converters&#45;&gt;ext&#45;spl</title>
<path fill="none" stroke="#1a2833" d="M121.17,-454.19C142.77,-492.63 199.03,-581.48 274.98,-617 430.76,-689.85 645.67,-659.75 729.98,-643.66"/>
<polygon fill="#1a2833" stroke="#1a2833" points="730.7,-647.09 739.84,-641.73 729.35,-640.22 730.7,-647.09"/>
<text text-anchor="middle" x="414.98" y="-666" font-family="Times,serif" font-size="10.00" fill="#767676">*</text>
</g>
<!-- composer&#45;runtime&#45;api -->
<g id="node6" class="node">
<title>composer&#45;runtime&#45;api</title>
<path fill="#eeeeee" stroke="black" d="M471.48,-454C471.48,-454 358.48,-454 358.48,-454 352.48,-454 346.48,-448 346.48,-442 346.48,-442 346.48,-430 346.48,-430 346.48,-424 352.48,-418 358.48,-418 358.48,-418 471.48,-418 471.48,-418 477.48,-418 483.48,-424 483.48,-430 483.48,-430 483.48,-442 483.48,-442 483.48,-448 477.48,-454 471.48,-454"/>
<text text-anchor="middle" x="414.98" y="-432.3" font-family="Times,serif" font-size="14.00" fill="#314b5f">composer&#45;runtime&#45;api</text>
</g>
<!-- bartlett/sarif&#45;php&#45;converters&#45;&gt;composer&#45;runtime&#45;api -->
<g id="edge5" class="edge">
<title>bartlett/sarif&#45;php&#45;converters&#45;&gt;composer&#45;runtime&#45;api</title>
<path fill="none" stroke="#1a2833" d="M221.12,-436C259.29,-436 301.28,-436 336.32,-436"/>
<polygon fill="#1a2833" stroke="#1a2833" points="336.48,-439.5 346.48,-436 336.48,-432.5 336.48,-439.5"/>
<text text-anchor="middle" x="247.98" y="-439" font-family="Times,serif" font-size="10.00" fill="#767676">^2.0</text>
</g>
<!-- bartlett/sarif&#45;php&#45;sdk -->
<g id="node7" class="node">
<title>bartlett/sarif&#45;php&#45;sdk</title>
<path fill="#eeeeee" stroke="black" d="M486.48,-555C486.48,-555 343.48,-555 343.48,-555 337.48,-555 331.48,-549 331.48,-543 331.48,-543 331.48,-531 331.48,-531 331.48,-525 337.48,-519 343.48,-519 343.48,-519 486.48,-519 486.48,-519 492.48,-519 498.48,-525 498.48,-531 498.48,-531 498.48,-543 498.48,-543 498.48,-549 492.48,-555 486.48,-555"/>
<text text-anchor="middle" x="414.98" y="-533.3" font-family="Times,serif" font-size="14.00" fill="#314b5f">bartlett/sarif&#45;php&#45;sdk: 2.1.2</text>
</g>
<!-- bartlett/sarif&#45;php&#45;converters&#45;&gt;bartlett/sarif&#45;php&#45;sdk -->
<g id="edge10" class="edge">
<title>bartlett/sarif&#45;php&#45;converters&#45;&gt;bartlett/sarif&#45;php&#45;sdk</title>
<path fill="none" stroke="#1a2833" d="M138.72,-453.68C163.8,-469.18 202.54,-491.18 238.98,-504 264.97,-513.14 294.07,-519.92 320.97,-524.87"/>
<polygon fill="#1a2833" stroke="#1a2833" points="320.7,-528.37 331.16,-526.68 321.93,-521.48 320.7,-528.37"/>
<text text-anchor="middle" x="247.98" y="-511" font-family="Times,serif" font-size="10.00" fill="#767676">^2.0</text>
</g>
<!-- bamarni/composer&#45;bin&#45;plugin -->
<g id="node8" class="node">
<title>bamarni/composer&#45;bin&#45;plugin</title>
<path fill="#eeeeee" stroke="black" d="M509.98,-400C509.98,-400 319.98,-400 319.98,-400 313.98,-400 307.98,-394 307.98,-388 307.98,-388 307.98,-376 307.98,-376 307.98,-370 313.98,-364 319.98,-364 319.98,-364 509.98,-364 509.98,-364 515.98,-364 521.98,-370 521.98,-376 521.98,-376 521.98,-388 521.98,-388 521.98,-394 515.98,-400 509.98,-400"/>
<text text-anchor="middle" x="414.98" y="-378.3" font-family="Times,serif" font-size="14.00" fill="#314b5f">bamarni/composer&#45;bin&#45;plugin: 1.8.2</text>
</g>
<!-- bartlett/sarif&#45;php&#45;converters&#45;&gt;bamarni/composer&#45;bin&#45;plugin -->
<g id="edge13" class="edge">
<title>bartlett/sarif&#45;php&#45;converters&#45;&gt;bamarni/composer&#45;bin&#45;plugin</title>
<path fill="none" stroke="#1a2833" stroke-dasharray="5,2" d="M185.88,-422.72C221.04,-416.44 263.76,-408.82 302.68,-401.87"/>
<polygon fill="#1a2833" stroke="#1a2833" points="303.78,-405.23 313.01,-400.02 302.55,-398.34 303.78,-405.23"/>
<text text-anchor="middle" x="247.98" y="-415" font-family="Times,serif" font-size="10.00" fill="#767676">^1.8</text>
</g>
<!-- php&#45;parallel&#45;lint/php&#45;console&#45;highlighter -->
<g id="node10" class="node">
<title>php&#45;parallel&#45;lint/php&#45;console&#45;highlighter</title>
<path fill="#eeeeee" stroke="black" d="M542.98,-296C542.98,-296 286.98,-296 286.98,-296 280.98,-296 274.98,-290 274.98,-284 274.98,-284 274.98,-272 274.98,-272 274.98,-266 280.98,-260 286.98,-260 286.98,-260 542.98,-260 542.98,-260 548.98,-260 554.98,-266 554.98,-272 554.98,-272 554.98,-284 554.98,-284 554.98,-290 548.98,-296 542.98,-296"/>
<text text-anchor="middle" x="414.98" y="-274.3" font-family="Times,serif" font-size="14.00" fill="#314b5f">php&#45;parallel&#45;lint/php&#45;console&#45;highlighter: v1.0.0</text>
</g>
<!-- bartlett/sarif&#45;php&#45;converters&#45;&gt;php&#45;parallel&#45;lint/php&#45;console&#45;highlighter -->
<g id="edge17" class="edge">
<title>bartlett/sarif&#45;php&#45;converters&#45;&gt;php&#45;parallel&#45;lint/php&#45;console&#45;highlighter</title>
<path fill="none" stroke="#1a2833" stroke-dasharray="5,2" d="M124.02,-417.98C144.55,-389.97 188.2,-336.45 238.98,-310 247.32,-305.66 256.14,-301.9 265.23,-298.64"/>
<polygon fill="#1a2833" stroke="#1a2833" points="266.41,-301.93 274.77,-295.42 264.18,-295.3 266.41,-301.93"/>
<text text-anchor="middle" x="247.98" y="-313" font-family="Times,serif" font-size="10.00" fill="#767676">^1.0</text>
</g>
<!-- symfony/console -->
<g id="node13" class="node">
<title>symfony/console</title>
<path fill="#eeeeee" stroke="black" d="M478.98,-166C478.98,-166 350.98,-166 350.98,-166 344.98,-166 338.98,-160 338.98,-154 338.98,-154 338.98,-142 338.98,-142 338.98,-136 344.98,-130 350.98,-130 350.98,-130 478.98,-130 478.98,-130 484.98,-130 490.98,-136 490.98,-142 490.98,-142 490.98,-154 490.98,-154 490.98,-160 484.98,-166 478.98,-166"/>
<text text-anchor="middle" x="414.98" y="-144.3" font-family="Times,serif" font-size="14.00" fill="#314b5f">symfony/console: v7.3.1</text>
</g>
<!-- bartlett/sarif&#45;php&#45;converters&#45;&gt;symfony/console -->
<g id="edge23" class="edge">
<title>bartlett/sarif&#45;php&#45;converters&#45;&gt;symfony/console</title>
<path fill="none" stroke="#1a2833" stroke-dasharray="5,2" d="M124.73,-417.99C150.9,-383.14 212.17,-305.16 274.98,-251 308.69,-221.94 349.94,-192.01 378.71,-171.96"/>
<polygon fill="#1a2833" stroke="#1a2833" points="380.99,-174.64 387.22,-166.06 377.01,-168.88 380.99,-174.64"/>
<text text-anchor="middle" x="247.98" y="-287" font-family="Times,serif" font-size="10.00" fill="#767676">^7.0</text>
</g>
<!-- bartlett/sarif&#45;php&#45;sdk&#45;&gt;php -->
<g id="edge9" class="edge">
<title>bartlett/sarif&#45;php&#45;sdk&#45;&gt;php</title>
<path fill="none" stroke="#1a2833" d="M498.61,-528.13C518.22,-523.37 538.27,-516.09 554.98,-505 599.28,-475.6 596.64,-452.98 624.98,-408 633.89,-393.87 629.85,-385.33 642.98,-375 667.83,-355.44 703.3,-347.44 729.77,-344.18"/>
<polygon fill="#1a2833" stroke="#1a2833" points="730.22,-347.65 739.79,-343.12 729.48,-340.69 730.22,-347.65"/>
<text text-anchor="middle" x="598.98" y="-492" font-family="Times,serif" font-size="10.00" fill="#767676">^8.1</text>
</g>
<!-- bartlett/sarif&#45;php&#45;sdk&#45;&gt;ext&#45;json -->
<g id="edge6" class="edge">
<title>bartlett/sarif&#45;php&#45;sdk&#45;&gt;ext&#45;json</title>
<path fill="none" stroke="#1a2833" d="M498.48,-547.14C570.44,-555.98 671.68,-568.41 726.68,-575.17"/>
<polygon fill="#1a2833" stroke="#1a2833" points="726.36,-578.66 736.71,-576.4 727.21,-571.71 726.36,-578.66"/>
<text text-anchor="middle" x="598.98" y="-565" font-family="Times,serif" font-size="10.00" fill="#767676">*</text>
</g>
<!-- bartlett/sarif&#45;php&#45;sdk&#45;&gt;ext&#45;pcre -->
<g id="edge7" class="edge">
<title>bartlett/sarif&#45;php&#45;sdk&#45;&gt;ext&#45;pcre</title>
<path fill="none" stroke="#1a2833" d="M498.48,-529.46C570.25,-522.9 671.15,-513.67 726.24,-508.63"/>
<polygon fill="#1a2833" stroke="#1a2833" points="726.66,-512.11 736.3,-507.71 726.02,-505.14 726.66,-512.11"/>
<text text-anchor="middle" x="598.98" y="-524" font-family="Times,serif" font-size="10.00" fill="#767676">*</text>
</g>
<!-- bartlett/sarif&#45;php&#45;sdk&#45;&gt;ext&#45;spl -->
<g id="edge8" class="edge">
<title>bartlett/sarif&#45;php&#45;sdk&#45;&gt;ext&#45;spl</title>
<path fill="none" stroke="#1a2833" d="M498.66,-553.29C517.37,-557.73 537.01,-563 554.98,-569 563.28,-571.77 564.96,-573.5 572.98,-577 604,-590.54 610.83,-596.41 642.98,-607 671.61,-616.43 704.93,-624.09 729.66,-629.16"/>
<polygon fill="#1a2833" stroke="#1a2833" points="729.21,-632.64 739.7,-631.18 730.59,-625.78 729.21,-632.64"/>
<text text-anchor="middle" x="598.98" y="-603" font-family="Times,serif" font-size="10.00" fill="#767676">*</text>
</g>
<!-- bamarni/composer&#45;bin&#45;plugin&#45;&gt;php -->
<g id="edge12" class="edge">
<title>bamarni/composer&#45;bin&#45;plugin&#45;&gt;php</title>
<path fill="none" stroke="#1a2833" d="M522.42,-369.84C593.06,-361.76 681.4,-351.67 729.91,-346.12"/>
<polygon fill="#1a2833" stroke="#1a2833" points="730.39,-349.59 739.92,-344.98 729.59,-342.64 730.39,-349.59"/>
<text text-anchor="middle" x="598.98" y="-366" font-family="Times,serif" font-size="10.00" fill="#767676">^7.2.5 || ^8.0</text>
</g>
<!-- composer&#45;plugin&#45;api -->
<g id="node9" class="node">
<title>composer&#45;plugin&#45;api</title>
<path fill="#eeeeee" stroke="black" d="M818.98,-420C818.98,-420 714.98,-420 714.98,-420 708.98,-420 702.98,-414 702.98,-408 702.98,-408 702.98,-396 702.98,-396 702.98,-390 708.98,-384 714.98,-384 714.98,-384 818.98,-384 818.98,-384 824.98,-384 830.98,-390 830.98,-396 830.98,-396 830.98,-408 830.98,-408 830.98,-414 824.98,-420 818.98,-420"/>
<text text-anchor="middle" x="766.98" y="-398.3" font-family="Times,serif" font-size="14.00" fill="#314b5f">composer&#45;plugin&#45;api</text>
</g>
<!-- bamarni/composer&#45;bin&#45;plugin&#45;&gt;composer&#45;plugin&#45;api -->
<g id="edge11" class="edge">
<title>bamarni/composer&#45;bin&#45;plugin&#45;&gt;composer&#45;plugin&#45;api</title>
<path fill="none" stroke="#1a2833" d="M522.42,-388.08C577.43,-391.23 643.18,-394.98 692.5,-397.8"/>
<polygon fill="#1a2833" stroke="#1a2833" points="692.58,-401.31 702.76,-398.39 692.98,-394.32 692.58,-401.31"/>
<text text-anchor="middle" x="598.98" y="-396" font-family="Times,serif" font-size="10.00" fill="#767676">^2.0</text>
</g>
<!-- php&#45;parallel&#45;lint/php&#45;console&#45;highlighter&#45;&gt;php -->
<g id="edge15" class="edge">
<title>php&#45;parallel&#45;lint/php&#45;console&#45;highlighter&#45;&gt;php</title>
<path fill="none" stroke="#1a2833" d="M549.65,-296.04C574.77,-300.12 600.75,-304.8 624.98,-310 633.1,-311.74 634.92,-313 642.98,-315 672.13,-322.24 705.41,-329.49 730,-334.65"/>
<polygon fill="#1a2833" stroke="#1a2833" points="729.46,-338.11 739.97,-336.72 730.89,-331.26 729.46,-338.11"/>
<text text-anchor="middle" x="598.98" y="-313" font-family="Times,serif" font-size="10.00" fill="#767676">&gt;=5.3.2</text>
</g>
<!-- ext&#45;tokenizer -->
<g id="node11" class="node">
<title>ext&#45;tokenizer</title>
<path fill="#eeeeee" stroke="black" d="M798.98,-306C798.98,-306 734.98,-306 734.98,-306 728.98,-306 722.98,-300 722.98,-294 722.98,-294 722.98,-282 722.98,-282 722.98,-276 728.98,-270 734.98,-270 734.98,-270 798.98,-270 798.98,-270 804.98,-270 810.98,-276 810.98,-282 810.98,-282 810.98,-294 810.98,-294 810.98,-300 804.98,-306 798.98,-306"/>
<text text-anchor="middle" x="766.98" y="-284.3" font-family="Times,serif" font-size="14.00" fill="#314b5f">ext&#45;tokenizer</text>
</g>
<!-- php&#45;parallel&#45;lint/php&#45;console&#45;highlighter&#45;&gt;ext&#45;tokenizer -->
<g id="edge14" class="edge">
<title>php&#45;parallel&#45;lint/php&#45;console&#45;highlighter&#45;&gt;ext&#45;tokenizer</title>
<path fill="none" stroke="#1a2833" d="M555.14,-274.65C578.46,-274.67 602.41,-275.04 624.98,-276 654.02,-277.23 686.33,-279.89 712.68,-282.39"/>
<polygon fill="#1a2833" stroke="#1a2833" points="712.55,-285.89 722.84,-283.37 713.23,-278.93 712.55,-285.89"/>
<text text-anchor="middle" x="598.98" y="-279" font-family="Times,serif" font-size="10.00" fill="#767676">*</text>
</g>
<!-- php&#45;parallel&#45;lint/php&#45;console&#45;color -->
<g id="node12" class="node">
<title>php&#45;parallel&#45;lint/php&#45;console&#45;color</title>
<path fill="#eeeeee" stroke="black" d="M878.98,-252C878.98,-252 654.98,-252 654.98,-252 648.98,-252 642.98,-246 642.98,-240 642.98,-240 642.98,-228 642.98,-228 642.98,-222 648.98,-216 654.98,-216 654.98,-216 878.98,-216 878.98,-216 884.98,-216 890.98,-222 890.98,-228 890.98,-228 890.98,-240 890.98,-240 890.98,-246 884.98,-252 878.98,-252"/>
<text text-anchor="middle" x="766.98" y="-230.3" font-family="Times,serif" font-size="14.00" fill="#314b5f">php&#45;parallel&#45;lint/php&#45;console&#45;color: v1.0.1</text>
</g>
<!-- php&#45;parallel&#45;lint/php&#45;console&#45;highlighter&#45;&gt;php&#45;parallel&#45;lint/php&#45;console&#45;color -->
<g id="edge16" class="edge">
<title>php&#45;parallel&#45;lint/php&#45;console&#45;highlighter&#45;&gt;php&#45;parallel&#45;lint/php&#45;console&#45;color</title>
<path fill="none" stroke="#1a2833" d="M555.06,-260.52C580.66,-257.3 607.33,-253.95 632.74,-250.75"/>
<polygon fill="#1a2833" stroke="#1a2833" points="633.31,-254.21 642.8,-249.49 632.44,-247.26 633.31,-254.21"/>
<text text-anchor="middle" x="598.98" y="-261" font-family="Times,serif" font-size="10.00" fill="#767676">^1.0.1</text>
</g>
<!-- symfony/console&#45;&gt;php -->
<g id="edge18" class="edge">
<title>symfony/console&#45;&gt;php</title>
<path fill="none" stroke="#1a2833" d="M491,-162.46C536.16,-174.99 591.26,-197.71 624.98,-238 647.54,-264.95 617.96,-290.32 642.98,-315 665.68,-337.4 702.45,-343.04 729.88,-343.74"/>
<polygon fill="#1a2833" stroke="#1a2833" points="729.87,-347.24 739.89,-343.8 729.9,-340.24 729.87,-347.24"/>
<text text-anchor="middle" x="598.98" y="-241" font-family="Times,serif" font-size="10.00" fill="#767676">&gt;=8.2</text>
</g>
<!-- symfony/deprecation&#45;contracts -->
<g id="node14" class="node">
<title>symfony/deprecation&#45;contracts</title>
<path fill="#eeeeee" stroke="black" d="M868.48,-36C868.48,-36 665.48,-36 665.48,-36 659.48,-36 653.48,-30 653.48,-24 653.48,-24 653.48,-12 653.48,-12 653.48,-6 659.48,0 665.48,0 665.48,0 868.48,0 868.48,0 874.48,0 880.48,-6 880.48,-12 880.48,-12 880.48,-24 880.48,-24 880.48,-30 874.48,-36 868.48,-36"/>
<text text-anchor="middle" x="766.98" y="-14.3" font-family="Times,serif" font-size="14.00" fill="#314b5f">symfony/deprecation&#45;contracts: v3.6.0</text>
</g>
<!-- symfony/console&#45;&gt;symfony/deprecation&#45;contracts -->
<g id="edge19" class="edge">
<title>symfony/console&#45;&gt;symfony/deprecation&#45;contracts</title>
<path fill="none" stroke="#1a2833" d="M449.69,-129.99C493.25,-107.36 571.94,-68.62 642.98,-45 649.76,-42.75 656.8,-40.63 663.94,-38.65"/>
<polygon fill="#1a2833" stroke="#1a2833" points="664.97,-42 673.72,-36.04 663.16,-35.24 664.97,-42"/>
<text text-anchor="middle" x="598.98" y="-73" font-family="Times,serif" font-size="10.00" fill="#767676">^2.5|^3</text>
</g>
<!-- symfony/polyfill&#45;mbstring -->
<g id="node15" class="node">
<title>symfony/polyfill&#45;mbstring</title>
<path fill="#eeeeee" stroke="black" d="M859.98,-198C859.98,-198 673.98,-198 673.98,-198 667.98,-198 661.98,-192 661.98,-186 661.98,-186 661.98,-174 661.98,-174 661.98,-168 667.98,-162 673.98,-162 673.98,-162 859.98,-162 859.98,-162 865.98,-162 871.98,-168 871.98,-174 871.98,-174 871.98,-186 871.98,-186 871.98,-192 865.98,-198 859.98,-198"/>
<text text-anchor="middle" x="766.98" y="-176.3" font-family="Times,serif" font-size="14.00" fill="#314b5f">symfony/polyfill&#45;mbstring: v1.32.0</text>
</g>
<!-- symfony/console&#45;&gt;symfony/polyfill&#45;mbstring -->
<g id="edge20" class="edge">
<title>symfony/console&#45;&gt;symfony/polyfill&#45;mbstring</title>
<path fill="none" stroke="#1a2833" d="M491.06,-154.86C537.86,-159.14 599,-164.73 651.73,-169.55"/>
<polygon fill="#1a2833" stroke="#1a2833" points="651.54,-173.05 661.81,-170.48 652.17,-166.08 651.54,-173.05"/>
<text text-anchor="middle" x="598.98" y="-170" font-family="Times,serif" font-size="10.00" fill="#767676">~1.0</text>
</g>
<!-- symfony/service&#45;contracts -->
<g id="node16" class="node">
<title>symfony/service&#45;contracts</title>
<path fill="#eeeeee" stroke="black" d="M856.48,-144C856.48,-144 677.48,-144 677.48,-144 671.48,-144 665.48,-138 665.48,-132 665.48,-132 665.48,-120 665.48,-120 665.48,-114 671.48,-108 677.48,-108 677.48,-108 856.48,-108 856.48,-108 862.48,-108 868.48,-114 868.48,-120 868.48,-120 868.48,-132 868.48,-132 868.48,-138 862.48,-144 856.48,-144"/>
<text text-anchor="middle" x="766.98" y="-122.3" font-family="Times,serif" font-size="14.00" fill="#314b5f">symfony/service&#45;contracts: v3.6.0</text>
</g>
<!-- symfony/console&#45;&gt;symfony/service&#45;contracts -->
<g id="edge21" class="edge">
<title>symfony/console&#45;&gt;symfony/service&#45;contracts</title>
<path fill="none" stroke="#1a2833" d="M491.03,-142.54C516.99,-140.71 546.26,-138.7 572.98,-137 599.56,-135.31 628.21,-133.61 655.09,-132.07"/>
<polygon fill="#1a2833" stroke="#1a2833" points="655.51,-135.55 665.3,-131.49 655.11,-128.57 655.51,-135.55"/>
<text text-anchor="middle" x="598.98" y="-140" font-family="Times,serif" font-size="10.00" fill="#767676">^2.5|^3</text>
</g>
<!-- symfony/string -->
<g id="node17" class="node">
<title>symfony/string</title>
<path fill="#eeeeee" stroke="black" d="M825.98,-90C825.98,-90 707.98,-90 707.98,-90 701.98,-90 695.98,-84 695.98,-78 695.98,-78 695.98,-66 695.98,-66 695.98,-60 701.98,-54 707.98,-54 707.98,-54 825.98,-54 825.98,-54 831.98,-54 837.98,-60 837.98,-66 837.98,-66 837.98,-78 837.98,-78 837.98,-84 831.98,-90 825.98,-90"/>
<text text-anchor="middle" x="766.98" y="-68.3" font-family="Times,serif" font-size="14.00" fill="#314b5f">symfony/string: v7.3.0</text>
</g>
<!-- symfony/console&#45;&gt;symfony/string -->
<g id="edge22" class="edge">
<title>symfony/console&#45;&gt;symfony/string</title>
<path fill="none" stroke="#1a2833" d="M491.06,-131.7C548.41,-119.24 627.28,-102.12 685.84,-89.4"/>
<polygon fill="#1a2833" stroke="#1a2833" points="686.76,-92.78 695.79,-87.24 685.27,-85.94 686.76,-92.78"/>
<text text-anchor="middle" x="598.98" y="-116" font-family="Times,serif" font-size="10.00" fill="#767676">^7.2</text>
</g>
</g>
</svg>
