<?xml version="1.0" encoding="UTF-8" standalone="no"?>
<!DOCTYPE svg PUBLIC "-//W3C//DTD SVG 1.1//EN"
 "http://www.w3.org/Graphics/SVG/1.1/DTD/svg11.dtd">
<!-- Generated by graphviz version 2.43.0 (0)
 -->
<!-- Title: %3 Pages: 1 -->
<svg width="1446pt" height="839pt"
 viewBox="0.00 0.00 1446.00 839.00" xmlns="http://www.w3.org/2000/svg" xmlns:xlink="http://www.w3.org/1999/xlink">
<g id="graph0" class="graph" transform="scale(1 1) rotate(0) translate(4 835)">
<title>%3</title>
<g id="clust1" class="cluster">
<title>cluster_0</title>
<polygon fill="BurlyWood" stroke="black" points="8,-206 8,-813.5 664,-813.5 664,-206 8,-206"/>
<text text-anchor="middle" x="336" y="-798.3" font-family="Times,serif" font-size="14.00">Bartlett\Sarif\Converter</text>
</g>
<g id="clust2" class="cluster">
<title>cluster_1</title>
<polygon fill="LightSkyBlue" stroke="black" points="256,-8 256,-198 1374,-198 1374,-8 256,-8"/>
<text text-anchor="middle" x="815" y="-182.8" font-family="Times,serif" font-size="14.00">Bartlett\Sarif\Contract</text>
</g>
<g id="clust3" class="cluster">
<title>cluster_2</title>
<polygon fill="Bisque" stroke="black" points="672,-355.5 672,-807 1014,-807 1014,-355.5 672,-355.5"/>
<text text-anchor="middle" x="843" y="-791.8" font-family="Times,serif" font-size="14.00">Bartlett\Sarif\Converter\Source</text>
</g>
<g id="clust4" class="cluster">
<title>cluster_3</title>
<polygon fill="Bisque" stroke="black" points="1022,-365.5 1022,-823 1430,-823 1430,-365.5 1022,-365.5"/>
<text text-anchor="middle" x="1226" y="-807.8" font-family="Times,serif" font-size="14.00">Bartlett\Sarif\Converter\Normalizer</text>
</g>
<!-- Bartlett\\Sarif\\Converter\\PhpStanConverter -->
<g id="node1" class="node">
<title>Bartlett\\Sarif\\Converter\\PhpStanConverter</title>
<polygon fill="#fefece" stroke="transparent" points="453,-782.5 219,-782.5 219,-722.5 453,-722.5 453,-782.5"/>
<polygon fill="#eeeeee" stroke="transparent" points="219,-760.5 219,-782.5 453,-782.5 453,-760.5 219,-760.5"/>
<polygon fill="none" stroke="black" points="219,-760.5 219,-782.5 453,-782.5 453,-760.5 219,-760.5"/>
<text text-anchor="start" x="294" y="-766.1" font-family="Verdana" font-weight="bold" font-size="8.00">PhpStanConverter</text>
<polygon fill="none" stroke="black" points="219,-754.5 219,-760.5 453,-760.5 453,-754.5 219,-754.5"/>
<polygon fill="none" stroke="black" points="219,-722.5 219,-754.5 453,-754.5 453,-722.5 219,-722.5"/>
<text text-anchor="start" x="224" y="-743.1" font-family="Verdana" font-size="8.00">+ configure(options : array = []) : void</text>
<text text-anchor="start" x="224" y="-730.1" font-family="Verdana" font-size="8.00">+ toolDriver() : Bartlett\Sarif\Definition\ToolComponent</text>
</g>
<!-- Bartlett\\Sarif\\Converter\\AbstractConverter -->
<g id="node2" class="node">
<title>Bartlett\\Sarif\\Converter\\AbstractConverter</title>
<polygon fill="#fefece" stroke="transparent" points="655.5,-677 16.5,-677 16.5,-214 655.5,-214 655.5,-677"/>
<polygon fill="#eeeeee" stroke="transparent" points="17,-654.5 17,-676.5 656,-676.5 656,-654.5 17,-654.5"/>
<polygon fill="none" stroke="black" points="17,-654.5 17,-676.5 656,-676.5 656,-654.5 17,-654.5"/>
<text text-anchor="start" x="312.5" y="-668.1" font-family="Verdana" font-weight="bold" font-size="8.00">«abstract»</text>
<text text-anchor="start" x="295.5" y="-660.1" font-family="Verdana" font-weight="bold" font-size="8.00">AbstractConverter</text>
<polygon fill="none" stroke="black" points="17,-440.5 17,-654.5 656,-654.5 656,-440.5 17,-440.5"/>
<text text-anchor="start" x="22" y="-643.1" font-family="Verdana" font-size="8.00"># toolName</text>
<text text-anchor="start" x="22" y="-630.1" font-family="Verdana" font-size="8.00"># toolFullName</text>
<text text-anchor="start" x="22" y="-617.1" font-family="Verdana" font-size="8.00"># toolShortDescription</text>
<text text-anchor="start" x="22" y="-604.1" font-family="Verdana" font-size="8.00"># toolFullDescription</text>
<text text-anchor="start" x="22" y="-591.1" font-family="Verdana" font-size="8.00"># toolInformationUri</text>
<text text-anchor="start" x="22" y="-578.1" font-family="Verdana" font-size="8.00"># toolComposerPackage</text>
<text text-anchor="start" x="22" y="-565.1" font-family="Verdana" font-size="8.00"># toolSemanticVersion</text>
<text text-anchor="start" x="22" y="-552.1" font-family="Verdana" font-size="8.00"># converterComposerPackage</text>
<text text-anchor="start" x="22" y="-539.1" font-family="Verdana" font-size="8.00"># results : mixed = []</text>
<text text-anchor="start" x="22" y="-526.1" font-family="Verdana" font-size="8.00"># errors : mixed = []</text>
<text text-anchor="start" x="22" y="-513.1" font-family="Verdana" font-size="8.00"># serializer</text>
<text text-anchor="start" x="22" y="-500.1" font-family="Verdana" font-size="8.00"># startTime</text>
<text text-anchor="start" x="22" y="-487.1" font-family="Verdana" font-size="8.00"># endTime</text>
<text text-anchor="start" x="22" y="-474.1" font-family="Verdana" font-size="8.00"># includeCodeSnippets</text>
<text text-anchor="start" x="22" y="-461.1" font-family="Verdana" font-size="8.00"># includeContextRegion</text>
<text text-anchor="start" x="22" y="-448.1" font-family="Verdana" font-size="8.00"># defaultResultLevelIfEmpty</text>
<polygon fill="none" stroke="black" points="17,-213.5 17,-440.5 656,-440.5 656,-213.5 17,-213.5"/>
<text text-anchor="start" x="22" y="-429.1" font-family="Verdana" font-size="8.00">+ __construct(options : array = [], factory : Bartlett\Sarif\Factory\SerializerFactory = «unknown»)</text>
<text text-anchor="start" x="22" y="-416.1" font-family="Verdana" font-size="8.00">+ getName() : string</text>
<text text-anchor="start" x="22" y="-403.1" font-family="Verdana" font-size="8.00">+ configure(options : array) : void</text>
<text text-anchor="start" x="22" y="-390.1" font-family="Verdana" font-size="8.00">+ toolDriver() : Bartlett\Sarif\Definition\ToolComponent</text>
<text text-anchor="start" x="22" y="-377.1" font-family="Verdana" font-size="8.00">+ toolExtensions() : array</text>
<text text-anchor="start" x="22" y="-364.1" font-family="Verdana" font-size="8.00">+ rules(defined : iterable) : array</text>
<text text-anchor="start" x="22" y="-351.1" font-family="Verdana" font-size="8.00">+ results(normalized : iterable) : void</text>
<text text-anchor="start" x="22" y="-338.1" font-family="Verdana" font-size="8.00">+ sarifLog(runs : array = [], version : string = &#39;2\.1\.0&#39;) : ?string</text>
<text text-anchor="start" x="22" y="-325.1" font-family="Verdana" font-size="8.00">+ invocations(properties : Bartlett\Sarif\Definition\PropertyBag = «unknown») : array</text>
<text text-anchor="start" x="22" y="-312.1" font-family="Verdana" font-size="8.00">+ automationDetails() : Bartlett\Sarif\Definition\RunAutomationDetails</text>
<text text-anchor="start" x="22" y="-299.1" font-family="Verdana" font-size="8.00">+ run(invocations : iterable, rules : iterable) : Bartlett\Sarif\Definition\Run</text>
<text text-anchor="start" x="22" y="-286.1" font-family="Verdana" font-size="8.00"># getToolVersion(package : string) : string</text>
<text text-anchor="start" x="22" y="-273.1" font-family="Verdana" font-size="8.00"># pathToArtifactLocation(path : string) : string</text>
<text text-anchor="start" x="22" y="-260.1" font-family="Verdana" font-size="8.00"># pathToUri(path : string) : string</text>
<text text-anchor="start" x="22" y="-247.1" font-family="Verdana" font-size="8.00"># getCodeSnippet(filePath : string, lineNumber : int, linesBefore : int, linesAfter : int) : ?string</text>
<text text-anchor="start" x="22" y="-234.1" font-family="Verdana" font-size="8.00"># getSnippetRegion(filePath : string, lineNumber : int, column : int = «unknown», linesBefore : int = 2, linesAfter : int = 2) : Bartlett\Sarif\Definition\Region</text>
<text text-anchor="start" x="22" y="-221.1" font-family="Verdana" font-size="8.00"># getErrors() : Iterator</text>
</g>
<!-- Bartlett\\Sarif\\Converter\\PhpStanConverter&#45;&gt;Bartlett\\Sarif\\Converter\\AbstractConverter -->
<g id="edge2" class="edge">
<title>Bartlett\\Sarif\\Converter\\PhpStanConverter&#45;&gt;Bartlett\\Sarif\\Converter\\AbstractConverter</title>
<path fill="none" stroke="black" d="M336,-722.26C336,-712.45 336,-700.62 336,-687.44"/>
<polygon fill="none" stroke="black" points="339.5,-687.12 336,-677.12 332.5,-687.12 339.5,-687.12"/>
</g>
<!-- Bartlett\\Sarif\\Contract\\ConverterInterface -->
<g id="node3" class="node">
<title>Bartlett\\Sarif\\Contract\\ConverterInterface</title>
<polygon fill="#fefece" stroke="transparent" points="668,-167 264,-167 264,-16 668,-16 668,-167"/>
<polygon fill="#eeeeee" stroke="transparent" points="264,-144.5 264,-166.5 668,-166.5 668,-144.5 264,-144.5"/>
<polygon fill="none" stroke="black" points="264,-144.5 264,-166.5 668,-166.5 668,-144.5 264,-144.5"/>
<text text-anchor="start" x="440" y="-158.1" font-family="Verdana" font-weight="bold" font-size="8.00">«interface»</text>
<text text-anchor="start" x="423.5" y="-150.1" font-family="Verdana" font-weight="bold" font-size="8.00">ConverterInterface</text>
<polygon fill="none" stroke="black" points="264,-138.5 264,-144.5 668,-144.5 668,-138.5 264,-138.5"/>
<polygon fill="none" stroke="black" points="264,-15.5 264,-138.5 668,-138.5 668,-15.5 264,-15.5"/>
<text text-anchor="start" x="269" y="-127.1" font-family="Verdana" font-size="8.00">+ «abstract» getName() : string</text>
<text text-anchor="start" x="269" y="-114.1" font-family="Verdana" font-size="8.00">+ «abstract» toolDriver() : Bartlett\Sarif\Definition\ToolComponent</text>
<text text-anchor="start" x="269" y="-101.1" font-family="Verdana" font-size="8.00">+ «abstract» toolExtensions() : array</text>
<text text-anchor="start" x="269" y="-88.1" font-family="Verdana" font-size="8.00">+ «abstract» rules(defined : iterable) : array</text>
<text text-anchor="start" x="269" y="-75.1" font-family="Verdana" font-size="8.00">+ «abstract» results(normalized : iterable) : void</text>
<text text-anchor="start" x="269" y="-62.1" font-family="Verdana" font-size="8.00">+ «abstract» invocations(properties : Bartlett\Sarif\Definition\PropertyBag = «unknown») : array</text>
<text text-anchor="start" x="269" y="-49.1" font-family="Verdana" font-size="8.00">+ «abstract» automationDetails() : Bartlett\Sarif\Definition\RunAutomationDetails</text>
<text text-anchor="start" x="269" y="-36.1" font-family="Verdana" font-size="8.00">+ «abstract» run(invocations : iterable, rules : iterable) : Bartlett\Sarif\Definition\Run</text>
<text text-anchor="start" x="269" y="-23.1" font-family="Verdana" font-size="8.00">+ «abstract» sarifLog(runs : array = [], version : string = &#39;2\.1\.0&#39;) : ?string</text>
</g>
<!-- Bartlett\\Sarif\\Converter\\AbstractConverter&#45;&gt;Bartlett\\Sarif\\Contract\\ConverterInterface -->
<g id="edge1" class="edge">
<title>Bartlett\\Sarif\\Converter\\AbstractConverter&#45;&gt;Bartlett\\Sarif\\Contract\\ConverterInterface</title>
<path fill="none" stroke="black" stroke-dasharray="5,2" d="M421.26,-213.64C426.01,-200.78 430.6,-188.36 434.91,-176.68"/>
<polygon fill="none" stroke="black" points="438.28,-177.65 438.46,-167.06 431.72,-175.23 438.28,-177.65"/>
</g>
<!-- Bartlett\\Sarif\\Contract\\SourceInterface -->
<g id="node4" class="node">
<title>Bartlett\\Sarif\\Contract\\SourceInterface</title>
<polygon fill="#fefece" stroke="transparent" points="1000,-147.5 686,-147.5 686,-35.5 1000,-35.5 1000,-147.5"/>
<polygon fill="#eeeeee" stroke="transparent" points="686,-125.5 686,-147.5 1000,-147.5 1000,-125.5 686,-125.5"/>
<polygon fill="none" stroke="black" points="686,-125.5 686,-147.5 1000,-147.5 1000,-125.5 686,-125.5"/>
<text text-anchor="start" x="817" y="-139.1" font-family="Verdana" font-weight="bold" font-size="8.00">«interface»</text>
<text text-anchor="start" x="807" y="-131.1" font-family="Verdana" font-weight="bold" font-size="8.00">SourceInterface</text>
<polygon fill="none" stroke="black" points="686,-119.5 686,-125.5 1000,-125.5 1000,-119.5 686,-119.5"/>
<polygon fill="none" stroke="black" points="686,-35.5 686,-119.5 1000,-119.5 1000,-35.5 686,-35.5"/>
<text text-anchor="start" x="691" y="-108.1" font-family="Verdana" font-size="8.00">+ «abstract» getName() : string</text>
<text text-anchor="start" x="691" y="-95.1" font-family="Verdana" font-size="8.00">+ «abstract» getFiles() : Iterator</text>
<text text-anchor="start" x="691" y="-82.1" font-family="Verdana" font-size="8.00">+ «abstract» getErrors() : Iterator</text>
<text text-anchor="start" x="691" y="-69.1" font-family="Verdana" font-size="8.00">+ «abstract» getRules() : Iterator</text>
<text text-anchor="start" x="691" y="-56.1" font-family="Verdana" font-size="8.00">+ «abstract» getAttribute(name : string) : Iterator</text>
<text text-anchor="start" x="691" y="-43.1" font-family="Verdana" font-size="8.00">+ «abstract» normalize(data : mixed, format : string, context : array) : bool</text>
</g>
<!-- Bartlett\\Sarif\\Contract\\NormalizerInterface -->
<g id="node5" class="node">
<title>Bartlett\\Sarif\\Contract\\NormalizerInterface</title>
<polygon fill="#fefece" stroke="transparent" points="1366,-157 1018,-157 1018,-26 1366,-26 1366,-157"/>
<polygon fill="#eeeeee" stroke="transparent" points="1018,-134.5 1018,-156.5 1366,-156.5 1366,-134.5 1018,-134.5"/>
<polygon fill="none" stroke="black" points="1018,-134.5 1018,-156.5 1366,-156.5 1366,-134.5 1018,-134.5"/>
<text text-anchor="start" x="1166" y="-148.1" font-family="Verdana" font-weight="bold" font-size="8.00">«interface»</text>
<text text-anchor="start" x="1147" y="-140.1" font-family="Verdana" font-weight="bold" font-size="8.00">NormalizerInterface</text>
<polygon fill="none" stroke="black" points="1018,-63.5 1018,-134.5 1366,-134.5 1366,-63.5 1018,-63.5"/>
<text text-anchor="start" x="1023" y="-123.1" font-family="Verdana" font-size="8.00">+ «static» FORMAT_SARIF : string = &quot;sarif&quot; {readOnly}</text>
<text text-anchor="start" x="1023" y="-110.1" font-family="Verdana" font-size="8.00">+ «static» FORMAT_JSON : string = &quot;json&quot; {readOnly}</text>
<text text-anchor="start" x="1023" y="-97.1" font-family="Verdana" font-size="8.00">+ «static» FORMAT_XML : string = &quot;xml&quot; {readOnly}</text>
<text text-anchor="start" x="1023" y="-84.1" font-family="Verdana" font-size="8.00">+ «static» FORMAT_CHECKSTYLE : string = &quot;checkstyle&quot; {readOnly}</text>
<text text-anchor="start" x="1023" y="-71.1" font-family="Verdana" font-size="8.00">+ «static» FORMAT_INTERNAL : string = &quot;internal&quot; {readOnly}</text>
<polygon fill="none" stroke="black" points="1018,-57.5 1018,-63.5 1366,-63.5 1366,-57.5 1018,-57.5"/>
<polygon fill="none" stroke="black" points="1018,-25.5 1018,-57.5 1366,-57.5 1366,-25.5 1018,-25.5"/>
<text text-anchor="start" x="1023" y="-46.1" font-family="Verdana" font-size="8.00">+ «abstract» getSupportedFormats() : array</text>
<text text-anchor="start" x="1023" y="-33.1" font-family="Verdana" font-size="8.00">+ «abstract» normalize(data : mixed, format : string, context : array) : ?ArrayObject</text>
</g>
<!-- Bartlett\\Sarif\\Converter\\Source\\PhpStanSource -->
<g id="node6" class="node">
<title>Bartlett\\Sarif\\Converter\\Source\\PhpStanSource</title>
<polygon fill="#fefece" stroke="transparent" points="931,-776 755,-776 755,-729 931,-729 931,-776"/>
<polygon fill="#eeeeee" stroke="transparent" points="755,-753.5 755,-775.5 931,-775.5 931,-753.5 755,-753.5"/>
<polygon fill="none" stroke="black" points="755,-753.5 755,-775.5 931,-775.5 931,-753.5 755,-753.5"/>
<text text-anchor="start" x="808" y="-759.1" font-family="Verdana" font-weight="bold" font-size="8.00">PhpStanSource</text>
<polygon fill="none" stroke="black" points="755,-747.5 755,-753.5 931,-753.5 931,-747.5 755,-747.5"/>
<polygon fill="none" stroke="black" points="755,-728.5 755,-747.5 931,-747.5 931,-728.5 755,-728.5"/>
<text text-anchor="start" x="760" y="-736.1" font-family="Verdana" font-size="8.00">+ __construct(normalizers : iterable = [])</text>
</g>
<!-- Bartlett\\Sarif\\Converter\\Source\\AbstractSource -->
<g id="node7" class="node">
<title>Bartlett\\Sarif\\Converter\\Source\\AbstractSource</title>
<polygon fill="#fefece" stroke="transparent" points="1006,-527.5 680,-527.5 680,-363.5 1006,-363.5 1006,-527.5"/>
<polygon fill="#eeeeee" stroke="transparent" points="680,-505.5 680,-527.5 1006,-527.5 1006,-505.5 680,-505.5"/>
<polygon fill="none" stroke="black" points="680,-505.5 680,-527.5 1006,-527.5 1006,-505.5 680,-505.5"/>
<text text-anchor="start" x="819" y="-519.1" font-family="Verdana" font-weight="bold" font-size="8.00">«abstract»</text>
<text text-anchor="start" x="808.5" y="-511.1" font-family="Verdana" font-weight="bold" font-size="8.00">AbstractSource</text>
<polygon fill="none" stroke="black" points="680,-473.5 680,-505.5 1006,-505.5 1006,-473.5 680,-473.5"/>
<text text-anchor="start" x="685" y="-494.1" font-family="Verdana" font-size="8.00">– normalizers : mixed</text>
<text text-anchor="start" x="685" y="-481.1" font-family="Verdana" font-size="8.00">– normalized</text>
<polygon fill="none" stroke="black" points="680,-363.5 680,-473.5 1006,-473.5 1006,-363.5 680,-363.5"/>
<text text-anchor="start" x="685" y="-462.1" font-family="Verdana" font-size="8.00">+ __construct(normalizers : iterable = [])</text>
<text text-anchor="start" x="685" y="-449.1" font-family="Verdana" font-size="8.00">+ getName() : string</text>
<text text-anchor="start" x="685" y="-436.1" font-family="Verdana" font-size="8.00">+ getFiles() : Iterator</text>
<text text-anchor="start" x="685" y="-423.1" font-family="Verdana" font-size="8.00">+ getErrors() : Iterator</text>
<text text-anchor="start" x="685" y="-410.1" font-family="Verdana" font-size="8.00">+ getRules() : Iterator</text>
<text text-anchor="start" x="685" y="-397.1" font-family="Verdana" font-size="8.00">+ getAttribute(name : string) : Iterator</text>
<text text-anchor="start" x="685" y="-384.1" font-family="Verdana" font-size="8.00">+ normalize(data, format : string, context : array) : bool</text>
<text text-anchor="start" x="685" y="-371.1" font-family="Verdana" font-size="8.00"># getNormalizer(format : string) : ?Bartlett\Sarif\Contract\NormalizerInterface</text>
</g>
<!-- Bartlett\\Sarif\\Converter\\Source\\PhpStanSource&#45;&gt;Bartlett\\Sarif\\Converter\\Source\\AbstractSource -->
<g id="edge4" class="edge">
<title>Bartlett\\Sarif\\Converter\\Source\\PhpStanSource&#45;&gt;Bartlett\\Sarif\\Converter\\Source\\AbstractSource</title>
<path fill="none" stroke="black" d="M843,-728.58C843,-688.58 843,-604.01 843,-537.85"/>
<polygon fill="none" stroke="black" points="846.5,-537.82 843,-527.82 839.5,-537.82 846.5,-537.82"/>
</g>
<!-- Bartlett\\Sarif\\Converter\\Source\\AbstractSource&#45;&gt;Bartlett\\Sarif\\Contract\\SourceInterface -->
<g id="edge3" class="edge">
<title>Bartlett\\Sarif\\Converter\\Source\\AbstractSource&#45;&gt;Bartlett\\Sarif\\Contract\\SourceInterface</title>
<path fill="none" stroke="black" stroke-dasharray="5,2" d="M843,-363.3C843,-300.86 843,-215.73 843,-157.69"/>
<polygon fill="none" stroke="black" points="846.5,-157.54 843,-147.54 839.5,-157.54 846.5,-157.54"/>
</g>
<!-- Bartlett\\Sarif\\Converter\\Normalizer\\PhpStanNormalizer -->
<g id="node8" class="node">
<title>Bartlett\\Sarif\\Converter\\Normalizer\\PhpStanNormalizer</title>
<polygon fill="#fefece" stroke="transparent" points="1422,-792 1030,-792 1030,-713 1422,-713 1422,-792"/>
<polygon fill="#eeeeee" stroke="transparent" points="1030,-769.5 1030,-791.5 1422,-791.5 1422,-769.5 1030,-769.5"/>
<polygon fill="none" stroke="black" points="1030,-769.5 1030,-791.5 1422,-791.5 1422,-769.5 1030,-769.5"/>
<text text-anchor="start" x="1182" y="-775.1" font-family="Verdana" font-weight="bold" font-size="8.00">PhpStanNormalizer</text>
<polygon fill="none" stroke="black" points="1030,-750.5 1030,-769.5 1422,-769.5 1422,-750.5 1030,-750.5"/>
<text text-anchor="start" x="1035" y="-758.1" font-family="Verdana" font-size="8.00">+ «static» URI_PATTERN : string = &quot;https\:\/\/phpstan\.org\/error\&#45;identifiers\/\%s&quot; {readOnly}</text>
<polygon fill="none" stroke="black" points="1030,-744.5 1030,-750.5 1422,-750.5 1422,-744.5 1030,-744.5"/>
<polygon fill="none" stroke="black" points="1030,-712.5 1030,-744.5 1422,-744.5 1422,-712.5 1030,-712.5"/>
<text text-anchor="start" x="1035" y="-733.1" font-family="Verdana" font-size="8.00">+ normalize(data, format : string, context : array) : ?ArrayObject</text>
<text text-anchor="start" x="1035" y="-720.1" font-family="Verdana" font-size="8.00"># fromInternal(data, context : array, mapping : array = []) : array</text>
</g>
<!-- Bartlett\\Sarif\\Converter\\Normalizer\\AbstractNormalizer -->
<g id="node9" class="node">
<title>Bartlett\\Sarif\\Converter\\Normalizer\\AbstractNormalizer</title>
<polygon fill="#fefece" stroke="transparent" points="1361.5,-517.5 1056.5,-517.5 1056.5,-373.5 1361.5,-373.5 1361.5,-517.5"/>
<polygon fill="#eeeeee" stroke="transparent" points="1057,-495.5 1057,-517.5 1362,-517.5 1362,-495.5 1057,-495.5"/>
<polygon fill="none" stroke="black" points="1057,-495.5 1057,-517.5 1362,-517.5 1362,-495.5 1057,-495.5"/>
<text text-anchor="start" x="1185.5" y="-509.1" font-family="Verdana" font-weight="bold" font-size="8.00">«abstract»</text>
<text text-anchor="start" x="1166" y="-501.1" font-family="Verdana" font-weight="bold" font-size="8.00">AbstractNormalizer</text>
<polygon fill="none" stroke="black" points="1057,-424.5 1057,-495.5 1362,-495.5 1362,-424.5 1057,-424.5"/>
<text text-anchor="start" x="1062" y="-484.1" font-family="Verdana" font-size="8.00">+ «static» FORMAT_SARIF : string = &quot;sarif&quot; {readOnly}</text>
<text text-anchor="start" x="1062" y="-471.1" font-family="Verdana" font-size="8.00">+ «static» FORMAT_JSON : string = &quot;json&quot; {readOnly}</text>
<text text-anchor="start" x="1062" y="-458.1" font-family="Verdana" font-size="8.00">+ «static» FORMAT_XML : string = &quot;xml&quot; {readOnly}</text>
<text text-anchor="start" x="1062" y="-445.1" font-family="Verdana" font-size="8.00">+ «static» FORMAT_CHECKSTYLE : string = &quot;checkstyle&quot; {readOnly}</text>
<text text-anchor="start" x="1062" y="-432.1" font-family="Verdana" font-size="8.00">+ «static» FORMAT_INTERNAL : string = &quot;internal&quot; {readOnly}</text>
<polygon fill="none" stroke="black" points="1057,-418.5 1057,-424.5 1362,-424.5 1362,-418.5 1057,-418.5"/>
<polygon fill="none" stroke="black" points="1057,-373.5 1057,-418.5 1362,-418.5 1362,-373.5 1057,-373.5"/>
<text text-anchor="start" x="1062" y="-407.1" font-family="Verdana" font-size="8.00">+ getSupportedFormats() : array</text>
<text text-anchor="start" x="1062" y="-394.1" font-family="Verdana" font-size="8.00">+ normalize(data, format : string, context : array) : ?ArrayObject</text>
<text text-anchor="start" x="1062" y="-381.1" font-family="Verdana" font-size="8.00"># fromInternal(data : TData, context : array, mapping : array = []) : array</text>
</g>
<!-- Bartlett\\Sarif\\Converter\\Normalizer\\PhpStanNormalizer&#45;&gt;Bartlett\\Sarif\\Converter\\Normalizer\\AbstractNormalizer -->
<g id="edge6" class="edge">
<title>Bartlett\\Sarif\\Converter\\Normalizer\\PhpStanNormalizer&#45;&gt;Bartlett\\Sarif\\Converter\\Normalizer\\AbstractNormalizer</title>
<path fill="none" stroke="black" d="M1223.85,-712.87C1221.27,-666.58 1216.87,-587.76 1213.53,-527.84"/>
<polygon fill="none" stroke="black" points="1217.02,-527.43 1212.97,-517.64 1210.03,-527.82 1217.02,-527.43"/>
</g>
<!-- Bartlett\\Sarif\\Converter\\Normalizer\\AbstractNormalizer&#45;&gt;Bartlett\\Sarif\\Contract\\NormalizerInterface -->
<g id="edge5" class="edge">
<title>Bartlett\\Sarif\\Converter\\Normalizer\\AbstractNormalizer&#45;&gt;Bartlett\\Sarif\\Contract\\NormalizerInterface</title>
<path fill="none" stroke="black" stroke-dasharray="5,2" d="M1205.56,-373.27C1202.67,-313.45 1198.56,-228.24 1195.62,-167.41"/>
<polygon fill="none" stroke="black" points="1199.1,-166.93 1195.12,-157.11 1192.11,-167.26 1199.1,-166.93"/>
</g>
</g>
</svg>
