<?xml version="1.0" encoding="UTF-8" standalone="no"?>
<!DOCTYPE svg PUBLIC "-//W3C//DTD SVG 1.1//EN"
 "http://www.w3.org/Graphics/SVG/1.1/DTD/svg11.dtd">
<!-- Generated by graphviz version 2.43.0 (0)
 -->
<!-- Title: %3 Pages: 1 -->
<svg width="1385pt" height="833pt"
 viewBox="0.00 0.00 1385.00 833.00" xmlns="http://www.w3.org/2000/svg" xmlns:xlink="http://www.w3.org/1999/xlink">
<g id="graph0" class="graph" transform="scale(1 1) rotate(0) translate(4 829)">
<title>%3</title>
<g id="clust1" class="cluster">
<title>cluster_0</title>
<polygon fill="BurlyWood" stroke="black" points="8,-206 8,-804 664,-804 664,-206 8,-206"/>
<text text-anchor="middle" x="336" y="-788.8" font-family="Times,serif" font-size="14.00">Bartlett\Sarif\Converter</text>
</g>
<g id="clust2" class="cluster">
<title>cluster_1</title>
<polygon fill="LightSkyBlue" stroke="black" points="251,-8 251,-198 1369,-198 1369,-8 251,-8"/>
<text text-anchor="middle" x="810" y="-182.8" font-family="Times,serif" font-size="14.00">Bartlett\Sarif\Contract</text>
</g>
<g id="clust3" class="cluster">
<title>cluster_2</title>
<polygon fill="Bisque" stroke="black" points="672,-355.5 672,-804 1014,-804 1014,-355.5 672,-355.5"/>
<text text-anchor="middle" x="843" y="-788.8" font-family="Times,serif" font-size="14.00">Bartlett\Sarif\Converter\Source</text>
</g>
<g id="clust4" class="cluster">
<title>cluster_3</title>
<polygon fill="Bisque" stroke="black" points="1026,-365.5 1026,-817 1348,-817 1348,-365.5 1026,-365.5"/>
<text text-anchor="middle" x="1187" y="-801.8" font-family="Times,serif" font-size="14.00">Bartlett\Sarif\Converter\Normalizer</text>
</g>
<!-- Bartlett\\Sarif\\Converter\\ComposerConverter -->
<g id="node1" class="node">
<title>Bartlett\\Sarif\\Converter\\ComposerConverter</title>
<polygon fill="#fefece" stroke="transparent" points="419,-773 253,-773 253,-726 419,-726 419,-773"/>
<polygon fill="#eeeeee" stroke="transparent" points="253,-750.5 253,-772.5 419,-772.5 419,-750.5 253,-750.5"/>
<polygon fill="none" stroke="black" points="253,-750.5 253,-772.5 419,-772.5 419,-750.5 253,-750.5"/>
<text text-anchor="start" x="291.5" y="-756.1" font-family="Verdana" font-weight="bold" font-size="8.00">ComposerConverter</text>
<polygon fill="none" stroke="black" points="253,-744.5 253,-750.5 419,-750.5 419,-744.5 253,-744.5"/>
<polygon fill="none" stroke="black" points="253,-725.5 253,-744.5 419,-744.5 419,-725.5 253,-725.5"/>
<text text-anchor="start" x="258" y="-733.1" font-family="Verdana" font-size="8.00">+ configure(options : array = []) : void</text>
</g>
<!-- Bartlett\\Sarif\\Converter\\AbstractConverter -->
<g id="node2" class="node">
<title>Bartlett\\Sarif\\Converter\\AbstractConverter</title>
<polygon fill="#fefece" stroke="transparent" points="655.5,-677 16.5,-677 16.5,-214 655.5,-214 655.5,-677"/>
<polygon fill="#eeeeee" stroke="transparent" points="17,-654.5 17,-676.5 656,-676.5 656,-654.5 17,-654.5"/>
<polygon fill="none" stroke="black" points="17,-654.5 17,-676.5 656,-676.5 656,-654.5 17,-654.5"/>
<text text-anchor="start" x="312.5" y="-668.1" font-family="Verdana" font-weight="bold" font-size="8.00">«abstract»</text>
<text text-anchor="start" x="295.5" y="-660.1" font-family="Verdana" font-weight="bold" font-size="8.00">AbstractConverter</text>
<polygon fill="none" stroke="black" points="17,-440.5 17,-654.5 656,-654.5 656,-440.5 17,-440.5"/>
<text text-anchor="start" x="22" y="-643.1" font-family="Verdana" font-size="8.00"># toolName</text>
<text text-anchor="start" x="22" y="-630.1" font-family="Verdana" font-size="8.00"># toolFullName</text>
<text text-anchor="start" x="22" y="-617.1" font-family="Verdana" font-size="8.00"># toolShortDescription</text>
<text text-anchor="start" x="22" y="-604.1" font-family="Verdana" font-size="8.00"># toolFullDescription</text>
<text text-anchor="start" x="22" y="-591.1" font-family="Verdana" font-size="8.00"># toolInformationUri</text>
<text text-anchor="start" x="22" y="-578.1" font-family="Verdana" font-size="8.00"># toolComposerPackage</text>
<text text-anchor="start" x="22" y="-565.1" font-family="Verdana" font-size="8.00"># toolSemanticVersion</text>
<text text-anchor="start" x="22" y="-552.1" font-family="Verdana" font-size="8.00"># converterComposerPackage</text>
<text text-anchor="start" x="22" y="-539.1" font-family="Verdana" font-size="8.00"># results : mixed = []</text>
<text text-anchor="start" x="22" y="-526.1" font-family="Verdana" font-size="8.00"># errors : mixed = []</text>
<text text-anchor="start" x="22" y="-513.1" font-family="Verdana" font-size="8.00"># serializer</text>
<text text-anchor="start" x="22" y="-500.1" font-family="Verdana" font-size="8.00"># startTime</text>
<text text-anchor="start" x="22" y="-487.1" font-family="Verdana" font-size="8.00"># endTime</text>
<text text-anchor="start" x="22" y="-474.1" font-family="Verdana" font-size="8.00"># includeCodeSnippets</text>
<text text-anchor="start" x="22" y="-461.1" font-family="Verdana" font-size="8.00"># includeContextRegion</text>
<text text-anchor="start" x="22" y="-448.1" font-family="Verdana" font-size="8.00"># defaultResultLevelIfEmpty</text>
<polygon fill="none" stroke="black" points="17,-213.5 17,-440.5 656,-440.5 656,-213.5 17,-213.5"/>
<text text-anchor="start" x="22" y="-429.1" font-family="Verdana" font-size="8.00">+ __construct(options : array = [], factory : Bartlett\Sarif\Factory\SerializerFactory = «unknown»)</text>
<text text-anchor="start" x="22" y="-416.1" font-family="Verdana" font-size="8.00">+ getName() : string</text>
<text text-anchor="start" x="22" y="-403.1" font-family="Verdana" font-size="8.00">+ configure(options : array) : void</text>
<text text-anchor="start" x="22" y="-390.1" font-family="Verdana" font-size="8.00">+ toolDriver() : Bartlett\Sarif\Definition\ToolComponent</text>
<text text-anchor="start" x="22" y="-377.1" font-family="Verdana" font-size="8.00">+ toolExtensions() : array</text>
<text text-anchor="start" x="22" y="-364.1" font-family="Verdana" font-size="8.00">+ rules(defined : iterable) : array</text>
<text text-anchor="start" x="22" y="-351.1" font-family="Verdana" font-size="8.00">+ results(normalized : iterable) : void</text>
<text text-anchor="start" x="22" y="-338.1" font-family="Verdana" font-size="8.00">+ sarifLog(runs : array = [], version : string = &#39;2\.1\.0&#39;) : ?string</text>
<text text-anchor="start" x="22" y="-325.1" font-family="Verdana" font-size="8.00">+ invocations(properties : Bartlett\Sarif\Definition\PropertyBag = «unknown») : array</text>
<text text-anchor="start" x="22" y="-312.1" font-family="Verdana" font-size="8.00">+ automationDetails() : Bartlett\Sarif\Definition\RunAutomationDetails</text>
<text text-anchor="start" x="22" y="-299.1" font-family="Verdana" font-size="8.00">+ run(invocations : iterable, rules : iterable) : Bartlett\Sarif\Definition\Run</text>
<text text-anchor="start" x="22" y="-286.1" font-family="Verdana" font-size="8.00"># getToolVersion(package : string) : string</text>
<text text-anchor="start" x="22" y="-273.1" font-family="Verdana" font-size="8.00"># pathToArtifactLocation(path : string) : string</text>
<text text-anchor="start" x="22" y="-260.1" font-family="Verdana" font-size="8.00"># pathToUri(path : string) : string</text>
<text text-anchor="start" x="22" y="-247.1" font-family="Verdana" font-size="8.00"># getCodeSnippet(filePath : string, lineNumber : int, linesBefore : int, linesAfter : int) : ?string</text>
<text text-anchor="start" x="22" y="-234.1" font-family="Verdana" font-size="8.00"># getSnippetRegion(filePath : string, lineNumber : int, column : int = «unknown», linesBefore : int = 2, linesAfter : int = 2) : Bartlett\Sarif\Definition\Region</text>
<text text-anchor="start" x="22" y="-221.1" font-family="Verdana" font-size="8.00"># getErrors() : Iterator</text>
</g>
<!-- Bartlett\\Sarif\\Converter\\ComposerConverter&#45;&gt;Bartlett\\Sarif\\Converter\\AbstractConverter -->
<g id="edge2" class="edge">
<title>Bartlett\\Sarif\\Converter\\ComposerConverter&#45;&gt;Bartlett\\Sarif\\Converter\\AbstractConverter</title>
<path fill="none" stroke="black" d="M336,-725.8C336,-715.56 336,-702.37 336,-687.31"/>
<polygon fill="none" stroke="black" points="339.5,-687.15 336,-677.15 332.5,-687.15 339.5,-687.15"/>
</g>
<!-- Bartlett\\Sarif\\Contract\\ConverterInterface -->
<g id="node3" class="node">
<title>Bartlett\\Sarif\\Contract\\ConverterInterface</title>
<polygon fill="#fefece" stroke="transparent" points="663,-167 259,-167 259,-16 663,-16 663,-167"/>
<polygon fill="#eeeeee" stroke="transparent" points="259,-144.5 259,-166.5 663,-166.5 663,-144.5 259,-144.5"/>
<polygon fill="none" stroke="black" points="259,-144.5 259,-166.5 663,-166.5 663,-144.5 259,-144.5"/>
<text text-anchor="start" x="435" y="-158.1" font-family="Verdana" font-weight="bold" font-size="8.00">«interface»</text>
<text text-anchor="start" x="418.5" y="-150.1" font-family="Verdana" font-weight="bold" font-size="8.00">ConverterInterface</text>
<polygon fill="none" stroke="black" points="259,-138.5 259,-144.5 663,-144.5 663,-138.5 259,-138.5"/>
<polygon fill="none" stroke="black" points="259,-15.5 259,-138.5 663,-138.5 663,-15.5 259,-15.5"/>
<text text-anchor="start" x="264" y="-127.1" font-family="Verdana" font-size="8.00">+ «abstract» getName() : string</text>
<text text-anchor="start" x="264" y="-114.1" font-family="Verdana" font-size="8.00">+ «abstract» toolDriver() : Bartlett\Sarif\Definition\ToolComponent</text>
<text text-anchor="start" x="264" y="-101.1" font-family="Verdana" font-size="8.00">+ «abstract» toolExtensions() : array</text>
<text text-anchor="start" x="264" y="-88.1" font-family="Verdana" font-size="8.00">+ «abstract» rules(defined : iterable) : array</text>
<text text-anchor="start" x="264" y="-75.1" font-family="Verdana" font-size="8.00">+ «abstract» results(normalized : iterable) : void</text>
<text text-anchor="start" x="264" y="-62.1" font-family="Verdana" font-size="8.00">+ «abstract» invocations(properties : Bartlett\Sarif\Definition\PropertyBag = «unknown») : array</text>
<text text-anchor="start" x="264" y="-49.1" font-family="Verdana" font-size="8.00">+ «abstract» automationDetails() : Bartlett\Sarif\Definition\RunAutomationDetails</text>
<text text-anchor="start" x="264" y="-36.1" font-family="Verdana" font-size="8.00">+ «abstract» run(invocations : iterable, rules : iterable) : Bartlett\Sarif\Definition\Run</text>
<text text-anchor="start" x="264" y="-23.1" font-family="Verdana" font-size="8.00">+ «abstract» sarifLog(runs : array = [], version : string = &#39;2\.1\.0&#39;) : ?string</text>
</g>
<!-- Bartlett\\Sarif\\Converter\\AbstractConverter&#45;&gt;Bartlett\\Sarif\\Contract\\ConverterInterface -->
<g id="edge1" class="edge">
<title>Bartlett\\Sarif\\Converter\\AbstractConverter&#45;&gt;Bartlett\\Sarif\\Contract\\ConverterInterface</title>
<path fill="none" stroke="black" stroke-dasharray="5,2" d="M417.98,-213.64C422.55,-200.78 426.96,-188.36 431.11,-176.68"/>
<polygon fill="none" stroke="black" points="434.47,-177.65 434.52,-167.06 427.88,-175.31 434.47,-177.65"/>
</g>
<!-- Bartlett\\Sarif\\Contract\\SourceInterface -->
<g id="node4" class="node">
<title>Bartlett\\Sarif\\Contract\\SourceInterface</title>
<polygon fill="#fefece" stroke="transparent" points="995,-147.5 681,-147.5 681,-35.5 995,-35.5 995,-147.5"/>
<polygon fill="#eeeeee" stroke="transparent" points="681,-125.5 681,-147.5 995,-147.5 995,-125.5 681,-125.5"/>
<polygon fill="none" stroke="black" points="681,-125.5 681,-147.5 995,-147.5 995,-125.5 681,-125.5"/>
<text text-anchor="start" x="812" y="-139.1" font-family="Verdana" font-weight="bold" font-size="8.00">«interface»</text>
<text text-anchor="start" x="802" y="-131.1" font-family="Verdana" font-weight="bold" font-size="8.00">SourceInterface</text>
<polygon fill="none" stroke="black" points="681,-119.5 681,-125.5 995,-125.5 995,-119.5 681,-119.5"/>
<polygon fill="none" stroke="black" points="681,-35.5 681,-119.5 995,-119.5 995,-35.5 681,-35.5"/>
<text text-anchor="start" x="686" y="-108.1" font-family="Verdana" font-size="8.00">+ «abstract» getName() : string</text>
<text text-anchor="start" x="686" y="-95.1" font-family="Verdana" font-size="8.00">+ «abstract» getFiles() : Iterator</text>
<text text-anchor="start" x="686" y="-82.1" font-family="Verdana" font-size="8.00">+ «abstract» getErrors() : Iterator</text>
<text text-anchor="start" x="686" y="-69.1" font-family="Verdana" font-size="8.00">+ «abstract» getRules() : Iterator</text>
<text text-anchor="start" x="686" y="-56.1" font-family="Verdana" font-size="8.00">+ «abstract» getAttribute(name : string) : Iterator</text>
<text text-anchor="start" x="686" y="-43.1" font-family="Verdana" font-size="8.00">+ «abstract» normalize(data : mixed, format : string, context : array) : bool</text>
</g>
<!-- Bartlett\\Sarif\\Contract\\NormalizerInterface -->
<g id="node5" class="node">
<title>Bartlett\\Sarif\\Contract\\NormalizerInterface</title>
<polygon fill="#fefece" stroke="transparent" points="1361,-157 1013,-157 1013,-26 1361,-26 1361,-157"/>
<polygon fill="#eeeeee" stroke="transparent" points="1013,-134.5 1013,-156.5 1361,-156.5 1361,-134.5 1013,-134.5"/>
<polygon fill="none" stroke="black" points="1013,-134.5 1013,-156.5 1361,-156.5 1361,-134.5 1013,-134.5"/>
<text text-anchor="start" x="1161" y="-148.1" font-family="Verdana" font-weight="bold" font-size="8.00">«interface»</text>
<text text-anchor="start" x="1142" y="-140.1" font-family="Verdana" font-weight="bold" font-size="8.00">NormalizerInterface</text>
<polygon fill="none" stroke="black" points="1013,-63.5 1013,-134.5 1361,-134.5 1361,-63.5 1013,-63.5"/>
<text text-anchor="start" x="1018" y="-123.1" font-family="Verdana" font-size="8.00">+ «static» FORMAT_SARIF : string = &quot;sarif&quot; {readOnly}</text>
<text text-anchor="start" x="1018" y="-110.1" font-family="Verdana" font-size="8.00">+ «static» FORMAT_JSON : string = &quot;json&quot; {readOnly}</text>
<text text-anchor="start" x="1018" y="-97.1" font-family="Verdana" font-size="8.00">+ «static» FORMAT_XML : string = &quot;xml&quot; {readOnly}</text>
<text text-anchor="start" x="1018" y="-84.1" font-family="Verdana" font-size="8.00">+ «static» FORMAT_CHECKSTYLE : string = &quot;checkstyle&quot; {readOnly}</text>
<text text-anchor="start" x="1018" y="-71.1" font-family="Verdana" font-size="8.00">+ «static» FORMAT_INTERNAL : string = &quot;internal&quot; {readOnly}</text>
<polygon fill="none" stroke="black" points="1013,-57.5 1013,-63.5 1361,-63.5 1361,-57.5 1013,-57.5"/>
<polygon fill="none" stroke="black" points="1013,-25.5 1013,-57.5 1361,-57.5 1361,-25.5 1013,-25.5"/>
<text text-anchor="start" x="1018" y="-46.1" font-family="Verdana" font-size="8.00">+ «abstract» getSupportedFormats() : array</text>
<text text-anchor="start" x="1018" y="-33.1" font-family="Verdana" font-size="8.00">+ «abstract» normalize(data : mixed, format : string, context : array) : ?ArrayObject</text>
</g>
<!-- Bartlett\\Sarif\\Converter\\Source\\ComposerSource -->
<g id="node6" class="node">
<title>Bartlett\\Sarif\\Converter\\Source\\ComposerSource</title>
<polygon fill="#fefece" stroke="transparent" points="931,-773 755,-773 755,-726 931,-726 931,-773"/>
<polygon fill="#eeeeee" stroke="transparent" points="755,-750.5 755,-772.5 931,-772.5 931,-750.5 755,-750.5"/>
<polygon fill="none" stroke="black" points="755,-750.5 755,-772.5 931,-772.5 931,-750.5 755,-750.5"/>
<text text-anchor="start" x="805" y="-756.1" font-family="Verdana" font-weight="bold" font-size="8.00">ComposerSource</text>
<polygon fill="none" stroke="black" points="755,-744.5 755,-750.5 931,-750.5 931,-744.5 755,-744.5"/>
<polygon fill="none" stroke="black" points="755,-725.5 755,-744.5 931,-744.5 931,-725.5 755,-725.5"/>
<text text-anchor="start" x="760" y="-733.1" font-family="Verdana" font-size="8.00">+ __construct(normalizers : iterable = [])</text>
</g>
<!-- Bartlett\\Sarif\\Converter\\Source\\AbstractSource -->
<g id="node7" class="node">
<title>Bartlett\\Sarif\\Converter\\Source\\AbstractSource</title>
<polygon fill="#fefece" stroke="transparent" points="1006,-527.5 680,-527.5 680,-363.5 1006,-363.5 1006,-527.5"/>
<polygon fill="#eeeeee" stroke="transparent" points="680,-505.5 680,-527.5 1006,-527.5 1006,-505.5 680,-505.5"/>
<polygon fill="none" stroke="black" points="680,-505.5 680,-527.5 1006,-527.5 1006,-505.5 680,-505.5"/>
<text text-anchor="start" x="819" y="-519.1" font-family="Verdana" font-weight="bold" font-size="8.00">«abstract»</text>
<text text-anchor="start" x="808.5" y="-511.1" font-family="Verdana" font-weight="bold" font-size="8.00">AbstractSource</text>
<polygon fill="none" stroke="black" points="680,-473.5 680,-505.5 1006,-505.5 1006,-473.5 680,-473.5"/>
<text text-anchor="start" x="685" y="-494.1" font-family="Verdana" font-size="8.00">– normalizers : mixed</text>
<text text-anchor="start" x="685" y="-481.1" font-family="Verdana" font-size="8.00">– normalized</text>
<polygon fill="none" stroke="black" points="680,-363.5 680,-473.5 1006,-473.5 1006,-363.5 680,-363.5"/>
<text text-anchor="start" x="685" y="-462.1" font-family="Verdana" font-size="8.00">+ __construct(normalizers : iterable = [])</text>
<text text-anchor="start" x="685" y="-449.1" font-family="Verdana" font-size="8.00">+ getName() : string</text>
<text text-anchor="start" x="685" y="-436.1" font-family="Verdana" font-size="8.00">+ getFiles() : Iterator</text>
<text text-anchor="start" x="685" y="-423.1" font-family="Verdana" font-size="8.00">+ getErrors() : Iterator</text>
<text text-anchor="start" x="685" y="-410.1" font-family="Verdana" font-size="8.00">+ getRules() : Iterator</text>
<text text-anchor="start" x="685" y="-397.1" font-family="Verdana" font-size="8.00">+ getAttribute(name : string) : Iterator</text>
<text text-anchor="start" x="685" y="-384.1" font-family="Verdana" font-size="8.00">+ normalize(data, format : string, context : array) : bool</text>
<text text-anchor="start" x="685" y="-371.1" font-family="Verdana" font-size="8.00"># getNormalizer(format : string) : ?Bartlett\Sarif\Contract\NormalizerInterface</text>
</g>
<!-- Bartlett\\Sarif\\Converter\\Source\\ComposerSource&#45;&gt;Bartlett\\Sarif\\Converter\\Source\\AbstractSource -->
<g id="edge4" class="edge">
<title>Bartlett\\Sarif\\Converter\\Source\\ComposerSource&#45;&gt;Bartlett\\Sarif\\Converter\\Source\\AbstractSource</title>
<path fill="none" stroke="black" d="M843,-725.8C843,-686.41 843,-603.36 843,-538"/>
<polygon fill="none" stroke="black" points="846.5,-537.68 843,-527.68 839.5,-537.68 846.5,-537.68"/>
</g>
<!-- Bartlett\\Sarif\\Converter\\Source\\AbstractSource&#45;&gt;Bartlett\\Sarif\\Contract\\SourceInterface -->
<g id="edge3" class="edge">
<title>Bartlett\\Sarif\\Converter\\Source\\AbstractSource&#45;&gt;Bartlett\\Sarif\\Contract\\SourceInterface</title>
<path fill="none" stroke="black" stroke-dasharray="5,2" d="M841.85,-363.3C840.96,-300.86 839.75,-215.73 838.93,-157.69"/>
<polygon fill="none" stroke="black" points="842.42,-157.49 838.78,-147.54 835.42,-157.59 842.42,-157.49"/>
</g>
<!-- Bartlett\\Sarif\\Converter\\Normalizer\\ComposerNormalizer -->
<g id="node8" class="node">
<title>Bartlett\\Sarif\\Converter\\Normalizer\\ComposerNormalizer</title>
<polygon fill="#fefece" stroke="transparent" points="1321.5,-786 1052.5,-786 1052.5,-713 1321.5,-713 1321.5,-786"/>
<polygon fill="#eeeeee" stroke="transparent" points="1053,-763.5 1053,-785.5 1322,-785.5 1322,-763.5 1053,-763.5"/>
<polygon fill="none" stroke="black" points="1053,-763.5 1053,-785.5 1322,-785.5 1322,-763.5 1053,-763.5"/>
<text text-anchor="start" x="1140.5" y="-769.1" font-family="Verdana" font-weight="bold" font-size="8.00">ComposerNormalizer</text>
<polygon fill="none" stroke="black" points="1053,-757.5 1053,-763.5 1322,-763.5 1322,-757.5 1053,-757.5"/>
<polygon fill="none" stroke="black" points="1053,-712.5 1053,-757.5 1322,-757.5 1322,-712.5 1053,-712.5"/>
<text text-anchor="start" x="1058" y="-746.1" font-family="Verdana" font-size="8.00">+ getSupportedFormats() : array</text>
<text text-anchor="start" x="1058" y="-733.1" font-family="Verdana" font-size="8.00">+ normalize(data, format : string, context : array) : ?ArrayObject</text>
<text text-anchor="start" x="1058" y="-720.1" font-family="Verdana" font-size="8.00">– fromJson(data : string, mapping : array) : array</text>
</g>
<!-- Bartlett\\Sarif\\Converter\\Normalizer\\AbstractNormalizer -->
<g id="node9" class="node">
<title>Bartlett\\Sarif\\Converter\\Normalizer\\AbstractNormalizer</title>
<polygon fill="#fefece" stroke="transparent" points="1339.5,-517.5 1034.5,-517.5 1034.5,-373.5 1339.5,-373.5 1339.5,-517.5"/>
<polygon fill="#eeeeee" stroke="transparent" points="1035,-495.5 1035,-517.5 1340,-517.5 1340,-495.5 1035,-495.5"/>
<polygon fill="none" stroke="black" points="1035,-495.5 1035,-517.5 1340,-517.5 1340,-495.5 1035,-495.5"/>
<text text-anchor="start" x="1163.5" y="-509.1" font-family="Verdana" font-weight="bold" font-size="8.00">«abstract»</text>
<text text-anchor="start" x="1144" y="-501.1" font-family="Verdana" font-weight="bold" font-size="8.00">AbstractNormalizer</text>
<polygon fill="none" stroke="black" points="1035,-424.5 1035,-495.5 1340,-495.5 1340,-424.5 1035,-424.5"/>
<text text-anchor="start" x="1040" y="-484.1" font-family="Verdana" font-size="8.00">+ «static» FORMAT_SARIF : string = &quot;sarif&quot; {readOnly}</text>
<text text-anchor="start" x="1040" y="-471.1" font-family="Verdana" font-size="8.00">+ «static» FORMAT_JSON : string = &quot;json&quot; {readOnly}</text>
<text text-anchor="start" x="1040" y="-458.1" font-family="Verdana" font-size="8.00">+ «static» FORMAT_XML : string = &quot;xml&quot; {readOnly}</text>
<text text-anchor="start" x="1040" y="-445.1" font-family="Verdana" font-size="8.00">+ «static» FORMAT_CHECKSTYLE : string = &quot;checkstyle&quot; {readOnly}</text>
<text text-anchor="start" x="1040" y="-432.1" font-family="Verdana" font-size="8.00">+ «static» FORMAT_INTERNAL : string = &quot;internal&quot; {readOnly}</text>
<polygon fill="none" stroke="black" points="1035,-418.5 1035,-424.5 1340,-424.5 1340,-418.5 1035,-418.5"/>
<polygon fill="none" stroke="black" points="1035,-373.5 1035,-418.5 1340,-418.5 1340,-373.5 1035,-373.5"/>
<text text-anchor="start" x="1040" y="-407.1" font-family="Verdana" font-size="8.00">+ getSupportedFormats() : array</text>
<text text-anchor="start" x="1040" y="-394.1" font-family="Verdana" font-size="8.00">+ normalize(data, format : string, context : array) : ?ArrayObject</text>
<text text-anchor="start" x="1040" y="-381.1" font-family="Verdana" font-size="8.00"># fromInternal(data : TData, context : array, mapping : array = []) : array</text>
</g>
<!-- Bartlett\\Sarif\\Converter\\Normalizer\\ComposerNormalizer&#45;&gt;Bartlett\\Sarif\\Converter\\Normalizer\\AbstractNormalizer -->
<g id="edge6" class="edge">
<title>Bartlett\\Sarif\\Converter\\Normalizer\\ComposerNormalizer&#45;&gt;Bartlett\\Sarif\\Converter\\Normalizer\\AbstractNormalizer</title>
<path fill="none" stroke="black" d="M1187,-712.97C1187,-667.79 1187,-588.41 1187,-528.01"/>
<polygon fill="none" stroke="black" points="1190.5,-527.73 1187,-517.73 1183.5,-527.73 1190.5,-527.73"/>
</g>
<!-- Bartlett\\Sarif\\Converter\\Normalizer\\AbstractNormalizer&#45;&gt;Bartlett\\Sarif\\Contract\\NormalizerInterface -->
<g id="edge5" class="edge">
<title>Bartlett\\Sarif\\Converter\\Normalizer\\AbstractNormalizer&#45;&gt;Bartlett\\Sarif\\Contract\\NormalizerInterface</title>
<path fill="none" stroke="black" stroke-dasharray="5,2" d="M1187,-373.27C1187,-313.45 1187,-228.24 1187,-167.41"/>
<polygon fill="none" stroke="black" points="1190.5,-167.11 1187,-157.11 1183.5,-167.11 1190.5,-167.11"/>
</g>
</g>
</svg>
