<?xml version="1.0" encoding="UTF-8" standalone="no"?>
<!DOCTYPE svg PUBLIC "-//W3C//DTD SVG 1.1//EN"
 "http://www.w3.org/Graphics/SVG/1.1/DTD/svg11.dtd">
<!-- Generated by graphviz version 2.43.0 (0)
 -->
<!-- Title: %3 Pages: 1 -->
<svg width="1163pt" height="673pt"
 viewBox="0.00 0.00 1162.97 673.00" xmlns="http://www.w3.org/2000/svg" xmlns:xlink="http://www.w3.org/1999/xlink">
<g id="graph0" class="graph" transform="scale(1 1) rotate(0) translate(4 669)">
<title>%3</title>
<polygon fill="white" stroke="transparent" points="-4,4 -4,-669 1158.97,-669 1158.97,4 -4,4"/>
<!-- bartlett/sarif&#45;php&#45;converters -->
<g id="node1" class="node">
<title>bartlett/sarif&#45;php&#45;converters</title>
<ellipse fill="lightgrey" stroke="black" stroke-width="2" cx="142.99" cy="-436" rx="142.97" ry="18"/>
<text text-anchor="middle" x="142.99" y="-432.3" font-family="Times,serif" font-size="14.00">bartlett/sarif&#45;php&#45;converters</text>
</g>
<!-- php -->
<g id="node2" class="node">
<title>php</title>
<path fill="#eeeeee" stroke="black" d="M1013.47,-360C1013.47,-360 983.47,-360 983.47,-360 977.47,-360 971.47,-354 971.47,-348 971.47,-348 971.47,-336 971.47,-336 971.47,-330 977.47,-324 983.47,-324 983.47,-324 1013.47,-324 1013.47,-324 1019.47,-324 1025.47,-330 1025.47,-336 1025.47,-336 1025.47,-348 1025.47,-348 1025.47,-354 1019.47,-360 1013.47,-360"/>
<text text-anchor="middle" x="998.47" y="-338.3" font-family="Times,serif" font-size="14.00" fill="#314b5f">php</text>
</g>
<!-- bartlett/sarif&#45;php&#45;converters&#45;&gt;php -->
<g id="edge1" class="edge">
<title>bartlett/sarif&#45;php&#45;converters&#45;&gt;php</title>
<path fill="none" stroke="#1a2833" d="M177.36,-418.5C222.2,-396.07 305.08,-358.34 380.97,-344 597.91,-303.01 865.5,-326.77 961.28,-337.56"/>
<polygon fill="#1a2833" stroke="#1a2833" points="960.98,-341.04 971.31,-338.71 961.78,-334.09 960.98,-341.04"/>
<text text-anchor="middle" x="559.47" y="-347" font-family="Times,serif" font-size="10.00" fill="#767676">^8.2</text>
</g>
<!-- ext&#45;json -->
<g id="node3" class="node">
<title>ext&#45;json</title>
<path fill="#eeeeee" stroke="black" d="M1022.97,-598C1022.97,-598 973.97,-598 973.97,-598 967.97,-598 961.97,-592 961.97,-586 961.97,-586 961.97,-574 961.97,-574 961.97,-568 967.97,-562 973.97,-562 973.97,-562 1022.97,-562 1022.97,-562 1028.97,-562 1034.97,-568 1034.97,-574 1034.97,-574 1034.97,-586 1034.97,-586 1034.97,-592 1028.97,-598 1022.97,-598"/>
<text text-anchor="middle" x="998.47" y="-576.3" font-family="Times,serif" font-size="14.00" fill="#314b5f">ext&#45;json</text>
</g>
<!-- bartlett/sarif&#45;php&#45;converters&#45;&gt;ext&#45;json -->
<g id="edge2" class="edge">
<title>bartlett/sarif&#45;php&#45;converters&#45;&gt;ext&#45;json</title>
<path fill="none" stroke="#1a2833" d="M166.78,-454C207.12,-484.47 294.95,-544.78 380.97,-564 589.84,-610.66 848.39,-594.21 951.7,-584.76"/>
<polygon fill="#1a2833" stroke="#1a2833" points="952.16,-588.23 961.79,-583.81 951.51,-581.26 952.16,-588.23"/>
<text text-anchor="middle" x="559.47" y="-598" font-family="Times,serif" font-size="10.00" fill="#767676">*</text>
</g>
<!-- ext&#45;pcre -->
<g id="node4" class="node">
<title>ext&#45;pcre</title>
<path fill="#eeeeee" stroke="black" d="M1023.97,-523C1023.97,-523 972.97,-523 972.97,-523 966.97,-523 960.97,-517 960.97,-511 960.97,-511 960.97,-499 960.97,-499 960.97,-493 966.97,-487 972.97,-487 972.97,-487 1023.97,-487 1023.97,-487 1029.97,-487 1035.97,-493 1035.97,-499 1035.97,-499 1035.97,-511 1035.97,-511 1035.97,-517 1029.97,-523 1023.97,-523"/>
<text text-anchor="middle" x="998.47" y="-501.3" font-family="Times,serif" font-size="14.00" fill="#314b5f">ext&#45;pcre</text>
</g>
<!-- bartlett/sarif&#45;php&#45;converters&#45;&gt;ext&#45;pcre -->
<g id="edge3" class="edge">
<title>bartlett/sarif&#45;php&#45;converters&#45;&gt;ext&#45;pcre</title>
<path fill="none" stroke="#1a2833" d="M245.37,-448.58C287.3,-453.51 336.44,-458.95 380.97,-463 593.5,-482.34 847.97,-496.98 950.89,-502.55"/>
<polygon fill="#1a2833" stroke="#1a2833" points="950.77,-506.05 960.95,-503.09 951.15,-499.06 950.77,-506.05"/>
<text text-anchor="middle" x="559.47" y="-492" font-family="Times,serif" font-size="10.00" fill="#767676">*</text>
</g>
<!-- ext&#45;spl -->
<g id="node5" class="node">
<title>ext&#45;spl</title>
<path fill="#eeeeee" stroke="black" d="M1018.97,-654C1018.97,-654 977.97,-654 977.97,-654 971.97,-654 965.97,-648 965.97,-642 965.97,-642 965.97,-630 965.97,-630 965.97,-624 971.97,-618 977.97,-618 977.97,-618 1018.97,-618 1018.97,-618 1024.97,-618 1030.97,-624 1030.97,-630 1030.97,-630 1030.97,-642 1030.97,-642 1030.97,-648 1024.97,-654 1018.97,-654"/>
<text text-anchor="middle" x="998.47" y="-632.3" font-family="Times,serif" font-size="14.00" fill="#314b5f">ext&#45;spl</text>
</g>
<!-- bartlett/sarif&#45;php&#45;converters&#45;&gt;ext&#45;spl -->
<g id="edge4" class="edge">
<title>bartlett/sarif&#45;php&#45;converters&#45;&gt;ext&#45;spl</title>
<path fill="none" stroke="#1a2833" d="M160.1,-454.15C195.46,-492.39 284.42,-580.15 380.97,-610 588.56,-674.17 854.19,-652.98 955.59,-641.41"/>
<polygon fill="#1a2833" stroke="#1a2833" points="956.21,-644.86 965.73,-640.22 955.39,-637.91 956.21,-644.86"/>
<text text-anchor="middle" x="559.47" y="-657" font-family="Times,serif" font-size="10.00" fill="#767676">*</text>
</g>
<!-- composer&#45;runtime&#45;api -->
<g id="node6" class="node">
<title>composer&#45;runtime&#45;api</title>
<path fill="#eeeeee" stroke="black" d="M633.97,-454C633.97,-454 484.97,-454 484.97,-454 478.97,-454 472.97,-448 472.97,-442 472.97,-442 472.97,-430 472.97,-430 472.97,-424 478.97,-418 484.97,-418 484.97,-418 633.97,-418 633.97,-418 639.97,-418 645.97,-424 645.97,-430 645.97,-430 645.97,-442 645.97,-442 645.97,-448 639.97,-454 633.97,-454"/>
<text text-anchor="middle" x="559.47" y="-432.3" font-family="Times,serif" font-size="14.00" fill="#314b5f">composer&#45;runtime&#45;api</text>
</g>
<!-- bartlett/sarif&#45;php&#45;converters&#45;&gt;composer&#45;runtime&#45;api -->
<g id="edge5" class="edge">
<title>bartlett/sarif&#45;php&#45;converters&#45;&gt;composer&#45;runtime&#45;api</title>
<path fill="none" stroke="#1a2833" d="M286.05,-436C344.27,-436 410.13,-436 462.51,-436"/>
<polygon fill="#1a2833" stroke="#1a2833" points="462.8,-439.5 472.8,-436 462.8,-432.5 462.8,-439.5"/>
<text text-anchor="middle" x="333.47" y="-439" font-family="Times,serif" font-size="10.00" fill="#767676">^2.0</text>
</g>
<!-- bartlett/sarif&#45;php&#45;sdk -->
<g id="node7" class="node">
<title>bartlett/sarif&#45;php&#45;sdk</title>
<path fill="#eeeeee" stroke="black" d="M653.97,-555C653.97,-555 464.97,-555 464.97,-555 458.97,-555 452.97,-549 452.97,-543 452.97,-543 452.97,-531 452.97,-531 452.97,-525 458.97,-519 464.97,-519 464.97,-519 653.97,-519 653.97,-519 659.97,-519 665.97,-525 665.97,-531 665.97,-531 665.97,-543 665.97,-543 665.97,-549 659.97,-555 653.97,-555"/>
<text text-anchor="middle" x="559.47" y="-533.3" font-family="Times,serif" font-size="14.00" fill="#314b5f">bartlett/sarif&#45;php&#45;sdk: 2.1.2</text>
</g>
<!-- bartlett/sarif&#45;php&#45;converters&#45;&gt;bartlett/sarif&#45;php&#45;sdk -->
<g id="edge10" class="edge">
<title>bartlett/sarif&#45;php&#45;converters&#45;&gt;bartlett/sarif&#45;php&#45;sdk</title>
<path fill="none" stroke="#1a2833" d="M177.66,-453.52C209.39,-469.24 258.69,-491.69 303.97,-504 348.55,-516.12 398.76,-523.83 442.73,-528.72"/>
<polygon fill="#1a2833" stroke="#1a2833" points="442.57,-532.23 452.89,-529.82 443.32,-525.27 442.57,-532.23"/>
<text text-anchor="middle" x="333.47" y="-519" font-family="Times,serif" font-size="10.00" fill="#767676">^2.0</text>
</g>
<!-- bamarni/composer&#45;bin&#45;plugin -->
<g id="node8" class="node">
<title>bamarni/composer&#45;bin&#45;plugin</title>
<path fill="#eeeeee" stroke="black" d="M682.97,-400C682.97,-400 435.97,-400 435.97,-400 429.97,-400 423.97,-394 423.97,-388 423.97,-388 423.97,-376 423.97,-376 423.97,-370 429.97,-364 435.97,-364 435.97,-364 682.97,-364 682.97,-364 688.97,-364 694.97,-370 694.97,-376 694.97,-376 694.97,-388 694.97,-388 694.97,-394 688.97,-400 682.97,-400"/>
<text text-anchor="middle" x="559.47" y="-378.3" font-family="Times,serif" font-size="14.00" fill="#314b5f">bamarni/composer&#45;bin&#45;plugin: 1.8.2</text>
</g>
<!-- bartlett/sarif&#45;php&#45;converters&#45;&gt;bamarni/composer&#45;bin&#45;plugin -->
<g id="edge13" class="edge">
<title>bartlett/sarif&#45;php&#45;converters&#45;&gt;bamarni/composer&#45;bin&#45;plugin</title>
<path fill="none" stroke="#1a2833" stroke-dasharray="5,2" d="M243,-423.1C294.06,-416.45 357.3,-408.21 413.72,-400.86"/>
<polygon fill="#1a2833" stroke="#1a2833" points="414.34,-404.31 423.8,-399.55 413.43,-397.37 414.34,-404.31"/>
<text text-anchor="middle" x="333.47" y="-416" font-family="Times,serif" font-size="10.00" fill="#767676">^1.8</text>
</g>
<!-- php&#45;parallel&#45;lint/php&#45;console&#45;highlighter -->
<g id="node10" class="node">
<title>php&#45;parallel&#45;lint/php&#45;console&#45;highlighter</title>
<path fill="#eeeeee" stroke="black" d="M725.97,-296C725.97,-296 392.97,-296 392.97,-296 386.97,-296 380.97,-290 380.97,-284 380.97,-284 380.97,-272 380.97,-272 380.97,-266 386.97,-260 392.97,-260 392.97,-260 725.97,-260 725.97,-260 731.97,-260 737.97,-266 737.97,-272 737.97,-272 737.97,-284 737.97,-284 737.97,-290 731.97,-296 725.97,-296"/>
<text text-anchor="middle" x="559.47" y="-274.3" font-family="Times,serif" font-size="14.00" fill="#314b5f">php&#45;parallel&#45;lint/php&#45;console&#45;highlighter: v1.0.0</text>
</g>
<!-- bartlett/sarif&#45;php&#45;converters&#45;&gt;php&#45;parallel&#45;lint/php&#45;console&#45;highlighter -->
<g id="edge17" class="edge">
<title>bartlett/sarif&#45;php&#45;converters&#45;&gt;php&#45;parallel&#45;lint/php&#45;console&#45;highlighter</title>
<path fill="none" stroke="#1a2833" stroke-dasharray="5,2" d="M160.16,-418.12C186.95,-389.8 243.63,-335.24 303.97,-310 325,-301.21 347.8,-294.65 370.81,-289.79"/>
<polygon fill="#1a2833" stroke="#1a2833" points="371.57,-293.2 380.68,-287.8 370.19,-286.34 371.57,-293.2"/>
<text text-anchor="middle" x="333.47" y="-313" font-family="Times,serif" font-size="10.00" fill="#767676">^1.0</text>
</g>
<!-- symfony/console -->
<g id="node13" class="node">
<title>symfony/console</title>
<path fill="#eeeeee" stroke="black" d="M641.47,-166C641.47,-166 477.47,-166 477.47,-166 471.47,-166 465.47,-160 465.47,-154 465.47,-154 465.47,-142 465.47,-142 465.47,-136 471.47,-130 477.47,-130 477.47,-130 641.47,-130 641.47,-130 647.47,-130 653.47,-136 653.47,-142 653.47,-142 653.47,-154 653.47,-154 653.47,-160 647.47,-166 641.47,-166"/>
<text text-anchor="middle" x="559.47" y="-144.3" font-family="Times,serif" font-size="14.00" fill="#314b5f">symfony/console: v7.3.0</text>
</g>
<!-- bartlett/sarif&#45;php&#45;converters&#45;&gt;symfony/console -->
<g id="edge23" class="edge">
<title>bartlett/sarif&#45;php&#45;converters&#45;&gt;symfony/console</title>
<path fill="none" stroke="#1a2833" stroke-dasharray="5,2" d="M158.84,-418.08C185.47,-386.74 244.17,-321.21 303.97,-278 367.9,-231.81 450.56,-192.86 504.04,-169.97"/>
<polygon fill="#1a2833" stroke="#1a2833" points="505.51,-173.15 513.35,-166.02 502.78,-166.7 505.51,-173.15"/>
<text text-anchor="middle" x="333.47" y="-281" font-family="Times,serif" font-size="10.00" fill="#767676">^6.4 || ^7.0</text>
</g>
<!-- bartlett/sarif&#45;php&#45;sdk&#45;&gt;php -->
<g id="edge9" class="edge">
<title>bartlett/sarif&#45;php&#45;sdk&#45;&gt;php</title>
<path fill="none" stroke="#1a2833" d="M666.3,-529.73C690.93,-524.9 716.27,-517.19 737.97,-505 788.2,-476.78 790.86,-455.15 823.97,-408 833.58,-394.33 828.58,-384.98 841.97,-375 876.62,-349.19 927.05,-342.6 961,-341.39"/>
<polygon fill="#1a2833" stroke="#1a2833" points="961.48,-344.88 971.4,-341.16 961.33,-337.88 961.48,-344.88"/>
<text text-anchor="middle" x="789.97" y="-496" font-family="Times,serif" font-size="10.00" fill="#767676">^8.1</text>
</g>
<!-- bartlett/sarif&#45;php&#45;sdk&#45;&gt;ext&#45;json -->
<g id="edge6" class="edge">
<title>bartlett/sarif&#45;php&#45;sdk&#45;&gt;ext&#45;json</title>
<path fill="none" stroke="#1a2833" d="M665.98,-547.38C757.09,-556.35 884.35,-568.87 951.61,-575.49"/>
<polygon fill="#1a2833" stroke="#1a2833" points="951.58,-579 961.87,-576.5 952.26,-572.03 951.58,-579"/>
<text text-anchor="middle" x="789.97" y="-565" font-family="Times,serif" font-size="10.00" fill="#767676">*</text>
</g>
<!-- bartlett/sarif&#45;php&#45;sdk&#45;&gt;ext&#45;pcre -->
<g id="edge7" class="edge">
<title>bartlett/sarif&#45;php&#45;sdk&#45;&gt;ext&#45;pcre</title>
<path fill="none" stroke="#1a2833" d="M665.98,-529.27C756.61,-522.64 883.01,-513.38 950.54,-508.44"/>
<polygon fill="#1a2833" stroke="#1a2833" points="951.14,-511.9 960.86,-507.68 950.63,-504.92 951.14,-511.9"/>
<text text-anchor="middle" x="789.97" y="-524" font-family="Times,serif" font-size="10.00" fill="#767676">*</text>
</g>
<!-- bartlett/sarif&#45;php&#45;sdk&#45;&gt;ext&#45;spl -->
<g id="edge8" class="edge">
<title>bartlett/sarif&#45;php&#45;sdk&#45;&gt;ext&#45;spl</title>
<path fill="none" stroke="#1a2833" d="M666.13,-551.75C690.02,-556.27 715.08,-561.96 737.97,-569 746.34,-571.57 747.83,-573.78 755.97,-577 793.61,-591.9 802.85,-596.59 841.97,-607 880.01,-617.12 924.18,-624.99 955.71,-629.97"/>
<polygon fill="#1a2833" stroke="#1a2833" points="955.47,-633.47 965.89,-631.54 956.54,-626.56 955.47,-633.47"/>
<text text-anchor="middle" x="789.97" y="-604" font-family="Times,serif" font-size="10.00" fill="#767676">*</text>
</g>
<!-- bamarni/composer&#45;bin&#45;plugin&#45;&gt;php -->
<g id="edge12" class="edge">
<title>bamarni/composer&#45;bin&#45;plugin&#45;&gt;php</title>
<path fill="none" stroke="#1a2833" d="M695.15,-369.67C787.47,-361.22 903.3,-350.62 961.13,-345.33"/>
<polygon fill="#1a2833" stroke="#1a2833" points="961.59,-348.8 971.23,-344.4 960.95,-341.83 961.59,-348.8"/>
<text text-anchor="middle" x="789.97" y="-366" font-family="Times,serif" font-size="10.00" fill="#767676">^7.2.5 || ^8.0</text>
</g>
<!-- composer&#45;plugin&#45;api -->
<g id="node9" class="node">
<title>composer&#45;plugin&#45;api</title>
<path fill="#eeeeee" stroke="black" d="M1066.97,-420C1066.97,-420 929.97,-420 929.97,-420 923.97,-420 917.97,-414 917.97,-408 917.97,-408 917.97,-396 917.97,-396 917.97,-390 923.97,-384 929.97,-384 929.97,-384 1066.97,-384 1066.97,-384 1072.97,-384 1078.97,-390 1078.97,-396 1078.97,-396 1078.97,-408 1078.97,-408 1078.97,-414 1072.97,-420 1066.97,-420"/>
<text text-anchor="middle" x="998.47" y="-398.3" font-family="Times,serif" font-size="14.00" fill="#314b5f">composer&#45;plugin&#45;api</text>
</g>
<!-- bamarni/composer&#45;bin&#45;plugin&#45;&gt;composer&#45;plugin&#45;api -->
<g id="edge11" class="edge">
<title>bamarni/composer&#45;bin&#45;plugin&#45;&gt;composer&#45;plugin&#45;api</title>
<path fill="none" stroke="#1a2833" d="M695.15,-388.16C764.28,-391.33 846.61,-395.1 907.88,-397.9"/>
<polygon fill="#1a2833" stroke="#1a2833" points="907.76,-401.4 917.91,-398.36 908.08,-394.41 907.76,-401.4"/>
<text text-anchor="middle" x="789.97" y="-396" font-family="Times,serif" font-size="10.00" fill="#767676">^2.0</text>
</g>
<!-- php&#45;parallel&#45;lint/php&#45;console&#45;highlighter&#45;&gt;php -->
<g id="edge15" class="edge">
<title>php&#45;parallel&#45;lint/php&#45;console&#45;highlighter&#45;&gt;php</title>
<path fill="none" stroke="#1a2833" d="M738.23,-295.89C767.01,-299.85 796.4,-304.53 823.97,-310 832.12,-311.62 833.87,-313.18 841.97,-315 882.56,-324.14 929.71,-331.93 961.35,-336.77"/>
<polygon fill="#1a2833" stroke="#1a2833" points="961.05,-340.26 971.46,-338.29 962.09,-333.34 961.05,-340.26"/>
<text text-anchor="middle" x="789.97" y="-313" font-family="Times,serif" font-size="10.00" fill="#767676">&gt;=5.3.2</text>
</g>
<!-- ext&#45;tokenizer -->
<g id="node11" class="node">
<title>ext&#45;tokenizer</title>
<path fill="#eeeeee" stroke="black" d="M1041.47,-306C1041.47,-306 955.47,-306 955.47,-306 949.47,-306 943.47,-300 943.47,-294 943.47,-294 943.47,-282 943.47,-282 943.47,-276 949.47,-270 955.47,-270 955.47,-270 1041.47,-270 1041.47,-270 1047.47,-270 1053.47,-276 1053.47,-282 1053.47,-282 1053.47,-294 1053.47,-294 1053.47,-300 1047.47,-306 1041.47,-306"/>
<text text-anchor="middle" x="998.47" y="-284.3" font-family="Times,serif" font-size="14.00" fill="#314b5f">ext&#45;tokenizer</text>
</g>
<!-- php&#45;parallel&#45;lint/php&#45;console&#45;highlighter&#45;&gt;ext&#45;tokenizer -->
<g id="edge14" class="edge">
<title>php&#45;parallel&#45;lint/php&#45;console&#45;highlighter&#45;&gt;ext&#45;tokenizer</title>
<path fill="none" stroke="#1a2833" d="M738.03,-274.61C766.77,-274.65 796.2,-275.04 823.97,-276 860.05,-277.25 900.28,-279.95 932.9,-282.47"/>
<polygon fill="#1a2833" stroke="#1a2833" points="932.97,-285.99 943.21,-283.28 933.52,-279.01 932.97,-285.99"/>
<text text-anchor="middle" x="789.97" y="-279" font-family="Times,serif" font-size="10.00" fill="#767676">*</text>
</g>
<!-- php&#45;parallel&#45;lint/php&#45;console&#45;color -->
<g id="node12" class="node">
<title>php&#45;parallel&#45;lint/php&#45;console&#45;color</title>
<path fill="#eeeeee" stroke="black" d="M1142.97,-252C1142.97,-252 853.97,-252 853.97,-252 847.97,-252 841.97,-246 841.97,-240 841.97,-240 841.97,-228 841.97,-228 841.97,-222 847.97,-216 853.97,-216 853.97,-216 1142.97,-216 1142.97,-216 1148.97,-216 1154.97,-222 1154.97,-228 1154.97,-228 1154.97,-240 1154.97,-240 1154.97,-246 1148.97,-252 1142.97,-252"/>
<text text-anchor="middle" x="998.47" y="-230.3" font-family="Times,serif" font-size="14.00" fill="#314b5f">php&#45;parallel&#45;lint/php&#45;console&#45;color: v1.0.1</text>
</g>
<!-- php&#45;parallel&#45;lint/php&#45;console&#45;highlighter&#45;&gt;php&#45;parallel&#45;lint/php&#45;console&#45;color -->
<g id="edge16" class="edge">
<title>php&#45;parallel&#45;lint/php&#45;console&#45;highlighter&#45;&gt;php&#45;parallel&#45;lint/php&#45;console&#45;color</title>
<path fill="none" stroke="#1a2833" d="M738.22,-260.1C769,-257 800.91,-253.79 831.36,-250.73"/>
<polygon fill="#1a2833" stroke="#1a2833" points="832.04,-254.18 841.64,-249.69 831.34,-247.21 832.04,-254.18"/>
<text text-anchor="middle" x="789.97" y="-261" font-family="Times,serif" font-size="10.00" fill="#767676">^1.0.1</text>
</g>
<!-- symfony/console&#45;&gt;php -->
<g id="edge18" class="edge">
<title>symfony/console&#45;&gt;php</title>
<path fill="none" stroke="#1a2833" d="M653.67,-157.18C710.61,-167.65 780.59,-190.06 823.97,-238 847.56,-264.06 816.42,-290.88 841.97,-315 873.67,-344.91 926,-348.08 961.09,-346.19"/>
<polygon fill="#1a2833" stroke="#1a2833" points="961.66,-349.66 971.39,-345.46 961.17,-342.67 961.66,-349.66"/>
<text text-anchor="middle" x="789.97" y="-241" font-family="Times,serif" font-size="10.00" fill="#767676">&gt;=8.2</text>
</g>
<!-- symfony/deprecation&#45;contracts -->
<g id="node14" class="node">
<title>symfony/deprecation&#45;contracts</title>
<path fill="#eeeeee" stroke="black" d="M1131.47,-36C1131.47,-36 865.47,-36 865.47,-36 859.47,-36 853.47,-30 853.47,-24 853.47,-24 853.47,-12 853.47,-12 853.47,-6 859.47,0 865.47,0 865.47,0 1131.47,0 1131.47,0 1137.47,0 1143.47,-6 1143.47,-12 1143.47,-12 1143.47,-24 1143.47,-24 1143.47,-30 1137.47,-36 1131.47,-36"/>
<text text-anchor="middle" x="998.47" y="-14.3" font-family="Times,serif" font-size="14.00" fill="#314b5f">symfony/deprecation&#45;contracts: v3.6.0</text>
</g>
<!-- symfony/console&#45;&gt;symfony/deprecation&#45;contracts -->
<g id="edge19" class="edge">
<title>symfony/console&#45;&gt;symfony/deprecation&#45;contracts</title>
<path fill="none" stroke="#1a2833" d="M602.63,-129.87C657.02,-107.12 755,-68.26 841.97,-45 851.11,-42.56 860.61,-40.28 870.21,-38.17"/>
<polygon fill="#1a2833" stroke="#1a2833" points="871.18,-41.54 880.23,-36.04 869.72,-34.7 871.18,-41.54"/>
<text text-anchor="middle" x="789.97" y="-72" font-family="Times,serif" font-size="10.00" fill="#767676">^2.5|^3</text>
</g>
<!-- symfony/polyfill&#45;mbstring -->
<g id="node15" class="node">
<title>symfony/polyfill&#45;mbstring</title>
<path fill="#eeeeee" stroke="black" d="M1116.97,-198C1116.97,-198 879.97,-198 879.97,-198 873.97,-198 867.97,-192 867.97,-186 867.97,-186 867.97,-174 867.97,-174 867.97,-168 873.97,-162 879.97,-162 879.97,-162 1116.97,-162 1116.97,-162 1122.97,-162 1128.97,-168 1128.97,-174 1128.97,-174 1128.97,-186 1128.97,-186 1128.97,-192 1122.97,-198 1116.97,-198"/>
<text text-anchor="middle" x="998.47" y="-176.3" font-family="Times,serif" font-size="14.00" fill="#314b5f">symfony/polyfill&#45;mbstring: v1.32.0</text>
</g>
<!-- symfony/console&#45;&gt;symfony/polyfill&#45;mbstring -->
<g id="edge20" class="edge">
<title>symfony/console&#45;&gt;symfony/polyfill&#45;mbstring</title>
<path fill="none" stroke="#1a2833" d="M653.69,-154.83C713.05,-159.17 791.06,-164.89 857.76,-169.77"/>
<polygon fill="#1a2833" stroke="#1a2833" points="857.71,-173.27 867.94,-170.51 858.22,-166.29 857.71,-173.27"/>
<text text-anchor="middle" x="789.97" y="-170" font-family="Times,serif" font-size="10.00" fill="#767676">~1.0</text>
</g>
<!-- symfony/service&#45;contracts -->
<g id="node16" class="node">
<title>symfony/service&#45;contracts</title>
<path fill="#eeeeee" stroke="black" d="M1114.97,-144C1114.97,-144 881.97,-144 881.97,-144 875.97,-144 869.97,-138 869.97,-132 869.97,-132 869.97,-120 869.97,-120 869.97,-114 875.97,-108 881.97,-108 881.97,-108 1114.97,-108 1114.97,-108 1120.97,-108 1126.97,-114 1126.97,-120 1126.97,-120 1126.97,-132 1126.97,-132 1126.97,-138 1120.97,-144 1114.97,-144"/>
<text text-anchor="middle" x="998.47" y="-122.3" font-family="Times,serif" font-size="14.00" fill="#314b5f">symfony/service&#45;contracts: v3.6.0</text>
</g>
<!-- symfony/console&#45;&gt;symfony/service&#45;contracts -->
<g id="edge21" class="edge">
<title>symfony/console&#45;&gt;symfony/service&#45;contracts</title>
<path fill="none" stroke="#1a2833" d="M653.94,-142.54C686.26,-140.7 722.7,-138.69 755.97,-137 789.64,-135.29 825.96,-133.56 859.94,-132.01"/>
<polygon fill="#1a2833" stroke="#1a2833" points="860.1,-135.51 869.94,-131.55 859.79,-128.51 860.1,-135.51"/>
<text text-anchor="middle" x="789.97" y="-140" font-family="Times,serif" font-size="10.00" fill="#767676">^2.5|^3</text>
</g>
<!-- symfony/string -->
<g id="node17" class="node">
<title>symfony/string</title>
<path fill="#eeeeee" stroke="black" d="M1074.97,-90C1074.97,-90 921.97,-90 921.97,-90 915.97,-90 909.97,-84 909.97,-78 909.97,-78 909.97,-66 909.97,-66 909.97,-60 915.97,-54 921.97,-54 921.97,-54 1074.97,-54 1074.97,-54 1080.97,-54 1086.97,-60 1086.97,-66 1086.97,-66 1086.97,-78 1086.97,-78 1086.97,-84 1080.97,-90 1074.97,-90"/>
<text text-anchor="middle" x="998.47" y="-68.3" font-family="Times,serif" font-size="14.00" fill="#314b5f">symfony/string: v7.3.0</text>
</g>
<!-- symfony/console&#45;&gt;symfony/string -->
<g id="edge22" class="edge">
<title>symfony/console&#45;&gt;symfony/string</title>
<path fill="none" stroke="#1a2833" d="M653.67,-131.77C708.49,-122.22 779.17,-109.92 841.97,-99 860.71,-95.74 880.72,-92.27 899.93,-88.93"/>
<polygon fill="#1a2833" stroke="#1a2833" points="900.63,-92.36 909.89,-87.2 899.44,-85.46 900.63,-92.36"/>
<text text-anchor="middle" x="789.97" y="-117" font-family="Times,serif" font-size="10.00" fill="#767676">^7.2</text>
</g>
</g>
</svg>
