<?xml version="1.0" encoding="UTF-8" standalone="no"?>
<!DOCTYPE svg PUBLIC "-//W3C//DTD SVG 1.1//EN"
 "http://www.w3.org/Graphics/SVG/1.1/DTD/svg11.dtd">
<!-- Generated by graphviz version 2.43.0 (0)
 -->
<!-- Title: %3 Pages: 1 -->
<svg width="1163pt" height="688pt"
 viewBox="0.00 0.00 1162.97 688.00" xmlns="http://www.w3.org/2000/svg" xmlns:xlink="http://www.w3.org/1999/xlink">
<g id="graph0" class="graph" transform="scale(1 1) rotate(0) translate(4 684)">
<title>%3</title>
<polygon fill="white" stroke="transparent" points="-4,4 -4,-684 1158.97,-684 1158.97,4 -4,4"/>
<!-- bartlett/sarif&#45;php&#45;converters -->
<g id="node1" class="node">
<title>bartlett/sarif&#45;php&#45;converters</title>
<ellipse fill="lightgrey" stroke="black" stroke-width="2" cx="142.99" cy="-402" rx="142.97" ry="18"/>
<text text-anchor="middle" x="142.99" y="-398.3" font-family="Times,serif" font-size="14.00">bartlett/sarif&#45;php&#45;converters</text>
</g>
<!-- php -->
<g id="node2" class="node">
<title>php</title>
<path fill="#eeeeee" stroke="black" d="M1013.47,-319C1013.47,-319 983.47,-319 983.47,-319 977.47,-319 971.47,-313 971.47,-307 971.47,-307 971.47,-295 971.47,-295 971.47,-289 977.47,-283 983.47,-283 983.47,-283 1013.47,-283 1013.47,-283 1019.47,-283 1025.47,-289 1025.47,-295 1025.47,-295 1025.47,-307 1025.47,-307 1025.47,-313 1019.47,-319 1013.47,-319"/>
<text text-anchor="middle" x="998.47" y="-297.3" font-family="Times,serif" font-size="14.00" fill="#314b5f">php</text>
</g>
<!-- bartlett/sarif&#45;php&#45;converters&#45;&gt;php -->
<g id="edge1" class="edge">
<title>bartlett/sarif&#45;php&#45;converters&#45;&gt;php</title>
<path fill="none" stroke="#1a2833" d="M177.77,-384.44C222.73,-362.13 305.38,-324.73 380.97,-310 493.05,-288.16 846.48,-296.47 961.16,-299.85"/>
<polygon fill="#1a2833" stroke="#1a2833" points="961.08,-303.35 971.19,-300.15 961.29,-296.35 961.08,-303.35"/>
<text text-anchor="middle" x="559.47" y="-313" font-family="Times,serif" font-size="10.00" fill="#767676">^8.2</text>
</g>
<!-- ext&#45;json -->
<g id="node3" class="node">
<title>ext&#45;json</title>
<path fill="#eeeeee" stroke="black" d="M1022.97,-658C1022.97,-658 973.97,-658 973.97,-658 967.97,-658 961.97,-652 961.97,-646 961.97,-646 961.97,-634 961.97,-634 961.97,-628 967.97,-622 973.97,-622 973.97,-622 1022.97,-622 1022.97,-622 1028.97,-622 1034.97,-628 1034.97,-634 1034.97,-634 1034.97,-646 1034.97,-646 1034.97,-652 1028.97,-658 1022.97,-658"/>
<text text-anchor="middle" x="998.47" y="-636.3" font-family="Times,serif" font-size="14.00" fill="#314b5f">ext&#45;json</text>
</g>
<!-- bartlett/sarif&#45;php&#45;converters&#45;&gt;ext&#45;json -->
<g id="edge2" class="edge">
<title>bartlett/sarif&#45;php&#45;converters&#45;&gt;ext&#45;json</title>
<path fill="none" stroke="#1a2833" d="M156.62,-419.94C188.37,-463.32 276.49,-573.46 380.97,-616 580.19,-697.12 846.21,-665.74 951.65,-648.44"/>
<polygon fill="#1a2833" stroke="#1a2833" points="952.36,-651.87 961.64,-646.77 951.2,-644.97 952.36,-651.87"/>
<text text-anchor="middle" x="559.47" y="-672" font-family="Times,serif" font-size="10.00" fill="#767676">*</text>
</g>
<!-- ext&#45;pcre -->
<g id="node4" class="node">
<title>ext&#45;pcre</title>
<path fill="#eeeeee" stroke="black" d="M1023.97,-578C1023.97,-578 972.97,-578 972.97,-578 966.97,-578 960.97,-572 960.97,-566 960.97,-566 960.97,-554 960.97,-554 960.97,-548 966.97,-542 972.97,-542 972.97,-542 1023.97,-542 1023.97,-542 1029.97,-542 1035.97,-548 1035.97,-554 1035.97,-554 1035.97,-566 1035.97,-566 1035.97,-572 1029.97,-578 1023.97,-578"/>
<text text-anchor="middle" x="998.47" y="-556.3" font-family="Times,serif" font-size="14.00" fill="#314b5f">ext&#45;pcre</text>
</g>
<!-- bartlett/sarif&#45;php&#45;converters&#45;&gt;ext&#45;pcre -->
<g id="edge3" class="edge">
<title>bartlett/sarif&#45;php&#45;converters&#45;&gt;ext&#45;pcre</title>
<path fill="none" stroke="#1a2833" d="M166.96,-419.84C207.56,-450.3 295.78,-511.78 380.97,-540 569.21,-602.35 626.56,-611.61 823.97,-593 867.46,-588.9 916.26,-579.15 951.01,-571.3"/>
<polygon fill="#1a2833" stroke="#1a2833" points="951.91,-574.69 960.87,-569.04 950.34,-567.86 951.91,-574.69"/>
<text text-anchor="middle" x="559.47" y="-604" font-family="Times,serif" font-size="10.00" fill="#767676">*</text>
</g>
<!-- ext&#45;spl -->
<g id="node5" class="node">
<title>ext&#45;spl</title>
<path fill="#eeeeee" stroke="black" d="M1018.97,-501C1018.97,-501 977.97,-501 977.97,-501 971.97,-501 965.97,-495 965.97,-489 965.97,-489 965.97,-477 965.97,-477 965.97,-471 971.97,-465 977.97,-465 977.97,-465 1018.97,-465 1018.97,-465 1024.97,-465 1030.97,-471 1030.97,-477 1030.97,-477 1030.97,-489 1030.97,-489 1030.97,-495 1024.97,-501 1018.97,-501"/>
<text text-anchor="middle" x="998.47" y="-479.3" font-family="Times,serif" font-size="14.00" fill="#314b5f">ext&#45;spl</text>
</g>
<!-- bartlett/sarif&#45;php&#45;converters&#45;&gt;ext&#45;spl -->
<g id="edge4" class="edge">
<title>bartlett/sarif&#45;php&#45;converters&#45;&gt;ext&#45;spl</title>
<path fill="none" stroke="#1a2833" d="M245.66,-414.57C287.53,-419.49 336.54,-424.92 380.97,-429 577.52,-447.06 627.61,-440.13 823.97,-460 869.04,-464.56 920.46,-471.61 955.54,-476.7"/>
<polygon fill="#1a2833" stroke="#1a2833" points="955.48,-480.23 965.88,-478.21 956.5,-473.3 955.48,-480.23"/>
<text text-anchor="middle" x="559.47" y="-455" font-family="Times,serif" font-size="10.00" fill="#767676">*</text>
</g>
<!-- composer&#45;runtime&#45;api -->
<g id="node6" class="node">
<title>composer&#45;runtime&#45;api</title>
<path fill="#eeeeee" stroke="black" d="M633.97,-420C633.97,-420 484.97,-420 484.97,-420 478.97,-420 472.97,-414 472.97,-408 472.97,-408 472.97,-396 472.97,-396 472.97,-390 478.97,-384 484.97,-384 484.97,-384 633.97,-384 633.97,-384 639.97,-384 645.97,-390 645.97,-396 645.97,-396 645.97,-408 645.97,-408 645.97,-414 639.97,-420 633.97,-420"/>
<text text-anchor="middle" x="559.47" y="-398.3" font-family="Times,serif" font-size="14.00" fill="#314b5f">composer&#45;runtime&#45;api</text>
</g>
<!-- bartlett/sarif&#45;php&#45;converters&#45;&gt;composer&#45;runtime&#45;api -->
<g id="edge5" class="edge">
<title>bartlett/sarif&#45;php&#45;converters&#45;&gt;composer&#45;runtime&#45;api</title>
<path fill="none" stroke="#1a2833" d="M286.05,-402C344.27,-402 410.13,-402 462.51,-402"/>
<polygon fill="#1a2833" stroke="#1a2833" points="462.8,-405.5 472.8,-402 462.8,-398.5 462.8,-405.5"/>
<text text-anchor="middle" x="333.47" y="-405" font-family="Times,serif" font-size="10.00" fill="#767676">^2.0</text>
</g>
<!-- bartlett/sarif&#45;php&#45;sdk -->
<g id="node7" class="node">
<title>bartlett/sarif&#45;php&#45;sdk</title>
<path fill="#eeeeee" stroke="black" d="M653.97,-531C653.97,-531 464.97,-531 464.97,-531 458.97,-531 452.97,-525 452.97,-519 452.97,-519 452.97,-507 452.97,-507 452.97,-501 458.97,-495 464.97,-495 464.97,-495 653.97,-495 653.97,-495 659.97,-495 665.97,-501 665.97,-507 665.97,-507 665.97,-519 665.97,-519 665.97,-525 659.97,-531 653.97,-531"/>
<text text-anchor="middle" x="559.47" y="-509.3" font-family="Times,serif" font-size="14.00" fill="#314b5f">bartlett/sarif&#45;php&#45;sdk: 2.1.1</text>
</g>
<!-- bartlett/sarif&#45;php&#45;converters&#45;&gt;bartlett/sarif&#45;php&#45;sdk -->
<g id="edge10" class="edge">
<title>bartlett/sarif&#45;php&#45;converters&#45;&gt;bartlett/sarif&#45;php&#45;sdk</title>
<path fill="none" stroke="#1a2833" d="M178.7,-419.57C210.53,-434.99 259.37,-456.95 303.97,-470 348.56,-483.05 398.78,-492.58 442.75,-499.3"/>
<polygon fill="#1a2833" stroke="#1a2833" points="442.49,-502.8 452.9,-500.82 443.53,-495.88 442.49,-502.8"/>
<text text-anchor="middle" x="333.47" y="-486" font-family="Times,serif" font-size="10.00" fill="#767676">^2.0</text>
</g>
<!-- bamarni/composer&#45;bin&#45;plugin -->
<g id="node8" class="node">
<title>bamarni/composer&#45;bin&#45;plugin</title>
<path fill="#eeeeee" stroke="black" d="M682.97,-366C682.97,-366 435.97,-366 435.97,-366 429.97,-366 423.97,-360 423.97,-354 423.97,-354 423.97,-342 423.97,-342 423.97,-336 429.97,-330 435.97,-330 435.97,-330 682.97,-330 682.97,-330 688.97,-330 694.97,-336 694.97,-342 694.97,-342 694.97,-354 694.97,-354 694.97,-360 688.97,-366 682.97,-366"/>
<text text-anchor="middle" x="559.47" y="-344.3" font-family="Times,serif" font-size="14.00" fill="#314b5f">bamarni/composer&#45;bin&#45;plugin: 1.8.2</text>
</g>
<!-- bartlett/sarif&#45;php&#45;converters&#45;&gt;bamarni/composer&#45;bin&#45;plugin -->
<g id="edge13" class="edge">
<title>bartlett/sarif&#45;php&#45;converters&#45;&gt;bamarni/composer&#45;bin&#45;plugin</title>
<path fill="none" stroke="#1a2833" stroke-dasharray="5,2" d="M243,-389.1C294.06,-382.45 357.3,-374.21 413.72,-366.86"/>
<polygon fill="#1a2833" stroke="#1a2833" points="414.34,-370.31 423.8,-365.55 413.43,-363.37 414.34,-370.31"/>
<text text-anchor="middle" x="333.47" y="-382" font-family="Times,serif" font-size="10.00" fill="#767676">^1.8</text>
</g>
<!-- php&#45;parallel&#45;lint/php&#45;console&#45;highlighter -->
<g id="node10" class="node">
<title>php&#45;parallel&#45;lint/php&#45;console&#45;highlighter</title>
<path fill="#eeeeee" stroke="black" d="M725.97,-262C725.97,-262 392.97,-262 392.97,-262 386.97,-262 380.97,-256 380.97,-250 380.97,-250 380.97,-238 380.97,-238 380.97,-232 386.97,-226 392.97,-226 392.97,-226 725.97,-226 725.97,-226 731.97,-226 737.97,-232 737.97,-238 737.97,-238 737.97,-250 737.97,-250 737.97,-256 731.97,-262 725.97,-262"/>
<text text-anchor="middle" x="559.47" y="-240.3" font-family="Times,serif" font-size="14.00" fill="#314b5f">php&#45;parallel&#45;lint/php&#45;console&#45;highlighter: v1.0.0</text>
</g>
<!-- bartlett/sarif&#45;php&#45;converters&#45;&gt;php&#45;parallel&#45;lint/php&#45;console&#45;highlighter -->
<g id="edge17" class="edge">
<title>bartlett/sarif&#45;php&#45;converters&#45;&gt;php&#45;parallel&#45;lint/php&#45;console&#45;highlighter</title>
<path fill="none" stroke="#1a2833" stroke-dasharray="5,2" d="M160.16,-384.12C186.95,-355.8 243.63,-301.24 303.97,-276 325,-267.21 347.8,-260.65 370.81,-255.79"/>
<polygon fill="#1a2833" stroke="#1a2833" points="371.57,-259.2 380.68,-253.8 370.19,-252.34 371.57,-259.2"/>
<text text-anchor="middle" x="333.47" y="-279" font-family="Times,serif" font-size="10.00" fill="#767676">^1.0</text>
</g>
<!-- symfony/console -->
<g id="node13" class="node">
<title>symfony/console</title>
<path fill="#eeeeee" stroke="black" d="M641.47,-144C641.47,-144 477.47,-144 477.47,-144 471.47,-144 465.47,-138 465.47,-132 465.47,-132 465.47,-120 465.47,-120 465.47,-114 471.47,-108 477.47,-108 477.47,-108 641.47,-108 641.47,-108 647.47,-108 653.47,-114 653.47,-120 653.47,-120 653.47,-132 653.47,-132 653.47,-138 647.47,-144 641.47,-144"/>
<text text-anchor="middle" x="559.47" y="-122.3" font-family="Times,serif" font-size="14.00" fill="#314b5f">symfony/console: v7.2.6</text>
</g>
<!-- bartlett/sarif&#45;php&#45;converters&#45;&gt;symfony/console -->
<g id="edge22" class="edge">
<title>bartlett/sarif&#45;php&#45;converters&#45;&gt;symfony/console</title>
<path fill="none" stroke="#1a2833" stroke-dasharray="5,2" d="M158.46,-384.09C184.74,-352.49 243.2,-286.17 303.97,-244 364.93,-201.7 443.47,-167.95 497.08,-147.56"/>
<polygon fill="#1a2833" stroke="#1a2833" points="498.33,-150.83 506.46,-144.04 495.86,-144.28 498.33,-150.83"/>
<text text-anchor="middle" x="333.47" y="-247" font-family="Times,serif" font-size="10.00" fill="#767676">^6.4 || ^7.0</text>
</g>
<!-- bartlett/sarif&#45;php&#45;sdk&#45;&gt;php -->
<g id="edge9" class="edge">
<title>bartlett/sarif&#45;php&#45;sdk&#45;&gt;php</title>
<path fill="none" stroke="#1a2833" d="M665.98,-499.18C690.74,-492.98 716.23,-484 737.97,-471 787.42,-441.43 790.86,-421.15 823.97,-374 833.58,-360.33 828.79,-351.26 841.97,-341 876.56,-314.07 927.32,-305.13 961.34,-302.24"/>
<polygon fill="#1a2833" stroke="#1a2833" points="961.6,-305.73 971.32,-301.53 961.1,-298.75 961.6,-305.73"/>
<text text-anchor="middle" x="789.97" y="-462" font-family="Times,serif" font-size="10.00" fill="#767676">^8.1</text>
</g>
<!-- bartlett/sarif&#45;php&#45;sdk&#45;&gt;ext&#45;json -->
<g id="edge6" class="edge">
<title>bartlett/sarif&#45;php&#45;sdk&#45;&gt;ext&#45;json</title>
<path fill="none" stroke="#1a2833" d="M622.62,-531.06C711.66,-556.94 873.43,-603.95 952.09,-626.81"/>
<polygon fill="#1a2833" stroke="#1a2833" points="951.14,-630.18 961.71,-629.61 953.09,-623.46 951.14,-630.18"/>
<text text-anchor="middle" x="789.97" y="-590" font-family="Times,serif" font-size="10.00" fill="#767676">*</text>
</g>
<!-- bartlett/sarif&#45;php&#45;sdk&#45;&gt;ext&#45;pcre -->
<g id="edge7" class="edge">
<title>bartlett/sarif&#45;php&#45;sdk&#45;&gt;ext&#45;pcre</title>
<path fill="none" stroke="#1a2833" d="M665.98,-524.35C756.61,-534.09 883.01,-547.69 950.54,-554.95"/>
<polygon fill="#1a2833" stroke="#1a2833" points="950.54,-558.47 960.86,-556.06 951.29,-551.51 950.54,-558.47"/>
<text text-anchor="middle" x="789.97" y="-543" font-family="Times,serif" font-size="10.00" fill="#767676">*</text>
</g>
<!-- bartlett/sarif&#45;php&#45;sdk&#45;&gt;ext&#45;spl -->
<g id="edge8" class="edge">
<title>bartlett/sarif&#45;php&#45;sdk&#45;&gt;ext&#45;spl</title>
<path fill="none" stroke="#1a2833" d="M665.98,-505.76C759.01,-499.37 889.73,-490.4 955.78,-485.86"/>
<polygon fill="#1a2833" stroke="#1a2833" points="956.07,-489.35 965.81,-485.17 955.59,-482.37 956.07,-489.35"/>
<text text-anchor="middle" x="789.97" y="-501" font-family="Times,serif" font-size="10.00" fill="#767676">*</text>
</g>
<!-- bamarni/composer&#45;bin&#45;plugin&#45;&gt;php -->
<g id="edge12" class="edge">
<title>bamarni/composer&#45;bin&#45;plugin&#45;&gt;php</title>
<path fill="none" stroke="#1a2833" d="M695.15,-333.51C787.47,-323.59 903.3,-311.13 961.13,-304.91"/>
<polygon fill="#1a2833" stroke="#1a2833" points="961.66,-308.37 971.23,-303.82 960.91,-301.41 961.66,-308.37"/>
<text text-anchor="middle" x="789.97" y="-328" font-family="Times,serif" font-size="10.00" fill="#767676">^7.2.5 || ^8.0</text>
</g>
<!-- composer&#45;plugin&#45;api -->
<g id="node9" class="node">
<title>composer&#45;plugin&#45;api</title>
<path fill="#eeeeee" stroke="black" d="M1066.97,-386C1066.97,-386 929.97,-386 929.97,-386 923.97,-386 917.97,-380 917.97,-374 917.97,-374 917.97,-362 917.97,-362 917.97,-356 923.97,-350 929.97,-350 929.97,-350 1066.97,-350 1066.97,-350 1072.97,-350 1078.97,-356 1078.97,-362 1078.97,-362 1078.97,-374 1078.97,-374 1078.97,-380 1072.97,-386 1066.97,-386"/>
<text text-anchor="middle" x="998.47" y="-364.3" font-family="Times,serif" font-size="14.00" fill="#314b5f">composer&#45;plugin&#45;api</text>
</g>
<!-- bamarni/composer&#45;bin&#45;plugin&#45;&gt;composer&#45;plugin&#45;api -->
<g id="edge11" class="edge">
<title>bamarni/composer&#45;bin&#45;plugin&#45;&gt;composer&#45;plugin&#45;api</title>
<path fill="none" stroke="#1a2833" d="M695.15,-354.16C764.28,-357.33 846.61,-361.1 907.88,-363.9"/>
<polygon fill="#1a2833" stroke="#1a2833" points="907.76,-367.4 917.91,-364.36 908.08,-360.41 907.76,-367.4"/>
<text text-anchor="middle" x="789.97" y="-362" font-family="Times,serif" font-size="10.00" fill="#767676">^2.0</text>
</g>
<!-- php&#45;parallel&#45;lint/php&#45;console&#45;highlighter&#45;&gt;php -->
<g id="edge15" class="edge">
<title>php&#45;parallel&#45;lint/php&#45;console&#45;highlighter&#45;&gt;php</title>
<path fill="none" stroke="#1a2833" d="M713.82,-262.04C749.96,-266.45 788.34,-271.27 823.97,-276 871.41,-282.3 926.03,-290.29 961.11,-295.52"/>
<polygon fill="#1a2833" stroke="#1a2833" points="960.93,-299.03 971.34,-297.05 961.97,-292.11 960.93,-299.03"/>
<text text-anchor="middle" x="789.97" y="-279" font-family="Times,serif" font-size="10.00" fill="#767676">&gt;=5.3.2</text>
</g>
<!-- ext&#45;tokenizer -->
<g id="node11" class="node">
<title>ext&#45;tokenizer</title>
<path fill="#eeeeee" stroke="black" d="M1041.47,-259C1041.47,-259 955.47,-259 955.47,-259 949.47,-259 943.47,-253 943.47,-247 943.47,-247 943.47,-235 943.47,-235 943.47,-229 949.47,-223 955.47,-223 955.47,-223 1041.47,-223 1041.47,-223 1047.47,-223 1053.47,-229 1053.47,-235 1053.47,-235 1053.47,-247 1053.47,-247 1053.47,-253 1047.47,-259 1041.47,-259"/>
<text text-anchor="middle" x="998.47" y="-237.3" font-family="Times,serif" font-size="14.00" fill="#314b5f">ext&#45;tokenizer</text>
</g>
<!-- php&#45;parallel&#45;lint/php&#45;console&#45;highlighter&#45;&gt;ext&#45;tokenizer -->
<g id="edge14" class="edge">
<title>php&#45;parallel&#45;lint/php&#45;console&#45;highlighter&#45;&gt;ext&#45;tokenizer</title>
<path fill="none" stroke="#1a2833" d="M738.15,-242.14C744.17,-242.09 750.12,-242.04 755.97,-242 816.06,-241.57 884.55,-241.31 933.21,-241.16"/>
<polygon fill="#1a2833" stroke="#1a2833" points="933.29,-244.66 943.28,-241.13 933.27,-237.66 933.29,-244.66"/>
<text text-anchor="middle" x="789.97" y="-245" font-family="Times,serif" font-size="10.00" fill="#767676">*</text>
</g>
<!-- php&#45;parallel&#45;lint/php&#45;console&#45;color -->
<g id="node12" class="node">
<title>php&#45;parallel&#45;lint/php&#45;console&#45;color</title>
<path fill="#eeeeee" stroke="black" d="M1142.97,-198C1142.97,-198 853.97,-198 853.97,-198 847.97,-198 841.97,-192 841.97,-186 841.97,-186 841.97,-174 841.97,-174 841.97,-168 847.97,-162 853.97,-162 853.97,-162 1142.97,-162 1142.97,-162 1148.97,-162 1154.97,-168 1154.97,-174 1154.97,-174 1154.97,-186 1154.97,-186 1154.97,-192 1148.97,-198 1142.97,-198"/>
<text text-anchor="middle" x="998.47" y="-176.3" font-family="Times,serif" font-size="14.00" fill="#314b5f">php&#45;parallel&#45;lint/php&#45;console&#45;color: v1.0.1</text>
</g>
<!-- php&#45;parallel&#45;lint/php&#45;console&#45;highlighter&#45;&gt;php&#45;parallel&#45;lint/php&#45;console&#45;color -->
<g id="edge16" class="edge">
<title>php&#45;parallel&#45;lint/php&#45;console&#45;highlighter&#45;&gt;php&#45;parallel&#45;lint/php&#45;console&#45;color</title>
<path fill="none" stroke="#1a2833" d="M598.72,-225.85C637.37,-208.59 699.32,-183.84 755.97,-174 780.32,-169.77 806.26,-167.81 831.76,-167.29"/>
<polygon fill="#1a2833" stroke="#1a2833" points="831.94,-170.79 841.89,-167.16 831.85,-163.79 831.94,-170.79"/>
<text text-anchor="middle" x="789.97" y="-177" font-family="Times,serif" font-size="10.00" fill="#767676">^1.0.1</text>
</g>
<!-- symfony/console&#45;&gt;php -->
<g id="edge18" class="edge">
<title>symfony/console&#45;&gt;php</title>
<path fill="none" stroke="#1a2833" d="M623.75,-144.08C691.87,-164.6 794.46,-198.86 823.97,-227 838.38,-240.73 826.54,-255.44 841.97,-268 875.73,-295.47 926.9,-301.62 961.22,-302.29"/>
<polygon fill="#1a2833" stroke="#1a2833" points="961.28,-305.79 971.3,-302.34 961.31,-298.79 961.28,-305.79"/>
<text text-anchor="middle" x="789.97" y="-230" font-family="Times,serif" font-size="10.00" fill="#767676">&gt;=8.2</text>
</g>
<!-- symfony/polyfill&#45;mbstring -->
<g id="node14" class="node">
<title>symfony/polyfill&#45;mbstring</title>
<path fill="#eeeeee" stroke="black" d="M1116.97,-144C1116.97,-144 879.97,-144 879.97,-144 873.97,-144 867.97,-138 867.97,-132 867.97,-132 867.97,-120 867.97,-120 867.97,-114 873.97,-108 879.97,-108 879.97,-108 1116.97,-108 1116.97,-108 1122.97,-108 1128.97,-114 1128.97,-120 1128.97,-120 1128.97,-132 1128.97,-132 1128.97,-138 1122.97,-144 1116.97,-144"/>
<text text-anchor="middle" x="998.47" y="-122.3" font-family="Times,serif" font-size="14.00" fill="#314b5f">symfony/polyfill&#45;mbstring: v1.32.0</text>
</g>
<!-- symfony/console&#45;&gt;symfony/polyfill&#45;mbstring -->
<g id="edge19" class="edge">
<title>symfony/console&#45;&gt;symfony/polyfill&#45;mbstring</title>
<path fill="none" stroke="#1a2833" d="M653.69,-126C713.05,-126 791.06,-126 857.76,-126"/>
<polygon fill="#1a2833" stroke="#1a2833" points="857.94,-129.5 867.94,-126 857.94,-122.5 857.94,-129.5"/>
<text text-anchor="middle" x="789.97" y="-129" font-family="Times,serif" font-size="10.00" fill="#767676">~1.0</text>
</g>
<!-- symfony/service&#45;contracts -->
<g id="node15" class="node">
<title>symfony/service&#45;contracts</title>
<path fill="#eeeeee" stroke="black" d="M1114.97,-90C1114.97,-90 881.97,-90 881.97,-90 875.97,-90 869.97,-84 869.97,-78 869.97,-78 869.97,-66 869.97,-66 869.97,-60 875.97,-54 881.97,-54 881.97,-54 1114.97,-54 1114.97,-54 1120.97,-54 1126.97,-60 1126.97,-66 1126.97,-66 1126.97,-78 1126.97,-78 1126.97,-84 1120.97,-90 1114.97,-90"/>
<text text-anchor="middle" x="998.47" y="-68.3" font-family="Times,serif" font-size="14.00" fill="#314b5f">symfony/service&#45;contracts: v3.6.0</text>
</g>
<!-- symfony/console&#45;&gt;symfony/service&#45;contracts -->
<g id="edge20" class="edge">
<title>symfony/console&#45;&gt;symfony/service&#45;contracts</title>
<path fill="none" stroke="#1a2833" d="M653.69,-114.48C713.53,-107.09 792.32,-97.35 859.37,-89.07"/>
<polygon fill="#1a2833" stroke="#1a2833" points="860.1,-92.5 869.59,-87.8 859.24,-85.55 860.1,-92.5"/>
<text text-anchor="middle" x="789.97" y="-104" font-family="Times,serif" font-size="10.00" fill="#767676">^2.5|^3</text>
</g>
<!-- symfony/string -->
<g id="node16" class="node">
<title>symfony/string</title>
<path fill="#eeeeee" stroke="black" d="M1074.97,-36C1074.97,-36 921.97,-36 921.97,-36 915.97,-36 909.97,-30 909.97,-24 909.97,-24 909.97,-12 909.97,-12 909.97,-6 915.97,0 921.97,0 921.97,0 1074.97,0 1074.97,0 1080.97,0 1086.97,-6 1086.97,-12 1086.97,-12 1086.97,-24 1086.97,-24 1086.97,-30 1080.97,-36 1074.97,-36"/>
<text text-anchor="middle" x="998.47" y="-14.3" font-family="Times,serif" font-size="14.00" fill="#314b5f">symfony/string: v7.2.6</text>
</g>
<!-- symfony/console&#45;&gt;symfony/string -->
<g id="edge21" class="edge">
<title>symfony/console&#45;&gt;symfony/string</title>
<path fill="none" stroke="#1a2833" d="M616.35,-107.98C672.82,-90.23 762.8,-63.21 841.97,-45 860.62,-40.71 880.66,-36.75 899.96,-33.27"/>
<polygon fill="#1a2833" stroke="#1a2833" points="900.73,-36.68 909.96,-31.48 899.51,-29.79 900.73,-36.68"/>
<text text-anchor="middle" x="789.97" y="-70" font-family="Times,serif" font-size="10.00" fill="#767676">^6.4|^7.0</text>
</g>
</g>
</svg>
