<?xml version="1.0" encoding="UTF-8" standalone="no"?>
<!DOCTYPE svg PUBLIC "-//W3C//DTD SVG 1.1//EN"
 "http://www.w3.org/Graphics/SVG/1.1/DTD/svg11.dtd">
<!-- Generated by graphviz version 2.43.0 (0)
 -->
<!-- Title: %3 Pages: 1 -->
<svg width="1446pt" height="891pt"
 viewBox="0.00 0.00 1446.00 891.00" xmlns="http://www.w3.org/2000/svg" xmlns:xlink="http://www.w3.org/1999/xlink">
<g id="graph0" class="graph" transform="scale(1 1) rotate(0) translate(4 887)">
<title>%3</title>
<g id="clust1" class="cluster">
<title>cluster_0</title>
<polygon fill="BurlyWood" stroke="black" points="8,-219 8,-865.5 664,-865.5 664,-219 8,-219"/>
<text text-anchor="middle" x="336" y="-850.3" font-family="Times,serif" font-size="14.00">Bartlett\Sarif\Converter</text>
</g>
<g id="clust2" class="cluster">
<title>cluster_1</title>
<polygon fill="LightSkyBlue" stroke="black" points="256,-8 256,-211 1374,-211 1374,-8 256,-8"/>
<text text-anchor="middle" x="815" y="-195.8" font-family="Times,serif" font-size="14.00">Bartlett\Sarif\Contract</text>
</g>
<g id="clust3" class="cluster">
<title>cluster_2</title>
<polygon fill="Bisque" stroke="black" points="672,-388 672,-859 1014,-859 1014,-388 672,-388"/>
<text text-anchor="middle" x="843" y="-843.8" font-family="Times,serif" font-size="14.00">Bartlett\Sarif\Converter\Source</text>
</g>
<g id="clust4" class="cluster">
<title>cluster_3</title>
<polygon fill="Bisque" stroke="black" points="1022,-398 1022,-875 1430,-875 1430,-398 1022,-398"/>
<text text-anchor="middle" x="1226" y="-859.8" font-family="Times,serif" font-size="14.00">Bartlett\Sarif\Converter\Normalizer</text>
</g>
<!-- Bartlett\\Sarif\\Converter\\PhpStanConverter -->
<g id="node1" class="node">
<title>Bartlett\\Sarif\\Converter\\PhpStanConverter</title>
<polygon fill="#fefece" stroke="transparent" points="453,-834.5 219,-834.5 219,-774.5 453,-774.5 453,-834.5"/>
<polygon fill="#eeeeee" stroke="transparent" points="219,-812.5 219,-834.5 453,-834.5 453,-812.5 219,-812.5"/>
<polygon fill="none" stroke="black" points="219,-812.5 219,-834.5 453,-834.5 453,-812.5 219,-812.5"/>
<text text-anchor="start" x="294" y="-818.1" font-family="Verdana" font-weight="bold" font-size="8.00">PhpStanConverter</text>
<polygon fill="none" stroke="black" points="219,-806.5 219,-812.5 453,-812.5 453,-806.5 219,-806.5"/>
<polygon fill="none" stroke="black" points="219,-774.5 219,-806.5 453,-806.5 453,-774.5 219,-774.5"/>
<text text-anchor="start" x="224" y="-795.1" font-family="Verdana" font-size="8.00">+ configure(options : array = []) : void</text>
<text text-anchor="start" x="224" y="-782.1" font-family="Verdana" font-size="8.00">+ toolDriver() : Bartlett\Sarif\Definition\ToolComponent</text>
</g>
<!-- Bartlett\\Sarif\\Converter\\AbstractConverter -->
<g id="node2" class="node">
<title>Bartlett\\Sarif\\Converter\\AbstractConverter</title>
<polygon fill="#fefece" stroke="transparent" points="655.5,-729 16.5,-729 16.5,-227 655.5,-227 655.5,-729"/>
<polygon fill="#eeeeee" stroke="transparent" points="17,-707 17,-729 656,-729 656,-707 17,-707"/>
<polygon fill="none" stroke="black" points="17,-707 17,-729 656,-729 656,-707 17,-707"/>
<text text-anchor="start" x="312.5" y="-720.6" font-family="Verdana" font-weight="bold" font-size="8.00">«abstract»</text>
<text text-anchor="start" x="295.5" y="-712.6" font-family="Verdana" font-weight="bold" font-size="8.00">AbstractConverter</text>
<polygon fill="none" stroke="black" points="17,-480 17,-707 656,-707 656,-480 17,-480"/>
<text text-anchor="start" x="22" y="-695.6" font-family="Verdana" font-size="8.00"># toolName</text>
<text text-anchor="start" x="22" y="-682.6" font-family="Verdana" font-size="8.00"># toolFullName</text>
<text text-anchor="start" x="22" y="-669.6" font-family="Verdana" font-size="8.00"># toolShortDescription</text>
<text text-anchor="start" x="22" y="-656.6" font-family="Verdana" font-size="8.00"># toolFullDescription</text>
<text text-anchor="start" x="22" y="-643.6" font-family="Verdana" font-size="8.00"># toolInformationUri</text>
<text text-anchor="start" x="22" y="-630.6" font-family="Verdana" font-size="8.00"># toolComposerPackage</text>
<text text-anchor="start" x="22" y="-617.6" font-family="Verdana" font-size="8.00"># toolSemanticVersion</text>
<text text-anchor="start" x="22" y="-604.6" font-family="Verdana" font-size="8.00"># converterComposerPackage</text>
<text text-anchor="start" x="22" y="-591.6" font-family="Verdana" font-size="8.00"># results : mixed = []</text>
<text text-anchor="start" x="22" y="-578.6" font-family="Verdana" font-size="8.00"># errors : mixed = []</text>
<text text-anchor="start" x="22" y="-565.6" font-family="Verdana" font-size="8.00"># serializer</text>
<text text-anchor="start" x="22" y="-552.6" font-family="Verdana" font-size="8.00"># startTime</text>
<text text-anchor="start" x="22" y="-539.6" font-family="Verdana" font-size="8.00"># endTime</text>
<text text-anchor="start" x="22" y="-526.6" font-family="Verdana" font-size="8.00"># includeCodeSnippets</text>
<text text-anchor="start" x="22" y="-513.6" font-family="Verdana" font-size="8.00"># includeContextRegion</text>
<text text-anchor="start" x="22" y="-500.6" font-family="Verdana" font-size="8.00"># defaultResultLevelIfEmpty</text>
<text text-anchor="start" x="22" y="-487.6" font-family="Verdana" font-size="8.00"># projectDirectory</text>
<polygon fill="none" stroke="black" points="17,-227 17,-480 656,-480 656,-227 17,-227"/>
<text text-anchor="start" x="22" y="-468.6" font-family="Verdana" font-size="8.00">+ __construct(options : array = [], factory : Bartlett\Sarif\Factory\SerializerFactory = «unknown»)</text>
<text text-anchor="start" x="22" y="-455.6" font-family="Verdana" font-size="8.00">+ getName() : string</text>
<text text-anchor="start" x="22" y="-442.6" font-family="Verdana" font-size="8.00">+ configure(options : array) : void</text>
<text text-anchor="start" x="22" y="-429.6" font-family="Verdana" font-size="8.00">+ toolDriver() : Bartlett\Sarif\Definition\ToolComponent</text>
<text text-anchor="start" x="22" y="-416.6" font-family="Verdana" font-size="8.00">+ toolExtensions() : array</text>
<text text-anchor="start" x="22" y="-403.6" font-family="Verdana" font-size="8.00">+ rules(defined : iterable) : array</text>
<text text-anchor="start" x="22" y="-390.6" font-family="Verdana" font-size="8.00">+ results(normalized : iterable) : void</text>
<text text-anchor="start" x="22" y="-377.6" font-family="Verdana" font-size="8.00">+ sarifLog(runs : array = [], version : string = &#39;2\.1\.0&#39;) : ?string</text>
<text text-anchor="start" x="22" y="-364.6" font-family="Verdana" font-size="8.00">+ invocations(properties : Bartlett\Sarif\Definition\PropertyBag = «unknown») : array</text>
<text text-anchor="start" x="22" y="-351.6" font-family="Verdana" font-size="8.00">+ versionControlDetails() : array</text>
<text text-anchor="start" x="22" y="-338.6" font-family="Verdana" font-size="8.00">+ automationDetails() : Bartlett\Sarif\Definition\RunAutomationDetails</text>
<text text-anchor="start" x="22" y="-325.6" font-family="Verdana" font-size="8.00">+ run(invocations : iterable, rules : iterable) : Bartlett\Sarif\Definition\Run</text>
<text text-anchor="start" x="22" y="-312.6" font-family="Verdana" font-size="8.00"># originalUriBaseIdentifiers() : array</text>
<text text-anchor="start" x="22" y="-299.6" font-family="Verdana" font-size="8.00"># getToolVersion(package : string) : string</text>
<text text-anchor="start" x="22" y="-286.6" font-family="Verdana" font-size="8.00"># pathToArtifactLocation(path : string) : string</text>
<text text-anchor="start" x="22" y="-273.6" font-family="Verdana" font-size="8.00"># pathToUri(path : string) : string</text>
<text text-anchor="start" x="22" y="-260.6" font-family="Verdana" font-size="8.00"># getCodeSnippet(filePath : string, lineNumber : int, linesBefore : int, linesAfter : int) : ?string</text>
<text text-anchor="start" x="22" y="-247.6" font-family="Verdana" font-size="8.00"># getSnippetRegion(filePath : string, lineNumber : int, column : int = «unknown», linesBefore : int = 2, linesAfter : int = 2) : Bartlett\Sarif\Definition\Region</text>
<text text-anchor="start" x="22" y="-234.6" font-family="Verdana" font-size="8.00"># getErrors() : Iterator</text>
</g>
<!-- Bartlett\\Sarif\\Converter\\PhpStanConverter&#45;&gt;Bartlett\\Sarif\\Converter\\AbstractConverter -->
<g id="edge2" class="edge">
<title>Bartlett\\Sarif\\Converter\\PhpStanConverter&#45;&gt;Bartlett\\Sarif\\Converter\\AbstractConverter</title>
<path fill="none" stroke="black" d="M336,-774.42C336,-764.53 336,-752.54 336,-739.13"/>
<polygon fill="none" stroke="black" points="339.5,-739.12 336,-729.12 332.5,-739.12 339.5,-739.12"/>
</g>
<!-- Bartlett\\Sarif\\Contract\\ConverterInterface -->
<g id="node3" class="node">
<title>Bartlett\\Sarif\\Contract\\ConverterInterface</title>
<polygon fill="#fefece" stroke="transparent" points="668,-180 264,-180 264,-16 668,-16 668,-180"/>
<polygon fill="#eeeeee" stroke="transparent" points="264,-158 264,-180 668,-180 668,-158 264,-158"/>
<polygon fill="none" stroke="black" points="264,-158 264,-180 668,-180 668,-158 264,-158"/>
<text text-anchor="start" x="440" y="-171.6" font-family="Verdana" font-weight="bold" font-size="8.00">«interface»</text>
<text text-anchor="start" x="423.5" y="-163.6" font-family="Verdana" font-weight="bold" font-size="8.00">ConverterInterface</text>
<polygon fill="none" stroke="black" points="264,-152 264,-158 668,-158 668,-152 264,-152"/>
<polygon fill="none" stroke="black" points="264,-16 264,-152 668,-152 668,-16 264,-16"/>
<text text-anchor="start" x="269" y="-140.6" font-family="Verdana" font-size="8.00">+ «abstract» getName() : string</text>
<text text-anchor="start" x="269" y="-127.6" font-family="Verdana" font-size="8.00">+ «abstract» toolDriver() : Bartlett\Sarif\Definition\ToolComponent</text>
<text text-anchor="start" x="269" y="-114.6" font-family="Verdana" font-size="8.00">+ «abstract» toolExtensions() : array</text>
<text text-anchor="start" x="269" y="-101.6" font-family="Verdana" font-size="8.00">+ «abstract» rules(defined : iterable) : array</text>
<text text-anchor="start" x="269" y="-88.6" font-family="Verdana" font-size="8.00">+ «abstract» results(normalized : iterable) : void</text>
<text text-anchor="start" x="269" y="-75.6" font-family="Verdana" font-size="8.00">+ «abstract» invocations(properties : Bartlett\Sarif\Definition\PropertyBag = «unknown») : array</text>
<text text-anchor="start" x="269" y="-62.6" font-family="Verdana" font-size="8.00">+ «abstract» versionControlDetails() : array</text>
<text text-anchor="start" x="269" y="-49.6" font-family="Verdana" font-size="8.00">+ «abstract» automationDetails() : Bartlett\Sarif\Definition\RunAutomationDetails</text>
<text text-anchor="start" x="269" y="-36.6" font-family="Verdana" font-size="8.00">+ «abstract» run(invocations : iterable, rules : iterable) : Bartlett\Sarif\Definition\Run</text>
<text text-anchor="start" x="269" y="-23.6" font-family="Verdana" font-size="8.00">+ «abstract» sarifLog(runs : array = [], version : string = &#39;2\.1\.0&#39;) : ?string</text>
</g>
<!-- Bartlett\\Sarif\\Converter\\AbstractConverter&#45;&gt;Bartlett\\Sarif\\Contract\\ConverterInterface -->
<g id="edge1" class="edge">
<title>Bartlett\\Sarif\\Converter\\AbstractConverter&#45;&gt;Bartlett\\Sarif\\Contract\\ConverterInterface</title>
<path fill="none" stroke="black" stroke-dasharray="5,2" d="M421.99,-226.97C426.41,-214.1 430.7,-201.65 434.74,-189.9"/>
<polygon fill="none" stroke="black" points="438.13,-190.8 438.07,-180.21 431.51,-188.52 438.13,-190.8"/>
</g>
<!-- Bartlett\\Sarif\\Contract\\SourceInterface -->
<g id="node4" class="node">
<title>Bartlett\\Sarif\\Contract\\SourceInterface</title>
<polygon fill="#fefece" stroke="transparent" points="1000,-154 686,-154 686,-42 1000,-42 1000,-154"/>
<polygon fill="#eeeeee" stroke="transparent" points="686,-132 686,-154 1000,-154 1000,-132 686,-132"/>
<polygon fill="none" stroke="black" points="686,-132 686,-154 1000,-154 1000,-132 686,-132"/>
<text text-anchor="start" x="817" y="-145.6" font-family="Verdana" font-weight="bold" font-size="8.00">«interface»</text>
<text text-anchor="start" x="807" y="-137.6" font-family="Verdana" font-weight="bold" font-size="8.00">SourceInterface</text>
<polygon fill="none" stroke="black" points="686,-126 686,-132 1000,-132 1000,-126 686,-126"/>
<polygon fill="none" stroke="black" points="686,-42 686,-126 1000,-126 1000,-42 686,-42"/>
<text text-anchor="start" x="691" y="-114.6" font-family="Verdana" font-size="8.00">+ «abstract» getName() : string</text>
<text text-anchor="start" x="691" y="-101.6" font-family="Verdana" font-size="8.00">+ «abstract» getFiles() : Iterator</text>
<text text-anchor="start" x="691" y="-88.6" font-family="Verdana" font-size="8.00">+ «abstract» getErrors() : Iterator</text>
<text text-anchor="start" x="691" y="-75.6" font-family="Verdana" font-size="8.00">+ «abstract» getRules() : Iterator</text>
<text text-anchor="start" x="691" y="-62.6" font-family="Verdana" font-size="8.00">+ «abstract» getAttribute(name : string) : Iterator</text>
<text text-anchor="start" x="691" y="-49.6" font-family="Verdana" font-size="8.00">+ «abstract» normalize(data : mixed, format : string, context : array) : bool</text>
</g>
<!-- Bartlett\\Sarif\\Contract\\NormalizerInterface -->
<g id="node5" class="node">
<title>Bartlett\\Sarif\\Contract\\NormalizerInterface</title>
<polygon fill="#fefece" stroke="transparent" points="1366,-163.5 1018,-163.5 1018,-32.5 1366,-32.5 1366,-163.5"/>
<polygon fill="#eeeeee" stroke="transparent" points="1018,-141 1018,-163 1366,-163 1366,-141 1018,-141"/>
<polygon fill="none" stroke="black" points="1018,-141 1018,-163 1366,-163 1366,-141 1018,-141"/>
<text text-anchor="start" x="1166" y="-154.6" font-family="Verdana" font-weight="bold" font-size="8.00">«interface»</text>
<text text-anchor="start" x="1147" y="-146.6" font-family="Verdana" font-weight="bold" font-size="8.00">NormalizerInterface</text>
<polygon fill="none" stroke="black" points="1018,-70 1018,-141 1366,-141 1366,-70 1018,-70"/>
<text text-anchor="start" x="1023" y="-129.6" font-family="Verdana" font-size="8.00">+ «static» FORMAT_SARIF : string = &quot;sarif&quot; {readOnly}</text>
<text text-anchor="start" x="1023" y="-116.6" font-family="Verdana" font-size="8.00">+ «static» FORMAT_JSON : string = &quot;json&quot; {readOnly}</text>
<text text-anchor="start" x="1023" y="-103.6" font-family="Verdana" font-size="8.00">+ «static» FORMAT_XML : string = &quot;xml&quot; {readOnly}</text>
<text text-anchor="start" x="1023" y="-90.6" font-family="Verdana" font-size="8.00">+ «static» FORMAT_CHECKSTYLE : string = &quot;checkstyle&quot; {readOnly}</text>
<text text-anchor="start" x="1023" y="-77.6" font-family="Verdana" font-size="8.00">+ «static» FORMAT_INTERNAL : string = &quot;internal&quot; {readOnly}</text>
<polygon fill="none" stroke="black" points="1018,-64 1018,-70 1366,-70 1366,-64 1018,-64"/>
<polygon fill="none" stroke="black" points="1018,-32 1018,-64 1366,-64 1366,-32 1018,-32"/>
<text text-anchor="start" x="1023" y="-52.6" font-family="Verdana" font-size="8.00">+ «abstract» getSupportedFormats() : array</text>
<text text-anchor="start" x="1023" y="-39.6" font-family="Verdana" font-size="8.00">+ «abstract» normalize(data : mixed, format : string, context : array) : ?ArrayObject</text>
</g>
<!-- Bartlett\\Sarif\\Converter\\Source\\PhpStanSource -->
<g id="node6" class="node">
<title>Bartlett\\Sarif\\Converter\\Source\\PhpStanSource</title>
<polygon fill="#fefece" stroke="transparent" points="931,-828 755,-828 755,-781 931,-781 931,-828"/>
<polygon fill="#eeeeee" stroke="transparent" points="755,-805.5 755,-827.5 931,-827.5 931,-805.5 755,-805.5"/>
<polygon fill="none" stroke="black" points="755,-805.5 755,-827.5 931,-827.5 931,-805.5 755,-805.5"/>
<text text-anchor="start" x="808" y="-811.1" font-family="Verdana" font-weight="bold" font-size="8.00">PhpStanSource</text>
<polygon fill="none" stroke="black" points="755,-799.5 755,-805.5 931,-805.5 931,-799.5 755,-799.5"/>
<polygon fill="none" stroke="black" points="755,-780.5 755,-799.5 931,-799.5 931,-780.5 755,-780.5"/>
<text text-anchor="start" x="760" y="-788.1" font-family="Verdana" font-size="8.00">+ __construct(normalizers : iterable = [])</text>
</g>
<!-- Bartlett\\Sarif\\Converter\\Source\\AbstractSource -->
<g id="node7" class="node">
<title>Bartlett\\Sarif\\Converter\\Source\\AbstractSource</title>
<polygon fill="#fefece" stroke="transparent" points="1006,-560 680,-560 680,-396 1006,-396 1006,-560"/>
<polygon fill="#eeeeee" stroke="transparent" points="680,-538 680,-560 1006,-560 1006,-538 680,-538"/>
<polygon fill="none" stroke="black" points="680,-538 680,-560 1006,-560 1006,-538 680,-538"/>
<text text-anchor="start" x="819" y="-551.6" font-family="Verdana" font-weight="bold" font-size="8.00">«abstract»</text>
<text text-anchor="start" x="808.5" y="-543.6" font-family="Verdana" font-weight="bold" font-size="8.00">AbstractSource</text>
<polygon fill="none" stroke="black" points="680,-506 680,-538 1006,-538 1006,-506 680,-506"/>
<text text-anchor="start" x="685" y="-526.6" font-family="Verdana" font-size="8.00">– normalizers : mixed</text>
<text text-anchor="start" x="685" y="-513.6" font-family="Verdana" font-size="8.00">– normalized</text>
<polygon fill="none" stroke="black" points="680,-396 680,-506 1006,-506 1006,-396 680,-396"/>
<text text-anchor="start" x="685" y="-494.6" font-family="Verdana" font-size="8.00">+ __construct(normalizers : iterable = [])</text>
<text text-anchor="start" x="685" y="-481.6" font-family="Verdana" font-size="8.00">+ getName() : string</text>
<text text-anchor="start" x="685" y="-468.6" font-family="Verdana" font-size="8.00">+ getFiles() : Iterator</text>
<text text-anchor="start" x="685" y="-455.6" font-family="Verdana" font-size="8.00">+ getErrors() : Iterator</text>
<text text-anchor="start" x="685" y="-442.6" font-family="Verdana" font-size="8.00">+ getRules() : Iterator</text>
<text text-anchor="start" x="685" y="-429.6" font-family="Verdana" font-size="8.00">+ getAttribute(name : string) : Iterator</text>
<text text-anchor="start" x="685" y="-416.6" font-family="Verdana" font-size="8.00">+ normalize(data : mixed, format : string, context : array) : bool</text>
<text text-anchor="start" x="685" y="-403.6" font-family="Verdana" font-size="8.00"># getNormalizer(format : string) : ?Bartlett\Sarif\Contract\NormalizerInterface</text>
</g>
<!-- Bartlett\\Sarif\\Converter\\Source\\PhpStanSource&#45;&gt;Bartlett\\Sarif\\Converter\\Source\\AbstractSource -->
<g id="edge4" class="edge">
<title>Bartlett\\Sarif\\Converter\\Source\\PhpStanSource&#45;&gt;Bartlett\\Sarif\\Converter\\Source\\AbstractSource</title>
<path fill="none" stroke="black" d="M843,-780.94C843,-738.04 843,-642.55 843,-570.37"/>
<polygon fill="none" stroke="black" points="846.5,-570.34 843,-560.34 839.5,-570.34 846.5,-570.34"/>
</g>
<!-- Bartlett\\Sarif\\Converter\\Source\\AbstractSource&#45;&gt;Bartlett\\Sarif\\Contract\\SourceInterface -->
<g id="edge3" class="edge">
<title>Bartlett\\Sarif\\Converter\\Source\\AbstractSource&#45;&gt;Bartlett\\Sarif\\Contract\\SourceInterface</title>
<path fill="none" stroke="black" stroke-dasharray="5,2" d="M843,-395.91C843,-326.62 843,-228.23 843,-164.01"/>
<polygon fill="none" stroke="black" points="846.5,-164.01 843,-154.01 839.5,-164.01 846.5,-164.01"/>
</g>
<!-- Bartlett\\Sarif\\Converter\\Normalizer\\PhpStanNormalizer -->
<g id="node8" class="node">
<title>Bartlett\\Sarif\\Converter\\Normalizer\\PhpStanNormalizer</title>
<polygon fill="#fefece" stroke="transparent" points="1422,-844 1030,-844 1030,-765 1422,-765 1422,-844"/>
<polygon fill="#eeeeee" stroke="transparent" points="1030,-821.5 1030,-843.5 1422,-843.5 1422,-821.5 1030,-821.5"/>
<polygon fill="none" stroke="black" points="1030,-821.5 1030,-843.5 1422,-843.5 1422,-821.5 1030,-821.5"/>
<text text-anchor="start" x="1182" y="-827.1" font-family="Verdana" font-weight="bold" font-size="8.00">PhpStanNormalizer</text>
<polygon fill="none" stroke="black" points="1030,-802.5 1030,-821.5 1422,-821.5 1422,-802.5 1030,-802.5"/>
<text text-anchor="start" x="1035" y="-810.1" font-family="Verdana" font-size="8.00">+ «static» URI_PATTERN : string = &quot;https\:\/\/phpstan\.org\/error\&#45;identifiers\/\%s&quot; {readOnly}</text>
<polygon fill="none" stroke="black" points="1030,-796.5 1030,-802.5 1422,-802.5 1422,-796.5 1030,-796.5"/>
<polygon fill="none" stroke="black" points="1030,-764.5 1030,-796.5 1422,-796.5 1422,-764.5 1030,-764.5"/>
<text text-anchor="start" x="1035" y="-785.1" font-family="Verdana" font-size="8.00">+ normalize(data, format : string, context : array) : ?ArrayObject</text>
<text text-anchor="start" x="1035" y="-772.1" font-family="Verdana" font-size="8.00"># fromInternal(data, context : array, mapping : array = []) : array</text>
</g>
<!-- Bartlett\\Sarif\\Converter\\Normalizer\\AbstractNormalizer -->
<g id="node9" class="node">
<title>Bartlett\\Sarif\\Converter\\Normalizer\\AbstractNormalizer</title>
<polygon fill="#fefece" stroke="transparent" points="1361.5,-550 1056.5,-550 1056.5,-406 1361.5,-406 1361.5,-550"/>
<polygon fill="#eeeeee" stroke="transparent" points="1057,-528 1057,-550 1362,-550 1362,-528 1057,-528"/>
<polygon fill="none" stroke="black" points="1057,-528 1057,-550 1362,-550 1362,-528 1057,-528"/>
<text text-anchor="start" x="1185.5" y="-541.6" font-family="Verdana" font-weight="bold" font-size="8.00">«abstract»</text>
<text text-anchor="start" x="1166" y="-533.6" font-family="Verdana" font-weight="bold" font-size="8.00">AbstractNormalizer</text>
<polygon fill="none" stroke="black" points="1057,-457 1057,-528 1362,-528 1362,-457 1057,-457"/>
<text text-anchor="start" x="1062" y="-516.6" font-family="Verdana" font-size="8.00">+ «static» FORMAT_SARIF : string = &quot;sarif&quot; {readOnly}</text>
<text text-anchor="start" x="1062" y="-503.6" font-family="Verdana" font-size="8.00">+ «static» FORMAT_JSON : string = &quot;json&quot; {readOnly}</text>
<text text-anchor="start" x="1062" y="-490.6" font-family="Verdana" font-size="8.00">+ «static» FORMAT_XML : string = &quot;xml&quot; {readOnly}</text>
<text text-anchor="start" x="1062" y="-477.6" font-family="Verdana" font-size="8.00">+ «static» FORMAT_CHECKSTYLE : string = &quot;checkstyle&quot; {readOnly}</text>
<text text-anchor="start" x="1062" y="-464.6" font-family="Verdana" font-size="8.00">+ «static» FORMAT_INTERNAL : string = &quot;internal&quot; {readOnly}</text>
<polygon fill="none" stroke="black" points="1057,-451 1057,-457 1362,-457 1362,-451 1057,-451"/>
<polygon fill="none" stroke="black" points="1057,-406 1057,-451 1362,-451 1362,-406 1057,-406"/>
<text text-anchor="start" x="1062" y="-439.6" font-family="Verdana" font-size="8.00">+ getSupportedFormats() : array</text>
<text text-anchor="start" x="1062" y="-426.6" font-family="Verdana" font-size="8.00">+ normalize(data, format : string, context : array) : ?ArrayObject</text>
<text text-anchor="start" x="1062" y="-413.6" font-family="Verdana" font-size="8.00"># fromInternal(data : TData, context : array, mapping : array = []) : array</text>
</g>
<!-- Bartlett\\Sarif\\Converter\\Normalizer\\PhpStanNormalizer&#45;&gt;Bartlett\\Sarif\\Converter\\Normalizer\\AbstractNormalizer -->
<g id="edge6" class="edge">
<title>Bartlett\\Sarif\\Converter\\Normalizer\\PhpStanNormalizer&#45;&gt;Bartlett\\Sarif\\Converter\\Normalizer\\AbstractNormalizer</title>
<path fill="none" stroke="black" d="M1223.97,-764.68C1221.34,-714.46 1216.68,-625.68 1213.26,-560.38"/>
<polygon fill="none" stroke="black" points="1216.74,-559.92 1212.73,-550.11 1209.75,-560.28 1216.74,-559.92"/>
</g>
<!-- Bartlett\\Sarif\\Converter\\Normalizer\\AbstractNormalizer&#45;&gt;Bartlett\\Sarif\\Contract\\NormalizerInterface -->
<g id="edge5" class="edge">
<title>Bartlett\\Sarif\\Converter\\Normalizer\\AbstractNormalizer&#45;&gt;Bartlett\\Sarif\\Contract\\NormalizerInterface</title>
<path fill="none" stroke="black" stroke-dasharray="5,2" d="M1205.8,-405.9C1202.82,-339.69 1198.4,-241.33 1195.37,-173.92"/>
<polygon fill="none" stroke="black" points="1198.86,-173.62 1194.91,-163.79 1191.87,-173.93 1198.86,-173.62"/>
</g>
</g>
</svg>
