<?xml version="1.0" encoding="UTF-8" standalone="no"?>
<!DOCTYPE svg PUBLIC "-//W3C//DTD SVG 1.1//EN"
 "http://www.w3.org/Graphics/SVG/1.1/DTD/svg11.dtd">
<!-- Generated by graphviz version 2.43.0 (0)
 -->
<!-- Title: %3 Pages: 1 -->
<svg width="1682pt" height="995pt"
 viewBox="0.00 0.00 1682.00 995.00" xmlns="http://www.w3.org/2000/svg" xmlns:xlink="http://www.w3.org/1999/xlink">
<g id="graph0" class="graph" transform="scale(1 1) rotate(0) translate(4 991)">
<title>%3</title>
<g id="clust1" class="cluster">
<title>cluster_0</title>
<polygon fill="BurlyWood" stroke="black" points="8,-219 8,-911 664,-911 664,-219 8,-219"/>
<text text-anchor="middle" x="336" y="-895.8" font-family="Times,serif" font-size="14.00">Bartlett\Sarif\Converter</text>
</g>
<g id="clust2" class="cluster">
<title>cluster_1</title>
<polygon fill="LightSkyBlue" stroke="black" points="417,-8 417,-211 1535,-211 1535,-8 417,-8"/>
<text text-anchor="middle" x="976" y="-195.8" font-family="Times,serif" font-size="14.00">Bartlett\Sarif\Contract</text>
</g>
<g id="clust3" class="cluster">
<title>cluster_2</title>
<polygon fill="Bisque" stroke="black" points="672,-388 672,-979 1336,-979 1336,-388 672,-388"/>
<text text-anchor="middle" x="1004" y="-963.8" font-family="Times,serif" font-size="14.00">Bartlett\Sarif\Converter\Source</text>
</g>
<g id="clust4" class="cluster">
<title>cluster_3</title>
<polygon fill="Bisque" stroke="black" points="1344,-398 1344,-905.5 1666,-905.5 1666,-398 1344,-398"/>
<text text-anchor="middle" x="1505" y="-890.3" font-family="Times,serif" font-size="14.00">Bartlett\Sarif\Converter\Normalizer</text>
</g>
<!-- Bartlett\\Sarif\\Converter\\EcsConverter -->
<g id="node1" class="node">
<title>Bartlett\\Sarif\\Converter\\EcsConverter</title>
<polygon fill="#fefece" stroke="transparent" points="419,-880 253,-880 253,-833 419,-833 419,-880"/>
<polygon fill="#eeeeee" stroke="transparent" points="253,-857.5 253,-879.5 419,-879.5 419,-857.5 253,-857.5"/>
<polygon fill="none" stroke="black" points="253,-857.5 253,-879.5 419,-879.5 419,-857.5 253,-857.5"/>
<text text-anchor="start" x="306.5" y="-863.1" font-family="Verdana" font-weight="bold" font-size="8.00">EcsConverter</text>
<polygon fill="none" stroke="black" points="253,-851.5 253,-857.5 419,-857.5 419,-851.5 253,-851.5"/>
<polygon fill="none" stroke="black" points="253,-832.5 253,-851.5 419,-851.5 419,-832.5 253,-832.5"/>
<text text-anchor="start" x="258" y="-840.1" font-family="Verdana" font-size="8.00">+ configure(options : array = []) : void</text>
</g>
<!-- Bartlett\\Sarif\\Converter\\AbstractConverter -->
<g id="node2" class="node">
<title>Bartlett\\Sarif\\Converter\\AbstractConverter</title>
<polygon fill="#fefece" stroke="transparent" points="655.5,-729 16.5,-729 16.5,-227 655.5,-227 655.5,-729"/>
<polygon fill="#eeeeee" stroke="transparent" points="17,-707 17,-729 656,-729 656,-707 17,-707"/>
<polygon fill="none" stroke="black" points="17,-707 17,-729 656,-729 656,-707 17,-707"/>
<text text-anchor="start" x="312.5" y="-720.6" font-family="Verdana" font-weight="bold" font-size="8.00">«abstract»</text>
<text text-anchor="start" x="295.5" y="-712.6" font-family="Verdana" font-weight="bold" font-size="8.00">AbstractConverter</text>
<polygon fill="none" stroke="black" points="17,-480 17,-707 656,-707 656,-480 17,-480"/>
<text text-anchor="start" x="22" y="-695.6" font-family="Verdana" font-size="8.00"># toolName</text>
<text text-anchor="start" x="22" y="-682.6" font-family="Verdana" font-size="8.00"># toolFullName</text>
<text text-anchor="start" x="22" y="-669.6" font-family="Verdana" font-size="8.00"># toolShortDescription</text>
<text text-anchor="start" x="22" y="-656.6" font-family="Verdana" font-size="8.00"># toolFullDescription</text>
<text text-anchor="start" x="22" y="-643.6" font-family="Verdana" font-size="8.00"># toolInformationUri</text>
<text text-anchor="start" x="22" y="-630.6" font-family="Verdana" font-size="8.00"># toolComposerPackage</text>
<text text-anchor="start" x="22" y="-617.6" font-family="Verdana" font-size="8.00"># toolSemanticVersion</text>
<text text-anchor="start" x="22" y="-604.6" font-family="Verdana" font-size="8.00"># converterComposerPackage</text>
<text text-anchor="start" x="22" y="-591.6" font-family="Verdana" font-size="8.00"># results : mixed = []</text>
<text text-anchor="start" x="22" y="-578.6" font-family="Verdana" font-size="8.00"># errors : mixed = []</text>
<text text-anchor="start" x="22" y="-565.6" font-family="Verdana" font-size="8.00"># serializer</text>
<text text-anchor="start" x="22" y="-552.6" font-family="Verdana" font-size="8.00"># startTime</text>
<text text-anchor="start" x="22" y="-539.6" font-family="Verdana" font-size="8.00"># endTime</text>
<text text-anchor="start" x="22" y="-526.6" font-family="Verdana" font-size="8.00"># includeCodeSnippets</text>
<text text-anchor="start" x="22" y="-513.6" font-family="Verdana" font-size="8.00"># includeContextRegion</text>
<text text-anchor="start" x="22" y="-500.6" font-family="Verdana" font-size="8.00"># defaultResultLevelIfEmpty</text>
<text text-anchor="start" x="22" y="-487.6" font-family="Verdana" font-size="8.00"># projectDirectory</text>
<polygon fill="none" stroke="black" points="17,-227 17,-480 656,-480 656,-227 17,-227"/>
<text text-anchor="start" x="22" y="-468.6" font-family="Verdana" font-size="8.00">+ __construct(options : array = [], factory : Bartlett\Sarif\Factory\SerializerFactory = «unknown»)</text>
<text text-anchor="start" x="22" y="-455.6" font-family="Verdana" font-size="8.00">+ getName() : string</text>
<text text-anchor="start" x="22" y="-442.6" font-family="Verdana" font-size="8.00">+ configure(options : array) : void</text>
<text text-anchor="start" x="22" y="-429.6" font-family="Verdana" font-size="8.00">+ toolDriver() : Bartlett\Sarif\Definition\ToolComponent</text>
<text text-anchor="start" x="22" y="-416.6" font-family="Verdana" font-size="8.00">+ toolExtensions() : array</text>
<text text-anchor="start" x="22" y="-403.6" font-family="Verdana" font-size="8.00">+ rules(defined : iterable) : array</text>
<text text-anchor="start" x="22" y="-390.6" font-family="Verdana" font-size="8.00">+ results(normalized : iterable) : void</text>
<text text-anchor="start" x="22" y="-377.6" font-family="Verdana" font-size="8.00">+ sarifLog(runs : array = [], version : string = &#39;2\.1\.0&#39;) : ?string</text>
<text text-anchor="start" x="22" y="-364.6" font-family="Verdana" font-size="8.00">+ invocations(properties : Bartlett\Sarif\Definition\PropertyBag = «unknown») : array</text>
<text text-anchor="start" x="22" y="-351.6" font-family="Verdana" font-size="8.00">+ versionControlDetails() : array</text>
<text text-anchor="start" x="22" y="-338.6" font-family="Verdana" font-size="8.00">+ automationDetails() : Bartlett\Sarif\Definition\RunAutomationDetails</text>
<text text-anchor="start" x="22" y="-325.6" font-family="Verdana" font-size="8.00">+ run(invocations : iterable, rules : iterable) : Bartlett\Sarif\Definition\Run</text>
<text text-anchor="start" x="22" y="-312.6" font-family="Verdana" font-size="8.00"># originalUriBaseIdentifiers() : array</text>
<text text-anchor="start" x="22" y="-299.6" font-family="Verdana" font-size="8.00"># getToolVersion(package : string) : string</text>
<text text-anchor="start" x="22" y="-286.6" font-family="Verdana" font-size="8.00"># pathToArtifactLocation(path : string) : string</text>
<text text-anchor="start" x="22" y="-273.6" font-family="Verdana" font-size="8.00"># pathToUri(path : string) : string</text>
<text text-anchor="start" x="22" y="-260.6" font-family="Verdana" font-size="8.00"># getCodeSnippet(filePath : string, lineNumber : int, linesBefore : int, linesAfter : int) : ?string</text>
<text text-anchor="start" x="22" y="-247.6" font-family="Verdana" font-size="8.00"># getSnippetRegion(filePath : string, lineNumber : int, column : int = «unknown», linesBefore : int = 2, linesAfter : int = 2) : Bartlett\Sarif\Definition\Region</text>
<text text-anchor="start" x="22" y="-234.6" font-family="Verdana" font-size="8.00"># getErrors() : Iterator</text>
</g>
<!-- Bartlett\\Sarif\\Converter\\EcsConverter&#45;&gt;Bartlett\\Sarif\\Converter\\AbstractConverter -->
<g id="edge2" class="edge">
<title>Bartlett\\Sarif\\Converter\\EcsConverter&#45;&gt;Bartlett\\Sarif\\Converter\\AbstractConverter</title>
<path fill="none" stroke="black" d="M336,-832.8C336,-811.78 336,-778.03 336,-739.53"/>
<polygon fill="none" stroke="black" points="339.5,-739.1 336,-729.1 332.5,-739.1 339.5,-739.1"/>
</g>
<!-- Bartlett\\Sarif\\Contract\\ConverterInterface -->
<g id="node3" class="node">
<title>Bartlett\\Sarif\\Contract\\ConverterInterface</title>
<polygon fill="#fefece" stroke="transparent" points="829,-180 425,-180 425,-16 829,-16 829,-180"/>
<polygon fill="#eeeeee" stroke="transparent" points="425,-158 425,-180 829,-180 829,-158 425,-158"/>
<polygon fill="none" stroke="black" points="425,-158 425,-180 829,-180 829,-158 425,-158"/>
<text text-anchor="start" x="601" y="-171.6" font-family="Verdana" font-weight="bold" font-size="8.00">«interface»</text>
<text text-anchor="start" x="584.5" y="-163.6" font-family="Verdana" font-weight="bold" font-size="8.00">ConverterInterface</text>
<polygon fill="none" stroke="black" points="425,-152 425,-158 829,-158 829,-152 425,-152"/>
<polygon fill="none" stroke="black" points="425,-16 425,-152 829,-152 829,-16 425,-16"/>
<text text-anchor="start" x="430" y="-140.6" font-family="Verdana" font-size="8.00">+ «abstract» getName() : string</text>
<text text-anchor="start" x="430" y="-127.6" font-family="Verdana" font-size="8.00">+ «abstract» toolDriver() : Bartlett\Sarif\Definition\ToolComponent</text>
<text text-anchor="start" x="430" y="-114.6" font-family="Verdana" font-size="8.00">+ «abstract» toolExtensions() : array</text>
<text text-anchor="start" x="430" y="-101.6" font-family="Verdana" font-size="8.00">+ «abstract» rules(defined : iterable) : array</text>
<text text-anchor="start" x="430" y="-88.6" font-family="Verdana" font-size="8.00">+ «abstract» results(normalized : iterable) : void</text>
<text text-anchor="start" x="430" y="-75.6" font-family="Verdana" font-size="8.00">+ «abstract» invocations(properties : Bartlett\Sarif\Definition\PropertyBag = «unknown») : array</text>
<text text-anchor="start" x="430" y="-62.6" font-family="Verdana" font-size="8.00">+ «abstract» versionControlDetails() : array</text>
<text text-anchor="start" x="430" y="-49.6" font-family="Verdana" font-size="8.00">+ «abstract» automationDetails() : Bartlett\Sarif\Definition\RunAutomationDetails</text>
<text text-anchor="start" x="430" y="-36.6" font-family="Verdana" font-size="8.00">+ «abstract» run(invocations : iterable, rules : iterable) : Bartlett\Sarif\Definition\Run</text>
<text text-anchor="start" x="430" y="-23.6" font-family="Verdana" font-size="8.00">+ «abstract» sarifLog(runs : array = [], version : string = &#39;2\.1\.0&#39;) : ?string</text>
</g>
<!-- Bartlett\\Sarif\\Converter\\AbstractConverter&#45;&gt;Bartlett\\Sarif\\Contract\\ConverterInterface -->
<g id="edge1" class="edge">
<title>Bartlett\\Sarif\\Converter\\AbstractConverter&#45;&gt;Bartlett\\Sarif\\Contract\\ConverterInterface</title>
<path fill="none" stroke="black" stroke-dasharray="5,2" d="M528.48,-226.97C538.89,-213.46 548.93,-200.41 558.37,-188.15"/>
<polygon fill="none" stroke="black" points="561.16,-190.27 564.48,-180.21 555.61,-186 561.16,-190.27"/>
</g>
<!-- Bartlett\\Sarif\\Contract\\SourceInterface -->
<g id="node4" class="node">
<title>Bartlett\\Sarif\\Contract\\SourceInterface</title>
<polygon fill="#fefece" stroke="transparent" points="1161,-154 847,-154 847,-42 1161,-42 1161,-154"/>
<polygon fill="#eeeeee" stroke="transparent" points="847,-132 847,-154 1161,-154 1161,-132 847,-132"/>
<polygon fill="none" stroke="black" points="847,-132 847,-154 1161,-154 1161,-132 847,-132"/>
<text text-anchor="start" x="978" y="-145.6" font-family="Verdana" font-weight="bold" font-size="8.00">«interface»</text>
<text text-anchor="start" x="968" y="-137.6" font-family="Verdana" font-weight="bold" font-size="8.00">SourceInterface</text>
<polygon fill="none" stroke="black" points="847,-126 847,-132 1161,-132 1161,-126 847,-126"/>
<polygon fill="none" stroke="black" points="847,-42 847,-126 1161,-126 1161,-42 847,-42"/>
<text text-anchor="start" x="852" y="-114.6" font-family="Verdana" font-size="8.00">+ «abstract» getName() : string</text>
<text text-anchor="start" x="852" y="-101.6" font-family="Verdana" font-size="8.00">+ «abstract» getFiles() : Iterator</text>
<text text-anchor="start" x="852" y="-88.6" font-family="Verdana" font-size="8.00">+ «abstract» getErrors() : Iterator</text>
<text text-anchor="start" x="852" y="-75.6" font-family="Verdana" font-size="8.00">+ «abstract» getRules() : Iterator</text>
<text text-anchor="start" x="852" y="-62.6" font-family="Verdana" font-size="8.00">+ «abstract» getAttribute(name : string) : Iterator</text>
<text text-anchor="start" x="852" y="-49.6" font-family="Verdana" font-size="8.00">+ «abstract» normalize(data : mixed, format : string, context : array) : bool</text>
</g>
<!-- Bartlett\\Sarif\\Contract\\NormalizerInterface -->
<g id="node5" class="node">
<title>Bartlett\\Sarif\\Contract\\NormalizerInterface</title>
<polygon fill="#fefece" stroke="transparent" points="1527,-163.5 1179,-163.5 1179,-32.5 1527,-32.5 1527,-163.5"/>
<polygon fill="#eeeeee" stroke="transparent" points="1179,-141 1179,-163 1527,-163 1527,-141 1179,-141"/>
<polygon fill="none" stroke="black" points="1179,-141 1179,-163 1527,-163 1527,-141 1179,-141"/>
<text text-anchor="start" x="1327" y="-154.6" font-family="Verdana" font-weight="bold" font-size="8.00">«interface»</text>
<text text-anchor="start" x="1308" y="-146.6" font-family="Verdana" font-weight="bold" font-size="8.00">NormalizerInterface</text>
<polygon fill="none" stroke="black" points="1179,-70 1179,-141 1527,-141 1527,-70 1179,-70"/>
<text text-anchor="start" x="1184" y="-129.6" font-family="Verdana" font-size="8.00">+ «static» FORMAT_SARIF : string = &quot;sarif&quot; {readOnly}</text>
<text text-anchor="start" x="1184" y="-116.6" font-family="Verdana" font-size="8.00">+ «static» FORMAT_JSON : string = &quot;json&quot; {readOnly}</text>
<text text-anchor="start" x="1184" y="-103.6" font-family="Verdana" font-size="8.00">+ «static» FORMAT_XML : string = &quot;xml&quot; {readOnly}</text>
<text text-anchor="start" x="1184" y="-90.6" font-family="Verdana" font-size="8.00">+ «static» FORMAT_CHECKSTYLE : string = &quot;checkstyle&quot; {readOnly}</text>
<text text-anchor="start" x="1184" y="-77.6" font-family="Verdana" font-size="8.00">+ «static» FORMAT_INTERNAL : string = &quot;internal&quot; {readOnly}</text>
<polygon fill="none" stroke="black" points="1179,-64 1179,-70 1527,-70 1527,-64 1179,-64"/>
<polygon fill="none" stroke="black" points="1179,-32 1179,-64 1527,-64 1527,-32 1179,-32"/>
<text text-anchor="start" x="1184" y="-52.6" font-family="Verdana" font-size="8.00">+ «abstract» getSupportedFormats() : array</text>
<text text-anchor="start" x="1184" y="-39.6" font-family="Verdana" font-size="8.00">+ «abstract» normalize(data : mixed, format : string, context : array) : ?ArrayObject</text>
</g>
<!-- Bartlett\\Sarif\\Converter\\Source\\EcsSource -->
<g id="node6" class="node">
<title>Bartlett\\Sarif\\Converter\\Source\\EcsSource</title>
<polygon fill="#fefece" stroke="transparent" points="1328,-948 680,-948 680,-765 1328,-765 1328,-948"/>
<polygon fill="#eeeeee" stroke="transparent" points="680,-925.5 680,-947.5 1328,-947.5 1328,-925.5 680,-925.5"/>
<polygon fill="none" stroke="black" points="680,-925.5 680,-947.5 1328,-947.5 1328,-925.5 680,-925.5"/>
<text text-anchor="start" x="981" y="-931.1" font-family="Verdana" font-weight="bold" font-size="8.00">EcsSource</text>
<polygon fill="none" stroke="black" points="680,-867.5 680,-925.5 1328,-925.5 1328,-867.5 680,-867.5"/>
<text text-anchor="start" x="685" y="-914.1" font-family="Verdana" font-size="8.00">+ «static» URI_PATTERN_PHPCS : string = &quot;https\:\/\/github\.com\/PHPCSStandards\/PHP_CodeSniffer\/wiki\/Customisable\&#45;Sniff\&#45;Properties\#\%s&quot; {readOnly}</text>
<text text-anchor="start" x="685" y="-901.1" font-family="Verdana" font-size="8.00">+ «static» URI_PATTERN_PHPCS_FIXER : string = &quot;https\:\/\/cs\.symfony\.com\/doc\/rules\/\%s\/\%s\.html&quot; {readOnly}</text>
<text text-anchor="start" x="685" y="-888.1" font-family="Verdana" font-size="8.00">+ «static» URI_PATTERN_SYMPLIFY : string = &quot;https\:\/\/github\.com\/symplify\/coding\&#45;standard\/blob\/main\/docs\/rules_overview\.md\#\%s&quot; {readOnly}</text>
<text text-anchor="start" x="685" y="-875.1" font-family="Verdana" font-size="8.00">+ «static» URI_PATTERN_SLEVOMAT : string = &quot;https\:\/\/github\.com\/slevomat\/coding\&#45;standard\/blob\/master\/doc\/\%s\.md\#\%s\&#45;&quot; {readOnly}</text>
<polygon fill="none" stroke="black" points="680,-861.5 680,-867.5 1328,-867.5 1328,-861.5 680,-861.5"/>
<polygon fill="none" stroke="black" points="680,-764.5 680,-861.5 1328,-861.5 1328,-764.5 680,-764.5"/>
<text text-anchor="start" x="685" y="-850.1" font-family="Verdana" font-size="8.00">+ __construct(normalizers : iterable = [])</text>
<text text-anchor="start" x="685" y="-837.1" font-family="Verdana" font-size="8.00">+ getRules() : Iterator</text>
<text text-anchor="start" x="685" y="-824.1" font-family="Verdana" font-size="8.00">– phpCodeSnifferChecker(nameParts : array) : string</text>
<text text-anchor="start" x="685" y="-811.1" font-family="Verdana" font-size="8.00">– phpCsFixerChecker(nameParts : array) : string</text>
<text text-anchor="start" x="685" y="-798.1" font-family="Verdana" font-size="8.00">– symplifyChecker(nameParts : array) : string</text>
<text text-anchor="start" x="685" y="-785.1" font-family="Verdana" font-size="8.00">– slevomatCodingStandardChecker(nameParts : array) : string</text>
<text text-anchor="start" x="685" y="-772.1" font-family="Verdana" font-size="8.00">– «static» camelCaseToUnderscore(string : string) : string</text>
</g>
<!-- Bartlett\\Sarif\\Converter\\Source\\AbstractSource -->
<g id="node7" class="node">
<title>Bartlett\\Sarif\\Converter\\Source\\AbstractSource</title>
<polygon fill="#fefece" stroke="transparent" points="1167,-560 841,-560 841,-396 1167,-396 1167,-560"/>
<polygon fill="#eeeeee" stroke="transparent" points="841,-538 841,-560 1167,-560 1167,-538 841,-538"/>
<polygon fill="none" stroke="black" points="841,-538 841,-560 1167,-560 1167,-538 841,-538"/>
<text text-anchor="start" x="980" y="-551.6" font-family="Verdana" font-weight="bold" font-size="8.00">«abstract»</text>
<text text-anchor="start" x="969.5" y="-543.6" font-family="Verdana" font-weight="bold" font-size="8.00">AbstractSource</text>
<polygon fill="none" stroke="black" points="841,-506 841,-538 1167,-538 1167,-506 841,-506"/>
<text text-anchor="start" x="846" y="-526.6" font-family="Verdana" font-size="8.00">– normalizers : mixed</text>
<text text-anchor="start" x="846" y="-513.6" font-family="Verdana" font-size="8.00">– normalized</text>
<polygon fill="none" stroke="black" points="841,-396 841,-506 1167,-506 1167,-396 841,-396"/>
<text text-anchor="start" x="846" y="-494.6" font-family="Verdana" font-size="8.00">+ __construct(normalizers : iterable = [])</text>
<text text-anchor="start" x="846" y="-481.6" font-family="Verdana" font-size="8.00">+ getName() : string</text>
<text text-anchor="start" x="846" y="-468.6" font-family="Verdana" font-size="8.00">+ getFiles() : Iterator</text>
<text text-anchor="start" x="846" y="-455.6" font-family="Verdana" font-size="8.00">+ getErrors() : Iterator</text>
<text text-anchor="start" x="846" y="-442.6" font-family="Verdana" font-size="8.00">+ getRules() : Iterator</text>
<text text-anchor="start" x="846" y="-429.6" font-family="Verdana" font-size="8.00">+ getAttribute(name : string) : Iterator</text>
<text text-anchor="start" x="846" y="-416.6" font-family="Verdana" font-size="8.00">+ normalize(data : mixed, format : string, context : array) : bool</text>
<text text-anchor="start" x="846" y="-403.6" font-family="Verdana" font-size="8.00"># getNormalizer(format : string) : ?Bartlett\Sarif\Contract\NormalizerInterface</text>
</g>
<!-- Bartlett\\Sarif\\Converter\\Source\\EcsSource&#45;&gt;Bartlett\\Sarif\\Converter\\Source\\AbstractSource -->
<g id="edge4" class="edge">
<title>Bartlett\\Sarif\\Converter\\Source\\EcsSource&#45;&gt;Bartlett\\Sarif\\Converter\\Source\\AbstractSource</title>
<path fill="none" stroke="black" d="M1004,-764.84C1004,-705.91 1004,-629.34 1004,-570.29"/>
<polygon fill="none" stroke="black" points="1007.5,-570.22 1004,-560.22 1000.5,-570.22 1007.5,-570.22"/>
</g>
<!-- Bartlett\\Sarif\\Converter\\Source\\AbstractSource&#45;&gt;Bartlett\\Sarif\\Contract\\SourceInterface -->
<g id="edge3" class="edge">
<title>Bartlett\\Sarif\\Converter\\Source\\AbstractSource&#45;&gt;Bartlett\\Sarif\\Contract\\SourceInterface</title>
<path fill="none" stroke="black" stroke-dasharray="5,2" d="M1004,-395.91C1004,-326.62 1004,-228.23 1004,-164.01"/>
<polygon fill="none" stroke="black" points="1007.5,-164.01 1004,-154.01 1000.5,-164.01 1007.5,-164.01"/>
</g>
<!-- Bartlett\\Sarif\\Converter\\Normalizer\\EcsNormalizer -->
<g id="node8" class="node">
<title>Bartlett\\Sarif\\Converter\\Normalizer\\EcsNormalizer</title>
<polygon fill="#fefece" stroke="transparent" points="1540,-874.5 1470,-874.5 1470,-838.5 1540,-838.5 1540,-874.5"/>
<polygon fill="#eeeeee" stroke="transparent" points="1470,-851.5 1470,-873.5 1540,-873.5 1540,-851.5 1470,-851.5"/>
<polygon fill="none" stroke="black" points="1470,-851.5 1470,-873.5 1540,-873.5 1540,-851.5 1470,-851.5"/>
<text text-anchor="start" x="1473" y="-857.1" font-family="Verdana" font-weight="bold" font-size="8.00">EcsNormalizer</text>
<polygon fill="none" stroke="black" points="1470,-845.5 1470,-851.5 1540,-851.5 1540,-845.5 1470,-845.5"/>
<polygon fill="none" stroke="black" points="1470,-839.5 1470,-845.5 1540,-845.5 1540,-839.5 1470,-839.5"/>
</g>
<!-- Bartlett\\Sarif\\Converter\\Normalizer\\AbstractNormalizer -->
<g id="node9" class="node">
<title>Bartlett\\Sarif\\Converter\\Normalizer\\AbstractNormalizer</title>
<polygon fill="#fefece" stroke="transparent" points="1657.5,-550 1352.5,-550 1352.5,-406 1657.5,-406 1657.5,-550"/>
<polygon fill="#eeeeee" stroke="transparent" points="1353,-528 1353,-550 1658,-550 1658,-528 1353,-528"/>
<polygon fill="none" stroke="black" points="1353,-528 1353,-550 1658,-550 1658,-528 1353,-528"/>
<text text-anchor="start" x="1481.5" y="-541.6" font-family="Verdana" font-weight="bold" font-size="8.00">«abstract»</text>
<text text-anchor="start" x="1462" y="-533.6" font-family="Verdana" font-weight="bold" font-size="8.00">AbstractNormalizer</text>
<polygon fill="none" stroke="black" points="1353,-457 1353,-528 1658,-528 1658,-457 1353,-457"/>
<text text-anchor="start" x="1358" y="-516.6" font-family="Verdana" font-size="8.00">+ «static» FORMAT_SARIF : string = &quot;sarif&quot; {readOnly}</text>
<text text-anchor="start" x="1358" y="-503.6" font-family="Verdana" font-size="8.00">+ «static» FORMAT_JSON : string = &quot;json&quot; {readOnly}</text>
<text text-anchor="start" x="1358" y="-490.6" font-family="Verdana" font-size="8.00">+ «static» FORMAT_XML : string = &quot;xml&quot; {readOnly}</text>
<text text-anchor="start" x="1358" y="-477.6" font-family="Verdana" font-size="8.00">+ «static» FORMAT_CHECKSTYLE : string = &quot;checkstyle&quot; {readOnly}</text>
<text text-anchor="start" x="1358" y="-464.6" font-family="Verdana" font-size="8.00">+ «static» FORMAT_INTERNAL : string = &quot;internal&quot; {readOnly}</text>
<polygon fill="none" stroke="black" points="1353,-451 1353,-457 1658,-457 1658,-451 1353,-451"/>
<polygon fill="none" stroke="black" points="1353,-406 1353,-451 1658,-451 1658,-406 1353,-406"/>
<text text-anchor="start" x="1358" y="-439.6" font-family="Verdana" font-size="8.00">+ getSupportedFormats() : array</text>
<text text-anchor="start" x="1358" y="-426.6" font-family="Verdana" font-size="8.00">+ normalize(data, format : string, context : array) : ?ArrayObject</text>
<text text-anchor="start" x="1358" y="-413.6" font-family="Verdana" font-size="8.00"># fromInternal(data : TData, context : array, mapping : array = []) : array</text>
</g>
<!-- Bartlett\\Sarif\\Converter\\Normalizer\\EcsNormalizer&#45;&gt;Bartlett\\Sarif\\Converter\\Normalizer\\AbstractNormalizer -->
<g id="edge6" class="edge">
<title>Bartlett\\Sarif\\Converter\\Normalizer\\EcsNormalizer&#45;&gt;Bartlett\\Sarif\\Converter\\Normalizer\\AbstractNormalizer</title>
<path fill="none" stroke="black" d="M1505,-838.34C1505,-790.07 1505,-650.72 1505,-560.41"/>
<polygon fill="none" stroke="black" points="1508.5,-560.19 1505,-550.19 1501.5,-560.19 1508.5,-560.19"/>
</g>
<!-- Bartlett\\Sarif\\Converter\\Normalizer\\AbstractNormalizer&#45;&gt;Bartlett\\Sarif\\Contract\\NormalizerInterface -->
<g id="edge5" class="edge">
<title>Bartlett\\Sarif\\Converter\\Normalizer\\AbstractNormalizer&#45;&gt;Bartlett\\Sarif\\Contract\\NormalizerInterface</title>
<path fill="none" stroke="black" stroke-dasharray="5,2" d="M1476.41,-405.9C1449.68,-339.42 1409.91,-240.52 1382.79,-173.09"/>
<polygon fill="none" stroke="black" points="1386.03,-171.76 1379.05,-163.79 1379.54,-174.37 1386.03,-171.76"/>
</g>
</g>
</svg>
