<?xml version="1.0" encoding="UTF-8" standalone="no"?>
<!DOCTYPE svg PUBLIC "-//W3C//DTD SVG 1.1//EN"
 "http://www.w3.org/Graphics/SVG/1.1/DTD/svg11.dtd">
<!-- Generated by graphviz version 2.43.0 (0)
 -->
<!-- Title: %3 Pages: 1 -->
<svg width="1128pt" height="688pt"
 viewBox="0.00 0.00 1127.97 688.00" xmlns="http://www.w3.org/2000/svg" xmlns:xlink="http://www.w3.org/1999/xlink">
<g id="graph0" class="graph" transform="scale(1 1) rotate(0) translate(4 684)">
<title>%3</title>
<polygon fill="white" stroke="transparent" points="-4,4 -4,-684 1123.97,-684 1123.97,4 -4,4"/>
<!-- bartlett/sarif&#45;php&#45;converters -->
<g id="node1" class="node">
<title>bartlett/sarif&#45;php&#45;converters</title>
<ellipse fill="lightgrey" stroke="black" stroke-width="2" cx="142.99" cy="-436" rx="142.97" ry="18"/>
<text text-anchor="middle" x="142.99" y="-432.3" font-family="Times,serif" font-size="14.00">bartlett/sarif&#45;php&#45;converters</text>
</g>
<!-- php -->
<g id="node2" class="node">
<title>php</title>
<path fill="#eeeeee" stroke="black" d="M978.47,-360C978.47,-360 948.47,-360 948.47,-360 942.47,-360 936.47,-354 936.47,-348 936.47,-348 936.47,-336 936.47,-336 936.47,-330 942.47,-324 948.47,-324 948.47,-324 978.47,-324 978.47,-324 984.47,-324 990.47,-330 990.47,-336 990.47,-336 990.47,-348 990.47,-348 990.47,-354 984.47,-360 978.47,-360"/>
<text text-anchor="middle" x="963.47" y="-338.3" font-family="Times,serif" font-size="14.00" fill="#314b5f">php</text>
</g>
<!-- bartlett/sarif&#45;php&#45;converters&#45;&gt;php -->
<g id="edge1" class="edge">
<title>bartlett/sarif&#45;php&#45;converters&#45;&gt;php</title>
<path fill="none" stroke="#1a2833" d="M172.4,-418.33C210.3,-395.89 280.29,-358.37 345.97,-344 457.51,-319.61 811.3,-334.48 926.11,-340.12"/>
<polygon fill="#1a2833" stroke="#1a2833" points="925.99,-343.61 936.15,-340.62 926.34,-336.62 925.99,-343.61"/>
<text text-anchor="middle" x="524.47" y="-347" font-family="Times,serif" font-size="10.00" fill="#767676">^8.2</text>
</g>
<!-- ext&#45;json -->
<g id="node3" class="node">
<title>ext&#45;json</title>
<path fill="#eeeeee" stroke="black" d="M987.97,-598C987.97,-598 938.97,-598 938.97,-598 932.97,-598 926.97,-592 926.97,-586 926.97,-586 926.97,-574 926.97,-574 926.97,-568 932.97,-562 938.97,-562 938.97,-562 987.97,-562 987.97,-562 993.97,-562 999.97,-568 999.97,-574 999.97,-574 999.97,-586 999.97,-586 999.97,-592 993.97,-598 987.97,-598"/>
<text text-anchor="middle" x="963.47" y="-576.3" font-family="Times,serif" font-size="14.00" fill="#314b5f">ext&#45;json</text>
</g>
<!-- bartlett/sarif&#45;php&#45;converters&#45;&gt;ext&#45;json -->
<g id="edge2" class="edge">
<title>bartlett/sarif&#45;php&#45;converters&#45;&gt;ext&#45;json</title>
<path fill="none" stroke="#1a2833" d="M163.93,-453.89C198.21,-483.34 271.8,-541.08 345.97,-564 550.69,-627.27 812.09,-601.4 916.45,-587.09"/>
<polygon fill="#1a2833" stroke="#1a2833" points="917.22,-590.51 926.63,-585.66 916.25,-583.58 917.22,-590.51"/>
<text text-anchor="middle" x="524.47" y="-607" font-family="Times,serif" font-size="10.00" fill="#767676">*</text>
</g>
<!-- ext&#45;pcre -->
<g id="node4" class="node">
<title>ext&#45;pcre</title>
<path fill="#eeeeee" stroke="black" d="M988.97,-523C988.97,-523 937.97,-523 937.97,-523 931.97,-523 925.97,-517 925.97,-511 925.97,-511 925.97,-499 925.97,-499 925.97,-493 931.97,-487 937.97,-487 937.97,-487 988.97,-487 988.97,-487 994.97,-487 1000.97,-493 1000.97,-499 1000.97,-499 1000.97,-511 1000.97,-511 1000.97,-517 994.97,-523 988.97,-523"/>
<text text-anchor="middle" x="963.47" y="-501.3" font-family="Times,serif" font-size="14.00" fill="#314b5f">ext&#45;pcre</text>
</g>
<!-- bartlett/sarif&#45;php&#45;converters&#45;&gt;ext&#45;pcre -->
<g id="edge3" class="edge">
<title>bartlett/sarif&#45;php&#45;converters&#45;&gt;ext&#45;pcre</title>
<path fill="none" stroke="#1a2833" d="M236.6,-449.66C270.9,-454.38 310.16,-459.39 345.97,-463 558.3,-484.4 812.88,-497.9 915.86,-502.86"/>
<polygon fill="#1a2833" stroke="#1a2833" points="915.77,-506.36 925.92,-503.34 916.1,-499.37 915.77,-506.36"/>
<text text-anchor="middle" x="524.47" y="-493" font-family="Times,serif" font-size="10.00" fill="#767676">*</text>
</g>
<!-- ext&#45;spl -->
<g id="node5" class="node">
<title>ext&#45;spl</title>
<path fill="#eeeeee" stroke="black" d="M983.97,-654C983.97,-654 942.97,-654 942.97,-654 936.97,-654 930.97,-648 930.97,-642 930.97,-642 930.97,-630 930.97,-630 930.97,-624 936.97,-618 942.97,-618 942.97,-618 983.97,-618 983.97,-618 989.97,-618 995.97,-624 995.97,-630 995.97,-630 995.97,-642 995.97,-642 995.97,-648 989.97,-654 983.97,-654"/>
<text text-anchor="middle" x="963.47" y="-632.3" font-family="Times,serif" font-size="14.00" fill="#314b5f">ext&#45;spl</text>
</g>
<!-- bartlett/sarif&#45;php&#45;converters&#45;&gt;ext&#45;spl -->
<g id="edge4" class="edge">
<title>bartlett/sarif&#45;php&#45;converters&#45;&gt;ext&#45;spl</title>
<path fill="none" stroke="#1a2833" d="M156.57,-453.96C185.01,-492.79 258.59,-583.91 345.97,-619 548.18,-700.2 818.5,-663.04 920.85,-644.39"/>
<polygon fill="#1a2833" stroke="#1a2833" points="921.6,-647.81 930.79,-642.54 920.32,-640.93 921.6,-647.81"/>
<text text-anchor="middle" x="524.47" y="-672" font-family="Times,serif" font-size="10.00" fill="#767676">*</text>
</g>
<!-- composer&#45;runtime&#45;api -->
<g id="node6" class="node">
<title>composer&#45;runtime&#45;api</title>
<path fill="#eeeeee" stroke="black" d="M598.97,-454C598.97,-454 449.97,-454 449.97,-454 443.97,-454 437.97,-448 437.97,-442 437.97,-442 437.97,-430 437.97,-430 437.97,-424 443.97,-418 449.97,-418 449.97,-418 598.97,-418 598.97,-418 604.97,-418 610.97,-424 610.97,-430 610.97,-430 610.97,-442 610.97,-442 610.97,-448 604.97,-454 598.97,-454"/>
<text text-anchor="middle" x="524.47" y="-432.3" font-family="Times,serif" font-size="14.00" fill="#314b5f">composer&#45;runtime&#45;api</text>
</g>
<!-- bartlett/sarif&#45;php&#45;converters&#45;&gt;composer&#45;runtime&#45;api -->
<g id="edge5" class="edge">
<title>bartlett/sarif&#45;php&#45;converters&#45;&gt;composer&#45;runtime&#45;api</title>
<path fill="none" stroke="#1a2833" d="M286.1,-436C333.34,-436 384.79,-436 427.68,-436"/>
<polygon fill="#1a2833" stroke="#1a2833" points="427.82,-439.5 437.82,-436 427.82,-432.5 427.82,-439.5"/>
<text text-anchor="middle" x="315.97" y="-439" font-family="Times,serif" font-size="10.00" fill="#767676">^2.0</text>
</g>
<!-- bartlett/sarif&#45;php&#45;sdk -->
<g id="node7" class="node">
<title>bartlett/sarif&#45;php&#45;sdk</title>
<path fill="#eeeeee" stroke="black" d="M618.97,-555C618.97,-555 429.97,-555 429.97,-555 423.97,-555 417.97,-549 417.97,-543 417.97,-543 417.97,-531 417.97,-531 417.97,-525 423.97,-519 429.97,-519 429.97,-519 618.97,-519 618.97,-519 624.97,-519 630.97,-525 630.97,-531 630.97,-531 630.97,-543 630.97,-543 630.97,-549 624.97,-555 618.97,-555"/>
<text text-anchor="middle" x="524.47" y="-533.3" font-family="Times,serif" font-size="14.00" fill="#314b5f">bartlett/sarif&#45;php&#45;sdk: 2.2.1</text>
</g>
<!-- bartlett/sarif&#45;php&#45;converters&#45;&gt;bartlett/sarif&#45;php&#45;sdk -->
<g id="edge10" class="edge">
<title>bartlett/sarif&#45;php&#45;converters&#45;&gt;bartlett/sarif&#45;php&#45;sdk</title>
<path fill="none" stroke="#1a2833" d="M178.03,-453.46C209.81,-469.03 258.96,-491.27 303.97,-504 337.22,-513.4 374.1,-520.26 407.99,-525.21"/>
<polygon fill="#1a2833" stroke="#1a2833" points="407.54,-528.69 417.93,-526.62 408.52,-521.75 407.54,-528.69"/>
<text text-anchor="middle" x="315.97" y="-513" font-family="Times,serif" font-size="10.00" fill="#767676">^2.2</text>
</g>
<!-- bamarni/composer&#45;bin&#45;plugin -->
<g id="node8" class="node">
<title>bamarni/composer&#45;bin&#45;plugin</title>
<path fill="#eeeeee" stroke="black" d="M647.97,-400C647.97,-400 400.97,-400 400.97,-400 394.97,-400 388.97,-394 388.97,-388 388.97,-388 388.97,-376 388.97,-376 388.97,-370 394.97,-364 400.97,-364 400.97,-364 647.97,-364 647.97,-364 653.97,-364 659.97,-370 659.97,-376 659.97,-376 659.97,-388 659.97,-388 659.97,-394 653.97,-400 647.97,-400"/>
<text text-anchor="middle" x="524.47" y="-378.3" font-family="Times,serif" font-size="14.00" fill="#314b5f">bamarni/composer&#45;bin&#45;plugin: 1.8.3</text>
</g>
<!-- bartlett/sarif&#45;php&#45;converters&#45;&gt;bamarni/composer&#45;bin&#45;plugin -->
<g id="edge13" class="edge">
<title>bartlett/sarif&#45;php&#45;converters&#45;&gt;bamarni/composer&#45;bin&#45;plugin</title>
<path fill="none" stroke="#1a2833" stroke-dasharray="5,2" d="M238.77,-422.51C283.44,-416.16 337.57,-408.45 386.59,-401.48"/>
<polygon fill="#1a2833" stroke="#1a2833" points="387.24,-404.92 396.64,-400.05 386.25,-397.99 387.24,-404.92"/>
<text text-anchor="middle" x="315.97" y="-415" font-family="Times,serif" font-size="10.00" fill="#767676">^1.8</text>
</g>
<!-- php&#45;parallel&#45;lint/php&#45;console&#45;highlighter -->
<g id="node10" class="node">
<title>php&#45;parallel&#45;lint/php&#45;console&#45;highlighter</title>
<path fill="#eeeeee" stroke="black" d="M690.97,-296C690.97,-296 357.97,-296 357.97,-296 351.97,-296 345.97,-290 345.97,-284 345.97,-284 345.97,-272 345.97,-272 345.97,-266 351.97,-260 357.97,-260 357.97,-260 690.97,-260 690.97,-260 696.97,-260 702.97,-266 702.97,-272 702.97,-272 702.97,-284 702.97,-284 702.97,-290 696.97,-296 690.97,-296"/>
<text text-anchor="middle" x="524.47" y="-274.3" font-family="Times,serif" font-size="14.00" fill="#314b5f">php&#45;parallel&#45;lint/php&#45;console&#45;highlighter: v1.0.0</text>
</g>
<!-- bartlett/sarif&#45;php&#45;converters&#45;&gt;php&#45;parallel&#45;lint/php&#45;console&#45;highlighter -->
<g id="edge17" class="edge">
<title>bartlett/sarif&#45;php&#45;converters&#45;&gt;php&#45;parallel&#45;lint/php&#45;console&#45;highlighter</title>
<path fill="none" stroke="#1a2833" stroke-dasharray="5,2" d="M160.65,-417.8C187.71,-389.54 244.21,-335.69 303.97,-310 314.24,-305.59 324.99,-301.77 335.99,-298.46"/>
<polygon fill="#1a2833" stroke="#1a2833" points="337.07,-301.79 345.72,-295.68 335.14,-295.06 337.07,-301.79"/>
<text text-anchor="middle" x="315.97" y="-313" font-family="Times,serif" font-size="10.00" fill="#767676">^1.0</text>
</g>
<!-- symfony/console -->
<g id="node13" class="node">
<title>symfony/console</title>
<path fill="#eeeeee" stroke="black" d="M606.47,-166C606.47,-166 442.47,-166 442.47,-166 436.47,-166 430.47,-160 430.47,-154 430.47,-154 430.47,-142 430.47,-142 430.47,-136 436.47,-130 442.47,-130 442.47,-130 606.47,-130 606.47,-130 612.47,-130 618.47,-136 618.47,-142 618.47,-142 618.47,-154 618.47,-154 618.47,-160 612.47,-166 606.47,-166"/>
<text text-anchor="middle" x="524.47" y="-144.3" font-family="Times,serif" font-size="14.00" fill="#314b5f">symfony/console: v7.4.1</text>
</g>
<!-- bartlett/sarif&#45;php&#45;converters&#45;&gt;symfony/console -->
<g id="edge23" class="edge">
<title>bartlett/sarif&#45;php&#45;converters&#45;&gt;symfony/console</title>
<path fill="none" stroke="#1a2833" stroke-dasharray="5,2" d="M160.55,-418.1C193.54,-383.1 270.74,-304.39 345.97,-251 389.23,-220.3 442.21,-190.47 478.97,-170.88"/>
<polygon fill="#1a2833" stroke="#1a2833" points="480.75,-173.9 487.95,-166.13 477.48,-167.71 480.75,-173.9"/>
<text text-anchor="middle" x="315.97" y="-286" font-family="Times,serif" font-size="10.00" fill="#767676">^7.0</text>
</g>
<!-- bartlett/sarif&#45;php&#45;sdk&#45;&gt;php -->
<g id="edge9" class="edge">
<title>bartlett/sarif&#45;php&#45;sdk&#45;&gt;php</title>
<path fill="none" stroke="#1a2833" d="M631.3,-529.73C655.93,-524.9 681.27,-517.19 702.97,-505 753.2,-476.78 755.86,-455.15 788.97,-408 798.58,-394.33 793.58,-384.98 806.97,-375 841.62,-349.19 892.05,-342.6 926,-341.39"/>
<polygon fill="#1a2833" stroke="#1a2833" points="926.48,-344.88 936.4,-341.16 926.33,-337.88 926.48,-344.88"/>
<text text-anchor="middle" x="754.97" y="-496" font-family="Times,serif" font-size="10.00" fill="#767676">^8.2</text>
</g>
<!-- bartlett/sarif&#45;php&#45;sdk&#45;&gt;ext&#45;json -->
<g id="edge6" class="edge">
<title>bartlett/sarif&#45;php&#45;sdk&#45;&gt;ext&#45;json</title>
<path fill="none" stroke="#1a2833" d="M630.98,-547.38C722.09,-556.35 849.35,-568.87 916.61,-575.49"/>
<polygon fill="#1a2833" stroke="#1a2833" points="916.58,-579 926.87,-576.5 917.26,-572.03 916.58,-579"/>
<text text-anchor="middle" x="754.97" y="-565" font-family="Times,serif" font-size="10.00" fill="#767676">*</text>
</g>
<!-- bartlett/sarif&#45;php&#45;sdk&#45;&gt;ext&#45;pcre -->
<g id="edge7" class="edge">
<title>bartlett/sarif&#45;php&#45;sdk&#45;&gt;ext&#45;pcre</title>
<path fill="none" stroke="#1a2833" d="M630.98,-529.27C721.61,-522.64 848.01,-513.38 915.54,-508.44"/>
<polygon fill="#1a2833" stroke="#1a2833" points="916.14,-511.9 925.86,-507.68 915.63,-504.92 916.14,-511.9"/>
<text text-anchor="middle" x="754.97" y="-524" font-family="Times,serif" font-size="10.00" fill="#767676">*</text>
</g>
<!-- bartlett/sarif&#45;php&#45;sdk&#45;&gt;ext&#45;spl -->
<g id="edge8" class="edge">
<title>bartlett/sarif&#45;php&#45;sdk&#45;&gt;ext&#45;spl</title>
<path fill="none" stroke="#1a2833" d="M631.13,-551.75C655.02,-556.27 680.08,-561.96 702.97,-569 711.34,-571.57 712.83,-573.78 720.97,-577 758.61,-591.9 767.85,-596.59 806.97,-607 845.01,-617.12 889.18,-624.99 920.71,-629.97"/>
<polygon fill="#1a2833" stroke="#1a2833" points="920.47,-633.47 930.89,-631.54 921.54,-626.56 920.47,-633.47"/>
<text text-anchor="middle" x="754.97" y="-604" font-family="Times,serif" font-size="10.00" fill="#767676">*</text>
</g>
<!-- bamarni/composer&#45;bin&#45;plugin&#45;&gt;php -->
<g id="edge12" class="edge">
<title>bamarni/composer&#45;bin&#45;plugin&#45;&gt;php</title>
<path fill="none" stroke="#1a2833" d="M660.15,-369.67C752.47,-361.22 868.3,-350.62 926.13,-345.33"/>
<polygon fill="#1a2833" stroke="#1a2833" points="926.59,-348.8 936.23,-344.4 925.95,-341.83 926.59,-348.8"/>
<text text-anchor="middle" x="754.97" y="-366" font-family="Times,serif" font-size="10.00" fill="#767676">^7.2.5 || ^8.0</text>
</g>
<!-- composer&#45;plugin&#45;api -->
<g id="node9" class="node">
<title>composer&#45;plugin&#45;api</title>
<path fill="#eeeeee" stroke="black" d="M1031.97,-420C1031.97,-420 894.97,-420 894.97,-420 888.97,-420 882.97,-414 882.97,-408 882.97,-408 882.97,-396 882.97,-396 882.97,-390 888.97,-384 894.97,-384 894.97,-384 1031.97,-384 1031.97,-384 1037.97,-384 1043.97,-390 1043.97,-396 1043.97,-396 1043.97,-408 1043.97,-408 1043.97,-414 1037.97,-420 1031.97,-420"/>
<text text-anchor="middle" x="963.47" y="-398.3" font-family="Times,serif" font-size="14.00" fill="#314b5f">composer&#45;plugin&#45;api</text>
</g>
<!-- bamarni/composer&#45;bin&#45;plugin&#45;&gt;composer&#45;plugin&#45;api -->
<g id="edge11" class="edge">
<title>bamarni/composer&#45;bin&#45;plugin&#45;&gt;composer&#45;plugin&#45;api</title>
<path fill="none" stroke="#1a2833" d="M660.15,-388.16C729.28,-391.33 811.61,-395.1 872.88,-397.9"/>
<polygon fill="#1a2833" stroke="#1a2833" points="872.76,-401.4 882.91,-398.36 873.08,-394.41 872.76,-401.4"/>
<text text-anchor="middle" x="754.97" y="-396" font-family="Times,serif" font-size="10.00" fill="#767676">^2.0</text>
</g>
<!-- php&#45;parallel&#45;lint/php&#45;console&#45;highlighter&#45;&gt;php -->
<g id="edge15" class="edge">
<title>php&#45;parallel&#45;lint/php&#45;console&#45;highlighter&#45;&gt;php</title>
<path fill="none" stroke="#1a2833" d="M703.23,-295.89C732.01,-299.85 761.4,-304.53 788.97,-310 797.12,-311.62 798.87,-313.18 806.97,-315 847.56,-324.14 894.71,-331.93 926.35,-336.77"/>
<polygon fill="#1a2833" stroke="#1a2833" points="926.05,-340.26 936.46,-338.29 927.09,-333.34 926.05,-340.26"/>
<text text-anchor="middle" x="754.97" y="-313" font-family="Times,serif" font-size="10.00" fill="#767676">&gt;=5.3.2</text>
</g>
<!-- ext&#45;tokenizer -->
<g id="node11" class="node">
<title>ext&#45;tokenizer</title>
<path fill="#eeeeee" stroke="black" d="M1006.47,-306C1006.47,-306 920.47,-306 920.47,-306 914.47,-306 908.47,-300 908.47,-294 908.47,-294 908.47,-282 908.47,-282 908.47,-276 914.47,-270 920.47,-270 920.47,-270 1006.47,-270 1006.47,-270 1012.47,-270 1018.47,-276 1018.47,-282 1018.47,-282 1018.47,-294 1018.47,-294 1018.47,-300 1012.47,-306 1006.47,-306"/>
<text text-anchor="middle" x="963.47" y="-284.3" font-family="Times,serif" font-size="14.00" fill="#314b5f">ext&#45;tokenizer</text>
</g>
<!-- php&#45;parallel&#45;lint/php&#45;console&#45;highlighter&#45;&gt;ext&#45;tokenizer -->
<g id="edge14" class="edge">
<title>php&#45;parallel&#45;lint/php&#45;console&#45;highlighter&#45;&gt;ext&#45;tokenizer</title>
<path fill="none" stroke="#1a2833" d="M703.03,-274.61C731.77,-274.65 761.2,-275.04 788.97,-276 825.05,-277.25 865.28,-279.95 897.9,-282.47"/>
<polygon fill="#1a2833" stroke="#1a2833" points="897.97,-285.99 908.21,-283.28 898.52,-279.01 897.97,-285.99"/>
<text text-anchor="middle" x="754.97" y="-279" font-family="Times,serif" font-size="10.00" fill="#767676">*</text>
</g>
<!-- php&#45;parallel&#45;lint/php&#45;console&#45;color -->
<g id="node12" class="node">
<title>php&#45;parallel&#45;lint/php&#45;console&#45;color</title>
<path fill="#eeeeee" stroke="black" d="M1107.97,-252C1107.97,-252 818.97,-252 818.97,-252 812.97,-252 806.97,-246 806.97,-240 806.97,-240 806.97,-228 806.97,-228 806.97,-222 812.97,-216 818.97,-216 818.97,-216 1107.97,-216 1107.97,-216 1113.97,-216 1119.97,-222 1119.97,-228 1119.97,-228 1119.97,-240 1119.97,-240 1119.97,-246 1113.97,-252 1107.97,-252"/>
<text text-anchor="middle" x="963.47" y="-230.3" font-family="Times,serif" font-size="14.00" fill="#314b5f">php&#45;parallel&#45;lint/php&#45;console&#45;color: v1.0.1</text>
</g>
<!-- php&#45;parallel&#45;lint/php&#45;console&#45;highlighter&#45;&gt;php&#45;parallel&#45;lint/php&#45;console&#45;color -->
<g id="edge16" class="edge">
<title>php&#45;parallel&#45;lint/php&#45;console&#45;highlighter&#45;&gt;php&#45;parallel&#45;lint/php&#45;console&#45;color</title>
<path fill="none" stroke="#1a2833" d="M703.22,-260.1C734,-257 765.91,-253.79 796.36,-250.73"/>
<polygon fill="#1a2833" stroke="#1a2833" points="797.04,-254.18 806.64,-249.69 796.34,-247.21 797.04,-254.18"/>
<text text-anchor="middle" x="754.97" y="-261" font-family="Times,serif" font-size="10.00" fill="#767676">^1.0.1</text>
</g>
<!-- symfony/console&#45;&gt;php -->
<g id="edge18" class="edge">
<title>symfony/console&#45;&gt;php</title>
<path fill="none" stroke="#1a2833" d="M618.67,-157.18C675.61,-167.65 745.59,-190.06 788.97,-238 812.56,-264.06 781.42,-290.88 806.97,-315 838.67,-344.91 891,-348.08 926.09,-346.19"/>
<polygon fill="#1a2833" stroke="#1a2833" points="926.66,-349.66 936.39,-345.46 926.17,-342.67 926.66,-349.66"/>
<text text-anchor="middle" x="754.97" y="-241" font-family="Times,serif" font-size="10.00" fill="#767676">&gt;=8.2</text>
</g>
<!-- symfony/deprecation&#45;contracts -->
<g id="node14" class="node">
<title>symfony/deprecation&#45;contracts</title>
<path fill="#eeeeee" stroke="black" d="M1096.47,-36C1096.47,-36 830.47,-36 830.47,-36 824.47,-36 818.47,-30 818.47,-24 818.47,-24 818.47,-12 818.47,-12 818.47,-6 824.47,0 830.47,0 830.47,0 1096.47,0 1096.47,0 1102.47,0 1108.47,-6 1108.47,-12 1108.47,-12 1108.47,-24 1108.47,-24 1108.47,-30 1102.47,-36 1096.47,-36"/>
<text text-anchor="middle" x="963.47" y="-14.3" font-family="Times,serif" font-size="14.00" fill="#314b5f">symfony/deprecation&#45;contracts: v3.6.0</text>
</g>
<!-- symfony/console&#45;&gt;symfony/deprecation&#45;contracts -->
<g id="edge19" class="edge">
<title>symfony/console&#45;&gt;symfony/deprecation&#45;contracts</title>
<path fill="none" stroke="#1a2833" d="M567.63,-129.87C622.02,-107.12 720,-68.26 806.97,-45 816.11,-42.56 825.61,-40.28 835.21,-38.17"/>
<polygon fill="#1a2833" stroke="#1a2833" points="836.18,-41.54 845.23,-36.04 834.72,-34.7 836.18,-41.54"/>
<text text-anchor="middle" x="754.97" y="-72" font-family="Times,serif" font-size="10.00" fill="#767676">^2.5|^3</text>
</g>
<!-- symfony/polyfill&#45;mbstring -->
<g id="node15" class="node">
<title>symfony/polyfill&#45;mbstring</title>
<path fill="#eeeeee" stroke="black" d="M1081.97,-198C1081.97,-198 844.97,-198 844.97,-198 838.97,-198 832.97,-192 832.97,-186 832.97,-186 832.97,-174 832.97,-174 832.97,-168 838.97,-162 844.97,-162 844.97,-162 1081.97,-162 1081.97,-162 1087.97,-162 1093.97,-168 1093.97,-174 1093.97,-174 1093.97,-186 1093.97,-186 1093.97,-192 1087.97,-198 1081.97,-198"/>
<text text-anchor="middle" x="963.47" y="-176.3" font-family="Times,serif" font-size="14.00" fill="#314b5f">symfony/polyfill&#45;mbstring: v1.33.0</text>
</g>
<!-- symfony/console&#45;&gt;symfony/polyfill&#45;mbstring -->
<g id="edge20" class="edge">
<title>symfony/console&#45;&gt;symfony/polyfill&#45;mbstring</title>
<path fill="none" stroke="#1a2833" d="M618.69,-154.83C678.05,-159.17 756.06,-164.89 822.76,-169.77"/>
<polygon fill="#1a2833" stroke="#1a2833" points="822.71,-173.27 832.94,-170.51 823.22,-166.29 822.71,-173.27"/>
<text text-anchor="middle" x="754.97" y="-170" font-family="Times,serif" font-size="10.00" fill="#767676">~1.0</text>
</g>
<!-- symfony/service&#45;contracts -->
<g id="node16" class="node">
<title>symfony/service&#45;contracts</title>
<path fill="#eeeeee" stroke="black" d="M1079.97,-144C1079.97,-144 846.97,-144 846.97,-144 840.97,-144 834.97,-138 834.97,-132 834.97,-132 834.97,-120 834.97,-120 834.97,-114 840.97,-108 846.97,-108 846.97,-108 1079.97,-108 1079.97,-108 1085.97,-108 1091.97,-114 1091.97,-120 1091.97,-120 1091.97,-132 1091.97,-132 1091.97,-138 1085.97,-144 1079.97,-144"/>
<text text-anchor="middle" x="963.47" y="-122.3" font-family="Times,serif" font-size="14.00" fill="#314b5f">symfony/service&#45;contracts: v3.6.1</text>
</g>
<!-- symfony/console&#45;&gt;symfony/service&#45;contracts -->
<g id="edge21" class="edge">
<title>symfony/console&#45;&gt;symfony/service&#45;contracts</title>
<path fill="none" stroke="#1a2833" d="M618.94,-142.54C651.26,-140.7 687.7,-138.69 720.97,-137 754.64,-135.29 790.96,-133.56 824.94,-132.01"/>
<polygon fill="#1a2833" stroke="#1a2833" points="825.1,-135.51 834.94,-131.55 824.79,-128.51 825.1,-135.51"/>
<text text-anchor="middle" x="754.97" y="-140" font-family="Times,serif" font-size="10.00" fill="#767676">^2.5|^3</text>
</g>
<!-- symfony/string -->
<g id="node17" class="node">
<title>symfony/string</title>
<path fill="#eeeeee" stroke="black" d="M1039.97,-90C1039.97,-90 886.97,-90 886.97,-90 880.97,-90 874.97,-84 874.97,-78 874.97,-78 874.97,-66 874.97,-66 874.97,-60 880.97,-54 886.97,-54 886.97,-54 1039.97,-54 1039.97,-54 1045.97,-54 1051.97,-60 1051.97,-66 1051.97,-66 1051.97,-78 1051.97,-78 1051.97,-84 1045.97,-90 1039.97,-90"/>
<text text-anchor="middle" x="963.47" y="-68.3" font-family="Times,serif" font-size="14.00" fill="#314b5f">symfony/string: v7.4.0</text>
</g>
<!-- symfony/console&#45;&gt;symfony/string -->
<g id="edge22" class="edge">
<title>symfony/console&#45;&gt;symfony/string</title>
<path fill="none" stroke="#1a2833" d="M618.67,-131.77C673.49,-122.22 744.17,-109.92 806.97,-99 825.71,-95.74 845.72,-92.27 864.93,-88.93"/>
<polygon fill="#1a2833" stroke="#1a2833" points="865.63,-92.36 874.89,-87.2 864.44,-85.46 865.63,-92.36"/>
<text text-anchor="middle" x="754.97" y="-117" font-family="Times,serif" font-size="10.00" fill="#767676">^7.2|^8.0</text>
</g>
</g>
</svg>
