<?xml version="1.0" encoding="UTF-8" standalone="no"?>
<!DOCTYPE svg PUBLIC "-//W3C//DTD SVG 1.1//EN"
 "http://www.w3.org/Graphics/SVG/1.1/DTD/svg11.dtd">
<!-- Generated by graphviz version 2.43.0 (0)
 -->
<!-- Title: %3 Pages: 1 -->
<svg width="2262pt" height="950pt"
 viewBox="0.00 0.00 2262.00 950.00" xmlns="http://www.w3.org/2000/svg" xmlns:xlink="http://www.w3.org/1999/xlink">
<g id="graph0" class="graph" transform="scale(1 1) rotate(0) translate(4 946)">
<title>%3</title>
<g id="clust1" class="cluster">
<title>cluster_0</title>
<polygon fill="BurlyWood" stroke="black" points="8,-219 8,-921 664,-921 664,-219 8,-219"/>
<text text-anchor="middle" x="336" y="-905.8" font-family="Times,serif" font-size="14.00">Bartlett\Sarif\Converter</text>
</g>
<g id="clust2" class="cluster">
<title>cluster_1</title>
<polygon fill="LightSkyBlue" stroke="black" points="276,-8 276,-211 1804,-211 1804,-8 276,-8"/>
<text text-anchor="middle" x="1040" y="-195.8" font-family="Times,serif" font-size="14.00">Bartlett\Sarif\Contract</text>
</g>
<g id="clust3" class="cluster">
<title>cluster_2</title>
<polygon fill="Bisque" stroke="black" points="672,-420.5 672,-934 1244,-934 1244,-420.5 672,-420.5"/>
<text text-anchor="middle" x="958" y="-918.8" font-family="Times,serif" font-size="14.00">Bartlett\Sarif\Converter\Source</text>
</g>
<g id="clust4" class="cluster">
<title>cluster_3</title>
<polygon fill="Bisque" stroke="black" points="1252,-417.5 1252,-915.5 1574,-915.5 1574,-417.5 1252,-417.5"/>
<text text-anchor="middle" x="1413" y="-900.3" font-family="Times,serif" font-size="14.00">Bartlett\Sarif\Converter\Normalizer</text>
</g>
<g id="clust5" class="cluster">
<title>cluster_4</title>
<polygon fill="transparent" stroke="black" points="1582,-411 1582,-633 2246,-633 2246,-411 1582,-411"/>
<text text-anchor="middle" x="1914" y="-617.8" font-family="Times,serif" font-size="14.00">Bartlett\Sarif\Converter\Case</text>
</g>
<!-- Bartlett\\Sarif\\Converter\\EcsConverter -->
<g id="node1" class="node">
<title>Bartlett\\Sarif\\Converter\\EcsConverter</title>
<polygon fill="#fefece" stroke="transparent" points="419,-890 253,-890 253,-843 419,-843 419,-890"/>
<polygon fill="#eeeeee" stroke="transparent" points="253,-867.5 253,-889.5 419,-889.5 419,-867.5 253,-867.5"/>
<polygon fill="none" stroke="black" points="253,-867.5 253,-889.5 419,-889.5 419,-867.5 253,-867.5"/>
<text text-anchor="start" x="306.5" y="-873.1" font-family="Verdana" font-weight="bold" font-size="8.00">EcsConverter</text>
<polygon fill="none" stroke="black" points="253,-861.5 253,-867.5 419,-867.5 419,-861.5 253,-861.5"/>
<polygon fill="none" stroke="black" points="253,-842.5 253,-861.5 419,-861.5 419,-842.5 253,-842.5"/>
<text text-anchor="start" x="258" y="-850.1" font-family="Verdana" font-size="8.00">+ configure(options : array = []) : void</text>
</g>
<!-- Bartlett\\Sarif\\Converter\\AbstractConverter -->
<g id="node2" class="node">
<title>Bartlett\\Sarif\\Converter\\AbstractConverter</title>
<polygon fill="#fefece" stroke="transparent" points="655.5,-794 16.5,-794 16.5,-227 655.5,-227 655.5,-794"/>
<polygon fill="#eeeeee" stroke="transparent" points="17,-771.5 17,-793.5 656,-793.5 656,-771.5 17,-771.5"/>
<polygon fill="none" stroke="black" points="17,-771.5 17,-793.5 656,-793.5 656,-771.5 17,-771.5"/>
<text text-anchor="start" x="312.5" y="-785.1" font-family="Verdana" font-weight="bold" font-size="8.00">«abstract»</text>
<text text-anchor="start" x="295.5" y="-777.1" font-family="Verdana" font-weight="bold" font-size="8.00">AbstractConverter</text>
<polygon fill="none" stroke="black" points="17,-531.5 17,-771.5 656,-771.5 656,-531.5 17,-531.5"/>
<text text-anchor="start" x="22" y="-760.1" font-family="Verdana" font-size="8.00"># toolName</text>
<text text-anchor="start" x="22" y="-747.1" font-family="Verdana" font-size="8.00"># toolFullName</text>
<text text-anchor="start" x="22" y="-734.1" font-family="Verdana" font-size="8.00"># toolShortDescription</text>
<text text-anchor="start" x="22" y="-721.1" font-family="Verdana" font-size="8.00"># toolFullDescription</text>
<text text-anchor="start" x="22" y="-708.1" font-family="Verdana" font-size="8.00"># toolInformationUri</text>
<text text-anchor="start" x="22" y="-695.1" font-family="Verdana" font-size="8.00"># toolComposerPackage</text>
<text text-anchor="start" x="22" y="-682.1" font-family="Verdana" font-size="8.00"># «static» toolVersion</text>
<text text-anchor="start" x="22" y="-669.1" font-family="Verdana" font-size="8.00"># toolSemanticVersion</text>
<text text-anchor="start" x="22" y="-656.1" font-family="Verdana" font-size="8.00"># converterComposerPackage</text>
<text text-anchor="start" x="22" y="-643.1" font-family="Verdana" font-size="8.00"># results : mixed = []</text>
<text text-anchor="start" x="22" y="-630.1" font-family="Verdana" font-size="8.00"># errors : mixed = []</text>
<text text-anchor="start" x="22" y="-617.1" font-family="Verdana" font-size="8.00"># serializer</text>
<text text-anchor="start" x="22" y="-604.1" font-family="Verdana" font-size="8.00"># startTime</text>
<text text-anchor="start" x="22" y="-591.1" font-family="Verdana" font-size="8.00"># endTime</text>
<text text-anchor="start" x="22" y="-578.1" font-family="Verdana" font-size="8.00"># includeCodeSnippets</text>
<text text-anchor="start" x="22" y="-565.1" font-family="Verdana" font-size="8.00"># includeContextRegion</text>
<text text-anchor="start" x="22" y="-552.1" font-family="Verdana" font-size="8.00"># defaultResultLevelIfEmpty</text>
<text text-anchor="start" x="22" y="-539.1" font-family="Verdana" font-size="8.00"># projectDirectory</text>
<polygon fill="none" stroke="black" points="17,-226.5 17,-531.5 656,-531.5 656,-226.5 17,-226.5"/>
<text text-anchor="start" x="22" y="-520.1" font-family="Verdana" font-size="8.00">+ __construct(options : array = [], factory : Bartlett\Sarif\Factory\SerializerFactory = «unknown»)</text>
<text text-anchor="start" x="22" y="-507.1" font-family="Verdana" font-size="8.00">+ getName() : string</text>
<text text-anchor="start" x="22" y="-494.1" font-family="Verdana" font-size="8.00">+ «static» getVersion() : string</text>
<text text-anchor="start" x="22" y="-481.1" font-family="Verdana" font-size="8.00">+ configure(options : array) : void</text>
<text text-anchor="start" x="22" y="-468.1" font-family="Verdana" font-size="8.00">+ toolDriver() : Bartlett\Sarif\Definition\ToolComponent</text>
<text text-anchor="start" x="22" y="-455.1" font-family="Verdana" font-size="8.00">+ toolExtensions() : array</text>
<text text-anchor="start" x="22" y="-442.1" font-family="Verdana" font-size="8.00">+ rules(defined : iterable) : array</text>
<text text-anchor="start" x="22" y="-429.1" font-family="Verdana" font-size="8.00">+ results(normalized : iterable) : void</text>
<text text-anchor="start" x="22" y="-416.1" font-family="Verdana" font-size="8.00">+ sarifLog(runs : array = [], version : string = &#39;2\.1\.0&#39;) : ?string</text>
<text text-anchor="start" x="22" y="-403.1" font-family="Verdana" font-size="8.00">+ invocations(properties : Bartlett\Sarif\Definition\PropertyBag = «unknown», responseFileOption : string = «unknown») : array</text>
<text text-anchor="start" x="22" y="-390.1" font-family="Verdana" font-size="8.00">+ versionControlDetails() : array</text>
<text text-anchor="start" x="22" y="-377.1" font-family="Verdana" font-size="8.00">+ automationDetails() : Bartlett\Sarif\Definition\RunAutomationDetails</text>
<text text-anchor="start" x="22" y="-364.1" font-family="Verdana" font-size="8.00">+ run(invocations : iterable, rules : iterable) : Bartlett\Sarif\Definition\Run</text>
<text text-anchor="start" x="22" y="-351.1" font-family="Verdana" font-size="8.00"># originalUriBaseIdentifiers() : array</text>
<text text-anchor="start" x="22" y="-338.1" font-family="Verdana" font-size="8.00"># getToolVersion(package : string) : string</text>
<text text-anchor="start" x="22" y="-325.1" font-family="Verdana" font-size="8.00"># pathToArtifactLocation(path : string) : string</text>
<text text-anchor="start" x="22" y="-312.1" font-family="Verdana" font-size="8.00"># pathToUri(path : string) : string</text>
<text text-anchor="start" x="22" y="-299.1" font-family="Verdana" font-size="8.00"># getCodeSnippet(filePath : string, lineNumber : int, linesBefore : int, linesAfter : int) : ?string</text>
<text text-anchor="start" x="22" y="-286.1" font-family="Verdana" font-size="8.00"># getSnippetRegion(filePath : string, lineNumber : int, column : int = «unknown», linesBefore : int = 2, linesAfter : int = 2) : Bartlett\Sarif\Definition\Region</text>
<text text-anchor="start" x="22" y="-273.1" font-family="Verdana" font-size="8.00"># getErrors() : Iterator</text>
<text text-anchor="start" x="22" y="-260.1" font-family="Verdana" font-size="8.00"># multiformatMessageString(def : mixed) : Bartlett\Sarif\Definition\MultiformatMessageString</text>
<text text-anchor="start" x="22" y="-247.1" font-family="Verdana" font-size="8.00"># message(def : mixed) : Bartlett\Sarif\Definition\Message</text>
<text text-anchor="start" x="22" y="-234.1" font-family="Verdana" font-size="8.00">– multiformatMessage(def, message) : object</text>
</g>
<!-- Bartlett\\Sarif\\Converter\\EcsConverter&#45;&gt;Bartlett\\Sarif\\Converter\\AbstractConverter -->
<g id="edge2" class="edge">
<title>Bartlett\\Sarif\\Converter\\EcsConverter&#45;&gt;Bartlett\\Sarif\\Converter\\AbstractConverter</title>
<path fill="none" stroke="black" d="M336,-842.82C336,-832.68 336,-819.59 336,-804.49"/>
<polygon fill="none" stroke="black" points="339.5,-804.29 336,-794.29 332.5,-804.29 339.5,-804.29"/>
</g>
<!-- Bartlett\\Sarif\\Contract\\ConverterInterface -->
<g id="node3" class="node">
<title>Bartlett\\Sarif\\Contract\\ConverterInterface</title>
<polygon fill="#fefece" stroke="transparent" points="861.5,-180 284.5,-180 284.5,-16 861.5,-16 861.5,-180"/>
<polygon fill="#eeeeee" stroke="transparent" points="285,-158 285,-180 862,-180 862,-158 285,-158"/>
<polygon fill="none" stroke="black" points="285,-158 285,-180 862,-180 862,-158 285,-158"/>
<text text-anchor="start" x="547.5" y="-171.6" font-family="Verdana" font-weight="bold" font-size="8.00">«interface»</text>
<text text-anchor="start" x="531" y="-163.6" font-family="Verdana" font-weight="bold" font-size="8.00">ConverterInterface</text>
<polygon fill="none" stroke="black" points="285,-152 285,-158 862,-158 862,-152 285,-152"/>
<polygon fill="none" stroke="black" points="285,-16 285,-152 862,-152 862,-16 285,-16"/>
<text text-anchor="start" x="290" y="-140.6" font-family="Verdana" font-size="8.00">+ «abstract» getName() : string</text>
<text text-anchor="start" x="290" y="-127.6" font-family="Verdana" font-size="8.00">+ «abstract» toolDriver() : Bartlett\Sarif\Definition\ToolComponent</text>
<text text-anchor="start" x="290" y="-114.6" font-family="Verdana" font-size="8.00">+ «abstract» toolExtensions() : array</text>
<text text-anchor="start" x="290" y="-101.6" font-family="Verdana" font-size="8.00">+ «abstract» rules(defined : iterable) : array</text>
<text text-anchor="start" x="290" y="-88.6" font-family="Verdana" font-size="8.00">+ «abstract» results(normalized : iterable) : void</text>
<text text-anchor="start" x="290" y="-75.6" font-family="Verdana" font-size="8.00">+ «abstract» invocations(properties : Bartlett\Sarif\Definition\PropertyBag = «unknown», responseFileOption : string = «unknown») : array</text>
<text text-anchor="start" x="290" y="-62.6" font-family="Verdana" font-size="8.00">+ «abstract» versionControlDetails() : array</text>
<text text-anchor="start" x="290" y="-49.6" font-family="Verdana" font-size="8.00">+ «abstract» automationDetails() : Bartlett\Sarif\Definition\RunAutomationDetails</text>
<text text-anchor="start" x="290" y="-36.6" font-family="Verdana" font-size="8.00">+ «abstract» run(invocations : iterable, rules : iterable) : Bartlett\Sarif\Definition\Run</text>
<text text-anchor="start" x="290" y="-23.6" font-family="Verdana" font-size="8.00">+ «abstract» sarifLog(runs : array = [], version : string = &#39;2\.1\.0&#39;) : ?string</text>
</g>
<!-- Bartlett\\Sarif\\Converter\\AbstractConverter&#45;&gt;Bartlett\\Sarif\\Contract\\ConverterInterface -->
<g id="edge1" class="edge">
<title>Bartlett\\Sarif\\Converter\\AbstractConverter&#45;&gt;Bartlett\\Sarif\\Contract\\ConverterInterface</title>
<path fill="none" stroke="black" stroke-dasharray="5,2" d="M499.15,-226.92C506.77,-213.72 514.1,-201.03 520.98,-189.1"/>
<polygon fill="none" stroke="black" points="524.19,-190.54 526.16,-180.13 518.13,-187.04 524.19,-190.54"/>
</g>
<!-- Bartlett\\Sarif\\Contract\\SourceInterface -->
<g id="node4" class="node">
<title>Bartlett\\Sarif\\Contract\\SourceInterface</title>
<polygon fill="#fefece" stroke="transparent" points="1194,-154 880,-154 880,-42 1194,-42 1194,-154"/>
<polygon fill="#eeeeee" stroke="transparent" points="880,-132 880,-154 1194,-154 1194,-132 880,-132"/>
<polygon fill="none" stroke="black" points="880,-132 880,-154 1194,-154 1194,-132 880,-132"/>
<text text-anchor="start" x="1011" y="-145.6" font-family="Verdana" font-weight="bold" font-size="8.00">«interface»</text>
<text text-anchor="start" x="1001" y="-137.6" font-family="Verdana" font-weight="bold" font-size="8.00">SourceInterface</text>
<polygon fill="none" stroke="black" points="880,-126 880,-132 1194,-132 1194,-126 880,-126"/>
<polygon fill="none" stroke="black" points="880,-42 880,-126 1194,-126 1194,-42 880,-42"/>
<text text-anchor="start" x="885" y="-114.6" font-family="Verdana" font-size="8.00">+ «abstract» getName() : string</text>
<text text-anchor="start" x="885" y="-101.6" font-family="Verdana" font-size="8.00">+ «abstract» getFiles() : Iterator</text>
<text text-anchor="start" x="885" y="-88.6" font-family="Verdana" font-size="8.00">+ «abstract» getErrors() : Iterator</text>
<text text-anchor="start" x="885" y="-75.6" font-family="Verdana" font-size="8.00">+ «abstract» getRules() : Iterator</text>
<text text-anchor="start" x="885" y="-62.6" font-family="Verdana" font-size="8.00">+ «abstract» getAttribute(name : string) : Iterator</text>
<text text-anchor="start" x="885" y="-49.6" font-family="Verdana" font-size="8.00">+ «abstract» normalize(data : mixed, format : string, context : array) : bool</text>
</g>
<!-- Bartlett\\Sarif\\Contract\\NormalizerInterface -->
<g id="node5" class="node">
<title>Bartlett\\Sarif\\Contract\\NormalizerInterface</title>
<polygon fill="#fefece" stroke="transparent" points="1560,-176.5 1212,-176.5 1212,-19.5 1560,-19.5 1560,-176.5"/>
<polygon fill="#eeeeee" stroke="transparent" points="1212,-154 1212,-176 1560,-176 1560,-154 1212,-154"/>
<polygon fill="none" stroke="black" points="1212,-154 1212,-176 1560,-176 1560,-154 1212,-154"/>
<text text-anchor="start" x="1360" y="-167.6" font-family="Verdana" font-weight="bold" font-size="8.00">«interface»</text>
<text text-anchor="start" x="1341" y="-159.6" font-family="Verdana" font-weight="bold" font-size="8.00">NormalizerInterface</text>
<polygon fill="none" stroke="black" points="1212,-70 1212,-154 1560,-154 1560,-70 1212,-70"/>
<text text-anchor="start" x="1217" y="-142.6" font-family="Verdana" font-size="8.00">+ «static» FORMAT_SARIF : string = &quot;sarif&quot; {readOnly}</text>
<text text-anchor="start" x="1217" y="-129.6" font-family="Verdana" font-size="8.00">+ «static» FORMAT_JSON : string = &quot;json&quot; {readOnly}</text>
<text text-anchor="start" x="1217" y="-116.6" font-family="Verdana" font-size="8.00">+ «static» FORMAT_XML : string = &quot;xml&quot; {readOnly}</text>
<text text-anchor="start" x="1217" y="-103.6" font-family="Verdana" font-size="8.00">+ «static» FORMAT_CHECKSTYLE : string = &quot;checkstyle&quot; {readOnly}</text>
<text text-anchor="start" x="1217" y="-90.6" font-family="Verdana" font-size="8.00">+ «static» FORMAT_GITLAB : string = &quot;gitlab&quot; {readOnly}</text>
<text text-anchor="start" x="1217" y="-77.6" font-family="Verdana" font-size="8.00">+ «static» FORMAT_INTERNAL : string = &quot;internal&quot; {readOnly}</text>
<polygon fill="none" stroke="black" points="1212,-64 1212,-70 1560,-70 1560,-64 1212,-64"/>
<polygon fill="none" stroke="black" points="1212,-19 1212,-64 1560,-64 1560,-19 1212,-19"/>
<text text-anchor="start" x="1217" y="-52.6" font-family="Verdana" font-size="8.00">+ «abstract» getSupportedFormats() : array</text>
<text text-anchor="start" x="1217" y="-39.6" font-family="Verdana" font-size="8.00">+ «abstract» isSupportedFormat(format : string) : bool</text>
<text text-anchor="start" x="1217" y="-26.6" font-family="Verdana" font-size="8.00">+ «abstract» normalize(data : mixed, format : string, context : array) : ?ArrayObject</text>
</g>
<!-- Bartlett\\Sarif\\Contract\\HelpUriCaseConverterInterface -->
<g id="node6" class="node">
<title>Bartlett\\Sarif\\Contract\\HelpUriCaseConverterInterface</title>
<polygon fill="#fefece" stroke="transparent" points="1796,-121.5 1578,-121.5 1578,-74.5 1796,-74.5 1796,-121.5"/>
<polygon fill="#eeeeee" stroke="transparent" points="1578,-99 1578,-121 1796,-121 1796,-99 1578,-99"/>
<polygon fill="none" stroke="black" points="1578,-99 1578,-121 1796,-121 1796,-99 1578,-99"/>
<text text-anchor="start" x="1661" y="-112.6" font-family="Verdana" font-weight="bold" font-size="8.00">«interface»</text>
<text text-anchor="start" x="1616.5" y="-104.6" font-family="Verdana" font-weight="bold" font-size="8.00">HelpUriCaseConverterInterface</text>
<polygon fill="none" stroke="black" points="1578,-93 1578,-99 1796,-99 1796,-93 1578,-93"/>
<polygon fill="none" stroke="black" points="1578,-74 1578,-93 1796,-93 1796,-74 1578,-74"/>
<text text-anchor="start" x="1583" y="-81.6" font-family="Verdana" font-size="8.00">+ «abstract» convert(checkerClass : string) : string</text>
</g>
<!-- Bartlett\\Sarif\\Converter\\Source\\EcsSource -->
<g id="node7" class="node">
<title>Bartlett\\Sarif\\Converter\\Source\\EcsSource</title>
<polygon fill="#fefece" stroke="transparent" points="1235.5,-903 680.5,-903 680.5,-830 1235.5,-830 1235.5,-903"/>
<polygon fill="#eeeeee" stroke="transparent" points="681,-880.5 681,-902.5 1236,-902.5 1236,-880.5 681,-880.5"/>
<polygon fill="none" stroke="black" points="681,-880.5 681,-902.5 1236,-902.5 1236,-880.5 681,-880.5"/>
<text text-anchor="start" x="935.5" y="-886.1" font-family="Verdana" font-weight="bold" font-size="8.00">EcsSource</text>
<polygon fill="none" stroke="black" points="681,-861.5 681,-880.5 1236,-880.5 1236,-861.5 681,-861.5"/>
<text text-anchor="start" x="686" y="-869.1" font-family="Verdana" font-size="8.00">– helpUriCaseConverter</text>
<polygon fill="none" stroke="black" points="681,-829.5 681,-861.5 1236,-861.5 1236,-829.5 681,-829.5"/>
<text text-anchor="start" x="686" y="-850.1" font-family="Verdana" font-size="8.00">+ __construct(normalizers : iterable = [], helpUriCaseConverter : Bartlett\Sarif\Contract\HelpUriCaseConverterInterface = «unknown»)</text>
<text text-anchor="start" x="686" y="-837.1" font-family="Verdana" font-size="8.00">+ getRules() : Iterator</text>
</g>
<!-- Bartlett\\Sarif\\Converter\\Source\\AbstractSource -->
<g id="node8" class="node">
<title>Bartlett\\Sarif\\Converter\\Source\\AbstractSource</title>
<polygon fill="#fefece" stroke="transparent" points="1147,-592.5 821,-592.5 821,-428.5 1147,-428.5 1147,-592.5"/>
<polygon fill="#eeeeee" stroke="transparent" points="821,-570.5 821,-592.5 1147,-592.5 1147,-570.5 821,-570.5"/>
<polygon fill="none" stroke="black" points="821,-570.5 821,-592.5 1147,-592.5 1147,-570.5 821,-570.5"/>
<text text-anchor="start" x="960" y="-584.1" font-family="Verdana" font-weight="bold" font-size="8.00">«abstract»</text>
<text text-anchor="start" x="949.5" y="-576.1" font-family="Verdana" font-weight="bold" font-size="8.00">AbstractSource</text>
<polygon fill="none" stroke="black" points="821,-538.5 821,-570.5 1147,-570.5 1147,-538.5 821,-538.5"/>
<text text-anchor="start" x="826" y="-559.1" font-family="Verdana" font-size="8.00">– normalizers : mixed</text>
<text text-anchor="start" x="826" y="-546.1" font-family="Verdana" font-size="8.00">– normalized</text>
<polygon fill="none" stroke="black" points="821,-428.5 821,-538.5 1147,-538.5 1147,-428.5 821,-428.5"/>
<text text-anchor="start" x="826" y="-527.1" font-family="Verdana" font-size="8.00">+ __construct(normalizers : iterable = [])</text>
<text text-anchor="start" x="826" y="-514.1" font-family="Verdana" font-size="8.00">+ getName() : string</text>
<text text-anchor="start" x="826" y="-501.1" font-family="Verdana" font-size="8.00">+ getFiles() : Iterator</text>
<text text-anchor="start" x="826" y="-488.1" font-family="Verdana" font-size="8.00">+ getErrors() : Iterator</text>
<text text-anchor="start" x="826" y="-475.1" font-family="Verdana" font-size="8.00">+ getRules() : Iterator</text>
<text text-anchor="start" x="826" y="-462.1" font-family="Verdana" font-size="8.00">+ getAttribute(name : string) : Iterator</text>
<text text-anchor="start" x="826" y="-449.1" font-family="Verdana" font-size="8.00">+ normalize(data : mixed, format : string, context : array) : bool</text>
<text text-anchor="start" x="826" y="-436.1" font-family="Verdana" font-size="8.00"># getNormalizer(format : string) : ?Bartlett\Sarif\Contract\NormalizerInterface</text>
</g>
<!-- Bartlett\\Sarif\\Converter\\Source\\EcsSource&#45;&gt;Bartlett\\Sarif\\Converter\\Source\\AbstractSource -->
<g id="edge4" class="edge">
<title>Bartlett\\Sarif\\Converter\\Source\\EcsSource&#45;&gt;Bartlett\\Sarif\\Converter\\Source\\AbstractSource</title>
<path fill="none" stroke="black" d="M960.61,-829.94C964.47,-777.36 971.84,-677.12 977.27,-603.1"/>
<polygon fill="none" stroke="black" points="980.78,-603.06 978.03,-592.83 973.8,-602.55 980.78,-603.06"/>
</g>
<!-- Bartlett\\Sarif\\Converter\\Source\\AbstractSource&#45;&gt;Bartlett\\Sarif\\Contract\\SourceInterface -->
<g id="edge3" class="edge">
<title>Bartlett\\Sarif\\Converter\\Source\\AbstractSource&#45;&gt;Bartlett\\Sarif\\Contract\\SourceInterface</title>
<path fill="none" stroke="black" stroke-dasharray="5,2" d="M994.47,-428.4C1004.46,-351.01 1019.32,-235.9 1028.57,-164.26"/>
<polygon fill="none" stroke="black" points="1032.09,-164.38 1029.9,-154.01 1025.15,-163.48 1032.09,-164.38"/>
</g>
<!-- Bartlett\\Sarif\\Converter\\Normalizer\\EcsNormalizer -->
<g id="node9" class="node">
<title>Bartlett\\Sarif\\Converter\\Normalizer\\EcsNormalizer</title>
<polygon fill="#fefece" stroke="transparent" points="1448,-884.5 1378,-884.5 1378,-848.5 1448,-848.5 1448,-884.5"/>
<polygon fill="#eeeeee" stroke="transparent" points="1378,-861.5 1378,-883.5 1448,-883.5 1448,-861.5 1378,-861.5"/>
<polygon fill="none" stroke="black" points="1378,-861.5 1378,-883.5 1448,-883.5 1448,-861.5 1378,-861.5"/>
<text text-anchor="start" x="1381" y="-867.1" font-family="Verdana" font-weight="bold" font-size="8.00">EcsNormalizer</text>
<polygon fill="none" stroke="black" points="1378,-855.5 1378,-861.5 1448,-861.5 1448,-855.5 1378,-855.5"/>
<polygon fill="none" stroke="black" points="1378,-849.5 1378,-855.5 1448,-855.5 1448,-849.5 1378,-849.5"/>
</g>
<!-- Bartlett\\Sarif\\Converter\\Normalizer\\AbstractNormalizer -->
<g id="node10" class="node">
<title>Bartlett\\Sarif\\Converter\\Normalizer\\AbstractNormalizer</title>
<polygon fill="#fefece" stroke="transparent" points="1565.5,-595.5 1260.5,-595.5 1260.5,-425.5 1565.5,-425.5 1565.5,-595.5"/>
<polygon fill="#eeeeee" stroke="transparent" points="1261,-573.5 1261,-595.5 1566,-595.5 1566,-573.5 1261,-573.5"/>
<polygon fill="none" stroke="black" points="1261,-573.5 1261,-595.5 1566,-595.5 1566,-573.5 1261,-573.5"/>
<text text-anchor="start" x="1389.5" y="-587.1" font-family="Verdana" font-weight="bold" font-size="8.00">«abstract»</text>
<text text-anchor="start" x="1370" y="-579.1" font-family="Verdana" font-weight="bold" font-size="8.00">AbstractNormalizer</text>
<polygon fill="none" stroke="black" points="1261,-489.5 1261,-573.5 1566,-573.5 1566,-489.5 1261,-489.5"/>
<text text-anchor="start" x="1266" y="-562.1" font-family="Verdana" font-size="8.00">+ «static» FORMAT_SARIF : string = &quot;sarif&quot; {readOnly}</text>
<text text-anchor="start" x="1266" y="-549.1" font-family="Verdana" font-size="8.00">+ «static» FORMAT_JSON : string = &quot;json&quot; {readOnly}</text>
<text text-anchor="start" x="1266" y="-536.1" font-family="Verdana" font-size="8.00">+ «static» FORMAT_XML : string = &quot;xml&quot; {readOnly}</text>
<text text-anchor="start" x="1266" y="-523.1" font-family="Verdana" font-size="8.00">+ «static» FORMAT_CHECKSTYLE : string = &quot;checkstyle&quot; {readOnly}</text>
<text text-anchor="start" x="1266" y="-510.1" font-family="Verdana" font-size="8.00">+ «static» FORMAT_GITLAB : string = &quot;gitlab&quot; {readOnly}</text>
<text text-anchor="start" x="1266" y="-497.1" font-family="Verdana" font-size="8.00">+ «static» FORMAT_INTERNAL : string = &quot;internal&quot; {readOnly}</text>
<polygon fill="none" stroke="black" points="1261,-483.5 1261,-489.5 1566,-489.5 1566,-483.5 1261,-483.5"/>
<polygon fill="none" stroke="black" points="1261,-425.5 1261,-483.5 1566,-483.5 1566,-425.5 1261,-425.5"/>
<text text-anchor="start" x="1266" y="-472.1" font-family="Verdana" font-size="8.00">+ getSupportedFormats() : array</text>
<text text-anchor="start" x="1266" y="-459.1" font-family="Verdana" font-size="8.00">+ isSupportedFormat(format : string) : bool</text>
<text text-anchor="start" x="1266" y="-446.1" font-family="Verdana" font-size="8.00">+ normalize(data, format : string, context : array) : ?ArrayObject</text>
<text text-anchor="start" x="1266" y="-433.1" font-family="Verdana" font-size="8.00"># fromInternal(data : TData, context : array, mapping : array = []) : array</text>
</g>
<!-- Bartlett\\Sarif\\Converter\\Normalizer\\EcsNormalizer&#45;&gt;Bartlett\\Sarif\\Converter\\Normalizer\\AbstractNormalizer -->
<g id="edge6" class="edge">
<title>Bartlett\\Sarif\\Converter\\Normalizer\\EcsNormalizer&#45;&gt;Bartlett\\Sarif\\Converter\\Normalizer\\AbstractNormalizer</title>
<path fill="none" stroke="black" d="M1413,-848.43C1413,-805.29 1413,-689.42 1413,-605.6"/>
<polygon fill="none" stroke="black" points="1416.5,-605.54 1413,-595.54 1409.5,-605.54 1416.5,-605.54"/>
</g>
<!-- Bartlett\\Sarif\\Converter\\Normalizer\\AbstractNormalizer&#45;&gt;Bartlett\\Sarif\\Contract\\NormalizerInterface -->
<g id="edge5" class="edge">
<title>Bartlett\\Sarif\\Converter\\Normalizer\\AbstractNormalizer&#45;&gt;Bartlett\\Sarif\\Contract\\NormalizerInterface</title>
<path fill="none" stroke="black" stroke-dasharray="5,2" d="M1407.47,-425.44C1402.9,-355.91 1396.42,-257.47 1391.78,-186.9"/>
<polygon fill="none" stroke="black" points="1395.26,-186.45 1391.11,-176.7 1388.27,-186.91 1395.26,-186.45"/>
</g>
<!-- Bartlett\\Sarif\\Converter\\Case\\EcsHelpUriCaseConverter -->
<g id="node11" class="node">
<title>Bartlett\\Sarif\\Converter\\Case\\EcsHelpUriCaseConverter</title>
<polygon fill="#fefece" stroke="transparent" points="2238,-602 1590,-602 1590,-419 2238,-419 2238,-602"/>
<polygon fill="#eeeeee" stroke="transparent" points="1590,-579.5 1590,-601.5 2238,-601.5 2238,-579.5 1590,-579.5"/>
<polygon fill="none" stroke="black" points="1590,-579.5 1590,-601.5 2238,-601.5 2238,-579.5 1590,-579.5"/>
<text text-anchor="start" x="1856.5" y="-585.1" font-family="Verdana" font-weight="bold" font-size="8.00">EcsHelpUriCaseConverter</text>
<polygon fill="none" stroke="black" points="1590,-521.5 1590,-579.5 2238,-579.5 2238,-521.5 1590,-521.5"/>
<text text-anchor="start" x="1595" y="-568.1" font-family="Verdana" font-size="8.00">+ «static» URI_PATTERN_PHPCS : string = &quot;https\:\/\/github\.com\/PHPCSStandards\/PHP_CodeSniffer\/wiki\/Customisable\&#45;Sniff\&#45;Properties\#\%s&quot; {readOnly}</text>
<text text-anchor="start" x="1595" y="-555.1" font-family="Verdana" font-size="8.00">+ «static» URI_PATTERN_PHPCS_FIXER : string = &quot;https\:\/\/cs\.symfony\.com\/doc\/rules\/\%s\/\%s\.html&quot; {readOnly}</text>
<text text-anchor="start" x="1595" y="-542.1" font-family="Verdana" font-size="8.00">+ «static» URI_PATTERN_SYMPLIFY : string = &quot;https\:\/\/github\.com\/symplify\/coding\&#45;standard\#\%s&quot; {readOnly}</text>
<text text-anchor="start" x="1595" y="-529.1" font-family="Verdana" font-size="8.00">+ «static» URI_PATTERN_SLEVOMAT : string = &quot;https\:\/\/github\.com\/slevomat\/coding\&#45;standard\/blob\/master\/doc\/\%s\.md\#\%s\&#45;&quot; {readOnly}</text>
<polygon fill="none" stroke="black" points="1590,-502.5 1590,-521.5 2238,-521.5 2238,-502.5 1590,-502.5"/>
<text text-anchor="start" x="1595" y="-510.1" font-family="Verdana" font-size="8.00">– caseConverter</text>
<polygon fill="none" stroke="black" points="1590,-418.5 1590,-502.5 2238,-502.5 2238,-418.5 1590,-418.5"/>
<text text-anchor="start" x="1595" y="-491.1" font-family="Verdana" font-size="8.00">+ __construct(caseConverter : Jawira\CaseConverter\CaseConverterInterface = «unknown»)</text>
<text text-anchor="start" x="1595" y="-478.1" font-family="Verdana" font-size="8.00">+ convert(checkerClass : string) : string</text>
<text text-anchor="start" x="1595" y="-465.1" font-family="Verdana" font-size="8.00">– fromPhpCodeSniffer(nameParts : array) : string</text>
<text text-anchor="start" x="1595" y="-452.1" font-family="Verdana" font-size="8.00">– fromPhpCsFixer(nameParts : array) : string</text>
<text text-anchor="start" x="1595" y="-439.1" font-family="Verdana" font-size="8.00">– fromSymplify(nameParts : array) : string</text>
<text text-anchor="start" x="1595" y="-426.1" font-family="Verdana" font-size="8.00">– fromSlevomat(nameParts : array) : string</text>
</g>
<!-- Bartlett\\Sarif\\Converter\\Case\\EcsHelpUriCaseConverter&#45;&gt;Bartlett\\Sarif\\Contract\\HelpUriCaseConverterInterface -->
<g id="edge7" class="edge">
<title>Bartlett\\Sarif\\Converter\\Case\\EcsHelpUriCaseConverter&#45;&gt;Bartlett\\Sarif\\Contract\\HelpUriCaseConverterInterface</title>
<path fill="none" stroke="black" stroke-dasharray="5,2" d="M1863.9,-418.91C1813.36,-327.5 1738.11,-191.43 1704.42,-130.49"/>
<polygon fill="none" stroke="black" points="1707.47,-128.78 1699.56,-121.72 1701.34,-132.16 1707.47,-128.78"/>
</g>
</g>
</svg>
