<?xml version="1.0" encoding="UTF-8" standalone="no"?>
<!DOCTYPE svg PUBLIC "-//W3C//DTD SVG 1.1//EN"
 "http://www.w3.org/Graphics/SVG/1.1/DTD/svg11.dtd">
<!-- Generated by graphviz version 2.43.0 (0)
 -->
<!-- Title: %3 Pages: 1 -->
<svg width="1385pt" height="963pt"
 viewBox="0.00 0.00 1385.00 963.00" xmlns="http://www.w3.org/2000/svg" xmlns:xlink="http://www.w3.org/1999/xlink">
<g id="graph0" class="graph" transform="scale(1 1) rotate(0) translate(4 959)">
<title>%3</title>
<g id="clust1" class="cluster">
<title>cluster_0</title>
<polygon fill="BurlyWood" stroke="black" points="8,-219 8,-927.5 664,-927.5 664,-219 8,-219"/>
<text text-anchor="middle" x="336" y="-912.3" font-family="Times,serif" font-size="14.00">Bartlett\Sarif\Converter</text>
</g>
<g id="clust2" class="cluster">
<title>cluster_1</title>
<polygon fill="LightSkyBlue" stroke="black" points="77,-8 77,-211 1369,-211 1369,-8 77,-8"/>
<text text-anchor="middle" x="723" y="-195.8" font-family="Times,serif" font-size="14.00">Bartlett\Sarif\Contract</text>
</g>
<g id="clust3" class="cluster">
<title>cluster_2</title>
<polygon fill="Bisque" stroke="black" points="672,-420.5 672,-927.5 1014,-927.5 1014,-420.5 672,-420.5"/>
<text text-anchor="middle" x="843" y="-912.3" font-family="Times,serif" font-size="14.00">Bartlett\Sarif\Converter\Source</text>
</g>
<g id="clust4" class="cluster">
<title>cluster_3</title>
<polygon fill="Bisque" stroke="black" points="1026,-417.5 1026,-947 1348,-947 1348,-417.5 1026,-417.5"/>
<text text-anchor="middle" x="1187" y="-931.8" font-family="Times,serif" font-size="14.00">Bartlett\Sarif\Converter\Normalizer</text>
</g>
<!-- Bartlett\\Sarif\\Converter\\PhpMdConverter -->
<g id="node1" class="node">
<title>Bartlett\\Sarif\\Converter\\PhpMdConverter</title>
<polygon fill="#fefece" stroke="transparent" points="419,-896.5 253,-896.5 253,-849.5 419,-849.5 419,-896.5"/>
<polygon fill="#eeeeee" stroke="transparent" points="253,-874 253,-896 419,-896 419,-874 253,-874"/>
<polygon fill="none" stroke="black" points="253,-874 253,-896 419,-896 419,-874 253,-874"/>
<text text-anchor="start" x="297.5" y="-879.6" font-family="Verdana" font-weight="bold" font-size="8.00">PhpMdConverter</text>
<polygon fill="none" stroke="black" points="253,-868 253,-874 419,-874 419,-868 253,-868"/>
<polygon fill="none" stroke="black" points="253,-849 253,-868 419,-868 419,-849 253,-849"/>
<text text-anchor="start" x="258" y="-856.6" font-family="Verdana" font-size="8.00">+ configure(options : array = []) : void</text>
</g>
<!-- Bartlett\\Sarif\\Converter\\AbstractConverter -->
<g id="node2" class="node">
<title>Bartlett\\Sarif\\Converter\\AbstractConverter</title>
<polygon fill="#fefece" stroke="transparent" points="655.5,-794 16.5,-794 16.5,-227 655.5,-227 655.5,-794"/>
<polygon fill="#eeeeee" stroke="transparent" points="17,-771.5 17,-793.5 656,-793.5 656,-771.5 17,-771.5"/>
<polygon fill="none" stroke="black" points="17,-771.5 17,-793.5 656,-793.5 656,-771.5 17,-771.5"/>
<text text-anchor="start" x="312.5" y="-785.1" font-family="Verdana" font-weight="bold" font-size="8.00">«abstract»</text>
<text text-anchor="start" x="295.5" y="-777.1" font-family="Verdana" font-weight="bold" font-size="8.00">AbstractConverter</text>
<polygon fill="none" stroke="black" points="17,-531.5 17,-771.5 656,-771.5 656,-531.5 17,-531.5"/>
<text text-anchor="start" x="22" y="-760.1" font-family="Verdana" font-size="8.00"># toolName</text>
<text text-anchor="start" x="22" y="-747.1" font-family="Verdana" font-size="8.00"># toolFullName</text>
<text text-anchor="start" x="22" y="-734.1" font-family="Verdana" font-size="8.00"># toolShortDescription</text>
<text text-anchor="start" x="22" y="-721.1" font-family="Verdana" font-size="8.00"># toolFullDescription</text>
<text text-anchor="start" x="22" y="-708.1" font-family="Verdana" font-size="8.00"># toolInformationUri</text>
<text text-anchor="start" x="22" y="-695.1" font-family="Verdana" font-size="8.00"># toolComposerPackage</text>
<text text-anchor="start" x="22" y="-682.1" font-family="Verdana" font-size="8.00"># «static» toolVersion</text>
<text text-anchor="start" x="22" y="-669.1" font-family="Verdana" font-size="8.00"># toolSemanticVersion</text>
<text text-anchor="start" x="22" y="-656.1" font-family="Verdana" font-size="8.00"># converterComposerPackage</text>
<text text-anchor="start" x="22" y="-643.1" font-family="Verdana" font-size="8.00"># results : mixed = []</text>
<text text-anchor="start" x="22" y="-630.1" font-family="Verdana" font-size="8.00"># errors : mixed = []</text>
<text text-anchor="start" x="22" y="-617.1" font-family="Verdana" font-size="8.00"># serializer</text>
<text text-anchor="start" x="22" y="-604.1" font-family="Verdana" font-size="8.00"># startTime</text>
<text text-anchor="start" x="22" y="-591.1" font-family="Verdana" font-size="8.00"># endTime</text>
<text text-anchor="start" x="22" y="-578.1" font-family="Verdana" font-size="8.00"># includeCodeSnippets</text>
<text text-anchor="start" x="22" y="-565.1" font-family="Verdana" font-size="8.00"># includeContextRegion</text>
<text text-anchor="start" x="22" y="-552.1" font-family="Verdana" font-size="8.00"># defaultResultLevelIfEmpty</text>
<text text-anchor="start" x="22" y="-539.1" font-family="Verdana" font-size="8.00"># projectDirectory</text>
<polygon fill="none" stroke="black" points="17,-226.5 17,-531.5 656,-531.5 656,-226.5 17,-226.5"/>
<text text-anchor="start" x="22" y="-520.1" font-family="Verdana" font-size="8.00">+ __construct(options : array = [], factory : Bartlett\Sarif\Factory\SerializerFactory = «unknown»)</text>
<text text-anchor="start" x="22" y="-507.1" font-family="Verdana" font-size="8.00">+ getName() : string</text>
<text text-anchor="start" x="22" y="-494.1" font-family="Verdana" font-size="8.00">+ «static» getVersion() : string</text>
<text text-anchor="start" x="22" y="-481.1" font-family="Verdana" font-size="8.00">+ configure(options : array) : void</text>
<text text-anchor="start" x="22" y="-468.1" font-family="Verdana" font-size="8.00">+ toolDriver() : Bartlett\Sarif\Definition\ToolComponent</text>
<text text-anchor="start" x="22" y="-455.1" font-family="Verdana" font-size="8.00">+ toolExtensions() : array</text>
<text text-anchor="start" x="22" y="-442.1" font-family="Verdana" font-size="8.00">+ rules(defined : iterable) : array</text>
<text text-anchor="start" x="22" y="-429.1" font-family="Verdana" font-size="8.00">+ results(normalized : iterable) : void</text>
<text text-anchor="start" x="22" y="-416.1" font-family="Verdana" font-size="8.00">+ sarifLog(runs : array = [], version : string = &#39;2\.1\.0&#39;) : ?string</text>
<text text-anchor="start" x="22" y="-403.1" font-family="Verdana" font-size="8.00">+ invocations(properties : Bartlett\Sarif\Definition\PropertyBag = «unknown», responseFileOption : string = «unknown») : array</text>
<text text-anchor="start" x="22" y="-390.1" font-family="Verdana" font-size="8.00">+ versionControlDetails() : array</text>
<text text-anchor="start" x="22" y="-377.1" font-family="Verdana" font-size="8.00">+ automationDetails() : Bartlett\Sarif\Definition\RunAutomationDetails</text>
<text text-anchor="start" x="22" y="-364.1" font-family="Verdana" font-size="8.00">+ run(invocations : iterable, rules : iterable) : Bartlett\Sarif\Definition\Run</text>
<text text-anchor="start" x="22" y="-351.1" font-family="Verdana" font-size="8.00"># originalUriBaseIdentifiers() : array</text>
<text text-anchor="start" x="22" y="-338.1" font-family="Verdana" font-size="8.00"># getToolVersion(package : string) : string</text>
<text text-anchor="start" x="22" y="-325.1" font-family="Verdana" font-size="8.00"># pathToArtifactLocation(path : string) : string</text>
<text text-anchor="start" x="22" y="-312.1" font-family="Verdana" font-size="8.00"># pathToUri(path : string) : string</text>
<text text-anchor="start" x="22" y="-299.1" font-family="Verdana" font-size="8.00"># getCodeSnippet(filePath : string, lineNumber : int, linesBefore : int, linesAfter : int) : ?string</text>
<text text-anchor="start" x="22" y="-286.1" font-family="Verdana" font-size="8.00"># getSnippetRegion(filePath : string, lineNumber : int, column : int = «unknown», linesBefore : int = 2, linesAfter : int = 2) : Bartlett\Sarif\Definition\Region</text>
<text text-anchor="start" x="22" y="-273.1" font-family="Verdana" font-size="8.00"># getErrors() : Iterator</text>
<text text-anchor="start" x="22" y="-260.1" font-family="Verdana" font-size="8.00"># multiformatMessageString(def : mixed) : Bartlett\Sarif\Definition\MultiformatMessageString</text>
<text text-anchor="start" x="22" y="-247.1" font-family="Verdana" font-size="8.00"># message(def : mixed) : Bartlett\Sarif\Definition\Message</text>
<text text-anchor="start" x="22" y="-234.1" font-family="Verdana" font-size="8.00">– multiformatMessage(def, message) : object</text>
</g>
<!-- Bartlett\\Sarif\\Converter\\PhpMdConverter&#45;&gt;Bartlett\\Sarif\\Converter\\AbstractConverter -->
<g id="edge2" class="edge">
<title>Bartlett\\Sarif\\Converter\\PhpMdConverter&#45;&gt;Bartlett\\Sarif\\Converter\\AbstractConverter</title>
<path fill="none" stroke="black" d="M336,-849.45C336,-837.87 336,-822.42 336,-804.49"/>
<polygon fill="none" stroke="black" points="339.5,-804.27 336,-794.27 332.5,-804.27 339.5,-804.27"/>
</g>
<!-- Bartlett\\Sarif\\Contract\\ConverterInterface -->
<g id="node3" class="node">
<title>Bartlett\\Sarif\\Contract\\ConverterInterface</title>
<polygon fill="#fefece" stroke="transparent" points="662.5,-180 85.5,-180 85.5,-16 662.5,-16 662.5,-180"/>
<polygon fill="#eeeeee" stroke="transparent" points="86,-158 86,-180 663,-180 663,-158 86,-158"/>
<polygon fill="none" stroke="black" points="86,-158 86,-180 663,-180 663,-158 86,-158"/>
<text text-anchor="start" x="348.5" y="-171.6" font-family="Verdana" font-weight="bold" font-size="8.00">«interface»</text>
<text text-anchor="start" x="332" y="-163.6" font-family="Verdana" font-weight="bold" font-size="8.00">ConverterInterface</text>
<polygon fill="none" stroke="black" points="86,-152 86,-158 663,-158 663,-152 86,-152"/>
<polygon fill="none" stroke="black" points="86,-16 86,-152 663,-152 663,-16 86,-16"/>
<text text-anchor="start" x="91" y="-140.6" font-family="Verdana" font-size="8.00">+ «abstract» getName() : string</text>
<text text-anchor="start" x="91" y="-127.6" font-family="Verdana" font-size="8.00">+ «abstract» toolDriver() : Bartlett\Sarif\Definition\ToolComponent</text>
<text text-anchor="start" x="91" y="-114.6" font-family="Verdana" font-size="8.00">+ «abstract» toolExtensions() : array</text>
<text text-anchor="start" x="91" y="-101.6" font-family="Verdana" font-size="8.00">+ «abstract» rules(defined : iterable) : array</text>
<text text-anchor="start" x="91" y="-88.6" font-family="Verdana" font-size="8.00">+ «abstract» results(normalized : iterable) : void</text>
<text text-anchor="start" x="91" y="-75.6" font-family="Verdana" font-size="8.00">+ «abstract» invocations(properties : Bartlett\Sarif\Definition\PropertyBag = «unknown», responseFileOption : string = «unknown») : array</text>
<text text-anchor="start" x="91" y="-62.6" font-family="Verdana" font-size="8.00">+ «abstract» versionControlDetails() : array</text>
<text text-anchor="start" x="91" y="-49.6" font-family="Verdana" font-size="8.00">+ «abstract» automationDetails() : Bartlett\Sarif\Definition\RunAutomationDetails</text>
<text text-anchor="start" x="91" y="-36.6" font-family="Verdana" font-size="8.00">+ «abstract» run(invocations : iterable, rules : iterable) : Bartlett\Sarif\Definition\Run</text>
<text text-anchor="start" x="91" y="-23.6" font-family="Verdana" font-size="8.00">+ «abstract» sarifLog(runs : array = [], version : string = &#39;2\.1\.0&#39;) : ?string</text>
</g>
<!-- Bartlett\\Sarif\\Converter\\AbstractConverter&#45;&gt;Bartlett\\Sarif\\Contract\\ConverterInterface -->
<g id="edge1" class="edge">
<title>Bartlett\\Sarif\\Converter\\AbstractConverter&#45;&gt;Bartlett\\Sarif\\Contract\\ConverterInterface</title>
<path fill="none" stroke="black" stroke-dasharray="5,2" d="M362.16,-226.92C363.34,-214.11 364.49,-201.77 365.56,-190.15"/>
<polygon fill="none" stroke="black" points="369.05,-190.41 366.49,-180.13 362.08,-189.77 369.05,-190.41"/>
</g>
<!-- Bartlett\\Sarif\\Contract\\SourceInterface -->
<g id="node4" class="node">
<title>Bartlett\\Sarif\\Contract\\SourceInterface</title>
<polygon fill="#fefece" stroke="transparent" points="995,-154 681,-154 681,-42 995,-42 995,-154"/>
<polygon fill="#eeeeee" stroke="transparent" points="681,-132 681,-154 995,-154 995,-132 681,-132"/>
<polygon fill="none" stroke="black" points="681,-132 681,-154 995,-154 995,-132 681,-132"/>
<text text-anchor="start" x="812" y="-145.6" font-family="Verdana" font-weight="bold" font-size="8.00">«interface»</text>
<text text-anchor="start" x="802" y="-137.6" font-family="Verdana" font-weight="bold" font-size="8.00">SourceInterface</text>
<polygon fill="none" stroke="black" points="681,-126 681,-132 995,-132 995,-126 681,-126"/>
<polygon fill="none" stroke="black" points="681,-42 681,-126 995,-126 995,-42 681,-42"/>
<text text-anchor="start" x="686" y="-114.6" font-family="Verdana" font-size="8.00">+ «abstract» getName() : string</text>
<text text-anchor="start" x="686" y="-101.6" font-family="Verdana" font-size="8.00">+ «abstract» getFiles() : Iterator</text>
<text text-anchor="start" x="686" y="-88.6" font-family="Verdana" font-size="8.00">+ «abstract» getErrors() : Iterator</text>
<text text-anchor="start" x="686" y="-75.6" font-family="Verdana" font-size="8.00">+ «abstract» getRules() : Iterator</text>
<text text-anchor="start" x="686" y="-62.6" font-family="Verdana" font-size="8.00">+ «abstract» getAttribute(name : string) : Iterator</text>
<text text-anchor="start" x="686" y="-49.6" font-family="Verdana" font-size="8.00">+ «abstract» normalize(data : mixed, format : string, context : array) : bool</text>
</g>
<!-- Bartlett\\Sarif\\Contract\\NormalizerInterface -->
<g id="node5" class="node">
<title>Bartlett\\Sarif\\Contract\\NormalizerInterface</title>
<polygon fill="#fefece" stroke="transparent" points="1361,-176.5 1013,-176.5 1013,-19.5 1361,-19.5 1361,-176.5"/>
<polygon fill="#eeeeee" stroke="transparent" points="1013,-154 1013,-176 1361,-176 1361,-154 1013,-154"/>
<polygon fill="none" stroke="black" points="1013,-154 1013,-176 1361,-176 1361,-154 1013,-154"/>
<text text-anchor="start" x="1161" y="-167.6" font-family="Verdana" font-weight="bold" font-size="8.00">«interface»</text>
<text text-anchor="start" x="1142" y="-159.6" font-family="Verdana" font-weight="bold" font-size="8.00">NormalizerInterface</text>
<polygon fill="none" stroke="black" points="1013,-70 1013,-154 1361,-154 1361,-70 1013,-70"/>
<text text-anchor="start" x="1018" y="-142.6" font-family="Verdana" font-size="8.00">+ «static» FORMAT_SARIF : string = &quot;sarif&quot; {readOnly}</text>
<text text-anchor="start" x="1018" y="-129.6" font-family="Verdana" font-size="8.00">+ «static» FORMAT_JSON : string = &quot;json&quot; {readOnly}</text>
<text text-anchor="start" x="1018" y="-116.6" font-family="Verdana" font-size="8.00">+ «static» FORMAT_XML : string = &quot;xml&quot; {readOnly}</text>
<text text-anchor="start" x="1018" y="-103.6" font-family="Verdana" font-size="8.00">+ «static» FORMAT_CHECKSTYLE : string = &quot;checkstyle&quot; {readOnly}</text>
<text text-anchor="start" x="1018" y="-90.6" font-family="Verdana" font-size="8.00">+ «static» FORMAT_GITLAB : string = &quot;gitlab&quot; {readOnly}</text>
<text text-anchor="start" x="1018" y="-77.6" font-family="Verdana" font-size="8.00">+ «static» FORMAT_INTERNAL : string = &quot;internal&quot; {readOnly}</text>
<polygon fill="none" stroke="black" points="1013,-64 1013,-70 1361,-70 1361,-64 1013,-64"/>
<polygon fill="none" stroke="black" points="1013,-19 1013,-64 1361,-64 1361,-19 1013,-19"/>
<text text-anchor="start" x="1018" y="-52.6" font-family="Verdana" font-size="8.00">+ «abstract» getSupportedFormats() : array</text>
<text text-anchor="start" x="1018" y="-39.6" font-family="Verdana" font-size="8.00">+ «abstract» isSupportedFormat(format : string) : bool</text>
<text text-anchor="start" x="1018" y="-26.6" font-family="Verdana" font-size="8.00">+ «abstract» normalize(data : mixed, format : string, context : array) : ?ArrayObject</text>
</g>
<!-- Bartlett\\Sarif\\Converter\\Source\\PhpMdSource -->
<g id="node6" class="node">
<title>Bartlett\\Sarif\\Converter\\Source\\PhpMdSource</title>
<polygon fill="#fefece" stroke="transparent" points="931,-896.5 755,-896.5 755,-849.5 931,-849.5 931,-896.5"/>
<polygon fill="#eeeeee" stroke="transparent" points="755,-874 755,-896 931,-896 931,-874 755,-874"/>
<polygon fill="none" stroke="black" points="755,-874 755,-896 931,-896 931,-874 755,-874"/>
<text text-anchor="start" x="811" y="-879.6" font-family="Verdana" font-weight="bold" font-size="8.00">PhpMdSource</text>
<polygon fill="none" stroke="black" points="755,-868 755,-874 931,-874 931,-868 755,-868"/>
<polygon fill="none" stroke="black" points="755,-849 755,-868 931,-868 931,-849 755,-849"/>
<text text-anchor="start" x="760" y="-856.6" font-family="Verdana" font-size="8.00">+ __construct(normalizers : iterable = [])</text>
</g>
<!-- Bartlett\\Sarif\\Converter\\Source\\AbstractSource -->
<g id="node7" class="node">
<title>Bartlett\\Sarif\\Converter\\Source\\AbstractSource</title>
<polygon fill="#fefece" stroke="transparent" points="1006,-592.5 680,-592.5 680,-428.5 1006,-428.5 1006,-592.5"/>
<polygon fill="#eeeeee" stroke="transparent" points="680,-570.5 680,-592.5 1006,-592.5 1006,-570.5 680,-570.5"/>
<polygon fill="none" stroke="black" points="680,-570.5 680,-592.5 1006,-592.5 1006,-570.5 680,-570.5"/>
<text text-anchor="start" x="819" y="-584.1" font-family="Verdana" font-weight="bold" font-size="8.00">«abstract»</text>
<text text-anchor="start" x="808.5" y="-576.1" font-family="Verdana" font-weight="bold" font-size="8.00">AbstractSource</text>
<polygon fill="none" stroke="black" points="680,-538.5 680,-570.5 1006,-570.5 1006,-538.5 680,-538.5"/>
<text text-anchor="start" x="685" y="-559.1" font-family="Verdana" font-size="8.00">– normalizers : mixed</text>
<text text-anchor="start" x="685" y="-546.1" font-family="Verdana" font-size="8.00">– normalized</text>
<polygon fill="none" stroke="black" points="680,-428.5 680,-538.5 1006,-538.5 1006,-428.5 680,-428.5"/>
<text text-anchor="start" x="685" y="-527.1" font-family="Verdana" font-size="8.00">+ __construct(normalizers : iterable = [])</text>
<text text-anchor="start" x="685" y="-514.1" font-family="Verdana" font-size="8.00">+ getName() : string</text>
<text text-anchor="start" x="685" y="-501.1" font-family="Verdana" font-size="8.00">+ getFiles() : Iterator</text>
<text text-anchor="start" x="685" y="-488.1" font-family="Verdana" font-size="8.00">+ getErrors() : Iterator</text>
<text text-anchor="start" x="685" y="-475.1" font-family="Verdana" font-size="8.00">+ getRules() : Iterator</text>
<text text-anchor="start" x="685" y="-462.1" font-family="Verdana" font-size="8.00">+ getAttribute(name : string) : Iterator</text>
<text text-anchor="start" x="685" y="-449.1" font-family="Verdana" font-size="8.00">+ normalize(data : mixed, format : string, context : array) : bool</text>
<text text-anchor="start" x="685" y="-436.1" font-family="Verdana" font-size="8.00"># getNormalizer(format : string) : ?Bartlett\Sarif\Contract\NormalizerInterface</text>
</g>
<!-- Bartlett\\Sarif\\Converter\\Source\\PhpMdSource&#45;&gt;Bartlett\\Sarif\\Converter\\Source\\AbstractSource -->
<g id="edge4" class="edge">
<title>Bartlett\\Sarif\\Converter\\Source\\PhpMdSource&#45;&gt;Bartlett\\Sarif\\Converter\\Source\\AbstractSource</title>
<path fill="none" stroke="black" d="M843,-849.45C843,-801.14 843,-685.33 843,-602.77"/>
<polygon fill="none" stroke="black" points="846.5,-602.62 843,-592.62 839.5,-602.62 846.5,-602.62"/>
</g>
<!-- Bartlett\\Sarif\\Converter\\Source\\AbstractSource&#45;&gt;Bartlett\\Sarif\\Contract\\SourceInterface -->
<g id="edge3" class="edge">
<title>Bartlett\\Sarif\\Converter\\Source\\AbstractSource&#45;&gt;Bartlett\\Sarif\\Contract\\SourceInterface</title>
<path fill="none" stroke="black" stroke-dasharray="5,2" d="M842.01,-428.4C841.07,-351.01 839.67,-235.9 838.79,-164.26"/>
<polygon fill="none" stroke="black" points="842.29,-163.97 838.67,-154.01 835.29,-164.06 842.29,-163.97"/>
</g>
<!-- Bartlett\\Sarif\\Converter\\Normalizer\\PhpMdNormalizer -->
<g id="node8" class="node">
<title>Bartlett\\Sarif\\Converter\\Normalizer\\PhpMdNormalizer</title>
<polygon fill="#fefece" stroke="transparent" points="1323,-916 1051,-916 1051,-830 1323,-830 1323,-916"/>
<polygon fill="#eeeeee" stroke="transparent" points="1051,-894 1051,-916 1323,-916 1323,-894 1051,-894"/>
<polygon fill="none" stroke="black" points="1051,-894 1051,-916 1323,-916 1323,-894 1051,-894"/>
<text text-anchor="start" x="1146" y="-899.6" font-family="Verdana" font-weight="bold" font-size="8.00">PhpMdNormalizer</text>
<polygon fill="none" stroke="black" points="1051,-888 1051,-894 1323,-894 1323,-888 1051,-888"/>
<polygon fill="none" stroke="black" points="1051,-830 1051,-888 1323,-888 1323,-830 1051,-830"/>
<text text-anchor="start" x="1056" y="-876.6" font-family="Verdana" font-size="8.00">+ getSupportedFormats() : array</text>
<text text-anchor="start" x="1056" y="-863.6" font-family="Verdana" font-size="8.00">+ normalize(data, format : string, context : array) : ?ArrayObject</text>
<text text-anchor="start" x="1056" y="-850.6" font-family="Verdana" font-size="8.00">– fromCheckstyle(data : ArrayObject) : array</text>
<text text-anchor="start" x="1056" y="-837.6" font-family="Verdana" font-size="8.00"># fromInternal(data, context : array, mapping : array = []) : array</text>
</g>
<!-- Bartlett\\Sarif\\Converter\\Normalizer\\AbstractNormalizer -->
<g id="node9" class="node">
<title>Bartlett\\Sarif\\Converter\\Normalizer\\AbstractNormalizer</title>
<polygon fill="#fefece" stroke="transparent" points="1339.5,-595.5 1034.5,-595.5 1034.5,-425.5 1339.5,-425.5 1339.5,-595.5"/>
<polygon fill="#eeeeee" stroke="transparent" points="1035,-573.5 1035,-595.5 1340,-595.5 1340,-573.5 1035,-573.5"/>
<polygon fill="none" stroke="black" points="1035,-573.5 1035,-595.5 1340,-595.5 1340,-573.5 1035,-573.5"/>
<text text-anchor="start" x="1163.5" y="-587.1" font-family="Verdana" font-weight="bold" font-size="8.00">«abstract»</text>
<text text-anchor="start" x="1144" y="-579.1" font-family="Verdana" font-weight="bold" font-size="8.00">AbstractNormalizer</text>
<polygon fill="none" stroke="black" points="1035,-489.5 1035,-573.5 1340,-573.5 1340,-489.5 1035,-489.5"/>
<text text-anchor="start" x="1040" y="-562.1" font-family="Verdana" font-size="8.00">+ «static» FORMAT_SARIF : string = &quot;sarif&quot; {readOnly}</text>
<text text-anchor="start" x="1040" y="-549.1" font-family="Verdana" font-size="8.00">+ «static» FORMAT_JSON : string = &quot;json&quot; {readOnly}</text>
<text text-anchor="start" x="1040" y="-536.1" font-family="Verdana" font-size="8.00">+ «static» FORMAT_XML : string = &quot;xml&quot; {readOnly}</text>
<text text-anchor="start" x="1040" y="-523.1" font-family="Verdana" font-size="8.00">+ «static» FORMAT_CHECKSTYLE : string = &quot;checkstyle&quot; {readOnly}</text>
<text text-anchor="start" x="1040" y="-510.1" font-family="Verdana" font-size="8.00">+ «static» FORMAT_GITLAB : string = &quot;gitlab&quot; {readOnly}</text>
<text text-anchor="start" x="1040" y="-497.1" font-family="Verdana" font-size="8.00">+ «static» FORMAT_INTERNAL : string = &quot;internal&quot; {readOnly}</text>
<polygon fill="none" stroke="black" points="1035,-483.5 1035,-489.5 1340,-489.5 1340,-483.5 1035,-483.5"/>
<polygon fill="none" stroke="black" points="1035,-425.5 1035,-483.5 1340,-483.5 1340,-425.5 1035,-425.5"/>
<text text-anchor="start" x="1040" y="-472.1" font-family="Verdana" font-size="8.00">+ getSupportedFormats() : array</text>
<text text-anchor="start" x="1040" y="-459.1" font-family="Verdana" font-size="8.00">+ isSupportedFormat(format : string) : bool</text>
<text text-anchor="start" x="1040" y="-446.1" font-family="Verdana" font-size="8.00">+ normalize(data, format : string, context : array) : ?ArrayObject</text>
<text text-anchor="start" x="1040" y="-433.1" font-family="Verdana" font-size="8.00"># fromInternal(data : TData, context : array, mapping : array = []) : array</text>
</g>
<!-- Bartlett\\Sarif\\Converter\\Normalizer\\PhpMdNormalizer&#45;&gt;Bartlett\\Sarif\\Converter\\Normalizer\\AbstractNormalizer -->
<g id="edge6" class="edge">
<title>Bartlett\\Sarif\\Converter\\Normalizer\\PhpMdNormalizer&#45;&gt;Bartlett\\Sarif\\Converter\\Normalizer\\AbstractNormalizer</title>
<path fill="none" stroke="black" d="M1187,-829.94C1187,-775.3 1187,-678.33 1187,-605.71"/>
<polygon fill="none" stroke="black" points="1190.5,-605.63 1187,-595.63 1183.5,-605.63 1190.5,-605.63"/>
</g>
<!-- Bartlett\\Sarif\\Converter\\Normalizer\\AbstractNormalizer&#45;&gt;Bartlett\\Sarif\\Contract\\NormalizerInterface -->
<g id="edge5" class="edge">
<title>Bartlett\\Sarif\\Converter\\Normalizer\\AbstractNormalizer&#45;&gt;Bartlett\\Sarif\\Contract\\NormalizerInterface</title>
<path fill="none" stroke="black" stroke-dasharray="5,2" d="M1187,-425.44C1187,-355.91 1187,-257.47 1187,-186.9"/>
<polygon fill="none" stroke="black" points="1190.5,-186.7 1187,-176.7 1183.5,-186.7 1190.5,-186.7"/>
</g>
</g>
</svg>
