<?xml version="1.0" encoding="UTF-8" standalone="no"?>
<!DOCTYPE svg PUBLIC "-//W3C//DTD SVG 1.1//EN"
 "http://www.w3.org/Graphics/SVG/1.1/DTD/svg11.dtd">
<!-- Generated by graphviz version 2.43.0 (0)
 -->
<!-- Title: %3 Pages: 1 -->
<svg width="1974pt" height="950pt"
 viewBox="0.00 0.00 1974.00 950.00" xmlns="http://www.w3.org/2000/svg" xmlns:xlink="http://www.w3.org/1999/xlink">
<g id="graph0" class="graph" transform="scale(1 1) rotate(0) translate(4 946)">
<title>%3</title>
<g id="clust1" class="cluster">
<title>cluster_0</title>
<polygon fill="BurlyWood" stroke="black" points="8,-219 8,-921 664,-921 664,-219 8,-219"/>
<text text-anchor="middle" x="336" y="-905.8" font-family="Times,serif" font-size="14.00">Bartlett\Sarif\Converter</text>
</g>
<g id="clust2" class="cluster">
<title>cluster_1</title>
<polygon fill="LightSkyBlue" stroke="black" points="79,-8 79,-211 1607,-211 1607,-8 79,-8"/>
<text text-anchor="middle" x="843" y="-195.8" font-family="Times,serif" font-size="14.00">Bartlett\Sarif\Contract</text>
</g>
<g id="clust3" class="cluster">
<title>cluster_2</title>
<polygon fill="Bisque" stroke="black" points="672,-420.5 672,-934 1014,-934 1014,-420.5 672,-420.5"/>
<text text-anchor="middle" x="843" y="-918.8" font-family="Times,serif" font-size="14.00">Bartlett\Sarif\Converter\Source</text>
</g>
<g id="clust4" class="cluster">
<title>cluster_3</title>
<polygon fill="Bisque" stroke="black" points="1026,-417.5 1026,-934 1348,-934 1348,-417.5 1026,-417.5"/>
<text text-anchor="middle" x="1187" y="-918.8" font-family="Times,serif" font-size="14.00">Bartlett\Sarif\Converter\Normalizer</text>
</g>
<g id="clust5" class="cluster">
<title>cluster_4</title>
<polygon fill="transparent" stroke="black" points="1356,-443.5 1356,-600.5 1958,-600.5 1958,-443.5 1356,-443.5"/>
<text text-anchor="middle" x="1657" y="-585.3" font-family="Times,serif" font-size="14.00">Bartlett\Sarif\Converter\Case</text>
</g>
<!-- Bartlett\\Sarif\\Converter\\MagoConverter -->
<g id="node1" class="node">
<title>Bartlett\\Sarif\\Converter\\MagoConverter</title>
<polygon fill="#fefece" stroke="transparent" points="419,-890 253,-890 253,-843 419,-843 419,-890"/>
<polygon fill="#eeeeee" stroke="transparent" points="253,-867.5 253,-889.5 419,-889.5 419,-867.5 253,-867.5"/>
<polygon fill="none" stroke="black" points="253,-867.5 253,-889.5 419,-889.5 419,-867.5 253,-867.5"/>
<text text-anchor="start" x="301" y="-873.1" font-family="Verdana" font-weight="bold" font-size="8.00">MagoConverter</text>
<polygon fill="none" stroke="black" points="253,-861.5 253,-867.5 419,-867.5 419,-861.5 253,-861.5"/>
<polygon fill="none" stroke="black" points="253,-842.5 253,-861.5 419,-861.5 419,-842.5 253,-842.5"/>
<text text-anchor="start" x="258" y="-850.1" font-family="Verdana" font-size="8.00">+ configure(options : array = []) : void</text>
</g>
<!-- Bartlett\\Sarif\\Converter\\AbstractConverter -->
<g id="node2" class="node">
<title>Bartlett\\Sarif\\Converter\\AbstractConverter</title>
<polygon fill="#fefece" stroke="transparent" points="655.5,-794 16.5,-794 16.5,-227 655.5,-227 655.5,-794"/>
<polygon fill="#eeeeee" stroke="transparent" points="17,-771.5 17,-793.5 656,-793.5 656,-771.5 17,-771.5"/>
<polygon fill="none" stroke="black" points="17,-771.5 17,-793.5 656,-793.5 656,-771.5 17,-771.5"/>
<text text-anchor="start" x="312.5" y="-785.1" font-family="Verdana" font-weight="bold" font-size="8.00">«abstract»</text>
<text text-anchor="start" x="295.5" y="-777.1" font-family="Verdana" font-weight="bold" font-size="8.00">AbstractConverter</text>
<polygon fill="none" stroke="black" points="17,-531.5 17,-771.5 656,-771.5 656,-531.5 17,-531.5"/>
<text text-anchor="start" x="22" y="-760.1" font-family="Verdana" font-size="8.00"># toolName</text>
<text text-anchor="start" x="22" y="-747.1" font-family="Verdana" font-size="8.00"># toolFullName</text>
<text text-anchor="start" x="22" y="-734.1" font-family="Verdana" font-size="8.00"># toolShortDescription</text>
<text text-anchor="start" x="22" y="-721.1" font-family="Verdana" font-size="8.00"># toolFullDescription</text>
<text text-anchor="start" x="22" y="-708.1" font-family="Verdana" font-size="8.00"># toolInformationUri</text>
<text text-anchor="start" x="22" y="-695.1" font-family="Verdana" font-size="8.00"># toolComposerPackage</text>
<text text-anchor="start" x="22" y="-682.1" font-family="Verdana" font-size="8.00"># «static» toolVersion</text>
<text text-anchor="start" x="22" y="-669.1" font-family="Verdana" font-size="8.00"># toolSemanticVersion</text>
<text text-anchor="start" x="22" y="-656.1" font-family="Verdana" font-size="8.00"># converterComposerPackage</text>
<text text-anchor="start" x="22" y="-643.1" font-family="Verdana" font-size="8.00"># results : mixed = []</text>
<text text-anchor="start" x="22" y="-630.1" font-family="Verdana" font-size="8.00"># errors : mixed = []</text>
<text text-anchor="start" x="22" y="-617.1" font-family="Verdana" font-size="8.00"># serializer</text>
<text text-anchor="start" x="22" y="-604.1" font-family="Verdana" font-size="8.00"># startTime</text>
<text text-anchor="start" x="22" y="-591.1" font-family="Verdana" font-size="8.00"># endTime</text>
<text text-anchor="start" x="22" y="-578.1" font-family="Verdana" font-size="8.00"># includeCodeSnippets</text>
<text text-anchor="start" x="22" y="-565.1" font-family="Verdana" font-size="8.00"># includeContextRegion</text>
<text text-anchor="start" x="22" y="-552.1" font-family="Verdana" font-size="8.00"># defaultResultLevelIfEmpty</text>
<text text-anchor="start" x="22" y="-539.1" font-family="Verdana" font-size="8.00"># projectDirectory</text>
<polygon fill="none" stroke="black" points="17,-226.5 17,-531.5 656,-531.5 656,-226.5 17,-226.5"/>
<text text-anchor="start" x="22" y="-520.1" font-family="Verdana" font-size="8.00">+ __construct(options : array = [], factory : Bartlett\Sarif\Factory\SerializerFactory = «unknown»)</text>
<text text-anchor="start" x="22" y="-507.1" font-family="Verdana" font-size="8.00">+ getName() : string</text>
<text text-anchor="start" x="22" y="-494.1" font-family="Verdana" font-size="8.00">+ «static» getVersion() : string</text>
<text text-anchor="start" x="22" y="-481.1" font-family="Verdana" font-size="8.00">+ configure(options : array) : void</text>
<text text-anchor="start" x="22" y="-468.1" font-family="Verdana" font-size="8.00">+ toolDriver() : Bartlett\Sarif\Definition\ToolComponent</text>
<text text-anchor="start" x="22" y="-455.1" font-family="Verdana" font-size="8.00">+ toolExtensions() : array</text>
<text text-anchor="start" x="22" y="-442.1" font-family="Verdana" font-size="8.00">+ rules(defined : iterable) : array</text>
<text text-anchor="start" x="22" y="-429.1" font-family="Verdana" font-size="8.00">+ results(normalized : iterable) : void</text>
<text text-anchor="start" x="22" y="-416.1" font-family="Verdana" font-size="8.00">+ sarifLog(runs : array = [], version : string = &#39;2\.1\.0&#39;) : ?string</text>
<text text-anchor="start" x="22" y="-403.1" font-family="Verdana" font-size="8.00">+ invocations(properties : Bartlett\Sarif\Definition\PropertyBag = «unknown», responseFileOption : string = «unknown») : array</text>
<text text-anchor="start" x="22" y="-390.1" font-family="Verdana" font-size="8.00">+ versionControlDetails() : array</text>
<text text-anchor="start" x="22" y="-377.1" font-family="Verdana" font-size="8.00">+ automationDetails() : Bartlett\Sarif\Definition\RunAutomationDetails</text>
<text text-anchor="start" x="22" y="-364.1" font-family="Verdana" font-size="8.00">+ run(invocations : iterable, rules : iterable) : Bartlett\Sarif\Definition\Run</text>
<text text-anchor="start" x="22" y="-351.1" font-family="Verdana" font-size="8.00"># originalUriBaseIdentifiers() : array</text>
<text text-anchor="start" x="22" y="-338.1" font-family="Verdana" font-size="8.00"># getToolVersion(package : string) : string</text>
<text text-anchor="start" x="22" y="-325.1" font-family="Verdana" font-size="8.00"># pathToArtifactLocation(path : string) : string</text>
<text text-anchor="start" x="22" y="-312.1" font-family="Verdana" font-size="8.00"># pathToUri(path : string) : string</text>
<text text-anchor="start" x="22" y="-299.1" font-family="Verdana" font-size="8.00"># getCodeSnippet(filePath : string, lineNumber : int, linesBefore : int, linesAfter : int) : ?string</text>
<text text-anchor="start" x="22" y="-286.1" font-family="Verdana" font-size="8.00"># getSnippetRegion(filePath : string, lineNumber : int, column : int = «unknown», linesBefore : int = 2, linesAfter : int = 2) : Bartlett\Sarif\Definition\Region</text>
<text text-anchor="start" x="22" y="-273.1" font-family="Verdana" font-size="8.00"># getErrors() : Iterator</text>
<text text-anchor="start" x="22" y="-260.1" font-family="Verdana" font-size="8.00"># multiformatMessageString(def : mixed) : Bartlett\Sarif\Definition\MultiformatMessageString</text>
<text text-anchor="start" x="22" y="-247.1" font-family="Verdana" font-size="8.00"># message(def : mixed) : Bartlett\Sarif\Definition\Message</text>
<text text-anchor="start" x="22" y="-234.1" font-family="Verdana" font-size="8.00">– multiformatMessage(def, message) : object</text>
</g>
<!-- Bartlett\\Sarif\\Converter\\MagoConverter&#45;&gt;Bartlett\\Sarif\\Converter\\AbstractConverter -->
<g id="edge2" class="edge">
<title>Bartlett\\Sarif\\Converter\\MagoConverter&#45;&gt;Bartlett\\Sarif\\Converter\\AbstractConverter</title>
<path fill="none" stroke="black" d="M336,-842.82C336,-832.68 336,-819.59 336,-804.49"/>
<polygon fill="none" stroke="black" points="339.5,-804.29 336,-794.29 332.5,-804.29 339.5,-804.29"/>
</g>
<!-- Bartlett\\Sarif\\Contract\\ConverterInterface -->
<g id="node3" class="node">
<title>Bartlett\\Sarif\\Contract\\ConverterInterface</title>
<polygon fill="#fefece" stroke="transparent" points="664.5,-180 87.5,-180 87.5,-16 664.5,-16 664.5,-180"/>
<polygon fill="#eeeeee" stroke="transparent" points="88,-158 88,-180 665,-180 665,-158 88,-158"/>
<polygon fill="none" stroke="black" points="88,-158 88,-180 665,-180 665,-158 88,-158"/>
<text text-anchor="start" x="350.5" y="-171.6" font-family="Verdana" font-weight="bold" font-size="8.00">«interface»</text>
<text text-anchor="start" x="334" y="-163.6" font-family="Verdana" font-weight="bold" font-size="8.00">ConverterInterface</text>
<polygon fill="none" stroke="black" points="88,-152 88,-158 665,-158 665,-152 88,-152"/>
<polygon fill="none" stroke="black" points="88,-16 88,-152 665,-152 665,-16 88,-16"/>
<text text-anchor="start" x="93" y="-140.6" font-family="Verdana" font-size="8.00">+ «abstract» getName() : string</text>
<text text-anchor="start" x="93" y="-127.6" font-family="Verdana" font-size="8.00">+ «abstract» toolDriver() : Bartlett\Sarif\Definition\ToolComponent</text>
<text text-anchor="start" x="93" y="-114.6" font-family="Verdana" font-size="8.00">+ «abstract» toolExtensions() : array</text>
<text text-anchor="start" x="93" y="-101.6" font-family="Verdana" font-size="8.00">+ «abstract» rules(defined : iterable) : array</text>
<text text-anchor="start" x="93" y="-88.6" font-family="Verdana" font-size="8.00">+ «abstract» results(normalized : iterable) : void</text>
<text text-anchor="start" x="93" y="-75.6" font-family="Verdana" font-size="8.00">+ «abstract» invocations(properties : Bartlett\Sarif\Definition\PropertyBag = «unknown», responseFileOption : string = «unknown») : array</text>
<text text-anchor="start" x="93" y="-62.6" font-family="Verdana" font-size="8.00">+ «abstract» versionControlDetails() : array</text>
<text text-anchor="start" x="93" y="-49.6" font-family="Verdana" font-size="8.00">+ «abstract» automationDetails() : Bartlett\Sarif\Definition\RunAutomationDetails</text>
<text text-anchor="start" x="93" y="-36.6" font-family="Verdana" font-size="8.00">+ «abstract» run(invocations : iterable, rules : iterable) : Bartlett\Sarif\Definition\Run</text>
<text text-anchor="start" x="93" y="-23.6" font-family="Verdana" font-size="8.00">+ «abstract» sarifLog(runs : array = [], version : string = &#39;2\.1\.0&#39;) : ?string</text>
</g>
<!-- Bartlett\\Sarif\\Converter\\AbstractConverter&#45;&gt;Bartlett\\Sarif\\Contract\\ConverterInterface -->
<g id="edge1" class="edge">
<title>Bartlett\\Sarif\\Converter\\AbstractConverter&#45;&gt;Bartlett\\Sarif\\Contract\\ConverterInterface</title>
<path fill="none" stroke="black" stroke-dasharray="5,2" d="M363.54,-226.92C364.78,-214.11 365.99,-201.77 367.12,-190.15"/>
<polygon fill="none" stroke="black" points="370.61,-190.43 368.09,-180.13 363.64,-189.75 370.61,-190.43"/>
</g>
<!-- Bartlett\\Sarif\\Contract\\SourceInterface -->
<g id="node4" class="node">
<title>Bartlett\\Sarif\\Contract\\SourceInterface</title>
<polygon fill="#fefece" stroke="transparent" points="997,-154 683,-154 683,-42 997,-42 997,-154"/>
<polygon fill="#eeeeee" stroke="transparent" points="683,-132 683,-154 997,-154 997,-132 683,-132"/>
<polygon fill="none" stroke="black" points="683,-132 683,-154 997,-154 997,-132 683,-132"/>
<text text-anchor="start" x="814" y="-145.6" font-family="Verdana" font-weight="bold" font-size="8.00">«interface»</text>
<text text-anchor="start" x="804" y="-137.6" font-family="Verdana" font-weight="bold" font-size="8.00">SourceInterface</text>
<polygon fill="none" stroke="black" points="683,-126 683,-132 997,-132 997,-126 683,-126"/>
<polygon fill="none" stroke="black" points="683,-42 683,-126 997,-126 997,-42 683,-42"/>
<text text-anchor="start" x="688" y="-114.6" font-family="Verdana" font-size="8.00">+ «abstract» getName() : string</text>
<text text-anchor="start" x="688" y="-101.6" font-family="Verdana" font-size="8.00">+ «abstract» getFiles() : Iterator</text>
<text text-anchor="start" x="688" y="-88.6" font-family="Verdana" font-size="8.00">+ «abstract» getErrors() : Iterator</text>
<text text-anchor="start" x="688" y="-75.6" font-family="Verdana" font-size="8.00">+ «abstract» getRules() : Iterator</text>
<text text-anchor="start" x="688" y="-62.6" font-family="Verdana" font-size="8.00">+ «abstract» getAttribute(name : string) : Iterator</text>
<text text-anchor="start" x="688" y="-49.6" font-family="Verdana" font-size="8.00">+ «abstract» normalize(data : mixed, format : string, context : array) : bool</text>
</g>
<!-- Bartlett\\Sarif\\Contract\\NormalizerInterface -->
<g id="node5" class="node">
<title>Bartlett\\Sarif\\Contract\\NormalizerInterface</title>
<polygon fill="#fefece" stroke="transparent" points="1363,-176.5 1015,-176.5 1015,-19.5 1363,-19.5 1363,-176.5"/>
<polygon fill="#eeeeee" stroke="transparent" points="1015,-154 1015,-176 1363,-176 1363,-154 1015,-154"/>
<polygon fill="none" stroke="black" points="1015,-154 1015,-176 1363,-176 1363,-154 1015,-154"/>
<text text-anchor="start" x="1163" y="-167.6" font-family="Verdana" font-weight="bold" font-size="8.00">«interface»</text>
<text text-anchor="start" x="1144" y="-159.6" font-family="Verdana" font-weight="bold" font-size="8.00">NormalizerInterface</text>
<polygon fill="none" stroke="black" points="1015,-70 1015,-154 1363,-154 1363,-70 1015,-70"/>
<text text-anchor="start" x="1020" y="-142.6" font-family="Verdana" font-size="8.00">+ «static» FORMAT_SARIF : string = &quot;sarif&quot; {readOnly}</text>
<text text-anchor="start" x="1020" y="-129.6" font-family="Verdana" font-size="8.00">+ «static» FORMAT_JSON : string = &quot;json&quot; {readOnly}</text>
<text text-anchor="start" x="1020" y="-116.6" font-family="Verdana" font-size="8.00">+ «static» FORMAT_XML : string = &quot;xml&quot; {readOnly}</text>
<text text-anchor="start" x="1020" y="-103.6" font-family="Verdana" font-size="8.00">+ «static» FORMAT_CHECKSTYLE : string = &quot;checkstyle&quot; {readOnly}</text>
<text text-anchor="start" x="1020" y="-90.6" font-family="Verdana" font-size="8.00">+ «static» FORMAT_GITLAB : string = &quot;gitlab&quot; {readOnly}</text>
<text text-anchor="start" x="1020" y="-77.6" font-family="Verdana" font-size="8.00">+ «static» FORMAT_INTERNAL : string = &quot;internal&quot; {readOnly}</text>
<polygon fill="none" stroke="black" points="1015,-64 1015,-70 1363,-70 1363,-64 1015,-64"/>
<polygon fill="none" stroke="black" points="1015,-19 1015,-64 1363,-64 1363,-19 1015,-19"/>
<text text-anchor="start" x="1020" y="-52.6" font-family="Verdana" font-size="8.00">+ «abstract» getSupportedFormats() : array</text>
<text text-anchor="start" x="1020" y="-39.6" font-family="Verdana" font-size="8.00">+ «abstract» isSupportedFormat(format : string) : bool</text>
<text text-anchor="start" x="1020" y="-26.6" font-family="Verdana" font-size="8.00">+ «abstract» normalize(data : mixed, format : string, context : array) : ?ArrayObject</text>
</g>
<!-- Bartlett\\Sarif\\Contract\\HelpUriCaseConverterInterface -->
<g id="node6" class="node">
<title>Bartlett\\Sarif\\Contract\\HelpUriCaseConverterInterface</title>
<polygon fill="#fefece" stroke="transparent" points="1599,-121.5 1381,-121.5 1381,-74.5 1599,-74.5 1599,-121.5"/>
<polygon fill="#eeeeee" stroke="transparent" points="1381,-99 1381,-121 1599,-121 1599,-99 1381,-99"/>
<polygon fill="none" stroke="black" points="1381,-99 1381,-121 1599,-121 1599,-99 1381,-99"/>
<text text-anchor="start" x="1464" y="-112.6" font-family="Verdana" font-weight="bold" font-size="8.00">«interface»</text>
<text text-anchor="start" x="1419.5" y="-104.6" font-family="Verdana" font-weight="bold" font-size="8.00">HelpUriCaseConverterInterface</text>
<polygon fill="none" stroke="black" points="1381,-93 1381,-99 1599,-99 1599,-93 1381,-93"/>
<polygon fill="none" stroke="black" points="1381,-74 1381,-93 1599,-93 1599,-74 1381,-74"/>
<text text-anchor="start" x="1386" y="-81.6" font-family="Verdana" font-size="8.00">+ «abstract» convert(checkerClass : string) : string</text>
</g>
<!-- Bartlett\\Sarif\\Converter\\Source\\MagoSource -->
<g id="node7" class="node">
<title>Bartlett\\Sarif\\Converter\\Source\\MagoSource</title>
<polygon fill="#fefece" stroke="transparent" points="931,-903 755,-903 755,-830 931,-830 931,-903"/>
<polygon fill="#eeeeee" stroke="transparent" points="755,-880.5 755,-902.5 931,-902.5 931,-880.5 755,-880.5"/>
<polygon fill="none" stroke="black" points="755,-880.5 755,-902.5 931,-902.5 931,-880.5 755,-880.5"/>
<text text-anchor="start" x="815" y="-886.1" font-family="Verdana" font-weight="bold" font-size="8.00">MagoSource</text>
<polygon fill="none" stroke="black" points="755,-861.5 755,-880.5 931,-880.5 931,-861.5 755,-861.5"/>
<text text-anchor="start" x="760" y="-869.1" font-family="Verdana" font-size="8.00">– helpUriCaseConverter</text>
<polygon fill="none" stroke="black" points="755,-829.5 755,-861.5 931,-861.5 931,-829.5 755,-829.5"/>
<text text-anchor="start" x="760" y="-850.1" font-family="Verdana" font-size="8.00">+ __construct(normalizers : iterable = [])</text>
<text text-anchor="start" x="760" y="-837.1" font-family="Verdana" font-size="8.00">+ getRules() : Iterator</text>
</g>
<!-- Bartlett\\Sarif\\Converter\\Source\\AbstractSource -->
<g id="node8" class="node">
<title>Bartlett\\Sarif\\Converter\\Source\\AbstractSource</title>
<polygon fill="#fefece" stroke="transparent" points="1006,-592.5 680,-592.5 680,-428.5 1006,-428.5 1006,-592.5"/>
<polygon fill="#eeeeee" stroke="transparent" points="680,-570.5 680,-592.5 1006,-592.5 1006,-570.5 680,-570.5"/>
<polygon fill="none" stroke="black" points="680,-570.5 680,-592.5 1006,-592.5 1006,-570.5 680,-570.5"/>
<text text-anchor="start" x="819" y="-584.1" font-family="Verdana" font-weight="bold" font-size="8.00">«abstract»</text>
<text text-anchor="start" x="808.5" y="-576.1" font-family="Verdana" font-weight="bold" font-size="8.00">AbstractSource</text>
<polygon fill="none" stroke="black" points="680,-538.5 680,-570.5 1006,-570.5 1006,-538.5 680,-538.5"/>
<text text-anchor="start" x="685" y="-559.1" font-family="Verdana" font-size="8.00">– normalizers : mixed</text>
<text text-anchor="start" x="685" y="-546.1" font-family="Verdana" font-size="8.00">– normalized</text>
<polygon fill="none" stroke="black" points="680,-428.5 680,-538.5 1006,-538.5 1006,-428.5 680,-428.5"/>
<text text-anchor="start" x="685" y="-527.1" font-family="Verdana" font-size="8.00">+ __construct(normalizers : iterable = [])</text>
<text text-anchor="start" x="685" y="-514.1" font-family="Verdana" font-size="8.00">+ getName() : string</text>
<text text-anchor="start" x="685" y="-501.1" font-family="Verdana" font-size="8.00">+ getFiles() : Iterator</text>
<text text-anchor="start" x="685" y="-488.1" font-family="Verdana" font-size="8.00">+ getErrors() : Iterator</text>
<text text-anchor="start" x="685" y="-475.1" font-family="Verdana" font-size="8.00">+ getRules() : Iterator</text>
<text text-anchor="start" x="685" y="-462.1" font-family="Verdana" font-size="8.00">+ getAttribute(name : string) : Iterator</text>
<text text-anchor="start" x="685" y="-449.1" font-family="Verdana" font-size="8.00">+ normalize(data : mixed, format : string, context : array) : bool</text>
<text text-anchor="start" x="685" y="-436.1" font-family="Verdana" font-size="8.00"># getNormalizer(format : string) : ?Bartlett\Sarif\Contract\NormalizerInterface</text>
</g>
<!-- Bartlett\\Sarif\\Converter\\Source\\MagoSource&#45;&gt;Bartlett\\Sarif\\Converter\\Source\\AbstractSource -->
<g id="edge4" class="edge">
<title>Bartlett\\Sarif\\Converter\\Source\\MagoSource&#45;&gt;Bartlett\\Sarif\\Converter\\Source\\AbstractSource</title>
<path fill="none" stroke="black" d="M843,-829.94C843,-777.36 843,-677.12 843,-603.1"/>
<polygon fill="none" stroke="black" points="846.5,-602.83 843,-592.83 839.5,-602.83 846.5,-602.83"/>
</g>
<!-- Bartlett\\Sarif\\Converter\\Source\\AbstractSource&#45;&gt;Bartlett\\Sarif\\Contract\\SourceInterface -->
<g id="edge3" class="edge">
<title>Bartlett\\Sarif\\Converter\\Source\\AbstractSource&#45;&gt;Bartlett\\Sarif\\Contract\\SourceInterface</title>
<path fill="none" stroke="black" stroke-dasharray="5,2" d="M842.41,-428.4C841.84,-351.01 841,-235.9 840.48,-164.26"/>
<polygon fill="none" stroke="black" points="843.98,-163.99 840.4,-154.01 836.98,-164.04 843.98,-163.99"/>
</g>
<!-- Bartlett\\Sarif\\Converter\\Normalizer\\MagoNormalizer -->
<g id="node9" class="node">
<title>Bartlett\\Sarif\\Converter\\Normalizer\\MagoNormalizer</title>
<polygon fill="#fefece" stroke="transparent" points="1336,-903 1038,-903 1038,-830 1336,-830 1336,-903"/>
<polygon fill="#eeeeee" stroke="transparent" points="1038,-880.5 1038,-902.5 1336,-902.5 1336,-880.5 1038,-880.5"/>
<polygon fill="none" stroke="black" points="1038,-880.5 1038,-902.5 1336,-902.5 1336,-880.5 1038,-880.5"/>
<text text-anchor="start" x="1150" y="-886.1" font-family="Verdana" font-weight="bold" font-size="8.00">MagoNormalizer</text>
<polygon fill="none" stroke="black" points="1038,-874.5 1038,-880.5 1336,-880.5 1336,-874.5 1038,-874.5"/>
<polygon fill="none" stroke="black" points="1038,-829.5 1038,-874.5 1336,-874.5 1336,-829.5 1038,-829.5"/>
<text text-anchor="start" x="1043" y="-863.1" font-family="Verdana" font-size="8.00">+ getSupportedFormats() : array</text>
<text text-anchor="start" x="1043" y="-850.1" font-family="Verdana" font-size="8.00">+ normalize(data, format : string, context : array) : ?ArrayObject</text>
<text text-anchor="start" x="1043" y="-837.1" font-family="Verdana" font-size="8.00"># fromGitLab(data : string, context : array, mapping : array = []) : array</text>
</g>
<!-- Bartlett\\Sarif\\Converter\\Normalizer\\AbstractNormalizer -->
<g id="node10" class="node">
<title>Bartlett\\Sarif\\Converter\\Normalizer\\AbstractNormalizer</title>
<polygon fill="#fefece" stroke="transparent" points="1339.5,-595.5 1034.5,-595.5 1034.5,-425.5 1339.5,-425.5 1339.5,-595.5"/>
<polygon fill="#eeeeee" stroke="transparent" points="1035,-573.5 1035,-595.5 1340,-595.5 1340,-573.5 1035,-573.5"/>
<polygon fill="none" stroke="black" points="1035,-573.5 1035,-595.5 1340,-595.5 1340,-573.5 1035,-573.5"/>
<text text-anchor="start" x="1163.5" y="-587.1" font-family="Verdana" font-weight="bold" font-size="8.00">«abstract»</text>
<text text-anchor="start" x="1144" y="-579.1" font-family="Verdana" font-weight="bold" font-size="8.00">AbstractNormalizer</text>
<polygon fill="none" stroke="black" points="1035,-489.5 1035,-573.5 1340,-573.5 1340,-489.5 1035,-489.5"/>
<text text-anchor="start" x="1040" y="-562.1" font-family="Verdana" font-size="8.00">+ «static» FORMAT_SARIF : string = &quot;sarif&quot; {readOnly}</text>
<text text-anchor="start" x="1040" y="-549.1" font-family="Verdana" font-size="8.00">+ «static» FORMAT_JSON : string = &quot;json&quot; {readOnly}</text>
<text text-anchor="start" x="1040" y="-536.1" font-family="Verdana" font-size="8.00">+ «static» FORMAT_XML : string = &quot;xml&quot; {readOnly}</text>
<text text-anchor="start" x="1040" y="-523.1" font-family="Verdana" font-size="8.00">+ «static» FORMAT_CHECKSTYLE : string = &quot;checkstyle&quot; {readOnly}</text>
<text text-anchor="start" x="1040" y="-510.1" font-family="Verdana" font-size="8.00">+ «static» FORMAT_GITLAB : string = &quot;gitlab&quot; {readOnly}</text>
<text text-anchor="start" x="1040" y="-497.1" font-family="Verdana" font-size="8.00">+ «static» FORMAT_INTERNAL : string = &quot;internal&quot; {readOnly}</text>
<polygon fill="none" stroke="black" points="1035,-483.5 1035,-489.5 1340,-489.5 1340,-483.5 1035,-483.5"/>
<polygon fill="none" stroke="black" points="1035,-425.5 1035,-483.5 1340,-483.5 1340,-425.5 1035,-425.5"/>
<text text-anchor="start" x="1040" y="-472.1" font-family="Verdana" font-size="8.00">+ getSupportedFormats() : array</text>
<text text-anchor="start" x="1040" y="-459.1" font-family="Verdana" font-size="8.00">+ isSupportedFormat(format : string) : bool</text>
<text text-anchor="start" x="1040" y="-446.1" font-family="Verdana" font-size="8.00">+ normalize(data, format : string, context : array) : ?ArrayObject</text>
<text text-anchor="start" x="1040" y="-433.1" font-family="Verdana" font-size="8.00"># fromInternal(data : TData, context : array, mapping : array = []) : array</text>
</g>
<!-- Bartlett\\Sarif\\Converter\\Normalizer\\MagoNormalizer&#45;&gt;Bartlett\\Sarif\\Converter\\Normalizer\\AbstractNormalizer -->
<g id="edge6" class="edge">
<title>Bartlett\\Sarif\\Converter\\Normalizer\\MagoNormalizer&#45;&gt;Bartlett\\Sarif\\Converter\\Normalizer\\AbstractNormalizer</title>
<path fill="none" stroke="black" d="M1187,-829.94C1187,-778.03 1187,-679.67 1187,-605.94"/>
<polygon fill="none" stroke="black" points="1190.5,-605.71 1187,-595.71 1183.5,-605.71 1190.5,-605.71"/>
</g>
<!-- Bartlett\\Sarif\\Converter\\Normalizer\\AbstractNormalizer&#45;&gt;Bartlett\\Sarif\\Contract\\NormalizerInterface -->
<g id="edge5" class="edge">
<title>Bartlett\\Sarif\\Converter\\Normalizer\\AbstractNormalizer&#45;&gt;Bartlett\\Sarif\\Contract\\NormalizerInterface</title>
<path fill="none" stroke="black" stroke-dasharray="5,2" d="M1187.41,-425.44C1187.75,-355.91 1188.23,-257.47 1188.57,-186.9"/>
<polygon fill="none" stroke="black" points="1192.07,-186.72 1188.62,-176.7 1185.07,-186.68 1192.07,-186.72"/>
</g>
<!-- Bartlett\\Sarif\\Converter\\Case\\MagoHelpUriCaseConverter -->
<g id="node11" class="node">
<title>Bartlett\\Sarif\\Converter\\Case\\MagoHelpUriCaseConverter</title>
<polygon fill="#fefece" stroke="transparent" points="1950,-569.5 1364,-569.5 1364,-451.5 1950,-451.5 1950,-569.5"/>
<polygon fill="#eeeeee" stroke="transparent" points="1364,-547.5 1364,-569.5 1950,-569.5 1950,-547.5 1364,-547.5"/>
<polygon fill="none" stroke="black" points="1364,-547.5 1364,-569.5 1950,-569.5 1950,-547.5 1364,-547.5"/>
<text text-anchor="start" x="1594.5" y="-553.1" font-family="Verdana" font-weight="bold" font-size="8.00">MagoHelpUriCaseConverter</text>
<polygon fill="none" stroke="black" points="1364,-528.5 1364,-547.5 1950,-547.5 1950,-528.5 1364,-528.5"/>
<text text-anchor="start" x="1369" y="-536.1" font-family="Verdana" font-size="8.00">+ «static» URI_PATTERN : string = &quot;https\:\/\/mago\.carthage\.software\/\{\$tool_driver_version\}\/en\/tools\/linter\/rules\/\#\%s&quot; {readOnly}</text>
<polygon fill="none" stroke="black" points="1364,-509.5 1364,-528.5 1950,-528.5 1950,-509.5 1364,-509.5"/>
<text text-anchor="start" x="1369" y="-517.1" font-family="Verdana" font-size="8.00">– «static» placeholders : mixed = […]</text>
<polygon fill="none" stroke="black" points="1364,-451.5 1364,-509.5 1950,-509.5 1950,-451.5 1364,-451.5"/>
<text text-anchor="start" x="1369" y="-498.1" font-family="Verdana" font-size="8.00">+ convert(checkerClass : string) : string</text>
<text text-anchor="start" x="1369" y="-485.1" font-family="Verdana" font-size="8.00">+ getRules() : array</text>
<text text-anchor="start" x="1369" y="-472.1" font-family="Verdana" font-size="8.00">– findAllPlaceholders(uri : string) : array</text>
<text text-anchor="start" x="1369" y="-459.1" font-family="Verdana" font-size="8.00">– replace(placeholder : string) : string</text>
</g>
<!-- Bartlett\\Sarif\\Converter\\Case\\MagoHelpUriCaseConverter&#45;&gt;Bartlett\\Sarif\\Contract\\HelpUriCaseConverterInterface -->
<g id="edge7" class="edge">
<title>Bartlett\\Sarif\\Converter\\Case\\MagoHelpUriCaseConverter&#45;&gt;Bartlett\\Sarif\\Contract\\HelpUriCaseConverterInterface</title>
<path fill="none" stroke="black" stroke-dasharray="5,2" d="M1633.25,-451.12C1597.55,-363.36 1531.23,-200.35 1503.13,-131.27"/>
<polygon fill="none" stroke="black" points="1506.28,-129.73 1499.27,-121.78 1499.8,-132.37 1506.28,-129.73"/>
</g>
</g>
</svg>
