<?xml version="1.0" encoding="UTF-8" standalone="no"?>
<!DOCTYPE svg PUBLIC "-//W3C//DTD SVG 1.1//EN"
 "http://www.w3.org/Graphics/SVG/1.1/DTD/svg11.dtd">
<!-- Generated by graphviz version 2.43.0 (0)
 -->
<!-- Title: %3 Pages: 1 -->
<svg width="1195pt" height="696pt"
 viewBox="0.00 0.00 1194.97 696.12" xmlns="http://www.w3.org/2000/svg" xmlns:xlink="http://www.w3.org/1999/xlink">
<g id="graph0" class="graph" transform="scale(1 1) rotate(0) translate(4 692.12)">
<title>%3</title>
<polygon fill="white" stroke="transparent" points="-4,4 -4,-692.12 1190.97,-692.12 1190.97,4 -4,4"/>
<g id="clust1" class="cluster">
<title>cluster_0</title>
<polygon fill="none" stroke="black" points="8,-11.12 8,-680.12 1178.97,-680.12 1178.97,-11.12 8,-11.12"/>
<text text-anchor="middle" x="593.49" y="-664.92" font-family="Times,serif" font-size="14.00">0</text>
</g>
<!-- bartlett/sarif&#45;php&#45;converters -->
<g id="node1" class="node">
<title>bartlett/sarif&#45;php&#45;converters</title>
<ellipse fill="lightgrey" stroke="black" stroke-width="2" cx="158.99" cy="-256.12" rx="142.97" ry="18"/>
<text text-anchor="middle" x="158.99" y="-252.42" font-family="Times,serif" font-size="14.00">bartlett/sarif&#45;php&#45;converters</text>
</g>
<!-- php -->
<g id="node2" class="node">
<title>php</title>
<path fill="#eeeeee" stroke="black" d="M1029.47,-271.12C1029.47,-271.12 999.47,-271.12 999.47,-271.12 993.47,-271.12 987.47,-265.12 987.47,-259.12 987.47,-259.12 987.47,-247.12 987.47,-247.12 987.47,-241.12 993.47,-235.12 999.47,-235.12 999.47,-235.12 1029.47,-235.12 1029.47,-235.12 1035.47,-235.12 1041.47,-241.12 1041.47,-247.12 1041.47,-247.12 1041.47,-259.12 1041.47,-259.12 1041.47,-265.12 1035.47,-271.12 1029.47,-271.12"/>
<text text-anchor="middle" x="1014.47" y="-249.42" font-family="Times,serif" font-size="14.00" fill="#314b5f">php</text>
</g>
<!-- bartlett/sarif&#45;php&#45;converters&#45;&gt;php -->
<g id="edge1" class="edge">
<title>bartlett/sarif&#45;php&#45;converters&#45;&gt;php</title>
<path fill="none" stroke="#1a2833" d="M213.45,-272.81C261.06,-286.75 332.89,-305.52 396.97,-313.12 554.54,-331.8 603.9,-364.61 753.97,-313.12 763.56,-309.83 762.77,-303.36 771.97,-299.12 800,-286.2 809.98,-292.36 839.97,-285.12 848.05,-283.17 849.87,-281.94 857.97,-280.12 898.56,-270.98 945.71,-263.19 977.35,-258.35"/>
<polygon fill="#1a2833" stroke="#1a2833" points="978.09,-261.78 987.46,-256.83 977.05,-254.86 978.09,-261.78"/>
<text text-anchor="middle" x="575.47" y="-343.12" font-family="Times,serif" font-size="10.00" fill="#767676">^8.2</text>
</g>
<!-- ext&#45;json -->
<g id="node3" class="node">
<title>ext&#45;json</title>
<path fill="#eeeeee" stroke="black" d="M1038.97,-55.12C1038.97,-55.12 989.97,-55.12 989.97,-55.12 983.97,-55.12 977.97,-49.12 977.97,-43.12 977.97,-43.12 977.97,-31.12 977.97,-31.12 977.97,-25.12 983.97,-19.12 989.97,-19.12 989.97,-19.12 1038.97,-19.12 1038.97,-19.12 1044.97,-19.12 1050.97,-25.12 1050.97,-31.12 1050.97,-31.12 1050.97,-43.12 1050.97,-43.12 1050.97,-49.12 1044.97,-55.12 1038.97,-55.12"/>
<text text-anchor="middle" x="1014.47" y="-33.42" font-family="Times,serif" font-size="14.00" fill="#314b5f">ext&#45;json</text>
</g>
<!-- bartlett/sarif&#45;php&#45;converters&#45;&gt;ext&#45;json -->
<g id="edge2" class="edge">
<title>bartlett/sarif&#45;php&#45;converters&#45;&gt;ext&#45;json</title>
<path fill="none" stroke="#1a2833" d="M171.53,-238C201.76,-192.62 288.43,-75.12 396.97,-39.12 600.74,28.46 863.64,-8.63 967.94,-27.86"/>
<polygon fill="#1a2833" stroke="#1a2833" points="967.35,-31.31 977.83,-29.71 968.64,-24.43 967.35,-31.31"/>
<text text-anchor="middle" x="575.47" y="-42.12" font-family="Times,serif" font-size="10.00" fill="#767676">*</text>
</g>
<!-- ext&#45;pcre -->
<g id="node4" class="node">
<title>ext&#45;pcre</title>
<path fill="#eeeeee" stroke="black" d="M1039.97,-109.12C1039.97,-109.12 988.97,-109.12 988.97,-109.12 982.97,-109.12 976.97,-103.12 976.97,-97.12 976.97,-97.12 976.97,-85.12 976.97,-85.12 976.97,-79.12 982.97,-73.12 988.97,-73.12 988.97,-73.12 1039.97,-73.12 1039.97,-73.12 1045.97,-73.12 1051.97,-79.12 1051.97,-85.12 1051.97,-85.12 1051.97,-97.12 1051.97,-97.12 1051.97,-103.12 1045.97,-109.12 1039.97,-109.12"/>
<text text-anchor="middle" x="1014.47" y="-87.42" font-family="Times,serif" font-size="14.00" fill="#314b5f">ext&#45;pcre</text>
</g>
<!-- bartlett/sarif&#45;php&#45;converters&#45;&gt;ext&#45;pcre -->
<g id="edge3" class="edge">
<title>bartlett/sarif&#45;php&#45;converters&#45;&gt;ext&#45;pcre</title>
<path fill="none" stroke="#1a2833" d="M177.9,-238.21C214.92,-202.58 304.22,-123.57 396.97,-93.12 600.2,-26.4 861.83,-62.63 966.83,-81.74"/>
<polygon fill="#1a2833" stroke="#1a2833" points="966.32,-85.2 976.79,-83.58 967.6,-78.32 966.32,-85.2"/>
<text text-anchor="middle" x="575.47" y="-96.12" font-family="Times,serif" font-size="10.00" fill="#767676">*</text>
</g>
<!-- ext&#45;spl -->
<g id="node5" class="node">
<title>ext&#45;spl</title>
<path fill="#eeeeee" stroke="black" d="M1034.97,-163.12C1034.97,-163.12 993.97,-163.12 993.97,-163.12 987.97,-163.12 981.97,-157.12 981.97,-151.12 981.97,-151.12 981.97,-139.12 981.97,-139.12 981.97,-133.12 987.97,-127.12 993.97,-127.12 993.97,-127.12 1034.97,-127.12 1034.97,-127.12 1040.97,-127.12 1046.97,-133.12 1046.97,-139.12 1046.97,-139.12 1046.97,-151.12 1046.97,-151.12 1046.97,-157.12 1040.97,-163.12 1034.97,-163.12"/>
<text text-anchor="middle" x="1014.47" y="-141.42" font-family="Times,serif" font-size="14.00" fill="#314b5f">ext&#45;spl</text>
</g>
<!-- bartlett/sarif&#45;php&#45;converters&#45;&gt;ext&#45;spl -->
<g id="edge4" class="edge">
<title>bartlett/sarif&#45;php&#45;converters&#45;&gt;ext&#45;spl</title>
<path fill="none" stroke="#1a2833" d="M212.57,-239.42C260.21,-225 332.58,-204.85 396.97,-194.12 591.72,-161.67 643.22,-177.52 839.97,-161.12 884.91,-157.37 936.35,-152.57 971.48,-149.2"/>
<polygon fill="#1a2833" stroke="#1a2833" points="972.21,-152.65 981.83,-148.21 971.54,-145.68 972.21,-152.65"/>
<text text-anchor="middle" x="575.47" y="-197.12" font-family="Times,serif" font-size="10.00" fill="#767676">*</text>
</g>
<!-- composer&#45;runtime&#45;api -->
<g id="node6" class="node">
<title>composer&#45;runtime&#45;api</title>
<path fill="#eeeeee" stroke="black" d="M649.97,-250.12C649.97,-250.12 500.97,-250.12 500.97,-250.12 494.97,-250.12 488.97,-244.12 488.97,-238.12 488.97,-238.12 488.97,-226.12 488.97,-226.12 488.97,-220.12 494.97,-214.12 500.97,-214.12 500.97,-214.12 649.97,-214.12 649.97,-214.12 655.97,-214.12 661.97,-220.12 661.97,-226.12 661.97,-226.12 661.97,-238.12 661.97,-238.12 661.97,-244.12 655.97,-250.12 649.97,-250.12"/>
<text text-anchor="middle" x="575.47" y="-228.42" font-family="Times,serif" font-size="14.00" fill="#314b5f">composer&#45;runtime&#45;api</text>
</g>
<!-- bartlett/sarif&#45;php&#45;converters&#45;&gt;composer&#45;runtime&#45;api -->
<g id="edge5" class="edge">
<title>bartlett/sarif&#45;php&#45;converters&#45;&gt;composer&#45;runtime&#45;api</title>
<path fill="none" stroke="#1a2833" d="M277.9,-246.03C292.07,-244.97 306.35,-243.97 319.97,-243.12 372.41,-239.86 430.99,-237.25 478.71,-235.4"/>
<polygon fill="#1a2833" stroke="#1a2833" points="478.87,-238.9 488.73,-235.02 478.6,-231.9 478.87,-238.9"/>
<text text-anchor="middle" x="349.47" y="-246.12" font-family="Times,serif" font-size="10.00" fill="#767676">^2.0</text>
</g>
<!-- bartlett/sarif&#45;php&#45;sdk -->
<g id="node7" class="node">
<title>bartlett/sarif&#45;php&#45;sdk</title>
<path fill="#eeeeee" stroke="black" d="M669.97,-149.12C669.97,-149.12 480.97,-149.12 480.97,-149.12 474.97,-149.12 468.97,-143.12 468.97,-137.12 468.97,-137.12 468.97,-125.12 468.97,-125.12 468.97,-119.12 474.97,-113.12 480.97,-113.12 480.97,-113.12 669.97,-113.12 669.97,-113.12 675.97,-113.12 681.97,-119.12 681.97,-125.12 681.97,-125.12 681.97,-137.12 681.97,-137.12 681.97,-143.12 675.97,-149.12 669.97,-149.12"/>
<text text-anchor="middle" x="575.47" y="-127.42" font-family="Times,serif" font-size="14.00" fill="#314b5f">bartlett/sarif&#45;php&#45;sdk: 2.4.0</text>
</g>
<!-- bartlett/sarif&#45;php&#45;converters&#45;&gt;bartlett/sarif&#45;php&#45;sdk -->
<g id="edge10" class="edge">
<title>bartlett/sarif&#45;php&#45;converters&#45;&gt;bartlett/sarif&#45;php&#45;sdk</title>
<path fill="none" stroke="#1a2833" d="M185.85,-238.33C216.45,-218.18 269.61,-185.99 319.97,-169.12 364.18,-154.32 414.64,-145.27 458.9,-139.74"/>
<polygon fill="#1a2833" stroke="#1a2833" points="459.33,-143.22 468.84,-138.55 458.49,-136.27 459.33,-143.22"/>
<text text-anchor="middle" x="349.47" y="-172.12" font-family="Times,serif" font-size="10.00" fill="#767676">^2.2</text>
</g>
<!-- bamarni/composer&#45;bin&#45;plugin -->
<g id="node8" class="node">
<title>bamarni/composer&#45;bin&#45;plugin</title>
<path fill="#eeeeee" stroke="black" d="M698.97,-304.12C698.97,-304.12 451.97,-304.12 451.97,-304.12 445.97,-304.12 439.97,-298.12 439.97,-292.12 439.97,-292.12 439.97,-280.12 439.97,-280.12 439.97,-274.12 445.97,-268.12 451.97,-268.12 451.97,-268.12 698.97,-268.12 698.97,-268.12 704.97,-268.12 710.97,-274.12 710.97,-280.12 710.97,-280.12 710.97,-292.12 710.97,-292.12 710.97,-298.12 704.97,-304.12 698.97,-304.12"/>
<text text-anchor="middle" x="575.47" y="-282.42" font-family="Times,serif" font-size="14.00" fill="#314b5f">bamarni/composer&#45;bin&#45;plugin: 1.9.1</text>
</g>
<!-- bartlett/sarif&#45;php&#45;converters&#45;&gt;bamarni/composer&#45;bin&#45;plugin -->
<g id="edge13" class="edge">
<title>bartlett/sarif&#45;php&#45;converters&#45;&gt;bamarni/composer&#45;bin&#45;plugin</title>
<path fill="none" stroke="#1a2833" stroke-dasharray="5,2" d="M283.22,-265.04C329.23,-268.37 381.88,-272.18 429.66,-275.64"/>
<polygon fill="#1a2833" stroke="#1a2833" points="429.54,-279.14 439.77,-276.37 430.05,-272.16 429.54,-279.14"/>
<text text-anchor="middle" x="349.47" y="-274.12" font-family="Times,serif" font-size="10.00" fill="#767676">^1.8</text>
</g>
<!-- jawira/case&#45;converter -->
<g id="node10" class="node">
<title>jawira/case&#45;converter</title>
<path fill="#eeeeee" stroke="black" d="M675.47,-405.12C675.47,-405.12 475.47,-405.12 475.47,-405.12 469.47,-405.12 463.47,-399.12 463.47,-393.12 463.47,-393.12 463.47,-381.12 463.47,-381.12 463.47,-375.12 469.47,-369.12 475.47,-369.12 475.47,-369.12 675.47,-369.12 675.47,-369.12 681.47,-369.12 687.47,-375.12 687.47,-381.12 687.47,-381.12 687.47,-393.12 687.47,-393.12 687.47,-399.12 681.47,-405.12 675.47,-405.12"/>
<text text-anchor="middle" x="575.47" y="-383.42" font-family="Times,serif" font-size="14.00" fill="#314b5f">jawira/case&#45;converter: v3.6.0</text>
</g>
<!-- bartlett/sarif&#45;php&#45;converters&#45;&gt;jawira/case&#45;converter -->
<g id="edge16" class="edge">
<title>bartlett/sarif&#45;php&#45;converters&#45;&gt;jawira/case&#45;converter</title>
<path fill="none" stroke="#1a2833" stroke-dasharray="5,2" d="M185.29,-273.84C215.78,-294.31 269.26,-327.43 319.97,-345.12 362.34,-359.9 410.53,-369.54 453.49,-375.81"/>
<polygon fill="#1a2833" stroke="#1a2833" points="453.04,-379.28 463.43,-377.21 454.02,-372.35 453.04,-379.28"/>
<text text-anchor="middle" x="349.47" y="-363.12" font-family="Times,serif" font-size="10.00" fill="#767676">^3.6</text>
</g>
<!-- php&#45;parallel&#45;lint/php&#45;console&#45;highlighter -->
<g id="node12" class="node">
<title>php&#45;parallel&#45;lint/php&#45;console&#45;highlighter</title>
<path fill="#eeeeee" stroke="black" d="M741.97,-459.12C741.97,-459.12 408.97,-459.12 408.97,-459.12 402.97,-459.12 396.97,-453.12 396.97,-447.12 396.97,-447.12 396.97,-435.12 396.97,-435.12 396.97,-429.12 402.97,-423.12 408.97,-423.12 408.97,-423.12 741.97,-423.12 741.97,-423.12 747.97,-423.12 753.97,-429.12 753.97,-435.12 753.97,-435.12 753.97,-447.12 753.97,-447.12 753.97,-453.12 747.97,-459.12 741.97,-459.12"/>
<text text-anchor="middle" x="575.47" y="-437.42" font-family="Times,serif" font-size="14.00" fill="#314b5f">php&#45;parallel&#45;lint/php&#45;console&#45;highlighter: v1.0.0</text>
</g>
<!-- bartlett/sarif&#45;php&#45;converters&#45;&gt;php&#45;parallel&#45;lint/php&#45;console&#45;highlighter -->
<g id="edge20" class="edge">
<title>bartlett/sarif&#45;php&#45;converters&#45;&gt;php&#45;parallel&#45;lint/php&#45;console&#45;highlighter</title>
<path fill="none" stroke="#1a2833" stroke-dasharray="5,2" d="M178.59,-274.02C216.17,-308.82 305.38,-384.79 396.97,-414.12 404.38,-416.49 412.04,-418.66 419.81,-420.64"/>
<polygon fill="#1a2833" stroke="#1a2833" points="419.18,-424.09 429.72,-423.04 420.83,-417.28 419.18,-424.09"/>
<text text-anchor="middle" x="349.47" y="-409.12" font-family="Times,serif" font-size="10.00" fill="#767676">^1.0</text>
</g>
<!-- symfony/console -->
<g id="node15" class="node">
<title>symfony/console</title>
<path fill="#eeeeee" stroke="black" d="M657.47,-557.12C657.47,-557.12 493.47,-557.12 493.47,-557.12 487.47,-557.12 481.47,-551.12 481.47,-545.12 481.47,-545.12 481.47,-533.12 481.47,-533.12 481.47,-527.12 487.47,-521.12 493.47,-521.12 493.47,-521.12 657.47,-521.12 657.47,-521.12 663.47,-521.12 669.47,-527.12 669.47,-533.12 669.47,-533.12 669.47,-545.12 669.47,-545.12 669.47,-551.12 663.47,-557.12 657.47,-557.12"/>
<text text-anchor="middle" x="575.47" y="-535.42" font-family="Times,serif" font-size="14.00" fill="#314b5f">symfony/console: v7.4.9</text>
</g>
<!-- bartlett/sarif&#45;php&#45;converters&#45;&gt;symfony/console -->
<g id="edge26" class="edge">
<title>bartlett/sarif&#45;php&#45;converters&#45;&gt;symfony/console</title>
<path fill="none" stroke="#1a2833" stroke-dasharray="5,2" d="M174.81,-274.18C201.63,-306.18 260.92,-373.9 319.97,-421.12 351.29,-446.16 361.12,-450.17 396.97,-468.12 434.54,-486.93 478.36,-504.5 513.06,-517.46"/>
<polygon fill="#1a2833" stroke="#1a2833" points="512,-520.8 522.6,-520.99 514.43,-514.23 512,-520.8"/>
<text text-anchor="middle" x="349.47" y="-461.12" font-family="Times,serif" font-size="10.00" fill="#767676">^7.0 || ^8.0</text>
</g>
<!-- bartlett/sarif&#45;php&#45;sdk&#45;&gt;php -->
<g id="edge9" class="edge">
<title>bartlett/sarif&#45;php&#45;sdk&#45;&gt;php</title>
<path fill="none" stroke="#1a2833" d="M682.38,-143.68C706.37,-148.31 731.42,-154.6 753.97,-163.12 795.76,-178.9 801.81,-191.92 839.97,-215.12 847.99,-219.99 849.2,-222.82 857.97,-226.12 897.14,-240.87 944.92,-247.63 977.1,-250.69"/>
<polygon fill="#1a2833" stroke="#1a2833" points="977.11,-254.2 987.38,-251.59 977.72,-247.23 977.11,-254.2"/>
<text text-anchor="middle" x="805.97" y="-218.12" font-family="Times,serif" font-size="10.00" fill="#767676">^7.4 || ^8.0</text>
</g>
<!-- bartlett/sarif&#45;php&#45;sdk&#45;&gt;ext&#45;json -->
<g id="edge6" class="edge">
<title>bartlett/sarif&#45;php&#45;sdk&#45;&gt;ext&#45;json</title>
<path fill="none" stroke="#1a2833" d="M682.15,-114.69C705.92,-110.27 730.93,-105.04 753.97,-99.12 801.21,-86.98 810.7,-76.1 857.97,-64.12 894.48,-54.86 936.62,-47.76 967.81,-43.17"/>
<polygon fill="#1a2833" stroke="#1a2833" points="968.55,-46.6 977.95,-41.71 967.55,-39.67 968.55,-46.6"/>
<text text-anchor="middle" x="805.97" y="-96.12" font-family="Times,serif" font-size="10.00" fill="#767676">*</text>
</g>
<!-- bartlett/sarif&#45;php&#45;sdk&#45;&gt;ext&#45;pcre -->
<g id="edge7" class="edge">
<title>bartlett/sarif&#45;php&#45;sdk&#45;&gt;ext&#45;pcre</title>
<path fill="none" stroke="#1a2833" d="M682.03,-124.68C730.24,-121.44 788.04,-117.13 839.97,-112.12 882.81,-107.99 931.43,-101.99 966.29,-97.46"/>
<polygon fill="#1a2833" stroke="#1a2833" points="967.18,-100.87 976.64,-96.1 966.27,-93.93 967.18,-100.87"/>
<text text-anchor="middle" x="805.97" y="-120.12" font-family="Times,serif" font-size="10.00" fill="#767676">*</text>
</g>
<!-- bartlett/sarif&#45;php&#45;sdk&#45;&gt;ext&#45;spl -->
<g id="edge8" class="edge">
<title>bartlett/sarif&#45;php&#45;sdk&#45;&gt;ext&#45;spl</title>
<path fill="none" stroke="#1a2833" d="M682.16,-140.72C711.24,-142.95 742.81,-145 771.97,-146.12 802.17,-147.28 809.75,-146.21 839.97,-146.12 884.88,-145.99 936.32,-145.67 971.46,-145.43"/>
<polygon fill="#1a2833" stroke="#1a2833" points="971.84,-148.93 981.82,-145.36 971.79,-141.93 971.84,-148.93"/>
<text text-anchor="middle" x="805.97" y="-149.12" font-family="Times,serif" font-size="10.00" fill="#767676">*</text>
</g>
<!-- bamarni/composer&#45;bin&#45;plugin&#45;&gt;php -->
<g id="edge12" class="edge">
<title>bamarni/composer&#45;bin&#45;plugin&#45;&gt;php</title>
<path fill="none" stroke="#1a2833" d="M711.15,-275.95C803.47,-268.98 919.3,-260.23 977.13,-255.86"/>
<polygon fill="#1a2833" stroke="#1a2833" points="977.52,-259.35 987.23,-255.1 977,-252.37 977.52,-259.35"/>
<text text-anchor="middle" x="805.97" y="-273.12" font-family="Times,serif" font-size="10.00" fill="#767676">^7.2.5 || ^8.0</text>
</g>
<!-- composer&#45;plugin&#45;api -->
<g id="node9" class="node">
<title>composer&#45;plugin&#45;api</title>
<path fill="#eeeeee" stroke="black" d="M1082.97,-217.12C1082.97,-217.12 945.97,-217.12 945.97,-217.12 939.97,-217.12 933.97,-211.12 933.97,-205.12 933.97,-205.12 933.97,-193.12 933.97,-193.12 933.97,-187.12 939.97,-181.12 945.97,-181.12 945.97,-181.12 1082.97,-181.12 1082.97,-181.12 1088.97,-181.12 1094.97,-187.12 1094.97,-193.12 1094.97,-193.12 1094.97,-205.12 1094.97,-205.12 1094.97,-211.12 1088.97,-217.12 1082.97,-217.12"/>
<text text-anchor="middle" x="1014.47" y="-195.42" font-family="Times,serif" font-size="14.00" fill="#314b5f">composer&#45;plugin&#45;api</text>
</g>
<!-- bamarni/composer&#45;bin&#45;plugin&#45;&gt;composer&#45;plugin&#45;api -->
<g id="edge11" class="edge">
<title>bamarni/composer&#45;bin&#45;plugin&#45;&gt;composer&#45;plugin&#45;api</title>
<path fill="none" stroke="#1a2833" d="M711.06,-269.55C725.67,-266.6 740.21,-263.15 753.97,-259.12 762.38,-256.66 763.75,-254.13 771.97,-251.12 809.36,-237.45 819.19,-235.09 857.97,-226.12 879.06,-221.24 901.94,-216.8 923.5,-213"/>
<polygon fill="#1a2833" stroke="#1a2833" points="924.37,-216.4 933.63,-211.24 923.18,-209.5 924.37,-216.4"/>
<text text-anchor="middle" x="805.97" y="-254.12" font-family="Times,serif" font-size="10.00" fill="#767676">^2.0</text>
</g>
<!-- jawira/case&#45;converter&#45;&gt;php -->
<g id="edge15" class="edge">
<title>jawira/case&#45;converter&#45;&gt;php</title>
<path fill="none" stroke="#1a2833" d="M687.62,-383.16C711.24,-378.11 734.8,-369.48 753.97,-355.12 768.29,-344.4 758.49,-330.87 771.97,-319.12 796.03,-298.16 812.39,-312.15 839.97,-296.12 849.23,-290.74 848.33,-284.77 857.97,-280.12 896.06,-261.76 944.72,-255.72 977.38,-253.82"/>
<polygon fill="#1a2833" stroke="#1a2833" points="977.57,-257.32 987.39,-253.34 977.23,-250.33 977.57,-257.32"/>
<text text-anchor="middle" x="805.97" y="-322.12" font-family="Times,serif" font-size="10.00" fill="#767676">&gt;=7.4</text>
</g>
<!-- ext&#45;mbstring -->
<g id="node11" class="node">
<title>ext&#45;mbstring</title>
<path fill="#eeeeee" stroke="black" d="M1056.97,-325.12C1056.97,-325.12 971.97,-325.12 971.97,-325.12 965.97,-325.12 959.97,-319.12 959.97,-313.12 959.97,-313.12 959.97,-301.12 959.97,-301.12 959.97,-295.12 965.97,-289.12 971.97,-289.12 971.97,-289.12 1056.97,-289.12 1056.97,-289.12 1062.97,-289.12 1068.97,-295.12 1068.97,-301.12 1068.97,-301.12 1068.97,-313.12 1068.97,-313.12 1068.97,-319.12 1062.97,-325.12 1056.97,-325.12"/>
<text text-anchor="middle" x="1014.47" y="-303.42" font-family="Times,serif" font-size="14.00" fill="#314b5f">ext&#45;mbstring</text>
</g>
<!-- jawira/case&#45;converter&#45;&gt;ext&#45;mbstring -->
<g id="edge14" class="edge">
<title>jawira/case&#45;converter&#45;&gt;ext&#45;mbstring</title>
<path fill="none" stroke="#1a2833" d="M687.79,-387.36C747.89,-385.56 814.81,-379.85 839.97,-364.12 853.16,-355.88 845.15,-342.91 857.97,-334.12 884.57,-315.88 919.58,-308.71 949.64,-306.28"/>
<polygon fill="#1a2833" stroke="#1a2833" points="949.88,-309.77 959.63,-305.62 949.42,-302.78 949.88,-309.77"/>
<text text-anchor="middle" x="805.97" y="-384.12" font-family="Times,serif" font-size="10.00" fill="#767676">*</text>
</g>
<!-- php&#45;parallel&#45;lint/php&#45;console&#45;highlighter&#45;&gt;php -->
<g id="edge18" class="edge">
<title>php&#45;parallel&#45;lint/php&#45;console&#45;highlighter&#45;&gt;php</title>
<path fill="none" stroke="#1a2833" d="M742.11,-423.11C746.26,-420.4 750.23,-417.42 753.97,-414.12 775.83,-394.88 751.6,-371.93 771.97,-351.12 794.1,-328.52 817.1,-351.97 839.97,-330.12 857.06,-313.81 839.89,-295.31 857.97,-280.12 891.16,-252.25 942.68,-248.51 977.22,-249.72"/>
<polygon fill="#1a2833" stroke="#1a2833" points="977.2,-253.23 987.36,-250.24 977.55,-246.24 977.2,-253.23"/>
<text text-anchor="middle" x="805.97" y="-354.12" font-family="Times,serif" font-size="10.00" fill="#767676">&gt;=5.3.2</text>
</g>
<!-- ext&#45;tokenizer -->
<g id="node13" class="node">
<title>ext&#45;tokenizer</title>
<path fill="#eeeeee" stroke="black" d="M1057.47,-379.12C1057.47,-379.12 971.47,-379.12 971.47,-379.12 965.47,-379.12 959.47,-373.12 959.47,-367.12 959.47,-367.12 959.47,-355.12 959.47,-355.12 959.47,-349.12 965.47,-343.12 971.47,-343.12 971.47,-343.12 1057.47,-343.12 1057.47,-343.12 1063.47,-343.12 1069.47,-349.12 1069.47,-355.12 1069.47,-355.12 1069.47,-367.12 1069.47,-367.12 1069.47,-373.12 1063.47,-379.12 1057.47,-379.12"/>
<text text-anchor="middle" x="1014.47" y="-357.42" font-family="Times,serif" font-size="14.00" fill="#314b5f">ext&#45;tokenizer</text>
</g>
<!-- php&#45;parallel&#45;lint/php&#45;console&#45;highlighter&#45;&gt;ext&#45;tokenizer -->
<g id="edge17" class="edge">
<title>php&#45;parallel&#45;lint/php&#45;console&#45;highlighter&#45;&gt;ext&#45;tokenizer</title>
<path fill="none" stroke="#1a2833" d="M726.69,-423.1C764.2,-416.52 803.98,-407.74 839.97,-396.12 848.31,-393.43 849.6,-390.67 857.97,-388.12 887.39,-379.18 920.9,-372.89 949.26,-368.64"/>
<polygon fill="#1a2833" stroke="#1a2833" points="950.06,-372.06 959.46,-367.17 949.06,-365.13 950.06,-372.06"/>
<text text-anchor="middle" x="805.97" y="-416.12" font-family="Times,serif" font-size="10.00" fill="#767676">*</text>
</g>
<!-- php&#45;parallel&#45;lint/php&#45;console&#45;color -->
<g id="node14" class="node">
<title>php&#45;parallel&#45;lint/php&#45;console&#45;color</title>
<path fill="#eeeeee" stroke="black" d="M1158.97,-433.12C1158.97,-433.12 869.97,-433.12 869.97,-433.12 863.97,-433.12 857.97,-427.12 857.97,-421.12 857.97,-421.12 857.97,-409.12 857.97,-409.12 857.97,-403.12 863.97,-397.12 869.97,-397.12 869.97,-397.12 1158.97,-397.12 1158.97,-397.12 1164.97,-397.12 1170.97,-403.12 1170.97,-409.12 1170.97,-409.12 1170.97,-421.12 1170.97,-421.12 1170.97,-427.12 1164.97,-433.12 1158.97,-433.12"/>
<text text-anchor="middle" x="1014.47" y="-411.42" font-family="Times,serif" font-size="14.00" fill="#314b5f">php&#45;parallel&#45;lint/php&#45;console&#45;color: v1.0.1</text>
</g>
<!-- php&#45;parallel&#45;lint/php&#45;console&#45;highlighter&#45;&gt;php&#45;parallel&#45;lint/php&#45;console&#45;color -->
<g id="edge19" class="edge">
<title>php&#45;parallel&#45;lint/php&#45;console&#45;highlighter&#45;&gt;php&#45;parallel&#45;lint/php&#45;console&#45;color</title>
<path fill="none" stroke="#1a2833" d="M754.08,-436.6C782.81,-435.42 812.23,-433.95 839.97,-432.12 842.55,-431.95 845.15,-431.77 847.76,-431.59"/>
<polygon fill="#1a2833" stroke="#1a2833" points="848.2,-435.07 857.92,-430.84 847.69,-428.08 848.2,-435.07"/>
<text text-anchor="middle" x="805.97" y="-438.12" font-family="Times,serif" font-size="10.00" fill="#767676">^1.0.1</text>
</g>
<!-- symfony/console&#45;&gt;php -->
<g id="edge21" class="edge">
<title>symfony/console&#45;&gt;php</title>
<path fill="none" stroke="#1a2833" d="M641.69,-521.07C715.49,-500.03 827.17,-466.11 839.97,-450.12 863.72,-420.47 832.02,-307.86 857.97,-280.12 888.05,-247.98 941.61,-245.54 977.34,-248.19"/>
<polygon fill="#1a2833" stroke="#1a2833" points="977.08,-251.68 987.36,-249.1 977.72,-244.71 977.08,-251.68"/>
<text text-anchor="middle" x="805.97" y="-482.12" font-family="Times,serif" font-size="10.00" fill="#767676">&gt;=8.2</text>
</g>
<!-- symfony/deprecation&#45;contracts -->
<g id="node16" class="node">
<title>symfony/deprecation&#45;contracts</title>
<path fill="#eeeeee" stroke="black" d="M1147.47,-487.12C1147.47,-487.12 881.47,-487.12 881.47,-487.12 875.47,-487.12 869.47,-481.12 869.47,-475.12 869.47,-475.12 869.47,-463.12 869.47,-463.12 869.47,-457.12 875.47,-451.12 881.47,-451.12 881.47,-451.12 1147.47,-451.12 1147.47,-451.12 1153.47,-451.12 1159.47,-457.12 1159.47,-463.12 1159.47,-463.12 1159.47,-475.12 1159.47,-475.12 1159.47,-481.12 1153.47,-487.12 1147.47,-487.12"/>
<text text-anchor="middle" x="1014.47" y="-465.42" font-family="Times,serif" font-size="14.00" fill="#314b5f">symfony/deprecation&#45;contracts: v3.6.0</text>
</g>
<!-- symfony/console&#45;&gt;symfony/deprecation&#45;contracts -->
<g id="edge22" class="edge">
<title>symfony/console&#45;&gt;symfony/deprecation&#45;contracts</title>
<path fill="none" stroke="#1a2833" d="M669.73,-526.98C720.26,-519.98 783.7,-510.52 839.97,-500.12 848.03,-498.63 849.94,-497.71 857.97,-496.12 870.17,-493.71 882.93,-491.3 895.66,-488.98"/>
<polygon fill="#1a2833" stroke="#1a2833" points="896.65,-492.36 905.86,-487.13 895.4,-485.47 896.65,-492.36"/>
<text text-anchor="middle" x="805.97" y="-514.12" font-family="Times,serif" font-size="10.00" fill="#767676">^2.5|^3</text>
</g>
<!-- symfony/polyfill&#45;mbstring -->
<g id="node17" class="node">
<title>symfony/polyfill&#45;mbstring</title>
<path fill="#eeeeee" stroke="black" d="M1132.97,-541.12C1132.97,-541.12 895.97,-541.12 895.97,-541.12 889.97,-541.12 883.97,-535.12 883.97,-529.12 883.97,-529.12 883.97,-517.12 883.97,-517.12 883.97,-511.12 889.97,-505.12 895.97,-505.12 895.97,-505.12 1132.97,-505.12 1132.97,-505.12 1138.97,-505.12 1144.97,-511.12 1144.97,-517.12 1144.97,-517.12 1144.97,-529.12 1144.97,-529.12 1144.97,-535.12 1138.97,-541.12 1132.97,-541.12"/>
<text text-anchor="middle" x="1014.47" y="-519.42" font-family="Times,serif" font-size="14.00" fill="#314b5f">symfony/polyfill&#45;mbstring: v1.37.0</text>
</g>
<!-- symfony/console&#45;&gt;symfony/polyfill&#45;mbstring -->
<g id="edge23" class="edge">
<title>symfony/console&#45;&gt;symfony/polyfill&#45;mbstring</title>
<path fill="none" stroke="#1a2833" d="M669.49,-538.36C719.95,-537.69 783.4,-536.45 839.97,-534.12 850.94,-533.67 862.28,-533.12 873.69,-532.52"/>
<polygon fill="#1a2833" stroke="#1a2833" points="873.92,-536.01 883.71,-531.98 873.54,-529.02 873.92,-536.01"/>
<text text-anchor="middle" x="805.97" y="-539.12" font-family="Times,serif" font-size="10.00" fill="#767676">~1.0</text>
</g>
<!-- symfony/service&#45;contracts -->
<g id="node18" class="node">
<title>symfony/service&#45;contracts</title>
<path fill="#eeeeee" stroke="black" d="M1130.97,-595.12C1130.97,-595.12 897.97,-595.12 897.97,-595.12 891.97,-595.12 885.97,-589.12 885.97,-583.12 885.97,-583.12 885.97,-571.12 885.97,-571.12 885.97,-565.12 891.97,-559.12 897.97,-559.12 897.97,-559.12 1130.97,-559.12 1130.97,-559.12 1136.97,-559.12 1142.97,-565.12 1142.97,-571.12 1142.97,-571.12 1142.97,-583.12 1142.97,-583.12 1142.97,-589.12 1136.97,-595.12 1130.97,-595.12"/>
<text text-anchor="middle" x="1014.47" y="-573.42" font-family="Times,serif" font-size="14.00" fill="#314b5f">symfony/service&#45;contracts: v3.6.1</text>
</g>
<!-- symfony/console&#45;&gt;symfony/service&#45;contracts -->
<g id="edge24" class="edge">
<title>symfony/console&#45;&gt;symfony/service&#45;contracts</title>
<path fill="none" stroke="#1a2833" d="M669.69,-547.23C729.53,-552.43 808.32,-559.28 875.37,-565.11"/>
<polygon fill="#1a2833" stroke="#1a2833" points="875.33,-568.62 885.59,-566 875.94,-561.65 875.33,-568.62"/>
<text text-anchor="middle" x="805.97" y="-564.12" font-family="Times,serif" font-size="10.00" fill="#767676">^2.5|^3</text>
</g>
<!-- symfony/string -->
<g id="node19" class="node">
<title>symfony/string</title>
<path fill="#eeeeee" stroke="black" d="M1090.97,-649.12C1090.97,-649.12 937.97,-649.12 937.97,-649.12 931.97,-649.12 925.97,-643.12 925.97,-637.12 925.97,-637.12 925.97,-625.12 925.97,-625.12 925.97,-619.12 931.97,-613.12 937.97,-613.12 937.97,-613.12 1090.97,-613.12 1090.97,-613.12 1096.97,-613.12 1102.97,-619.12 1102.97,-625.12 1102.97,-625.12 1102.97,-637.12 1102.97,-637.12 1102.97,-643.12 1096.97,-649.12 1090.97,-649.12"/>
<text text-anchor="middle" x="1014.47" y="-627.42" font-family="Times,serif" font-size="14.00" fill="#314b5f">symfony/string: v7.4.8</text>
</g>
<!-- symfony/console&#45;&gt;symfony/string -->
<g id="edge25" class="edge">
<title>symfony/console&#45;&gt;symfony/string</title>
<path fill="none" stroke="#1a2833" d="M649.44,-557.13C706.12,-570.84 786.81,-589.74 857.97,-604.12 876.61,-607.89 896.58,-611.6 915.77,-615"/>
<polygon fill="#1a2833" stroke="#1a2833" points="915.28,-618.47 925.73,-616.75 916.49,-611.57 915.28,-618.47"/>
<text text-anchor="middle" x="805.97" y="-602.12" font-family="Times,serif" font-size="10.00" fill="#767676">^7.2|^8.0</text>
</g>
</g>
</svg>
