<?xml version="1.0" encoding="UTF-8" standalone="no"?>
<!DOCTYPE svg PUBLIC "-//W3C//DTD SVG 1.1//EN"
 "http://www.w3.org/Graphics/SVG/1.1/DTD/svg11.dtd">
<!-- Generated by graphviz version 2.43.0 (0)
 -->
<!-- Title: %3 Pages: 1 -->
<svg width="1446pt" height="826pt"
 viewBox="0.00 0.00 1446.00 826.00" xmlns="http://www.w3.org/2000/svg" xmlns:xlink="http://www.w3.org/1999/xlink">
<g id="graph0" class="graph" transform="scale(1 1) rotate(0) translate(4 822)">
<title>%3</title>
<g id="clust1" class="cluster">
<title>cluster_0</title>
<polygon fill="BurlyWood" stroke="black" points="8,-206 8,-800.5 664,-800.5 664,-206 8,-206"/>
<text text-anchor="middle" x="336" y="-785.3" font-family="Times,serif" font-size="14.00">Bartlett\Sarif\Converter</text>
</g>
<g id="clust2" class="cluster">
<title>cluster_1</title>
<polygon fill="LightSkyBlue" stroke="black" points="256,-8 256,-198 1374,-198 1374,-8 256,-8"/>
<text text-anchor="middle" x="815" y="-182.8" font-family="Times,serif" font-size="14.00">Bartlett\Sarif\Contract</text>
</g>
<g id="clust3" class="cluster">
<title>cluster_2</title>
<polygon fill="Bisque" stroke="black" points="672,-349 672,-794 1014,-794 1014,-349 672,-349"/>
<text text-anchor="middle" x="843" y="-778.8" font-family="Times,serif" font-size="14.00">Bartlett\Sarif\Converter\Source</text>
</g>
<g id="clust4" class="cluster">
<title>cluster_3</title>
<polygon fill="Bisque" stroke="black" points="1022,-359 1022,-810 1430,-810 1430,-359 1022,-359"/>
<text text-anchor="middle" x="1226" y="-794.8" font-family="Times,serif" font-size="14.00">Bartlett\Sarif\Converter\Normalizer</text>
</g>
<!-- Bartlett\\Sarif\\Converter\\PhpStanConverter -->
<g id="node1" class="node">
<title>Bartlett\\Sarif\\Converter\\PhpStanConverter</title>
<polygon fill="#fefece" stroke="transparent" points="453,-769.5 219,-769.5 219,-709.5 453,-709.5 453,-769.5"/>
<polygon fill="#eeeeee" stroke="transparent" points="219,-747.5 219,-769.5 453,-769.5 453,-747.5 219,-747.5"/>
<polygon fill="none" stroke="black" points="219,-747.5 219,-769.5 453,-769.5 453,-747.5 219,-747.5"/>
<text text-anchor="start" x="294" y="-753.1" font-family="Verdana" font-weight="bold" font-size="8.00">PhpStanConverter</text>
<polygon fill="none" stroke="black" points="219,-741.5 219,-747.5 453,-747.5 453,-741.5 219,-741.5"/>
<polygon fill="none" stroke="black" points="219,-709.5 219,-741.5 453,-741.5 453,-709.5 219,-709.5"/>
<text text-anchor="start" x="224" y="-730.1" font-family="Verdana" font-size="8.00">+ configure(options : array = []) : void</text>
<text text-anchor="start" x="224" y="-717.1" font-family="Verdana" font-size="8.00">+ toolDriver() : Bartlett\Sarif\Definition\ToolComponent</text>
</g>
<!-- Bartlett\\Sarif\\Converter\\AbstractConverter -->
<g id="node2" class="node">
<title>Bartlett\\Sarif\\Converter\\AbstractConverter</title>
<polygon fill="#fefece" stroke="transparent" points="655.5,-664 16.5,-664 16.5,-214 655.5,-214 655.5,-664"/>
<polygon fill="#eeeeee" stroke="transparent" points="17,-642 17,-664 656,-664 656,-642 17,-642"/>
<polygon fill="none" stroke="black" points="17,-642 17,-664 656,-664 656,-642 17,-642"/>
<text text-anchor="start" x="312.5" y="-655.6" font-family="Verdana" font-weight="bold" font-size="8.00">«abstract»</text>
<text text-anchor="start" x="295.5" y="-647.6" font-family="Verdana" font-weight="bold" font-size="8.00">AbstractConverter</text>
<polygon fill="none" stroke="black" points="17,-441 17,-642 656,-642 656,-441 17,-441"/>
<text text-anchor="start" x="22" y="-630.6" font-family="Verdana" font-size="8.00"># toolName</text>
<text text-anchor="start" x="22" y="-617.6" font-family="Verdana" font-size="8.00"># toolFullName</text>
<text text-anchor="start" x="22" y="-604.6" font-family="Verdana" font-size="8.00"># toolShortDescription</text>
<text text-anchor="start" x="22" y="-591.6" font-family="Verdana" font-size="8.00"># toolFullDescription</text>
<text text-anchor="start" x="22" y="-578.6" font-family="Verdana" font-size="8.00"># toolInformationUri</text>
<text text-anchor="start" x="22" y="-565.6" font-family="Verdana" font-size="8.00"># toolComposerPackage</text>
<text text-anchor="start" x="22" y="-552.6" font-family="Verdana" font-size="8.00"># toolSemanticVersion</text>
<text text-anchor="start" x="22" y="-539.6" font-family="Verdana" font-size="8.00"># converterComposerPackage</text>
<text text-anchor="start" x="22" y="-526.6" font-family="Verdana" font-size="8.00"># results : mixed = []</text>
<text text-anchor="start" x="22" y="-513.6" font-family="Verdana" font-size="8.00"># errors : mixed = []</text>
<text text-anchor="start" x="22" y="-500.6" font-family="Verdana" font-size="8.00"># serializer</text>
<text text-anchor="start" x="22" y="-487.6" font-family="Verdana" font-size="8.00"># startTime</text>
<text text-anchor="start" x="22" y="-474.6" font-family="Verdana" font-size="8.00"># endTime</text>
<text text-anchor="start" x="22" y="-461.6" font-family="Verdana" font-size="8.00"># includeCodeSnippets</text>
<text text-anchor="start" x="22" y="-448.6" font-family="Verdana" font-size="8.00"># includeContextRegion</text>
<polygon fill="none" stroke="black" points="17,-214 17,-441 656,-441 656,-214 17,-214"/>
<text text-anchor="start" x="22" y="-429.6" font-family="Verdana" font-size="8.00">+ __construct(options : array = [], factory : Bartlett\Sarif\Factory\SerializerFactory = «unknown»)</text>
<text text-anchor="start" x="22" y="-416.6" font-family="Verdana" font-size="8.00">+ getName() : string</text>
<text text-anchor="start" x="22" y="-403.6" font-family="Verdana" font-size="8.00">+ configure(options : array) : void</text>
<text text-anchor="start" x="22" y="-390.6" font-family="Verdana" font-size="8.00">+ toolDriver() : Bartlett\Sarif\Definition\ToolComponent</text>
<text text-anchor="start" x="22" y="-377.6" font-family="Verdana" font-size="8.00">+ toolExtensions() : array</text>
<text text-anchor="start" x="22" y="-364.6" font-family="Verdana" font-size="8.00">+ rules(defined : iterable) : array</text>
<text text-anchor="start" x="22" y="-351.6" font-family="Verdana" font-size="8.00">+ results(normalized : iterable) : void</text>
<text text-anchor="start" x="22" y="-338.6" font-family="Verdana" font-size="8.00">+ sarifLog(runs : array = [], version : string = &#39;2\.1\.0&#39;) : ?string</text>
<text text-anchor="start" x="22" y="-325.6" font-family="Verdana" font-size="8.00">+ invocations(properties : Bartlett\Sarif\Definition\PropertyBag = «unknown») : array</text>
<text text-anchor="start" x="22" y="-312.6" font-family="Verdana" font-size="8.00">+ automationDetails() : Bartlett\Sarif\Definition\RunAutomationDetails</text>
<text text-anchor="start" x="22" y="-299.6" font-family="Verdana" font-size="8.00">+ run(invocations : iterable, rules : iterable) : Bartlett\Sarif\Definition\Run</text>
<text text-anchor="start" x="22" y="-286.6" font-family="Verdana" font-size="8.00"># getToolVersion(package : string) : string</text>
<text text-anchor="start" x="22" y="-273.6" font-family="Verdana" font-size="8.00"># pathToArtifactLocation(path : string) : string</text>
<text text-anchor="start" x="22" y="-260.6" font-family="Verdana" font-size="8.00"># pathToUri(path : string) : string</text>
<text text-anchor="start" x="22" y="-247.6" font-family="Verdana" font-size="8.00"># getCodeSnippet(filePath : string, lineNumber : int, linesBefore : int, linesAfter : int) : ?string</text>
<text text-anchor="start" x="22" y="-234.6" font-family="Verdana" font-size="8.00"># getSnippetRegion(filePath : string, lineNumber : int, column : int = «unknown», linesBefore : int = 2, linesAfter : int = 2) : Bartlett\Sarif\Definition\Region</text>
<text text-anchor="start" x="22" y="-221.6" font-family="Verdana" font-size="8.00"># getErrors() : Iterator</text>
</g>
<!-- Bartlett\\Sarif\\Converter\\PhpStanConverter&#45;&gt;Bartlett\\Sarif\\Converter\\AbstractConverter -->
<g id="edge2" class="edge">
<title>Bartlett\\Sarif\\Converter\\PhpStanConverter&#45;&gt;Bartlett\\Sarif\\Converter\\AbstractConverter</title>
<path fill="none" stroke="black" d="M336,-709.34C336,-699.52 336,-687.66 336,-674.47"/>
<polygon fill="none" stroke="black" points="339.5,-674.13 336,-664.13 332.5,-674.13 339.5,-674.13"/>
</g>
<!-- Bartlett\\Sarif\\Contract\\ConverterInterface -->
<g id="node3" class="node">
<title>Bartlett\\Sarif\\Contract\\ConverterInterface</title>
<polygon fill="#fefece" stroke="transparent" points="668,-167 264,-167 264,-16 668,-16 668,-167"/>
<polygon fill="#eeeeee" stroke="transparent" points="264,-144.5 264,-166.5 668,-166.5 668,-144.5 264,-144.5"/>
<polygon fill="none" stroke="black" points="264,-144.5 264,-166.5 668,-166.5 668,-144.5 264,-144.5"/>
<text text-anchor="start" x="440" y="-158.1" font-family="Verdana" font-weight="bold" font-size="8.00">«interface»</text>
<text text-anchor="start" x="423.5" y="-150.1" font-family="Verdana" font-weight="bold" font-size="8.00">ConverterInterface</text>
<polygon fill="none" stroke="black" points="264,-138.5 264,-144.5 668,-144.5 668,-138.5 264,-138.5"/>
<polygon fill="none" stroke="black" points="264,-15.5 264,-138.5 668,-138.5 668,-15.5 264,-15.5"/>
<text text-anchor="start" x="269" y="-127.1" font-family="Verdana" font-size="8.00">+ «abstract» getName() : string</text>
<text text-anchor="start" x="269" y="-114.1" font-family="Verdana" font-size="8.00">+ «abstract» toolDriver() : Bartlett\Sarif\Definition\ToolComponent</text>
<text text-anchor="start" x="269" y="-101.1" font-family="Verdana" font-size="8.00">+ «abstract» toolExtensions() : array</text>
<text text-anchor="start" x="269" y="-88.1" font-family="Verdana" font-size="8.00">+ «abstract» rules(defined : iterable) : array</text>
<text text-anchor="start" x="269" y="-75.1" font-family="Verdana" font-size="8.00">+ «abstract» results(normalized : iterable) : void</text>
<text text-anchor="start" x="269" y="-62.1" font-family="Verdana" font-size="8.00">+ «abstract» invocations(properties : Bartlett\Sarif\Definition\PropertyBag = «unknown») : array</text>
<text text-anchor="start" x="269" y="-49.1" font-family="Verdana" font-size="8.00">+ «abstract» automationDetails() : Bartlett\Sarif\Definition\RunAutomationDetails</text>
<text text-anchor="start" x="269" y="-36.1" font-family="Verdana" font-size="8.00">+ «abstract» run(invocations : iterable, rules : iterable) : Bartlett\Sarif\Definition\Run</text>
<text text-anchor="start" x="269" y="-23.1" font-family="Verdana" font-size="8.00">+ «abstract» sarifLog(runs : array = [], version : string = &#39;2\.1\.0&#39;) : ?string</text>
</g>
<!-- Bartlett\\Sarif\\Converter\\AbstractConverter&#45;&gt;Bartlett\\Sarif\\Contract\\ConverterInterface -->
<g id="edge1" class="edge">
<title>Bartlett\\Sarif\\Converter\\AbstractConverter&#45;&gt;Bartlett\\Sarif\\Contract\\ConverterInterface</title>
<path fill="none" stroke="black" stroke-dasharray="5,2" d="M420.35,-213.82C425.18,-200.99 429.85,-188.58 434.24,-176.9"/>
<polygon fill="none" stroke="black" points="437.62,-177.87 437.86,-167.28 431.07,-175.4 437.62,-177.87"/>
</g>
<!-- Bartlett\\Sarif\\Contract\\SourceInterface -->
<g id="node4" class="node">
<title>Bartlett\\Sarif\\Contract\\SourceInterface</title>
<polygon fill="#fefece" stroke="transparent" points="1000,-147.5 686,-147.5 686,-35.5 1000,-35.5 1000,-147.5"/>
<polygon fill="#eeeeee" stroke="transparent" points="686,-125.5 686,-147.5 1000,-147.5 1000,-125.5 686,-125.5"/>
<polygon fill="none" stroke="black" points="686,-125.5 686,-147.5 1000,-147.5 1000,-125.5 686,-125.5"/>
<text text-anchor="start" x="817" y="-139.1" font-family="Verdana" font-weight="bold" font-size="8.00">«interface»</text>
<text text-anchor="start" x="807" y="-131.1" font-family="Verdana" font-weight="bold" font-size="8.00">SourceInterface</text>
<polygon fill="none" stroke="black" points="686,-119.5 686,-125.5 1000,-125.5 1000,-119.5 686,-119.5"/>
<polygon fill="none" stroke="black" points="686,-35.5 686,-119.5 1000,-119.5 1000,-35.5 686,-35.5"/>
<text text-anchor="start" x="691" y="-108.1" font-family="Verdana" font-size="8.00">+ «abstract» getName() : string</text>
<text text-anchor="start" x="691" y="-95.1" font-family="Verdana" font-size="8.00">+ «abstract» getFiles() : Iterator</text>
<text text-anchor="start" x="691" y="-82.1" font-family="Verdana" font-size="8.00">+ «abstract» getErrors() : Iterator</text>
<text text-anchor="start" x="691" y="-69.1" font-family="Verdana" font-size="8.00">+ «abstract» getRules() : Iterator</text>
<text text-anchor="start" x="691" y="-56.1" font-family="Verdana" font-size="8.00">+ «abstract» getAttribute(name : string) : Iterator</text>
<text text-anchor="start" x="691" y="-43.1" font-family="Verdana" font-size="8.00">+ «abstract» normalize(data : mixed, format : string, context : array) : bool</text>
</g>
<!-- Bartlett\\Sarif\\Contract\\NormalizerInterface -->
<g id="node5" class="node">
<title>Bartlett\\Sarif\\Contract\\NormalizerInterface</title>
<polygon fill="#fefece" stroke="transparent" points="1366,-157 1018,-157 1018,-26 1366,-26 1366,-157"/>
<polygon fill="#eeeeee" stroke="transparent" points="1018,-134.5 1018,-156.5 1366,-156.5 1366,-134.5 1018,-134.5"/>
<polygon fill="none" stroke="black" points="1018,-134.5 1018,-156.5 1366,-156.5 1366,-134.5 1018,-134.5"/>
<text text-anchor="start" x="1166" y="-148.1" font-family="Verdana" font-weight="bold" font-size="8.00">«interface»</text>
<text text-anchor="start" x="1147" y="-140.1" font-family="Verdana" font-weight="bold" font-size="8.00">NormalizerInterface</text>
<polygon fill="none" stroke="black" points="1018,-63.5 1018,-134.5 1366,-134.5 1366,-63.5 1018,-63.5"/>
<text text-anchor="start" x="1023" y="-123.1" font-family="Verdana" font-size="8.00">+ «static» FORMAT_SARIF : string = &quot;sarif&quot; {readOnly}</text>
<text text-anchor="start" x="1023" y="-110.1" font-family="Verdana" font-size="8.00">+ «static» FORMAT_JSON : string = &quot;json&quot; {readOnly}</text>
<text text-anchor="start" x="1023" y="-97.1" font-family="Verdana" font-size="8.00">+ «static» FORMAT_XML : string = &quot;xml&quot; {readOnly}</text>
<text text-anchor="start" x="1023" y="-84.1" font-family="Verdana" font-size="8.00">+ «static» FORMAT_CHECKSTYLE : string = &quot;checkstyle&quot; {readOnly}</text>
<text text-anchor="start" x="1023" y="-71.1" font-family="Verdana" font-size="8.00">+ «static» FORMAT_INTERNAL : string = &quot;internal&quot; {readOnly}</text>
<polygon fill="none" stroke="black" points="1018,-57.5 1018,-63.5 1366,-63.5 1366,-57.5 1018,-57.5"/>
<polygon fill="none" stroke="black" points="1018,-25.5 1018,-57.5 1366,-57.5 1366,-25.5 1018,-25.5"/>
<text text-anchor="start" x="1023" y="-46.1" font-family="Verdana" font-size="8.00">+ «abstract» getSupportedFormats() : array</text>
<text text-anchor="start" x="1023" y="-33.1" font-family="Verdana" font-size="8.00">+ «abstract» normalize(data : mixed, format : string, context : array) : ?ArrayObject</text>
</g>
<!-- Bartlett\\Sarif\\Converter\\Source\\PhpStanSource -->
<g id="node6" class="node">
<title>Bartlett\\Sarif\\Converter\\Source\\PhpStanSource</title>
<polygon fill="#fefece" stroke="transparent" points="931,-763 755,-763 755,-716 931,-716 931,-763"/>
<polygon fill="#eeeeee" stroke="transparent" points="755,-740.5 755,-762.5 931,-762.5 931,-740.5 755,-740.5"/>
<polygon fill="none" stroke="black" points="755,-740.5 755,-762.5 931,-762.5 931,-740.5 755,-740.5"/>
<text text-anchor="start" x="808" y="-746.1" font-family="Verdana" font-weight="bold" font-size="8.00">PhpStanSource</text>
<polygon fill="none" stroke="black" points="755,-734.5 755,-740.5 931,-740.5 931,-734.5 755,-734.5"/>
<polygon fill="none" stroke="black" points="755,-715.5 755,-734.5 931,-734.5 931,-715.5 755,-715.5"/>
<text text-anchor="start" x="760" y="-723.1" font-family="Verdana" font-size="8.00">+ __construct(normalizers : iterable = [])</text>
</g>
<!-- Bartlett\\Sarif\\Converter\\Source\\AbstractSource -->
<g id="node7" class="node">
<title>Bartlett\\Sarif\\Converter\\Source\\AbstractSource</title>
<polygon fill="#fefece" stroke="transparent" points="1006,-521 680,-521 680,-357 1006,-357 1006,-521"/>
<polygon fill="#eeeeee" stroke="transparent" points="680,-499 680,-521 1006,-521 1006,-499 680,-499"/>
<polygon fill="none" stroke="black" points="680,-499 680,-521 1006,-521 1006,-499 680,-499"/>
<text text-anchor="start" x="819" y="-512.6" font-family="Verdana" font-weight="bold" font-size="8.00">«abstract»</text>
<text text-anchor="start" x="808.5" y="-504.6" font-family="Verdana" font-weight="bold" font-size="8.00">AbstractSource</text>
<polygon fill="none" stroke="black" points="680,-467 680,-499 1006,-499 1006,-467 680,-467"/>
<text text-anchor="start" x="685" y="-487.6" font-family="Verdana" font-size="8.00">– normalizers : mixed</text>
<text text-anchor="start" x="685" y="-474.6" font-family="Verdana" font-size="8.00">– normalized</text>
<polygon fill="none" stroke="black" points="680,-357 680,-467 1006,-467 1006,-357 680,-357"/>
<text text-anchor="start" x="685" y="-455.6" font-family="Verdana" font-size="8.00">+ __construct(normalizers : iterable = [])</text>
<text text-anchor="start" x="685" y="-442.6" font-family="Verdana" font-size="8.00">+ getName() : string</text>
<text text-anchor="start" x="685" y="-429.6" font-family="Verdana" font-size="8.00">+ getFiles() : Iterator</text>
<text text-anchor="start" x="685" y="-416.6" font-family="Verdana" font-size="8.00">+ getErrors() : Iterator</text>
<text text-anchor="start" x="685" y="-403.6" font-family="Verdana" font-size="8.00">+ getRules() : Iterator</text>
<text text-anchor="start" x="685" y="-390.6" font-family="Verdana" font-size="8.00">+ getAttribute(name : string) : Iterator</text>
<text text-anchor="start" x="685" y="-377.6" font-family="Verdana" font-size="8.00">+ normalize(data, format : string, context : array) : bool</text>
<text text-anchor="start" x="685" y="-364.6" font-family="Verdana" font-size="8.00"># getNormalizer(format : string) : ?Bartlett\Sarif\Contract\NormalizerInterface</text>
</g>
<!-- Bartlett\\Sarif\\Converter\\Source\\PhpStanSource&#45;&gt;Bartlett\\Sarif\\Converter\\Source\\AbstractSource -->
<g id="edge4" class="edge">
<title>Bartlett\\Sarif\\Converter\\Source\\PhpStanSource&#45;&gt;Bartlett\\Sarif\\Converter\\Source\\AbstractSource</title>
<path fill="none" stroke="black" d="M843,-715.57C843,-676.63 843,-595.55 843,-531.37"/>
<polygon fill="none" stroke="black" points="846.5,-531.22 843,-521.22 839.5,-531.22 846.5,-531.22"/>
</g>
<!-- Bartlett\\Sarif\\Converter\\Source\\AbstractSource&#45;&gt;Bartlett\\Sarif\\Contract\\SourceInterface -->
<g id="edge3" class="edge">
<title>Bartlett\\Sarif\\Converter\\Source\\AbstractSource&#45;&gt;Bartlett\\Sarif\\Contract\\SourceInterface</title>
<path fill="none" stroke="black" stroke-dasharray="5,2" d="M843,-357C843,-296.35 843,-214.45 843,-157.93"/>
<polygon fill="none" stroke="black" points="846.5,-157.68 843,-147.68 839.5,-157.68 846.5,-157.68"/>
</g>
<!-- Bartlett\\Sarif\\Converter\\Normalizer\\PhpStanNormalizer -->
<g id="node8" class="node">
<title>Bartlett\\Sarif\\Converter\\Normalizer\\PhpStanNormalizer</title>
<polygon fill="#fefece" stroke="transparent" points="1422,-779 1030,-779 1030,-700 1422,-700 1422,-779"/>
<polygon fill="#eeeeee" stroke="transparent" points="1030,-756.5 1030,-778.5 1422,-778.5 1422,-756.5 1030,-756.5"/>
<polygon fill="none" stroke="black" points="1030,-756.5 1030,-778.5 1422,-778.5 1422,-756.5 1030,-756.5"/>
<text text-anchor="start" x="1182" y="-762.1" font-family="Verdana" font-weight="bold" font-size="8.00">PhpStanNormalizer</text>
<polygon fill="none" stroke="black" points="1030,-737.5 1030,-756.5 1422,-756.5 1422,-737.5 1030,-737.5"/>
<text text-anchor="start" x="1035" y="-745.1" font-family="Verdana" font-size="8.00">+ «static» URI_PATTERN : string = &quot;https\:\/\/phpstan\.org\/error\&#45;identifiers\/\%s&quot; {readOnly}</text>
<polygon fill="none" stroke="black" points="1030,-731.5 1030,-737.5 1422,-737.5 1422,-731.5 1030,-731.5"/>
<polygon fill="none" stroke="black" points="1030,-699.5 1030,-731.5 1422,-731.5 1422,-699.5 1030,-699.5"/>
<text text-anchor="start" x="1035" y="-720.1" font-family="Verdana" font-size="8.00">+ normalize(data, format : string, context : array) : ?ArrayObject</text>
<text text-anchor="start" x="1035" y="-707.1" font-family="Verdana" font-size="8.00"># fromInternal(data, context : array, mapping : array = []) : array</text>
</g>
<!-- Bartlett\\Sarif\\Converter\\Normalizer\\AbstractNormalizer -->
<g id="node9" class="node">
<title>Bartlett\\Sarif\\Converter\\Normalizer\\AbstractNormalizer</title>
<polygon fill="#fefece" stroke="transparent" points="1361.5,-511 1056.5,-511 1056.5,-367 1361.5,-367 1361.5,-511"/>
<polygon fill="#eeeeee" stroke="transparent" points="1057,-489 1057,-511 1362,-511 1362,-489 1057,-489"/>
<polygon fill="none" stroke="black" points="1057,-489 1057,-511 1362,-511 1362,-489 1057,-489"/>
<text text-anchor="start" x="1185.5" y="-502.6" font-family="Verdana" font-weight="bold" font-size="8.00">«abstract»</text>
<text text-anchor="start" x="1166" y="-494.6" font-family="Verdana" font-weight="bold" font-size="8.00">AbstractNormalizer</text>
<polygon fill="none" stroke="black" points="1057,-418 1057,-489 1362,-489 1362,-418 1057,-418"/>
<text text-anchor="start" x="1062" y="-477.6" font-family="Verdana" font-size="8.00">+ «static» FORMAT_SARIF : string = &quot;sarif&quot; {readOnly}</text>
<text text-anchor="start" x="1062" y="-464.6" font-family="Verdana" font-size="8.00">+ «static» FORMAT_JSON : string = &quot;json&quot; {readOnly}</text>
<text text-anchor="start" x="1062" y="-451.6" font-family="Verdana" font-size="8.00">+ «static» FORMAT_XML : string = &quot;xml&quot; {readOnly}</text>
<text text-anchor="start" x="1062" y="-438.6" font-family="Verdana" font-size="8.00">+ «static» FORMAT_CHECKSTYLE : string = &quot;checkstyle&quot; {readOnly}</text>
<text text-anchor="start" x="1062" y="-425.6" font-family="Verdana" font-size="8.00">+ «static» FORMAT_INTERNAL : string = &quot;internal&quot; {readOnly}</text>
<polygon fill="none" stroke="black" points="1057,-412 1057,-418 1362,-418 1362,-412 1057,-412"/>
<polygon fill="none" stroke="black" points="1057,-367 1057,-412 1362,-412 1362,-367 1057,-367"/>
<text text-anchor="start" x="1062" y="-400.6" font-family="Verdana" font-size="8.00">+ getSupportedFormats() : array</text>
<text text-anchor="start" x="1062" y="-387.6" font-family="Verdana" font-size="8.00">+ normalize(data, format : string, context : array) : ?ArrayObject</text>
<text text-anchor="start" x="1062" y="-374.6" font-family="Verdana" font-size="8.00"># fromInternal(data : mixed, context : array, mapping : array = []) : array</text>
</g>
<!-- Bartlett\\Sarif\\Converter\\Normalizer\\PhpStanNormalizer&#45;&gt;Bartlett\\Sarif\\Converter\\Normalizer\\AbstractNormalizer -->
<g id="edge6" class="edge">
<title>Bartlett\\Sarif\\Converter\\Normalizer\\PhpStanNormalizer&#45;&gt;Bartlett\\Sarif\\Converter\\Normalizer\\AbstractNormalizer</title>
<path fill="none" stroke="black" d="M1223.79,-699.78C1221.24,-654.84 1216.94,-579.48 1213.64,-521.47"/>
<polygon fill="none" stroke="black" points="1217.12,-521 1213.06,-511.22 1210.13,-521.4 1217.12,-521"/>
</g>
<!-- Bartlett\\Sarif\\Converter\\Normalizer\\AbstractNormalizer&#45;&gt;Bartlett\\Sarif\\Contract\\NormalizerInterface -->
<g id="edge5" class="edge">
<title>Bartlett\\Sarif\\Converter\\Normalizer\\AbstractNormalizer&#45;&gt;Bartlett\\Sarif\\Contract\\NormalizerInterface</title>
<path fill="none" stroke="black" stroke-dasharray="5,2" d="M1205.5,-366.83C1202.63,-308.57 1198.59,-226.4 1195.68,-167.2"/>
<polygon fill="none" stroke="black" points="1199.17,-166.98 1195.18,-157.16 1192.18,-167.32 1199.17,-166.98"/>
</g>
</g>
</svg>
